<?xml version="1.0" encoding="UTF-8" standalone="no"?>
<!DOCTYPE svg PUBLIC "-//W3C//DTD SVG 1.1//EN"
 "http://www.w3.org/Graphics/SVG/1.1/DTD/svg11.dtd">
<!-- Generated by graphviz version 2.43.0 (0)
 -->
<!-- Pages: 1 -->
<svg width="659pt" height="1740pt"
 viewBox="0.00 0.00 659.40 1740.40" xmlns="http://www.w3.org/2000/svg" xmlns:xlink="http://www.w3.org/1999/xlink">
<g id="graph0" class="graph" transform="scale(1 1) rotate(0) translate(25.2 1715.2)">
<polygon fill="#fafbfc" stroke="transparent" points="-25.2,25.2 -25.2,-1715.2 634.2,-1715.2 634.2,25.2 -25.2,25.2"/>
<text text-anchor="middle" x="304.5" y="-1671.6" font-family="Helvetica,sans-Serif" font-size="18.00">TTL Graph: AttributeQuantityValue_sheetthickness.ttl</text>
<!-- uri::https://example.org/tensile&#45;test/attr_thickness -->
<g id="node1" class="node">
<title>uri::https://example.org/tensile&#45;test/attr_thickness</title>
<path fill="#e3f2fd" stroke="#1976d2" stroke-width="1.2" d="M114.5,-329C114.5,-329 35.5,-329 35.5,-329 29.5,-329 23.5,-323 23.5,-317 23.5,-317 23.5,-305 23.5,-305 23.5,-299 29.5,-293 35.5,-293 35.5,-293 114.5,-293 114.5,-293 120.5,-293 126.5,-299 126.5,-305 126.5,-305 126.5,-317 126.5,-317 126.5,-323 120.5,-329 114.5,-329"/>
<text text-anchor="middle" x="75" y="-308.5" font-family="Helvetica,sans-Serif" font-size="10.00" fill="#0d47a1">ex:attr_thickness</text>
</g>
<!-- lit::Ausgangsblechdicke der Zugprobe vor dem Versuch::::de -->
<g id="node2" class="node">
<title>lit::Ausgangsblechdicke der Zugprobe vor dem Versuch::::de</title>
<polygon fill="#fff9db" stroke="#b08900" stroke-width="1.2" points="598.5,-556 333.5,-556 333.5,-520 604.5,-520 604.5,-550 598.5,-556"/>
<polyline fill="none" stroke="#b08900" stroke-width="1.2" points="598.5,-556 598.5,-550 "/>
<polyline fill="none" stroke="#b08900" stroke-width="1.2" points="604.5,-550 598.5,-550 "/>
<text text-anchor="middle" x="469" y="-535.5" font-family="Helvetica,sans-Serif" font-size="10.00" fill="#5c4500">Ausgangsblechdicke der Zugprobe vor dem Versuch</text>
</g>
<!-- uri::https://example.org/tensile&#45;test/attr_thickness&#45;&gt;lit::Ausgangsblechdicke der Zugprobe vor dem Versuch::::de -->
<g id="edge1" class="edge">
<title>uri::https://example.org/tensile&#45;test/attr_thickness&#45;&gt;lit::Ausgangsblechdicke der Zugprobe vor dem Versuch::::de</title>
<path fill="none" stroke="#4a5568" stroke-width="1.2" d="M85.76,-329.21C102.2,-358.31 138.07,-415.43 183,-449 229.5,-483.75 289.85,-505.12 343.04,-518.18"/>
<polygon fill="#4a5568" stroke="#4a5568" stroke-width="1.2" points="342.59,-520.77 350.5,-519.97 343.81,-515.67 342.59,-520.77"/>
<text text-anchor="middle" x="239.5" y="-505.8" font-family="Helvetica,sans-Serif" font-size="9.00">sdata:description</text>
</g>
<!-- lit::Initial sheet thickness of the tensile specimen before testing::::en -->
<g id="node3" class="node">
<title>lit::Initial sheet thickness of the tensile specimen before testing::::en</title>
<polygon fill="#fff9db" stroke="#b08900" stroke-width="1.2" points="589.5,-491 342.5,-491 342.5,-455 595.5,-455 595.5,-485 589.5,-491"/>
<polyline fill="none" stroke="#b08900" stroke-width="1.2" points="589.5,-491 589.5,-485 "/>
<polyline fill="none" stroke="#b08900" stroke-width="1.2" points="595.5,-485 589.5,-485 "/>
<text text-anchor="middle" x="469" y="-470.5" font-family="Helvetica,sans-Serif" font-size="10.00" fill="#5c4500">Initial sheet thickness of the tensile specimen...</text>
</g>
<!-- uri::https://example.org/tensile&#45;test/attr_thickness&#45;&gt;lit::Initial sheet thickness of the tensile specimen before testing::::en -->
<g id="edge2" class="edge">
<title>uri::https://example.org/tensile&#45;test/attr_thickness&#45;&gt;lit::Initial sheet thickness of the tensile specimen before testing::::en</title>
<path fill="none" stroke="#4a5568" stroke-width="1.2" d="M96.46,-329.04C117.12,-346.53 150.54,-372.85 183,-390 239.36,-419.78 307.8,-440.16 363.48,-453.27"/>
<polygon fill="#4a5568" stroke="#4a5568" stroke-width="1.2" points="363,-455.85 370.9,-454.99 364.19,-450.74 363,-455.85"/>
<text text-anchor="middle" x="239.5" y="-434.8" font-family="Helvetica,sans-Serif" font-size="9.00">sdata:description</text>
</g>
<!-- lit::1.2::http://www.w3.org/2001/XMLSchema#double:: -->
<g id="node4" class="node">
<title>lit::1.2::http://www.w3.org/2001/XMLSchema#double::</title>
<polygon fill="#fff9db" stroke="#b08900" stroke-width="1.2" points="490,-622 442,-622 442,-586 496,-586 496,-616 490,-622"/>
<polyline fill="none" stroke="#b08900" stroke-width="1.2" points="490,-622 490,-616 "/>
<polyline fill="none" stroke="#b08900" stroke-width="1.2" points="496,-616 490,-616 "/>
<text text-anchor="middle" x="469" y="-601.5" font-family="Helvetica,sans-Serif" font-size="10.00" fill="#5c4500">1.2</text>
</g>
<!-- uri::https://example.org/tensile&#45;test/attr_thickness&#45;&gt;lit::1.2::http://www.w3.org/2001/XMLSchema#double:: -->
<g id="edge3" class="edge">
<title>uri::https://example.org/tensile&#45;test/attr_thickness&#45;&gt;lit::1.2::http://www.w3.org/2001/XMLSchema#double::</title>
<path fill="none" stroke="#4a5568" stroke-width="1.2" d="M80.38,-329.24C90.96,-369.49 121.69,-466.57 183,-520 256.17,-583.77 375.73,-599.17 433.97,-602.86"/>
<polygon fill="#4a5568" stroke="#4a5568" stroke-width="1.2" points="434.13,-605.5 441.77,-603.31 434.43,-600.26 434.13,-605.5"/>
<text text-anchor="middle" x="239.5" y="-578.8" font-family="Helvetica,sans-Serif" font-size="9.00">qudt:numericValue</text>
</g>
<!-- uri::http://qudt.org/vocab/unit/MilliM -->
<g id="node5" class="node">
<title>uri::http://qudt.org/vocab/unit/MilliM</title>
<path fill="#ffffff" stroke="#78909c" stroke-width="1.2" d="M492,-101C492,-101 446,-101 446,-101 440,-101 434,-95 434,-89 434,-89 434,-77 434,-77 434,-71 440,-65 446,-65 446,-65 492,-65 492,-65 498,-65 504,-71 504,-77 504,-77 504,-89 504,-89 504,-95 498,-101 492,-101"/>
<text text-anchor="middle" x="469" y="-80.5" font-family="Helvetica,sans-Serif" font-size="10.00" fill="#37474f">unit:MilliM</text>
</g>
<!-- uri::https://example.org/tensile&#45;test/attr_thickness&#45;&gt;uri::http://qudt.org/vocab/unit/MilliM -->
<g id="edge4" class="edge">
<title>uri::https://example.org/tensile&#45;test/attr_thickness&#45;&gt;uri::http://qudt.org/vocab/unit/MilliM</title>
<path fill="none" stroke="#4a5568" stroke-width="1.2" d="M85.78,-292.82C102.26,-263.76 138.17,-206.71 183,-173 257.22,-117.19 366.95,-95.43 426.27,-87.38"/>
<polygon fill="#4a5568" stroke="#4a5568" stroke-width="1.2" points="426.85,-89.96 433.95,-86.38 426.17,-84.75 426.85,-89.96"/>
<text text-anchor="middle" x="239.5" y="-175.8" font-family="Helvetica,sans-Serif" font-size="9.00">qudt:unit</text>
</g>
<!-- lit::Sheet Thickness::::en -->
<g id="node6" class="node">
<title>lit::Sheet Thickness::::en</title>
<polygon fill="#fff9db" stroke="#b08900" stroke-width="1.2" points="512,-36 420,-36 420,0 518,0 518,-30 512,-36"/>
<polyline fill="none" stroke="#b08900" stroke-width="1.2" points="512,-36 512,-30 "/>
<polyline fill="none" stroke="#b08900" stroke-width="1.2" points="518,-30 512,-30 "/>
<text text-anchor="middle" x="469" y="-15.5" font-family="Helvetica,sans-Serif" font-size="10.00" fill="#5c4500">Sheet Thickness</text>
</g>
<!-- uri::https://example.org/tensile&#45;test/attr_thickness&#45;&gt;lit::Sheet Thickness::::en -->
<g id="edge5" class="edge">
<title>uri::https://example.org/tensile&#45;test/attr_thickness&#45;&gt;lit::Sheet Thickness::::en</title>
<path fill="none" stroke="#4a5568" stroke-width="1.2" d="M80.4,-292.79C91.03,-252.59 121.85,-155.62 183,-102 247.72,-45.25 349.15,-26.79 411.94,-20.82"/>
<polygon fill="#4a5568" stroke="#4a5568" stroke-width="1.2" points="412.54,-23.4 419.78,-20.12 412.08,-18.17 412.54,-23.4"/>
<text text-anchor="middle" x="239.5" y="-104.8" font-family="Helvetica,sans-Serif" font-size="9.00">rdfs:label</text>
</g>
<!-- lit::float:::: -->
<g id="node7" class="node">
<title>lit::float::::</title>
<polygon fill="#fff9db" stroke="#b08900" stroke-width="1.2" points="490,-426 442,-426 442,-390 496,-390 496,-420 490,-426"/>
<polyline fill="none" stroke="#b08900" stroke-width="1.2" points="490,-426 490,-420 "/>
<polyline fill="none" stroke="#b08900" stroke-width="1.2" points="496,-420 490,-420 "/>
<text text-anchor="middle" x="469" y="-405.5" font-family="Helvetica,sans-Serif" font-size="10.00" fill="#5c4500">float</text>
</g>
<!-- uri::https://example.org/tensile&#45;test/attr_thickness&#45;&gt;lit::float:::: -->
<g id="edge6" class="edge">
<title>uri::https://example.org/tensile&#45;test/attr_thickness&#45;&gt;lit::float::::</title>
<path fill="none" stroke="#4a5568" stroke-width="1.2" d="M126.57,-328.71C144.3,-334.61 164.42,-340.95 183,-346 272.89,-370.41 380.75,-391.75 434.35,-401.83"/>
<polygon fill="#4a5568" stroke="#4a5568" stroke-width="1.2" points="434,-404.44 441.85,-403.24 434.96,-399.28 434,-404.44"/>
<text text-anchor="middle" x="239.5" y="-375.8" font-family="Helvetica,sans-Serif" font-size="9.00">sdata:dtype</text>
</g>
<!-- uri::https://w3id.org/sdata/core/AttributeQuantityValue -->
<g id="node8" class="node">
<title>uri::https://w3id.org/sdata/core/AttributeQuantityValue</title>
<path fill="#f3e8ff" stroke="#7e57c2" stroke-width="1.2" d="M537,-361C537,-361 401,-361 401,-361 395,-361 389,-355 389,-349 389,-349 389,-337 389,-337 389,-331 395,-325 401,-325 401,-325 537,-325 537,-325 543,-325 549,-331 549,-337 549,-337 549,-349 549,-349 549,-355 543,-361 537,-361"/>
<text text-anchor="middle" x="469" y="-340.5" font-family="Helvetica,sans-Serif" font-size="10.00" fill="#4527a0">sdata:AttributeQuantityValue</text>
</g>
<!-- uri::https://example.org/tensile&#45;test/attr_thickness&#45;&gt;uri::https://w3id.org/sdata/core/AttributeQuantityValue -->
<g id="edge7" class="edge">
<title>uri::https://example.org/tensile&#45;test/attr_thickness&#45;&gt;uri::https://w3id.org/sdata/core/AttributeQuantityValue</title>
<path fill="none" stroke="#4a5568" stroke-width="1.2" d="M126.85,-315.15C191.14,-320.4 302.83,-329.52 380.84,-335.88"/>
<polygon fill="#4a5568" stroke="#4a5568" stroke-width="1.2" points="381.07,-338.54 388.75,-336.53 381.49,-333.3 381.07,-338.54"/>
<text text-anchor="middle" x="239.5" y="-331.8" font-family="Helvetica,sans-Serif" font-size="9.00">rdf:type</text>
</g>
<!-- lit::mm:::: -->
<g id="node9" class="node">
<title>lit::mm::::</title>
<polygon fill="#fff9db" stroke="#b08900" stroke-width="1.2" points="490,-296 442,-296 442,-260 496,-260 496,-290 490,-296"/>
<polyline fill="none" stroke="#b08900" stroke-width="1.2" points="490,-296 490,-290 "/>
<polyline fill="none" stroke="#b08900" stroke-width="1.2" points="496,-290 490,-290 "/>
<text text-anchor="middle" x="469" y="-275.5" font-family="Helvetica,sans-Serif" font-size="10.00" fill="#5c4500">mm</text>
</g>
<!-- uri::https://example.org/tensile&#45;test/attr_thickness&#45;&gt;lit::mm:::: -->
<g id="edge8" class="edge">
<title>uri::https://example.org/tensile&#45;test/attr_thickness&#45;&gt;lit::mm::::</title>
<path fill="none" stroke="#4a5568" stroke-width="1.2" d="M126.85,-306.72C208.23,-299.87 365.58,-286.62 434.4,-280.83"/>
<polygon fill="#4a5568" stroke="#4a5568" stroke-width="1.2" points="434.7,-283.44 441.95,-280.19 434.26,-278.21 434.7,-283.44"/>
<text text-anchor="middle" x="239.5" y="-304.8" font-family="Helvetica,sans-Serif" font-size="9.00">sdata:unitSymbol</text>
</g>
<!-- lit::Blechdicke::::de -->
<g id="node10" class="node">
<title>lit::Blechdicke::::de</title>
<polygon fill="#fff9db" stroke="#b08900" stroke-width="1.2" points="498.5,-231 433.5,-231 433.5,-195 504.5,-195 504.5,-225 498.5,-231"/>
<polyline fill="none" stroke="#b08900" stroke-width="1.2" points="498.5,-231 498.5,-225 "/>
<polyline fill="none" stroke="#b08900" stroke-width="1.2" points="504.5,-225 498.5,-225 "/>
<text text-anchor="middle" x="469" y="-210.5" font-family="Helvetica,sans-Serif" font-size="10.00" fill="#5c4500">Blechdicke</text>
</g>
<!-- uri::https://example.org/tensile&#45;test/attr_thickness&#45;&gt;lit::Blechdicke::::de -->
<g id="edge9" class="edge">
<title>uri::https://example.org/tensile&#45;test/attr_thickness&#45;&gt;lit::Blechdicke::::de</title>
<path fill="none" stroke="#4a5568" stroke-width="1.2" d="M126.58,-293.32C144.31,-287.43 164.43,-281.08 183,-276 268.2,-252.71 369.5,-231.93 425.48,-221.04"/>
<polygon fill="#4a5568" stroke="#4a5568" stroke-width="1.2" points="426.21,-223.57 433.07,-219.57 425.21,-218.42 426.21,-223.57"/>
<text text-anchor="middle" x="239.5" y="-278.8" font-family="Helvetica,sans-Serif" font-size="9.00">rdfs:label</text>
</g>
<!-- lit::t:::: -->
<g id="node11" class="node">
<title>lit::t::::</title>
<polygon fill="#fff9db" stroke="#b08900" stroke-width="1.2" points="490,-166 442,-166 442,-130 496,-130 496,-160 490,-166"/>
<polyline fill="none" stroke="#b08900" stroke-width="1.2" points="490,-166 490,-160 "/>
<polyline fill="none" stroke="#b08900" stroke-width="1.2" points="496,-160 490,-160 "/>
<text text-anchor="middle" x="469" y="-145.5" font-family="Helvetica,sans-Serif" font-size="10.00" fill="#5c4500">t</text>
</g>
<!-- uri::https://example.org/tensile&#45;test/attr_thickness&#45;&gt;lit::t:::: -->
<g id="edge10" class="edge">
<title>uri::https://example.org/tensile&#45;test/attr_thickness&#45;&gt;lit::t::::</title>
<path fill="none" stroke="#4a5568" stroke-width="1.2" d="M96.94,-292.96C117.69,-275.78 150.94,-250.06 183,-233 267.5,-188.03 379.07,-163.62 434.19,-153.57"/>
<polygon fill="#4a5568" stroke="#4a5568" stroke-width="1.2" points="434.99,-156.09 441.91,-152.19 434.06,-150.93 434.99,-156.09"/>
<text text-anchor="middle" x="239.5" y="-235.8" font-family="Helvetica,sans-Serif" font-size="9.00">sdata:name</text>
</g>
<!-- uri::https://example.org/tensile&#45;test/dom_thickness_fuzzy -->
<g id="node12" class="node">
<title>uri::https://example.org/tensile&#45;test/dom_thickness_fuzzy</title>
<path fill="#e3f2fd" stroke="#1976d2" stroke-width="1.2" d="M132.5,-1142C132.5,-1142 17.5,-1142 17.5,-1142 11.5,-1142 5.5,-1136 5.5,-1130 5.5,-1130 5.5,-1118 5.5,-1118 5.5,-1112 11.5,-1106 17.5,-1106 17.5,-1106 132.5,-1106 132.5,-1106 138.5,-1106 144.5,-1112 144.5,-1118 144.5,-1118 144.5,-1130 144.5,-1130 144.5,-1136 138.5,-1142 132.5,-1142"/>
<text text-anchor="middle" x="75" y="-1121.5" font-family="Helvetica,sans-Serif" font-size="10.00" fill="#0d47a1">ex:dom_thickness_fuzzy</text>
</g>
<!-- lit::1.05::http://www.w3.org/2001/XMLSchema#double:: -->
<g id="node13" class="node">
<title>lit::1.05::http://www.w3.org/2001/XMLSchema#double::</title>
<polygon fill="#fff9db" stroke="#b08900" stroke-width="1.2" points="490,-1337 442,-1337 442,-1301 496,-1301 496,-1331 490,-1337"/>
<polyline fill="none" stroke="#b08900" stroke-width="1.2" points="490,-1337 490,-1331 "/>
<polyline fill="none" stroke="#b08900" stroke-width="1.2" points="496,-1331 490,-1331 "/>
<text text-anchor="middle" x="469" y="-1316.5" font-family="Helvetica,sans-Serif" font-size="10.00" fill="#5c4500">1.05</text>
</g>
<!-- uri::https://example.org/tensile&#45;test/dom_thickness_fuzzy&#45;&gt;lit::1.05::http://www.w3.org/2001/XMLSchema#double:: -->
<g id="edge11" class="edge">
<title>uri::https://example.org/tensile&#45;test/dom_thickness_fuzzy&#45;&gt;lit::1.05::http://www.w3.org/2001/XMLSchema#double::</title>
<path fill="none" stroke="#4a5568" stroke-width="1.2" d="M90.55,-1142.21C109.67,-1165.12 145.26,-1204.44 183,-1229 263.99,-1281.72 377.98,-1305.37 434.09,-1314.34"/>
<polygon fill="#4a5568" stroke="#4a5568" stroke-width="1.2" points="433.8,-1316.95 441.61,-1315.51 434.6,-1311.76 433.8,-1316.95"/>
<text text-anchor="middle" x="239.5" y="-1282.8" font-family="Helvetica,sans-Serif" font-size="9.00">sdata:fuzzyLeft</text>
</g>
<!-- lit::1.15::http://www.w3.org/2001/XMLSchema#double:: -->
<g id="node14" class="node">
<title>lit::1.15::http://www.w3.org/2001/XMLSchema#double::</title>
<polygon fill="#fff9db" stroke="#b08900" stroke-width="1.2" points="490,-1272 442,-1272 442,-1236 496,-1236 496,-1266 490,-1272"/>
<polyline fill="none" stroke="#b08900" stroke-width="1.2" points="490,-1272 490,-1266 "/>
<polyline fill="none" stroke="#b08900" stroke-width="1.2" points="496,-1266 490,-1266 "/>
<text text-anchor="middle" x="469" y="-1251.5" font-family="Helvetica,sans-Serif" font-size="10.00" fill="#5c4500">1.15</text>
</g>
<!-- uri::https://example.org/tensile&#45;test/dom_thickness_fuzzy&#45;&gt;lit::1.15::http://www.w3.org/2001/XMLSchema#double:: -->
<g id="edge12" class="edge">
<title>uri::https://example.org/tensile&#45;test/dom_thickness_fuzzy&#45;&gt;lit::1.15::http://www.w3.org/2001/XMLSchema#double::</title>
<path fill="none" stroke="#4a5568" stroke-width="1.2" d="M109.1,-1142.12C129.93,-1153.09 157.58,-1166.86 183,-1177 270.8,-1212.01 380.01,-1236.54 434.22,-1247.52"/>
<polygon fill="#4a5568" stroke="#4a5568" stroke-width="1.2" points="433.94,-1250.14 441.81,-1249.04 434.97,-1244.99 433.94,-1250.14"/>
<text text-anchor="middle" x="239.5" y="-1214.8" font-family="Helvetica,sans-Serif" font-size="9.00">sdata:fuzzyCoreLeft</text>
</g>
<!-- lit::Blechdicke 1.2 mm — weiche Toleranz für Simulation::::de -->
<g id="node15" class="node">
<title>lit::Blechdicke 1.2 mm — weiche Toleranz für Simulation::::de</title>
<polygon fill="#fff9db" stroke="#b08900" stroke-width="1.2" points="601.5,-1207 330.5,-1207 330.5,-1171 607.5,-1171 607.5,-1201 601.5,-1207"/>
<polyline fill="none" stroke="#b08900" stroke-width="1.2" points="601.5,-1207 601.5,-1201 "/>
<polyline fill="none" stroke="#b08900" stroke-width="1.2" points="607.5,-1201 601.5,-1201 "/>
<text text-anchor="middle" x="469" y="-1186.5" font-family="Helvetica,sans-Serif" font-size="10.00" fill="#5c4500">Blechdicke 1.2 mm — weiche Toleranz für Simulation</text>
</g>
<!-- uri::https://example.org/tensile&#45;test/dom_thickness_fuzzy&#45;&gt;lit::Blechdicke 1.2 mm — weiche Toleranz für Simulation::::de -->
<g id="edge13" class="edge">
<title>uri::https://example.org/tensile&#45;test/dom_thickness_fuzzy&#45;&gt;lit::Blechdicke 1.2 mm — weiche Toleranz für Simulation::::de</title>
<path fill="none" stroke="#4a5568" stroke-width="1.2" d="M144.73,-1135.4C201.82,-1144.86 284.28,-1158.54 351.63,-1169.7"/>
<polygon fill="#4a5568" stroke="#4a5568" stroke-width="1.2" points="351.52,-1172.35 359.35,-1170.98 352.38,-1167.17 351.52,-1172.35"/>
<text text-anchor="middle" x="239.5" y="-1162.8" font-family="Helvetica,sans-Serif" font-size="9.00">sdata:domainDescription</text>
</g>
<!-- lit::Sheet thickness 1.2 mm — soft tolerance for simulation::::en -->
<g id="node16" class="node">
<title>lit::Sheet thickness 1.2 mm — soft tolerance for simulation::::en</title>
<polygon fill="#fff9db" stroke="#b08900" stroke-width="1.2" points="595.5,-1142 336.5,-1142 336.5,-1106 601.5,-1106 601.5,-1136 595.5,-1142"/>
<polyline fill="none" stroke="#b08900" stroke-width="1.2" points="595.5,-1142 595.5,-1136 "/>
<polyline fill="none" stroke="#b08900" stroke-width="1.2" points="601.5,-1136 595.5,-1136 "/>
<text text-anchor="middle" x="469" y="-1121.5" font-family="Helvetica,sans-Serif" font-size="10.00" fill="#5c4500">Sheet thickness 1.2 mm — soft tolerance for sim...</text>
</g>
<!-- uri::https://example.org/tensile&#45;test/dom_thickness_fuzzy&#45;&gt;lit::Sheet thickness 1.2 mm — soft tolerance for simulation::::en -->
<g id="edge14" class="edge">
<title>uri::https://example.org/tensile&#45;test/dom_thickness_fuzzy&#45;&gt;lit::Sheet thickness 1.2 mm — soft tolerance for simulation::::en</title>
<path fill="none" stroke="#4a5568" stroke-width="1.2" d="M144.73,-1124C195.48,-1124 266.27,-1124 328.68,-1124"/>
<polygon fill="#4a5568" stroke="#4a5568" stroke-width="1.2" points="328.75,-1126.63 336.25,-1124 328.75,-1121.38 328.75,-1126.63"/>
<text text-anchor="middle" x="239.5" y="-1126.8" font-family="Helvetica,sans-Serif" font-size="9.00">sdata:domainDescription</text>
</g>
<!-- uri::https://w3id.org/sdata/core/TrapezoidalFuzzyDomain -->
<g id="node17" class="node">
<title>uri::https://w3id.org/sdata/core/TrapezoidalFuzzyDomain</title>
<path fill="#f3e8ff" stroke="#7e57c2" stroke-width="1.2" d="M542,-1077C542,-1077 396,-1077 396,-1077 390,-1077 384,-1071 384,-1065 384,-1065 384,-1053 384,-1053 384,-1047 390,-1041 396,-1041 396,-1041 542,-1041 542,-1041 548,-1041 554,-1047 554,-1053 554,-1053 554,-1065 554,-1065 554,-1071 548,-1077 542,-1077"/>
<text text-anchor="middle" x="469" y="-1056.5" font-family="Helvetica,sans-Serif" font-size="10.00" fill="#4527a0">sdata:TrapezoidalFuzzyDomain</text>
</g>
<!-- uri::https://example.org/tensile&#45;test/dom_thickness_fuzzy&#45;&gt;uri::https://w3id.org/sdata/core/TrapezoidalFuzzyDomain -->
<g id="edge15" class="edge">
<title>uri::https://example.org/tensile&#45;test/dom_thickness_fuzzy&#45;&gt;uri::https://w3id.org/sdata/core/TrapezoidalFuzzyDomain</title>
<path fill="none" stroke="#4a5568" stroke-width="1.2" d="M144.73,-1112.6C209.03,-1101.94 305.52,-1085.94 376.35,-1074.2"/>
<polygon fill="#4a5568" stroke="#4a5568" stroke-width="1.2" points="377.02,-1076.75 383.99,-1072.93 376.16,-1071.57 377.02,-1076.75"/>
<text text-anchor="middle" x="239.5" y="-1106.8" font-family="Helvetica,sans-Serif" font-size="9.00">rdf:type</text>
</g>
<!-- lit::1.35::http://www.w3.org/2001/XMLSchema#double:: -->
<g id="node18" class="node">
<title>lit::1.35::http://www.w3.org/2001/XMLSchema#double::</title>
<polygon fill="#fff9db" stroke="#b08900" stroke-width="1.2" points="490,-1012 442,-1012 442,-976 496,-976 496,-1006 490,-1012"/>
<polyline fill="none" stroke="#b08900" stroke-width="1.2" points="490,-1012 490,-1006 "/>
<polyline fill="none" stroke="#b08900" stroke-width="1.2" points="496,-1006 490,-1006 "/>
<text text-anchor="middle" x="469" y="-991.5" font-family="Helvetica,sans-Serif" font-size="10.00" fill="#5c4500">1.35</text>
</g>
<!-- uri::https://example.org/tensile&#45;test/dom_thickness_fuzzy&#45;&gt;lit::1.35::http://www.w3.org/2001/XMLSchema#double:: -->
<g id="edge16" class="edge">
<title>uri::https://example.org/tensile&#45;test/dom_thickness_fuzzy&#45;&gt;lit::1.35::http://www.w3.org/2001/XMLSchema#double::</title>
<path fill="none" stroke="#4a5568" stroke-width="1.2" d="M108.08,-1105.89C128.97,-1094.58 157.07,-1080.26 183,-1070 270.81,-1035.24 380.02,-1011.12 434.22,-1000.35"/>
<polygon fill="#4a5568" stroke="#4a5568" stroke-width="1.2" points="434.95,-1002.88 441.81,-998.86 433.94,-997.73 434.95,-1002.88"/>
<text text-anchor="middle" x="239.5" y="-1072.8" font-family="Helvetica,sans-Serif" font-size="9.00">sdata:fuzzyRight</text>
</g>
<!-- lit::1.25::http://www.w3.org/2001/XMLSchema#double:: -->
<g id="node19" class="node">
<title>lit::1.25::http://www.w3.org/2001/XMLSchema#double::</title>
<polygon fill="#fff9db" stroke="#b08900" stroke-width="1.2" points="490,-947 442,-947 442,-911 496,-911 496,-941 490,-947"/>
<polyline fill="none" stroke="#b08900" stroke-width="1.2" points="490,-947 490,-941 "/>
<polyline fill="none" stroke="#b08900" stroke-width="1.2" points="496,-941 490,-941 "/>
<text text-anchor="middle" x="469" y="-926.5" font-family="Helvetica,sans-Serif" font-size="10.00" fill="#5c4500">1.25</text>
</g>
<!-- uri::https://example.org/tensile&#45;test/dom_thickness_fuzzy&#45;&gt;lit::1.25::http://www.w3.org/2001/XMLSchema#double:: -->
<g id="edge17" class="edge">
<title>uri::https://example.org/tensile&#45;test/dom_thickness_fuzzy&#45;&gt;lit::1.25::http://www.w3.org/2001/XMLSchema#double::</title>
<path fill="none" stroke="#4a5568" stroke-width="1.2" d="M90.08,-1105.72C108.96,-1082.3 144.59,-1041.78 183,-1017 264.05,-964.73 378.01,-941.94 434.1,-933.4"/>
<polygon fill="#4a5568" stroke="#4a5568" stroke-width="1.2" points="434.59,-935.98 441.62,-932.29 433.82,-930.79 434.59,-935.98"/>
<text text-anchor="middle" x="239.5" y="-1019.8" font-family="Helvetica,sans-Serif" font-size="9.00">sdata:fuzzyCoreRight</text>
</g>
<!-- uri::https://example.org/tensile&#45;test/dom_thickness_normal -->
<g id="node20" class="node">
<title>uri::https://example.org/tensile&#45;test/dom_thickness_normal</title>
<path fill="#e3f2fd" stroke="#1976d2" stroke-width="1.2" d="M136.5,-752C136.5,-752 13.5,-752 13.5,-752 7.5,-752 1.5,-746 1.5,-740 1.5,-740 1.5,-728 1.5,-728 1.5,-722 7.5,-716 13.5,-716 13.5,-716 136.5,-716 136.5,-716 142.5,-716 148.5,-722 148.5,-728 148.5,-728 148.5,-740 148.5,-740 148.5,-746 142.5,-752 136.5,-752"/>
<text text-anchor="middle" x="75" y="-731.5" font-family="Helvetica,sans-Serif" font-size="10.00" fill="#0d47a1">ex:dom_thickness_normal</text>
</g>
<!-- uri::https://example.org/tensile&#45;test/dom_thickness_normal&#45;&gt;lit::1.2::http://www.w3.org/2001/XMLSchema#double:: -->
<g id="edge18" class="edge">
<title>uri::https://example.org/tensile&#45;test/dom_thickness_normal&#45;&gt;lit::1.2::http://www.w3.org/2001/XMLSchema#double::</title>
<path fill="none" stroke="#4a5568" stroke-width="1.2" d="M108.08,-715.89C128.97,-704.58 157.07,-690.26 183,-680 270.81,-645.24 380.02,-621.12 434.22,-610.35"/>
<polygon fill="#4a5568" stroke="#4a5568" stroke-width="1.2" points="434.95,-612.88 441.81,-608.86 433.94,-607.73 434.95,-612.88"/>
<text text-anchor="middle" x="239.5" y="-682.8" font-family="Helvetica,sans-Serif" font-size="9.00">sdata:mu</text>
</g>
<!-- lit::Sheet thickness normally distributed, μ=1.2 mm, σ=0.033 mm (3σ=0.1 mm)::::en -->
<g id="node21" class="node">
<title>lit::Sheet thickness normally distributed, μ=1.2 mm, σ=0.033 mm (3σ=0.1 mm)::::en</title>
<polygon fill="#fff9db" stroke="#b08900" stroke-width="1.2" points="597,-882 335,-882 335,-846 603,-846 603,-876 597,-882"/>
<polyline fill="none" stroke="#b08900" stroke-width="1.2" points="597,-882 597,-876 "/>
<polyline fill="none" stroke="#b08900" stroke-width="1.2" points="603,-876 597,-876 "/>
<text text-anchor="middle" x="469" y="-861.5" font-family="Helvetica,sans-Serif" font-size="10.00" fill="#5c4500">Sheet thickness normally distributed, μ=1.2 mm,...</text>
</g>
<!-- uri::https://example.org/tensile&#45;test/dom_thickness_normal&#45;&gt;lit::Sheet thickness normally distributed, μ=1.2 mm, σ=0.033 mm (3σ=0.1 mm)::::en -->
<g id="edge19" class="edge">
<title>uri::https://example.org/tensile&#45;test/dom_thickness_normal&#45;&gt;lit::Sheet thickness normally distributed, μ=1.2 mm, σ=0.033 mm (3σ=0.1 mm)::::en</title>
<path fill="none" stroke="#4a5568" stroke-width="1.2" d="M109.1,-752.12C129.93,-763.09 157.58,-776.86 183,-787 244.74,-811.62 317.06,-831.05 373.4,-844.24"/>
<polygon fill="#4a5568" stroke="#4a5568" stroke-width="1.2" points="372.99,-846.84 380.89,-845.98 374.18,-841.73 372.99,-846.84"/>
<text text-anchor="middle" x="239.5" y="-824.8" font-family="Helvetica,sans-Serif" font-size="9.00">sdata:domainDescription</text>
</g>
<!-- lit::Blechdicke normalverteilt, μ=1.2 mm, σ=0.033 mm (3σ=0.1 mm)::::de -->
<g id="node22" class="node">
<title>lit::Blechdicke normalverteilt, μ=1.2 mm, σ=0.033 mm (3σ=0.1 mm)::::de</title>
<polygon fill="#fff9db" stroke="#b08900" stroke-width="1.2" points="603,-817 329,-817 329,-781 609,-781 609,-811 603,-817"/>
<polyline fill="none" stroke="#b08900" stroke-width="1.2" points="603,-817 603,-811 "/>
<polyline fill="none" stroke="#b08900" stroke-width="1.2" points="609,-811 603,-811 "/>
<text text-anchor="middle" x="469" y="-796.5" font-family="Helvetica,sans-Serif" font-size="10.00" fill="#5c4500">Blechdicke normalverteilt, μ=1.2 mm, σ=0.033 mm...</text>
</g>
<!-- uri::https://example.org/tensile&#45;test/dom_thickness_normal&#45;&gt;lit::Blechdicke normalverteilt, μ=1.2 mm, σ=0.033 mm (3σ=0.1 mm)::::de -->
<g id="edge20" class="edge">
<title>uri::https://example.org/tensile&#45;test/dom_thickness_normal&#45;&gt;lit::Blechdicke normalverteilt, μ=1.2 mm, σ=0.033 mm (3σ=0.1 mm)::::de</title>
<path fill="none" stroke="#4a5568" stroke-width="1.2" d="M148.81,-746.07C205.74,-755.51 285.97,-768.82 351.76,-779.73"/>
<polygon fill="#4a5568" stroke="#4a5568" stroke-width="1.2" points="351.47,-782.34 359.3,-780.98 352.33,-777.16 351.47,-782.34"/>
<text text-anchor="middle" x="239.5" y="-772.8" font-family="Helvetica,sans-Serif" font-size="9.00">sdata:domainDescription</text>
</g>
<!-- uri::https://w3id.org/sdata/core/NormalDomain -->
<g id="node23" class="node">
<title>uri::https://w3id.org/sdata/core/NormalDomain</title>
<path fill="#f3e8ff" stroke="#7e57c2" stroke-width="1.2" d="M518.5,-752C518.5,-752 419.5,-752 419.5,-752 413.5,-752 407.5,-746 407.5,-740 407.5,-740 407.5,-728 407.5,-728 407.5,-722 413.5,-716 419.5,-716 419.5,-716 518.5,-716 518.5,-716 524.5,-716 530.5,-722 530.5,-728 530.5,-728 530.5,-740 530.5,-740 530.5,-746 524.5,-752 518.5,-752"/>
<text text-anchor="middle" x="469" y="-731.5" font-family="Helvetica,sans-Serif" font-size="10.00" fill="#4527a0">sdata:NormalDomain</text>
</g>
<!-- uri::https://example.org/tensile&#45;test/dom_thickness_normal&#45;&gt;uri::https://w3id.org/sdata/core/NormalDomain -->
<g id="edge21" class="edge">
<title>uri::https://example.org/tensile&#45;test/dom_thickness_normal&#45;&gt;uri::https://w3id.org/sdata/core/NormalDomain</title>
<path fill="none" stroke="#4a5568" stroke-width="1.2" d="M148.81,-734C220.7,-734 329.76,-734 399.95,-734"/>
<polygon fill="#4a5568" stroke="#4a5568" stroke-width="1.2" points="399.96,-736.63 407.46,-734 399.96,-731.38 399.96,-736.63"/>
<text text-anchor="middle" x="239.5" y="-736.8" font-family="Helvetica,sans-Serif" font-size="9.00">rdf:type</text>
</g>
<!-- lit::0.033::http://www.w3.org/2001/XMLSchema#double:: -->
<g id="node24" class="node">
<title>lit::0.033::http://www.w3.org/2001/XMLSchema#double::</title>
<polygon fill="#fff9db" stroke="#b08900" stroke-width="1.2" points="490,-687 442,-687 442,-651 496,-651 496,-681 490,-687"/>
<polyline fill="none" stroke="#b08900" stroke-width="1.2" points="490,-687 490,-681 "/>
<polyline fill="none" stroke="#b08900" stroke-width="1.2" points="496,-681 490,-681 "/>
<text text-anchor="middle" x="469" y="-666.5" font-family="Helvetica,sans-Serif" font-size="10.00" fill="#5c4500">0.033</text>
</g>
<!-- uri::https://example.org/tensile&#45;test/dom_thickness_normal&#45;&gt;lit::0.033::http://www.w3.org/2001/XMLSchema#double:: -->
<g id="edge22" class="edge">
<title>uri::https://example.org/tensile&#45;test/dom_thickness_normal&#45;&gt;lit::0.033::http://www.w3.org/2001/XMLSchema#double::</title>
<path fill="none" stroke="#4a5568" stroke-width="1.2" d="M148.81,-721.93C233.75,-707.84 370.58,-685.15 433.87,-674.66"/>
<polygon fill="#4a5568" stroke="#4a5568" stroke-width="1.2" points="434.61,-677.2 441.58,-673.38 433.75,-672.02 434.61,-677.2"/>
<text text-anchor="middle" x="239.5" y="-716.8" font-family="Helvetica,sans-Serif" font-size="9.00">sdata:sigma</text>
</g>
<!-- uri::https://example.org/tensile&#45;test/dom_thickness_interval -->
<g id="node25" class="node">
<title>uri::https://example.org/tensile&#45;test/dom_thickness_interval</title>
<path fill="#e3f2fd" stroke="#1976d2" stroke-width="1.2" d="M138,-1532C138,-1532 12,-1532 12,-1532 6,-1532 0,-1526 0,-1520 0,-1520 0,-1508 0,-1508 0,-1502 6,-1496 12,-1496 12,-1496 138,-1496 138,-1496 144,-1496 150,-1502 150,-1508 150,-1508 150,-1520 150,-1520 150,-1526 144,-1532 138,-1532"/>
<text text-anchor="middle" x="75" y="-1511.5" font-family="Helvetica,sans-Serif" font-size="10.00" fill="#0d47a1">ex:dom_thickness_interval</text>
</g>
<!-- lit::Sheet thickness 1.2 ± 0.1 mm — hard tolerance limits::::en -->
<g id="node26" class="node">
<title>lit::Sheet thickness 1.2 ± 0.1 mm — hard tolerance limits::::en</title>
<polygon fill="#fff9db" stroke="#b08900" stroke-width="1.2" points="596.5,-1662 335.5,-1662 335.5,-1626 602.5,-1626 602.5,-1656 596.5,-1662"/>
<polyline fill="none" stroke="#b08900" stroke-width="1.2" points="596.5,-1662 596.5,-1656 "/>
<polyline fill="none" stroke="#b08900" stroke-width="1.2" points="602.5,-1656 596.5,-1656 "/>
<text text-anchor="middle" x="469" y="-1641.5" font-family="Helvetica,sans-Serif" font-size="10.00" fill="#5c4500">Sheet thickness 1.2 ± 0.1 mm — hard tolerance l...</text>
</g>
<!-- uri::https://example.org/tensile&#45;test/dom_thickness_interval&#45;&gt;lit::Sheet thickness 1.2 ± 0.1 mm — hard tolerance limits::::en -->
<g id="edge23" class="edge">
<title>uri::https://example.org/tensile&#45;test/dom_thickness_interval&#45;&gt;lit::Sheet thickness 1.2 ± 0.1 mm — hard tolerance limits::::en</title>
<path fill="none" stroke="#4a5568" stroke-width="1.2" d="M109.1,-1532.12C129.93,-1543.09 157.58,-1556.86 183,-1567 244.74,-1591.62 317.06,-1611.05 373.4,-1624.24"/>
<polygon fill="#4a5568" stroke="#4a5568" stroke-width="1.2" points="372.99,-1626.84 380.89,-1625.98 374.18,-1621.73 372.99,-1626.84"/>
<text text-anchor="middle" x="239.5" y="-1604.8" font-family="Helvetica,sans-Serif" font-size="9.00">sdata:domainDescription</text>
</g>
<!-- uri::https://w3id.org/sdata/core/IntervalDomain -->
<g id="node27" class="node">
<title>uri::https://w3id.org/sdata/core/IntervalDomain</title>
<path fill="#f3e8ff" stroke="#7e57c2" stroke-width="1.2" d="M519,-1597C519,-1597 419,-1597 419,-1597 413,-1597 407,-1591 407,-1585 407,-1585 407,-1573 407,-1573 407,-1567 413,-1561 419,-1561 419,-1561 519,-1561 519,-1561 525,-1561 531,-1567 531,-1573 531,-1573 531,-1585 531,-1585 531,-1591 525,-1597 519,-1597"/>
<text text-anchor="middle" x="469" y="-1576.5" font-family="Helvetica,sans-Serif" font-size="10.00" fill="#4527a0">sdata:IntervalDomain</text>
</g>
<!-- uri::https://example.org/tensile&#45;test/dom_thickness_interval&#45;&gt;uri::https://w3id.org/sdata/core/IntervalDomain -->
<g id="edge24" class="edge">
<title>uri::https://example.org/tensile&#45;test/dom_thickness_interval&#45;&gt;uri::https://w3id.org/sdata/core/IntervalDomain</title>
<path fill="none" stroke="#4a5568" stroke-width="1.2" d="M150.19,-1526.3C221.94,-1538.2 329.75,-1556.08 399.51,-1567.64"/>
<polygon fill="#4a5568" stroke="#4a5568" stroke-width="1.2" points="399.15,-1570.24 406.98,-1568.88 400.01,-1565.06 399.15,-1570.24"/>
<text text-anchor="middle" x="239.5" y="-1552.8" font-family="Helvetica,sans-Serif" font-size="9.00">rdf:type</text>
</g>
<!-- lit::Blechdicke 1.2 ± 0.1 mm — harte Toleranzgrenzen::::de -->
<g id="node28" class="node">
<title>lit::Blechdicke 1.2 ± 0.1 mm — harte Toleranzgrenzen::::de</title>
<polygon fill="#fff9db" stroke="#b08900" stroke-width="1.2" points="595.5,-1532 336.5,-1532 336.5,-1496 601.5,-1496 601.5,-1526 595.5,-1532"/>
<polyline fill="none" stroke="#b08900" stroke-width="1.2" points="595.5,-1532 595.5,-1526 "/>
<polyline fill="none" stroke="#b08900" stroke-width="1.2" points="601.5,-1526 595.5,-1526 "/>
<text text-anchor="middle" x="469" y="-1511.5" font-family="Helvetica,sans-Serif" font-size="10.00" fill="#5c4500">Blechdicke 1.2 ± 0.1 mm — harte Toleranzgrenzen</text>
</g>
<!-- uri::https://example.org/tensile&#45;test/dom_thickness_interval&#45;&gt;lit::Blechdicke 1.2 ± 0.1 mm — harte Toleranzgrenzen::::de -->
<g id="edge25" class="edge">
<title>uri::https://example.org/tensile&#45;test/dom_thickness_interval&#45;&gt;lit::Blechdicke 1.2 ± 0.1 mm — harte Toleranzgrenzen::::de</title>
<path fill="none" stroke="#4a5568" stroke-width="1.2" d="M150.19,-1514C200.43,-1514 268.35,-1514 328.5,-1514"/>
<polygon fill="#4a5568" stroke="#4a5568" stroke-width="1.2" points="328.68,-1516.63 336.18,-1514 328.68,-1511.38 328.68,-1516.63"/>
<text text-anchor="middle" x="239.5" y="-1516.8" font-family="Helvetica,sans-Serif" font-size="9.00">sdata:domainDescription</text>
</g>
<!-- lit::1.3::http://www.w3.org/2001/XMLSchema#double:: -->
<g id="node29" class="node">
<title>lit::1.3::http://www.w3.org/2001/XMLSchema#double::</title>
<polygon fill="#fff9db" stroke="#b08900" stroke-width="1.2" points="490,-1467 442,-1467 442,-1431 496,-1431 496,-1461 490,-1467"/>
<polyline fill="none" stroke="#b08900" stroke-width="1.2" points="490,-1467 490,-1461 "/>
<polyline fill="none" stroke="#b08900" stroke-width="1.2" points="496,-1461 490,-1461 "/>
<text text-anchor="middle" x="469" y="-1446.5" font-family="Helvetica,sans-Serif" font-size="10.00" fill="#5c4500">1.3</text>
</g>
<!-- uri::https://example.org/tensile&#45;test/dom_thickness_interval&#45;&gt;lit::1.3::http://www.w3.org/2001/XMLSchema#double:: -->
<g id="edge26" class="edge">
<title>uri::https://example.org/tensile&#45;test/dom_thickness_interval&#45;&gt;lit::1.3::http://www.w3.org/2001/XMLSchema#double::</title>
<path fill="none" stroke="#4a5568" stroke-width="1.2" d="M150.19,-1501.7C235.34,-1487.58 371.29,-1465.04 434.12,-1454.62"/>
<polygon fill="#4a5568" stroke="#4a5568" stroke-width="1.2" points="434.81,-1457.16 441.78,-1453.35 433.95,-1451.99 434.81,-1457.16"/>
<text text-anchor="middle" x="239.5" y="-1496.8" font-family="Helvetica,sans-Serif" font-size="9.00">sdata:maxValue</text>
</g>
<!-- lit::1.1::http://www.w3.org/2001/XMLSchema#double:: -->
<g id="node30" class="node">
<title>lit::1.1::http://www.w3.org/2001/XMLSchema#double::</title>
<polygon fill="#fff9db" stroke="#b08900" stroke-width="1.2" points="490,-1402 442,-1402 442,-1366 496,-1366 496,-1396 490,-1402"/>
<polyline fill="none" stroke="#b08900" stroke-width="1.2" points="490,-1402 490,-1396 "/>
<polyline fill="none" stroke="#b08900" stroke-width="1.2" points="496,-1396 490,-1396 "/>
<text text-anchor="middle" x="469" y="-1381.5" font-family="Helvetica,sans-Serif" font-size="10.00" fill="#5c4500">1.1</text>
</g>
<!-- uri::https://example.org/tensile&#45;test/dom_thickness_interval&#45;&gt;lit::1.1::http://www.w3.org/2001/XMLSchema#double:: -->
<g id="edge27" class="edge">
<title>uri::https://example.org/tensile&#45;test/dom_thickness_interval&#45;&gt;lit::1.1::http://www.w3.org/2001/XMLSchema#double::</title>
<path fill="none" stroke="#4a5568" stroke-width="1.2" d="M108.08,-1495.89C128.97,-1484.58 157.07,-1470.26 183,-1460 270.81,-1425.24 380.02,-1401.12 434.22,-1390.35"/>
<polygon fill="#4a5568" stroke="#4a5568" stroke-width="1.2" points="434.95,-1392.88 441.81,-1388.86 433.94,-1387.73 434.95,-1392.88"/>
<text text-anchor="middle" x="239.5" y="-1462.8" font-family="Helvetica,sans-Serif" font-size="9.00">sdata:minValue</text>
</g>
</g>
</svg>
