<?xml version="1.0" encoding="UTF-8" standalone="no"?>
<!DOCTYPE svg PUBLIC "-//W3C//DTD SVG 1.1//EN"
 "http://www.w3.org/Graphics/SVG/1.1/DTD/svg11.dtd">
<!-- Generated by graphviz version 2.43.0 (0)
 -->
<!-- Pages: 1 -->
<svg width="659pt" height="1739pt"
 viewBox="0.00 0.00 659.40 1739.40" xmlns="http://www.w3.org/2000/svg" xmlns:xlink="http://www.w3.org/1999/xlink">
<g id="graph0" class="graph" transform="scale(1 1) rotate(0) translate(25.2 1714.2)">
<polygon fill="#fafbfc" stroke="transparent" points="-25.2,25.2 -25.2,-1714.2 634.2,-1714.2 634.2,25.2 -25.2,25.2"/>
<text text-anchor="middle" x="304.5" y="-1670.6" font-family="Helvetica,sans-Serif" font-size="18.00">TTL Graph: AttributeQuantityValue_sheetthickness.ttl</text>
<!-- uri::https://example.org/tensile&#45;test/dom_thickness_fuzzy -->
<g id="node1" class="node">
<title>uri::https://example.org/tensile&#45;test/dom_thickness_fuzzy</title>
<path fill="#e3f2fd" stroke="#1976d2" stroke-width="1.2" d="M132.5,-231C132.5,-231 17.5,-231 17.5,-231 11.5,-231 5.5,-225 5.5,-219 5.5,-219 5.5,-207 5.5,-207 5.5,-201 11.5,-195 17.5,-195 17.5,-195 132.5,-195 132.5,-195 138.5,-195 144.5,-201 144.5,-207 144.5,-207 144.5,-219 144.5,-219 144.5,-225 138.5,-231 132.5,-231"/>
<text text-anchor="middle" x="75" y="-210.5" font-family="Helvetica,sans-Serif" font-size="10.00" fill="#0d47a1">ex:dom_thickness_fuzzy</text>
</g>
<!-- lit::1.15::http://www.w3.org/2001/XMLSchema#double:: -->
<g id="node2" class="node">
<title>lit::1.15::http://www.w3.org/2001/XMLSchema#double::</title>
<polygon fill="#fff9db" stroke="#b08900" stroke-width="1.2" points="490,-426 442,-426 442,-390 496,-390 496,-420 490,-426"/>
<polyline fill="none" stroke="#b08900" stroke-width="1.2" points="490,-426 490,-420 "/>
<polyline fill="none" stroke="#b08900" stroke-width="1.2" points="496,-420 490,-420 "/>
<text text-anchor="middle" x="469" y="-405.5" font-family="Helvetica,sans-Serif" font-size="10.00" fill="#5c4500">1.15</text>
</g>
<!-- uri::https://example.org/tensile&#45;test/dom_thickness_fuzzy&#45;&gt;lit::1.15::http://www.w3.org/2001/XMLSchema#double:: -->
<g id="edge1" class="edge">
<title>uri::https://example.org/tensile&#45;test/dom_thickness_fuzzy&#45;&gt;lit::1.15::http://www.w3.org/2001/XMLSchema#double::</title>
<path fill="none" stroke="#4a5568" stroke-width="1.2" d="M90.08,-231.28C108.96,-254.7 144.59,-295.22 183,-320 264.05,-372.27 378.01,-395.06 434.1,-403.6"/>
<polygon fill="#4a5568" stroke="#4a5568" stroke-width="1.2" points="433.82,-406.21 441.62,-404.71 434.59,-401.02 433.82,-406.21"/>
<text text-anchor="middle" x="239.5" y="-373.8" font-family="Helvetica,sans-Serif" font-size="9.00">sdata:fuzzyCoreLeft</text>
</g>
<!-- lit::1.35::http://www.w3.org/2001/XMLSchema#double:: -->
<g id="node3" class="node">
<title>lit::1.35::http://www.w3.org/2001/XMLSchema#double::</title>
<polygon fill="#fff9db" stroke="#b08900" stroke-width="1.2" points="490,-361 442,-361 442,-325 496,-325 496,-355 490,-361"/>
<polyline fill="none" stroke="#b08900" stroke-width="1.2" points="490,-361 490,-355 "/>
<polyline fill="none" stroke="#b08900" stroke-width="1.2" points="496,-355 490,-355 "/>
<text text-anchor="middle" x="469" y="-340.5" font-family="Helvetica,sans-Serif" font-size="10.00" fill="#5c4500">1.35</text>
</g>
<!-- uri::https://example.org/tensile&#45;test/dom_thickness_fuzzy&#45;&gt;lit::1.35::http://www.w3.org/2001/XMLSchema#double:: -->
<g id="edge2" class="edge">
<title>uri::https://example.org/tensile&#45;test/dom_thickness_fuzzy&#45;&gt;lit::1.35::http://www.w3.org/2001/XMLSchema#double::</title>
<path fill="none" stroke="#4a5568" stroke-width="1.2" d="M108.08,-231.11C128.97,-242.42 157.07,-256.74 183,-267 270.81,-301.76 380.02,-325.88 434.22,-336.65"/>
<polygon fill="#4a5568" stroke="#4a5568" stroke-width="1.2" points="433.94,-339.27 441.81,-338.14 434.95,-334.12 433.94,-339.27"/>
<text text-anchor="middle" x="239.5" y="-305.8" font-family="Helvetica,sans-Serif" font-size="9.00">sdata:fuzzyRight</text>
</g>
<!-- lit::1.25::http://www.w3.org/2001/XMLSchema#double:: -->
<g id="node4" class="node">
<title>lit::1.25::http://www.w3.org/2001/XMLSchema#double::</title>
<polygon fill="#fff9db" stroke="#b08900" stroke-width="1.2" points="490,-296 442,-296 442,-260 496,-260 496,-290 490,-296"/>
<polyline fill="none" stroke="#b08900" stroke-width="1.2" points="490,-296 490,-290 "/>
<polyline fill="none" stroke="#b08900" stroke-width="1.2" points="496,-290 490,-290 "/>
<text text-anchor="middle" x="469" y="-275.5" font-family="Helvetica,sans-Serif" font-size="10.00" fill="#5c4500">1.25</text>
</g>
<!-- uri::https://example.org/tensile&#45;test/dom_thickness_fuzzy&#45;&gt;lit::1.25::http://www.w3.org/2001/XMLSchema#double:: -->
<g id="edge3" class="edge">
<title>uri::https://example.org/tensile&#45;test/dom_thickness_fuzzy&#45;&gt;lit::1.25::http://www.w3.org/2001/XMLSchema#double::</title>
<path fill="none" stroke="#4a5568" stroke-width="1.2" d="M144.73,-224.4C229.55,-238.46 370.4,-261.82 434.45,-272.44"/>
<polygon fill="#4a5568" stroke="#4a5568" stroke-width="1.2" points="434.04,-275.03 441.87,-273.67 434.9,-269.85 434.04,-275.03"/>
<text text-anchor="middle" x="239.5" y="-252.8" font-family="Helvetica,sans-Serif" font-size="9.00">sdata:fuzzyCoreRight</text>
</g>
<!-- lit::Blechdicke 1.2 mm — weiche Toleranz für Simulation::::de -->
<g id="node5" class="node">
<title>lit::Blechdicke 1.2 mm — weiche Toleranz für Simulation::::de</title>
<polygon fill="#fff9db" stroke="#b08900" stroke-width="1.2" points="601.5,-231 330.5,-231 330.5,-195 607.5,-195 607.5,-225 601.5,-231"/>
<polyline fill="none" stroke="#b08900" stroke-width="1.2" points="601.5,-231 601.5,-225 "/>
<polyline fill="none" stroke="#b08900" stroke-width="1.2" points="607.5,-225 601.5,-225 "/>
<text text-anchor="middle" x="469" y="-210.5" font-family="Helvetica,sans-Serif" font-size="10.00" fill="#5c4500">Blechdicke 1.2 mm — weiche Toleranz für Simulation</text>
</g>
<!-- uri::https://example.org/tensile&#45;test/dom_thickness_fuzzy&#45;&gt;lit::Blechdicke 1.2 mm — weiche Toleranz für Simulation::::de -->
<g id="edge4" class="edge">
<title>uri::https://example.org/tensile&#45;test/dom_thickness_fuzzy&#45;&gt;lit::Blechdicke 1.2 mm — weiche Toleranz für Simulation::::de</title>
<path fill="none" stroke="#4a5568" stroke-width="1.2" d="M144.73,-213C193.79,-213 261.6,-213 322.45,-213"/>
<polygon fill="#4a5568" stroke="#4a5568" stroke-width="1.2" points="322.72,-215.63 330.22,-213 322.72,-210.38 322.72,-215.63"/>
<text text-anchor="middle" x="239.5" y="-215.8" font-family="Helvetica,sans-Serif" font-size="9.00">sdata:domainDescription</text>
</g>
<!-- uri::https://w3id.org/sdata/core/TrapezoidalFuzzyDomain -->
<g id="node6" class="node">
<title>uri::https://w3id.org/sdata/core/TrapezoidalFuzzyDomain</title>
<path fill="#f3e8ff" stroke="#7e57c2" stroke-width="1.2" d="M542,-166C542,-166 396,-166 396,-166 390,-166 384,-160 384,-154 384,-154 384,-142 384,-142 384,-136 390,-130 396,-130 396,-130 542,-130 542,-130 548,-130 554,-136 554,-142 554,-142 554,-154 554,-154 554,-160 548,-166 542,-166"/>
<text text-anchor="middle" x="469" y="-145.5" font-family="Helvetica,sans-Serif" font-size="10.00" fill="#4527a0">sdata:TrapezoidalFuzzyDomain</text>
</g>
<!-- uri::https://example.org/tensile&#45;test/dom_thickness_fuzzy&#45;&gt;uri::https://w3id.org/sdata/core/TrapezoidalFuzzyDomain -->
<g id="edge5" class="edge">
<title>uri::https://example.org/tensile&#45;test/dom_thickness_fuzzy&#45;&gt;uri::https://w3id.org/sdata/core/TrapezoidalFuzzyDomain</title>
<path fill="none" stroke="#4a5568" stroke-width="1.2" d="M144.73,-201.6C209.03,-190.94 305.52,-174.94 376.35,-163.2"/>
<polygon fill="#4a5568" stroke="#4a5568" stroke-width="1.2" points="377.02,-165.75 383.99,-161.93 376.16,-160.57 377.02,-165.75"/>
<text text-anchor="middle" x="239.5" y="-196.8" font-family="Helvetica,sans-Serif" font-size="9.00">rdf:type</text>
</g>
<!-- lit::Sheet thickness 1.2 mm — soft tolerance for simulation::::en -->
<g id="node7" class="node">
<title>lit::Sheet thickness 1.2 mm — soft tolerance for simulation::::en</title>
<polygon fill="#fff9db" stroke="#b08900" stroke-width="1.2" points="595.5,-101 336.5,-101 336.5,-65 601.5,-65 601.5,-95 595.5,-101"/>
<polyline fill="none" stroke="#b08900" stroke-width="1.2" points="595.5,-101 595.5,-95 "/>
<polyline fill="none" stroke="#b08900" stroke-width="1.2" points="601.5,-95 595.5,-95 "/>
<text text-anchor="middle" x="469" y="-80.5" font-family="Helvetica,sans-Serif" font-size="10.00" fill="#5c4500">Sheet thickness 1.2 mm — soft tolerance for sim...</text>
</g>
<!-- uri::https://example.org/tensile&#45;test/dom_thickness_fuzzy&#45;&gt;lit::Sheet thickness 1.2 mm — soft tolerance for simulation::::en -->
<g id="edge6" class="edge">
<title>uri::https://example.org/tensile&#45;test/dom_thickness_fuzzy&#45;&gt;lit::Sheet thickness 1.2 mm — soft tolerance for simulation::::en</title>
<path fill="none" stroke="#4a5568" stroke-width="1.2" d="M109.1,-194.88C129.93,-183.91 157.58,-170.14 183,-160 244.74,-135.38 317.06,-115.95 373.4,-102.76"/>
<polygon fill="#4a5568" stroke="#4a5568" stroke-width="1.2" points="374.18,-105.27 380.89,-101.02 372.99,-100.16 374.18,-105.27"/>
<text text-anchor="middle" x="239.5" y="-162.8" font-family="Helvetica,sans-Serif" font-size="9.00">sdata:domainDescription</text>
</g>
<!-- lit::1.05::http://www.w3.org/2001/XMLSchema#double:: -->
<g id="node8" class="node">
<title>lit::1.05::http://www.w3.org/2001/XMLSchema#double::</title>
<polygon fill="#fff9db" stroke="#b08900" stroke-width="1.2" points="490,-36 442,-36 442,0 496,0 496,-30 490,-36"/>
<polyline fill="none" stroke="#b08900" stroke-width="1.2" points="490,-36 490,-30 "/>
<polyline fill="none" stroke="#b08900" stroke-width="1.2" points="496,-30 490,-30 "/>
<text text-anchor="middle" x="469" y="-15.5" font-family="Helvetica,sans-Serif" font-size="10.00" fill="#5c4500">1.05</text>
</g>
<!-- uri::https://example.org/tensile&#45;test/dom_thickness_fuzzy&#45;&gt;lit::1.05::http://www.w3.org/2001/XMLSchema#double:: -->
<g id="edge7" class="edge">
<title>uri::https://example.org/tensile&#45;test/dom_thickness_fuzzy&#45;&gt;lit::1.05::http://www.w3.org/2001/XMLSchema#double::</title>
<path fill="none" stroke="#4a5568" stroke-width="1.2" d="M90.55,-194.79C109.67,-171.88 145.26,-132.56 183,-108 263.99,-55.28 377.98,-31.63 434.09,-22.66"/>
<polygon fill="#4a5568" stroke="#4a5568" stroke-width="1.2" points="434.6,-25.24 441.61,-21.49 433.8,-20.05 434.6,-25.24"/>
<text text-anchor="middle" x="239.5" y="-110.8" font-family="Helvetica,sans-Serif" font-size="9.00">sdata:fuzzyLeft</text>
</g>
<!-- uri::https://example.org/tensile&#45;test/dom_thickness_interval -->
<g id="node9" class="node">
<title>uri::https://example.org/tensile&#45;test/dom_thickness_interval</title>
<path fill="#e3f2fd" stroke="#1976d2" stroke-width="1.2" d="M138,-621C138,-621 12,-621 12,-621 6,-621 0,-615 0,-609 0,-609 0,-597 0,-597 0,-591 6,-585 12,-585 12,-585 138,-585 138,-585 144,-585 150,-591 150,-597 150,-597 150,-609 150,-609 150,-615 144,-621 138,-621"/>
<text text-anchor="middle" x="75" y="-600.5" font-family="Helvetica,sans-Serif" font-size="10.00" fill="#0d47a1">ex:dom_thickness_interval</text>
</g>
<!-- lit::Blechdicke 1.2 ± 0.1 mm — harte Toleranzgrenzen::::de -->
<g id="node10" class="node">
<title>lit::Blechdicke 1.2 ± 0.1 mm — harte Toleranzgrenzen::::de</title>
<polygon fill="#fff9db" stroke="#b08900" stroke-width="1.2" points="595.5,-751 336.5,-751 336.5,-715 601.5,-715 601.5,-745 595.5,-751"/>
<polyline fill="none" stroke="#b08900" stroke-width="1.2" points="595.5,-751 595.5,-745 "/>
<polyline fill="none" stroke="#b08900" stroke-width="1.2" points="601.5,-745 595.5,-745 "/>
<text text-anchor="middle" x="469" y="-730.5" font-family="Helvetica,sans-Serif" font-size="10.00" fill="#5c4500">Blechdicke 1.2 ± 0.1 mm — harte Toleranzgrenzen</text>
</g>
<!-- uri::https://example.org/tensile&#45;test/dom_thickness_interval&#45;&gt;lit::Blechdicke 1.2 ± 0.1 mm — harte Toleranzgrenzen::::de -->
<g id="edge8" class="edge">
<title>uri::https://example.org/tensile&#45;test/dom_thickness_interval&#45;&gt;lit::Blechdicke 1.2 ± 0.1 mm — harte Toleranzgrenzen::::de</title>
<path fill="none" stroke="#4a5568" stroke-width="1.2" d="M109.1,-621.12C129.93,-632.09 157.58,-645.86 183,-656 244.74,-680.62 317.06,-700.05 373.4,-713.24"/>
<polygon fill="#4a5568" stroke="#4a5568" stroke-width="1.2" points="372.99,-715.84 380.89,-714.98 374.18,-710.73 372.99,-715.84"/>
<text text-anchor="middle" x="239.5" y="-693.8" font-family="Helvetica,sans-Serif" font-size="9.00">sdata:domainDescription</text>
</g>
<!-- lit::1.1::http://www.w3.org/2001/XMLSchema#double:: -->
<g id="node11" class="node">
<title>lit::1.1::http://www.w3.org/2001/XMLSchema#double::</title>
<polygon fill="#fff9db" stroke="#b08900" stroke-width="1.2" points="490,-686 442,-686 442,-650 496,-650 496,-680 490,-686"/>
<polyline fill="none" stroke="#b08900" stroke-width="1.2" points="490,-686 490,-680 "/>
<polyline fill="none" stroke="#b08900" stroke-width="1.2" points="496,-680 490,-680 "/>
<text text-anchor="middle" x="469" y="-665.5" font-family="Helvetica,sans-Serif" font-size="10.00" fill="#5c4500">1.1</text>
</g>
<!-- uri::https://example.org/tensile&#45;test/dom_thickness_interval&#45;&gt;lit::1.1::http://www.w3.org/2001/XMLSchema#double:: -->
<g id="edge9" class="edge">
<title>uri::https://example.org/tensile&#45;test/dom_thickness_interval&#45;&gt;lit::1.1::http://www.w3.org/2001/XMLSchema#double::</title>
<path fill="none" stroke="#4a5568" stroke-width="1.2" d="M150.19,-615.3C235.34,-629.42 371.29,-651.96 434.12,-662.38"/>
<polygon fill="#4a5568" stroke="#4a5568" stroke-width="1.2" points="433.95,-665.01 441.78,-663.65 434.81,-659.84 433.95,-665.01"/>
<text text-anchor="middle" x="239.5" y="-641.8" font-family="Helvetica,sans-Serif" font-size="9.00">sdata:minValue</text>
</g>
<!-- uri::https://w3id.org/sdata/core/IntervalDomain -->
<g id="node12" class="node">
<title>uri::https://w3id.org/sdata/core/IntervalDomain</title>
<path fill="#f3e8ff" stroke="#7e57c2" stroke-width="1.2" d="M519,-621C519,-621 419,-621 419,-621 413,-621 407,-615 407,-609 407,-609 407,-597 407,-597 407,-591 413,-585 419,-585 419,-585 519,-585 519,-585 525,-585 531,-591 531,-597 531,-597 531,-609 531,-609 531,-615 525,-621 519,-621"/>
<text text-anchor="middle" x="469" y="-600.5" font-family="Helvetica,sans-Serif" font-size="10.00" fill="#4527a0">sdata:IntervalDomain</text>
</g>
<!-- uri::https://example.org/tensile&#45;test/dom_thickness_interval&#45;&gt;uri::https://w3id.org/sdata/core/IntervalDomain -->
<g id="edge10" class="edge">
<title>uri::https://example.org/tensile&#45;test/dom_thickness_interval&#45;&gt;uri::https://w3id.org/sdata/core/IntervalDomain</title>
<path fill="none" stroke="#4a5568" stroke-width="1.2" d="M150.19,-603C221.79,-603 329.32,-603 399.08,-603"/>
<polygon fill="#4a5568" stroke="#4a5568" stroke-width="1.2" points="399.48,-605.63 406.98,-603 399.48,-600.38 399.48,-605.63"/>
<text text-anchor="middle" x="239.5" y="-605.8" font-family="Helvetica,sans-Serif" font-size="9.00">rdf:type</text>
</g>
<!-- lit::Sheet thickness 1.2 ± 0.1 mm — hard tolerance limits::::en -->
<g id="node13" class="node">
<title>lit::Sheet thickness 1.2 ± 0.1 mm — hard tolerance limits::::en</title>
<polygon fill="#fff9db" stroke="#b08900" stroke-width="1.2" points="596.5,-556 335.5,-556 335.5,-520 602.5,-520 602.5,-550 596.5,-556"/>
<polyline fill="none" stroke="#b08900" stroke-width="1.2" points="596.5,-556 596.5,-550 "/>
<polyline fill="none" stroke="#b08900" stroke-width="1.2" points="602.5,-550 596.5,-550 "/>
<text text-anchor="middle" x="469" y="-535.5" font-family="Helvetica,sans-Serif" font-size="10.00" fill="#5c4500">Sheet thickness 1.2 ± 0.1 mm — hard tolerance l...</text>
</g>
<!-- uri::https://example.org/tensile&#45;test/dom_thickness_interval&#45;&gt;lit::Sheet thickness 1.2 ± 0.1 mm — hard tolerance limits::::en -->
<g id="edge11" class="edge">
<title>uri::https://example.org/tensile&#45;test/dom_thickness_interval&#45;&gt;lit::Sheet thickness 1.2 ± 0.1 mm — hard tolerance limits::::en</title>
<path fill="none" stroke="#4a5568" stroke-width="1.2" d="M150.19,-590.7C207.04,-581.27 286.55,-568.09 351.81,-557.27"/>
<polygon fill="#4a5568" stroke="#4a5568" stroke-width="1.2" points="352.32,-559.84 359.29,-556.03 351.46,-554.66 352.32,-559.84"/>
<text text-anchor="middle" x="239.5" y="-585.8" font-family="Helvetica,sans-Serif" font-size="9.00">sdata:domainDescription</text>
</g>
<!-- lit::1.3::http://www.w3.org/2001/XMLSchema#double:: -->
<g id="node14" class="node">
<title>lit::1.3::http://www.w3.org/2001/XMLSchema#double::</title>
<polygon fill="#fff9db" stroke="#b08900" stroke-width="1.2" points="490,-491 442,-491 442,-455 496,-455 496,-485 490,-491"/>
<polyline fill="none" stroke="#b08900" stroke-width="1.2" points="490,-491 490,-485 "/>
<polyline fill="none" stroke="#b08900" stroke-width="1.2" points="496,-485 490,-485 "/>
<text text-anchor="middle" x="469" y="-470.5" font-family="Helvetica,sans-Serif" font-size="10.00" fill="#5c4500">1.3</text>
</g>
<!-- uri::https://example.org/tensile&#45;test/dom_thickness_interval&#45;&gt;lit::1.3::http://www.w3.org/2001/XMLSchema#double:: -->
<g id="edge12" class="edge">
<title>uri::https://example.org/tensile&#45;test/dom_thickness_interval&#45;&gt;lit::1.3::http://www.w3.org/2001/XMLSchema#double::</title>
<path fill="none" stroke="#4a5568" stroke-width="1.2" d="M108.08,-584.89C128.97,-573.58 157.07,-559.26 183,-549 270.81,-514.24 380.02,-490.12 434.22,-479.35"/>
<polygon fill="#4a5568" stroke="#4a5568" stroke-width="1.2" points="434.95,-481.88 441.81,-477.86 433.94,-476.73 434.95,-481.88"/>
<text text-anchor="middle" x="239.5" y="-551.8" font-family="Helvetica,sans-Serif" font-size="9.00">sdata:maxValue</text>
</g>
<!-- uri::https://example.org/tensile&#45;test/dom_thickness_normal -->
<g id="node15" class="node">
<title>uri::https://example.org/tensile&#45;test/dom_thickness_normal</title>
<path fill="#e3f2fd" stroke="#1976d2" stroke-width="1.2" d="M136.5,-1531C136.5,-1531 13.5,-1531 13.5,-1531 7.5,-1531 1.5,-1525 1.5,-1519 1.5,-1519 1.5,-1507 1.5,-1507 1.5,-1501 7.5,-1495 13.5,-1495 13.5,-1495 136.5,-1495 136.5,-1495 142.5,-1495 148.5,-1501 148.5,-1507 148.5,-1507 148.5,-1519 148.5,-1519 148.5,-1525 142.5,-1531 136.5,-1531"/>
<text text-anchor="middle" x="75" y="-1510.5" font-family="Helvetica,sans-Serif" font-size="10.00" fill="#0d47a1">ex:dom_thickness_normal</text>
</g>
<!-- lit::Sheet thickness normally distributed, μ=1.2 mm, σ=0.033 mm (3σ=0.1 mm)::::en -->
<g id="node16" class="node">
<title>lit::Sheet thickness normally distributed, μ=1.2 mm, σ=0.033 mm (3σ=0.1 mm)::::en</title>
<polygon fill="#fff9db" stroke="#b08900" stroke-width="1.2" points="597,-1661 335,-1661 335,-1625 603,-1625 603,-1655 597,-1661"/>
<polyline fill="none" stroke="#b08900" stroke-width="1.2" points="597,-1661 597,-1655 "/>
<polyline fill="none" stroke="#b08900" stroke-width="1.2" points="603,-1655 597,-1655 "/>
<text text-anchor="middle" x="469" y="-1640.5" font-family="Helvetica,sans-Serif" font-size="10.00" fill="#5c4500">Sheet thickness normally distributed, μ=1.2 mm,...</text>
</g>
<!-- uri::https://example.org/tensile&#45;test/dom_thickness_normal&#45;&gt;lit::Sheet thickness normally distributed, μ=1.2 mm, σ=0.033 mm (3σ=0.1 mm)::::en -->
<g id="edge13" class="edge">
<title>uri::https://example.org/tensile&#45;test/dom_thickness_normal&#45;&gt;lit::Sheet thickness normally distributed, μ=1.2 mm, σ=0.033 mm (3σ=0.1 mm)::::en</title>
<path fill="none" stroke="#4a5568" stroke-width="1.2" d="M109.1,-1531.12C129.93,-1542.09 157.58,-1555.86 183,-1566 244.74,-1590.62 317.06,-1610.05 373.4,-1623.24"/>
<polygon fill="#4a5568" stroke="#4a5568" stroke-width="1.2" points="372.99,-1625.84 380.89,-1624.98 374.18,-1620.73 372.99,-1625.84"/>
<text text-anchor="middle" x="239.5" y="-1603.8" font-family="Helvetica,sans-Serif" font-size="9.00">sdata:domainDescription</text>
</g>
<!-- lit::0.033::http://www.w3.org/2001/XMLSchema#double:: -->
<g id="node17" class="node">
<title>lit::0.033::http://www.w3.org/2001/XMLSchema#double::</title>
<polygon fill="#fff9db" stroke="#b08900" stroke-width="1.2" points="490,-1596 442,-1596 442,-1560 496,-1560 496,-1590 490,-1596"/>
<polyline fill="none" stroke="#b08900" stroke-width="1.2" points="490,-1596 490,-1590 "/>
<polyline fill="none" stroke="#b08900" stroke-width="1.2" points="496,-1590 490,-1590 "/>
<text text-anchor="middle" x="469" y="-1575.5" font-family="Helvetica,sans-Serif" font-size="10.00" fill="#5c4500">0.033</text>
</g>
<!-- uri::https://example.org/tensile&#45;test/dom_thickness_normal&#45;&gt;lit::0.033::http://www.w3.org/2001/XMLSchema#double:: -->
<g id="edge14" class="edge">
<title>uri::https://example.org/tensile&#45;test/dom_thickness_normal&#45;&gt;lit::0.033::http://www.w3.org/2001/XMLSchema#double::</title>
<path fill="none" stroke="#4a5568" stroke-width="1.2" d="M148.81,-1525.07C233.75,-1539.16 370.58,-1561.85 433.87,-1572.34"/>
<polygon fill="#4a5568" stroke="#4a5568" stroke-width="1.2" points="433.75,-1574.98 441.58,-1573.62 434.61,-1569.8 433.75,-1574.98"/>
<text text-anchor="middle" x="239.5" y="-1551.8" font-family="Helvetica,sans-Serif" font-size="9.00">sdata:sigma</text>
</g>
<!-- lit::1.2::http://www.w3.org/2001/XMLSchema#double:: -->
<g id="node18" class="node">
<title>lit::1.2::http://www.w3.org/2001/XMLSchema#double::</title>
<polygon fill="#fff9db" stroke="#b08900" stroke-width="1.2" points="490,-1401 442,-1401 442,-1365 496,-1365 496,-1395 490,-1401"/>
<polyline fill="none" stroke="#b08900" stroke-width="1.2" points="490,-1401 490,-1395 "/>
<polyline fill="none" stroke="#b08900" stroke-width="1.2" points="496,-1395 490,-1395 "/>
<text text-anchor="middle" x="469" y="-1380.5" font-family="Helvetica,sans-Serif" font-size="10.00" fill="#5c4500">1.2</text>
</g>
<!-- uri::https://example.org/tensile&#45;test/dom_thickness_normal&#45;&gt;lit::1.2::http://www.w3.org/2001/XMLSchema#double:: -->
<g id="edge15" class="edge">
<title>uri::https://example.org/tensile&#45;test/dom_thickness_normal&#45;&gt;lit::1.2::http://www.w3.org/2001/XMLSchema#double::</title>
<path fill="none" stroke="#4a5568" stroke-width="1.2" d="M108.08,-1494.89C128.97,-1483.58 157.07,-1469.26 183,-1459 270.81,-1424.24 380.02,-1400.12 434.22,-1389.35"/>
<polygon fill="#4a5568" stroke="#4a5568" stroke-width="1.2" points="434.95,-1391.88 441.81,-1387.86 433.94,-1386.73 434.95,-1391.88"/>
<text text-anchor="middle" x="239.5" y="-1461.8" font-family="Helvetica,sans-Serif" font-size="9.00">sdata:mu</text>
</g>
<!-- lit::Blechdicke normalverteilt, μ=1.2 mm, σ=0.033 mm (3σ=0.1 mm)::::de -->
<g id="node19" class="node">
<title>lit::Blechdicke normalverteilt, μ=1.2 mm, σ=0.033 mm (3σ=0.1 mm)::::de</title>
<polygon fill="#fff9db" stroke="#b08900" stroke-width="1.2" points="603,-1531 329,-1531 329,-1495 609,-1495 609,-1525 603,-1531"/>
<polyline fill="none" stroke="#b08900" stroke-width="1.2" points="603,-1531 603,-1525 "/>
<polyline fill="none" stroke="#b08900" stroke-width="1.2" points="609,-1525 603,-1525 "/>
<text text-anchor="middle" x="469" y="-1510.5" font-family="Helvetica,sans-Serif" font-size="10.00" fill="#5c4500">Blechdicke normalverteilt, μ=1.2 mm, σ=0.033 mm...</text>
</g>
<!-- uri::https://example.org/tensile&#45;test/dom_thickness_normal&#45;&gt;lit::Blechdicke normalverteilt, μ=1.2 mm, σ=0.033 mm (3σ=0.1 mm)::::de -->
<g id="edge16" class="edge">
<title>uri::https://example.org/tensile&#45;test/dom_thickness_normal&#45;&gt;lit::Blechdicke normalverteilt, μ=1.2 mm, σ=0.033 mm (3σ=0.1 mm)::::de</title>
<path fill="none" stroke="#4a5568" stroke-width="1.2" d="M148.81,-1513C197.23,-1513 262.5,-1513 321.4,-1513"/>
<polygon fill="#4a5568" stroke="#4a5568" stroke-width="1.2" points="321.42,-1515.63 328.92,-1513 321.42,-1510.38 321.42,-1515.63"/>
<text text-anchor="middle" x="239.5" y="-1515.8" font-family="Helvetica,sans-Serif" font-size="9.00">sdata:domainDescription</text>
</g>
<!-- uri::https://w3id.org/sdata/core/NormalDomain -->
<g id="node20" class="node">
<title>uri::https://w3id.org/sdata/core/NormalDomain</title>
<path fill="#f3e8ff" stroke="#7e57c2" stroke-width="1.2" d="M518.5,-1466C518.5,-1466 419.5,-1466 419.5,-1466 413.5,-1466 407.5,-1460 407.5,-1454 407.5,-1454 407.5,-1442 407.5,-1442 407.5,-1436 413.5,-1430 419.5,-1430 419.5,-1430 518.5,-1430 518.5,-1430 524.5,-1430 530.5,-1436 530.5,-1442 530.5,-1442 530.5,-1454 530.5,-1454 530.5,-1460 524.5,-1466 518.5,-1466"/>
<text text-anchor="middle" x="469" y="-1445.5" font-family="Helvetica,sans-Serif" font-size="10.00" fill="#4527a0">sdata:NormalDomain</text>
</g>
<!-- uri::https://example.org/tensile&#45;test/dom_thickness_normal&#45;&gt;uri::https://w3id.org/sdata/core/NormalDomain -->
<g id="edge17" class="edge">
<title>uri::https://example.org/tensile&#45;test/dom_thickness_normal&#45;&gt;uri::https://w3id.org/sdata/core/NormalDomain</title>
<path fill="none" stroke="#4a5568" stroke-width="1.2" d="M148.81,-1500.93C220.7,-1489.01 329.76,-1470.92 399.95,-1459.28"/>
<polygon fill="#4a5568" stroke="#4a5568" stroke-width="1.2" points="400.49,-1461.85 407.46,-1458.04 399.64,-1456.68 400.49,-1461.85"/>
<text text-anchor="middle" x="239.5" y="-1495.8" font-family="Helvetica,sans-Serif" font-size="9.00">rdf:type</text>
</g>
<!-- uri::https://example.org/tensile&#45;test/attr_thickness -->
<g id="node21" class="node">
<title>uri::https://example.org/tensile&#45;test/attr_thickness</title>
<path fill="#e3f2fd" stroke="#1976d2" stroke-width="1.2" d="M114.5,-1109C114.5,-1109 35.5,-1109 35.5,-1109 29.5,-1109 23.5,-1103 23.5,-1097 23.5,-1097 23.5,-1085 23.5,-1085 23.5,-1079 29.5,-1073 35.5,-1073 35.5,-1073 114.5,-1073 114.5,-1073 120.5,-1073 126.5,-1079 126.5,-1085 126.5,-1085 126.5,-1097 126.5,-1097 126.5,-1103 120.5,-1109 114.5,-1109"/>
<text text-anchor="middle" x="75" y="-1088.5" font-family="Helvetica,sans-Serif" font-size="10.00" fill="#0d47a1">ex:attr_thickness</text>
</g>
<!-- uri::https://example.org/tensile&#45;test/attr_thickness&#45;&gt;lit::1.2::http://www.w3.org/2001/XMLSchema#double:: -->
<g id="edge19" class="edge">
<title>uri::https://example.org/tensile&#45;test/attr_thickness&#45;&gt;lit::1.2::http://www.w3.org/2001/XMLSchema#double::</title>
<path fill="none" stroke="#4a5568" stroke-width="1.2" d="M80.43,-1109.13C91.11,-1149.13 122.03,-1245.65 183,-1299 256.04,-1362.92 375.66,-1378.26 433.94,-1381.9"/>
<polygon fill="#4a5568" stroke="#4a5568" stroke-width="1.2" points="434.11,-1384.53 441.75,-1382.34 434.41,-1379.29 434.11,-1384.53"/>
<text text-anchor="middle" x="239.5" y="-1359.8" font-family="Helvetica,sans-Serif" font-size="9.00">qudt:numericValue</text>
</g>
<!-- lit::float:::: -->
<g id="node22" class="node">
<title>lit::float::::</title>
<polygon fill="#fff9db" stroke="#b08900" stroke-width="1.2" points="490,-1011 442,-1011 442,-975 496,-975 496,-1005 490,-1011"/>
<polyline fill="none" stroke="#b08900" stroke-width="1.2" points="490,-1011 490,-1005 "/>
<polyline fill="none" stroke="#b08900" stroke-width="1.2" points="496,-1005 490,-1005 "/>
<text text-anchor="middle" x="469" y="-990.5" font-family="Helvetica,sans-Serif" font-size="10.00" fill="#5c4500">float</text>
</g>
<!-- uri::https://example.org/tensile&#45;test/attr_thickness&#45;&gt;lit::float:::: -->
<g id="edge18" class="edge">
<title>uri::https://example.org/tensile&#45;test/attr_thickness&#45;&gt;lit::float::::</title>
<path fill="none" stroke="#4a5568" stroke-width="1.2" d="M125.73,-1073C143.65,-1066.85 164.11,-1060.22 183,-1055 272.79,-1030.21 380.7,-1009.03 434.32,-999.08"/>
<polygon fill="#4a5568" stroke="#4a5568" stroke-width="1.2" points="434.93,-1001.63 441.83,-997.69 433.98,-996.47 434.93,-1001.63"/>
<text text-anchor="middle" x="239.5" y="-1057.8" font-family="Helvetica,sans-Serif" font-size="9.00">sdata:dtype</text>
</g>
<!-- lit::t:::: -->
<g id="node23" class="node">
<title>lit::t::::</title>
<polygon fill="#fff9db" stroke="#b08900" stroke-width="1.2" points="490,-946 442,-946 442,-910 496,-910 496,-940 490,-946"/>
<polyline fill="none" stroke="#b08900" stroke-width="1.2" points="490,-946 490,-940 "/>
<polyline fill="none" stroke="#b08900" stroke-width="1.2" points="496,-940 490,-940 "/>
<text text-anchor="middle" x="469" y="-925.5" font-family="Helvetica,sans-Serif" font-size="10.00" fill="#5c4500">t</text>
</g>
<!-- uri::https://example.org/tensile&#45;test/attr_thickness&#45;&gt;lit::t:::: -->
<g id="edge20" class="edge">
<title>uri::https://example.org/tensile&#45;test/attr_thickness&#45;&gt;lit::t::::</title>
<path fill="none" stroke="#4a5568" stroke-width="1.2" d="M96.4,-1072.67C117.01,-1054.91 150.39,-1028.23 183,-1011 267.48,-966.38 379.06,-942.86 434.19,-933.28"/>
<polygon fill="#4a5568" stroke="#4a5568" stroke-width="1.2" points="434.95,-935.81 441.9,-931.96 434.07,-930.63 434.95,-935.81"/>
<text text-anchor="middle" x="239.5" y="-1013.8" font-family="Helvetica,sans-Serif" font-size="9.00">sdata:name</text>
</g>
<!-- lit::Ausgangsblechdicke der Zugprobe vor dem Versuch::::de -->
<g id="node24" class="node">
<title>lit::Ausgangsblechdicke der Zugprobe vor dem Versuch::::de</title>
<polygon fill="#fff9db" stroke="#b08900" stroke-width="1.2" points="598.5,-881 333.5,-881 333.5,-845 604.5,-845 604.5,-875 598.5,-881"/>
<polyline fill="none" stroke="#b08900" stroke-width="1.2" points="598.5,-881 598.5,-875 "/>
<polyline fill="none" stroke="#b08900" stroke-width="1.2" points="604.5,-875 598.5,-875 "/>
<text text-anchor="middle" x="469" y="-860.5" font-family="Helvetica,sans-Serif" font-size="10.00" fill="#5c4500">Ausgangsblechdicke der Zugprobe vor dem Versuch</text>
</g>
<!-- uri::https://example.org/tensile&#45;test/attr_thickness&#45;&gt;lit::Ausgangsblechdicke der Zugprobe vor dem Versuch::::de -->
<g id="edge21" class="edge">
<title>uri::https://example.org/tensile&#45;test/attr_thickness&#45;&gt;lit::Ausgangsblechdicke der Zugprobe vor dem Versuch::::de</title>
<path fill="none" stroke="#4a5568" stroke-width="1.2" d="M85.38,-1072.94C101.54,-1043.47 137.33,-984.95 183,-951 229.04,-916.77 288.61,-895.69 341.38,-882.78"/>
<polygon fill="#4a5568" stroke="#4a5568" stroke-width="1.2" points="342.09,-885.31 348.77,-881.02 340.87,-880.21 342.09,-885.31"/>
<text text-anchor="middle" x="239.5" y="-953.8" font-family="Helvetica,sans-Serif" font-size="9.00">sdata:description</text>
</g>
<!-- lit::Sheet Thickness::::en -->
<g id="node25" class="node">
<title>lit::Sheet Thickness::::en</title>
<polygon fill="#fff9db" stroke="#b08900" stroke-width="1.2" points="512,-816 420,-816 420,-780 518,-780 518,-810 512,-816"/>
<polyline fill="none" stroke="#b08900" stroke-width="1.2" points="512,-816 512,-810 "/>
<polyline fill="none" stroke="#b08900" stroke-width="1.2" points="518,-810 512,-810 "/>
<text text-anchor="middle" x="469" y="-795.5" font-family="Helvetica,sans-Serif" font-size="10.00" fill="#5c4500">Sheet Thickness</text>
</g>
<!-- uri::https://example.org/tensile&#45;test/attr_thickness&#45;&gt;lit::Sheet Thickness::::en -->
<g id="edge22" class="edge">
<title>uri::https://example.org/tensile&#45;test/attr_thickness&#45;&gt;lit::Sheet Thickness::::en</title>
<path fill="none" stroke="#4a5568" stroke-width="1.2" d="M80.2,-1072.84C90.5,-1032.28 120.85,-933.71 183,-880 248,-823.83 349.35,-806.04 412.05,-800.47"/>
<polygon fill="#4a5568" stroke="#4a5568" stroke-width="1.2" points="412.62,-803.06 419.87,-799.82 412.18,-797.83 412.62,-803.06"/>
<text text-anchor="middle" x="239.5" y="-882.8" font-family="Helvetica,sans-Serif" font-size="9.00">rdfs:label</text>
</g>
<!-- lit::Initial sheet thickness of the tensile specimen before testing::::en -->
<g id="node26" class="node">
<title>lit::Initial sheet thickness of the tensile specimen before testing::::en</title>
<polygon fill="#fff9db" stroke="#b08900" stroke-width="1.2" points="589.5,-1336 342.5,-1336 342.5,-1300 595.5,-1300 595.5,-1330 589.5,-1336"/>
<polyline fill="none" stroke="#b08900" stroke-width="1.2" points="589.5,-1336 589.5,-1330 "/>
<polyline fill="none" stroke="#b08900" stroke-width="1.2" points="595.5,-1330 589.5,-1330 "/>
<text text-anchor="middle" x="469" y="-1315.5" font-family="Helvetica,sans-Serif" font-size="10.00" fill="#5c4500">Initial sheet thickness of the tensile specimen...</text>
</g>
<!-- uri::https://example.org/tensile&#45;test/attr_thickness&#45;&gt;lit::Initial sheet thickness of the tensile specimen before testing::::en -->
<g id="edge23" class="edge">
<title>uri::https://example.org/tensile&#45;test/attr_thickness&#45;&gt;lit::Initial sheet thickness of the tensile specimen before testing::::en</title>
<path fill="none" stroke="#4a5568" stroke-width="1.2" d="M85.81,-1109.04C102.34,-1137.89 138.32,-1194.53 183,-1228 230.1,-1263.28 291.4,-1284.97 345.08,-1298.18"/>
<polygon fill="#4a5568" stroke="#4a5568" stroke-width="1.2" points="344.7,-1300.79 352.6,-1299.99 345.93,-1295.68 344.7,-1300.79"/>
<text text-anchor="middle" x="239.5" y="-1284.8" font-family="Helvetica,sans-Serif" font-size="9.00">sdata:description</text>
</g>
<!-- lit::mm:::: -->
<g id="node27" class="node">
<title>lit::mm::::</title>
<polygon fill="#fff9db" stroke="#b08900" stroke-width="1.2" points="490,-1271 442,-1271 442,-1235 496,-1235 496,-1265 490,-1271"/>
<polyline fill="none" stroke="#b08900" stroke-width="1.2" points="490,-1271 490,-1265 "/>
<polyline fill="none" stroke="#b08900" stroke-width="1.2" points="496,-1265 490,-1265 "/>
<text text-anchor="middle" x="469" y="-1250.5" font-family="Helvetica,sans-Serif" font-size="10.00" fill="#5c4500">mm</text>
</g>
<!-- uri::https://example.org/tensile&#45;test/attr_thickness&#45;&gt;lit::mm:::: -->
<g id="edge24" class="edge">
<title>uri::https://example.org/tensile&#45;test/attr_thickness&#45;&gt;lit::mm::::</title>
<path fill="none" stroke="#4a5568" stroke-width="1.2" d="M97.38,-1109.11C118.18,-1126.06 151.23,-1151.22 183,-1168 267.64,-1212.71 379.15,-1237.24 434.23,-1247.37"/>
<polygon fill="#4a5568" stroke="#4a5568" stroke-width="1.2" points="434.09,-1250.01 441.93,-1248.76 435.02,-1244.85 434.09,-1250.01"/>
<text text-anchor="middle" x="239.5" y="-1213.8" font-family="Helvetica,sans-Serif" font-size="9.00">sdata:unitSymbol</text>
</g>
<!-- uri::http://qudt.org/vocab/unit/MilliM -->
<g id="node28" class="node">
<title>uri::http://qudt.org/vocab/unit/MilliM</title>
<path fill="#ffffff" stroke="#78909c" stroke-width="1.2" d="M492,-1206C492,-1206 446,-1206 446,-1206 440,-1206 434,-1200 434,-1194 434,-1194 434,-1182 434,-1182 434,-1176 440,-1170 446,-1170 446,-1170 492,-1170 492,-1170 498,-1170 504,-1176 504,-1182 504,-1182 504,-1194 504,-1194 504,-1200 498,-1206 492,-1206"/>
<text text-anchor="middle" x="469" y="-1185.5" font-family="Helvetica,sans-Serif" font-size="10.00" fill="#37474f">unit:MilliM</text>
</g>
<!-- uri::https://example.org/tensile&#45;test/attr_thickness&#45;&gt;uri::http://qudt.org/vocab/unit/MilliM -->
<g id="edge25" class="edge">
<title>uri::https://example.org/tensile&#45;test/attr_thickness&#45;&gt;uri::http://qudt.org/vocab/unit/MilliM</title>
<path fill="none" stroke="#4a5568" stroke-width="1.2" d="M126.61,-1108.11C144.35,-1113.83 164.46,-1120.02 183,-1125 268.76,-1148.06 370.67,-1169.07 426.42,-1180.03"/>
<polygon fill="#4a5568" stroke="#4a5568" stroke-width="1.2" points="426.11,-1182.65 433.98,-1181.51 427.12,-1177.49 426.11,-1182.65"/>
<text text-anchor="middle" x="239.5" y="-1153.8" font-family="Helvetica,sans-Serif" font-size="9.00">qudt:unit</text>
</g>
<!-- uri::https://w3id.org/sdata/core/AttributeQuantityValue -->
<g id="node29" class="node">
<title>uri::https://w3id.org/sdata/core/AttributeQuantityValue</title>
<path fill="#f3e8ff" stroke="#7e57c2" stroke-width="1.2" d="M537,-1141C537,-1141 401,-1141 401,-1141 395,-1141 389,-1135 389,-1129 389,-1129 389,-1117 389,-1117 389,-1111 395,-1105 401,-1105 401,-1105 537,-1105 537,-1105 543,-1105 549,-1111 549,-1117 549,-1117 549,-1129 549,-1129 549,-1135 543,-1141 537,-1141"/>
<text text-anchor="middle" x="469" y="-1120.5" font-family="Helvetica,sans-Serif" font-size="10.00" fill="#4527a0">sdata:AttributeQuantityValue</text>
</g>
<!-- uri::https://example.org/tensile&#45;test/attr_thickness&#45;&gt;uri::https://w3id.org/sdata/core/AttributeQuantityValue -->
<g id="edge26" class="edge">
<title>uri::https://example.org/tensile&#45;test/attr_thickness&#45;&gt;uri::https://w3id.org/sdata/core/AttributeQuantityValue</title>
<path fill="none" stroke="#4a5568" stroke-width="1.2" d="M126.85,-1095.15C191.14,-1100.4 302.83,-1109.52 380.84,-1115.88"/>
<polygon fill="#4a5568" stroke="#4a5568" stroke-width="1.2" points="381.07,-1118.54 388.75,-1116.53 381.49,-1113.3 381.07,-1118.54"/>
<text text-anchor="middle" x="239.5" y="-1110.8" font-family="Helvetica,sans-Serif" font-size="9.00">rdf:type</text>
</g>
<!-- lit::Blechdicke::::de -->
<g id="node30" class="node">
<title>lit::Blechdicke::::de</title>
<polygon fill="#fff9db" stroke="#b08900" stroke-width="1.2" points="498.5,-1076 433.5,-1076 433.5,-1040 504.5,-1040 504.5,-1070 498.5,-1076"/>
<polyline fill="none" stroke="#b08900" stroke-width="1.2" points="498.5,-1076 498.5,-1070 "/>
<polyline fill="none" stroke="#b08900" stroke-width="1.2" points="504.5,-1070 498.5,-1070 "/>
<text text-anchor="middle" x="469" y="-1055.5" font-family="Helvetica,sans-Serif" font-size="10.00" fill="#5c4500">Blechdicke</text>
</g>
<!-- uri::https://example.org/tensile&#45;test/attr_thickness&#45;&gt;lit::Blechdicke::::de -->
<g id="edge27" class="edge">
<title>uri::https://example.org/tensile&#45;test/attr_thickness&#45;&gt;lit::Blechdicke::::de</title>
<path fill="none" stroke="#4a5568" stroke-width="1.2" d="M126.85,-1086.72C205,-1080.14 353.2,-1067.66 425.79,-1061.55"/>
<polygon fill="#4a5568" stroke="#4a5568" stroke-width="1.2" points="426.16,-1064.16 433.42,-1060.91 425.72,-1058.92 426.16,-1064.16"/>
<text text-anchor="middle" x="239.5" y="-1083.8" font-family="Helvetica,sans-Serif" font-size="9.00">rdfs:label</text>
</g>
</g>
</svg>
