<?xml version="1.0" encoding="UTF-8" standalone="no"?>
<!DOCTYPE svg PUBLIC "-//W3C//DTD SVG 1.1//EN"
 "http://www.w3.org/Graphics/SVG/1.1/DTD/svg11.dtd">
<!-- Generated by graphviz version 2.43.0 (0)
 -->
<!-- Pages: 1 -->
<svg width="659pt" height="1740pt"
 viewBox="0.00 0.00 659.40 1740.40" xmlns="http://www.w3.org/2000/svg" xmlns:xlink="http://www.w3.org/1999/xlink">
<g id="graph0" class="graph" transform="scale(1 1) rotate(0) translate(25.2 1715.2)">
<polygon fill="#fafbfc" stroke="transparent" points="-25.2,25.2 -25.2,-1715.2 634.2,-1715.2 634.2,25.2 -25.2,25.2"/>
<text text-anchor="middle" x="304.5" y="-1671.6" font-family="Helvetica,sans-Serif" font-size="18.00">TTL Graph: AttributeQuantityValue_sheetthickness.ttl</text>
<!-- uri::https://example.org/tensile&#45;test/attr_thickness -->
<g id="node1" class="node">
<title>uri::https://example.org/tensile&#45;test/attr_thickness</title>
<path fill="#e3f2fd" stroke="#1976d2" stroke-width="1.2" d="M114.5,-590C114.5,-590 35.5,-590 35.5,-590 29.5,-590 23.5,-584 23.5,-578 23.5,-578 23.5,-566 23.5,-566 23.5,-560 29.5,-554 35.5,-554 35.5,-554 114.5,-554 114.5,-554 120.5,-554 126.5,-560 126.5,-566 126.5,-566 126.5,-578 126.5,-578 126.5,-584 120.5,-590 114.5,-590"/>
<text text-anchor="middle" x="75" y="-569.5" font-family="Helvetica,sans-Serif" font-size="10.00" fill="#0d47a1">ex:attr_thickness</text>
</g>
<!-- lit::Blechdicke::::de -->
<g id="node2" class="node">
<title>lit::Blechdicke::::de</title>
<polygon fill="#fff9db" stroke="#b08900" stroke-width="1.2" points="498.5,-687 433.5,-687 433.5,-651 504.5,-651 504.5,-681 498.5,-687"/>
<polyline fill="none" stroke="#b08900" stroke-width="1.2" points="498.5,-687 498.5,-681 "/>
<polyline fill="none" stroke="#b08900" stroke-width="1.2" points="504.5,-681 498.5,-681 "/>
<text text-anchor="middle" x="469" y="-666.5" font-family="Helvetica,sans-Serif" font-size="10.00" fill="#5c4500">Blechdicke</text>
</g>
<!-- uri::https://example.org/tensile&#45;test/attr_thickness&#45;&gt;lit::Blechdicke::::de -->
<g id="edge1" class="edge">
<title>uri::https://example.org/tensile&#45;test/attr_thickness&#45;&gt;lit::Blechdicke::::de</title>
<path fill="none" stroke="#4a5568" stroke-width="1.2" d="M126.61,-589.11C144.35,-594.83 164.46,-601.02 183,-606 268.3,-628.93 369.56,-649.84 425.51,-660.85"/>
<polygon fill="#4a5568" stroke="#4a5568" stroke-width="1.2" points="425.23,-663.47 433.1,-662.34 426.24,-658.32 425.23,-663.47"/>
<text text-anchor="middle" x="239.5" y="-634.8" font-family="Helvetica,sans-Serif" font-size="9.00">rdfs:label</text>
</g>
<!-- uri::http://qudt.org/vocab/unit/MilliM -->
<g id="node3" class="node">
<title>uri::http://qudt.org/vocab/unit/MilliM</title>
<path fill="#ffffff" stroke="#78909c" stroke-width="1.2" d="M492,-622C492,-622 446,-622 446,-622 440,-622 434,-616 434,-610 434,-610 434,-598 434,-598 434,-592 440,-586 446,-586 446,-586 492,-586 492,-586 498,-586 504,-592 504,-598 504,-598 504,-610 504,-610 504,-616 498,-622 492,-622"/>
<text text-anchor="middle" x="469" y="-601.5" font-family="Helvetica,sans-Serif" font-size="10.00" fill="#37474f">unit:MilliM</text>
</g>
<!-- uri::https://example.org/tensile&#45;test/attr_thickness&#45;&gt;uri::http://qudt.org/vocab/unit/MilliM -->
<g id="edge2" class="edge">
<title>uri::https://example.org/tensile&#45;test/attr_thickness&#45;&gt;uri::http://qudt.org/vocab/unit/MilliM</title>
<path fill="none" stroke="#4a5568" stroke-width="1.2" d="M126.85,-576.15C205.2,-582.55 353.96,-594.69 426.34,-600.6"/>
<polygon fill="#4a5568" stroke="#4a5568" stroke-width="1.2" points="426.26,-603.23 433.95,-601.22 426.68,-597.99 426.26,-603.23"/>
<text text-anchor="middle" x="239.5" y="-591.8" font-family="Helvetica,sans-Serif" font-size="9.00">qudt:unit</text>
</g>
<!-- lit::mm:::: -->
<g id="node4" class="node">
<title>lit::mm::::</title>
<polygon fill="#fff9db" stroke="#b08900" stroke-width="1.2" points="490,-557 442,-557 442,-521 496,-521 496,-551 490,-557"/>
<polyline fill="none" stroke="#b08900" stroke-width="1.2" points="490,-557 490,-551 "/>
<polyline fill="none" stroke="#b08900" stroke-width="1.2" points="496,-551 490,-551 "/>
<text text-anchor="middle" x="469" y="-536.5" font-family="Helvetica,sans-Serif" font-size="10.00" fill="#5c4500">mm</text>
</g>
<!-- uri::https://example.org/tensile&#45;test/attr_thickness&#45;&gt;lit::mm:::: -->
<g id="edge3" class="edge">
<title>uri::https://example.org/tensile&#45;test/attr_thickness&#45;&gt;lit::mm::::</title>
<path fill="none" stroke="#4a5568" stroke-width="1.2" d="M126.85,-567.72C208.23,-560.87 365.58,-547.62 434.4,-541.83"/>
<polygon fill="#4a5568" stroke="#4a5568" stroke-width="1.2" points="434.7,-544.44 441.95,-541.19 434.26,-539.21 434.7,-544.44"/>
<text text-anchor="middle" x="239.5" y="-564.8" font-family="Helvetica,sans-Serif" font-size="9.00">sdata:unitSymbol</text>
</g>
<!-- lit::Ausgangsblechdicke der Zugprobe vor dem Versuch::::de -->
<g id="node5" class="node">
<title>lit::Ausgangsblechdicke der Zugprobe vor dem Versuch::::de</title>
<polygon fill="#fff9db" stroke="#b08900" stroke-width="1.2" points="598.5,-492 333.5,-492 333.5,-456 604.5,-456 604.5,-486 598.5,-492"/>
<polyline fill="none" stroke="#b08900" stroke-width="1.2" points="598.5,-492 598.5,-486 "/>
<polyline fill="none" stroke="#b08900" stroke-width="1.2" points="604.5,-486 598.5,-486 "/>
<text text-anchor="middle" x="469" y="-471.5" font-family="Helvetica,sans-Serif" font-size="10.00" fill="#5c4500">Ausgangsblechdicke der Zugprobe vor dem Versuch</text>
</g>
<!-- uri::https://example.org/tensile&#45;test/attr_thickness&#45;&gt;lit::Ausgangsblechdicke der Zugprobe vor dem Versuch::::de -->
<g id="edge4" class="edge">
<title>uri::https://example.org/tensile&#45;test/attr_thickness&#45;&gt;lit::Ausgangsblechdicke der Zugprobe vor dem Versuch::::de</title>
<path fill="none" stroke="#4a5568" stroke-width="1.2" d="M125.73,-554C143.65,-547.85 164.11,-541.22 183,-536 242.67,-519.53 310.34,-504.65 364.77,-493.6"/>
<polygon fill="#4a5568" stroke="#4a5568" stroke-width="1.2" points="365.53,-496.12 372.36,-492.06 364.49,-490.98 365.53,-496.12"/>
<text text-anchor="middle" x="239.5" y="-538.8" font-family="Helvetica,sans-Serif" font-size="9.00">sdata:description</text>
</g>
<!-- lit::Sheet Thickness::::en -->
<g id="node6" class="node">
<title>lit::Sheet Thickness::::en</title>
<polygon fill="#fff9db" stroke="#b08900" stroke-width="1.2" points="512,-427 420,-427 420,-391 518,-391 518,-421 512,-427"/>
<polyline fill="none" stroke="#b08900" stroke-width="1.2" points="512,-427 512,-421 "/>
<polyline fill="none" stroke="#b08900" stroke-width="1.2" points="518,-421 512,-421 "/>
<text text-anchor="middle" x="469" y="-406.5" font-family="Helvetica,sans-Serif" font-size="10.00" fill="#5c4500">Sheet Thickness</text>
</g>
<!-- uri::https://example.org/tensile&#45;test/attr_thickness&#45;&gt;lit::Sheet Thickness::::en -->
<g id="edge5" class="edge">
<title>uri::https://example.org/tensile&#45;test/attr_thickness&#45;&gt;lit::Sheet Thickness::::en</title>
<path fill="none" stroke="#4a5568" stroke-width="1.2" d="M96.4,-553.67C117.01,-535.91 150.39,-509.23 183,-492 257.51,-452.64 353.1,-429.7 412.45,-418.26"/>
<polygon fill="#4a5568" stroke="#4a5568" stroke-width="1.2" points="412.98,-420.83 419.86,-416.86 412,-415.68 412.98,-420.83"/>
<text text-anchor="middle" x="239.5" y="-494.8" font-family="Helvetica,sans-Serif" font-size="9.00">rdfs:label</text>
</g>
<!-- lit::Initial sheet thickness of the tensile specimen before testing::::en -->
<g id="node7" class="node">
<title>lit::Initial sheet thickness of the tensile specimen before testing::::en</title>
<polygon fill="#fff9db" stroke="#b08900" stroke-width="1.2" points="589.5,-362 342.5,-362 342.5,-326 595.5,-326 595.5,-356 589.5,-362"/>
<polyline fill="none" stroke="#b08900" stroke-width="1.2" points="589.5,-362 589.5,-356 "/>
<polyline fill="none" stroke="#b08900" stroke-width="1.2" points="595.5,-356 589.5,-356 "/>
<text text-anchor="middle" x="469" y="-341.5" font-family="Helvetica,sans-Serif" font-size="10.00" fill="#5c4500">Initial sheet thickness of the tensile specimen...</text>
</g>
<!-- uri::https://example.org/tensile&#45;test/attr_thickness&#45;&gt;lit::Initial sheet thickness of the tensile specimen before testing::::en -->
<g id="edge6" class="edge">
<title>uri::https://example.org/tensile&#45;test/attr_thickness&#45;&gt;lit::Initial sheet thickness of the tensile specimen before testing::::en</title>
<path fill="none" stroke="#4a5568" stroke-width="1.2" d="M85.38,-553.94C101.54,-524.47 137.33,-465.95 183,-432 229.04,-397.77 288.61,-376.69 341.38,-363.78"/>
<polygon fill="#4a5568" stroke="#4a5568" stroke-width="1.2" points="342.09,-366.31 348.77,-362.02 340.87,-361.21 342.09,-366.31"/>
<text text-anchor="middle" x="239.5" y="-434.8" font-family="Helvetica,sans-Serif" font-size="9.00">sdata:description</text>
</g>
<!-- lit::float:::: -->
<g id="node8" class="node">
<title>lit::float::::</title>
<polygon fill="#fff9db" stroke="#b08900" stroke-width="1.2" points="490,-882 442,-882 442,-846 496,-846 496,-876 490,-882"/>
<polyline fill="none" stroke="#b08900" stroke-width="1.2" points="490,-882 490,-876 "/>
<polyline fill="none" stroke="#b08900" stroke-width="1.2" points="496,-876 490,-876 "/>
<text text-anchor="middle" x="469" y="-861.5" font-family="Helvetica,sans-Serif" font-size="10.00" fill="#5c4500">float</text>
</g>
<!-- uri::https://example.org/tensile&#45;test/attr_thickness&#45;&gt;lit::float:::: -->
<g id="edge7" class="edge">
<title>uri::https://example.org/tensile&#45;test/attr_thickness&#45;&gt;lit::float::::</title>
<path fill="none" stroke="#4a5568" stroke-width="1.2" d="M80.43,-590.13C91.11,-630.13 122.03,-726.65 183,-780 256.04,-843.92 375.66,-859.26 433.94,-862.9"/>
<polygon fill="#4a5568" stroke="#4a5568" stroke-width="1.2" points="434.11,-865.53 441.75,-863.34 434.41,-860.29 434.11,-865.53"/>
<text text-anchor="middle" x="239.5" y="-840.8" font-family="Helvetica,sans-Serif" font-size="9.00">sdata:dtype</text>
</g>
<!-- uri::https://w3id.org/sdata/core/AttributeQuantityValue -->
<g id="node9" class="node">
<title>uri::https://w3id.org/sdata/core/AttributeQuantityValue</title>
<path fill="#f3e8ff" stroke="#7e57c2" stroke-width="1.2" d="M537,-817C537,-817 401,-817 401,-817 395,-817 389,-811 389,-805 389,-805 389,-793 389,-793 389,-787 395,-781 401,-781 401,-781 537,-781 537,-781 543,-781 549,-787 549,-793 549,-793 549,-805 549,-805 549,-811 543,-817 537,-817"/>
<text text-anchor="middle" x="469" y="-796.5" font-family="Helvetica,sans-Serif" font-size="10.00" fill="#4527a0">sdata:AttributeQuantityValue</text>
</g>
<!-- uri::https://example.org/tensile&#45;test/attr_thickness&#45;&gt;uri::https://w3id.org/sdata/core/AttributeQuantityValue -->
<g id="edge8" class="edge">
<title>uri::https://example.org/tensile&#45;test/attr_thickness&#45;&gt;uri::https://w3id.org/sdata/core/AttributeQuantityValue</title>
<path fill="none" stroke="#4a5568" stroke-width="1.2" d="M85.81,-590.04C102.34,-618.89 138.32,-675.53 183,-709 241.14,-752.56 320.94,-775.39 381.31,-787.14"/>
<polygon fill="#4a5568" stroke="#4a5568" stroke-width="1.2" points="381.09,-789.77 388.94,-788.59 382.06,-784.61 381.09,-789.77"/>
<text text-anchor="middle" x="239.5" y="-765.8" font-family="Helvetica,sans-Serif" font-size="9.00">rdf:type</text>
</g>
<!-- lit::1.2::http://www.w3.org/2001/XMLSchema#double:: -->
<g id="node10" class="node">
<title>lit::1.2::http://www.w3.org/2001/XMLSchema#double::</title>
<polygon fill="#fff9db" stroke="#b08900" stroke-width="1.2" points="490,-297 442,-297 442,-261 496,-261 496,-291 490,-297"/>
<polyline fill="none" stroke="#b08900" stroke-width="1.2" points="490,-297 490,-291 "/>
<polyline fill="none" stroke="#b08900" stroke-width="1.2" points="496,-291 490,-291 "/>
<text text-anchor="middle" x="469" y="-276.5" font-family="Helvetica,sans-Serif" font-size="10.00" fill="#5c4500">1.2</text>
</g>
<!-- uri::https://example.org/tensile&#45;test/attr_thickness&#45;&gt;lit::1.2::http://www.w3.org/2001/XMLSchema#double:: -->
<g id="edge9" class="edge">
<title>uri::https://example.org/tensile&#45;test/attr_thickness&#45;&gt;lit::1.2::http://www.w3.org/2001/XMLSchema#double::</title>
<path fill="none" stroke="#4a5568" stroke-width="1.2" d="M80.22,-553.86C90.57,-513.37 121.01,-414.9 183,-361 256.1,-297.44 375.7,-283.01 433.96,-279.83"/>
<polygon fill="#4a5568" stroke="#4a5568" stroke-width="1.2" points="434.4,-282.44 441.76,-279.45 434.14,-277.2 434.4,-282.44"/>
<text text-anchor="middle" x="239.5" y="-363.8" font-family="Helvetica,sans-Serif" font-size="9.00">qudt:numericValue</text>
</g>
<!-- lit::t:::: -->
<g id="node11" class="node">
<title>lit::t::::</title>
<polygon fill="#fff9db" stroke="#b08900" stroke-width="1.2" points="490,-752 442,-752 442,-716 496,-716 496,-746 490,-752"/>
<polyline fill="none" stroke="#b08900" stroke-width="1.2" points="490,-752 490,-746 "/>
<polyline fill="none" stroke="#b08900" stroke-width="1.2" points="496,-746 490,-746 "/>
<text text-anchor="middle" x="469" y="-731.5" font-family="Helvetica,sans-Serif" font-size="10.00" fill="#5c4500">t</text>
</g>
<!-- uri::https://example.org/tensile&#45;test/attr_thickness&#45;&gt;lit::t:::: -->
<g id="edge10" class="edge">
<title>uri::https://example.org/tensile&#45;test/attr_thickness&#45;&gt;lit::t::::</title>
<path fill="none" stroke="#4a5568" stroke-width="1.2" d="M97.38,-590.11C118.18,-607.06 151.23,-632.22 183,-649 267.64,-693.71 379.15,-718.24 434.23,-728.37"/>
<polygon fill="#4a5568" stroke="#4a5568" stroke-width="1.2" points="434.09,-731.01 441.93,-729.76 435.02,-725.85 434.09,-731.01"/>
<text text-anchor="middle" x="239.5" y="-694.8" font-family="Helvetica,sans-Serif" font-size="9.00">sdata:name</text>
</g>
<!-- uri::https://example.org/tensile&#45;test/dom_thickness_interval -->
<g id="node12" class="node">
<title>uri::https://example.org/tensile&#45;test/dom_thickness_interval</title>
<path fill="#e3f2fd" stroke="#1976d2" stroke-width="1.2" d="M138,-1077C138,-1077 12,-1077 12,-1077 6,-1077 0,-1071 0,-1065 0,-1065 0,-1053 0,-1053 0,-1047 6,-1041 12,-1041 12,-1041 138,-1041 138,-1041 144,-1041 150,-1047 150,-1053 150,-1053 150,-1065 150,-1065 150,-1071 144,-1077 138,-1077"/>
<text text-anchor="middle" x="75" y="-1056.5" font-family="Helvetica,sans-Serif" font-size="10.00" fill="#0d47a1">ex:dom_thickness_interval</text>
</g>
<!-- lit::1.3::http://www.w3.org/2001/XMLSchema#double:: -->
<g id="node13" class="node">
<title>lit::1.3::http://www.w3.org/2001/XMLSchema#double::</title>
<polygon fill="#fff9db" stroke="#b08900" stroke-width="1.2" points="490,-1207 442,-1207 442,-1171 496,-1171 496,-1201 490,-1207"/>
<polyline fill="none" stroke="#b08900" stroke-width="1.2" points="490,-1207 490,-1201 "/>
<polyline fill="none" stroke="#b08900" stroke-width="1.2" points="496,-1201 490,-1201 "/>
<text text-anchor="middle" x="469" y="-1186.5" font-family="Helvetica,sans-Serif" font-size="10.00" fill="#5c4500">1.3</text>
</g>
<!-- uri::https://example.org/tensile&#45;test/dom_thickness_interval&#45;&gt;lit::1.3::http://www.w3.org/2001/XMLSchema#double:: -->
<g id="edge11" class="edge">
<title>uri::https://example.org/tensile&#45;test/dom_thickness_interval&#45;&gt;lit::1.3::http://www.w3.org/2001/XMLSchema#double::</title>
<path fill="none" stroke="#4a5568" stroke-width="1.2" d="M109.1,-1077.12C129.93,-1088.09 157.58,-1101.86 183,-1112 270.8,-1147.01 380.01,-1171.54 434.22,-1182.52"/>
<polygon fill="#4a5568" stroke="#4a5568" stroke-width="1.2" points="433.94,-1185.14 441.81,-1184.04 434.97,-1179.99 433.94,-1185.14"/>
<text text-anchor="middle" x="239.5" y="-1149.8" font-family="Helvetica,sans-Serif" font-size="9.00">sdata:maxValue</text>
</g>
<!-- lit::1.1::http://www.w3.org/2001/XMLSchema#double:: -->
<g id="node14" class="node">
<title>lit::1.1::http://www.w3.org/2001/XMLSchema#double::</title>
<polygon fill="#fff9db" stroke="#b08900" stroke-width="1.2" points="490,-1142 442,-1142 442,-1106 496,-1106 496,-1136 490,-1142"/>
<polyline fill="none" stroke="#b08900" stroke-width="1.2" points="490,-1142 490,-1136 "/>
<polyline fill="none" stroke="#b08900" stroke-width="1.2" points="496,-1136 490,-1136 "/>
<text text-anchor="middle" x="469" y="-1121.5" font-family="Helvetica,sans-Serif" font-size="10.00" fill="#5c4500">1.1</text>
</g>
<!-- uri::https://example.org/tensile&#45;test/dom_thickness_interval&#45;&gt;lit::1.1::http://www.w3.org/2001/XMLSchema#double:: -->
<g id="edge12" class="edge">
<title>uri::https://example.org/tensile&#45;test/dom_thickness_interval&#45;&gt;lit::1.1::http://www.w3.org/2001/XMLSchema#double::</title>
<path fill="none" stroke="#4a5568" stroke-width="1.2" d="M150.19,-1071.3C235.34,-1085.42 371.29,-1107.96 434.12,-1118.38"/>
<polygon fill="#4a5568" stroke="#4a5568" stroke-width="1.2" points="433.95,-1121.01 441.78,-1119.65 434.81,-1115.84 433.95,-1121.01"/>
<text text-anchor="middle" x="239.5" y="-1097.8" font-family="Helvetica,sans-Serif" font-size="9.00">sdata:minValue</text>
</g>
<!-- lit::Sheet thickness 1.2 ± 0.1 mm — hard tolerance limits::::en -->
<g id="node15" class="node">
<title>lit::Sheet thickness 1.2 ± 0.1 mm — hard tolerance limits::::en</title>
<polygon fill="#fff9db" stroke="#b08900" stroke-width="1.2" points="596.5,-1077 335.5,-1077 335.5,-1041 602.5,-1041 602.5,-1071 596.5,-1077"/>
<polyline fill="none" stroke="#b08900" stroke-width="1.2" points="596.5,-1077 596.5,-1071 "/>
<polyline fill="none" stroke="#b08900" stroke-width="1.2" points="602.5,-1071 596.5,-1071 "/>
<text text-anchor="middle" x="469" y="-1056.5" font-family="Helvetica,sans-Serif" font-size="10.00" fill="#5c4500">Sheet thickness 1.2 ± 0.1 mm — hard tolerance l...</text>
</g>
<!-- uri::https://example.org/tensile&#45;test/dom_thickness_interval&#45;&gt;lit::Sheet thickness 1.2 ± 0.1 mm — hard tolerance limits::::en -->
<g id="edge13" class="edge">
<title>uri::https://example.org/tensile&#45;test/dom_thickness_interval&#45;&gt;lit::Sheet thickness 1.2 ± 0.1 mm — hard tolerance limits::::en</title>
<path fill="none" stroke="#4a5568" stroke-width="1.2" d="M150.19,-1059C200.21,-1059 267.77,-1059 327.74,-1059"/>
<polygon fill="#4a5568" stroke="#4a5568" stroke-width="1.2" points="327.89,-1061.63 335.39,-1059 327.89,-1056.38 327.89,-1061.63"/>
<text text-anchor="middle" x="239.5" y="-1061.8" font-family="Helvetica,sans-Serif" font-size="9.00">sdata:domainDescription</text>
</g>
<!-- lit::Blechdicke 1.2 ± 0.1 mm — harte Toleranzgrenzen::::de -->
<g id="node16" class="node">
<title>lit::Blechdicke 1.2 ± 0.1 mm — harte Toleranzgrenzen::::de</title>
<polygon fill="#fff9db" stroke="#b08900" stroke-width="1.2" points="595.5,-1012 336.5,-1012 336.5,-976 601.5,-976 601.5,-1006 595.5,-1012"/>
<polyline fill="none" stroke="#b08900" stroke-width="1.2" points="595.5,-1012 595.5,-1006 "/>
<polyline fill="none" stroke="#b08900" stroke-width="1.2" points="601.5,-1006 595.5,-1006 "/>
<text text-anchor="middle" x="469" y="-991.5" font-family="Helvetica,sans-Serif" font-size="10.00" fill="#5c4500">Blechdicke 1.2 ± 0.1 mm — harte Toleranzgrenzen</text>
</g>
<!-- uri::https://example.org/tensile&#45;test/dom_thickness_interval&#45;&gt;lit::Blechdicke 1.2 ± 0.1 mm — harte Toleranzgrenzen::::de -->
<g id="edge14" class="edge">
<title>uri::https://example.org/tensile&#45;test/dom_thickness_interval&#45;&gt;lit::Blechdicke 1.2 ± 0.1 mm — harte Toleranzgrenzen::::de</title>
<path fill="none" stroke="#4a5568" stroke-width="1.2" d="M150.19,-1046.7C207.04,-1037.27 286.55,-1024.09 351.81,-1013.27"/>
<polygon fill="#4a5568" stroke="#4a5568" stroke-width="1.2" points="352.32,-1015.84 359.29,-1012.03 351.46,-1010.66 352.32,-1015.84"/>
<text text-anchor="middle" x="239.5" y="-1041.8" font-family="Helvetica,sans-Serif" font-size="9.00">sdata:domainDescription</text>
</g>
<!-- uri::https://w3id.org/sdata/core/IntervalDomain -->
<g id="node17" class="node">
<title>uri::https://w3id.org/sdata/core/IntervalDomain</title>
<path fill="#f3e8ff" stroke="#7e57c2" stroke-width="1.2" d="M519,-947C519,-947 419,-947 419,-947 413,-947 407,-941 407,-935 407,-935 407,-923 407,-923 407,-917 413,-911 419,-911 419,-911 519,-911 519,-911 525,-911 531,-917 531,-923 531,-923 531,-935 531,-935 531,-941 525,-947 519,-947"/>
<text text-anchor="middle" x="469" y="-926.5" font-family="Helvetica,sans-Serif" font-size="10.00" fill="#4527a0">sdata:IntervalDomain</text>
</g>
<!-- uri::https://example.org/tensile&#45;test/dom_thickness_interval&#45;&gt;uri::https://w3id.org/sdata/core/IntervalDomain -->
<g id="edge15" class="edge">
<title>uri::https://example.org/tensile&#45;test/dom_thickness_interval&#45;&gt;uri::https://w3id.org/sdata/core/IntervalDomain</title>
<path fill="none" stroke="#4a5568" stroke-width="1.2" d="M108.08,-1040.89C128.97,-1029.58 157.07,-1015.26 183,-1005 254.8,-976.58 340.91,-955.27 399.55,-942.56"/>
<polygon fill="#4a5568" stroke="#4a5568" stroke-width="1.2" points="400.14,-945.11 406.92,-940.97 399.03,-939.98 400.14,-945.11"/>
<text text-anchor="middle" x="239.5" y="-1007.8" font-family="Helvetica,sans-Serif" font-size="9.00">rdf:type</text>
</g>
<!-- uri::https://example.org/tensile&#45;test/dom_thickness_fuzzy -->
<g id="node18" class="node">
<title>uri::https://example.org/tensile&#45;test/dom_thickness_fuzzy</title>
<path fill="#e3f2fd" stroke="#1976d2" stroke-width="1.2" d="M132.5,-1467C132.5,-1467 17.5,-1467 17.5,-1467 11.5,-1467 5.5,-1461 5.5,-1455 5.5,-1455 5.5,-1443 5.5,-1443 5.5,-1437 11.5,-1431 17.5,-1431 17.5,-1431 132.5,-1431 132.5,-1431 138.5,-1431 144.5,-1437 144.5,-1443 144.5,-1443 144.5,-1455 144.5,-1455 144.5,-1461 138.5,-1467 132.5,-1467"/>
<text text-anchor="middle" x="75" y="-1446.5" font-family="Helvetica,sans-Serif" font-size="10.00" fill="#0d47a1">ex:dom_thickness_fuzzy</text>
</g>
<!-- lit::1.25::http://www.w3.org/2001/XMLSchema#double:: -->
<g id="node19" class="node">
<title>lit::1.25::http://www.w3.org/2001/XMLSchema#double::</title>
<polygon fill="#fff9db" stroke="#b08900" stroke-width="1.2" points="490,-1662 442,-1662 442,-1626 496,-1626 496,-1656 490,-1662"/>
<polyline fill="none" stroke="#b08900" stroke-width="1.2" points="490,-1662 490,-1656 "/>
<polyline fill="none" stroke="#b08900" stroke-width="1.2" points="496,-1656 490,-1656 "/>
<text text-anchor="middle" x="469" y="-1641.5" font-family="Helvetica,sans-Serif" font-size="10.00" fill="#5c4500">1.25</text>
</g>
<!-- uri::https://example.org/tensile&#45;test/dom_thickness_fuzzy&#45;&gt;lit::1.25::http://www.w3.org/2001/XMLSchema#double:: -->
<g id="edge16" class="edge">
<title>uri::https://example.org/tensile&#45;test/dom_thickness_fuzzy&#45;&gt;lit::1.25::http://www.w3.org/2001/XMLSchema#double::</title>
<path fill="none" stroke="#4a5568" stroke-width="1.2" d="M90.55,-1467.21C109.67,-1490.12 145.26,-1529.44 183,-1554 263.99,-1606.72 377.98,-1630.37 434.09,-1639.34"/>
<polygon fill="#4a5568" stroke="#4a5568" stroke-width="1.2" points="433.8,-1641.95 441.61,-1640.51 434.6,-1636.76 433.8,-1641.95"/>
<text text-anchor="middle" x="239.5" y="-1607.8" font-family="Helvetica,sans-Serif" font-size="9.00">sdata:fuzzyCoreRight</text>
</g>
<!-- lit::Blechdicke 1.2 mm — weiche Toleranz für Simulation::::de -->
<g id="node20" class="node">
<title>lit::Blechdicke 1.2 mm — weiche Toleranz für Simulation::::de</title>
<polygon fill="#fff9db" stroke="#b08900" stroke-width="1.2" points="601.5,-1597 330.5,-1597 330.5,-1561 607.5,-1561 607.5,-1591 601.5,-1597"/>
<polyline fill="none" stroke="#b08900" stroke-width="1.2" points="601.5,-1597 601.5,-1591 "/>
<polyline fill="none" stroke="#b08900" stroke-width="1.2" points="607.5,-1591 601.5,-1591 "/>
<text text-anchor="middle" x="469" y="-1576.5" font-family="Helvetica,sans-Serif" font-size="10.00" fill="#5c4500">Blechdicke 1.2 mm — weiche Toleranz für Simulation</text>
</g>
<!-- uri::https://example.org/tensile&#45;test/dom_thickness_fuzzy&#45;&gt;lit::Blechdicke 1.2 mm — weiche Toleranz für Simulation::::de -->
<g id="edge17" class="edge">
<title>uri::https://example.org/tensile&#45;test/dom_thickness_fuzzy&#45;&gt;lit::Blechdicke 1.2 mm — weiche Toleranz für Simulation::::de</title>
<path fill="none" stroke="#4a5568" stroke-width="1.2" d="M109.1,-1467.12C129.93,-1478.09 157.58,-1491.86 183,-1502 244.74,-1526.62 317.06,-1546.05 373.4,-1559.24"/>
<polygon fill="#4a5568" stroke="#4a5568" stroke-width="1.2" points="372.99,-1561.84 380.89,-1560.98 374.18,-1556.73 372.99,-1561.84"/>
<text text-anchor="middle" x="239.5" y="-1539.8" font-family="Helvetica,sans-Serif" font-size="9.00">sdata:domainDescription</text>
</g>
<!-- lit::1.05::http://www.w3.org/2001/XMLSchema#double:: -->
<g id="node21" class="node">
<title>lit::1.05::http://www.w3.org/2001/XMLSchema#double::</title>
<polygon fill="#fff9db" stroke="#b08900" stroke-width="1.2" points="490,-1532 442,-1532 442,-1496 496,-1496 496,-1526 490,-1532"/>
<polyline fill="none" stroke="#b08900" stroke-width="1.2" points="490,-1532 490,-1526 "/>
<polyline fill="none" stroke="#b08900" stroke-width="1.2" points="496,-1526 490,-1526 "/>
<text text-anchor="middle" x="469" y="-1511.5" font-family="Helvetica,sans-Serif" font-size="10.00" fill="#5c4500">1.05</text>
</g>
<!-- uri::https://example.org/tensile&#45;test/dom_thickness_fuzzy&#45;&gt;lit::1.05::http://www.w3.org/2001/XMLSchema#double:: -->
<g id="edge18" class="edge">
<title>uri::https://example.org/tensile&#45;test/dom_thickness_fuzzy&#45;&gt;lit::1.05::http://www.w3.org/2001/XMLSchema#double::</title>
<path fill="none" stroke="#4a5568" stroke-width="1.2" d="M144.73,-1460.4C229.55,-1474.46 370.4,-1497.82 434.45,-1508.44"/>
<polygon fill="#4a5568" stroke="#4a5568" stroke-width="1.2" points="434.04,-1511.03 441.87,-1509.67 434.9,-1505.85 434.04,-1511.03"/>
<text text-anchor="middle" x="239.5" y="-1487.8" font-family="Helvetica,sans-Serif" font-size="9.00">sdata:fuzzyLeft</text>
</g>
<!-- uri::https://w3id.org/sdata/core/TrapezoidalFuzzyDomain -->
<g id="node22" class="node">
<title>uri::https://w3id.org/sdata/core/TrapezoidalFuzzyDomain</title>
<path fill="#f3e8ff" stroke="#7e57c2" stroke-width="1.2" d="M542,-1467C542,-1467 396,-1467 396,-1467 390,-1467 384,-1461 384,-1455 384,-1455 384,-1443 384,-1443 384,-1437 390,-1431 396,-1431 396,-1431 542,-1431 542,-1431 548,-1431 554,-1437 554,-1443 554,-1443 554,-1455 554,-1455 554,-1461 548,-1467 542,-1467"/>
<text text-anchor="middle" x="469" y="-1446.5" font-family="Helvetica,sans-Serif" font-size="10.00" fill="#4527a0">sdata:TrapezoidalFuzzyDomain</text>
</g>
<!-- uri::https://example.org/tensile&#45;test/dom_thickness_fuzzy&#45;&gt;uri::https://w3id.org/sdata/core/TrapezoidalFuzzyDomain -->
<g id="edge19" class="edge">
<title>uri::https://example.org/tensile&#45;test/dom_thickness_fuzzy&#45;&gt;uri::https://w3id.org/sdata/core/TrapezoidalFuzzyDomain</title>
<path fill="none" stroke="#4a5568" stroke-width="1.2" d="M144.73,-1449C209.03,-1449 305.52,-1449 376.35,-1449"/>
<polygon fill="#4a5568" stroke="#4a5568" stroke-width="1.2" points="376.49,-1451.63 383.99,-1449 376.49,-1446.38 376.49,-1451.63"/>
<text text-anchor="middle" x="239.5" y="-1451.8" font-family="Helvetica,sans-Serif" font-size="9.00">rdf:type</text>
</g>
<!-- lit::1.15::http://www.w3.org/2001/XMLSchema#double:: -->
<g id="node23" class="node">
<title>lit::1.15::http://www.w3.org/2001/XMLSchema#double::</title>
<polygon fill="#fff9db" stroke="#b08900" stroke-width="1.2" points="490,-1402 442,-1402 442,-1366 496,-1366 496,-1396 490,-1402"/>
<polyline fill="none" stroke="#b08900" stroke-width="1.2" points="490,-1402 490,-1396 "/>
<polyline fill="none" stroke="#b08900" stroke-width="1.2" points="496,-1396 490,-1396 "/>
<text text-anchor="middle" x="469" y="-1381.5" font-family="Helvetica,sans-Serif" font-size="10.00" fill="#5c4500">1.15</text>
</g>
<!-- uri::https://example.org/tensile&#45;test/dom_thickness_fuzzy&#45;&gt;lit::1.15::http://www.w3.org/2001/XMLSchema#double:: -->
<g id="edge20" class="edge">
<title>uri::https://example.org/tensile&#45;test/dom_thickness_fuzzy&#45;&gt;lit::1.15::http://www.w3.org/2001/XMLSchema#double::</title>
<path fill="none" stroke="#4a5568" stroke-width="1.2" d="M144.73,-1437.6C229.55,-1423.54 370.4,-1400.18 434.45,-1389.56"/>
<polygon fill="#4a5568" stroke="#4a5568" stroke-width="1.2" points="434.9,-1392.15 441.87,-1388.33 434.04,-1386.97 434.9,-1392.15"/>
<text text-anchor="middle" x="239.5" y="-1431.8" font-family="Helvetica,sans-Serif" font-size="9.00">sdata:fuzzyCoreLeft</text>
</g>
<!-- lit::1.35::http://www.w3.org/2001/XMLSchema#double:: -->
<g id="node24" class="node">
<title>lit::1.35::http://www.w3.org/2001/XMLSchema#double::</title>
<polygon fill="#fff9db" stroke="#b08900" stroke-width="1.2" points="490,-1337 442,-1337 442,-1301 496,-1301 496,-1331 490,-1337"/>
<polyline fill="none" stroke="#b08900" stroke-width="1.2" points="490,-1337 490,-1331 "/>
<polyline fill="none" stroke="#b08900" stroke-width="1.2" points="496,-1331 490,-1331 "/>
<text text-anchor="middle" x="469" y="-1316.5" font-family="Helvetica,sans-Serif" font-size="10.00" fill="#5c4500">1.35</text>
</g>
<!-- uri::https://example.org/tensile&#45;test/dom_thickness_fuzzy&#45;&gt;lit::1.35::http://www.w3.org/2001/XMLSchema#double:: -->
<g id="edge21" class="edge">
<title>uri::https://example.org/tensile&#45;test/dom_thickness_fuzzy&#45;&gt;lit::1.35::http://www.w3.org/2001/XMLSchema#double::</title>
<path fill="none" stroke="#4a5568" stroke-width="1.2" d="M108.08,-1430.89C128.97,-1419.58 157.07,-1405.26 183,-1395 270.81,-1360.24 380.02,-1336.12 434.22,-1325.35"/>
<polygon fill="#4a5568" stroke="#4a5568" stroke-width="1.2" points="434.95,-1327.88 441.81,-1323.86 433.94,-1322.73 434.95,-1327.88"/>
<text text-anchor="middle" x="239.5" y="-1397.8" font-family="Helvetica,sans-Serif" font-size="9.00">sdata:fuzzyRight</text>
</g>
<!-- lit::Sheet thickness 1.2 mm — soft tolerance for simulation::::en -->
<g id="node25" class="node">
<title>lit::Sheet thickness 1.2 mm — soft tolerance for simulation::::en</title>
<polygon fill="#fff9db" stroke="#b08900" stroke-width="1.2" points="595.5,-1272 336.5,-1272 336.5,-1236 601.5,-1236 601.5,-1266 595.5,-1272"/>
<polyline fill="none" stroke="#b08900" stroke-width="1.2" points="595.5,-1272 595.5,-1266 "/>
<polyline fill="none" stroke="#b08900" stroke-width="1.2" points="601.5,-1266 595.5,-1266 "/>
<text text-anchor="middle" x="469" y="-1251.5" font-family="Helvetica,sans-Serif" font-size="10.00" fill="#5c4500">Sheet thickness 1.2 mm — soft tolerance for sim...</text>
</g>
<!-- uri::https://example.org/tensile&#45;test/dom_thickness_fuzzy&#45;&gt;lit::Sheet thickness 1.2 mm — soft tolerance for simulation::::en -->
<g id="edge22" class="edge">
<title>uri::https://example.org/tensile&#45;test/dom_thickness_fuzzy&#45;&gt;lit::Sheet thickness 1.2 mm — soft tolerance for simulation::::en</title>
<path fill="none" stroke="#4a5568" stroke-width="1.2" d="M90.08,-1430.72C108.96,-1407.3 144.59,-1366.78 183,-1342 234.96,-1308.49 300.44,-1287.1 355.53,-1273.81"/>
<polygon fill="#4a5568" stroke="#4a5568" stroke-width="1.2" points="356.19,-1276.35 362.88,-1272.06 354.98,-1271.24 356.19,-1276.35"/>
<text text-anchor="middle" x="239.5" y="-1344.8" font-family="Helvetica,sans-Serif" font-size="9.00">sdata:domainDescription</text>
</g>
<!-- uri::https://example.org/tensile&#45;test/dom_thickness_normal -->
<g id="node26" class="node">
<title>uri::https://example.org/tensile&#45;test/dom_thickness_normal</title>
<path fill="#e3f2fd" stroke="#1976d2" stroke-width="1.2" d="M136.5,-166C136.5,-166 13.5,-166 13.5,-166 7.5,-166 1.5,-160 1.5,-154 1.5,-154 1.5,-142 1.5,-142 1.5,-136 7.5,-130 13.5,-130 13.5,-130 136.5,-130 136.5,-130 142.5,-130 148.5,-136 148.5,-142 148.5,-142 148.5,-154 148.5,-154 148.5,-160 142.5,-166 136.5,-166"/>
<text text-anchor="middle" x="75" y="-145.5" font-family="Helvetica,sans-Serif" font-size="10.00" fill="#0d47a1">ex:dom_thickness_normal</text>
</g>
<!-- uri::https://example.org/tensile&#45;test/dom_thickness_normal&#45;&gt;lit::1.2::http://www.w3.org/2001/XMLSchema#double:: -->
<g id="edge27" class="edge">
<title>uri::https://example.org/tensile&#45;test/dom_thickness_normal&#45;&gt;lit::1.2::http://www.w3.org/2001/XMLSchema#double::</title>
<path fill="none" stroke="#4a5568" stroke-width="1.2" d="M108.08,-166.11C128.97,-177.42 157.07,-191.74 183,-202 270.89,-236.79 380.06,-261.42 434.24,-272.47"/>
<polygon fill="#4a5568" stroke="#4a5568" stroke-width="1.2" points="433.95,-275.09 441.82,-274 434.99,-269.94 433.95,-275.09"/>
<text text-anchor="middle" x="239.5" y="-240.8" font-family="Helvetica,sans-Serif" font-size="9.00">sdata:mu</text>
</g>
<!-- lit::Blechdicke normalverteilt, μ=1.2 mm, σ=0.033 mm (3σ=0.1 mm)::::de -->
<g id="node27" class="node">
<title>lit::Blechdicke normalverteilt, μ=1.2 mm, σ=0.033 mm (3σ=0.1 mm)::::de</title>
<polygon fill="#fff9db" stroke="#b08900" stroke-width="1.2" points="603,-231 329,-231 329,-195 609,-195 609,-225 603,-231"/>
<polyline fill="none" stroke="#b08900" stroke-width="1.2" points="603,-231 603,-225 "/>
<polyline fill="none" stroke="#b08900" stroke-width="1.2" points="609,-225 603,-225 "/>
<text text-anchor="middle" x="469" y="-210.5" font-family="Helvetica,sans-Serif" font-size="10.00" fill="#5c4500">Blechdicke normalverteilt, μ=1.2 mm, σ=0.033 mm...</text>
</g>
<!-- uri::https://example.org/tensile&#45;test/dom_thickness_normal&#45;&gt;lit::Blechdicke normalverteilt, μ=1.2 mm, σ=0.033 mm (3σ=0.1 mm)::::de -->
<g id="edge23" class="edge">
<title>uri::https://example.org/tensile&#45;test/dom_thickness_normal&#45;&gt;lit::Blechdicke normalverteilt, μ=1.2 mm, σ=0.033 mm (3σ=0.1 mm)::::de</title>
<path fill="none" stroke="#4a5568" stroke-width="1.2" d="M148.81,-160.07C205.74,-169.51 285.97,-182.82 351.76,-193.73"/>
<polygon fill="#4a5568" stroke="#4a5568" stroke-width="1.2" points="351.47,-196.34 359.3,-194.98 352.33,-191.16 351.47,-196.34"/>
<text text-anchor="middle" x="239.5" y="-187.8" font-family="Helvetica,sans-Serif" font-size="9.00">sdata:domainDescription</text>
</g>
<!-- uri::https://w3id.org/sdata/core/NormalDomain -->
<g id="node28" class="node">
<title>uri::https://w3id.org/sdata/core/NormalDomain</title>
<path fill="#f3e8ff" stroke="#7e57c2" stroke-width="1.2" d="M518.5,-166C518.5,-166 419.5,-166 419.5,-166 413.5,-166 407.5,-160 407.5,-154 407.5,-154 407.5,-142 407.5,-142 407.5,-136 413.5,-130 419.5,-130 419.5,-130 518.5,-130 518.5,-130 524.5,-130 530.5,-136 530.5,-142 530.5,-142 530.5,-154 530.5,-154 530.5,-160 524.5,-166 518.5,-166"/>
<text text-anchor="middle" x="469" y="-145.5" font-family="Helvetica,sans-Serif" font-size="10.00" fill="#4527a0">sdata:NormalDomain</text>
</g>
<!-- uri::https://example.org/tensile&#45;test/dom_thickness_normal&#45;&gt;uri::https://w3id.org/sdata/core/NormalDomain -->
<g id="edge24" class="edge">
<title>uri::https://example.org/tensile&#45;test/dom_thickness_normal&#45;&gt;uri::https://w3id.org/sdata/core/NormalDomain</title>
<path fill="none" stroke="#4a5568" stroke-width="1.2" d="M148.81,-148C220.7,-148 329.76,-148 399.95,-148"/>
<polygon fill="#4a5568" stroke="#4a5568" stroke-width="1.2" points="399.96,-150.63 407.46,-148 399.96,-145.38 399.96,-150.63"/>
<text text-anchor="middle" x="239.5" y="-150.8" font-family="Helvetica,sans-Serif" font-size="9.00">rdf:type</text>
</g>
<!-- lit::Sheet thickness normally distributed, μ=1.2 mm, σ=0.033 mm (3σ=0.1 mm)::::en -->
<g id="node29" class="node">
<title>lit::Sheet thickness normally distributed, μ=1.2 mm, σ=0.033 mm (3σ=0.1 mm)::::en</title>
<polygon fill="#fff9db" stroke="#b08900" stroke-width="1.2" points="597,-101 335,-101 335,-65 603,-65 603,-95 597,-101"/>
<polyline fill="none" stroke="#b08900" stroke-width="1.2" points="597,-101 597,-95 "/>
<polyline fill="none" stroke="#b08900" stroke-width="1.2" points="603,-95 597,-95 "/>
<text text-anchor="middle" x="469" y="-80.5" font-family="Helvetica,sans-Serif" font-size="10.00" fill="#5c4500">Sheet thickness normally distributed, μ=1.2 mm,...</text>
</g>
<!-- uri::https://example.org/tensile&#45;test/dom_thickness_normal&#45;&gt;lit::Sheet thickness normally distributed, μ=1.2 mm, σ=0.033 mm (3σ=0.1 mm)::::en -->
<g id="edge25" class="edge">
<title>uri::https://example.org/tensile&#45;test/dom_thickness_normal&#45;&gt;lit::Sheet thickness normally distributed, μ=1.2 mm, σ=0.033 mm (3σ=0.1 mm)::::en</title>
<path fill="none" stroke="#4a5568" stroke-width="1.2" d="M148.81,-135.93C205.74,-126.49 285.97,-113.18 351.76,-102.27"/>
<polygon fill="#4a5568" stroke="#4a5568" stroke-width="1.2" points="352.33,-104.84 359.3,-101.02 351.47,-99.66 352.33,-104.84"/>
<text text-anchor="middle" x="239.5" y="-131.8" font-family="Helvetica,sans-Serif" font-size="9.00">sdata:domainDescription</text>
</g>
<!-- lit::0.033::http://www.w3.org/2001/XMLSchema#double:: -->
<g id="node30" class="node">
<title>lit::0.033::http://www.w3.org/2001/XMLSchema#double::</title>
<polygon fill="#fff9db" stroke="#b08900" stroke-width="1.2" points="490,-36 442,-36 442,0 496,0 496,-30 490,-36"/>
<polyline fill="none" stroke="#b08900" stroke-width="1.2" points="490,-36 490,-30 "/>
<polyline fill="none" stroke="#b08900" stroke-width="1.2" points="496,-30 490,-30 "/>
<text text-anchor="middle" x="469" y="-15.5" font-family="Helvetica,sans-Serif" font-size="10.00" fill="#5c4500">0.033</text>
</g>
<!-- uri::https://example.org/tensile&#45;test/dom_thickness_normal&#45;&gt;lit::0.033::http://www.w3.org/2001/XMLSchema#double:: -->
<g id="edge26" class="edge">
<title>uri::https://example.org/tensile&#45;test/dom_thickness_normal&#45;&gt;lit::0.033::http://www.w3.org/2001/XMLSchema#double::</title>
<path fill="none" stroke="#4a5568" stroke-width="1.2" d="M109.1,-129.88C129.93,-118.91 157.58,-105.14 183,-95 270.8,-59.99 380.01,-35.46 434.22,-24.48"/>
<polygon fill="#4a5568" stroke="#4a5568" stroke-width="1.2" points="434.97,-27.01 441.81,-22.96 433.94,-21.86 434.97,-27.01"/>
<text text-anchor="middle" x="239.5" y="-97.8" font-family="Helvetica,sans-Serif" font-size="9.00">sdata:sigma</text>
</g>
</g>
</svg>
