<?xml version="1.0" encoding="UTF-8" standalone="no"?>
<!DOCTYPE svg PUBLIC "-//W3C//DTD SVG 1.1//EN"
 "http://www.w3.org/Graphics/SVG/1.1/DTD/svg11.dtd">
<!-- Generated by graphviz version 2.43.0 (0)
 -->
<!-- Pages: 1 -->
<svg width="659pt" height="1740pt"
 viewBox="0.00 0.00 659.40 1740.40" xmlns="http://www.w3.org/2000/svg" xmlns:xlink="http://www.w3.org/1999/xlink">
<g id="graph0" class="graph" transform="scale(1 1) rotate(0) translate(25.2 1715.2)">
<polygon fill="#fafbfc" stroke="transparent" points="-25.2,25.2 -25.2,-1715.2 634.2,-1715.2 634.2,25.2 -25.2,25.2"/>
<text text-anchor="middle" x="304.5" y="-1671.6" font-family="Helvetica,sans-Serif" font-size="18.00">TTL Graph: AttributeQuantityValue_sheetthickness.ttl</text>
<!-- uri::https://example.org/tensile&#45;test/attr_thickness -->
<g id="node1" class="node">
<title>uri::https://example.org/tensile&#45;test/attr_thickness</title>
<path fill="#e3f2fd" stroke="#1976d2" stroke-width="1.2" d="M114.5,-329C114.5,-329 35.5,-329 35.5,-329 29.5,-329 23.5,-323 23.5,-317 23.5,-317 23.5,-305 23.5,-305 23.5,-299 29.5,-293 35.5,-293 35.5,-293 114.5,-293 114.5,-293 120.5,-293 126.5,-299 126.5,-305 126.5,-305 126.5,-317 126.5,-317 126.5,-323 120.5,-329 114.5,-329"/>
<text text-anchor="middle" x="75" y="-308.5" font-family="Helvetica,sans-Serif" font-size="10.00" fill="#0d47a1">ex:attr_thickness</text>
</g>
<!-- lit::float:::: -->
<g id="node2" class="node">
<title>lit::float::::</title>
<polygon fill="#fff9db" stroke="#b08900" stroke-width="1.2" points="490,-556 442,-556 442,-520 496,-520 496,-550 490,-556"/>
<polyline fill="none" stroke="#b08900" stroke-width="1.2" points="490,-556 490,-550 "/>
<polyline fill="none" stroke="#b08900" stroke-width="1.2" points="496,-550 490,-550 "/>
<text text-anchor="middle" x="469" y="-535.5" font-family="Helvetica,sans-Serif" font-size="10.00" fill="#5c4500">float</text>
</g>
<!-- uri::https://example.org/tensile&#45;test/attr_thickness&#45;&gt;lit::float:::: -->
<g id="edge1" class="edge">
<title>uri::https://example.org/tensile&#45;test/attr_thickness&#45;&gt;lit::float::::</title>
<path fill="none" stroke="#4a5568" stroke-width="1.2" d="M85.76,-329.21C102.2,-358.31 138.07,-415.43 183,-449 260.73,-507.08 377.17,-527.81 434.15,-534.76"/>
<polygon fill="#4a5568" stroke="#4a5568" stroke-width="1.2" points="434.03,-537.38 441.78,-535.65 434.64,-532.17 434.03,-537.38"/>
<text text-anchor="middle" x="239.5" y="-505.8" font-family="Helvetica,sans-Serif" font-size="9.00">sdata:dtype</text>
</g>
<!-- lit::Blechdicke::::de -->
<g id="node3" class="node">
<title>lit::Blechdicke::::de</title>
<polygon fill="#fff9db" stroke="#b08900" stroke-width="1.2" points="498.5,-491 433.5,-491 433.5,-455 504.5,-455 504.5,-485 498.5,-491"/>
<polyline fill="none" stroke="#b08900" stroke-width="1.2" points="498.5,-491 498.5,-485 "/>
<polyline fill="none" stroke="#b08900" stroke-width="1.2" points="504.5,-485 498.5,-485 "/>
<text text-anchor="middle" x="469" y="-470.5" font-family="Helvetica,sans-Serif" font-size="10.00" fill="#5c4500">Blechdicke</text>
</g>
<!-- uri::https://example.org/tensile&#45;test/attr_thickness&#45;&gt;lit::Blechdicke::::de -->
<g id="edge2" class="edge">
<title>uri::https://example.org/tensile&#45;test/attr_thickness&#45;&gt;lit::Blechdicke::::de</title>
<path fill="none" stroke="#4a5568" stroke-width="1.2" d="M96.46,-329.04C117.12,-346.53 150.54,-372.85 183,-390 263.46,-432.51 368.51,-455.86 425.95,-466.26"/>
<polygon fill="#4a5568" stroke="#4a5568" stroke-width="1.2" points="425.55,-468.86 433.4,-467.59 426.47,-463.69 425.55,-468.86"/>
<text text-anchor="middle" x="239.5" y="-434.8" font-family="Helvetica,sans-Serif" font-size="9.00">rdfs:label</text>
</g>
<!-- lit::1.2::http://www.w3.org/2001/XMLSchema#double:: -->
<g id="node4" class="node">
<title>lit::1.2::http://www.w3.org/2001/XMLSchema#double::</title>
<polygon fill="#fff9db" stroke="#b08900" stroke-width="1.2" points="490,-622 442,-622 442,-586 496,-586 496,-616 490,-622"/>
<polyline fill="none" stroke="#b08900" stroke-width="1.2" points="490,-622 490,-616 "/>
<polyline fill="none" stroke="#b08900" stroke-width="1.2" points="496,-616 490,-616 "/>
<text text-anchor="middle" x="469" y="-601.5" font-family="Helvetica,sans-Serif" font-size="10.00" fill="#5c4500">1.2</text>
</g>
<!-- uri::https://example.org/tensile&#45;test/attr_thickness&#45;&gt;lit::1.2::http://www.w3.org/2001/XMLSchema#double:: -->
<g id="edge3" class="edge">
<title>uri::https://example.org/tensile&#45;test/attr_thickness&#45;&gt;lit::1.2::http://www.w3.org/2001/XMLSchema#double::</title>
<path fill="none" stroke="#4a5568" stroke-width="1.2" d="M80.38,-329.24C90.96,-369.49 121.69,-466.57 183,-520 256.17,-583.77 375.73,-599.17 433.97,-602.86"/>
<polygon fill="#4a5568" stroke="#4a5568" stroke-width="1.2" points="434.13,-605.5 441.77,-603.31 434.43,-600.26 434.13,-605.5"/>
<text text-anchor="middle" x="239.5" y="-578.8" font-family="Helvetica,sans-Serif" font-size="9.00">qudt:numericValue</text>
</g>
<!-- lit::Ausgangsblechdicke der Zugprobe vor dem Versuch::::de -->
<g id="node5" class="node">
<title>lit::Ausgangsblechdicke der Zugprobe vor dem Versuch::::de</title>
<polygon fill="#fff9db" stroke="#b08900" stroke-width="1.2" points="598.5,-101 333.5,-101 333.5,-65 604.5,-65 604.5,-95 598.5,-101"/>
<polyline fill="none" stroke="#b08900" stroke-width="1.2" points="598.5,-101 598.5,-95 "/>
<polyline fill="none" stroke="#b08900" stroke-width="1.2" points="604.5,-95 598.5,-95 "/>
<text text-anchor="middle" x="469" y="-80.5" font-family="Helvetica,sans-Serif" font-size="10.00" fill="#5c4500">Ausgangsblechdicke der Zugprobe vor dem Versuch</text>
</g>
<!-- uri::https://example.org/tensile&#45;test/attr_thickness&#45;&gt;lit::Ausgangsblechdicke der Zugprobe vor dem Versuch::::de -->
<g id="edge4" class="edge">
<title>uri::https://example.org/tensile&#45;test/attr_thickness&#45;&gt;lit::Ausgangsblechdicke der Zugprobe vor dem Versuch::::de</title>
<path fill="none" stroke="#4a5568" stroke-width="1.2" d="M85.78,-292.82C102.26,-263.76 138.17,-206.71 183,-173 229.94,-137.71 291.08,-116.03 344.69,-102.83"/>
<polygon fill="#4a5568" stroke="#4a5568" stroke-width="1.2" points="345.52,-105.33 352.2,-101.02 344.29,-100.22 345.52,-105.33"/>
<text text-anchor="middle" x="239.5" y="-175.8" font-family="Helvetica,sans-Serif" font-size="9.00">sdata:description</text>
</g>
<!-- lit::mm:::: -->
<g id="node6" class="node">
<title>lit::mm::::</title>
<polygon fill="#fff9db" stroke="#b08900" stroke-width="1.2" points="490,-36 442,-36 442,0 496,0 496,-30 490,-36"/>
<polyline fill="none" stroke="#b08900" stroke-width="1.2" points="490,-36 490,-30 "/>
<polyline fill="none" stroke="#b08900" stroke-width="1.2" points="496,-30 490,-30 "/>
<text text-anchor="middle" x="469" y="-15.5" font-family="Helvetica,sans-Serif" font-size="10.00" fill="#5c4500">mm</text>
</g>
<!-- uri::https://example.org/tensile&#45;test/attr_thickness&#45;&gt;lit::mm:::: -->
<g id="edge5" class="edge">
<title>uri::https://example.org/tensile&#45;test/attr_thickness&#45;&gt;lit::mm::::</title>
<path fill="none" stroke="#4a5568" stroke-width="1.2" d="M80.4,-292.79C91.03,-252.59 121.85,-155.62 183,-102 255.97,-38.01 375.63,-22.71 433.93,-19.09"/>
<polygon fill="#4a5568" stroke="#4a5568" stroke-width="1.2" points="434.4,-21.69 441.74,-18.65 434.1,-16.45 434.4,-21.69"/>
<text text-anchor="middle" x="239.5" y="-104.8" font-family="Helvetica,sans-Serif" font-size="9.00">sdata:unitSymbol</text>
</g>
<!-- uri::https://w3id.org/sdata/core/AttributeQuantityValue -->
<g id="node7" class="node">
<title>uri::https://w3id.org/sdata/core/AttributeQuantityValue</title>
<path fill="#f3e8ff" stroke="#7e57c2" stroke-width="1.2" d="M537,-426C537,-426 401,-426 401,-426 395,-426 389,-420 389,-414 389,-414 389,-402 389,-402 389,-396 395,-390 401,-390 401,-390 537,-390 537,-390 543,-390 549,-396 549,-402 549,-402 549,-414 549,-414 549,-420 543,-426 537,-426"/>
<text text-anchor="middle" x="469" y="-405.5" font-family="Helvetica,sans-Serif" font-size="10.00" fill="#4527a0">sdata:AttributeQuantityValue</text>
</g>
<!-- uri::https://example.org/tensile&#45;test/attr_thickness&#45;&gt;uri::https://w3id.org/sdata/core/AttributeQuantityValue -->
<g id="edge6" class="edge">
<title>uri::https://example.org/tensile&#45;test/attr_thickness&#45;&gt;uri::https://w3id.org/sdata/core/AttributeQuantityValue</title>
<path fill="none" stroke="#4a5568" stroke-width="1.2" d="M126.57,-328.71C144.3,-334.61 164.42,-340.95 183,-346 248.94,-363.91 324.55,-380.16 381.32,-391.53"/>
<polygon fill="#4a5568" stroke="#4a5568" stroke-width="1.2" points="380.98,-394.14 388.85,-393.03 382.01,-388.99 380.98,-394.14"/>
<text text-anchor="middle" x="239.5" y="-375.8" font-family="Helvetica,sans-Serif" font-size="9.00">rdf:type</text>
</g>
<!-- lit::Initial sheet thickness of the tensile specimen before testing::::en -->
<g id="node8" class="node">
<title>lit::Initial sheet thickness of the tensile specimen before testing::::en</title>
<polygon fill="#fff9db" stroke="#b08900" stroke-width="1.2" points="589.5,-361 342.5,-361 342.5,-325 595.5,-325 595.5,-355 589.5,-361"/>
<polyline fill="none" stroke="#b08900" stroke-width="1.2" points="589.5,-361 589.5,-355 "/>
<polyline fill="none" stroke="#b08900" stroke-width="1.2" points="595.5,-355 589.5,-355 "/>
<text text-anchor="middle" x="469" y="-340.5" font-family="Helvetica,sans-Serif" font-size="10.00" fill="#5c4500">Initial sheet thickness of the tensile specimen...</text>
</g>
<!-- uri::https://example.org/tensile&#45;test/attr_thickness&#45;&gt;lit::Initial sheet thickness of the tensile specimen before testing::::en -->
<g id="edge7" class="edge">
<title>uri::https://example.org/tensile&#45;test/attr_thickness&#45;&gt;lit::Initial sheet thickness of the tensile specimen before testing::::en</title>
<path fill="none" stroke="#4a5568" stroke-width="1.2" d="M126.85,-315.15C179.21,-319.43 263.03,-326.27 334.48,-332.1"/>
<polygon fill="#4a5568" stroke="#4a5568" stroke-width="1.2" points="334.55,-334.74 342.24,-332.73 334.98,-329.51 334.55,-334.74"/>
<text text-anchor="middle" x="239.5" y="-331.8" font-family="Helvetica,sans-Serif" font-size="9.00">sdata:description</text>
</g>
<!-- uri::http://qudt.org/vocab/unit/MilliM -->
<g id="node9" class="node">
<title>uri::http://qudt.org/vocab/unit/MilliM</title>
<path fill="#ffffff" stroke="#78909c" stroke-width="1.2" d="M492,-296C492,-296 446,-296 446,-296 440,-296 434,-290 434,-284 434,-284 434,-272 434,-272 434,-266 440,-260 446,-260 446,-260 492,-260 492,-260 498,-260 504,-266 504,-272 504,-272 504,-284 504,-284 504,-290 498,-296 492,-296"/>
<text text-anchor="middle" x="469" y="-275.5" font-family="Helvetica,sans-Serif" font-size="10.00" fill="#37474f">unit:MilliM</text>
</g>
<!-- uri::https://example.org/tensile&#45;test/attr_thickness&#45;&gt;uri::http://qudt.org/vocab/unit/MilliM -->
<g id="edge8" class="edge">
<title>uri::https://example.org/tensile&#45;test/attr_thickness&#45;&gt;uri::http://qudt.org/vocab/unit/MilliM</title>
<path fill="none" stroke="#4a5568" stroke-width="1.2" d="M126.85,-306.72C205.2,-300.12 353.96,-287.6 426.34,-281.51"/>
<polygon fill="#4a5568" stroke="#4a5568" stroke-width="1.2" points="426.69,-284.11 433.95,-280.87 426.25,-278.88 426.69,-284.11"/>
<text text-anchor="middle" x="239.5" y="-304.8" font-family="Helvetica,sans-Serif" font-size="9.00">qudt:unit</text>
</g>
<!-- lit::Sheet Thickness::::en -->
<g id="node10" class="node">
<title>lit::Sheet Thickness::::en</title>
<polygon fill="#fff9db" stroke="#b08900" stroke-width="1.2" points="512,-231 420,-231 420,-195 518,-195 518,-225 512,-231"/>
<polyline fill="none" stroke="#b08900" stroke-width="1.2" points="512,-231 512,-225 "/>
<polyline fill="none" stroke="#b08900" stroke-width="1.2" points="518,-225 512,-225 "/>
<text text-anchor="middle" x="469" y="-210.5" font-family="Helvetica,sans-Serif" font-size="10.00" fill="#5c4500">Sheet Thickness</text>
</g>
<!-- uri::https://example.org/tensile&#45;test/attr_thickness&#45;&gt;lit::Sheet Thickness::::en -->
<g id="edge9" class="edge">
<title>uri::https://example.org/tensile&#45;test/attr_thickness&#45;&gt;lit::Sheet Thickness::::en</title>
<path fill="none" stroke="#4a5568" stroke-width="1.2" d="M126.58,-293.32C144.31,-287.43 164.43,-281.08 183,-276 261.94,-254.42 354.71,-235 412.43,-223.59"/>
<polygon fill="#4a5568" stroke="#4a5568" stroke-width="1.2" points="413.14,-226.13 419.99,-222.11 412.13,-220.98 413.14,-226.13"/>
<text text-anchor="middle" x="239.5" y="-278.8" font-family="Helvetica,sans-Serif" font-size="9.00">rdfs:label</text>
</g>
<!-- lit::t:::: -->
<g id="node11" class="node">
<title>lit::t::::</title>
<polygon fill="#fff9db" stroke="#b08900" stroke-width="1.2" points="490,-166 442,-166 442,-130 496,-130 496,-160 490,-166"/>
<polyline fill="none" stroke="#b08900" stroke-width="1.2" points="490,-166 490,-160 "/>
<polyline fill="none" stroke="#b08900" stroke-width="1.2" points="496,-160 490,-160 "/>
<text text-anchor="middle" x="469" y="-145.5" font-family="Helvetica,sans-Serif" font-size="10.00" fill="#5c4500">t</text>
</g>
<!-- uri::https://example.org/tensile&#45;test/attr_thickness&#45;&gt;lit::t:::: -->
<g id="edge10" class="edge">
<title>uri::https://example.org/tensile&#45;test/attr_thickness&#45;&gt;lit::t::::</title>
<path fill="none" stroke="#4a5568" stroke-width="1.2" d="M96.94,-292.96C117.69,-275.78 150.94,-250.06 183,-233 267.5,-188.03 379.07,-163.62 434.19,-153.57"/>
<polygon fill="#4a5568" stroke="#4a5568" stroke-width="1.2" points="434.99,-156.09 441.91,-152.19 434.06,-150.93 434.99,-156.09"/>
<text text-anchor="middle" x="239.5" y="-235.8" font-family="Helvetica,sans-Serif" font-size="9.00">sdata:name</text>
</g>
<!-- uri::https://example.org/tensile&#45;test/dom_thickness_fuzzy -->
<g id="node12" class="node">
<title>uri::https://example.org/tensile&#45;test/dom_thickness_fuzzy</title>
<path fill="#e3f2fd" stroke="#1976d2" stroke-width="1.2" d="M132.5,-1142C132.5,-1142 17.5,-1142 17.5,-1142 11.5,-1142 5.5,-1136 5.5,-1130 5.5,-1130 5.5,-1118 5.5,-1118 5.5,-1112 11.5,-1106 17.5,-1106 17.5,-1106 132.5,-1106 132.5,-1106 138.5,-1106 144.5,-1112 144.5,-1118 144.5,-1118 144.5,-1130 144.5,-1130 144.5,-1136 138.5,-1142 132.5,-1142"/>
<text text-anchor="middle" x="75" y="-1121.5" font-family="Helvetica,sans-Serif" font-size="10.00" fill="#0d47a1">ex:dom_thickness_fuzzy</text>
</g>
<!-- lit::1.15::http://www.w3.org/2001/XMLSchema#double:: -->
<g id="node13" class="node">
<title>lit::1.15::http://www.w3.org/2001/XMLSchema#double::</title>
<polygon fill="#fff9db" stroke="#b08900" stroke-width="1.2" points="490,-1337 442,-1337 442,-1301 496,-1301 496,-1331 490,-1337"/>
<polyline fill="none" stroke="#b08900" stroke-width="1.2" points="490,-1337 490,-1331 "/>
<polyline fill="none" stroke="#b08900" stroke-width="1.2" points="496,-1331 490,-1331 "/>
<text text-anchor="middle" x="469" y="-1316.5" font-family="Helvetica,sans-Serif" font-size="10.00" fill="#5c4500">1.15</text>
</g>
<!-- uri::https://example.org/tensile&#45;test/dom_thickness_fuzzy&#45;&gt;lit::1.15::http://www.w3.org/2001/XMLSchema#double:: -->
<g id="edge11" class="edge">
<title>uri::https://example.org/tensile&#45;test/dom_thickness_fuzzy&#45;&gt;lit::1.15::http://www.w3.org/2001/XMLSchema#double::</title>
<path fill="none" stroke="#4a5568" stroke-width="1.2" d="M90.55,-1142.21C109.67,-1165.12 145.26,-1204.44 183,-1229 263.99,-1281.72 377.98,-1305.37 434.09,-1314.34"/>
<polygon fill="#4a5568" stroke="#4a5568" stroke-width="1.2" points="433.8,-1316.95 441.61,-1315.51 434.6,-1311.76 433.8,-1316.95"/>
<text text-anchor="middle" x="239.5" y="-1282.8" font-family="Helvetica,sans-Serif" font-size="9.00">sdata:fuzzyCoreLeft</text>
</g>
<!-- lit::Blechdicke 1.2 mm — weiche Toleranz für Simulation::::de -->
<g id="node14" class="node">
<title>lit::Blechdicke 1.2 mm — weiche Toleranz für Simulation::::de</title>
<polygon fill="#fff9db" stroke="#b08900" stroke-width="1.2" points="601.5,-1272 330.5,-1272 330.5,-1236 607.5,-1236 607.5,-1266 601.5,-1272"/>
<polyline fill="none" stroke="#b08900" stroke-width="1.2" points="601.5,-1272 601.5,-1266 "/>
<polyline fill="none" stroke="#b08900" stroke-width="1.2" points="607.5,-1266 601.5,-1266 "/>
<text text-anchor="middle" x="469" y="-1251.5" font-family="Helvetica,sans-Serif" font-size="10.00" fill="#5c4500">Blechdicke 1.2 mm — weiche Toleranz für Simulation</text>
</g>
<!-- uri::https://example.org/tensile&#45;test/dom_thickness_fuzzy&#45;&gt;lit::Blechdicke 1.2 mm — weiche Toleranz für Simulation::::de -->
<g id="edge12" class="edge">
<title>uri::https://example.org/tensile&#45;test/dom_thickness_fuzzy&#45;&gt;lit::Blechdicke 1.2 mm — weiche Toleranz für Simulation::::de</title>
<path fill="none" stroke="#4a5568" stroke-width="1.2" d="M109.1,-1142.12C129.93,-1153.09 157.58,-1166.86 183,-1177 244.74,-1201.62 317.06,-1221.05 373.4,-1234.24"/>
<polygon fill="#4a5568" stroke="#4a5568" stroke-width="1.2" points="372.99,-1236.84 380.89,-1235.98 374.18,-1231.73 372.99,-1236.84"/>
<text text-anchor="middle" x="239.5" y="-1214.8" font-family="Helvetica,sans-Serif" font-size="9.00">sdata:domainDescription</text>
</g>
<!-- lit::1.35::http://www.w3.org/2001/XMLSchema#double:: -->
<g id="node15" class="node">
<title>lit::1.35::http://www.w3.org/2001/XMLSchema#double::</title>
<polygon fill="#fff9db" stroke="#b08900" stroke-width="1.2" points="490,-1207 442,-1207 442,-1171 496,-1171 496,-1201 490,-1207"/>
<polyline fill="none" stroke="#b08900" stroke-width="1.2" points="490,-1207 490,-1201 "/>
<polyline fill="none" stroke="#b08900" stroke-width="1.2" points="496,-1201 490,-1201 "/>
<text text-anchor="middle" x="469" y="-1186.5" font-family="Helvetica,sans-Serif" font-size="10.00" fill="#5c4500">1.35</text>
</g>
<!-- uri::https://example.org/tensile&#45;test/dom_thickness_fuzzy&#45;&gt;lit::1.35::http://www.w3.org/2001/XMLSchema#double:: -->
<g id="edge13" class="edge">
<title>uri::https://example.org/tensile&#45;test/dom_thickness_fuzzy&#45;&gt;lit::1.35::http://www.w3.org/2001/XMLSchema#double::</title>
<path fill="none" stroke="#4a5568" stroke-width="1.2" d="M144.73,-1135.4C229.55,-1149.46 370.4,-1172.82 434.45,-1183.44"/>
<polygon fill="#4a5568" stroke="#4a5568" stroke-width="1.2" points="434.04,-1186.03 441.87,-1184.67 434.9,-1180.85 434.04,-1186.03"/>
<text text-anchor="middle" x="239.5" y="-1162.8" font-family="Helvetica,sans-Serif" font-size="9.00">sdata:fuzzyRight</text>
</g>
<!-- lit::1.05::http://www.w3.org/2001/XMLSchema#double:: -->
<g id="node16" class="node">
<title>lit::1.05::http://www.w3.org/2001/XMLSchema#double::</title>
<polygon fill="#fff9db" stroke="#b08900" stroke-width="1.2" points="490,-1142 442,-1142 442,-1106 496,-1106 496,-1136 490,-1142"/>
<polyline fill="none" stroke="#b08900" stroke-width="1.2" points="490,-1142 490,-1136 "/>
<polyline fill="none" stroke="#b08900" stroke-width="1.2" points="496,-1136 490,-1136 "/>
<text text-anchor="middle" x="469" y="-1121.5" font-family="Helvetica,sans-Serif" font-size="10.00" fill="#5c4500">1.05</text>
</g>
<!-- uri::https://example.org/tensile&#45;test/dom_thickness_fuzzy&#45;&gt;lit::1.05::http://www.w3.org/2001/XMLSchema#double:: -->
<g id="edge14" class="edge">
<title>uri::https://example.org/tensile&#45;test/dom_thickness_fuzzy&#45;&gt;lit::1.05::http://www.w3.org/2001/XMLSchema#double::</title>
<path fill="none" stroke="#4a5568" stroke-width="1.2" d="M144.73,-1124C229.38,-1124 369.83,-1124 434.06,-1124"/>
<polygon fill="#4a5568" stroke="#4a5568" stroke-width="1.2" points="434.37,-1126.63 441.87,-1124 434.37,-1121.38 434.37,-1126.63"/>
<text text-anchor="middle" x="239.5" y="-1126.8" font-family="Helvetica,sans-Serif" font-size="9.00">sdata:fuzzyLeft</text>
</g>
<!-- uri::https://w3id.org/sdata/core/TrapezoidalFuzzyDomain -->
<g id="node17" class="node">
<title>uri::https://w3id.org/sdata/core/TrapezoidalFuzzyDomain</title>
<path fill="#f3e8ff" stroke="#7e57c2" stroke-width="1.2" d="M542,-1077C542,-1077 396,-1077 396,-1077 390,-1077 384,-1071 384,-1065 384,-1065 384,-1053 384,-1053 384,-1047 390,-1041 396,-1041 396,-1041 542,-1041 542,-1041 548,-1041 554,-1047 554,-1053 554,-1053 554,-1065 554,-1065 554,-1071 548,-1077 542,-1077"/>
<text text-anchor="middle" x="469" y="-1056.5" font-family="Helvetica,sans-Serif" font-size="10.00" fill="#4527a0">sdata:TrapezoidalFuzzyDomain</text>
</g>
<!-- uri::https://example.org/tensile&#45;test/dom_thickness_fuzzy&#45;&gt;uri::https://w3id.org/sdata/core/TrapezoidalFuzzyDomain -->
<g id="edge15" class="edge">
<title>uri::https://example.org/tensile&#45;test/dom_thickness_fuzzy&#45;&gt;uri::https://w3id.org/sdata/core/TrapezoidalFuzzyDomain</title>
<path fill="none" stroke="#4a5568" stroke-width="1.2" d="M144.73,-1112.6C209.03,-1101.94 305.52,-1085.94 376.35,-1074.2"/>
<polygon fill="#4a5568" stroke="#4a5568" stroke-width="1.2" points="377.02,-1076.75 383.99,-1072.93 376.16,-1071.57 377.02,-1076.75"/>
<text text-anchor="middle" x="239.5" y="-1106.8" font-family="Helvetica,sans-Serif" font-size="9.00">rdf:type</text>
</g>
<!-- lit::1.25::http://www.w3.org/2001/XMLSchema#double:: -->
<g id="node18" class="node">
<title>lit::1.25::http://www.w3.org/2001/XMLSchema#double::</title>
<polygon fill="#fff9db" stroke="#b08900" stroke-width="1.2" points="490,-1012 442,-1012 442,-976 496,-976 496,-1006 490,-1012"/>
<polyline fill="none" stroke="#b08900" stroke-width="1.2" points="490,-1012 490,-1006 "/>
<polyline fill="none" stroke="#b08900" stroke-width="1.2" points="496,-1006 490,-1006 "/>
<text text-anchor="middle" x="469" y="-991.5" font-family="Helvetica,sans-Serif" font-size="10.00" fill="#5c4500">1.25</text>
</g>
<!-- uri::https://example.org/tensile&#45;test/dom_thickness_fuzzy&#45;&gt;lit::1.25::http://www.w3.org/2001/XMLSchema#double:: -->
<g id="edge16" class="edge">
<title>uri::https://example.org/tensile&#45;test/dom_thickness_fuzzy&#45;&gt;lit::1.25::http://www.w3.org/2001/XMLSchema#double::</title>
<path fill="none" stroke="#4a5568" stroke-width="1.2" d="M108.08,-1105.89C128.97,-1094.58 157.07,-1080.26 183,-1070 270.81,-1035.24 380.02,-1011.12 434.22,-1000.35"/>
<polygon fill="#4a5568" stroke="#4a5568" stroke-width="1.2" points="434.95,-1002.88 441.81,-998.86 433.94,-997.73 434.95,-1002.88"/>
<text text-anchor="middle" x="239.5" y="-1072.8" font-family="Helvetica,sans-Serif" font-size="9.00">sdata:fuzzyCoreRight</text>
</g>
<!-- lit::Sheet thickness 1.2 mm — soft tolerance for simulation::::en -->
<g id="node19" class="node">
<title>lit::Sheet thickness 1.2 mm — soft tolerance for simulation::::en</title>
<polygon fill="#fff9db" stroke="#b08900" stroke-width="1.2" points="595.5,-947 336.5,-947 336.5,-911 601.5,-911 601.5,-941 595.5,-947"/>
<polyline fill="none" stroke="#b08900" stroke-width="1.2" points="595.5,-947 595.5,-941 "/>
<polyline fill="none" stroke="#b08900" stroke-width="1.2" points="601.5,-941 595.5,-941 "/>
<text text-anchor="middle" x="469" y="-926.5" font-family="Helvetica,sans-Serif" font-size="10.00" fill="#5c4500">Sheet thickness 1.2 mm — soft tolerance for sim...</text>
</g>
<!-- uri::https://example.org/tensile&#45;test/dom_thickness_fuzzy&#45;&gt;lit::Sheet thickness 1.2 mm — soft tolerance for simulation::::en -->
<g id="edge17" class="edge">
<title>uri::https://example.org/tensile&#45;test/dom_thickness_fuzzy&#45;&gt;lit::Sheet thickness 1.2 mm — soft tolerance for simulation::::en</title>
<path fill="none" stroke="#4a5568" stroke-width="1.2" d="M90.08,-1105.72C108.96,-1082.3 144.59,-1041.78 183,-1017 234.96,-983.49 300.44,-962.1 355.53,-948.81"/>
<polygon fill="#4a5568" stroke="#4a5568" stroke-width="1.2" points="356.19,-951.35 362.88,-947.06 354.98,-946.24 356.19,-951.35"/>
<text text-anchor="middle" x="239.5" y="-1019.8" font-family="Helvetica,sans-Serif" font-size="9.00">sdata:domainDescription</text>
</g>
<!-- uri::https://example.org/tensile&#45;test/dom_thickness_normal -->
<g id="node20" class="node">
<title>uri::https://example.org/tensile&#45;test/dom_thickness_normal</title>
<path fill="#e3f2fd" stroke="#1976d2" stroke-width="1.2" d="M136.5,-752C136.5,-752 13.5,-752 13.5,-752 7.5,-752 1.5,-746 1.5,-740 1.5,-740 1.5,-728 1.5,-728 1.5,-722 7.5,-716 13.5,-716 13.5,-716 136.5,-716 136.5,-716 142.5,-716 148.5,-722 148.5,-728 148.5,-728 148.5,-740 148.5,-740 148.5,-746 142.5,-752 136.5,-752"/>
<text text-anchor="middle" x="75" y="-731.5" font-family="Helvetica,sans-Serif" font-size="10.00" fill="#0d47a1">ex:dom_thickness_normal</text>
</g>
<!-- uri::https://example.org/tensile&#45;test/dom_thickness_normal&#45;&gt;lit::1.2::http://www.w3.org/2001/XMLSchema#double:: -->
<g id="edge18" class="edge">
<title>uri::https://example.org/tensile&#45;test/dom_thickness_normal&#45;&gt;lit::1.2::http://www.w3.org/2001/XMLSchema#double::</title>
<path fill="none" stroke="#4a5568" stroke-width="1.2" d="M108.08,-715.89C128.97,-704.58 157.07,-690.26 183,-680 270.81,-645.24 380.02,-621.12 434.22,-610.35"/>
<polygon fill="#4a5568" stroke="#4a5568" stroke-width="1.2" points="434.95,-612.88 441.81,-608.86 433.94,-607.73 434.95,-612.88"/>
<text text-anchor="middle" x="239.5" y="-682.8" font-family="Helvetica,sans-Serif" font-size="9.00">sdata:mu</text>
</g>
<!-- lit::Sheet thickness normally distributed, μ=1.2 mm, σ=0.033 mm (3σ=0.1 mm)::::en -->
<g id="node21" class="node">
<title>lit::Sheet thickness normally distributed, μ=1.2 mm, σ=0.033 mm (3σ=0.1 mm)::::en</title>
<polygon fill="#fff9db" stroke="#b08900" stroke-width="1.2" points="597,-882 335,-882 335,-846 603,-846 603,-876 597,-882"/>
<polyline fill="none" stroke="#b08900" stroke-width="1.2" points="597,-882 597,-876 "/>
<polyline fill="none" stroke="#b08900" stroke-width="1.2" points="603,-876 597,-876 "/>
<text text-anchor="middle" x="469" y="-861.5" font-family="Helvetica,sans-Serif" font-size="10.00" fill="#5c4500">Sheet thickness normally distributed, μ=1.2 mm,...</text>
</g>
<!-- uri::https://example.org/tensile&#45;test/dom_thickness_normal&#45;&gt;lit::Sheet thickness normally distributed, μ=1.2 mm, σ=0.033 mm (3σ=0.1 mm)::::en -->
<g id="edge19" class="edge">
<title>uri::https://example.org/tensile&#45;test/dom_thickness_normal&#45;&gt;lit::Sheet thickness normally distributed, μ=1.2 mm, σ=0.033 mm (3σ=0.1 mm)::::en</title>
<path fill="none" stroke="#4a5568" stroke-width="1.2" d="M109.1,-752.12C129.93,-763.09 157.58,-776.86 183,-787 244.74,-811.62 317.06,-831.05 373.4,-844.24"/>
<polygon fill="#4a5568" stroke="#4a5568" stroke-width="1.2" points="372.99,-846.84 380.89,-845.98 374.18,-841.73 372.99,-846.84"/>
<text text-anchor="middle" x="239.5" y="-824.8" font-family="Helvetica,sans-Serif" font-size="9.00">sdata:domainDescription</text>
</g>
<!-- lit::0.033::http://www.w3.org/2001/XMLSchema#double:: -->
<g id="node22" class="node">
<title>lit::0.033::http://www.w3.org/2001/XMLSchema#double::</title>
<polygon fill="#fff9db" stroke="#b08900" stroke-width="1.2" points="490,-817 442,-817 442,-781 496,-781 496,-811 490,-817"/>
<polyline fill="none" stroke="#b08900" stroke-width="1.2" points="490,-817 490,-811 "/>
<polyline fill="none" stroke="#b08900" stroke-width="1.2" points="496,-811 490,-811 "/>
<text text-anchor="middle" x="469" y="-796.5" font-family="Helvetica,sans-Serif" font-size="10.00" fill="#5c4500">0.033</text>
</g>
<!-- uri::https://example.org/tensile&#45;test/dom_thickness_normal&#45;&gt;lit::0.033::http://www.w3.org/2001/XMLSchema#double:: -->
<g id="edge20" class="edge">
<title>uri::https://example.org/tensile&#45;test/dom_thickness_normal&#45;&gt;lit::0.033::http://www.w3.org/2001/XMLSchema#double::</title>
<path fill="none" stroke="#4a5568" stroke-width="1.2" d="M148.81,-746.07C233.75,-760.16 370.58,-782.85 433.87,-793.34"/>
<polygon fill="#4a5568" stroke="#4a5568" stroke-width="1.2" points="433.75,-795.98 441.58,-794.62 434.61,-790.8 433.75,-795.98"/>
<text text-anchor="middle" x="239.5" y="-772.8" font-family="Helvetica,sans-Serif" font-size="9.00">sdata:sigma</text>
</g>
<!-- uri::https://w3id.org/sdata/core/NormalDomain -->
<g id="node23" class="node">
<title>uri::https://w3id.org/sdata/core/NormalDomain</title>
<path fill="#f3e8ff" stroke="#7e57c2" stroke-width="1.2" d="M518.5,-752C518.5,-752 419.5,-752 419.5,-752 413.5,-752 407.5,-746 407.5,-740 407.5,-740 407.5,-728 407.5,-728 407.5,-722 413.5,-716 419.5,-716 419.5,-716 518.5,-716 518.5,-716 524.5,-716 530.5,-722 530.5,-728 530.5,-728 530.5,-740 530.5,-740 530.5,-746 524.5,-752 518.5,-752"/>
<text text-anchor="middle" x="469" y="-731.5" font-family="Helvetica,sans-Serif" font-size="10.00" fill="#4527a0">sdata:NormalDomain</text>
</g>
<!-- uri::https://example.org/tensile&#45;test/dom_thickness_normal&#45;&gt;uri::https://w3id.org/sdata/core/NormalDomain -->
<g id="edge21" class="edge">
<title>uri::https://example.org/tensile&#45;test/dom_thickness_normal&#45;&gt;uri::https://w3id.org/sdata/core/NormalDomain</title>
<path fill="none" stroke="#4a5568" stroke-width="1.2" d="M148.81,-734C220.7,-734 329.76,-734 399.95,-734"/>
<polygon fill="#4a5568" stroke="#4a5568" stroke-width="1.2" points="399.96,-736.63 407.46,-734 399.96,-731.38 399.96,-736.63"/>
<text text-anchor="middle" x="239.5" y="-736.8" font-family="Helvetica,sans-Serif" font-size="9.00">rdf:type</text>
</g>
<!-- lit::Blechdicke normalverteilt, μ=1.2 mm, σ=0.033 mm (3σ=0.1 mm)::::de -->
<g id="node24" class="node">
<title>lit::Blechdicke normalverteilt, μ=1.2 mm, σ=0.033 mm (3σ=0.1 mm)::::de</title>
<polygon fill="#fff9db" stroke="#b08900" stroke-width="1.2" points="603,-687 329,-687 329,-651 609,-651 609,-681 603,-687"/>
<polyline fill="none" stroke="#b08900" stroke-width="1.2" points="603,-687 603,-681 "/>
<polyline fill="none" stroke="#b08900" stroke-width="1.2" points="609,-681 603,-681 "/>
<text text-anchor="middle" x="469" y="-666.5" font-family="Helvetica,sans-Serif" font-size="10.00" fill="#5c4500">Blechdicke normalverteilt, μ=1.2 mm, σ=0.033 mm...</text>
</g>
<!-- uri::https://example.org/tensile&#45;test/dom_thickness_normal&#45;&gt;lit::Blechdicke normalverteilt, μ=1.2 mm, σ=0.033 mm (3σ=0.1 mm)::::de -->
<g id="edge22" class="edge">
<title>uri::https://example.org/tensile&#45;test/dom_thickness_normal&#45;&gt;lit::Blechdicke normalverteilt, μ=1.2 mm, σ=0.033 mm (3σ=0.1 mm)::::de</title>
<path fill="none" stroke="#4a5568" stroke-width="1.2" d="M148.81,-721.93C205.74,-712.49 285.97,-699.18 351.76,-688.27"/>
<polygon fill="#4a5568" stroke="#4a5568" stroke-width="1.2" points="352.33,-690.84 359.3,-687.02 351.47,-685.66 352.33,-690.84"/>
<text text-anchor="middle" x="239.5" y="-716.8" font-family="Helvetica,sans-Serif" font-size="9.00">sdata:domainDescription</text>
</g>
<!-- uri::https://example.org/tensile&#45;test/dom_thickness_interval -->
<g id="node25" class="node">
<title>uri::https://example.org/tensile&#45;test/dom_thickness_interval</title>
<path fill="#e3f2fd" stroke="#1976d2" stroke-width="1.2" d="M138,-1532C138,-1532 12,-1532 12,-1532 6,-1532 0,-1526 0,-1520 0,-1520 0,-1508 0,-1508 0,-1502 6,-1496 12,-1496 12,-1496 138,-1496 138,-1496 144,-1496 150,-1502 150,-1508 150,-1508 150,-1520 150,-1520 150,-1526 144,-1532 138,-1532"/>
<text text-anchor="middle" x="75" y="-1511.5" font-family="Helvetica,sans-Serif" font-size="10.00" fill="#0d47a1">ex:dom_thickness_interval</text>
</g>
<!-- lit::Blechdicke 1.2 ± 0.1 mm — harte Toleranzgrenzen::::de -->
<g id="node26" class="node">
<title>lit::Blechdicke 1.2 ± 0.1 mm — harte Toleranzgrenzen::::de</title>
<polygon fill="#fff9db" stroke="#b08900" stroke-width="1.2" points="595.5,-1662 336.5,-1662 336.5,-1626 601.5,-1626 601.5,-1656 595.5,-1662"/>
<polyline fill="none" stroke="#b08900" stroke-width="1.2" points="595.5,-1662 595.5,-1656 "/>
<polyline fill="none" stroke="#b08900" stroke-width="1.2" points="601.5,-1656 595.5,-1656 "/>
<text text-anchor="middle" x="469" y="-1641.5" font-family="Helvetica,sans-Serif" font-size="10.00" fill="#5c4500">Blechdicke 1.2 ± 0.1 mm — harte Toleranzgrenzen</text>
</g>
<!-- uri::https://example.org/tensile&#45;test/dom_thickness_interval&#45;&gt;lit::Blechdicke 1.2 ± 0.1 mm — harte Toleranzgrenzen::::de -->
<g id="edge23" class="edge">
<title>uri::https://example.org/tensile&#45;test/dom_thickness_interval&#45;&gt;lit::Blechdicke 1.2 ± 0.1 mm — harte Toleranzgrenzen::::de</title>
<path fill="none" stroke="#4a5568" stroke-width="1.2" d="M109.1,-1532.12C129.93,-1543.09 157.58,-1556.86 183,-1567 244.74,-1591.62 317.06,-1611.05 373.4,-1624.24"/>
<polygon fill="#4a5568" stroke="#4a5568" stroke-width="1.2" points="372.99,-1626.84 380.89,-1625.98 374.18,-1621.73 372.99,-1626.84"/>
<text text-anchor="middle" x="239.5" y="-1604.8" font-family="Helvetica,sans-Serif" font-size="9.00">sdata:domainDescription</text>
</g>
<!-- lit::Sheet thickness 1.2 ± 0.1 mm — hard tolerance limits::::en -->
<g id="node27" class="node">
<title>lit::Sheet thickness 1.2 ± 0.1 mm — hard tolerance limits::::en</title>
<polygon fill="#fff9db" stroke="#b08900" stroke-width="1.2" points="596.5,-1597 335.5,-1597 335.5,-1561 602.5,-1561 602.5,-1591 596.5,-1597"/>
<polyline fill="none" stroke="#b08900" stroke-width="1.2" points="596.5,-1597 596.5,-1591 "/>
<polyline fill="none" stroke="#b08900" stroke-width="1.2" points="602.5,-1591 596.5,-1591 "/>
<text text-anchor="middle" x="469" y="-1576.5" font-family="Helvetica,sans-Serif" font-size="10.00" fill="#5c4500">Sheet thickness 1.2 ± 0.1 mm — hard tolerance l...</text>
</g>
<!-- uri::https://example.org/tensile&#45;test/dom_thickness_interval&#45;&gt;lit::Sheet thickness 1.2 ± 0.1 mm — hard tolerance limits::::en -->
<g id="edge24" class="edge">
<title>uri::https://example.org/tensile&#45;test/dom_thickness_interval&#45;&gt;lit::Sheet thickness 1.2 ± 0.1 mm — hard tolerance limits::::en</title>
<path fill="none" stroke="#4a5568" stroke-width="1.2" d="M150.19,-1526.3C207.04,-1535.73 286.55,-1548.91 351.81,-1559.73"/>
<polygon fill="#4a5568" stroke="#4a5568" stroke-width="1.2" points="351.46,-1562.34 359.29,-1560.97 352.32,-1557.16 351.46,-1562.34"/>
<text text-anchor="middle" x="239.5" y="-1552.8" font-family="Helvetica,sans-Serif" font-size="9.00">sdata:domainDescription</text>
</g>
<!-- lit::1.1::http://www.w3.org/2001/XMLSchema#double:: -->
<g id="node28" class="node">
<title>lit::1.1::http://www.w3.org/2001/XMLSchema#double::</title>
<polygon fill="#fff9db" stroke="#b08900" stroke-width="1.2" points="490,-1532 442,-1532 442,-1496 496,-1496 496,-1526 490,-1532"/>
<polyline fill="none" stroke="#b08900" stroke-width="1.2" points="490,-1532 490,-1526 "/>
<polyline fill="none" stroke="#b08900" stroke-width="1.2" points="496,-1526 490,-1526 "/>
<text text-anchor="middle" x="469" y="-1511.5" font-family="Helvetica,sans-Serif" font-size="10.00" fill="#5c4500">1.1</text>
</g>
<!-- uri::https://example.org/tensile&#45;test/dom_thickness_interval&#45;&gt;lit::1.1::http://www.w3.org/2001/XMLSchema#double:: -->
<g id="edge25" class="edge">
<title>uri::https://example.org/tensile&#45;test/dom_thickness_interval&#45;&gt;lit::1.1::http://www.w3.org/2001/XMLSchema#double::</title>
<path fill="none" stroke="#4a5568" stroke-width="1.2" d="M150.19,-1514C235.34,-1514 371.29,-1514 434.12,-1514"/>
<polygon fill="#4a5568" stroke="#4a5568" stroke-width="1.2" points="434.28,-1516.63 441.78,-1514 434.28,-1511.38 434.28,-1516.63"/>
<text text-anchor="middle" x="239.5" y="-1516.8" font-family="Helvetica,sans-Serif" font-size="9.00">sdata:minValue</text>
</g>
<!-- uri::https://w3id.org/sdata/core/IntervalDomain -->
<g id="node29" class="node">
<title>uri::https://w3id.org/sdata/core/IntervalDomain</title>
<path fill="#f3e8ff" stroke="#7e57c2" stroke-width="1.2" d="M519,-1467C519,-1467 419,-1467 419,-1467 413,-1467 407,-1461 407,-1455 407,-1455 407,-1443 407,-1443 407,-1437 413,-1431 419,-1431 419,-1431 519,-1431 519,-1431 525,-1431 531,-1437 531,-1443 531,-1443 531,-1455 531,-1455 531,-1461 525,-1467 519,-1467"/>
<text text-anchor="middle" x="469" y="-1446.5" font-family="Helvetica,sans-Serif" font-size="10.00" fill="#4527a0">sdata:IntervalDomain</text>
</g>
<!-- uri::https://example.org/tensile&#45;test/dom_thickness_interval&#45;&gt;uri::https://w3id.org/sdata/core/IntervalDomain -->
<g id="edge26" class="edge">
<title>uri::https://example.org/tensile&#45;test/dom_thickness_interval&#45;&gt;uri::https://w3id.org/sdata/core/IntervalDomain</title>
<path fill="none" stroke="#4a5568" stroke-width="1.2" d="M150.19,-1501.7C221.94,-1489.8 329.75,-1471.92 399.51,-1460.36"/>
<polygon fill="#4a5568" stroke="#4a5568" stroke-width="1.2" points="400.01,-1462.94 406.98,-1459.12 399.15,-1457.76 400.01,-1462.94"/>
<text text-anchor="middle" x="239.5" y="-1496.8" font-family="Helvetica,sans-Serif" font-size="9.00">rdf:type</text>
</g>
<!-- lit::1.3::http://www.w3.org/2001/XMLSchema#double:: -->
<g id="node30" class="node">
<title>lit::1.3::http://www.w3.org/2001/XMLSchema#double::</title>
<polygon fill="#fff9db" stroke="#b08900" stroke-width="1.2" points="490,-1402 442,-1402 442,-1366 496,-1366 496,-1396 490,-1402"/>
<polyline fill="none" stroke="#b08900" stroke-width="1.2" points="490,-1402 490,-1396 "/>
<polyline fill="none" stroke="#b08900" stroke-width="1.2" points="496,-1396 490,-1396 "/>
<text text-anchor="middle" x="469" y="-1381.5" font-family="Helvetica,sans-Serif" font-size="10.00" fill="#5c4500">1.3</text>
</g>
<!-- uri::https://example.org/tensile&#45;test/dom_thickness_interval&#45;&gt;lit::1.3::http://www.w3.org/2001/XMLSchema#double:: -->
<g id="edge27" class="edge">
<title>uri::https://example.org/tensile&#45;test/dom_thickness_interval&#45;&gt;lit::1.3::http://www.w3.org/2001/XMLSchema#double::</title>
<path fill="none" stroke="#4a5568" stroke-width="1.2" d="M108.08,-1495.89C128.97,-1484.58 157.07,-1470.26 183,-1460 270.81,-1425.24 380.02,-1401.12 434.22,-1390.35"/>
<polygon fill="#4a5568" stroke="#4a5568" stroke-width="1.2" points="434.95,-1392.88 441.81,-1388.86 433.94,-1387.73 434.95,-1392.88"/>
<text text-anchor="middle" x="239.5" y="-1462.8" font-family="Helvetica,sans-Serif" font-size="9.00">sdata:maxValue</text>
</g>
</g>
</svg>
