<?xml version="1.0" encoding="UTF-8" standalone="no"?>
<!DOCTYPE svg PUBLIC "-//W3C//DTD SVG 1.1//EN"
 "http://www.w3.org/Graphics/SVG/1.1/DTD/svg11.dtd">
<!-- Generated by graphviz version 2.43.0 (0)
 -->
<!-- Pages: 1 -->
<svg width="659pt" height="1740pt"
 viewBox="0.00 0.00 659.40 1740.40" xmlns="http://www.w3.org/2000/svg" xmlns:xlink="http://www.w3.org/1999/xlink">
<g id="graph0" class="graph" transform="scale(1 1) rotate(0) translate(25.2 1715.2)">
<polygon fill="#fafbfc" stroke="transparent" points="-25.2,25.2 -25.2,-1715.2 634.2,-1715.2 634.2,25.2 -25.2,25.2"/>
<text text-anchor="middle" x="304.5" y="-1671.6" font-family="Helvetica,sans-Serif" font-size="18.00">TTL Graph: AttributeQuantityValue_sheetthickness.ttl</text>
<!-- uri::https://example.org/tensile&#45;test/dom_thickness_interval -->
<g id="node1" class="node">
<title>uri::https://example.org/tensile&#45;test/dom_thickness_interval</title>
<path fill="#e3f2fd" stroke="#1976d2" stroke-width="1.2" d="M138,-166C138,-166 12,-166 12,-166 6,-166 0,-160 0,-154 0,-154 0,-142 0,-142 0,-136 6,-130 12,-130 12,-130 138,-130 138,-130 144,-130 150,-136 150,-142 150,-142 150,-154 150,-154 150,-160 144,-166 138,-166"/>
<text text-anchor="middle" x="75" y="-145.5" font-family="Helvetica,sans-Serif" font-size="10.00" fill="#0d47a1">ex:dom_thickness_interval</text>
</g>
<!-- lit::1.1::http://www.w3.org/2001/XMLSchema#double:: -->
<g id="node2" class="node">
<title>lit::1.1::http://www.w3.org/2001/XMLSchema#double::</title>
<polygon fill="#fff9db" stroke="#b08900" stroke-width="1.2" points="490,-296 442,-296 442,-260 496,-260 496,-290 490,-296"/>
<polyline fill="none" stroke="#b08900" stroke-width="1.2" points="490,-296 490,-290 "/>
<polyline fill="none" stroke="#b08900" stroke-width="1.2" points="496,-290 490,-290 "/>
<text text-anchor="middle" x="469" y="-275.5" font-family="Helvetica,sans-Serif" font-size="10.00" fill="#5c4500">1.1</text>
</g>
<!-- uri::https://example.org/tensile&#45;test/dom_thickness_interval&#45;&gt;lit::1.1::http://www.w3.org/2001/XMLSchema#double:: -->
<g id="edge1" class="edge">
<title>uri::https://example.org/tensile&#45;test/dom_thickness_interval&#45;&gt;lit::1.1::http://www.w3.org/2001/XMLSchema#double::</title>
<path fill="none" stroke="#4a5568" stroke-width="1.2" d="M108.08,-166.11C128.97,-177.42 157.07,-191.74 183,-202 270.81,-236.76 380.02,-260.88 434.22,-271.65"/>
<polygon fill="#4a5568" stroke="#4a5568" stroke-width="1.2" points="433.94,-274.27 441.81,-273.14 434.95,-269.12 433.94,-274.27"/>
<text text-anchor="middle" x="239.5" y="-240.8" font-family="Helvetica,sans-Serif" font-size="9.00">sdata:minValue</text>
</g>
<!-- lit::1.3::http://www.w3.org/2001/XMLSchema#double:: -->
<g id="node3" class="node">
<title>lit::1.3::http://www.w3.org/2001/XMLSchema#double::</title>
<polygon fill="#fff9db" stroke="#b08900" stroke-width="1.2" points="490,-231 442,-231 442,-195 496,-195 496,-225 490,-231"/>
<polyline fill="none" stroke="#b08900" stroke-width="1.2" points="490,-231 490,-225 "/>
<polyline fill="none" stroke="#b08900" stroke-width="1.2" points="496,-225 490,-225 "/>
<text text-anchor="middle" x="469" y="-210.5" font-family="Helvetica,sans-Serif" font-size="10.00" fill="#5c4500">1.3</text>
</g>
<!-- uri::https://example.org/tensile&#45;test/dom_thickness_interval&#45;&gt;lit::1.3::http://www.w3.org/2001/XMLSchema#double:: -->
<g id="edge2" class="edge">
<title>uri::https://example.org/tensile&#45;test/dom_thickness_interval&#45;&gt;lit::1.3::http://www.w3.org/2001/XMLSchema#double::</title>
<path fill="none" stroke="#4a5568" stroke-width="1.2" d="M150.19,-160.3C235.34,-174.42 371.29,-196.96 434.12,-207.38"/>
<polygon fill="#4a5568" stroke="#4a5568" stroke-width="1.2" points="433.95,-210.01 441.78,-208.65 434.81,-204.84 433.95,-210.01"/>
<text text-anchor="middle" x="239.5" y="-187.8" font-family="Helvetica,sans-Serif" font-size="9.00">sdata:maxValue</text>
</g>
<!-- uri::https://w3id.org/sdata/core/IntervalDomain -->
<g id="node4" class="node">
<title>uri::https://w3id.org/sdata/core/IntervalDomain</title>
<path fill="#f3e8ff" stroke="#7e57c2" stroke-width="1.2" d="M519,-166C519,-166 419,-166 419,-166 413,-166 407,-160 407,-154 407,-154 407,-142 407,-142 407,-136 413,-130 419,-130 419,-130 519,-130 519,-130 525,-130 531,-136 531,-142 531,-142 531,-154 531,-154 531,-160 525,-166 519,-166"/>
<text text-anchor="middle" x="469" y="-145.5" font-family="Helvetica,sans-Serif" font-size="10.00" fill="#4527a0">sdata:IntervalDomain</text>
</g>
<!-- uri::https://example.org/tensile&#45;test/dom_thickness_interval&#45;&gt;uri::https://w3id.org/sdata/core/IntervalDomain -->
<g id="edge3" class="edge">
<title>uri::https://example.org/tensile&#45;test/dom_thickness_interval&#45;&gt;uri::https://w3id.org/sdata/core/IntervalDomain</title>
<path fill="none" stroke="#4a5568" stroke-width="1.2" d="M150.19,-148C221.79,-148 329.32,-148 399.08,-148"/>
<polygon fill="#4a5568" stroke="#4a5568" stroke-width="1.2" points="399.48,-150.63 406.98,-148 399.48,-145.38 399.48,-150.63"/>
<text text-anchor="middle" x="239.5" y="-150.8" font-family="Helvetica,sans-Serif" font-size="9.00">rdf:type</text>
</g>
<!-- lit::Blechdicke 1.2 ± 0.1 mm — harte Toleranzgrenzen::::de -->
<g id="node5" class="node">
<title>lit::Blechdicke 1.2 ± 0.1 mm — harte Toleranzgrenzen::::de</title>
<polygon fill="#fff9db" stroke="#b08900" stroke-width="1.2" points="595.5,-101 336.5,-101 336.5,-65 601.5,-65 601.5,-95 595.5,-101"/>
<polyline fill="none" stroke="#b08900" stroke-width="1.2" points="595.5,-101 595.5,-95 "/>
<polyline fill="none" stroke="#b08900" stroke-width="1.2" points="601.5,-95 595.5,-95 "/>
<text text-anchor="middle" x="469" y="-80.5" font-family="Helvetica,sans-Serif" font-size="10.00" fill="#5c4500">Blechdicke 1.2 ± 0.1 mm — harte Toleranzgrenzen</text>
</g>
<!-- uri::https://example.org/tensile&#45;test/dom_thickness_interval&#45;&gt;lit::Blechdicke 1.2 ± 0.1 mm — harte Toleranzgrenzen::::de -->
<g id="edge4" class="edge">
<title>uri::https://example.org/tensile&#45;test/dom_thickness_interval&#45;&gt;lit::Blechdicke 1.2 ± 0.1 mm — harte Toleranzgrenzen::::de</title>
<path fill="none" stroke="#4a5568" stroke-width="1.2" d="M150.19,-135.7C207.04,-126.27 286.55,-113.09 351.81,-102.27"/>
<polygon fill="#4a5568" stroke="#4a5568" stroke-width="1.2" points="352.32,-104.84 359.29,-101.03 351.46,-99.66 352.32,-104.84"/>
<text text-anchor="middle" x="239.5" y="-131.8" font-family="Helvetica,sans-Serif" font-size="9.00">sdata:domainDescription</text>
</g>
<!-- lit::Sheet thickness 1.2 ± 0.1 mm — hard tolerance limits::::en -->
<g id="node6" class="node">
<title>lit::Sheet thickness 1.2 ± 0.1 mm — hard tolerance limits::::en</title>
<polygon fill="#fff9db" stroke="#b08900" stroke-width="1.2" points="596.5,-36 335.5,-36 335.5,0 602.5,0 602.5,-30 596.5,-36"/>
<polyline fill="none" stroke="#b08900" stroke-width="1.2" points="596.5,-36 596.5,-30 "/>
<polyline fill="none" stroke="#b08900" stroke-width="1.2" points="602.5,-30 596.5,-30 "/>
<text text-anchor="middle" x="469" y="-15.5" font-family="Helvetica,sans-Serif" font-size="10.00" fill="#5c4500">Sheet thickness 1.2 ± 0.1 mm — hard tolerance l...</text>
</g>
<!-- uri::https://example.org/tensile&#45;test/dom_thickness_interval&#45;&gt;lit::Sheet thickness 1.2 ± 0.1 mm — hard tolerance limits::::en -->
<g id="edge5" class="edge">
<title>uri::https://example.org/tensile&#45;test/dom_thickness_interval&#45;&gt;lit::Sheet thickness 1.2 ± 0.1 mm — hard tolerance limits::::en</title>
<path fill="none" stroke="#4a5568" stroke-width="1.2" d="M109.1,-129.88C129.93,-118.91 157.58,-105.14 183,-95 244.74,-70.38 317.06,-50.95 373.4,-37.76"/>
<polygon fill="#4a5568" stroke="#4a5568" stroke-width="1.2" points="374.18,-40.27 380.89,-36.02 372.99,-35.16 374.18,-40.27"/>
<text text-anchor="middle" x="239.5" y="-97.8" font-family="Helvetica,sans-Serif" font-size="9.00">sdata:domainDescription</text>
</g>
<!-- uri::https://example.org/tensile&#45;test/attr_thickness -->
<g id="node7" class="node">
<title>uri::https://example.org/tensile&#45;test/attr_thickness</title>
<path fill="#e3f2fd" stroke="#1976d2" stroke-width="1.2" d="M114.5,-915C114.5,-915 35.5,-915 35.5,-915 29.5,-915 23.5,-909 23.5,-903 23.5,-903 23.5,-891 23.5,-891 23.5,-885 29.5,-879 35.5,-879 35.5,-879 114.5,-879 114.5,-879 120.5,-879 126.5,-885 126.5,-891 126.5,-891 126.5,-903 126.5,-903 126.5,-909 120.5,-915 114.5,-915"/>
<text text-anchor="middle" x="75" y="-894.5" font-family="Helvetica,sans-Serif" font-size="10.00" fill="#0d47a1">ex:attr_thickness</text>
</g>
<!-- lit::Initial sheet thickness of the tensile specimen before testing::::en -->
<g id="node8" class="node">
<title>lit::Initial sheet thickness of the tensile specimen before testing::::en</title>
<polygon fill="#fff9db" stroke="#b08900" stroke-width="1.2" points="589.5,-1207 342.5,-1207 342.5,-1171 595.5,-1171 595.5,-1201 589.5,-1207"/>
<polyline fill="none" stroke="#b08900" stroke-width="1.2" points="589.5,-1207 589.5,-1201 "/>
<polyline fill="none" stroke="#b08900" stroke-width="1.2" points="595.5,-1201 589.5,-1201 "/>
<text text-anchor="middle" x="469" y="-1186.5" font-family="Helvetica,sans-Serif" font-size="10.00" fill="#5c4500">Initial sheet thickness of the tensile specimen...</text>
</g>
<!-- uri::https://example.org/tensile&#45;test/attr_thickness&#45;&gt;lit::Initial sheet thickness of the tensile specimen before testing::::en -->
<g id="edge6" class="edge">
<title>uri::https://example.org/tensile&#45;test/attr_thickness&#45;&gt;lit::Initial sheet thickness of the tensile specimen before testing::::en</title>
<path fill="none" stroke="#4a5568" stroke-width="1.2" d="M80.43,-915.13C91.11,-955.13 122.03,-1051.65 183,-1105 225.08,-1141.83 282.62,-1162.53 334.99,-1174.15"/>
<polygon fill="#4a5568" stroke="#4a5568" stroke-width="1.2" points="334.46,-1176.72 342.34,-1175.73 335.56,-1171.59 334.46,-1176.72"/>
<text text-anchor="middle" x="239.5" y="-1165.8" font-family="Helvetica,sans-Serif" font-size="9.00">sdata:description</text>
</g>
<!-- lit::Sheet Thickness::::en -->
<g id="node9" class="node">
<title>lit::Sheet Thickness::::en</title>
<polygon fill="#fff9db" stroke="#b08900" stroke-width="1.2" points="512,-1142 420,-1142 420,-1106 518,-1106 518,-1136 512,-1142"/>
<polyline fill="none" stroke="#b08900" stroke-width="1.2" points="512,-1142 512,-1136 "/>
<polyline fill="none" stroke="#b08900" stroke-width="1.2" points="518,-1136 512,-1136 "/>
<text text-anchor="middle" x="469" y="-1121.5" font-family="Helvetica,sans-Serif" font-size="10.00" fill="#5c4500">Sheet Thickness</text>
</g>
<!-- uri::https://example.org/tensile&#45;test/attr_thickness&#45;&gt;lit::Sheet Thickness::::en -->
<g id="edge7" class="edge">
<title>uri::https://example.org/tensile&#45;test/attr_thickness&#45;&gt;lit::Sheet Thickness::::en</title>
<path fill="none" stroke="#4a5568" stroke-width="1.2" d="M85.81,-915.04C102.34,-943.89 138.32,-1000.53 183,-1034 251.8,-1085.54 350.9,-1108.06 412.28,-1117.54"/>
<polygon fill="#4a5568" stroke="#4a5568" stroke-width="1.2" points="412.14,-1120.17 419.94,-1118.69 412.91,-1114.98 412.14,-1120.17"/>
<text text-anchor="middle" x="239.5" y="-1090.8" font-family="Helvetica,sans-Serif" font-size="9.00">rdfs:label</text>
</g>
<!-- uri::http://qudt.org/vocab/unit/MilliM -->
<g id="node10" class="node">
<title>uri::http://qudt.org/vocab/unit/MilliM</title>
<path fill="#ffffff" stroke="#78909c" stroke-width="1.2" d="M492,-1077C492,-1077 446,-1077 446,-1077 440,-1077 434,-1071 434,-1065 434,-1065 434,-1053 434,-1053 434,-1047 440,-1041 446,-1041 446,-1041 492,-1041 492,-1041 498,-1041 504,-1047 504,-1053 504,-1053 504,-1065 504,-1065 504,-1071 498,-1077 492,-1077"/>
<text text-anchor="middle" x="469" y="-1056.5" font-family="Helvetica,sans-Serif" font-size="10.00" fill="#37474f">unit:MilliM</text>
</g>
<!-- uri::https://example.org/tensile&#45;test/attr_thickness&#45;&gt;uri::http://qudt.org/vocab/unit/MilliM -->
<g id="edge8" class="edge">
<title>uri::https://example.org/tensile&#45;test/attr_thickness&#45;&gt;uri::http://qudt.org/vocab/unit/MilliM</title>
<path fill="none" stroke="#4a5568" stroke-width="1.2" d="M97.38,-915.11C118.18,-932.06 151.23,-957.22 183,-974 263.83,-1016.7 369.18,-1040.99 426.46,-1051.92"/>
<polygon fill="#4a5568" stroke="#4a5568" stroke-width="1.2" points="426.03,-1054.51 433.88,-1053.31 427,-1049.35 426.03,-1054.51"/>
<text text-anchor="middle" x="239.5" y="-1019.8" font-family="Helvetica,sans-Serif" font-size="9.00">qudt:unit</text>
</g>
<!-- uri::https://w3id.org/sdata/core/AttributeQuantityValue -->
<g id="node11" class="node">
<title>uri::https://w3id.org/sdata/core/AttributeQuantityValue</title>
<path fill="#f3e8ff" stroke="#7e57c2" stroke-width="1.2" d="M537,-1012C537,-1012 401,-1012 401,-1012 395,-1012 389,-1006 389,-1000 389,-1000 389,-988 389,-988 389,-982 395,-976 401,-976 401,-976 537,-976 537,-976 543,-976 549,-982 549,-988 549,-988 549,-1000 549,-1000 549,-1006 543,-1012 537,-1012"/>
<text text-anchor="middle" x="469" y="-991.5" font-family="Helvetica,sans-Serif" font-size="10.00" fill="#4527a0">sdata:AttributeQuantityValue</text>
</g>
<!-- uri::https://example.org/tensile&#45;test/attr_thickness&#45;&gt;uri::https://w3id.org/sdata/core/AttributeQuantityValue -->
<g id="edge9" class="edge">
<title>uri::https://example.org/tensile&#45;test/attr_thickness&#45;&gt;uri::https://w3id.org/sdata/core/AttributeQuantityValue</title>
<path fill="none" stroke="#4a5568" stroke-width="1.2" d="M126.61,-914.11C144.35,-919.83 164.46,-926.02 183,-931 249.04,-948.75 324.64,-965.29 381.38,-976.97"/>
<polygon fill="#4a5568" stroke="#4a5568" stroke-width="1.2" points="381.03,-979.58 388.91,-978.51 382.09,-974.43 381.03,-979.58"/>
<text text-anchor="middle" x="239.5" y="-959.8" font-family="Helvetica,sans-Serif" font-size="9.00">rdf:type</text>
</g>
<!-- lit::float:::: -->
<g id="node12" class="node">
<title>lit::float::::</title>
<polygon fill="#fff9db" stroke="#b08900" stroke-width="1.2" points="490,-947 442,-947 442,-911 496,-911 496,-941 490,-947"/>
<polyline fill="none" stroke="#b08900" stroke-width="1.2" points="490,-947 490,-941 "/>
<polyline fill="none" stroke="#b08900" stroke-width="1.2" points="496,-941 490,-941 "/>
<text text-anchor="middle" x="469" y="-926.5" font-family="Helvetica,sans-Serif" font-size="10.00" fill="#5c4500">float</text>
</g>
<!-- uri::https://example.org/tensile&#45;test/attr_thickness&#45;&gt;lit::float:::: -->
<g id="edge10" class="edge">
<title>uri::https://example.org/tensile&#45;test/attr_thickness&#45;&gt;lit::float::::</title>
<path fill="none" stroke="#4a5568" stroke-width="1.2" d="M126.85,-901.15C208.23,-907.79 365.58,-920.64 434.4,-926.26"/>
<polygon fill="#4a5568" stroke="#4a5568" stroke-width="1.2" points="434.26,-928.88 441.95,-926.87 434.69,-923.65 434.26,-928.88"/>
<text text-anchor="middle" x="239.5" y="-916.8" font-family="Helvetica,sans-Serif" font-size="9.00">sdata:dtype</text>
</g>
<!-- lit::Blechdicke::::de -->
<g id="node13" class="node">
<title>lit::Blechdicke::::de</title>
<polygon fill="#fff9db" stroke="#b08900" stroke-width="1.2" points="498.5,-882 433.5,-882 433.5,-846 504.5,-846 504.5,-876 498.5,-882"/>
<polyline fill="none" stroke="#b08900" stroke-width="1.2" points="498.5,-882 498.5,-876 "/>
<polyline fill="none" stroke="#b08900" stroke-width="1.2" points="504.5,-876 498.5,-876 "/>
<text text-anchor="middle" x="469" y="-861.5" font-family="Helvetica,sans-Serif" font-size="10.00" fill="#5c4500">Blechdicke</text>
</g>
<!-- uri::https://example.org/tensile&#45;test/attr_thickness&#45;&gt;lit::Blechdicke::::de -->
<g id="edge11" class="edge">
<title>uri::https://example.org/tensile&#45;test/attr_thickness&#45;&gt;lit::Blechdicke::::de</title>
<path fill="none" stroke="#4a5568" stroke-width="1.2" d="M126.85,-892.72C205,-886.14 353.2,-873.66 425.79,-867.55"/>
<polygon fill="#4a5568" stroke="#4a5568" stroke-width="1.2" points="426.16,-870.16 433.42,-866.91 425.72,-864.92 426.16,-870.16"/>
<text text-anchor="middle" x="239.5" y="-889.8" font-family="Helvetica,sans-Serif" font-size="9.00">rdfs:label</text>
</g>
<!-- lit::Ausgangsblechdicke der Zugprobe vor dem Versuch::::de -->
<g id="node14" class="node">
<title>lit::Ausgangsblechdicke der Zugprobe vor dem Versuch::::de</title>
<polygon fill="#fff9db" stroke="#b08900" stroke-width="1.2" points="598.5,-817 333.5,-817 333.5,-781 604.5,-781 604.5,-811 598.5,-817"/>
<polyline fill="none" stroke="#b08900" stroke-width="1.2" points="598.5,-817 598.5,-811 "/>
<polyline fill="none" stroke="#b08900" stroke-width="1.2" points="604.5,-811 598.5,-811 "/>
<text text-anchor="middle" x="469" y="-796.5" font-family="Helvetica,sans-Serif" font-size="10.00" fill="#5c4500">Ausgangsblechdicke der Zugprobe vor dem Versuch</text>
</g>
<!-- uri::https://example.org/tensile&#45;test/attr_thickness&#45;&gt;lit::Ausgangsblechdicke der Zugprobe vor dem Versuch::::de -->
<g id="edge12" class="edge">
<title>uri::https://example.org/tensile&#45;test/attr_thickness&#45;&gt;lit::Ausgangsblechdicke der Zugprobe vor dem Versuch::::de</title>
<path fill="none" stroke="#4a5568" stroke-width="1.2" d="M125.73,-879C143.65,-872.85 164.11,-866.22 183,-861 242.67,-844.53 310.34,-829.65 364.77,-818.6"/>
<polygon fill="#4a5568" stroke="#4a5568" stroke-width="1.2" points="365.53,-821.12 372.36,-817.06 364.49,-815.98 365.53,-821.12"/>
<text text-anchor="middle" x="239.5" y="-863.8" font-family="Helvetica,sans-Serif" font-size="9.00">sdata:description</text>
</g>
<!-- lit::mm:::: -->
<g id="node15" class="node">
<title>lit::mm::::</title>
<polygon fill="#fff9db" stroke="#b08900" stroke-width="1.2" points="490,-752 442,-752 442,-716 496,-716 496,-746 490,-752"/>
<polyline fill="none" stroke="#b08900" stroke-width="1.2" points="490,-752 490,-746 "/>
<polyline fill="none" stroke="#b08900" stroke-width="1.2" points="496,-746 490,-746 "/>
<text text-anchor="middle" x="469" y="-731.5" font-family="Helvetica,sans-Serif" font-size="10.00" fill="#5c4500">mm</text>
</g>
<!-- uri::https://example.org/tensile&#45;test/attr_thickness&#45;&gt;lit::mm:::: -->
<g id="edge13" class="edge">
<title>uri::https://example.org/tensile&#45;test/attr_thickness&#45;&gt;lit::mm::::</title>
<path fill="none" stroke="#4a5568" stroke-width="1.2" d="M96.4,-878.67C117.01,-860.91 150.39,-834.23 183,-817 267.48,-772.38 379.06,-748.86 434.19,-739.28"/>
<polygon fill="#4a5568" stroke="#4a5568" stroke-width="1.2" points="434.95,-741.81 441.9,-737.96 434.07,-736.63 434.95,-741.81"/>
<text text-anchor="middle" x="239.5" y="-819.8" font-family="Helvetica,sans-Serif" font-size="9.00">sdata:unitSymbol</text>
</g>
<!-- lit::t:::: -->
<g id="node16" class="node">
<title>lit::t::::</title>
<polygon fill="#fff9db" stroke="#b08900" stroke-width="1.2" points="490,-687 442,-687 442,-651 496,-651 496,-681 490,-687"/>
<polyline fill="none" stroke="#b08900" stroke-width="1.2" points="490,-687 490,-681 "/>
<polyline fill="none" stroke="#b08900" stroke-width="1.2" points="496,-681 490,-681 "/>
<text text-anchor="middle" x="469" y="-666.5" font-family="Helvetica,sans-Serif" font-size="10.00" fill="#5c4500">t</text>
</g>
<!-- uri::https://example.org/tensile&#45;test/attr_thickness&#45;&gt;lit::t:::: -->
<g id="edge14" class="edge">
<title>uri::https://example.org/tensile&#45;test/attr_thickness&#45;&gt;lit::t::::</title>
<path fill="none" stroke="#4a5568" stroke-width="1.2" d="M85.38,-878.94C101.54,-849.47 137.33,-790.95 183,-757 260.8,-699.17 377.21,-678.86 434.16,-672.12"/>
<polygon fill="#4a5568" stroke="#4a5568" stroke-width="1.2" points="434.64,-674.71 441.8,-671.26 434.05,-669.49 434.64,-674.71"/>
<text text-anchor="middle" x="239.5" y="-759.8" font-family="Helvetica,sans-Serif" font-size="9.00">sdata:name</text>
</g>
<!-- lit::1.2::http://www.w3.org/2001/XMLSchema#double:: -->
<g id="node17" class="node">
<title>lit::1.2::http://www.w3.org/2001/XMLSchema#double::</title>
<polygon fill="#fff9db" stroke="#b08900" stroke-width="1.2" points="490,-622 442,-622 442,-586 496,-586 496,-616 490,-622"/>
<polyline fill="none" stroke="#b08900" stroke-width="1.2" points="490,-622 490,-616 "/>
<polyline fill="none" stroke="#b08900" stroke-width="1.2" points="496,-616 490,-616 "/>
<text text-anchor="middle" x="469" y="-601.5" font-family="Helvetica,sans-Serif" font-size="10.00" fill="#5c4500">1.2</text>
</g>
<!-- uri::https://example.org/tensile&#45;test/attr_thickness&#45;&gt;lit::1.2::http://www.w3.org/2001/XMLSchema#double:: -->
<g id="edge15" class="edge">
<title>uri::https://example.org/tensile&#45;test/attr_thickness&#45;&gt;lit::1.2::http://www.w3.org/2001/XMLSchema#double::</title>
<path fill="none" stroke="#4a5568" stroke-width="1.2" d="M80.2,-878.84C90.5,-838.28 120.85,-739.71 183,-686 256.3,-622.66 375.8,-608.13 434,-604.88"/>
<polygon fill="#4a5568" stroke="#4a5568" stroke-width="1.2" points="434.43,-607.49 441.79,-604.49 434.17,-602.24 434.43,-607.49"/>
<text text-anchor="middle" x="239.5" y="-688.8" font-family="Helvetica,sans-Serif" font-size="9.00">qudt:numericValue</text>
</g>
<!-- uri::https://example.org/tensile&#45;test/dom_thickness_fuzzy -->
<g id="node18" class="node">
<title>uri::https://example.org/tensile&#45;test/dom_thickness_fuzzy</title>
<path fill="#e3f2fd" stroke="#1976d2" stroke-width="1.2" d="M132.5,-1467C132.5,-1467 17.5,-1467 17.5,-1467 11.5,-1467 5.5,-1461 5.5,-1455 5.5,-1455 5.5,-1443 5.5,-1443 5.5,-1437 11.5,-1431 17.5,-1431 17.5,-1431 132.5,-1431 132.5,-1431 138.5,-1431 144.5,-1437 144.5,-1443 144.5,-1443 144.5,-1455 144.5,-1455 144.5,-1461 138.5,-1467 132.5,-1467"/>
<text text-anchor="middle" x="75" y="-1446.5" font-family="Helvetica,sans-Serif" font-size="10.00" fill="#0d47a1">ex:dom_thickness_fuzzy</text>
</g>
<!-- lit::1.15::http://www.w3.org/2001/XMLSchema#double:: -->
<g id="node19" class="node">
<title>lit::1.15::http://www.w3.org/2001/XMLSchema#double::</title>
<polygon fill="#fff9db" stroke="#b08900" stroke-width="1.2" points="490,-1662 442,-1662 442,-1626 496,-1626 496,-1656 490,-1662"/>
<polyline fill="none" stroke="#b08900" stroke-width="1.2" points="490,-1662 490,-1656 "/>
<polyline fill="none" stroke="#b08900" stroke-width="1.2" points="496,-1656 490,-1656 "/>
<text text-anchor="middle" x="469" y="-1641.5" font-family="Helvetica,sans-Serif" font-size="10.00" fill="#5c4500">1.15</text>
</g>
<!-- uri::https://example.org/tensile&#45;test/dom_thickness_fuzzy&#45;&gt;lit::1.15::http://www.w3.org/2001/XMLSchema#double:: -->
<g id="edge16" class="edge">
<title>uri::https://example.org/tensile&#45;test/dom_thickness_fuzzy&#45;&gt;lit::1.15::http://www.w3.org/2001/XMLSchema#double::</title>
<path fill="none" stroke="#4a5568" stroke-width="1.2" d="M90.55,-1467.21C109.67,-1490.12 145.26,-1529.44 183,-1554 263.99,-1606.72 377.98,-1630.37 434.09,-1639.34"/>
<polygon fill="#4a5568" stroke="#4a5568" stroke-width="1.2" points="433.8,-1641.95 441.61,-1640.51 434.6,-1636.76 433.8,-1641.95"/>
<text text-anchor="middle" x="239.5" y="-1607.8" font-family="Helvetica,sans-Serif" font-size="9.00">sdata:fuzzyCoreLeft</text>
</g>
<!-- lit::Sheet thickness 1.2 mm — soft tolerance for simulation::::en -->
<g id="node20" class="node">
<title>lit::Sheet thickness 1.2 mm — soft tolerance for simulation::::en</title>
<polygon fill="#fff9db" stroke="#b08900" stroke-width="1.2" points="595.5,-1597 336.5,-1597 336.5,-1561 601.5,-1561 601.5,-1591 595.5,-1597"/>
<polyline fill="none" stroke="#b08900" stroke-width="1.2" points="595.5,-1597 595.5,-1591 "/>
<polyline fill="none" stroke="#b08900" stroke-width="1.2" points="601.5,-1591 595.5,-1591 "/>
<text text-anchor="middle" x="469" y="-1576.5" font-family="Helvetica,sans-Serif" font-size="10.00" fill="#5c4500">Sheet thickness 1.2 mm — soft tolerance for sim...</text>
</g>
<!-- uri::https://example.org/tensile&#45;test/dom_thickness_fuzzy&#45;&gt;lit::Sheet thickness 1.2 mm — soft tolerance for simulation::::en -->
<g id="edge17" class="edge">
<title>uri::https://example.org/tensile&#45;test/dom_thickness_fuzzy&#45;&gt;lit::Sheet thickness 1.2 mm — soft tolerance for simulation::::en</title>
<path fill="none" stroke="#4a5568" stroke-width="1.2" d="M109.1,-1467.12C129.93,-1478.09 157.58,-1491.86 183,-1502 244.74,-1526.62 317.06,-1546.05 373.4,-1559.24"/>
<polygon fill="#4a5568" stroke="#4a5568" stroke-width="1.2" points="372.99,-1561.84 380.89,-1560.98 374.18,-1556.73 372.99,-1561.84"/>
<text text-anchor="middle" x="239.5" y="-1539.8" font-family="Helvetica,sans-Serif" font-size="9.00">sdata:domainDescription</text>
</g>
<!-- lit::1.35::http://www.w3.org/2001/XMLSchema#double:: -->
<g id="node21" class="node">
<title>lit::1.35::http://www.w3.org/2001/XMLSchema#double::</title>
<polygon fill="#fff9db" stroke="#b08900" stroke-width="1.2" points="490,-1532 442,-1532 442,-1496 496,-1496 496,-1526 490,-1532"/>
<polyline fill="none" stroke="#b08900" stroke-width="1.2" points="490,-1532 490,-1526 "/>
<polyline fill="none" stroke="#b08900" stroke-width="1.2" points="496,-1526 490,-1526 "/>
<text text-anchor="middle" x="469" y="-1511.5" font-family="Helvetica,sans-Serif" font-size="10.00" fill="#5c4500">1.35</text>
</g>
<!-- uri::https://example.org/tensile&#45;test/dom_thickness_fuzzy&#45;&gt;lit::1.35::http://www.w3.org/2001/XMLSchema#double:: -->
<g id="edge18" class="edge">
<title>uri::https://example.org/tensile&#45;test/dom_thickness_fuzzy&#45;&gt;lit::1.35::http://www.w3.org/2001/XMLSchema#double::</title>
<path fill="none" stroke="#4a5568" stroke-width="1.2" d="M144.73,-1460.4C229.55,-1474.46 370.4,-1497.82 434.45,-1508.44"/>
<polygon fill="#4a5568" stroke="#4a5568" stroke-width="1.2" points="434.04,-1511.03 441.87,-1509.67 434.9,-1505.85 434.04,-1511.03"/>
<text text-anchor="middle" x="239.5" y="-1487.8" font-family="Helvetica,sans-Serif" font-size="9.00">sdata:fuzzyRight</text>
</g>
<!-- lit::1.05::http://www.w3.org/2001/XMLSchema#double:: -->
<g id="node22" class="node">
<title>lit::1.05::http://www.w3.org/2001/XMLSchema#double::</title>
<polygon fill="#fff9db" stroke="#b08900" stroke-width="1.2" points="490,-1467 442,-1467 442,-1431 496,-1431 496,-1461 490,-1467"/>
<polyline fill="none" stroke="#b08900" stroke-width="1.2" points="490,-1467 490,-1461 "/>
<polyline fill="none" stroke="#b08900" stroke-width="1.2" points="496,-1461 490,-1461 "/>
<text text-anchor="middle" x="469" y="-1446.5" font-family="Helvetica,sans-Serif" font-size="10.00" fill="#5c4500">1.05</text>
</g>
<!-- uri::https://example.org/tensile&#45;test/dom_thickness_fuzzy&#45;&gt;lit::1.05::http://www.w3.org/2001/XMLSchema#double:: -->
<g id="edge19" class="edge">
<title>uri::https://example.org/tensile&#45;test/dom_thickness_fuzzy&#45;&gt;lit::1.05::http://www.w3.org/2001/XMLSchema#double::</title>
<path fill="none" stroke="#4a5568" stroke-width="1.2" d="M144.73,-1449C229.38,-1449 369.83,-1449 434.06,-1449"/>
<polygon fill="#4a5568" stroke="#4a5568" stroke-width="1.2" points="434.37,-1451.63 441.87,-1449 434.37,-1446.38 434.37,-1451.63"/>
<text text-anchor="middle" x="239.5" y="-1451.8" font-family="Helvetica,sans-Serif" font-size="9.00">sdata:fuzzyLeft</text>
</g>
<!-- lit::Blechdicke 1.2 mm — weiche Toleranz für Simulation::::de -->
<g id="node23" class="node">
<title>lit::Blechdicke 1.2 mm — weiche Toleranz für Simulation::::de</title>
<polygon fill="#fff9db" stroke="#b08900" stroke-width="1.2" points="601.5,-1402 330.5,-1402 330.5,-1366 607.5,-1366 607.5,-1396 601.5,-1402"/>
<polyline fill="none" stroke="#b08900" stroke-width="1.2" points="601.5,-1402 601.5,-1396 "/>
<polyline fill="none" stroke="#b08900" stroke-width="1.2" points="607.5,-1396 601.5,-1396 "/>
<text text-anchor="middle" x="469" y="-1381.5" font-family="Helvetica,sans-Serif" font-size="10.00" fill="#5c4500">Blechdicke 1.2 mm — weiche Toleranz für Simulation</text>
</g>
<!-- uri::https://example.org/tensile&#45;test/dom_thickness_fuzzy&#45;&gt;lit::Blechdicke 1.2 mm — weiche Toleranz für Simulation::::de -->
<g id="edge20" class="edge">
<title>uri::https://example.org/tensile&#45;test/dom_thickness_fuzzy&#45;&gt;lit::Blechdicke 1.2 mm — weiche Toleranz für Simulation::::de</title>
<path fill="none" stroke="#4a5568" stroke-width="1.2" d="M144.73,-1437.6C201.82,-1428.14 284.28,-1414.46 351.63,-1403.3"/>
<polygon fill="#4a5568" stroke="#4a5568" stroke-width="1.2" points="352.38,-1405.83 359.35,-1402.02 351.52,-1400.65 352.38,-1405.83"/>
<text text-anchor="middle" x="239.5" y="-1431.8" font-family="Helvetica,sans-Serif" font-size="9.00">sdata:domainDescription</text>
</g>
<!-- lit::1.25::http://www.w3.org/2001/XMLSchema#double:: -->
<g id="node24" class="node">
<title>lit::1.25::http://www.w3.org/2001/XMLSchema#double::</title>
<polygon fill="#fff9db" stroke="#b08900" stroke-width="1.2" points="490,-1337 442,-1337 442,-1301 496,-1301 496,-1331 490,-1337"/>
<polyline fill="none" stroke="#b08900" stroke-width="1.2" points="490,-1337 490,-1331 "/>
<polyline fill="none" stroke="#b08900" stroke-width="1.2" points="496,-1331 490,-1331 "/>
<text text-anchor="middle" x="469" y="-1316.5" font-family="Helvetica,sans-Serif" font-size="10.00" fill="#5c4500">1.25</text>
</g>
<!-- uri::https://example.org/tensile&#45;test/dom_thickness_fuzzy&#45;&gt;lit::1.25::http://www.w3.org/2001/XMLSchema#double:: -->
<g id="edge21" class="edge">
<title>uri::https://example.org/tensile&#45;test/dom_thickness_fuzzy&#45;&gt;lit::1.25::http://www.w3.org/2001/XMLSchema#double::</title>
<path fill="none" stroke="#4a5568" stroke-width="1.2" d="M108.08,-1430.89C128.97,-1419.58 157.07,-1405.26 183,-1395 270.81,-1360.24 380.02,-1336.12 434.22,-1325.35"/>
<polygon fill="#4a5568" stroke="#4a5568" stroke-width="1.2" points="434.95,-1327.88 441.81,-1323.86 433.94,-1322.73 434.95,-1327.88"/>
<text text-anchor="middle" x="239.5" y="-1397.8" font-family="Helvetica,sans-Serif" font-size="9.00">sdata:fuzzyCoreRight</text>
</g>
<!-- uri::https://w3id.org/sdata/core/TrapezoidalFuzzyDomain -->
<g id="node25" class="node">
<title>uri::https://w3id.org/sdata/core/TrapezoidalFuzzyDomain</title>
<path fill="#f3e8ff" stroke="#7e57c2" stroke-width="1.2" d="M542,-1272C542,-1272 396,-1272 396,-1272 390,-1272 384,-1266 384,-1260 384,-1260 384,-1248 384,-1248 384,-1242 390,-1236 396,-1236 396,-1236 542,-1236 542,-1236 548,-1236 554,-1242 554,-1248 554,-1248 554,-1260 554,-1260 554,-1266 548,-1272 542,-1272"/>
<text text-anchor="middle" x="469" y="-1251.5" font-family="Helvetica,sans-Serif" font-size="10.00" fill="#4527a0">sdata:TrapezoidalFuzzyDomain</text>
</g>
<!-- uri::https://example.org/tensile&#45;test/dom_thickness_fuzzy&#45;&gt;uri::https://w3id.org/sdata/core/TrapezoidalFuzzyDomain -->
<g id="edge22" class="edge">
<title>uri::https://example.org/tensile&#45;test/dom_thickness_fuzzy&#45;&gt;uri::https://w3id.org/sdata/core/TrapezoidalFuzzyDomain</title>
<path fill="none" stroke="#4a5568" stroke-width="1.2" d="M90.08,-1430.72C108.96,-1407.3 144.59,-1366.78 183,-1342 241.74,-1304.11 317.77,-1281.72 376.52,-1269.01"/>
<polygon fill="#4a5568" stroke="#4a5568" stroke-width="1.2" points="377.17,-1271.55 383.96,-1267.43 376.08,-1266.42 377.17,-1271.55"/>
<text text-anchor="middle" x="239.5" y="-1344.8" font-family="Helvetica,sans-Serif" font-size="9.00">rdf:type</text>
</g>
<!-- uri::https://example.org/tensile&#45;test/dom_thickness_normal -->
<g id="node26" class="node">
<title>uri::https://example.org/tensile&#45;test/dom_thickness_normal</title>
<path fill="#e3f2fd" stroke="#1976d2" stroke-width="1.2" d="M136.5,-491C136.5,-491 13.5,-491 13.5,-491 7.5,-491 1.5,-485 1.5,-479 1.5,-479 1.5,-467 1.5,-467 1.5,-461 7.5,-455 13.5,-455 13.5,-455 136.5,-455 136.5,-455 142.5,-455 148.5,-461 148.5,-467 148.5,-467 148.5,-479 148.5,-479 148.5,-485 142.5,-491 136.5,-491"/>
<text text-anchor="middle" x="75" y="-470.5" font-family="Helvetica,sans-Serif" font-size="10.00" fill="#0d47a1">ex:dom_thickness_normal</text>
</g>
<!-- uri::https://example.org/tensile&#45;test/dom_thickness_normal&#45;&gt;lit::1.2::http://www.w3.org/2001/XMLSchema#double:: -->
<g id="edge26" class="edge">
<title>uri::https://example.org/tensile&#45;test/dom_thickness_normal&#45;&gt;lit::1.2::http://www.w3.org/2001/XMLSchema#double::</title>
<path fill="none" stroke="#4a5568" stroke-width="1.2" d="M109.1,-491.12C129.93,-502.09 157.58,-515.86 183,-526 270.88,-561.04 380.06,-586.08 434.23,-597.34"/>
<polygon fill="#4a5568" stroke="#4a5568" stroke-width="1.2" points="433.94,-599.96 441.82,-598.9 435,-594.81 433.94,-599.96"/>
<text text-anchor="middle" x="239.5" y="-564.8" font-family="Helvetica,sans-Serif" font-size="9.00">sdata:mu</text>
</g>
<!-- lit::Blechdicke normalverteilt, μ=1.2 mm, σ=0.033 mm (3σ=0.1 mm)::::de -->
<g id="node27" class="node">
<title>lit::Blechdicke normalverteilt, μ=1.2 mm, σ=0.033 mm (3σ=0.1 mm)::::de</title>
<polygon fill="#fff9db" stroke="#b08900" stroke-width="1.2" points="603,-556 329,-556 329,-520 609,-520 609,-550 603,-556"/>
<polyline fill="none" stroke="#b08900" stroke-width="1.2" points="603,-556 603,-550 "/>
<polyline fill="none" stroke="#b08900" stroke-width="1.2" points="609,-550 603,-550 "/>
<text text-anchor="middle" x="469" y="-535.5" font-family="Helvetica,sans-Serif" font-size="10.00" fill="#5c4500">Blechdicke normalverteilt, μ=1.2 mm, σ=0.033 mm...</text>
</g>
<!-- uri::https://example.org/tensile&#45;test/dom_thickness_normal&#45;&gt;lit::Blechdicke normalverteilt, μ=1.2 mm, σ=0.033 mm (3σ=0.1 mm)::::de -->
<g id="edge23" class="edge">
<title>uri::https://example.org/tensile&#45;test/dom_thickness_normal&#45;&gt;lit::Blechdicke normalverteilt, μ=1.2 mm, σ=0.033 mm (3σ=0.1 mm)::::de</title>
<path fill="none" stroke="#4a5568" stroke-width="1.2" d="M148.81,-485.07C205.74,-494.51 285.97,-507.82 351.76,-518.73"/>
<polygon fill="#4a5568" stroke="#4a5568" stroke-width="1.2" points="351.47,-521.34 359.3,-519.98 352.33,-516.16 351.47,-521.34"/>
<text text-anchor="middle" x="239.5" y="-511.8" font-family="Helvetica,sans-Serif" font-size="9.00">sdata:domainDescription</text>
</g>
<!-- lit::0.033::http://www.w3.org/2001/XMLSchema#double:: -->
<g id="node28" class="node">
<title>lit::0.033::http://www.w3.org/2001/XMLSchema#double::</title>
<polygon fill="#fff9db" stroke="#b08900" stroke-width="1.2" points="490,-491 442,-491 442,-455 496,-455 496,-485 490,-491"/>
<polyline fill="none" stroke="#b08900" stroke-width="1.2" points="490,-491 490,-485 "/>
<polyline fill="none" stroke="#b08900" stroke-width="1.2" points="496,-485 490,-485 "/>
<text text-anchor="middle" x="469" y="-470.5" font-family="Helvetica,sans-Serif" font-size="10.00" fill="#5c4500">0.033</text>
</g>
<!-- uri::https://example.org/tensile&#45;test/dom_thickness_normal&#45;&gt;lit::0.033::http://www.w3.org/2001/XMLSchema#double:: -->
<g id="edge24" class="edge">
<title>uri::https://example.org/tensile&#45;test/dom_thickness_normal&#45;&gt;lit::0.033::http://www.w3.org/2001/XMLSchema#double::</title>
<path fill="none" stroke="#4a5568" stroke-width="1.2" d="M148.81,-473C233.75,-473 370.58,-473 433.87,-473"/>
<polygon fill="#4a5568" stroke="#4a5568" stroke-width="1.2" points="434.08,-475.63 441.58,-473 434.08,-470.38 434.08,-475.63"/>
<text text-anchor="middle" x="239.5" y="-475.8" font-family="Helvetica,sans-Serif" font-size="9.00">sdata:sigma</text>
</g>
<!-- lit::Sheet thickness normally distributed, μ=1.2 mm, σ=0.033 mm (3σ=0.1 mm)::::en -->
<g id="node29" class="node">
<title>lit::Sheet thickness normally distributed, μ=1.2 mm, σ=0.033 mm (3σ=0.1 mm)::::en</title>
<polygon fill="#fff9db" stroke="#b08900" stroke-width="1.2" points="597,-426 335,-426 335,-390 603,-390 603,-420 597,-426"/>
<polyline fill="none" stroke="#b08900" stroke-width="1.2" points="597,-426 597,-420 "/>
<polyline fill="none" stroke="#b08900" stroke-width="1.2" points="603,-420 597,-420 "/>
<text text-anchor="middle" x="469" y="-405.5" font-family="Helvetica,sans-Serif" font-size="10.00" fill="#5c4500">Sheet thickness normally distributed, μ=1.2 mm,...</text>
</g>
<!-- uri::https://example.org/tensile&#45;test/dom_thickness_normal&#45;&gt;lit::Sheet thickness normally distributed, μ=1.2 mm, σ=0.033 mm (3σ=0.1 mm)::::en -->
<g id="edge25" class="edge">
<title>uri::https://example.org/tensile&#45;test/dom_thickness_normal&#45;&gt;lit::Sheet thickness normally distributed, μ=1.2 mm, σ=0.033 mm (3σ=0.1 mm)::::en</title>
<path fill="none" stroke="#4a5568" stroke-width="1.2" d="M148.81,-460.93C205.74,-451.49 285.97,-438.18 351.76,-427.27"/>
<polygon fill="#4a5568" stroke="#4a5568" stroke-width="1.2" points="352.33,-429.84 359.3,-426.02 351.47,-424.66 352.33,-429.84"/>
<text text-anchor="middle" x="239.5" y="-455.8" font-family="Helvetica,sans-Serif" font-size="9.00">sdata:domainDescription</text>
</g>
<!-- uri::https://w3id.org/sdata/core/NormalDomain -->
<g id="node30" class="node">
<title>uri::https://w3id.org/sdata/core/NormalDomain</title>
<path fill="#f3e8ff" stroke="#7e57c2" stroke-width="1.2" d="M518.5,-361C518.5,-361 419.5,-361 419.5,-361 413.5,-361 407.5,-355 407.5,-349 407.5,-349 407.5,-337 407.5,-337 407.5,-331 413.5,-325 419.5,-325 419.5,-325 518.5,-325 518.5,-325 524.5,-325 530.5,-331 530.5,-337 530.5,-337 530.5,-349 530.5,-349 530.5,-355 524.5,-361 518.5,-361"/>
<text text-anchor="middle" x="469" y="-340.5" font-family="Helvetica,sans-Serif" font-size="10.00" fill="#4527a0">sdata:NormalDomain</text>
</g>
<!-- uri::https://example.org/tensile&#45;test/dom_thickness_normal&#45;&gt;uri::https://w3id.org/sdata/core/NormalDomain -->
<g id="edge27" class="edge">
<title>uri::https://example.org/tensile&#45;test/dom_thickness_normal&#45;&gt;uri::https://w3id.org/sdata/core/NormalDomain</title>
<path fill="none" stroke="#4a5568" stroke-width="1.2" d="M108.08,-454.89C128.97,-443.58 157.07,-429.26 183,-419 255.03,-390.49 341.45,-369.13 400.11,-356.43"/>
<polygon fill="#4a5568" stroke="#4a5568" stroke-width="1.2" points="400.69,-358.99 407.48,-354.85 399.59,-353.86 400.69,-358.99"/>
<text text-anchor="middle" x="239.5" y="-421.8" font-family="Helvetica,sans-Serif" font-size="9.00">rdf:type</text>
</g>
</g>
</svg>
