<?xml version="1.0" encoding="UTF-8" standalone="no"?>
<!DOCTYPE svg PUBLIC "-//W3C//DTD SVG 1.1//EN"
 "http://www.w3.org/Graphics/SVG/1.1/DTD/svg11.dtd">
<!-- Generated by graphviz version 2.43.0 (0)
 -->
<!-- Pages: 1 -->
<svg width="659pt" height="1740pt"
 viewBox="0.00 0.00 659.40 1740.40" xmlns="http://www.w3.org/2000/svg" xmlns:xlink="http://www.w3.org/1999/xlink">
<g id="graph0" class="graph" transform="scale(1 1) rotate(0) translate(25.2 1715.2)">
<polygon fill="#fafbfc" stroke="transparent" points="-25.2,25.2 -25.2,-1715.2 634.2,-1715.2 634.2,25.2 -25.2,25.2"/>
<text text-anchor="middle" x="304.5" y="-1671.6" font-family="Helvetica,sans-Serif" font-size="18.00">TTL Graph: AttributeQuantityValue_sheetthickness.ttl</text>
<!-- uri::https://example.org/tensile&#45;test/dom_thickness_normal -->
<g id="node1" class="node">
<title>uri::https://example.org/tensile&#45;test/dom_thickness_normal</title>
<path fill="#e3f2fd" stroke="#1976d2" stroke-width="1.2" d="M136.5,-752C136.5,-752 13.5,-752 13.5,-752 7.5,-752 1.5,-746 1.5,-740 1.5,-740 1.5,-728 1.5,-728 1.5,-722 7.5,-716 13.5,-716 13.5,-716 136.5,-716 136.5,-716 142.5,-716 148.5,-722 148.5,-728 148.5,-728 148.5,-740 148.5,-740 148.5,-746 142.5,-752 136.5,-752"/>
<text text-anchor="middle" x="75" y="-731.5" font-family="Helvetica,sans-Serif" font-size="10.00" fill="#0d47a1">ex:dom_thickness_normal</text>
</g>
<!-- lit::1.2::http://www.w3.org/2001/XMLSchema#double:: -->
<g id="node2" class="node">
<title>lit::1.2::http://www.w3.org/2001/XMLSchema#double::</title>
<polygon fill="#fff9db" stroke="#b08900" stroke-width="1.2" points="490,-622 442,-622 442,-586 496,-586 496,-616 490,-622"/>
<polyline fill="none" stroke="#b08900" stroke-width="1.2" points="490,-622 490,-616 "/>
<polyline fill="none" stroke="#b08900" stroke-width="1.2" points="496,-616 490,-616 "/>
<text text-anchor="middle" x="469" y="-601.5" font-family="Helvetica,sans-Serif" font-size="10.00" fill="#5c4500">1.2</text>
</g>
<!-- uri::https://example.org/tensile&#45;test/dom_thickness_normal&#45;&gt;lit::1.2::http://www.w3.org/2001/XMLSchema#double:: -->
<g id="edge1" class="edge">
<title>uri::https://example.org/tensile&#45;test/dom_thickness_normal&#45;&gt;lit::1.2::http://www.w3.org/2001/XMLSchema#double::</title>
<path fill="none" stroke="#4a5568" stroke-width="1.2" d="M108.08,-715.89C128.97,-704.58 157.07,-690.26 183,-680 270.81,-645.24 380.02,-621.12 434.22,-610.35"/>
<polygon fill="#4a5568" stroke="#4a5568" stroke-width="1.2" points="434.95,-612.88 441.81,-608.86 433.94,-607.73 434.95,-612.88"/>
<text text-anchor="middle" x="239.5" y="-682.8" font-family="Helvetica,sans-Serif" font-size="9.00">sdata:mu</text>
</g>
<!-- lit::Sheet thickness normally distributed, μ=1.2 mm, σ=0.033 mm (3σ=0.1 mm)::::en -->
<g id="node3" class="node">
<title>lit::Sheet thickness normally distributed, μ=1.2 mm, σ=0.033 mm (3σ=0.1 mm)::::en</title>
<polygon fill="#fff9db" stroke="#b08900" stroke-width="1.2" points="597,-882 335,-882 335,-846 603,-846 603,-876 597,-882"/>
<polyline fill="none" stroke="#b08900" stroke-width="1.2" points="597,-882 597,-876 "/>
<polyline fill="none" stroke="#b08900" stroke-width="1.2" points="603,-876 597,-876 "/>
<text text-anchor="middle" x="469" y="-861.5" font-family="Helvetica,sans-Serif" font-size="10.00" fill="#5c4500">Sheet thickness normally distributed, μ=1.2 mm,...</text>
</g>
<!-- uri::https://example.org/tensile&#45;test/dom_thickness_normal&#45;&gt;lit::Sheet thickness normally distributed, μ=1.2 mm, σ=0.033 mm (3σ=0.1 mm)::::en -->
<g id="edge2" class="edge">
<title>uri::https://example.org/tensile&#45;test/dom_thickness_normal&#45;&gt;lit::Sheet thickness normally distributed, μ=1.2 mm, σ=0.033 mm (3σ=0.1 mm)::::en</title>
<path fill="none" stroke="#4a5568" stroke-width="1.2" d="M109.1,-752.12C129.93,-763.09 157.58,-776.86 183,-787 244.74,-811.62 317.06,-831.05 373.4,-844.24"/>
<polygon fill="#4a5568" stroke="#4a5568" stroke-width="1.2" points="372.99,-846.84 380.89,-845.98 374.18,-841.73 372.99,-846.84"/>
<text text-anchor="middle" x="239.5" y="-824.8" font-family="Helvetica,sans-Serif" font-size="9.00">sdata:domainDescription</text>
</g>
<!-- uri::https://w3id.org/sdata/core/NormalDomain -->
<g id="node4" class="node">
<title>uri::https://w3id.org/sdata/core/NormalDomain</title>
<path fill="#f3e8ff" stroke="#7e57c2" stroke-width="1.2" d="M518.5,-817C518.5,-817 419.5,-817 419.5,-817 413.5,-817 407.5,-811 407.5,-805 407.5,-805 407.5,-793 407.5,-793 407.5,-787 413.5,-781 419.5,-781 419.5,-781 518.5,-781 518.5,-781 524.5,-781 530.5,-787 530.5,-793 530.5,-793 530.5,-805 530.5,-805 530.5,-811 524.5,-817 518.5,-817"/>
<text text-anchor="middle" x="469" y="-796.5" font-family="Helvetica,sans-Serif" font-size="10.00" fill="#4527a0">sdata:NormalDomain</text>
</g>
<!-- uri::https://example.org/tensile&#45;test/dom_thickness_normal&#45;&gt;uri::https://w3id.org/sdata/core/NormalDomain -->
<g id="edge3" class="edge">
<title>uri::https://example.org/tensile&#45;test/dom_thickness_normal&#45;&gt;uri::https://w3id.org/sdata/core/NormalDomain</title>
<path fill="none" stroke="#4a5568" stroke-width="1.2" d="M148.81,-746.07C220.7,-757.99 329.76,-776.08 399.95,-787.72"/>
<polygon fill="#4a5568" stroke="#4a5568" stroke-width="1.2" points="399.64,-790.32 407.46,-788.96 400.49,-785.15 399.64,-790.32"/>
<text text-anchor="middle" x="239.5" y="-772.8" font-family="Helvetica,sans-Serif" font-size="9.00">rdf:type</text>
</g>
<!-- lit::Blechdicke normalverteilt, μ=1.2 mm, σ=0.033 mm (3σ=0.1 mm)::::de -->
<g id="node5" class="node">
<title>lit::Blechdicke normalverteilt, μ=1.2 mm, σ=0.033 mm (3σ=0.1 mm)::::de</title>
<polygon fill="#fff9db" stroke="#b08900" stroke-width="1.2" points="603,-752 329,-752 329,-716 609,-716 609,-746 603,-752"/>
<polyline fill="none" stroke="#b08900" stroke-width="1.2" points="603,-752 603,-746 "/>
<polyline fill="none" stroke="#b08900" stroke-width="1.2" points="609,-746 603,-746 "/>
<text text-anchor="middle" x="469" y="-731.5" font-family="Helvetica,sans-Serif" font-size="10.00" fill="#5c4500">Blechdicke normalverteilt, μ=1.2 mm, σ=0.033 mm...</text>
</g>
<!-- uri::https://example.org/tensile&#45;test/dom_thickness_normal&#45;&gt;lit::Blechdicke normalverteilt, μ=1.2 mm, σ=0.033 mm (3σ=0.1 mm)::::de -->
<g id="edge4" class="edge">
<title>uri::https://example.org/tensile&#45;test/dom_thickness_normal&#45;&gt;lit::Blechdicke normalverteilt, μ=1.2 mm, σ=0.033 mm (3σ=0.1 mm)::::de</title>
<path fill="none" stroke="#4a5568" stroke-width="1.2" d="M148.81,-734C197.23,-734 262.5,-734 321.4,-734"/>
<polygon fill="#4a5568" stroke="#4a5568" stroke-width="1.2" points="321.42,-736.63 328.92,-734 321.42,-731.38 321.42,-736.63"/>
<text text-anchor="middle" x="239.5" y="-736.8" font-family="Helvetica,sans-Serif" font-size="9.00">sdata:domainDescription</text>
</g>
<!-- lit::0.033::http://www.w3.org/2001/XMLSchema#double:: -->
<g id="node6" class="node">
<title>lit::0.033::http://www.w3.org/2001/XMLSchema#double::</title>
<polygon fill="#fff9db" stroke="#b08900" stroke-width="1.2" points="490,-687 442,-687 442,-651 496,-651 496,-681 490,-687"/>
<polyline fill="none" stroke="#b08900" stroke-width="1.2" points="490,-687 490,-681 "/>
<polyline fill="none" stroke="#b08900" stroke-width="1.2" points="496,-681 490,-681 "/>
<text text-anchor="middle" x="469" y="-666.5" font-family="Helvetica,sans-Serif" font-size="10.00" fill="#5c4500">0.033</text>
</g>
<!-- uri::https://example.org/tensile&#45;test/dom_thickness_normal&#45;&gt;lit::0.033::http://www.w3.org/2001/XMLSchema#double:: -->
<g id="edge5" class="edge">
<title>uri::https://example.org/tensile&#45;test/dom_thickness_normal&#45;&gt;lit::0.033::http://www.w3.org/2001/XMLSchema#double::</title>
<path fill="none" stroke="#4a5568" stroke-width="1.2" d="M148.81,-721.93C233.75,-707.84 370.58,-685.15 433.87,-674.66"/>
<polygon fill="#4a5568" stroke="#4a5568" stroke-width="1.2" points="434.61,-677.2 441.58,-673.38 433.75,-672.02 434.61,-677.2"/>
<text text-anchor="middle" x="239.5" y="-716.8" font-family="Helvetica,sans-Serif" font-size="9.00">sdata:sigma</text>
</g>
<!-- uri::https://example.org/tensile&#45;test/attr_thickness -->
<g id="node7" class="node">
<title>uri::https://example.org/tensile&#45;test/attr_thickness</title>
<path fill="#e3f2fd" stroke="#1976d2" stroke-width="1.2" d="M114.5,-329C114.5,-329 35.5,-329 35.5,-329 29.5,-329 23.5,-323 23.5,-317 23.5,-317 23.5,-305 23.5,-305 23.5,-299 29.5,-293 35.5,-293 35.5,-293 114.5,-293 114.5,-293 120.5,-293 126.5,-299 126.5,-305 126.5,-305 126.5,-317 126.5,-317 126.5,-323 120.5,-329 114.5,-329"/>
<text text-anchor="middle" x="75" y="-308.5" font-family="Helvetica,sans-Serif" font-size="10.00" fill="#0d47a1">ex:attr_thickness</text>
</g>
<!-- uri::https://example.org/tensile&#45;test/attr_thickness&#45;&gt;lit::1.2::http://www.w3.org/2001/XMLSchema#double:: -->
<g id="edge6" class="edge">
<title>uri::https://example.org/tensile&#45;test/attr_thickness&#45;&gt;lit::1.2::http://www.w3.org/2001/XMLSchema#double::</title>
<path fill="none" stroke="#4a5568" stroke-width="1.2" d="M80.38,-329.24C90.96,-369.49 121.69,-466.57 183,-520 256.17,-583.77 375.73,-599.17 433.97,-602.86"/>
<polygon fill="#4a5568" stroke="#4a5568" stroke-width="1.2" points="434.13,-605.5 441.77,-603.31 434.43,-600.26 434.13,-605.5"/>
<text text-anchor="middle" x="239.5" y="-578.8" font-family="Helvetica,sans-Serif" font-size="9.00">qudt:numericValue</text>
</g>
<!-- lit::float:::: -->
<g id="node8" class="node">
<title>lit::float::::</title>
<polygon fill="#fff9db" stroke="#b08900" stroke-width="1.2" points="490,-231 442,-231 442,-195 496,-195 496,-225 490,-231"/>
<polyline fill="none" stroke="#b08900" stroke-width="1.2" points="490,-231 490,-225 "/>
<polyline fill="none" stroke="#b08900" stroke-width="1.2" points="496,-225 490,-225 "/>
<text text-anchor="middle" x="469" y="-210.5" font-family="Helvetica,sans-Serif" font-size="10.00" fill="#5c4500">float</text>
</g>
<!-- uri::https://example.org/tensile&#45;test/attr_thickness&#45;&gt;lit::float:::: -->
<g id="edge7" class="edge">
<title>uri::https://example.org/tensile&#45;test/attr_thickness&#45;&gt;lit::float::::</title>
<path fill="none" stroke="#4a5568" stroke-width="1.2" d="M126.58,-293.32C144.31,-287.43 164.43,-281.08 183,-276 272.92,-251.42 380.77,-229.64 434.35,-219.32"/>
<polygon fill="#4a5568" stroke="#4a5568" stroke-width="1.2" points="434.98,-221.87 441.85,-217.88 433.99,-216.72 434.98,-221.87"/>
<text text-anchor="middle" x="239.5" y="-278.8" font-family="Helvetica,sans-Serif" font-size="9.00">sdata:dtype</text>
</g>
<!-- uri::http://qudt.org/vocab/unit/MilliM -->
<g id="node9" class="node">
<title>uri::http://qudt.org/vocab/unit/MilliM</title>
<path fill="#ffffff" stroke="#78909c" stroke-width="1.2" d="M492,-166C492,-166 446,-166 446,-166 440,-166 434,-160 434,-154 434,-154 434,-142 434,-142 434,-136 440,-130 446,-130 446,-130 492,-130 492,-130 498,-130 504,-136 504,-142 504,-142 504,-154 504,-154 504,-160 498,-166 492,-166"/>
<text text-anchor="middle" x="469" y="-145.5" font-family="Helvetica,sans-Serif" font-size="10.00" fill="#37474f">unit:MilliM</text>
</g>
<!-- uri::https://example.org/tensile&#45;test/attr_thickness&#45;&gt;uri::http://qudt.org/vocab/unit/MilliM -->
<g id="edge8" class="edge">
<title>uri::https://example.org/tensile&#45;test/attr_thickness&#45;&gt;uri::http://qudt.org/vocab/unit/MilliM</title>
<path fill="none" stroke="#4a5568" stroke-width="1.2" d="M96.94,-292.96C117.69,-275.78 150.94,-250.06 183,-233 263.7,-190.05 369.1,-165.85 426.43,-155.01"/>
<polygon fill="#4a5568" stroke="#4a5568" stroke-width="1.2" points="426.96,-157.58 433.85,-153.63 426,-152.42 426.96,-157.58"/>
<text text-anchor="middle" x="239.5" y="-235.8" font-family="Helvetica,sans-Serif" font-size="9.00">qudt:unit</text>
</g>
<!-- uri::https://w3id.org/sdata/core/AttributeQuantityValue -->
<g id="node10" class="node">
<title>uri::https://w3id.org/sdata/core/AttributeQuantityValue</title>
<path fill="#f3e8ff" stroke="#7e57c2" stroke-width="1.2" d="M537,-101C537,-101 401,-101 401,-101 395,-101 389,-95 389,-89 389,-89 389,-77 389,-77 389,-71 395,-65 401,-65 401,-65 537,-65 537,-65 543,-65 549,-71 549,-77 549,-77 549,-89 549,-89 549,-95 543,-101 537,-101"/>
<text text-anchor="middle" x="469" y="-80.5" font-family="Helvetica,sans-Serif" font-size="10.00" fill="#4527a0">sdata:AttributeQuantityValue</text>
</g>
<!-- uri::https://example.org/tensile&#45;test/attr_thickness&#45;&gt;uri::https://w3id.org/sdata/core/AttributeQuantityValue -->
<g id="edge9" class="edge">
<title>uri::https://example.org/tensile&#45;test/attr_thickness&#45;&gt;uri::https://w3id.org/sdata/core/AttributeQuantityValue</title>
<path fill="none" stroke="#4a5568" stroke-width="1.2" d="M85.78,-292.82C102.26,-263.76 138.17,-206.71 183,-173 241.07,-129.34 320.87,-106.52 381.26,-94.8"/>
<polygon fill="#4a5568" stroke="#4a5568" stroke-width="1.2" points="382.02,-97.33 388.9,-93.35 381.04,-92.17 382.02,-97.33"/>
<text text-anchor="middle" x="239.5" y="-175.8" font-family="Helvetica,sans-Serif" font-size="9.00">rdf:type</text>
</g>
<!-- lit::Blechdicke::::de -->
<g id="node11" class="node">
<title>lit::Blechdicke::::de</title>
<polygon fill="#fff9db" stroke="#b08900" stroke-width="1.2" points="498.5,-36 433.5,-36 433.5,0 504.5,0 504.5,-30 498.5,-36"/>
<polyline fill="none" stroke="#b08900" stroke-width="1.2" points="498.5,-36 498.5,-30 "/>
<polyline fill="none" stroke="#b08900" stroke-width="1.2" points="504.5,-30 498.5,-30 "/>
<text text-anchor="middle" x="469" y="-15.5" font-family="Helvetica,sans-Serif" font-size="10.00" fill="#5c4500">Blechdicke</text>
</g>
<!-- uri::https://example.org/tensile&#45;test/attr_thickness&#45;&gt;lit::Blechdicke::::de -->
<g id="edge10" class="edge">
<title>uri::https://example.org/tensile&#45;test/attr_thickness&#45;&gt;lit::Blechdicke::::de</title>
<path fill="none" stroke="#4a5568" stroke-width="1.2" d="M80.4,-292.79C91.03,-252.59 121.85,-155.62 183,-102 252.74,-40.85 365.11,-24.16 425.82,-19.64"/>
<polygon fill="#4a5568" stroke="#4a5568" stroke-width="1.2" points="426.02,-22.26 433.32,-19.13 425.66,-17.02 426.02,-22.26"/>
<text text-anchor="middle" x="239.5" y="-104.8" font-family="Helvetica,sans-Serif" font-size="9.00">rdfs:label</text>
</g>
<!-- lit::Initial sheet thickness of the tensile specimen before testing::::en -->
<g id="node12" class="node">
<title>lit::Initial sheet thickness of the tensile specimen before testing::::en</title>
<polygon fill="#fff9db" stroke="#b08900" stroke-width="1.2" points="589.5,-556 342.5,-556 342.5,-520 595.5,-520 595.5,-550 589.5,-556"/>
<polyline fill="none" stroke="#b08900" stroke-width="1.2" points="589.5,-556 589.5,-550 "/>
<polyline fill="none" stroke="#b08900" stroke-width="1.2" points="595.5,-550 589.5,-550 "/>
<text text-anchor="middle" x="469" y="-535.5" font-family="Helvetica,sans-Serif" font-size="10.00" fill="#5c4500">Initial sheet thickness of the tensile specimen...</text>
</g>
<!-- uri::https://example.org/tensile&#45;test/attr_thickness&#45;&gt;lit::Initial sheet thickness of the tensile specimen before testing::::en -->
<g id="edge11" class="edge">
<title>uri::https://example.org/tensile&#45;test/attr_thickness&#45;&gt;lit::Initial sheet thickness of the tensile specimen before testing::::en</title>
<path fill="none" stroke="#4a5568" stroke-width="1.2" d="M85.76,-329.21C102.2,-358.31 138.07,-415.43 183,-449 229.5,-483.75 289.85,-505.12 343.04,-518.18"/>
<polygon fill="#4a5568" stroke="#4a5568" stroke-width="1.2" points="342.59,-520.77 350.5,-519.97 343.81,-515.67 342.59,-520.77"/>
<text text-anchor="middle" x="239.5" y="-505.8" font-family="Helvetica,sans-Serif" font-size="9.00">sdata:description</text>
</g>
<!-- lit::Ausgangsblechdicke der Zugprobe vor dem Versuch::::de -->
<g id="node13" class="node">
<title>lit::Ausgangsblechdicke der Zugprobe vor dem Versuch::::de</title>
<polygon fill="#fff9db" stroke="#b08900" stroke-width="1.2" points="598.5,-491 333.5,-491 333.5,-455 604.5,-455 604.5,-485 598.5,-491"/>
<polyline fill="none" stroke="#b08900" stroke-width="1.2" points="598.5,-491 598.5,-485 "/>
<polyline fill="none" stroke="#b08900" stroke-width="1.2" points="604.5,-485 598.5,-485 "/>
<text text-anchor="middle" x="469" y="-470.5" font-family="Helvetica,sans-Serif" font-size="10.00" fill="#5c4500">Ausgangsblechdicke der Zugprobe vor dem Versuch</text>
</g>
<!-- uri::https://example.org/tensile&#45;test/attr_thickness&#45;&gt;lit::Ausgangsblechdicke der Zugprobe vor dem Versuch::::de -->
<g id="edge12" class="edge">
<title>uri::https://example.org/tensile&#45;test/attr_thickness&#45;&gt;lit::Ausgangsblechdicke der Zugprobe vor dem Versuch::::de</title>
<path fill="none" stroke="#4a5568" stroke-width="1.2" d="M96.46,-329.04C117.12,-346.53 150.54,-372.85 183,-390 239.36,-419.78 307.8,-440.16 363.48,-453.27"/>
<polygon fill="#4a5568" stroke="#4a5568" stroke-width="1.2" points="363,-455.85 370.9,-454.99 364.19,-450.74 363,-455.85"/>
<text text-anchor="middle" x="239.5" y="-434.8" font-family="Helvetica,sans-Serif" font-size="9.00">sdata:description</text>
</g>
<!-- lit::t:::: -->
<g id="node14" class="node">
<title>lit::t::::</title>
<polygon fill="#fff9db" stroke="#b08900" stroke-width="1.2" points="490,-426 442,-426 442,-390 496,-390 496,-420 490,-426"/>
<polyline fill="none" stroke="#b08900" stroke-width="1.2" points="490,-426 490,-420 "/>
<polyline fill="none" stroke="#b08900" stroke-width="1.2" points="496,-420 490,-420 "/>
<text text-anchor="middle" x="469" y="-405.5" font-family="Helvetica,sans-Serif" font-size="10.00" fill="#5c4500">t</text>
</g>
<!-- uri::https://example.org/tensile&#45;test/attr_thickness&#45;&gt;lit::t:::: -->
<g id="edge13" class="edge">
<title>uri::https://example.org/tensile&#45;test/attr_thickness&#45;&gt;lit::t::::</title>
<path fill="none" stroke="#4a5568" stroke-width="1.2" d="M126.57,-328.71C144.3,-334.61 164.42,-340.95 183,-346 272.89,-370.41 380.75,-391.75 434.35,-401.83"/>
<polygon fill="#4a5568" stroke="#4a5568" stroke-width="1.2" points="434,-404.44 441.85,-403.24 434.96,-399.28 434,-404.44"/>
<text text-anchor="middle" x="239.5" y="-375.8" font-family="Helvetica,sans-Serif" font-size="9.00">sdata:name</text>
</g>
<!-- lit::mm:::: -->
<g id="node15" class="node">
<title>lit::mm::::</title>
<polygon fill="#fff9db" stroke="#b08900" stroke-width="1.2" points="490,-361 442,-361 442,-325 496,-325 496,-355 490,-361"/>
<polyline fill="none" stroke="#b08900" stroke-width="1.2" points="490,-361 490,-355 "/>
<polyline fill="none" stroke="#b08900" stroke-width="1.2" points="496,-355 490,-355 "/>
<text text-anchor="middle" x="469" y="-340.5" font-family="Helvetica,sans-Serif" font-size="10.00" fill="#5c4500">mm</text>
</g>
<!-- uri::https://example.org/tensile&#45;test/attr_thickness&#45;&gt;lit::mm:::: -->
<g id="edge14" class="edge">
<title>uri::https://example.org/tensile&#45;test/attr_thickness&#45;&gt;lit::mm::::</title>
<path fill="none" stroke="#4a5568" stroke-width="1.2" d="M126.85,-315.15C208.23,-321.79 365.58,-334.64 434.4,-340.26"/>
<polygon fill="#4a5568" stroke="#4a5568" stroke-width="1.2" points="434.26,-342.88 441.95,-340.87 434.69,-337.65 434.26,-342.88"/>
<text text-anchor="middle" x="239.5" y="-331.8" font-family="Helvetica,sans-Serif" font-size="9.00">sdata:unitSymbol</text>
</g>
<!-- lit::Sheet Thickness::::en -->
<g id="node16" class="node">
<title>lit::Sheet Thickness::::en</title>
<polygon fill="#fff9db" stroke="#b08900" stroke-width="1.2" points="512,-296 420,-296 420,-260 518,-260 518,-290 512,-296"/>
<polyline fill="none" stroke="#b08900" stroke-width="1.2" points="512,-296 512,-290 "/>
<polyline fill="none" stroke="#b08900" stroke-width="1.2" points="518,-290 512,-290 "/>
<text text-anchor="middle" x="469" y="-275.5" font-family="Helvetica,sans-Serif" font-size="10.00" fill="#5c4500">Sheet Thickness</text>
</g>
<!-- uri::https://example.org/tensile&#45;test/attr_thickness&#45;&gt;lit::Sheet Thickness::::en -->
<g id="edge15" class="edge">
<title>uri::https://example.org/tensile&#45;test/attr_thickness&#45;&gt;lit::Sheet Thickness::::en</title>
<path fill="none" stroke="#4a5568" stroke-width="1.2" d="M126.85,-306.72C200.35,-300.53 335.81,-289.13 412.06,-282.71"/>
<polygon fill="#4a5568" stroke="#4a5568" stroke-width="1.2" points="412.45,-285.31 419.71,-282.07 412.01,-280.08 412.45,-285.31"/>
<text text-anchor="middle" x="239.5" y="-304.8" font-family="Helvetica,sans-Serif" font-size="9.00">rdfs:label</text>
</g>
<!-- uri::https://example.org/tensile&#45;test/dom_thickness_interval -->
<g id="node17" class="node">
<title>uri::https://example.org/tensile&#45;test/dom_thickness_interval</title>
<path fill="#e3f2fd" stroke="#1976d2" stroke-width="1.2" d="M138,-1077C138,-1077 12,-1077 12,-1077 6,-1077 0,-1071 0,-1065 0,-1065 0,-1053 0,-1053 0,-1047 6,-1041 12,-1041 12,-1041 138,-1041 138,-1041 144,-1041 150,-1047 150,-1053 150,-1053 150,-1065 150,-1065 150,-1071 144,-1077 138,-1077"/>
<text text-anchor="middle" x="75" y="-1056.5" font-family="Helvetica,sans-Serif" font-size="10.00" fill="#0d47a1">ex:dom_thickness_interval</text>
</g>
<!-- lit::Sheet thickness 1.2 ± 0.1 mm — hard tolerance limits::::en -->
<g id="node18" class="node">
<title>lit::Sheet thickness 1.2 ± 0.1 mm — hard tolerance limits::::en</title>
<polygon fill="#fff9db" stroke="#b08900" stroke-width="1.2" points="596.5,-1207 335.5,-1207 335.5,-1171 602.5,-1171 602.5,-1201 596.5,-1207"/>
<polyline fill="none" stroke="#b08900" stroke-width="1.2" points="596.5,-1207 596.5,-1201 "/>
<polyline fill="none" stroke="#b08900" stroke-width="1.2" points="602.5,-1201 596.5,-1201 "/>
<text text-anchor="middle" x="469" y="-1186.5" font-family="Helvetica,sans-Serif" font-size="10.00" fill="#5c4500">Sheet thickness 1.2 ± 0.1 mm — hard tolerance l...</text>
</g>
<!-- uri::https://example.org/tensile&#45;test/dom_thickness_interval&#45;&gt;lit::Sheet thickness 1.2 ± 0.1 mm — hard tolerance limits::::en -->
<g id="edge16" class="edge">
<title>uri::https://example.org/tensile&#45;test/dom_thickness_interval&#45;&gt;lit::Sheet thickness 1.2 ± 0.1 mm — hard tolerance limits::::en</title>
<path fill="none" stroke="#4a5568" stroke-width="1.2" d="M109.1,-1077.12C129.93,-1088.09 157.58,-1101.86 183,-1112 244.74,-1136.62 317.06,-1156.05 373.4,-1169.24"/>
<polygon fill="#4a5568" stroke="#4a5568" stroke-width="1.2" points="372.99,-1171.84 380.89,-1170.98 374.18,-1166.73 372.99,-1171.84"/>
<text text-anchor="middle" x="239.5" y="-1149.8" font-family="Helvetica,sans-Serif" font-size="9.00">sdata:domainDescription</text>
</g>
<!-- lit::1.3::http://www.w3.org/2001/XMLSchema#double:: -->
<g id="node19" class="node">
<title>lit::1.3::http://www.w3.org/2001/XMLSchema#double::</title>
<polygon fill="#fff9db" stroke="#b08900" stroke-width="1.2" points="490,-1142 442,-1142 442,-1106 496,-1106 496,-1136 490,-1142"/>
<polyline fill="none" stroke="#b08900" stroke-width="1.2" points="490,-1142 490,-1136 "/>
<polyline fill="none" stroke="#b08900" stroke-width="1.2" points="496,-1136 490,-1136 "/>
<text text-anchor="middle" x="469" y="-1121.5" font-family="Helvetica,sans-Serif" font-size="10.00" fill="#5c4500">1.3</text>
</g>
<!-- uri::https://example.org/tensile&#45;test/dom_thickness_interval&#45;&gt;lit::1.3::http://www.w3.org/2001/XMLSchema#double:: -->
<g id="edge17" class="edge">
<title>uri::https://example.org/tensile&#45;test/dom_thickness_interval&#45;&gt;lit::1.3::http://www.w3.org/2001/XMLSchema#double::</title>
<path fill="none" stroke="#4a5568" stroke-width="1.2" d="M150.19,-1071.3C235.34,-1085.42 371.29,-1107.96 434.12,-1118.38"/>
<polygon fill="#4a5568" stroke="#4a5568" stroke-width="1.2" points="433.95,-1121.01 441.78,-1119.65 434.81,-1115.84 433.95,-1121.01"/>
<text text-anchor="middle" x="239.5" y="-1097.8" font-family="Helvetica,sans-Serif" font-size="9.00">sdata:maxValue</text>
</g>
<!-- uri::https://w3id.org/sdata/core/IntervalDomain -->
<g id="node20" class="node">
<title>uri::https://w3id.org/sdata/core/IntervalDomain</title>
<path fill="#f3e8ff" stroke="#7e57c2" stroke-width="1.2" d="M519,-1077C519,-1077 419,-1077 419,-1077 413,-1077 407,-1071 407,-1065 407,-1065 407,-1053 407,-1053 407,-1047 413,-1041 419,-1041 419,-1041 519,-1041 519,-1041 525,-1041 531,-1047 531,-1053 531,-1053 531,-1065 531,-1065 531,-1071 525,-1077 519,-1077"/>
<text text-anchor="middle" x="469" y="-1056.5" font-family="Helvetica,sans-Serif" font-size="10.00" fill="#4527a0">sdata:IntervalDomain</text>
</g>
<!-- uri::https://example.org/tensile&#45;test/dom_thickness_interval&#45;&gt;uri::https://w3id.org/sdata/core/IntervalDomain -->
<g id="edge18" class="edge">
<title>uri::https://example.org/tensile&#45;test/dom_thickness_interval&#45;&gt;uri::https://w3id.org/sdata/core/IntervalDomain</title>
<path fill="none" stroke="#4a5568" stroke-width="1.2" d="M150.19,-1059C221.79,-1059 329.32,-1059 399.08,-1059"/>
<polygon fill="#4a5568" stroke="#4a5568" stroke-width="1.2" points="399.48,-1061.63 406.98,-1059 399.48,-1056.38 399.48,-1061.63"/>
<text text-anchor="middle" x="239.5" y="-1061.8" font-family="Helvetica,sans-Serif" font-size="9.00">rdf:type</text>
</g>
<!-- lit::Blechdicke 1.2 ± 0.1 mm — harte Toleranzgrenzen::::de -->
<g id="node21" class="node">
<title>lit::Blechdicke 1.2 ± 0.1 mm — harte Toleranzgrenzen::::de</title>
<polygon fill="#fff9db" stroke="#b08900" stroke-width="1.2" points="595.5,-1012 336.5,-1012 336.5,-976 601.5,-976 601.5,-1006 595.5,-1012"/>
<polyline fill="none" stroke="#b08900" stroke-width="1.2" points="595.5,-1012 595.5,-1006 "/>
<polyline fill="none" stroke="#b08900" stroke-width="1.2" points="601.5,-1006 595.5,-1006 "/>
<text text-anchor="middle" x="469" y="-991.5" font-family="Helvetica,sans-Serif" font-size="10.00" fill="#5c4500">Blechdicke 1.2 ± 0.1 mm — harte Toleranzgrenzen</text>
</g>
<!-- uri::https://example.org/tensile&#45;test/dom_thickness_interval&#45;&gt;lit::Blechdicke 1.2 ± 0.1 mm — harte Toleranzgrenzen::::de -->
<g id="edge19" class="edge">
<title>uri::https://example.org/tensile&#45;test/dom_thickness_interval&#45;&gt;lit::Blechdicke 1.2 ± 0.1 mm — harte Toleranzgrenzen::::de</title>
<path fill="none" stroke="#4a5568" stroke-width="1.2" d="M150.19,-1046.7C207.04,-1037.27 286.55,-1024.09 351.81,-1013.27"/>
<polygon fill="#4a5568" stroke="#4a5568" stroke-width="1.2" points="352.32,-1015.84 359.29,-1012.03 351.46,-1010.66 352.32,-1015.84"/>
<text text-anchor="middle" x="239.5" y="-1041.8" font-family="Helvetica,sans-Serif" font-size="9.00">sdata:domainDescription</text>
</g>
<!-- lit::1.1::http://www.w3.org/2001/XMLSchema#double:: -->
<g id="node22" class="node">
<title>lit::1.1::http://www.w3.org/2001/XMLSchema#double::</title>
<polygon fill="#fff9db" stroke="#b08900" stroke-width="1.2" points="490,-947 442,-947 442,-911 496,-911 496,-941 490,-947"/>
<polyline fill="none" stroke="#b08900" stroke-width="1.2" points="490,-947 490,-941 "/>
<polyline fill="none" stroke="#b08900" stroke-width="1.2" points="496,-941 490,-941 "/>
<text text-anchor="middle" x="469" y="-926.5" font-family="Helvetica,sans-Serif" font-size="10.00" fill="#5c4500">1.1</text>
</g>
<!-- uri::https://example.org/tensile&#45;test/dom_thickness_interval&#45;&gt;lit::1.1::http://www.w3.org/2001/XMLSchema#double:: -->
<g id="edge20" class="edge">
<title>uri::https://example.org/tensile&#45;test/dom_thickness_interval&#45;&gt;lit::1.1::http://www.w3.org/2001/XMLSchema#double::</title>
<path fill="none" stroke="#4a5568" stroke-width="1.2" d="M108.08,-1040.89C128.97,-1029.58 157.07,-1015.26 183,-1005 270.81,-970.24 380.02,-946.12 434.22,-935.35"/>
<polygon fill="#4a5568" stroke="#4a5568" stroke-width="1.2" points="434.95,-937.88 441.81,-933.86 433.94,-932.73 434.95,-937.88"/>
<text text-anchor="middle" x="239.5" y="-1007.8" font-family="Helvetica,sans-Serif" font-size="9.00">sdata:minValue</text>
</g>
<!-- uri::https://example.org/tensile&#45;test/dom_thickness_fuzzy -->
<g id="node23" class="node">
<title>uri::https://example.org/tensile&#45;test/dom_thickness_fuzzy</title>
<path fill="#e3f2fd" stroke="#1976d2" stroke-width="1.2" d="M132.5,-1467C132.5,-1467 17.5,-1467 17.5,-1467 11.5,-1467 5.5,-1461 5.5,-1455 5.5,-1455 5.5,-1443 5.5,-1443 5.5,-1437 11.5,-1431 17.5,-1431 17.5,-1431 132.5,-1431 132.5,-1431 138.5,-1431 144.5,-1437 144.5,-1443 144.5,-1443 144.5,-1455 144.5,-1455 144.5,-1461 138.5,-1467 132.5,-1467"/>
<text text-anchor="middle" x="75" y="-1446.5" font-family="Helvetica,sans-Serif" font-size="10.00" fill="#0d47a1">ex:dom_thickness_fuzzy</text>
</g>
<!-- lit::1.15::http://www.w3.org/2001/XMLSchema#double:: -->
<g id="node24" class="node">
<title>lit::1.15::http://www.w3.org/2001/XMLSchema#double::</title>
<polygon fill="#fff9db" stroke="#b08900" stroke-width="1.2" points="490,-1662 442,-1662 442,-1626 496,-1626 496,-1656 490,-1662"/>
<polyline fill="none" stroke="#b08900" stroke-width="1.2" points="490,-1662 490,-1656 "/>
<polyline fill="none" stroke="#b08900" stroke-width="1.2" points="496,-1656 490,-1656 "/>
<text text-anchor="middle" x="469" y="-1641.5" font-family="Helvetica,sans-Serif" font-size="10.00" fill="#5c4500">1.15</text>
</g>
<!-- uri::https://example.org/tensile&#45;test/dom_thickness_fuzzy&#45;&gt;lit::1.15::http://www.w3.org/2001/XMLSchema#double:: -->
<g id="edge21" class="edge">
<title>uri::https://example.org/tensile&#45;test/dom_thickness_fuzzy&#45;&gt;lit::1.15::http://www.w3.org/2001/XMLSchema#double::</title>
<path fill="none" stroke="#4a5568" stroke-width="1.2" d="M90.55,-1467.21C109.67,-1490.12 145.26,-1529.44 183,-1554 263.99,-1606.72 377.98,-1630.37 434.09,-1639.34"/>
<polygon fill="#4a5568" stroke="#4a5568" stroke-width="1.2" points="433.8,-1641.95 441.61,-1640.51 434.6,-1636.76 433.8,-1641.95"/>
<text text-anchor="middle" x="239.5" y="-1607.8" font-family="Helvetica,sans-Serif" font-size="9.00">sdata:fuzzyCoreLeft</text>
</g>
<!-- uri::https://w3id.org/sdata/core/TrapezoidalFuzzyDomain -->
<g id="node25" class="node">
<title>uri::https://w3id.org/sdata/core/TrapezoidalFuzzyDomain</title>
<path fill="#f3e8ff" stroke="#7e57c2" stroke-width="1.2" d="M542,-1597C542,-1597 396,-1597 396,-1597 390,-1597 384,-1591 384,-1585 384,-1585 384,-1573 384,-1573 384,-1567 390,-1561 396,-1561 396,-1561 542,-1561 542,-1561 548,-1561 554,-1567 554,-1573 554,-1573 554,-1585 554,-1585 554,-1591 548,-1597 542,-1597"/>
<text text-anchor="middle" x="469" y="-1576.5" font-family="Helvetica,sans-Serif" font-size="10.00" fill="#4527a0">sdata:TrapezoidalFuzzyDomain</text>
</g>
<!-- uri::https://example.org/tensile&#45;test/dom_thickness_fuzzy&#45;&gt;uri::https://w3id.org/sdata/core/TrapezoidalFuzzyDomain -->
<g id="edge22" class="edge">
<title>uri::https://example.org/tensile&#45;test/dom_thickness_fuzzy&#45;&gt;uri::https://w3id.org/sdata/core/TrapezoidalFuzzyDomain</title>
<path fill="none" stroke="#4a5568" stroke-width="1.2" d="M109.1,-1467.12C129.93,-1478.09 157.58,-1491.86 183,-1502 245.76,-1527.03 319.46,-1546.7 376.19,-1559.89"/>
<polygon fill="#4a5568" stroke="#4a5568" stroke-width="1.2" points="375.83,-1562.5 383.73,-1561.63 377.01,-1557.39 375.83,-1562.5"/>
<text text-anchor="middle" x="239.5" y="-1539.8" font-family="Helvetica,sans-Serif" font-size="9.00">rdf:type</text>
</g>
<!-- lit::1.25::http://www.w3.org/2001/XMLSchema#double:: -->
<g id="node26" class="node">
<title>lit::1.25::http://www.w3.org/2001/XMLSchema#double::</title>
<polygon fill="#fff9db" stroke="#b08900" stroke-width="1.2" points="490,-1532 442,-1532 442,-1496 496,-1496 496,-1526 490,-1532"/>
<polyline fill="none" stroke="#b08900" stroke-width="1.2" points="490,-1532 490,-1526 "/>
<polyline fill="none" stroke="#b08900" stroke-width="1.2" points="496,-1526 490,-1526 "/>
<text text-anchor="middle" x="469" y="-1511.5" font-family="Helvetica,sans-Serif" font-size="10.00" fill="#5c4500">1.25</text>
</g>
<!-- uri::https://example.org/tensile&#45;test/dom_thickness_fuzzy&#45;&gt;lit::1.25::http://www.w3.org/2001/XMLSchema#double:: -->
<g id="edge23" class="edge">
<title>uri::https://example.org/tensile&#45;test/dom_thickness_fuzzy&#45;&gt;lit::1.25::http://www.w3.org/2001/XMLSchema#double::</title>
<path fill="none" stroke="#4a5568" stroke-width="1.2" d="M144.73,-1460.4C229.55,-1474.46 370.4,-1497.82 434.45,-1508.44"/>
<polygon fill="#4a5568" stroke="#4a5568" stroke-width="1.2" points="434.04,-1511.03 441.87,-1509.67 434.9,-1505.85 434.04,-1511.03"/>
<text text-anchor="middle" x="239.5" y="-1487.8" font-family="Helvetica,sans-Serif" font-size="9.00">sdata:fuzzyCoreRight</text>
</g>
<!-- lit::1.05::http://www.w3.org/2001/XMLSchema#double:: -->
<g id="node27" class="node">
<title>lit::1.05::http://www.w3.org/2001/XMLSchema#double::</title>
<polygon fill="#fff9db" stroke="#b08900" stroke-width="1.2" points="490,-1467 442,-1467 442,-1431 496,-1431 496,-1461 490,-1467"/>
<polyline fill="none" stroke="#b08900" stroke-width="1.2" points="490,-1467 490,-1461 "/>
<polyline fill="none" stroke="#b08900" stroke-width="1.2" points="496,-1461 490,-1461 "/>
<text text-anchor="middle" x="469" y="-1446.5" font-family="Helvetica,sans-Serif" font-size="10.00" fill="#5c4500">1.05</text>
</g>
<!-- uri::https://example.org/tensile&#45;test/dom_thickness_fuzzy&#45;&gt;lit::1.05::http://www.w3.org/2001/XMLSchema#double:: -->
<g id="edge24" class="edge">
<title>uri::https://example.org/tensile&#45;test/dom_thickness_fuzzy&#45;&gt;lit::1.05::http://www.w3.org/2001/XMLSchema#double::</title>
<path fill="none" stroke="#4a5568" stroke-width="1.2" d="M144.73,-1449C229.38,-1449 369.83,-1449 434.06,-1449"/>
<polygon fill="#4a5568" stroke="#4a5568" stroke-width="1.2" points="434.37,-1451.63 441.87,-1449 434.37,-1446.38 434.37,-1451.63"/>
<text text-anchor="middle" x="239.5" y="-1451.8" font-family="Helvetica,sans-Serif" font-size="9.00">sdata:fuzzyLeft</text>
</g>
<!-- lit::1.35::http://www.w3.org/2001/XMLSchema#double:: -->
<g id="node28" class="node">
<title>lit::1.35::http://www.w3.org/2001/XMLSchema#double::</title>
<polygon fill="#fff9db" stroke="#b08900" stroke-width="1.2" points="490,-1402 442,-1402 442,-1366 496,-1366 496,-1396 490,-1402"/>
<polyline fill="none" stroke="#b08900" stroke-width="1.2" points="490,-1402 490,-1396 "/>
<polyline fill="none" stroke="#b08900" stroke-width="1.2" points="496,-1396 490,-1396 "/>
<text text-anchor="middle" x="469" y="-1381.5" font-family="Helvetica,sans-Serif" font-size="10.00" fill="#5c4500">1.35</text>
</g>
<!-- uri::https://example.org/tensile&#45;test/dom_thickness_fuzzy&#45;&gt;lit::1.35::http://www.w3.org/2001/XMLSchema#double:: -->
<g id="edge25" class="edge">
<title>uri::https://example.org/tensile&#45;test/dom_thickness_fuzzy&#45;&gt;lit::1.35::http://www.w3.org/2001/XMLSchema#double::</title>
<path fill="none" stroke="#4a5568" stroke-width="1.2" d="M144.73,-1437.6C229.55,-1423.54 370.4,-1400.18 434.45,-1389.56"/>
<polygon fill="#4a5568" stroke="#4a5568" stroke-width="1.2" points="434.9,-1392.15 441.87,-1388.33 434.04,-1386.97 434.9,-1392.15"/>
<text text-anchor="middle" x="239.5" y="-1431.8" font-family="Helvetica,sans-Serif" font-size="9.00">sdata:fuzzyRight</text>
</g>
<!-- lit::Sheet thickness 1.2 mm — soft tolerance for simulation::::en -->
<g id="node29" class="node">
<title>lit::Sheet thickness 1.2 mm — soft tolerance for simulation::::en</title>
<polygon fill="#fff9db" stroke="#b08900" stroke-width="1.2" points="595.5,-1337 336.5,-1337 336.5,-1301 601.5,-1301 601.5,-1331 595.5,-1337"/>
<polyline fill="none" stroke="#b08900" stroke-width="1.2" points="595.5,-1337 595.5,-1331 "/>
<polyline fill="none" stroke="#b08900" stroke-width="1.2" points="601.5,-1331 595.5,-1331 "/>
<text text-anchor="middle" x="469" y="-1316.5" font-family="Helvetica,sans-Serif" font-size="10.00" fill="#5c4500">Sheet thickness 1.2 mm — soft tolerance for sim...</text>
</g>
<!-- uri::https://example.org/tensile&#45;test/dom_thickness_fuzzy&#45;&gt;lit::Sheet thickness 1.2 mm — soft tolerance for simulation::::en -->
<g id="edge26" class="edge">
<title>uri::https://example.org/tensile&#45;test/dom_thickness_fuzzy&#45;&gt;lit::Sheet thickness 1.2 mm — soft tolerance for simulation::::en</title>
<path fill="none" stroke="#4a5568" stroke-width="1.2" d="M108.08,-1430.89C128.97,-1419.58 157.07,-1405.26 183,-1395 244.18,-1370.79 315.73,-1351.73 371.84,-1338.76"/>
<polygon fill="#4a5568" stroke="#4a5568" stroke-width="1.2" points="372.58,-1341.29 379.3,-1337.05 371.41,-1336.17 372.58,-1341.29"/>
<text text-anchor="middle" x="239.5" y="-1397.8" font-family="Helvetica,sans-Serif" font-size="9.00">sdata:domainDescription</text>
</g>
<!-- lit::Blechdicke 1.2 mm — weiche Toleranz für Simulation::::de -->
<g id="node30" class="node">
<title>lit::Blechdicke 1.2 mm — weiche Toleranz für Simulation::::de</title>
<polygon fill="#fff9db" stroke="#b08900" stroke-width="1.2" points="601.5,-1272 330.5,-1272 330.5,-1236 607.5,-1236 607.5,-1266 601.5,-1272"/>
<polyline fill="none" stroke="#b08900" stroke-width="1.2" points="601.5,-1272 601.5,-1266 "/>
<polyline fill="none" stroke="#b08900" stroke-width="1.2" points="607.5,-1266 601.5,-1266 "/>
<text text-anchor="middle" x="469" y="-1251.5" font-family="Helvetica,sans-Serif" font-size="10.00" fill="#5c4500">Blechdicke 1.2 mm — weiche Toleranz für Simulation</text>
</g>
<!-- uri::https://example.org/tensile&#45;test/dom_thickness_fuzzy&#45;&gt;lit::Blechdicke 1.2 mm — weiche Toleranz für Simulation::::de -->
<g id="edge27" class="edge">
<title>uri::https://example.org/tensile&#45;test/dom_thickness_fuzzy&#45;&gt;lit::Blechdicke 1.2 mm — weiche Toleranz für Simulation::::de</title>
<path fill="none" stroke="#4a5568" stroke-width="1.2" d="M90.08,-1430.72C108.96,-1407.3 144.59,-1366.78 183,-1342 234.96,-1308.49 300.44,-1287.1 355.53,-1273.81"/>
<polygon fill="#4a5568" stroke="#4a5568" stroke-width="1.2" points="356.19,-1276.35 362.88,-1272.06 354.98,-1271.24 356.19,-1276.35"/>
<text text-anchor="middle" x="239.5" y="-1344.8" font-family="Helvetica,sans-Serif" font-size="9.00">sdata:domainDescription</text>
</g>
</g>
</svg>
