<?xml version="1.0" encoding="UTF-8" standalone="no"?>
<!DOCTYPE svg PUBLIC "-//W3C//DTD SVG 1.1//EN"
 "http://www.w3.org/Graphics/SVG/1.1/DTD/svg11.dtd">
<!-- Generated by graphviz version 2.43.0 (0)
 -->
<!-- Pages: 1 -->
<svg width="659pt" height="1740pt"
 viewBox="0.00 0.00 659.40 1740.40" xmlns="http://www.w3.org/2000/svg" xmlns:xlink="http://www.w3.org/1999/xlink">
<g id="graph0" class="graph" transform="scale(1 1) rotate(0) translate(25.2 1715.2)">
<polygon fill="#fafbfc" stroke="transparent" points="-25.2,25.2 -25.2,-1715.2 634.2,-1715.2 634.2,25.2 -25.2,25.2"/>
<text text-anchor="middle" x="304.5" y="-1671.6" font-family="Helvetica,sans-Serif" font-size="18.00">TTL Graph: AttributeQuantityValue_sheetthickness.ttl</text>
<!-- uri::https://example.org/tensile&#45;test/attr_thickness -->
<g id="node1" class="node">
<title>uri::https://example.org/tensile&#45;test/attr_thickness</title>
<path fill="#e3f2fd" stroke="#1976d2" stroke-width="1.2" d="M114.5,-590C114.5,-590 35.5,-590 35.5,-590 29.5,-590 23.5,-584 23.5,-578 23.5,-578 23.5,-566 23.5,-566 23.5,-560 29.5,-554 35.5,-554 35.5,-554 114.5,-554 114.5,-554 120.5,-554 126.5,-560 126.5,-566 126.5,-566 126.5,-578 126.5,-578 126.5,-584 120.5,-590 114.5,-590"/>
<text text-anchor="middle" x="75" y="-569.5" font-family="Helvetica,sans-Serif" font-size="10.00" fill="#0d47a1">ex:attr_thickness</text>
</g>
<!-- lit::Blechdicke::::de -->
<g id="node2" class="node">
<title>lit::Blechdicke::::de</title>
<polygon fill="#fff9db" stroke="#b08900" stroke-width="1.2" points="498.5,-557 433.5,-557 433.5,-521 504.5,-521 504.5,-551 498.5,-557"/>
<polyline fill="none" stroke="#b08900" stroke-width="1.2" points="498.5,-557 498.5,-551 "/>
<polyline fill="none" stroke="#b08900" stroke-width="1.2" points="504.5,-551 498.5,-551 "/>
<text text-anchor="middle" x="469" y="-536.5" font-family="Helvetica,sans-Serif" font-size="10.00" fill="#5c4500">Blechdicke</text>
</g>
<!-- uri::https://example.org/tensile&#45;test/attr_thickness&#45;&gt;lit::Blechdicke::::de -->
<g id="edge1" class="edge">
<title>uri::https://example.org/tensile&#45;test/attr_thickness&#45;&gt;lit::Blechdicke::::de</title>
<path fill="none" stroke="#4a5568" stroke-width="1.2" d="M126.85,-567.72C205,-561.14 353.2,-548.66 425.79,-542.55"/>
<polygon fill="#4a5568" stroke="#4a5568" stroke-width="1.2" points="426.16,-545.16 433.42,-541.91 425.72,-539.92 426.16,-545.16"/>
<text text-anchor="middle" x="239.5" y="-564.8" font-family="Helvetica,sans-Serif" font-size="9.00">rdfs:label</text>
</g>
<!-- lit::float:::: -->
<g id="node3" class="node">
<title>lit::float::::</title>
<polygon fill="#fff9db" stroke="#b08900" stroke-width="1.2" points="490,-492 442,-492 442,-456 496,-456 496,-486 490,-492"/>
<polyline fill="none" stroke="#b08900" stroke-width="1.2" points="490,-492 490,-486 "/>
<polyline fill="none" stroke="#b08900" stroke-width="1.2" points="496,-486 490,-486 "/>
<text text-anchor="middle" x="469" y="-471.5" font-family="Helvetica,sans-Serif" font-size="10.00" fill="#5c4500">float</text>
</g>
<!-- uri::https://example.org/tensile&#45;test/attr_thickness&#45;&gt;lit::float:::: -->
<g id="edge2" class="edge">
<title>uri::https://example.org/tensile&#45;test/attr_thickness&#45;&gt;lit::float::::</title>
<path fill="none" stroke="#4a5568" stroke-width="1.2" d="M125.73,-554C143.65,-547.85 164.11,-541.22 183,-536 272.79,-511.21 380.7,-490.03 434.32,-480.08"/>
<polygon fill="#4a5568" stroke="#4a5568" stroke-width="1.2" points="434.93,-482.63 441.83,-478.69 433.98,-477.47 434.93,-482.63"/>
<text text-anchor="middle" x="239.5" y="-538.8" font-family="Helvetica,sans-Serif" font-size="9.00">sdata:dtype</text>
</g>
<!-- lit::t:::: -->
<g id="node4" class="node">
<title>lit::t::::</title>
<polygon fill="#fff9db" stroke="#b08900" stroke-width="1.2" points="490,-427 442,-427 442,-391 496,-391 496,-421 490,-427"/>
<polyline fill="none" stroke="#b08900" stroke-width="1.2" points="490,-427 490,-421 "/>
<polyline fill="none" stroke="#b08900" stroke-width="1.2" points="496,-421 490,-421 "/>
<text text-anchor="middle" x="469" y="-406.5" font-family="Helvetica,sans-Serif" font-size="10.00" fill="#5c4500">t</text>
</g>
<!-- uri::https://example.org/tensile&#45;test/attr_thickness&#45;&gt;lit::t:::: -->
<g id="edge3" class="edge">
<title>uri::https://example.org/tensile&#45;test/attr_thickness&#45;&gt;lit::t::::</title>
<path fill="none" stroke="#4a5568" stroke-width="1.2" d="M96.4,-553.67C117.01,-535.91 150.39,-509.23 183,-492 267.48,-447.38 379.06,-423.86 434.19,-414.28"/>
<polygon fill="#4a5568" stroke="#4a5568" stroke-width="1.2" points="434.95,-416.81 441.9,-412.96 434.07,-411.63 434.95,-416.81"/>
<text text-anchor="middle" x="239.5" y="-494.8" font-family="Helvetica,sans-Serif" font-size="9.00">sdata:name</text>
</g>
<!-- lit::1.2::http://www.w3.org/2001/XMLSchema#double:: -->
<g id="node5" class="node">
<title>lit::1.2::http://www.w3.org/2001/XMLSchema#double::</title>
<polygon fill="#fff9db" stroke="#b08900" stroke-width="1.2" points="490,-297 442,-297 442,-261 496,-261 496,-291 490,-297"/>
<polyline fill="none" stroke="#b08900" stroke-width="1.2" points="490,-297 490,-291 "/>
<polyline fill="none" stroke="#b08900" stroke-width="1.2" points="496,-291 490,-291 "/>
<text text-anchor="middle" x="469" y="-276.5" font-family="Helvetica,sans-Serif" font-size="10.00" fill="#5c4500">1.2</text>
</g>
<!-- uri::https://example.org/tensile&#45;test/attr_thickness&#45;&gt;lit::1.2::http://www.w3.org/2001/XMLSchema#double:: -->
<g id="edge4" class="edge">
<title>uri::https://example.org/tensile&#45;test/attr_thickness&#45;&gt;lit::1.2::http://www.w3.org/2001/XMLSchema#double::</title>
<path fill="none" stroke="#4a5568" stroke-width="1.2" d="M80.22,-553.86C90.57,-513.37 121.01,-414.9 183,-361 256.1,-297.44 375.7,-283.01 433.96,-279.83"/>
<polygon fill="#4a5568" stroke="#4a5568" stroke-width="1.2" points="434.4,-282.44 441.76,-279.45 434.14,-277.2 434.4,-282.44"/>
<text text-anchor="middle" x="239.5" y="-363.8" font-family="Helvetica,sans-Serif" font-size="9.00">qudt:numericValue</text>
</g>
<!-- uri::http://qudt.org/vocab/unit/MilliM -->
<g id="node6" class="node">
<title>uri::http://qudt.org/vocab/unit/MilliM</title>
<path fill="#ffffff" stroke="#78909c" stroke-width="1.2" d="M492,-362C492,-362 446,-362 446,-362 440,-362 434,-356 434,-350 434,-350 434,-338 434,-338 434,-332 440,-326 446,-326 446,-326 492,-326 492,-326 498,-326 504,-332 504,-338 504,-338 504,-350 504,-350 504,-356 498,-362 492,-362"/>
<text text-anchor="middle" x="469" y="-341.5" font-family="Helvetica,sans-Serif" font-size="10.00" fill="#37474f">unit:MilliM</text>
</g>
<!-- uri::https://example.org/tensile&#45;test/attr_thickness&#45;&gt;uri::http://qudt.org/vocab/unit/MilliM -->
<g id="edge5" class="edge">
<title>uri::https://example.org/tensile&#45;test/attr_thickness&#45;&gt;uri::http://qudt.org/vocab/unit/MilliM</title>
<path fill="none" stroke="#4a5568" stroke-width="1.2" d="M85.38,-553.94C101.54,-524.47 137.33,-465.95 183,-432 257.38,-376.71 367.05,-355.72 426.31,-348.09"/>
<polygon fill="#4a5568" stroke="#4a5568" stroke-width="1.2" points="426.86,-350.67 433.99,-347.14 426.22,-345.46 426.86,-350.67"/>
<text text-anchor="middle" x="239.5" y="-434.8" font-family="Helvetica,sans-Serif" font-size="9.00">qudt:unit</text>
</g>
<!-- lit::Sheet Thickness::::en -->
<g id="node7" class="node">
<title>lit::Sheet Thickness::::en</title>
<polygon fill="#fff9db" stroke="#b08900" stroke-width="1.2" points="512,-882 420,-882 420,-846 518,-846 518,-876 512,-882"/>
<polyline fill="none" stroke="#b08900" stroke-width="1.2" points="512,-882 512,-876 "/>
<polyline fill="none" stroke="#b08900" stroke-width="1.2" points="518,-876 512,-876 "/>
<text text-anchor="middle" x="469" y="-861.5" font-family="Helvetica,sans-Serif" font-size="10.00" fill="#5c4500">Sheet Thickness</text>
</g>
<!-- uri::https://example.org/tensile&#45;test/attr_thickness&#45;&gt;lit::Sheet Thickness::::en -->
<g id="edge6" class="edge">
<title>uri::https://example.org/tensile&#45;test/attr_thickness&#45;&gt;lit::Sheet Thickness::::en</title>
<path fill="none" stroke="#4a5568" stroke-width="1.2" d="M80.43,-590.13C91.11,-630.13 122.03,-726.65 183,-780 247.77,-836.69 349.19,-855.16 411.96,-861.16"/>
<polygon fill="#4a5568" stroke="#4a5568" stroke-width="1.2" points="412.09,-863.8 419.8,-861.86 412.56,-858.58 412.09,-863.8"/>
<text text-anchor="middle" x="239.5" y="-840.8" font-family="Helvetica,sans-Serif" font-size="9.00">rdfs:label</text>
</g>
<!-- uri::https://w3id.org/sdata/core/AttributeQuantityValue -->
<g id="node8" class="node">
<title>uri::https://w3id.org/sdata/core/AttributeQuantityValue</title>
<path fill="#f3e8ff" stroke="#7e57c2" stroke-width="1.2" d="M537,-817C537,-817 401,-817 401,-817 395,-817 389,-811 389,-805 389,-805 389,-793 389,-793 389,-787 395,-781 401,-781 401,-781 537,-781 537,-781 543,-781 549,-787 549,-793 549,-793 549,-805 549,-805 549,-811 543,-817 537,-817"/>
<text text-anchor="middle" x="469" y="-796.5" font-family="Helvetica,sans-Serif" font-size="10.00" fill="#4527a0">sdata:AttributeQuantityValue</text>
</g>
<!-- uri::https://example.org/tensile&#45;test/attr_thickness&#45;&gt;uri::https://w3id.org/sdata/core/AttributeQuantityValue -->
<g id="edge7" class="edge">
<title>uri::https://example.org/tensile&#45;test/attr_thickness&#45;&gt;uri::https://w3id.org/sdata/core/AttributeQuantityValue</title>
<path fill="none" stroke="#4a5568" stroke-width="1.2" d="M85.81,-590.04C102.34,-618.89 138.32,-675.53 183,-709 241.14,-752.56 320.94,-775.39 381.31,-787.14"/>
<polygon fill="#4a5568" stroke="#4a5568" stroke-width="1.2" points="381.09,-789.77 388.94,-788.59 382.06,-784.61 381.09,-789.77"/>
<text text-anchor="middle" x="239.5" y="-765.8" font-family="Helvetica,sans-Serif" font-size="9.00">rdf:type</text>
</g>
<!-- lit::Initial sheet thickness of the tensile specimen before testing::::en -->
<g id="node9" class="node">
<title>lit::Initial sheet thickness of the tensile specimen before testing::::en</title>
<polygon fill="#fff9db" stroke="#b08900" stroke-width="1.2" points="589.5,-752 342.5,-752 342.5,-716 595.5,-716 595.5,-746 589.5,-752"/>
<polyline fill="none" stroke="#b08900" stroke-width="1.2" points="589.5,-752 589.5,-746 "/>
<polyline fill="none" stroke="#b08900" stroke-width="1.2" points="595.5,-746 589.5,-746 "/>
<text text-anchor="middle" x="469" y="-731.5" font-family="Helvetica,sans-Serif" font-size="10.00" fill="#5c4500">Initial sheet thickness of the tensile specimen...</text>
</g>
<!-- uri::https://example.org/tensile&#45;test/attr_thickness&#45;&gt;lit::Initial sheet thickness of the tensile specimen before testing::::en -->
<g id="edge8" class="edge">
<title>uri::https://example.org/tensile&#45;test/attr_thickness&#45;&gt;lit::Initial sheet thickness of the tensile specimen before testing::::en</title>
<path fill="none" stroke="#4a5568" stroke-width="1.2" d="M97.38,-590.11C118.18,-607.06 151.23,-632.22 183,-649 240.78,-679.52 311.09,-700.64 367.42,-714.2"/>
<polygon fill="#4a5568" stroke="#4a5568" stroke-width="1.2" points="367.02,-716.8 374.92,-715.98 368.23,-711.69 367.02,-716.8"/>
<text text-anchor="middle" x="239.5" y="-694.8" font-family="Helvetica,sans-Serif" font-size="9.00">sdata:description</text>
</g>
<!-- lit::mm:::: -->
<g id="node10" class="node">
<title>lit::mm::::</title>
<polygon fill="#fff9db" stroke="#b08900" stroke-width="1.2" points="490,-687 442,-687 442,-651 496,-651 496,-681 490,-687"/>
<polyline fill="none" stroke="#b08900" stroke-width="1.2" points="490,-687 490,-681 "/>
<polyline fill="none" stroke="#b08900" stroke-width="1.2" points="496,-681 490,-681 "/>
<text text-anchor="middle" x="469" y="-666.5" font-family="Helvetica,sans-Serif" font-size="10.00" fill="#5c4500">mm</text>
</g>
<!-- uri::https://example.org/tensile&#45;test/attr_thickness&#45;&gt;lit::mm:::: -->
<g id="edge9" class="edge">
<title>uri::https://example.org/tensile&#45;test/attr_thickness&#45;&gt;lit::mm::::</title>
<path fill="none" stroke="#4a5568" stroke-width="1.2" d="M126.61,-589.11C144.35,-594.83 164.46,-601.02 183,-606 273.02,-630.2 380.83,-652.15 434.38,-662.59"/>
<polygon fill="#4a5568" stroke="#4a5568" stroke-width="1.2" points="434.01,-665.19 441.87,-664.04 435.01,-660.04 434.01,-665.19"/>
<text text-anchor="middle" x="239.5" y="-634.8" font-family="Helvetica,sans-Serif" font-size="9.00">sdata:unitSymbol</text>
</g>
<!-- lit::Ausgangsblechdicke der Zugprobe vor dem Versuch::::de -->
<g id="node11" class="node">
<title>lit::Ausgangsblechdicke der Zugprobe vor dem Versuch::::de</title>
<polygon fill="#fff9db" stroke="#b08900" stroke-width="1.2" points="598.5,-622 333.5,-622 333.5,-586 604.5,-586 604.5,-616 598.5,-622"/>
<polyline fill="none" stroke="#b08900" stroke-width="1.2" points="598.5,-622 598.5,-616 "/>
<polyline fill="none" stroke="#b08900" stroke-width="1.2" points="604.5,-616 598.5,-616 "/>
<text text-anchor="middle" x="469" y="-601.5" font-family="Helvetica,sans-Serif" font-size="10.00" fill="#5c4500">Ausgangsblechdicke der Zugprobe vor dem Versuch</text>
</g>
<!-- uri::https://example.org/tensile&#45;test/attr_thickness&#45;&gt;lit::Ausgangsblechdicke der Zugprobe vor dem Versuch::::de -->
<g id="edge10" class="edge">
<title>uri::https://example.org/tensile&#45;test/attr_thickness&#45;&gt;lit::Ausgangsblechdicke der Zugprobe vor dem Versuch::::de</title>
<path fill="none" stroke="#4a5568" stroke-width="1.2" d="M126.85,-576.15C177.11,-580.25 256.36,-586.72 325.83,-592.39"/>
<polygon fill="#4a5568" stroke="#4a5568" stroke-width="1.2" points="325.7,-595.02 333.39,-593.01 326.13,-589.78 325.7,-595.02"/>
<text text-anchor="middle" x="239.5" y="-591.8" font-family="Helvetica,sans-Serif" font-size="9.00">sdata:description</text>
</g>
<!-- uri::https://example.org/tensile&#45;test/dom_thickness_interval -->
<g id="node12" class="node">
<title>uri::https://example.org/tensile&#45;test/dom_thickness_interval</title>
<path fill="#e3f2fd" stroke="#1976d2" stroke-width="1.2" d="M138,-1077C138,-1077 12,-1077 12,-1077 6,-1077 0,-1071 0,-1065 0,-1065 0,-1053 0,-1053 0,-1047 6,-1041 12,-1041 12,-1041 138,-1041 138,-1041 144,-1041 150,-1047 150,-1053 150,-1053 150,-1065 150,-1065 150,-1071 144,-1077 138,-1077"/>
<text text-anchor="middle" x="75" y="-1056.5" font-family="Helvetica,sans-Serif" font-size="10.00" fill="#0d47a1">ex:dom_thickness_interval</text>
</g>
<!-- lit::Blechdicke 1.2 ± 0.1 mm — harte Toleranzgrenzen::::de -->
<g id="node13" class="node">
<title>lit::Blechdicke 1.2 ± 0.1 mm — harte Toleranzgrenzen::::de</title>
<polygon fill="#fff9db" stroke="#b08900" stroke-width="1.2" points="595.5,-1207 336.5,-1207 336.5,-1171 601.5,-1171 601.5,-1201 595.5,-1207"/>
<polyline fill="none" stroke="#b08900" stroke-width="1.2" points="595.5,-1207 595.5,-1201 "/>
<polyline fill="none" stroke="#b08900" stroke-width="1.2" points="601.5,-1201 595.5,-1201 "/>
<text text-anchor="middle" x="469" y="-1186.5" font-family="Helvetica,sans-Serif" font-size="10.00" fill="#5c4500">Blechdicke 1.2 ± 0.1 mm — harte Toleranzgrenzen</text>
</g>
<!-- uri::https://example.org/tensile&#45;test/dom_thickness_interval&#45;&gt;lit::Blechdicke 1.2 ± 0.1 mm — harte Toleranzgrenzen::::de -->
<g id="edge11" class="edge">
<title>uri::https://example.org/tensile&#45;test/dom_thickness_interval&#45;&gt;lit::Blechdicke 1.2 ± 0.1 mm — harte Toleranzgrenzen::::de</title>
<path fill="none" stroke="#4a5568" stroke-width="1.2" d="M109.1,-1077.12C129.93,-1088.09 157.58,-1101.86 183,-1112 244.74,-1136.62 317.06,-1156.05 373.4,-1169.24"/>
<polygon fill="#4a5568" stroke="#4a5568" stroke-width="1.2" points="372.99,-1171.84 380.89,-1170.98 374.18,-1166.73 372.99,-1171.84"/>
<text text-anchor="middle" x="239.5" y="-1149.8" font-family="Helvetica,sans-Serif" font-size="9.00">sdata:domainDescription</text>
</g>
<!-- lit::1.3::http://www.w3.org/2001/XMLSchema#double:: -->
<g id="node14" class="node">
<title>lit::1.3::http://www.w3.org/2001/XMLSchema#double::</title>
<polygon fill="#fff9db" stroke="#b08900" stroke-width="1.2" points="490,-1142 442,-1142 442,-1106 496,-1106 496,-1136 490,-1142"/>
<polyline fill="none" stroke="#b08900" stroke-width="1.2" points="490,-1142 490,-1136 "/>
<polyline fill="none" stroke="#b08900" stroke-width="1.2" points="496,-1136 490,-1136 "/>
<text text-anchor="middle" x="469" y="-1121.5" font-family="Helvetica,sans-Serif" font-size="10.00" fill="#5c4500">1.3</text>
</g>
<!-- uri::https://example.org/tensile&#45;test/dom_thickness_interval&#45;&gt;lit::1.3::http://www.w3.org/2001/XMLSchema#double:: -->
<g id="edge12" class="edge">
<title>uri::https://example.org/tensile&#45;test/dom_thickness_interval&#45;&gt;lit::1.3::http://www.w3.org/2001/XMLSchema#double::</title>
<path fill="none" stroke="#4a5568" stroke-width="1.2" d="M150.19,-1071.3C235.34,-1085.42 371.29,-1107.96 434.12,-1118.38"/>
<polygon fill="#4a5568" stroke="#4a5568" stroke-width="1.2" points="433.95,-1121.01 441.78,-1119.65 434.81,-1115.84 433.95,-1121.01"/>
<text text-anchor="middle" x="239.5" y="-1097.8" font-family="Helvetica,sans-Serif" font-size="9.00">sdata:maxValue</text>
</g>
<!-- uri::https://w3id.org/sdata/core/IntervalDomain -->
<g id="node15" class="node">
<title>uri::https://w3id.org/sdata/core/IntervalDomain</title>
<path fill="#f3e8ff" stroke="#7e57c2" stroke-width="1.2" d="M519,-1077C519,-1077 419,-1077 419,-1077 413,-1077 407,-1071 407,-1065 407,-1065 407,-1053 407,-1053 407,-1047 413,-1041 419,-1041 419,-1041 519,-1041 519,-1041 525,-1041 531,-1047 531,-1053 531,-1053 531,-1065 531,-1065 531,-1071 525,-1077 519,-1077"/>
<text text-anchor="middle" x="469" y="-1056.5" font-family="Helvetica,sans-Serif" font-size="10.00" fill="#4527a0">sdata:IntervalDomain</text>
</g>
<!-- uri::https://example.org/tensile&#45;test/dom_thickness_interval&#45;&gt;uri::https://w3id.org/sdata/core/IntervalDomain -->
<g id="edge13" class="edge">
<title>uri::https://example.org/tensile&#45;test/dom_thickness_interval&#45;&gt;uri::https://w3id.org/sdata/core/IntervalDomain</title>
<path fill="none" stroke="#4a5568" stroke-width="1.2" d="M150.19,-1059C221.79,-1059 329.32,-1059 399.08,-1059"/>
<polygon fill="#4a5568" stroke="#4a5568" stroke-width="1.2" points="399.48,-1061.63 406.98,-1059 399.48,-1056.38 399.48,-1061.63"/>
<text text-anchor="middle" x="239.5" y="-1061.8" font-family="Helvetica,sans-Serif" font-size="9.00">rdf:type</text>
</g>
<!-- lit::1.1::http://www.w3.org/2001/XMLSchema#double:: -->
<g id="node16" class="node">
<title>lit::1.1::http://www.w3.org/2001/XMLSchema#double::</title>
<polygon fill="#fff9db" stroke="#b08900" stroke-width="1.2" points="490,-1012 442,-1012 442,-976 496,-976 496,-1006 490,-1012"/>
<polyline fill="none" stroke="#b08900" stroke-width="1.2" points="490,-1012 490,-1006 "/>
<polyline fill="none" stroke="#b08900" stroke-width="1.2" points="496,-1006 490,-1006 "/>
<text text-anchor="middle" x="469" y="-991.5" font-family="Helvetica,sans-Serif" font-size="10.00" fill="#5c4500">1.1</text>
</g>
<!-- uri::https://example.org/tensile&#45;test/dom_thickness_interval&#45;&gt;lit::1.1::http://www.w3.org/2001/XMLSchema#double:: -->
<g id="edge14" class="edge">
<title>uri::https://example.org/tensile&#45;test/dom_thickness_interval&#45;&gt;lit::1.1::http://www.w3.org/2001/XMLSchema#double::</title>
<path fill="none" stroke="#4a5568" stroke-width="1.2" d="M150.19,-1046.7C235.34,-1032.58 371.29,-1010.04 434.12,-999.62"/>
<polygon fill="#4a5568" stroke="#4a5568" stroke-width="1.2" points="434.81,-1002.16 441.78,-998.35 433.95,-996.99 434.81,-1002.16"/>
<text text-anchor="middle" x="239.5" y="-1041.8" font-family="Helvetica,sans-Serif" font-size="9.00">sdata:minValue</text>
</g>
<!-- lit::Sheet thickness 1.2 ± 0.1 mm — hard tolerance limits::::en -->
<g id="node17" class="node">
<title>lit::Sheet thickness 1.2 ± 0.1 mm — hard tolerance limits::::en</title>
<polygon fill="#fff9db" stroke="#b08900" stroke-width="1.2" points="596.5,-947 335.5,-947 335.5,-911 602.5,-911 602.5,-941 596.5,-947"/>
<polyline fill="none" stroke="#b08900" stroke-width="1.2" points="596.5,-947 596.5,-941 "/>
<polyline fill="none" stroke="#b08900" stroke-width="1.2" points="602.5,-941 596.5,-941 "/>
<text text-anchor="middle" x="469" y="-926.5" font-family="Helvetica,sans-Serif" font-size="10.00" fill="#5c4500">Sheet thickness 1.2 ± 0.1 mm — hard tolerance l...</text>
</g>
<!-- uri::https://example.org/tensile&#45;test/dom_thickness_interval&#45;&gt;lit::Sheet thickness 1.2 ± 0.1 mm — hard tolerance limits::::en -->
<g id="edge15" class="edge">
<title>uri::https://example.org/tensile&#45;test/dom_thickness_interval&#45;&gt;lit::Sheet thickness 1.2 ± 0.1 mm — hard tolerance limits::::en</title>
<path fill="none" stroke="#4a5568" stroke-width="1.2" d="M108.08,-1040.89C128.97,-1029.58 157.07,-1015.26 183,-1005 244.18,-980.79 315.73,-961.73 371.84,-948.76"/>
<polygon fill="#4a5568" stroke="#4a5568" stroke-width="1.2" points="372.58,-951.29 379.3,-947.05 371.41,-946.17 372.58,-951.29"/>
<text text-anchor="middle" x="239.5" y="-1007.8" font-family="Helvetica,sans-Serif" font-size="9.00">sdata:domainDescription</text>
</g>
<!-- uri::https://example.org/tensile&#45;test/dom_thickness_normal -->
<g id="node18" class="node">
<title>uri::https://example.org/tensile&#45;test/dom_thickness_normal</title>
<path fill="#e3f2fd" stroke="#1976d2" stroke-width="1.2" d="M136.5,-166C136.5,-166 13.5,-166 13.5,-166 7.5,-166 1.5,-160 1.5,-154 1.5,-154 1.5,-142 1.5,-142 1.5,-136 7.5,-130 13.5,-130 13.5,-130 136.5,-130 136.5,-130 142.5,-130 148.5,-136 148.5,-142 148.5,-142 148.5,-154 148.5,-154 148.5,-160 142.5,-166 136.5,-166"/>
<text text-anchor="middle" x="75" y="-145.5" font-family="Helvetica,sans-Serif" font-size="10.00" fill="#0d47a1">ex:dom_thickness_normal</text>
</g>
<!-- uri::https://example.org/tensile&#45;test/dom_thickness_normal&#45;&gt;lit::1.2::http://www.w3.org/2001/XMLSchema#double:: -->
<g id="edge16" class="edge">
<title>uri::https://example.org/tensile&#45;test/dom_thickness_normal&#45;&gt;lit::1.2::http://www.w3.org/2001/XMLSchema#double::</title>
<path fill="none" stroke="#4a5568" stroke-width="1.2" d="M108.08,-166.11C128.97,-177.42 157.07,-191.74 183,-202 270.89,-236.79 380.06,-261.42 434.24,-272.47"/>
<polygon fill="#4a5568" stroke="#4a5568" stroke-width="1.2" points="433.95,-275.09 441.82,-274 434.99,-269.94 433.95,-275.09"/>
<text text-anchor="middle" x="239.5" y="-240.8" font-family="Helvetica,sans-Serif" font-size="9.00">sdata:mu</text>
</g>
<!-- uri::https://w3id.org/sdata/core/NormalDomain -->
<g id="node19" class="node">
<title>uri::https://w3id.org/sdata/core/NormalDomain</title>
<path fill="#f3e8ff" stroke="#7e57c2" stroke-width="1.2" d="M518.5,-231C518.5,-231 419.5,-231 419.5,-231 413.5,-231 407.5,-225 407.5,-219 407.5,-219 407.5,-207 407.5,-207 407.5,-201 413.5,-195 419.5,-195 419.5,-195 518.5,-195 518.5,-195 524.5,-195 530.5,-201 530.5,-207 530.5,-207 530.5,-219 530.5,-219 530.5,-225 524.5,-231 518.5,-231"/>
<text text-anchor="middle" x="469" y="-210.5" font-family="Helvetica,sans-Serif" font-size="10.00" fill="#4527a0">sdata:NormalDomain</text>
</g>
<!-- uri::https://example.org/tensile&#45;test/dom_thickness_normal&#45;&gt;uri::https://w3id.org/sdata/core/NormalDomain -->
<g id="edge17" class="edge">
<title>uri::https://example.org/tensile&#45;test/dom_thickness_normal&#45;&gt;uri::https://w3id.org/sdata/core/NormalDomain</title>
<path fill="none" stroke="#4a5568" stroke-width="1.2" d="M148.81,-160.07C220.7,-171.99 329.76,-190.08 399.95,-201.72"/>
<polygon fill="#4a5568" stroke="#4a5568" stroke-width="1.2" points="399.64,-204.32 407.46,-202.96 400.49,-199.15 399.64,-204.32"/>
<text text-anchor="middle" x="239.5" y="-187.8" font-family="Helvetica,sans-Serif" font-size="9.00">rdf:type</text>
</g>
<!-- lit::Blechdicke normalverteilt, μ=1.2 mm, σ=0.033 mm (3σ=0.1 mm)::::de -->
<g id="node20" class="node">
<title>lit::Blechdicke normalverteilt, μ=1.2 mm, σ=0.033 mm (3σ=0.1 mm)::::de</title>
<polygon fill="#fff9db" stroke="#b08900" stroke-width="1.2" points="603,-166 329,-166 329,-130 609,-130 609,-160 603,-166"/>
<polyline fill="none" stroke="#b08900" stroke-width="1.2" points="603,-166 603,-160 "/>
<polyline fill="none" stroke="#b08900" stroke-width="1.2" points="609,-160 603,-160 "/>
<text text-anchor="middle" x="469" y="-145.5" font-family="Helvetica,sans-Serif" font-size="10.00" fill="#5c4500">Blechdicke normalverteilt, μ=1.2 mm, σ=0.033 mm...</text>
</g>
<!-- uri::https://example.org/tensile&#45;test/dom_thickness_normal&#45;&gt;lit::Blechdicke normalverteilt, μ=1.2 mm, σ=0.033 mm (3σ=0.1 mm)::::de -->
<g id="edge18" class="edge">
<title>uri::https://example.org/tensile&#45;test/dom_thickness_normal&#45;&gt;lit::Blechdicke normalverteilt, μ=1.2 mm, σ=0.033 mm (3σ=0.1 mm)::::de</title>
<path fill="none" stroke="#4a5568" stroke-width="1.2" d="M148.81,-148C197.23,-148 262.5,-148 321.4,-148"/>
<polygon fill="#4a5568" stroke="#4a5568" stroke-width="1.2" points="321.42,-150.63 328.92,-148 321.42,-145.38 321.42,-150.63"/>
<text text-anchor="middle" x="239.5" y="-150.8" font-family="Helvetica,sans-Serif" font-size="9.00">sdata:domainDescription</text>
</g>
<!-- lit::Sheet thickness normally distributed, μ=1.2 mm, σ=0.033 mm (3σ=0.1 mm)::::en -->
<g id="node21" class="node">
<title>lit::Sheet thickness normally distributed, μ=1.2 mm, σ=0.033 mm (3σ=0.1 mm)::::en</title>
<polygon fill="#fff9db" stroke="#b08900" stroke-width="1.2" points="597,-101 335,-101 335,-65 603,-65 603,-95 597,-101"/>
<polyline fill="none" stroke="#b08900" stroke-width="1.2" points="597,-101 597,-95 "/>
<polyline fill="none" stroke="#b08900" stroke-width="1.2" points="603,-95 597,-95 "/>
<text text-anchor="middle" x="469" y="-80.5" font-family="Helvetica,sans-Serif" font-size="10.00" fill="#5c4500">Sheet thickness normally distributed, μ=1.2 mm,...</text>
</g>
<!-- uri::https://example.org/tensile&#45;test/dom_thickness_normal&#45;&gt;lit::Sheet thickness normally distributed, μ=1.2 mm, σ=0.033 mm (3σ=0.1 mm)::::en -->
<g id="edge19" class="edge">
<title>uri::https://example.org/tensile&#45;test/dom_thickness_normal&#45;&gt;lit::Sheet thickness normally distributed, μ=1.2 mm, σ=0.033 mm (3σ=0.1 mm)::::en</title>
<path fill="none" stroke="#4a5568" stroke-width="1.2" d="M148.81,-135.93C205.74,-126.49 285.97,-113.18 351.76,-102.27"/>
<polygon fill="#4a5568" stroke="#4a5568" stroke-width="1.2" points="352.33,-104.84 359.3,-101.02 351.47,-99.66 352.33,-104.84"/>
<text text-anchor="middle" x="239.5" y="-131.8" font-family="Helvetica,sans-Serif" font-size="9.00">sdata:domainDescription</text>
</g>
<!-- lit::0.033::http://www.w3.org/2001/XMLSchema#double:: -->
<g id="node22" class="node">
<title>lit::0.033::http://www.w3.org/2001/XMLSchema#double::</title>
<polygon fill="#fff9db" stroke="#b08900" stroke-width="1.2" points="490,-36 442,-36 442,0 496,0 496,-30 490,-36"/>
<polyline fill="none" stroke="#b08900" stroke-width="1.2" points="490,-36 490,-30 "/>
<polyline fill="none" stroke="#b08900" stroke-width="1.2" points="496,-30 490,-30 "/>
<text text-anchor="middle" x="469" y="-15.5" font-family="Helvetica,sans-Serif" font-size="10.00" fill="#5c4500">0.033</text>
</g>
<!-- uri::https://example.org/tensile&#45;test/dom_thickness_normal&#45;&gt;lit::0.033::http://www.w3.org/2001/XMLSchema#double:: -->
<g id="edge20" class="edge">
<title>uri::https://example.org/tensile&#45;test/dom_thickness_normal&#45;&gt;lit::0.033::http://www.w3.org/2001/XMLSchema#double::</title>
<path fill="none" stroke="#4a5568" stroke-width="1.2" d="M109.1,-129.88C129.93,-118.91 157.58,-105.14 183,-95 270.8,-59.99 380.01,-35.46 434.22,-24.48"/>
<polygon fill="#4a5568" stroke="#4a5568" stroke-width="1.2" points="434.97,-27.01 441.81,-22.96 433.94,-21.86 434.97,-27.01"/>
<text text-anchor="middle" x="239.5" y="-97.8" font-family="Helvetica,sans-Serif" font-size="9.00">sdata:sigma</text>
</g>
<!-- uri::https://example.org/tensile&#45;test/dom_thickness_fuzzy -->
<g id="node23" class="node">
<title>uri::https://example.org/tensile&#45;test/dom_thickness_fuzzy</title>
<path fill="#e3f2fd" stroke="#1976d2" stroke-width="1.2" d="M132.5,-1467C132.5,-1467 17.5,-1467 17.5,-1467 11.5,-1467 5.5,-1461 5.5,-1455 5.5,-1455 5.5,-1443 5.5,-1443 5.5,-1437 11.5,-1431 17.5,-1431 17.5,-1431 132.5,-1431 132.5,-1431 138.5,-1431 144.5,-1437 144.5,-1443 144.5,-1443 144.5,-1455 144.5,-1455 144.5,-1461 138.5,-1467 132.5,-1467"/>
<text text-anchor="middle" x="75" y="-1446.5" font-family="Helvetica,sans-Serif" font-size="10.00" fill="#0d47a1">ex:dom_thickness_fuzzy</text>
</g>
<!-- lit::1.35::http://www.w3.org/2001/XMLSchema#double:: -->
<g id="node24" class="node">
<title>lit::1.35::http://www.w3.org/2001/XMLSchema#double::</title>
<polygon fill="#fff9db" stroke="#b08900" stroke-width="1.2" points="490,-1662 442,-1662 442,-1626 496,-1626 496,-1656 490,-1662"/>
<polyline fill="none" stroke="#b08900" stroke-width="1.2" points="490,-1662 490,-1656 "/>
<polyline fill="none" stroke="#b08900" stroke-width="1.2" points="496,-1656 490,-1656 "/>
<text text-anchor="middle" x="469" y="-1641.5" font-family="Helvetica,sans-Serif" font-size="10.00" fill="#5c4500">1.35</text>
</g>
<!-- uri::https://example.org/tensile&#45;test/dom_thickness_fuzzy&#45;&gt;lit::1.35::http://www.w3.org/2001/XMLSchema#double:: -->
<g id="edge21" class="edge">
<title>uri::https://example.org/tensile&#45;test/dom_thickness_fuzzy&#45;&gt;lit::1.35::http://www.w3.org/2001/XMLSchema#double::</title>
<path fill="none" stroke="#4a5568" stroke-width="1.2" d="M90.55,-1467.21C109.67,-1490.12 145.26,-1529.44 183,-1554 263.99,-1606.72 377.98,-1630.37 434.09,-1639.34"/>
<polygon fill="#4a5568" stroke="#4a5568" stroke-width="1.2" points="433.8,-1641.95 441.61,-1640.51 434.6,-1636.76 433.8,-1641.95"/>
<text text-anchor="middle" x="239.5" y="-1607.8" font-family="Helvetica,sans-Serif" font-size="9.00">sdata:fuzzyRight</text>
</g>
<!-- lit::1.05::http://www.w3.org/2001/XMLSchema#double:: -->
<g id="node25" class="node">
<title>lit::1.05::http://www.w3.org/2001/XMLSchema#double::</title>
<polygon fill="#fff9db" stroke="#b08900" stroke-width="1.2" points="490,-1597 442,-1597 442,-1561 496,-1561 496,-1591 490,-1597"/>
<polyline fill="none" stroke="#b08900" stroke-width="1.2" points="490,-1597 490,-1591 "/>
<polyline fill="none" stroke="#b08900" stroke-width="1.2" points="496,-1591 490,-1591 "/>
<text text-anchor="middle" x="469" y="-1576.5" font-family="Helvetica,sans-Serif" font-size="10.00" fill="#5c4500">1.05</text>
</g>
<!-- uri::https://example.org/tensile&#45;test/dom_thickness_fuzzy&#45;&gt;lit::1.05::http://www.w3.org/2001/XMLSchema#double:: -->
<g id="edge22" class="edge">
<title>uri::https://example.org/tensile&#45;test/dom_thickness_fuzzy&#45;&gt;lit::1.05::http://www.w3.org/2001/XMLSchema#double::</title>
<path fill="none" stroke="#4a5568" stroke-width="1.2" d="M109.1,-1467.12C129.93,-1478.09 157.58,-1491.86 183,-1502 270.8,-1537.01 380.01,-1561.54 434.22,-1572.52"/>
<polygon fill="#4a5568" stroke="#4a5568" stroke-width="1.2" points="433.94,-1575.14 441.81,-1574.04 434.97,-1569.99 433.94,-1575.14"/>
<text text-anchor="middle" x="239.5" y="-1539.8" font-family="Helvetica,sans-Serif" font-size="9.00">sdata:fuzzyLeft</text>
</g>
<!-- lit::Sheet thickness 1.2 mm — soft tolerance for simulation::::en -->
<g id="node26" class="node">
<title>lit::Sheet thickness 1.2 mm — soft tolerance for simulation::::en</title>
<polygon fill="#fff9db" stroke="#b08900" stroke-width="1.2" points="595.5,-1532 336.5,-1532 336.5,-1496 601.5,-1496 601.5,-1526 595.5,-1532"/>
<polyline fill="none" stroke="#b08900" stroke-width="1.2" points="595.5,-1532 595.5,-1526 "/>
<polyline fill="none" stroke="#b08900" stroke-width="1.2" points="601.5,-1526 595.5,-1526 "/>
<text text-anchor="middle" x="469" y="-1511.5" font-family="Helvetica,sans-Serif" font-size="10.00" fill="#5c4500">Sheet thickness 1.2 mm — soft tolerance for sim...</text>
</g>
<!-- uri::https://example.org/tensile&#45;test/dom_thickness_fuzzy&#45;&gt;lit::Sheet thickness 1.2 mm — soft tolerance for simulation::::en -->
<g id="edge23" class="edge">
<title>uri::https://example.org/tensile&#45;test/dom_thickness_fuzzy&#45;&gt;lit::Sheet thickness 1.2 mm — soft tolerance for simulation::::en</title>
<path fill="none" stroke="#4a5568" stroke-width="1.2" d="M144.73,-1460.4C201.82,-1469.86 284.28,-1483.54 351.63,-1494.7"/>
<polygon fill="#4a5568" stroke="#4a5568" stroke-width="1.2" points="351.52,-1497.35 359.35,-1495.98 352.38,-1492.17 351.52,-1497.35"/>
<text text-anchor="middle" x="239.5" y="-1487.8" font-family="Helvetica,sans-Serif" font-size="9.00">sdata:domainDescription</text>
</g>
<!-- lit::Blechdicke 1.2 mm — weiche Toleranz für Simulation::::de -->
<g id="node27" class="node">
<title>lit::Blechdicke 1.2 mm — weiche Toleranz für Simulation::::de</title>
<polygon fill="#fff9db" stroke="#b08900" stroke-width="1.2" points="601.5,-1467 330.5,-1467 330.5,-1431 607.5,-1431 607.5,-1461 601.5,-1467"/>
<polyline fill="none" stroke="#b08900" stroke-width="1.2" points="601.5,-1467 601.5,-1461 "/>
<polyline fill="none" stroke="#b08900" stroke-width="1.2" points="607.5,-1461 601.5,-1461 "/>
<text text-anchor="middle" x="469" y="-1446.5" font-family="Helvetica,sans-Serif" font-size="10.00" fill="#5c4500">Blechdicke 1.2 mm — weiche Toleranz für Simulation</text>
</g>
<!-- uri::https://example.org/tensile&#45;test/dom_thickness_fuzzy&#45;&gt;lit::Blechdicke 1.2 mm — weiche Toleranz für Simulation::::de -->
<g id="edge24" class="edge">
<title>uri::https://example.org/tensile&#45;test/dom_thickness_fuzzy&#45;&gt;lit::Blechdicke 1.2 mm — weiche Toleranz für Simulation::::de</title>
<path fill="none" stroke="#4a5568" stroke-width="1.2" d="M144.73,-1449C193.79,-1449 261.6,-1449 322.45,-1449"/>
<polygon fill="#4a5568" stroke="#4a5568" stroke-width="1.2" points="322.72,-1451.63 330.22,-1449 322.72,-1446.38 322.72,-1451.63"/>
<text text-anchor="middle" x="239.5" y="-1451.8" font-family="Helvetica,sans-Serif" font-size="9.00">sdata:domainDescription</text>
</g>
<!-- uri::https://w3id.org/sdata/core/TrapezoidalFuzzyDomain -->
<g id="node28" class="node">
<title>uri::https://w3id.org/sdata/core/TrapezoidalFuzzyDomain</title>
<path fill="#f3e8ff" stroke="#7e57c2" stroke-width="1.2" d="M542,-1402C542,-1402 396,-1402 396,-1402 390,-1402 384,-1396 384,-1390 384,-1390 384,-1378 384,-1378 384,-1372 390,-1366 396,-1366 396,-1366 542,-1366 542,-1366 548,-1366 554,-1372 554,-1378 554,-1378 554,-1390 554,-1390 554,-1396 548,-1402 542,-1402"/>
<text text-anchor="middle" x="469" y="-1381.5" font-family="Helvetica,sans-Serif" font-size="10.00" fill="#4527a0">sdata:TrapezoidalFuzzyDomain</text>
</g>
<!-- uri::https://example.org/tensile&#45;test/dom_thickness_fuzzy&#45;&gt;uri::https://w3id.org/sdata/core/TrapezoidalFuzzyDomain -->
<g id="edge25" class="edge">
<title>uri::https://example.org/tensile&#45;test/dom_thickness_fuzzy&#45;&gt;uri::https://w3id.org/sdata/core/TrapezoidalFuzzyDomain</title>
<path fill="none" stroke="#4a5568" stroke-width="1.2" d="M144.73,-1437.6C209.03,-1426.94 305.52,-1410.94 376.35,-1399.2"/>
<polygon fill="#4a5568" stroke="#4a5568" stroke-width="1.2" points="377.02,-1401.75 383.99,-1397.93 376.16,-1396.57 377.02,-1401.75"/>
<text text-anchor="middle" x="239.5" y="-1431.8" font-family="Helvetica,sans-Serif" font-size="9.00">rdf:type</text>
</g>
<!-- lit::1.15::http://www.w3.org/2001/XMLSchema#double:: -->
<g id="node29" class="node">
<title>lit::1.15::http://www.w3.org/2001/XMLSchema#double::</title>
<polygon fill="#fff9db" stroke="#b08900" stroke-width="1.2" points="490,-1337 442,-1337 442,-1301 496,-1301 496,-1331 490,-1337"/>
<polyline fill="none" stroke="#b08900" stroke-width="1.2" points="490,-1337 490,-1331 "/>
<polyline fill="none" stroke="#b08900" stroke-width="1.2" points="496,-1331 490,-1331 "/>
<text text-anchor="middle" x="469" y="-1316.5" font-family="Helvetica,sans-Serif" font-size="10.00" fill="#5c4500">1.15</text>
</g>
<!-- uri::https://example.org/tensile&#45;test/dom_thickness_fuzzy&#45;&gt;lit::1.15::http://www.w3.org/2001/XMLSchema#double:: -->
<g id="edge26" class="edge">
<title>uri::https://example.org/tensile&#45;test/dom_thickness_fuzzy&#45;&gt;lit::1.15::http://www.w3.org/2001/XMLSchema#double::</title>
<path fill="none" stroke="#4a5568" stroke-width="1.2" d="M108.08,-1430.89C128.97,-1419.58 157.07,-1405.26 183,-1395 270.81,-1360.24 380.02,-1336.12 434.22,-1325.35"/>
<polygon fill="#4a5568" stroke="#4a5568" stroke-width="1.2" points="434.95,-1327.88 441.81,-1323.86 433.94,-1322.73 434.95,-1327.88"/>
<text text-anchor="middle" x="239.5" y="-1397.8" font-family="Helvetica,sans-Serif" font-size="9.00">sdata:fuzzyCoreLeft</text>
</g>
<!-- lit::1.25::http://www.w3.org/2001/XMLSchema#double:: -->
<g id="node30" class="node">
<title>lit::1.25::http://www.w3.org/2001/XMLSchema#double::</title>
<polygon fill="#fff9db" stroke="#b08900" stroke-width="1.2" points="490,-1272 442,-1272 442,-1236 496,-1236 496,-1266 490,-1272"/>
<polyline fill="none" stroke="#b08900" stroke-width="1.2" points="490,-1272 490,-1266 "/>
<polyline fill="none" stroke="#b08900" stroke-width="1.2" points="496,-1266 490,-1266 "/>
<text text-anchor="middle" x="469" y="-1251.5" font-family="Helvetica,sans-Serif" font-size="10.00" fill="#5c4500">1.25</text>
</g>
<!-- uri::https://example.org/tensile&#45;test/dom_thickness_fuzzy&#45;&gt;lit::1.25::http://www.w3.org/2001/XMLSchema#double:: -->
<g id="edge27" class="edge">
<title>uri::https://example.org/tensile&#45;test/dom_thickness_fuzzy&#45;&gt;lit::1.25::http://www.w3.org/2001/XMLSchema#double::</title>
<path fill="none" stroke="#4a5568" stroke-width="1.2" d="M90.08,-1430.72C108.96,-1407.3 144.59,-1366.78 183,-1342 264.05,-1289.73 378.01,-1266.94 434.1,-1258.4"/>
<polygon fill="#4a5568" stroke="#4a5568" stroke-width="1.2" points="434.59,-1260.98 441.62,-1257.29 433.82,-1255.79 434.59,-1260.98"/>
<text text-anchor="middle" x="239.5" y="-1344.8" font-family="Helvetica,sans-Serif" font-size="9.00">sdata:fuzzyCoreRight</text>
</g>
</g>
</svg>
