<?xml version="1.0" encoding="UTF-8" standalone="no"?>
<!DOCTYPE svg PUBLIC "-//W3C//DTD SVG 1.1//EN"
 "http://www.w3.org/Graphics/SVG/1.1/DTD/svg11.dtd">
<!-- Generated by graphviz version 2.43.0 (0)
 -->
<!-- Pages: 1 -->
<svg width="2443pt" height="480pt"
 viewBox="0.00 0.00 2443.40 480.40" xmlns="http://www.w3.org/2000/svg" xmlns:xlink="http://www.w3.org/1999/xlink">
<g id="graph0" class="graph" transform="scale(1 1) rotate(0) translate(25.2 455.2)">
<polygon fill="#fafbfc" stroke="transparent" points="-25.2,25.2 -25.2,-455.2 2418.2,-455.2 2418.2,25.2 -25.2,25.2"/>
<text text-anchor="middle" x="1196.5" y="-410" font-family="Helvetica,sans-Serif" font-size="20.00">sdata Activity Hierarchy (core + process verbs)</text>
<g id="clust1" class="cluster">
<title>cluster_activity_proc</title>
<path fill="#fafbfc" stroke="#b6d7a8" d="M1334,-117C1334,-117 2373,-117 2373,-117 2379,-117 2385,-123 2385,-129 2385,-129 2385,-217 2385,-217 2385,-223 2379,-229 2373,-229 2373,-229 1334,-229 1334,-229 1328,-229 1322,-223 1322,-217 1322,-217 1322,-129 1322,-129 1322,-123 1328,-117 1334,-117"/>
<text text-anchor="middle" x="1853.5" y="-209" font-family="Helvetica,sans-Serif" font-size="20.00">sdata&#45;processtypes verb classes</text>
</g>
<g id="clust2" class="cluster">
<title>cluster_activity_core</title>
<path fill="#fafbfc" stroke="#90b5e8" d="M20,-8C20,-8 1302,-8 1302,-8 1308,-8 1314,-14 1314,-20 1314,-20 1314,-380 1314,-380 1314,-386 1308,-392 1302,-392 1302,-392 20,-392 20,-392 14,-392 8,-386 8,-380 8,-380 8,-20 8,-20 8,-14 14,-8 20,-8"/>
<text text-anchor="middle" x="661" y="-372" font-family="Helvetica,sans-Serif" font-size="20.00">sdata&#45;core activity classes</text>
</g>
<!-- https://w3id.org/sdata/core/Creation -->
<g id="node1" class="node">
<title>https://w3id.org/sdata/core/Creation</title>
<path fill="#eef8e7" stroke="#4f8a10" stroke-width="1.6" d="M1389.5,-161C1389.5,-161 1342.5,-161 1342.5,-161 1336.5,-161 1330.5,-155 1330.5,-149 1330.5,-149 1330.5,-137 1330.5,-137 1330.5,-131 1336.5,-125 1342.5,-125 1342.5,-125 1389.5,-125 1389.5,-125 1395.5,-125 1401.5,-131 1401.5,-137 1401.5,-137 1401.5,-149 1401.5,-149 1401.5,-155 1395.5,-161 1389.5,-161"/>
<text text-anchor="middle" x="1366" y="-139.9" font-family="Helvetica,sans-Serif" font-size="12.00" fill="#2f5d08">Creation</text>
</g>
<!-- https://w3id.org/sdata/core/Transformation -->
<g id="node7" class="node">
<title>https://w3id.org/sdata/core/Transformation</title>
<path fill="#eef8e7" stroke="#4f8a10" stroke-width="1.6" d="M2365.5,-161C2365.5,-161 2278.5,-161 2278.5,-161 2272.5,-161 2266.5,-155 2266.5,-149 2266.5,-149 2266.5,-137 2266.5,-137 2266.5,-131 2272.5,-125 2278.5,-125 2278.5,-125 2365.5,-125 2365.5,-125 2371.5,-125 2377.5,-131 2377.5,-137 2377.5,-137 2377.5,-149 2377.5,-149 2377.5,-155 2371.5,-161 2365.5,-161"/>
<text text-anchor="middle" x="2322" y="-139.9" font-family="Helvetica,sans-Serif" font-size="12.00" fill="#2f5d08">Transformation</text>
</g>
<!-- https://w3id.org/sdata/core/Creation&#45;&gt;https://w3id.org/sdata/core/Transformation -->
<g id="edge14" class="edge">
<title>https://w3id.org/sdata/core/Creation&#45;&gt;https://w3id.org/sdata/core/Transformation</title>
<path fill="none" stroke="#4f8a10" stroke-width="2" stroke-dasharray="5,2" d="M1372.31,-161.18C1380.35,-181.2 1396.37,-212.37 1422,-226 1496.37,-265.54 2098.71,-248.02 2180,-226 2222.51,-214.49 2265.33,-186.73 2292.67,-166.47"/>
<polygon fill="#4f8a10" stroke="#4f8a10" stroke-width="2" points="2294.61,-168.73 2299.61,-161.23 2291.03,-163.97 2294.61,-168.73"/>
<text text-anchor="middle" x="1685" y="-240.8" font-family="Helvetica,sans-Serif" font-size="14.00" fill="#4f8a10">sequence</text>
</g>
<!-- https://w3id.org/sdata/core/Destruction -->
<g id="node2" class="node">
<title>https://w3id.org/sdata/core/Destruction</title>
<path fill="#eef8e7" stroke="#4f8a10" stroke-width="1.6" d="M1520,-161C1520,-161 1454,-161 1454,-161 1448,-161 1442,-155 1442,-149 1442,-149 1442,-137 1442,-137 1442,-131 1448,-125 1454,-125 1454,-125 1520,-125 1520,-125 1526,-125 1532,-131 1532,-137 1532,-137 1532,-149 1532,-149 1532,-155 1526,-161 1520,-161"/>
<text text-anchor="middle" x="1487" y="-139.9" font-family="Helvetica,sans-Serif" font-size="12.00" fill="#2f5d08">Destruction</text>
</g>
<!-- https://w3id.org/sdata/core/Observation -->
<g id="node3" class="node">
<title>https://w3id.org/sdata/core/Observation</title>
<path fill="#eef8e7" stroke="#4f8a10" stroke-width="1.6" d="M1653.5,-161C1653.5,-161 1584.5,-161 1584.5,-161 1578.5,-161 1572.5,-155 1572.5,-149 1572.5,-149 1572.5,-137 1572.5,-137 1572.5,-131 1578.5,-125 1584.5,-125 1584.5,-125 1653.5,-125 1653.5,-125 1659.5,-125 1665.5,-131 1665.5,-137 1665.5,-137 1665.5,-149 1665.5,-149 1665.5,-155 1659.5,-161 1653.5,-161"/>
<text text-anchor="middle" x="1619" y="-139.9" font-family="Helvetica,sans-Serif" font-size="12.00" fill="#2f5d08">Observation</text>
</g>
<!-- https://w3id.org/sdata/core/Preservation -->
<g id="node4" class="node">
<title>https://w3id.org/sdata/core/Preservation</title>
<path fill="#eef8e7" stroke="#4f8a10" stroke-width="1.6" d="M1855.5,-161C1855.5,-161 1784.5,-161 1784.5,-161 1778.5,-161 1772.5,-155 1772.5,-149 1772.5,-149 1772.5,-137 1772.5,-137 1772.5,-131 1778.5,-125 1784.5,-125 1784.5,-125 1855.5,-125 1855.5,-125 1861.5,-125 1867.5,-131 1867.5,-137 1867.5,-137 1867.5,-149 1867.5,-149 1867.5,-155 1861.5,-161 1855.5,-161"/>
<text text-anchor="middle" x="1820" y="-139.9" font-family="Helvetica,sans-Serif" font-size="12.00" fill="#2f5d08">Preservation</text>
</g>
<!-- https://w3id.org/sdata/core/Observation&#45;&gt;https://w3id.org/sdata/core/Preservation -->
<g id="edge22" class="edge">
<title>https://w3id.org/sdata/core/Observation&#45;&gt;https://w3id.org/sdata/core/Preservation</title>
<path fill="none" stroke="#4f8a10" stroke-width="2" stroke-dasharray="5,2" d="M1665.62,-143C1694.88,-143 1732.78,-143 1763.71,-143"/>
<polygon fill="#4f8a10" stroke="#4f8a10" stroke-width="2" points="1763.74,-145.98 1772.24,-143 1763.74,-140.03 1763.74,-145.98"/>
<text text-anchor="middle" x="1719" y="-149.8" font-family="Helvetica,sans-Serif" font-size="14.00" fill="#4f8a10">sequence</text>
</g>
<!-- https://w3id.org/sdata/core/Recovery -->
<g id="node5" class="node">
<title>https://w3id.org/sdata/core/Recovery</title>
<path fill="#eef8e7" stroke="#4f8a10" stroke-width="1.6" d="M2038,-161C2038,-161 1986,-161 1986,-161 1980,-161 1974,-155 1974,-149 1974,-149 1974,-137 1974,-137 1974,-131 1980,-125 1986,-125 1986,-125 2038,-125 2038,-125 2044,-125 2050,-131 2050,-137 2050,-137 2050,-149 2050,-149 2050,-155 2044,-161 2038,-161"/>
<text text-anchor="middle" x="2012" y="-139.9" font-family="Helvetica,sans-Serif" font-size="12.00" fill="#2f5d08">Recovery</text>
</g>
<!-- https://w3id.org/sdata/core/Preservation&#45;&gt;https://w3id.org/sdata/core/Recovery -->
<g id="edge23" class="edge">
<title>https://w3id.org/sdata/core/Preservation&#45;&gt;https://w3id.org/sdata/core/Recovery</title>
<path fill="none" stroke="#4f8a10" stroke-width="2" stroke-dasharray="5,2" d="M1867.95,-143C1897.65,-143 1935.61,-143 1965.1,-143"/>
<polygon fill="#4f8a10" stroke="#4f8a10" stroke-width="2" points="1965.47,-145.98 1973.97,-143 1965.47,-140.03 1965.47,-145.98"/>
<text text-anchor="middle" x="1920.75" y="-149.8" font-family="Helvetica,sans-Serif" font-size="14.00" fill="#4f8a10">sequence</text>
</g>
<!-- https://w3id.org/sdata/core/Recovery&#45;&gt;https://w3id.org/sdata/core/Destruction -->
<g id="edge24" class="edge">
<title>https://w3id.org/sdata/core/Recovery&#45;&gt;https://w3id.org/sdata/core/Destruction</title>
<path fill="none" stroke="#4f8a10" stroke-width="2" stroke-dasharray="5,2" d="M1992.7,-161.2C1969.64,-181.56 1928.9,-213.36 1887,-226 1815.73,-247.51 1618.93,-258.6 1552,-226 1527.85,-214.24 1510.02,-188.68 1499.21,-169.01"/>
<polygon fill="#4f8a10" stroke="#4f8a10" stroke-width="2" points="1501.73,-167.41 1495.14,-161.27 1496.46,-170.18 1501.73,-167.41"/>
<text text-anchor="middle" x="1610" y="-240.8" font-family="Helvetica,sans-Serif" font-size="14.00" fill="#4f8a10">sequence</text>
</g>
<!-- https://w3id.org/sdata/core/Transfer -->
<g id="node6" class="node">
<title>https://w3id.org/sdata/core/Transfer</title>
<path fill="#eef8e7" stroke="#4f8a10" stroke-width="1.6" d="M2147.5,-161C2147.5,-161 2102.5,-161 2102.5,-161 2096.5,-161 2090.5,-155 2090.5,-149 2090.5,-149 2090.5,-137 2090.5,-137 2090.5,-131 2096.5,-125 2102.5,-125 2102.5,-125 2147.5,-125 2147.5,-125 2153.5,-125 2159.5,-131 2159.5,-137 2159.5,-137 2159.5,-149 2159.5,-149 2159.5,-155 2153.5,-161 2147.5,-161"/>
<text text-anchor="middle" x="2125" y="-139.9" font-family="Helvetica,sans-Serif" font-size="12.00" fill="#2f5d08">Transfer</text>
</g>
<!-- https://w3id.org/sdata/core/Transfer&#45;&gt;https://w3id.org/sdata/core/Observation -->
<g id="edge26" class="edge">
<title>https://w3id.org/sdata/core/Transfer&#45;&gt;https://w3id.org/sdata/core/Observation</title>
<path fill="none" stroke="#4f8a10" stroke-width="2" stroke-dasharray="5,2" d="M2118.9,-161.17C2111.09,-181.18 2095.43,-212.34 2070,-226 2007.74,-259.43 1819.93,-245.46 1752,-226 1711.82,-214.49 1671.99,-186.92 1646.54,-166.71"/>
<polygon fill="#4f8a10" stroke="#4f8a10" stroke-width="2" points="1648.24,-164.25 1639.76,-161.22 1644.5,-168.88 1648.24,-164.25"/>
<text text-anchor="middle" x="1758" y="-240.8" font-family="Helvetica,sans-Serif" font-size="14.00" fill="#4f8a10">sequence</text>
</g>
<!-- https://w3id.org/sdata/core/Transformation&#45;&gt;https://w3id.org/sdata/core/Transfer -->
<g id="edge27" class="edge">
<title>https://w3id.org/sdata/core/Transformation&#45;&gt;https://w3id.org/sdata/core/Transfer</title>
<path fill="none" stroke="#4f8a10" stroke-width="2" stroke-dasharray="5,2" d="M2266.37,-143C2235.32,-143 2197.22,-143 2168.4,-143"/>
<polygon fill="#4f8a10" stroke="#4f8a10" stroke-width="2" points="2168.27,-140.03 2159.77,-143 2168.27,-145.98 2168.27,-140.03"/>
<text text-anchor="middle" x="2213" y="-149.8" font-family="Helvetica,sans-Serif" font-size="14.00" fill="#4f8a10">sequence</text>
</g>
<!-- https://w3id.org/sdata/core/Activity -->
<g id="node8" class="node">
<title>https://w3id.org/sdata/core/Activity</title>
<path fill="#e8f1ff" stroke="#2b6cb0" stroke-width="1.6" d="M1294,-324C1294,-324 1254,-324 1254,-324 1248,-324 1242,-318 1242,-312 1242,-312 1242,-300 1242,-300 1242,-294 1248,-288 1254,-288 1254,-288 1294,-288 1294,-288 1300,-288 1306,-294 1306,-300 1306,-300 1306,-312 1306,-312 1306,-318 1300,-324 1294,-324"/>
<text text-anchor="middle" x="1274" y="-302.9" font-family="Helvetica,sans-Serif" font-size="12.00" fill="#1a365d">Activity</text>
</g>
<!-- https://w3id.org/sdata/core/Activity&#45;&gt;https://w3id.org/sdata/core/Creation -->
<g id="edge2" class="edge">
<title>https://w3id.org/sdata/core/Activity&#45;&gt;https://w3id.org/sdata/core/Creation</title>
<path fill="none" stroke="#4a5568" stroke-width="1.6" d="M1286.14,-287.87C1296.67,-272.72 1312.06,-249.83 1324,-229 1335.25,-209.36 1346.54,-186.3 1354.57,-169.15"/>
<polygon fill="#4a5568" stroke="#4a5568" stroke-width="1.6" points="1357.35,-170.22 1358.24,-161.25 1351.96,-167.71 1357.35,-170.22"/>
</g>
<!-- https://w3id.org/sdata/core/Activity&#45;&gt;https://w3id.org/sdata/core/Destruction -->
<g id="edge3" class="edge">
<title>https://w3id.org/sdata/core/Activity&#45;&gt;https://w3id.org/sdata/core/Destruction</title>
<path fill="none" stroke="#4a5568" stroke-width="1.6" d="M1306.2,-293.12C1337.68,-280.46 1385.88,-258.21 1421,-229 1441.74,-211.75 1460.08,-186.92 1472.13,-168.55"/>
<polygon fill="#4a5568" stroke="#4a5568" stroke-width="1.6" points="1474.81,-169.87 1476.89,-161.11 1469.8,-166.66 1474.81,-169.87"/>
</g>
<!-- https://w3id.org/sdata/core/Activity&#45;&gt;https://w3id.org/sdata/core/Observation -->
<g id="edge6" class="edge">
<title>https://w3id.org/sdata/core/Activity&#45;&gt;https://w3id.org/sdata/core/Observation</title>
<path fill="none" stroke="#4a5568" stroke-width="1.6" d="M1306.26,-302.72C1361.01,-297.5 1473.79,-280.81 1552,-229 1575.13,-213.68 1593.87,-187.75 1605.58,-168.55"/>
<polygon fill="#4a5568" stroke="#4a5568" stroke-width="1.6" points="1608.26,-169.88 1610.02,-161.05 1603.14,-166.85 1608.26,-169.88"/>
</g>
<!-- https://w3id.org/sdata/core/Activity&#45;&gt;https://w3id.org/sdata/core/Preservation -->
<g id="edge7" class="edge">
<title>https://w3id.org/sdata/core/Activity&#45;&gt;https://w3id.org/sdata/core/Preservation</title>
<path fill="none" stroke="#4a5568" stroke-width="1.6" d="M1306.16,-303.86C1413.87,-299.73 1757.18,-284.17 1794,-252 1817.15,-231.77 1821.55,-194.85 1821.58,-169.88"/>
<polygon fill="#4a5568" stroke="#4a5568" stroke-width="1.6" points="1824.55,-169.71 1821.41,-161.27 1818.6,-169.82 1824.55,-169.71"/>
</g>
<!-- https://w3id.org/sdata/core/Activity&#45;&gt;https://w3id.org/sdata/core/Recovery -->
<g id="edge8" class="edge">
<title>https://w3id.org/sdata/core/Activity&#45;&gt;https://w3id.org/sdata/core/Recovery</title>
<path fill="none" stroke="#4a5568" stroke-width="1.6" d="M1306.27,-305.22C1392.68,-305.11 1636.03,-300.18 1831,-252 1891.86,-236.96 1952.32,-193.68 1985.66,-166.7"/>
<polygon fill="#4a5568" stroke="#4a5568" stroke-width="1.6" points="1987.67,-168.9 1992.36,-161.2 1983.9,-164.3 1987.67,-168.9"/>
</g>
<!-- https://w3id.org/sdata/core/Activity&#45;&gt;https://w3id.org/sdata/core/Transfer -->
<g id="edge11" class="edge">
<title>https://w3id.org/sdata/core/Activity&#45;&gt;https://w3id.org/sdata/core/Transfer</title>
<path fill="none" stroke="#4a5568" stroke-width="1.6" d="M1306.05,-303.62C1446.58,-297.37 2004.23,-270.12 2070,-229 2092.04,-215.22 2106.97,-189 2115.65,-169.31"/>
<polygon fill="#4a5568" stroke="#4a5568" stroke-width="1.6" points="2118.45,-170.31 2118.99,-161.32 2112.96,-168.02 2118.45,-170.31"/>
</g>
<!-- https://w3id.org/sdata/core/Activity&#45;&gt;https://w3id.org/sdata/core/Transformation -->
<g id="edge12" class="edge">
<title>https://w3id.org/sdata/core/Activity&#45;&gt;https://w3id.org/sdata/core/Transformation</title>
<path fill="none" stroke="#4a5568" stroke-width="1.6" d="M1306.27,-304.03C1412.8,-300.57 1762.82,-287.11 2050,-252 2108.24,-244.88 2125.03,-249.52 2180,-229 2221.51,-213.5 2264.54,-185.83 2292.2,-166.28"/>
<polygon fill="#4a5568" stroke="#4a5568" stroke-width="1.6" points="2294.05,-168.61 2299.23,-161.24 2290.59,-163.77 2294.05,-168.61"/>
</g>
<!-- https://w3id.org/sdata/core/AssemblyProcess -->
<g id="node9" class="node">
<title>https://w3id.org/sdata/core/AssemblyProcess</title>
<path fill="#e8f1ff" stroke="#2b6cb0" stroke-width="1.6" d="M336,-161C336,-161 234,-161 234,-161 228,-161 222,-155 222,-149 222,-149 222,-137 222,-137 222,-131 228,-125 234,-125 234,-125 336,-125 336,-125 342,-125 348,-131 348,-137 348,-137 348,-149 348,-149 348,-155 342,-161 336,-161"/>
<text text-anchor="middle" x="285" y="-139.9" font-family="Helvetica,sans-Serif" font-size="12.00" fill="#1a365d">Assembly Process</text>
</g>
<!-- https://w3id.org/sdata/core/Activity&#45;&gt;https://w3id.org/sdata/core/AssemblyProcess -->
<g id="edge1" class="edge">
<title>https://w3id.org/sdata/core/Activity&#45;&gt;https://w3id.org/sdata/core/AssemblyProcess</title>
<path fill="none" stroke="#4a5568" stroke-width="1.6" d="M1241.62,-305.27C1099.07,-306.02 527.55,-304.21 368,-229 339.75,-215.68 315.89,-188.39 301.1,-168.3"/>
<polygon fill="#4a5568" stroke="#4a5568" stroke-width="1.6" points="303.43,-166.46 296.07,-161.27 298.59,-169.92 303.43,-166.46"/>
</g>
<!-- https://w3id.org/sdata/core/Experiment -->
<g id="node13" class="node">
<title>https://w3id.org/sdata/core/Experiment</title>
<path fill="#e8f1ff" stroke="#2b6cb0" stroke-width="1.6" d="M466,-161C466,-161 400,-161 400,-161 394,-161 388,-155 388,-149 388,-149 388,-137 388,-137 388,-131 394,-125 400,-125 400,-125 466,-125 466,-125 472,-125 478,-131 478,-137 478,-137 478,-149 478,-149 478,-155 472,-161 466,-161"/>
<text text-anchor="middle" x="433" y="-139.9" font-family="Helvetica,sans-Serif" font-size="12.00" fill="#1a365d">Experiment</text>
</g>
<!-- https://w3id.org/sdata/core/Activity&#45;&gt;https://w3id.org/sdata/core/Experiment -->
<g id="edge4" class="edge">
<title>https://w3id.org/sdata/core/Activity&#45;&gt;https://w3id.org/sdata/core/Experiment</title>
<path fill="none" stroke="#4a5568" stroke-width="1.6" d="M1241.7,-302.58C1154.57,-295.64 907.77,-273.27 707,-229 629.05,-211.81 541.31,-182.83 486.59,-163.56"/>
<polygon fill="#4a5568" stroke="#4a5568" stroke-width="1.6" points="487.43,-160.7 478.43,-160.67 485.45,-166.31 487.43,-160.7"/>
</g>
<!-- https://w3id.org/sdata/core/ManufacturingProcess -->
<g id="node17" class="node">
<title>https://w3id.org/sdata/core/ManufacturingProcess</title>
<path fill="#e8f1ff" stroke="#2b6cb0" stroke-width="1.6" d="M871,-161C871,-161 739,-161 739,-161 733,-161 727,-155 727,-149 727,-149 727,-137 727,-137 727,-131 733,-125 739,-125 739,-125 871,-125 871,-125 877,-125 883,-131 883,-137 883,-137 883,-149 883,-149 883,-155 877,-161 871,-161"/>
<text text-anchor="middle" x="805" y="-139.9" font-family="Helvetica,sans-Serif" font-size="12.00" fill="#1a365d">Manufacturing Process</text>
</g>
<!-- https://w3id.org/sdata/core/Activity&#45;&gt;https://w3id.org/sdata/core/ManufacturingProcess -->
<g id="edge5" class="edge">
<title>https://w3id.org/sdata/core/Activity&#45;&gt;https://w3id.org/sdata/core/ManufacturingProcess</title>
<path fill="none" stroke="#4a5568" stroke-width="1.6" d="M1241.97,-303.85C1175.44,-300.35 1018.86,-286.15 903,-229 872.51,-213.96 843.91,-187.11 825.57,-167.6"/>
<polygon fill="#4a5568" stroke="#4a5568" stroke-width="1.6" points="827.7,-165.52 819.75,-161.29 823.33,-169.56 827.7,-165.52"/>
</g>
<!-- https://w3id.org/sdata/core/RecyclingProcess -->
<g id="node20" class="node">
<title>https://w3id.org/sdata/core/RecyclingProcess</title>
<path fill="#e8f1ff" stroke="#2b6cb0" stroke-width="1.6" d="M1037,-161C1037,-161 935,-161 935,-161 929,-161 923,-155 923,-149 923,-149 923,-137 923,-137 923,-131 929,-125 935,-125 935,-125 1037,-125 1037,-125 1043,-125 1049,-131 1049,-137 1049,-137 1049,-149 1049,-149 1049,-155 1043,-161 1037,-161"/>
<text text-anchor="middle" x="986" y="-139.9" font-family="Helvetica,sans-Serif" font-size="12.00" fill="#1a365d">Recycling Process</text>
</g>
<!-- https://w3id.org/sdata/core/Activity&#45;&gt;https://w3id.org/sdata/core/RecyclingProcess -->
<g id="edge9" class="edge">
<title>https://w3id.org/sdata/core/Activity&#45;&gt;https://w3id.org/sdata/core/RecyclingProcess</title>
<path fill="none" stroke="#4a5568" stroke-width="1.6" d="M1241.79,-297.77C1199.61,-287.29 1124.54,-265.09 1069,-229 1043.65,-212.53 1020.13,-187.06 1004.64,-168.3"/>
<polygon fill="#4a5568" stroke="#4a5568" stroke-width="1.6" points="1006.57,-165.95 998.92,-161.21 1001.95,-169.69 1006.57,-165.95"/>
</g>
<!-- https://w3id.org/sdata/core/Simulation -->
<g id="node21" class="node">
<title>https://w3id.org/sdata/core/Simulation</title>
<path fill="#e8f1ff" stroke="#2b6cb0" stroke-width="1.6" d="M1161,-161C1161,-161 1101,-161 1101,-161 1095,-161 1089,-155 1089,-149 1089,-149 1089,-137 1089,-137 1089,-131 1095,-125 1101,-125 1101,-125 1161,-125 1161,-125 1167,-125 1173,-131 1173,-137 1173,-137 1173,-149 1173,-149 1173,-155 1167,-161 1161,-161"/>
<text text-anchor="middle" x="1131" y="-139.9" font-family="Helvetica,sans-Serif" font-size="12.00" fill="#1a365d">Simulation</text>
</g>
<!-- https://w3id.org/sdata/core/Activity&#45;&gt;https://w3id.org/sdata/core/Simulation -->
<g id="edge10" class="edge">
<title>https://w3id.org/sdata/core/Activity&#45;&gt;https://w3id.org/sdata/core/Simulation</title>
<path fill="none" stroke="#4a5568" stroke-width="1.6" d="M1253.69,-287.85C1236.67,-273.04 1212.15,-250.68 1193,-229 1175.96,-209.72 1158.9,-185.92 1147,-168.41"/>
<polygon fill="#4a5568" stroke="#4a5568" stroke-width="1.6" points="1149.45,-166.72 1142.23,-161.32 1144.51,-170.04 1149.45,-166.72"/>
</g>
<!-- https://w3id.org/sdata/core/Transport -->
<g id="node22" class="node">
<title>https://w3id.org/sdata/core/Transport</title>
<path fill="#e8f1ff" stroke="#2b6cb0" stroke-width="1.6" d="M1278.5,-161C1278.5,-161 1225.5,-161 1225.5,-161 1219.5,-161 1213.5,-155 1213.5,-149 1213.5,-149 1213.5,-137 1213.5,-137 1213.5,-131 1219.5,-125 1225.5,-125 1225.5,-125 1278.5,-125 1278.5,-125 1284.5,-125 1290.5,-131 1290.5,-137 1290.5,-137 1290.5,-149 1290.5,-149 1290.5,-155 1284.5,-161 1278.5,-161"/>
<text text-anchor="middle" x="1252" y="-139.9" font-family="Helvetica,sans-Serif" font-size="12.00" fill="#1a365d">Transport</text>
</g>
<!-- https://w3id.org/sdata/core/Activity&#45;&gt;https://w3id.org/sdata/core/Transport -->
<g id="edge13" class="edge">
<title>https://w3id.org/sdata/core/Activity&#45;&gt;https://w3id.org/sdata/core/Transport</title>
<path fill="none" stroke="#4a5568" stroke-width="1.6" d="M1271.65,-287.77C1267.78,-259.45 1260.05,-202.89 1255.52,-169.78"/>
<polygon fill="#4a5568" stroke="#4a5568" stroke-width="1.6" points="1258.44,-169.12 1254.34,-161.11 1252.54,-169.93 1258.44,-169.12"/>
</g>
<!-- https://w3id.org/sdata/core/ChemicalAnalysis -->
<g id="node10" class="node">
<title>https://w3id.org/sdata/core/ChemicalAnalysis</title>
<path fill="#e8f1ff" stroke="#2b6cb0" stroke-width="1.6" d="M132,-52C132,-52 28,-52 28,-52 22,-52 16,-46 16,-40 16,-40 16,-28 16,-28 16,-22 22,-16 28,-16 28,-16 132,-16 132,-16 138,-16 144,-22 144,-28 144,-28 144,-40 144,-40 144,-46 138,-52 132,-52"/>
<text text-anchor="middle" x="80" y="-30.9" font-family="Helvetica,sans-Serif" font-size="12.00" fill="#1a365d">Chemical Analysis</text>
</g>
<!-- https://w3id.org/sdata/core/CoatingProcess -->
<g id="node11" class="node">
<title>https://w3id.org/sdata/core/CoatingProcess</title>
<path fill="#e8f1ff" stroke="#2b6cb0" stroke-width="1.6" d="M669.5,-52C669.5,-52 578.5,-52 578.5,-52 572.5,-52 566.5,-46 566.5,-40 566.5,-40 566.5,-28 566.5,-28 566.5,-22 572.5,-16 578.5,-16 578.5,-16 669.5,-16 669.5,-16 675.5,-16 681.5,-22 681.5,-28 681.5,-28 681.5,-40 681.5,-40 681.5,-46 675.5,-52 669.5,-52"/>
<text text-anchor="middle" x="624" y="-30.9" font-family="Helvetica,sans-Serif" font-size="12.00" fill="#1a365d">Coating Process</text>
</g>
<!-- https://w3id.org/sdata/core/CrashSimulation -->
<g id="node12" class="node">
<title>https://w3id.org/sdata/core/CrashSimulation</title>
<path fill="#e8f1ff" stroke="#2b6cb0" stroke-width="1.6" d="M1294,-52C1294,-52 1196,-52 1196,-52 1190,-52 1184,-46 1184,-40 1184,-40 1184,-28 1184,-28 1184,-22 1190,-16 1196,-16 1196,-16 1294,-16 1294,-16 1300,-16 1306,-22 1306,-28 1306,-28 1306,-40 1306,-40 1306,-46 1300,-52 1294,-52"/>
<text text-anchor="middle" x="1245" y="-30.9" font-family="Helvetica,sans-Serif" font-size="12.00" fill="#1a365d">Crash Simulation</text>
</g>
<!-- https://w3id.org/sdata/core/Experiment&#45;&gt;https://w3id.org/sdata/core/ChemicalAnalysis -->
<g id="edge15" class="edge">
<title>https://w3id.org/sdata/core/Experiment&#45;&gt;https://w3id.org/sdata/core/ChemicalAnalysis</title>
<path fill="none" stroke="#4a5568" stroke-width="1.6" d="M390.19,-124.91C382.83,-122.15 375.22,-119.41 368,-117 295.5,-92.79 211.29,-69.34 152.73,-53.77"/>
<polygon fill="#4a5568" stroke="#4a5568" stroke-width="1.6" points="153.26,-50.83 144.28,-51.53 151.73,-56.58 153.26,-50.83"/>
</g>
<!-- https://w3id.org/sdata/core/MechanicalTest -->
<g id="node18" class="node">
<title>https://w3id.org/sdata/core/MechanicalTest</title>
<path fill="#e8f1ff" stroke="#2b6cb0" stroke-width="1.6" d="M287.5,-52C287.5,-52 196.5,-52 196.5,-52 190.5,-52 184.5,-46 184.5,-40 184.5,-40 184.5,-28 184.5,-28 184.5,-22 190.5,-16 196.5,-16 196.5,-16 287.5,-16 287.5,-16 293.5,-16 299.5,-22 299.5,-28 299.5,-28 299.5,-40 299.5,-40 299.5,-46 293.5,-52 287.5,-52"/>
<text text-anchor="middle" x="242" y="-30.9" font-family="Helvetica,sans-Serif" font-size="12.00" fill="#1a365d">Mechanical Test</text>
</g>
<!-- https://w3id.org/sdata/core/Experiment&#45;&gt;https://w3id.org/sdata/core/MechanicalTest -->
<g id="edge16" class="edge">
<title>https://w3id.org/sdata/core/Experiment&#45;&gt;https://w3id.org/sdata/core/MechanicalTest</title>
<path fill="none" stroke="#4a5568" stroke-width="1.6" d="M402.31,-124.81C369.18,-106.25 316.33,-76.64 280.45,-56.54"/>
<polygon fill="#4a5568" stroke="#4a5568" stroke-width="1.6" points="281.48,-53.71 272.61,-52.15 278.57,-58.9 281.48,-53.71"/>
</g>
<!-- https://w3id.org/sdata/core/MetallographicExamination -->
<g id="node19" class="node">
<title>https://w3id.org/sdata/core/MetallographicExamination</title>
<path fill="#e8f1ff" stroke="#2b6cb0" stroke-width="1.6" d="M514.5,-52C514.5,-52 351.5,-52 351.5,-52 345.5,-52 339.5,-46 339.5,-40 339.5,-40 339.5,-28 339.5,-28 339.5,-22 345.5,-16 351.5,-16 351.5,-16 514.5,-16 514.5,-16 520.5,-16 526.5,-22 526.5,-28 526.5,-28 526.5,-40 526.5,-40 526.5,-46 520.5,-52 514.5,-52"/>
<text text-anchor="middle" x="433" y="-30.9" font-family="Helvetica,sans-Serif" font-size="12.00" fill="#1a365d">Metallographic Examination</text>
</g>
<!-- https://w3id.org/sdata/core/Experiment&#45;&gt;https://w3id.org/sdata/core/MetallographicExamination -->
<g id="edge17" class="edge">
<title>https://w3id.org/sdata/core/Experiment&#45;&gt;https://w3id.org/sdata/core/MetallographicExamination</title>
<path fill="none" stroke="#4a5568" stroke-width="1.6" d="M433,-124.81C433,-107.49 433,-80.57 433,-60.71"/>
<polygon fill="#4a5568" stroke="#4a5568" stroke-width="1.6" points="435.98,-60.65 433,-52.15 430.03,-60.65 435.98,-60.65"/>
</g>
<!-- https://w3id.org/sdata/core/FormingProcess -->
<g id="node14" class="node">
<title>https://w3id.org/sdata/core/FormingProcess</title>
<path fill="#e8f1ff" stroke="#2b6cb0" stroke-width="1.6" d="M828,-52C828,-52 734,-52 734,-52 728,-52 722,-46 722,-40 722,-40 722,-28 722,-28 722,-22 728,-16 734,-16 734,-16 828,-16 828,-16 834,-16 840,-22 840,-28 840,-28 840,-40 840,-40 840,-46 834,-52 828,-52"/>
<text text-anchor="middle" x="781" y="-30.9" font-family="Helvetica,sans-Serif" font-size="12.00" fill="#1a365d">Forming Process</text>
</g>
<!-- https://w3id.org/sdata/core/HeatTreatment -->
<g id="node15" class="node">
<title>https://w3id.org/sdata/core/HeatTreatment</title>
<path fill="#e8f1ff" stroke="#2b6cb0" stroke-width="1.6" d="M982,-52C982,-52 892,-52 892,-52 886,-52 880,-46 880,-40 880,-40 880,-28 880,-28 880,-22 886,-16 892,-16 892,-16 982,-16 982,-16 988,-16 994,-22 994,-28 994,-28 994,-40 994,-40 994,-46 988,-52 982,-52"/>
<text text-anchor="middle" x="937" y="-30.9" font-family="Helvetica,sans-Serif" font-size="12.00" fill="#1a365d">Heat Treatment</text>
</g>
<!-- https://w3id.org/sdata/core/JoiningProcess -->
<g id="node16" class="node">
<title>https://w3id.org/sdata/core/JoiningProcess</title>
<path fill="#e8f1ff" stroke="#2b6cb0" stroke-width="1.6" d="M1131.5,-52C1131.5,-52 1046.5,-52 1046.5,-52 1040.5,-52 1034.5,-46 1034.5,-40 1034.5,-40 1034.5,-28 1034.5,-28 1034.5,-22 1040.5,-16 1046.5,-16 1046.5,-16 1131.5,-16 1131.5,-16 1137.5,-16 1143.5,-22 1143.5,-28 1143.5,-28 1143.5,-40 1143.5,-40 1143.5,-46 1137.5,-52 1131.5,-52"/>
<text text-anchor="middle" x="1089" y="-30.9" font-family="Helvetica,sans-Serif" font-size="12.00" fill="#1a365d">Joining Process</text>
</g>
<!-- https://w3id.org/sdata/core/ManufacturingProcess&#45;&gt;https://w3id.org/sdata/core/CoatingProcess -->
<g id="edge18" class="edge">
<title>https://w3id.org/sdata/core/ManufacturingProcess&#45;&gt;https://w3id.org/sdata/core/CoatingProcess</title>
<path fill="none" stroke="#4a5568" stroke-width="1.6" d="M775.92,-124.81C744.52,-106.25 694.44,-76.64 660.43,-56.54"/>
<polygon fill="#4a5568" stroke="#4a5568" stroke-width="1.6" points="661.84,-53.91 653.01,-52.15 658.81,-59.04 661.84,-53.91"/>
</g>
<!-- https://w3id.org/sdata/core/ManufacturingProcess&#45;&gt;https://w3id.org/sdata/core/FormingProcess -->
<g id="edge19" class="edge">
<title>https://w3id.org/sdata/core/ManufacturingProcess&#45;&gt;https://w3id.org/sdata/core/FormingProcess</title>
<path fill="none" stroke="#4a5568" stroke-width="1.6" d="M801.14,-124.81C797.24,-107.42 791.17,-80.33 786.71,-60.45"/>
<polygon fill="#4a5568" stroke="#4a5568" stroke-width="1.6" points="789.61,-59.79 784.85,-52.15 783.8,-61.09 789.61,-59.79"/>
</g>
<!-- https://w3id.org/sdata/core/ManufacturingProcess&#45;&gt;https://w3id.org/sdata/core/HeatTreatment -->
<g id="edge20" class="edge">
<title>https://w3id.org/sdata/core/ManufacturingProcess&#45;&gt;https://w3id.org/sdata/core/HeatTreatment</title>
<path fill="none" stroke="#4a5568" stroke-width="1.6" d="M826.21,-124.81C848.72,-106.56 884.41,-77.63 909.17,-57.56"/>
<polygon fill="#4a5568" stroke="#4a5568" stroke-width="1.6" points="911.11,-59.81 915.84,-52.15 907.37,-55.19 911.11,-59.81"/>
</g>
<!-- https://w3id.org/sdata/core/ManufacturingProcess&#45;&gt;https://w3id.org/sdata/core/JoiningProcess -->
<g id="edge21" class="edge">
<title>https://w3id.org/sdata/core/ManufacturingProcess&#45;&gt;https://w3id.org/sdata/core/JoiningProcess</title>
<path fill="none" stroke="#4a5568" stroke-width="1.6" d="M850.31,-124.93C900.81,-105.9 982.37,-75.17 1035.84,-55.03"/>
<polygon fill="#4a5568" stroke="#4a5568" stroke-width="1.6" points="1036.94,-57.79 1043.85,-52.01 1034.84,-52.22 1036.94,-57.79"/>
</g>
<!-- https://w3id.org/sdata/core/Simulation&#45;&gt;https://w3id.org/sdata/core/CrashSimulation -->
<g id="edge25" class="edge">
<title>https://w3id.org/sdata/core/Simulation&#45;&gt;https://w3id.org/sdata/core/CrashSimulation</title>
<path fill="none" stroke="#4a5568" stroke-width="1.6" d="M1149.32,-124.81C1168.6,-106.71 1199.05,-78.12 1220.41,-58.08"/>
<polygon fill="#4a5568" stroke="#4a5568" stroke-width="1.6" points="1222.57,-60.14 1226.73,-52.15 1218.5,-55.8 1222.57,-60.14"/>
</g>
</g>
</svg>
