<?xml version="1.0" encoding="UTF-8" standalone="no"?>
<!DOCTYPE svg PUBLIC "-//W3C//DTD SVG 1.1//EN"
 "http://www.w3.org/Graphics/SVG/1.1/DTD/svg11.dtd">
<!-- Generated by graphviz version 2.43.0 (0)
 -->
<!-- Pages: 1 -->
<svg width="1427pt" height="287pt"
 viewBox="0.00 0.00 1426.90 287.40" xmlns="http://www.w3.org/2000/svg" xmlns:xlink="http://www.w3.org/1999/xlink">
<g id="graph0" class="graph" transform="scale(1 1) rotate(0) translate(25.2 262.2)">
<polygon fill="#fafbfc" stroke="transparent" points="-25.2,25.2 -25.2,-262.2 1401.7,-262.2 1401.7,25.2 -25.2,25.2"/>
<text text-anchor="middle" x="688.25" y="-217" font-family="Helvetica,sans-Serif" font-size="20.00">sdata Class Hierarchy (core v0.9.2 / MIN+OPA based)</text>
<g id="clust1" class="cluster">
<title>cluster_sdata</title>
<path fill="#fafbfc" stroke="#90b5e8" d="M20,-8C20,-8 1061,-8 1061,-8 1067,-8 1073,-14 1073,-20 1073,-20 1073,-187 1073,-187 1073,-193 1067,-199 1061,-199 1061,-199 20,-199 20,-199 14,-199 8,-193 8,-187 8,-187 8,-20 8,-20 8,-14 14,-8 20,-8"/>
<text text-anchor="middle" x="540.5" y="-179" font-family="Helvetica,sans-Serif" font-size="20.00">sdata classes</text>
</g>
<g id="clust2" class="cluster">
<title>cluster_legend</title>
<path fill="#fafbfc" stroke="#cbd5e0" d="M1093,-117C1093,-117 1351,-117 1351,-117 1357,-117 1363,-123 1363,-129 1363,-129 1363,-187 1363,-187 1363,-193 1357,-199 1351,-199 1351,-199 1093,-199 1093,-199 1087,-199 1081,-193 1081,-187 1081,-187 1081,-129 1081,-129 1081,-123 1087,-117 1093,-117"/>
<text text-anchor="middle" x="1222" y="-179" font-family="Helvetica,sans-Serif" font-size="20.00">Legend</text>
</g>
<!-- https://w3id.org/sdata/core/Agent -->
<g id="node1" class="node">
<title>https://w3id.org/sdata/core/Agent</title>
<path fill="#e8f1ff" stroke="#2b6cb0" stroke-width="1.6" d="M839,-161C839,-161 807,-161 807,-161 801,-161 795,-155 795,-149 795,-149 795,-137 795,-137 795,-131 801,-125 807,-125 807,-125 839,-125 839,-125 845,-125 851,-131 851,-137 851,-137 851,-149 851,-149 851,-155 845,-161 839,-161"/>
<text text-anchor="middle" x="823" y="-139.9" font-family="Helvetica,sans-Serif" font-size="12.00" fill="#1a365d">Agent</text>
</g>
<!-- https://w3id.org/sdata/core/HardwareAgent -->
<g id="node5" class="node">
<title>https://w3id.org/sdata/core/HardwareAgent</title>
<path fill="#e8f1ff" stroke="#2b6cb0" stroke-width="1.6" d="M662.5,-52C662.5,-52 569.5,-52 569.5,-52 563.5,-52 557.5,-46 557.5,-40 557.5,-40 557.5,-28 557.5,-28 557.5,-22 563.5,-16 569.5,-16 569.5,-16 662.5,-16 662.5,-16 668.5,-16 674.5,-22 674.5,-28 674.5,-28 674.5,-40 674.5,-40 674.5,-46 668.5,-52 662.5,-52"/>
<text text-anchor="middle" x="616" y="-30.9" font-family="Helvetica,sans-Serif" font-size="12.00" fill="#1a365d">Hardware Agent</text>
</g>
<!-- https://w3id.org/sdata/core/Agent&#45;&gt;https://w3id.org/sdata/core/HardwareAgent -->
<g id="edge2" class="edge">
<title>https://w3id.org/sdata/core/Agent&#45;&gt;https://w3id.org/sdata/core/HardwareAgent</title>
<path fill="none" stroke="#4a5568" stroke-width="1.6" d="M794.65,-127.35C758.97,-108.9 697.44,-77.1 656.73,-56.05"/>
<polygon fill="#4a5568" stroke="#4a5568" stroke-width="1.6" points="658.05,-53.39 649.13,-52.13 655.31,-58.67 658.05,-53.39"/>
</g>
<!-- https://w3id.org/sdata/core/Organization -->
<g id="node8" class="node">
<title>https://w3id.org/sdata/core/Organization</title>
<path fill="#e8f1ff" stroke="#2b6cb0" stroke-width="1.6" d="M799,-52C799,-52 727,-52 727,-52 721,-52 715,-46 715,-40 715,-40 715,-28 715,-28 715,-22 721,-16 727,-16 727,-16 799,-16 799,-16 805,-16 811,-22 811,-28 811,-28 811,-40 811,-40 811,-46 805,-52 799,-52"/>
<text text-anchor="middle" x="763" y="-30.9" font-family="Helvetica,sans-Serif" font-size="12.00" fill="#1a365d">Organization</text>
</g>
<!-- https://w3id.org/sdata/core/Agent&#45;&gt;https://w3id.org/sdata/core/Organization -->
<g id="edge3" class="edge">
<title>https://w3id.org/sdata/core/Agent&#45;&gt;https://w3id.org/sdata/core/Organization</title>
<path fill="none" stroke="#4a5568" stroke-width="1.6" d="M813.36,-124.81C803.48,-107.18 788.01,-79.6 776.82,-59.65"/>
<polygon fill="#4a5568" stroke="#4a5568" stroke-width="1.6" points="779.37,-58.11 772.62,-52.15 774.18,-61.02 779.37,-58.11"/>
</g>
<!-- https://w3id.org/sdata/core/Person -->
<g id="node9" class="node">
<title>https://w3id.org/sdata/core/Person</title>
<path fill="#e8f1ff" stroke="#2b6cb0" stroke-width="1.6" d="M900.5,-52C900.5,-52 863.5,-52 863.5,-52 857.5,-52 851.5,-46 851.5,-40 851.5,-40 851.5,-28 851.5,-28 851.5,-22 857.5,-16 863.5,-16 863.5,-16 900.5,-16 900.5,-16 906.5,-16 912.5,-22 912.5,-28 912.5,-28 912.5,-40 912.5,-40 912.5,-46 906.5,-52 900.5,-52"/>
<text text-anchor="middle" x="882" y="-30.9" font-family="Helvetica,sans-Serif" font-size="12.00" fill="#1a365d">Person</text>
</g>
<!-- https://w3id.org/sdata/core/Agent&#45;&gt;https://w3id.org/sdata/core/Person -->
<g id="edge4" class="edge">
<title>https://w3id.org/sdata/core/Agent&#45;&gt;https://w3id.org/sdata/core/Person</title>
<path fill="none" stroke="#4a5568" stroke-width="1.6" d="M832.48,-124.81C842.2,-107.18 857.41,-79.6 868.41,-59.65"/>
<polygon fill="#4a5568" stroke="#4a5568" stroke-width="1.6" points="871.04,-61.03 872.54,-52.15 865.83,-58.16 871.04,-61.03"/>
</g>
<!-- https://w3id.org/sdata/core/SoftwareAgent -->
<g id="node13" class="node">
<title>https://w3id.org/sdata/core/SoftwareAgent</title>
<path fill="#e8f1ff" stroke="#2b6cb0" stroke-width="1.6" d="M1053,-52C1053,-52 965,-52 965,-52 959,-52 953,-46 953,-40 953,-40 953,-28 953,-28 953,-22 959,-16 965,-16 965,-16 1053,-16 1053,-16 1059,-16 1065,-22 1065,-28 1065,-28 1065,-40 1065,-40 1065,-46 1059,-52 1053,-52"/>
<text text-anchor="middle" x="1009" y="-30.9" font-family="Helvetica,sans-Serif" font-size="12.00" fill="#1a365d">Software Agent</text>
</g>
<!-- https://w3id.org/sdata/core/Agent&#45;&gt;https://w3id.org/sdata/core/SoftwareAgent -->
<g id="edge5" class="edge">
<title>https://w3id.org/sdata/core/Agent&#45;&gt;https://w3id.org/sdata/core/SoftwareAgent</title>
<path fill="none" stroke="#4a5568" stroke-width="1.6" d="M851.25,-125.75C883.37,-107.27 935.96,-77.02 971.5,-56.57"/>
<polygon fill="#4a5568" stroke="#4a5568" stroke-width="1.6" points="973.37,-58.93 979.25,-52.11 970.4,-53.77 973.37,-58.93"/>
</g>
<!-- https://w3id.org/sdata/core/AttributeQuantityValue -->
<g id="node2" class="node">
<title>https://w3id.org/sdata/core/AttributeQuantityValue</title>
<path fill="#e8f1ff" stroke="#2b6cb0" stroke-width="1.6" d="M657.5,-161C657.5,-161 516.5,-161 516.5,-161 510.5,-161 504.5,-155 504.5,-149 504.5,-149 504.5,-137 504.5,-137 504.5,-131 510.5,-125 516.5,-125 516.5,-125 657.5,-125 657.5,-125 663.5,-125 669.5,-131 669.5,-137 669.5,-137 669.5,-149 669.5,-149 669.5,-155 663.5,-161 657.5,-161"/>
<text text-anchor="middle" x="587" y="-139.9" font-family="Helvetica,sans-Serif" font-size="12.00" fill="#1a365d">Attribute Quantity Value</text>
</g>
<!-- https://w3id.org/sdata/core/Data -->
<g id="node3" class="node">
<title>https://w3id.org/sdata/core/Data</title>
<path fill="#e8f1ff" stroke="#2b6cb0" stroke-width="1.6" d="M58,-52C58,-52 28,-52 28,-52 22,-52 16,-46 16,-40 16,-40 16,-28 16,-28 16,-22 22,-16 28,-16 28,-16 58,-16 58,-16 64,-16 70,-22 70,-28 70,-28 70,-40 70,-40 70,-46 64,-52 58,-52"/>
<text text-anchor="middle" x="43" y="-30.9" font-family="Helvetica,sans-Serif" font-size="12.00" fill="#1a365d">Data</text>
</g>
<!-- https://w3id.org/sdata/core/Hardware -->
<g id="node4" class="node">
<title>https://w3id.org/sdata/core/Hardware</title>
<path fill="#e8f1ff" stroke="#2b6cb0" stroke-width="1.6" d="M176,-52C176,-52 122,-52 122,-52 116,-52 110,-46 110,-40 110,-40 110,-28 110,-28 110,-22 116,-16 122,-16 122,-16 176,-16 176,-16 182,-16 188,-22 188,-28 188,-28 188,-40 188,-40 188,-46 182,-52 176,-52"/>
<text text-anchor="middle" x="149" y="-30.9" font-family="Helvetica,sans-Serif" font-size="12.00" fill="#1a365d">Hardware</text>
</g>
<!-- https://w3id.org/sdata/core/Material -->
<g id="node6" class="node">
<title>https://w3id.org/sdata/core/Material</title>
<path fill="#e8f1ff" stroke="#2b6cb0" stroke-width="1.6" d="M285.5,-52C285.5,-52 240.5,-52 240.5,-52 234.5,-52 228.5,-46 228.5,-40 228.5,-40 228.5,-28 228.5,-28 228.5,-22 234.5,-16 240.5,-16 240.5,-16 285.5,-16 285.5,-16 291.5,-16 297.5,-22 297.5,-28 297.5,-28 297.5,-40 297.5,-40 297.5,-46 291.5,-52 285.5,-52"/>
<text text-anchor="middle" x="263" y="-30.9" font-family="Helvetica,sans-Serif" font-size="12.00" fill="#1a365d">Material</text>
</g>
<!-- https://w3id.org/sdata/core/Object -->
<g id="node7" class="node">
<title>https://w3id.org/sdata/core/Object</title>
<path fill="#e8f1ff" stroke="#2b6cb0" stroke-width="1.6" d="M314,-161C314,-161 278,-161 278,-161 272,-161 266,-155 266,-149 266,-149 266,-137 266,-137 266,-131 272,-125 278,-125 278,-125 314,-125 314,-125 320,-125 326,-131 326,-137 326,-137 326,-149 326,-149 326,-155 320,-161 314,-161"/>
<text text-anchor="middle" x="296" y="-139.9" font-family="Helvetica,sans-Serif" font-size="12.00" fill="#1a365d">Object</text>
</g>
<!-- https://w3id.org/sdata/core/Object&#45;&gt;https://w3id.org/sdata/core/Data -->
<g id="edge6" class="edge">
<title>https://w3id.org/sdata/core/Object&#45;&gt;https://w3id.org/sdata/core/Data</title>
<path fill="none" stroke="#4a5568" stroke-width="1.6" d="M265.78,-126.41C259.3,-123.2 252.46,-119.91 246,-117 187.98,-90.83 119,-63.81 78.23,-48.25"/>
<polygon fill="#4a5568" stroke="#4a5568" stroke-width="1.6" points="79.22,-45.44 70.22,-45.2 77.1,-51 79.22,-45.44"/>
</g>
<!-- https://w3id.org/sdata/core/Object&#45;&gt;https://w3id.org/sdata/core/Hardware -->
<g id="edge7" class="edge">
<title>https://w3id.org/sdata/core/Object&#45;&gt;https://w3id.org/sdata/core/Hardware</title>
<path fill="none" stroke="#4a5568" stroke-width="1.6" d="M272.38,-124.81C247.2,-106.48 207.23,-77.38 179.64,-57.3"/>
<polygon fill="#4a5568" stroke="#4a5568" stroke-width="1.6" points="181.18,-54.75 172.56,-52.15 177.68,-59.56 181.18,-54.75"/>
</g>
<!-- https://w3id.org/sdata/core/Object&#45;&gt;https://w3id.org/sdata/core/Material -->
<g id="edge8" class="edge">
<title>https://w3id.org/sdata/core/Object&#45;&gt;https://w3id.org/sdata/core/Material</title>
<path fill="none" stroke="#4a5568" stroke-width="1.6" d="M290.7,-124.81C285.33,-107.42 276.98,-80.33 270.85,-60.45"/>
<polygon fill="#4a5568" stroke="#4a5568" stroke-width="1.6" points="273.64,-59.39 268.29,-52.15 267.95,-61.15 273.64,-59.39"/>
</g>
<!-- https://w3id.org/sdata/core/Product -->
<g id="node11" class="node">
<title>https://w3id.org/sdata/core/Product</title>
<path fill="#e8f1ff" stroke="#2b6cb0" stroke-width="1.6" d="M392,-52C392,-52 350,-52 350,-52 344,-52 338,-46 338,-40 338,-40 338,-28 338,-28 338,-22 344,-16 350,-16 350,-16 392,-16 392,-16 398,-16 404,-22 404,-28 404,-28 404,-40 404,-40 404,-46 398,-52 392,-52"/>
<text text-anchor="middle" x="371" y="-30.9" font-family="Helvetica,sans-Serif" font-size="12.00" fill="#1a365d">Product</text>
</g>
<!-- https://w3id.org/sdata/core/Object&#45;&gt;https://w3id.org/sdata/core/Product -->
<g id="edge9" class="edge">
<title>https://w3id.org/sdata/core/Object&#45;&gt;https://w3id.org/sdata/core/Product</title>
<path fill="none" stroke="#4a5568" stroke-width="1.6" d="M308.05,-124.81C320.52,-107.03 340.08,-79.11 354.09,-59.12"/>
<polygon fill="#4a5568" stroke="#4a5568" stroke-width="1.6" points="356.54,-60.82 358.98,-52.15 351.66,-57.4 356.54,-60.82"/>
</g>
<!-- https://w3id.org/sdata/core/Software -->
<g id="node12" class="node">
<title>https://w3id.org/sdata/core/Software</title>
<path fill="#e8f1ff" stroke="#2b6cb0" stroke-width="1.6" d="M505.5,-52C505.5,-52 456.5,-52 456.5,-52 450.5,-52 444.5,-46 444.5,-40 444.5,-40 444.5,-28 444.5,-28 444.5,-22 450.5,-16 456.5,-16 456.5,-16 505.5,-16 505.5,-16 511.5,-16 517.5,-22 517.5,-28 517.5,-28 517.5,-40 517.5,-40 517.5,-46 511.5,-52 505.5,-52"/>
<text text-anchor="middle" x="481" y="-30.9" font-family="Helvetica,sans-Serif" font-size="12.00" fill="#1a365d">Software</text>
</g>
<!-- https://w3id.org/sdata/core/Object&#45;&gt;https://w3id.org/sdata/core/Software -->
<g id="edge10" class="edge">
<title>https://w3id.org/sdata/core/Object&#45;&gt;https://w3id.org/sdata/core/Software</title>
<path fill="none" stroke="#4a5568" stroke-width="1.6" d="M325.72,-124.81C357.82,-106.25 409.01,-76.64 443.76,-56.54"/>
<polygon fill="#4a5568" stroke="#4a5568" stroke-width="1.6" points="445.48,-58.98 451.35,-52.15 442.5,-53.83 445.48,-58.98"/>
</g>
<!-- https://w3id.org/sdata/core/Process -->
<g id="node10" class="node">
<title>https://w3id.org/sdata/core/Process</title>
<path fill="#e8f1ff" stroke="#2b6cb0" stroke-width="1.6" d="M214,-161C214,-161 172,-161 172,-161 166,-161 160,-155 160,-149 160,-149 160,-137 160,-137 160,-131 166,-125 172,-125 172,-125 214,-125 214,-125 220,-125 226,-131 226,-137 226,-137 226,-149 226,-149 226,-155 220,-161 214,-161"/>
<text text-anchor="middle" x="193" y="-139.9" font-family="Helvetica,sans-Serif" font-size="12.00" fill="#1a365d">Process</text>
</g>
<!-- https://w3id.org/sdata/core/ValueDomain -->
<g id="node14" class="node">
<title>https://w3id.org/sdata/core/ValueDomain</title>
<path fill="#e8f1ff" stroke="#2b6cb0" stroke-width="1.6" d="M108,-161C108,-161 28,-161 28,-161 22,-161 16,-155 16,-149 16,-149 16,-137 16,-137 16,-131 22,-125 28,-125 28,-125 108,-125 108,-125 114,-125 120,-131 120,-137 120,-137 120,-149 120,-149 120,-155 114,-161 108,-161"/>
<text text-anchor="middle" x="68" y="-139.9" font-family="Helvetica,sans-Serif" font-size="12.00" fill="#1a365d">Value Domain</text>
</g>
<!-- legend_sdata -->
<g id="node15" class="node">
<title>legend_sdata</title>
<path fill="#e8f1ff" stroke="#2b6cb0" stroke-width="1.6" d="M1164.5,-161C1164.5,-161 1101.5,-161 1101.5,-161 1095.5,-161 1089.5,-155 1089.5,-149 1089.5,-149 1089.5,-137 1089.5,-137 1089.5,-131 1095.5,-125 1101.5,-125 1101.5,-125 1164.5,-125 1164.5,-125 1170.5,-125 1176.5,-131 1176.5,-137 1176.5,-137 1176.5,-149 1176.5,-149 1176.5,-155 1170.5,-161 1164.5,-161"/>
<text text-anchor="middle" x="1133" y="-139.9" font-family="Helvetica,sans-Serif" font-size="12.00" fill="#1a365d">sdata class</text>
</g>
<!-- legend_sdata&#45;&gt;legend_sdata -->
<g id="edge1" class="edge">
<title>legend_sdata&#45;&gt;legend_sdata</title>
<path fill="none" stroke="#4a5568" stroke-width="1.6" d="M1176.82,-152.88C1197.89,-154.1 1216.5,-150.8 1216.5,-143 1216.5,-136.29 1202.76,-132.92 1185.52,-132.88"/>
<polygon fill="#4a5568" stroke="#4a5568" stroke-width="1.6" points="1185.23,-129.91 1176.82,-133.12 1185.4,-135.85 1185.23,-129.91"/>
<text text-anchor="middle" x="1296.5" y="-139.3" font-family="Helvetica,sans-Serif" font-size="14.00">superclass &#45;&gt; subclass</text>
</g>
</g>
</svg>
