<?xml version="1.0" encoding="UTF-8" standalone="no"?>
<!DOCTYPE svg PUBLIC "-//W3C//DTD SVG 1.1//EN"
 "http://www.w3.org/Graphics/SVG/1.1/DTD/svg11.dtd">
<!-- Generated by graphviz version 2.43.0 (0)
 -->
<!-- Pages: 1 -->
<svg width="2068pt" height="305pt"
 viewBox="0.00 0.00 2068.40 305.40" xmlns="http://www.w3.org/2000/svg" xmlns:xlink="http://www.w3.org/1999/xlink">
<g id="graph0" class="graph" transform="scale(1 1) rotate(0) translate(25.2 280.2)">
<polygon fill="#fafbfc" stroke="transparent" points="-25.2,25.2 -25.2,-280.2 2043.2,-280.2 2043.2,25.2 -25.2,25.2"/>
<text text-anchor="middle" x="1009" y="-235" font-family="Helvetica,sans-Serif" font-size="20.00">sdata Class Hierarchy (autark core)</text>
<g id="clust1" class="cluster">
<title>cluster_legend</title>
<path fill="#fafbfc" stroke="#cbd5e0" d="M20,-135C20,-135 278,-135 278,-135 284,-135 290,-141 290,-147 290,-147 290,-205 290,-205 290,-211 284,-217 278,-217 278,-217 20,-217 20,-217 14,-217 8,-211 8,-205 8,-205 8,-147 8,-147 8,-141 14,-135 20,-135"/>
<text text-anchor="middle" x="149" y="-197" font-family="Helvetica,sans-Serif" font-size="20.00">Legend</text>
</g>
<g id="clust2" class="cluster">
<title>cluster_sdata</title>
<path fill="#fafbfc" stroke="#90b5e8" d="M310,-8C310,-8 1998,-8 1998,-8 2004,-8 2010,-14 2010,-20 2010,-20 2010,-205 2010,-205 2010,-211 2004,-217 1998,-217 1998,-217 310,-217 310,-217 304,-217 298,-211 298,-205 298,-205 298,-20 298,-20 298,-14 304,-8 310,-8"/>
<text text-anchor="middle" x="1154" y="-197" font-family="Helvetica,sans-Serif" font-size="20.00">sdata classes</text>
</g>
<g id="clust3" class="cluster">
<title>cluster_dual_rank_MaterialArtifact</title>
</g>
<g id="clust4" class="cluster">
<title>cluster_dual_rank_MaterialProcess</title>
</g>
<g id="clust5" class="cluster">
<title>cluster_dual_rank_Material</title>
</g>
<g id="clust6" class="cluster">
<title>cluster_dual_rank_MaterialAgent</title>
</g>
<g id="clust7" class="cluster">
<title>cluster_dual_rank_MaterialSite</title>
</g>
<!-- legend_sdata -->
<g id="node1" class="node">
<title>legend_sdata</title>
<path fill="#e8f1ff" stroke="#2b6cb0" stroke-width="1.6" d="M91.5,-179C91.5,-179 28.5,-179 28.5,-179 22.5,-179 16.5,-173 16.5,-167 16.5,-167 16.5,-155 16.5,-155 16.5,-149 22.5,-143 28.5,-143 28.5,-143 91.5,-143 91.5,-143 97.5,-143 103.5,-149 103.5,-155 103.5,-155 103.5,-167 103.5,-167 103.5,-173 97.5,-179 91.5,-179"/>
<text text-anchor="middle" x="60" y="-157.9" font-family="Helvetica,sans-Serif" font-size="12.00" fill="#1a365d">sdata class</text>
</g>
<!-- legend_sdata&#45;&gt;legend_sdata -->
<g id="edge1" class="edge">
<title>legend_sdata&#45;&gt;legend_sdata</title>
<path fill="none" stroke="#4a5568" stroke-width="1.6" d="M103.82,-170.88C124.89,-172.1 143.5,-168.8 143.5,-161 143.5,-154.29 129.76,-150.92 112.52,-150.88"/>
<polygon fill="#4a5568" stroke="#4a5568" stroke-width="1.6" points="112.23,-147.91 103.82,-151.12 112.4,-153.85 112.23,-147.91"/>
<text text-anchor="middle" x="223.5" y="-157.3" font-family="Helvetica,sans-Serif" font-size="14.00">superclass &#45;&gt; subclass</text>
</g>
<!-- https://w3id.org/sdata/core/InformationArtifact -->
<g id="node2" class="node">
<title>https://w3id.org/sdata/core/InformationArtifact</title>
<path fill="#e8f1ff" stroke="#2b6cb0" stroke-width="1.6" d="M637,-60C637,-60 523,-60 523,-60 517,-60 511,-54 511,-48 511,-48 511,-36 511,-36 511,-30 517,-24 523,-24 523,-24 637,-24 637,-24 643,-24 649,-30 649,-36 649,-36 649,-48 649,-48 649,-54 643,-60 637,-60"/>
<text text-anchor="middle" x="580" y="-38.9" font-family="Helvetica,sans-Serif" font-size="12.00" fill="#1a365d">Information Artifact</text>
</g>
<!-- https://w3id.org/sdata/core/MaterialArtifact -->
<g id="node3" class="node">
<title>https://w3id.org/sdata/core/MaterialArtifact</title>
<path fill="#e8f1ff" stroke="#2b6cb0" stroke-width="1.6" d="M419.5,-60C419.5,-60 326.5,-60 326.5,-60 320.5,-60 314.5,-54 314.5,-48 314.5,-48 314.5,-36 314.5,-36 314.5,-30 320.5,-24 326.5,-24 326.5,-24 419.5,-24 419.5,-24 425.5,-24 431.5,-30 431.5,-36 431.5,-36 431.5,-48 431.5,-48 431.5,-54 425.5,-60 419.5,-60"/>
<text text-anchor="middle" x="373" y="-38.9" font-family="Helvetica,sans-Serif" font-size="12.00" fill="#1a365d">Material Artifact</text>
</g>
<!-- https://w3id.org/sdata/core/MaterialArtifact&#45;&gt;https://w3id.org/sdata/core/InformationArtifact -->
<g id="edge9" class="edge">
<title>https://w3id.org/sdata/core/MaterialArtifact&#45;&gt;https://w3id.org/sdata/core/InformationArtifact</title>
<path fill="none" stroke="#6b7280" stroke-width="1.6" stroke-dasharray="5,2" d="M431.76,-42C456.39,-42 485.19,-42 510.83,-42"/>
<text text-anchor="middle" x="471.25" y="-48.8" font-family="Helvetica,sans-Serif" font-size="14.00" fill="#6b7280">dual</text>
</g>
<!-- https://w3id.org/sdata/core/InformationProcess -->
<g id="node4" class="node">
<title>https://w3id.org/sdata/core/InformationProcess</title>
<path fill="#e8f1ff" stroke="#2b6cb0" stroke-width="1.6" d="M1648.5,-60C1648.5,-60 1533.5,-60 1533.5,-60 1527.5,-60 1521.5,-54 1521.5,-48 1521.5,-48 1521.5,-36 1521.5,-36 1521.5,-30 1527.5,-24 1533.5,-24 1533.5,-24 1648.5,-24 1648.5,-24 1654.5,-24 1660.5,-30 1660.5,-36 1660.5,-36 1660.5,-48 1660.5,-48 1660.5,-54 1654.5,-60 1648.5,-60"/>
<text text-anchor="middle" x="1591" y="-38.9" font-family="Helvetica,sans-Serif" font-size="12.00" fill="#1a365d">Information Process</text>
</g>
<!-- https://w3id.org/sdata/core/MaterialProcess -->
<g id="node5" class="node">
<title>https://w3id.org/sdata/core/MaterialProcess</title>
<path fill="#e8f1ff" stroke="#2b6cb0" stroke-width="1.6" d="M1430,-60C1430,-60 1336,-60 1336,-60 1330,-60 1324,-54 1324,-48 1324,-48 1324,-36 1324,-36 1324,-30 1330,-24 1336,-24 1336,-24 1430,-24 1430,-24 1436,-24 1442,-30 1442,-36 1442,-36 1442,-48 1442,-48 1442,-54 1436,-60 1430,-60"/>
<text text-anchor="middle" x="1383" y="-38.9" font-family="Helvetica,sans-Serif" font-size="12.00" fill="#1a365d">Material Process</text>
</g>
<!-- https://w3id.org/sdata/core/MaterialProcess&#45;&gt;https://w3id.org/sdata/core/InformationProcess -->
<g id="edge10" class="edge">
<title>https://w3id.org/sdata/core/MaterialProcess&#45;&gt;https://w3id.org/sdata/core/InformationProcess</title>
<path fill="none" stroke="#6b7280" stroke-width="1.6" stroke-dasharray="5,2" d="M1442.05,-42C1466.79,-42 1495.73,-42 1521.5,-42"/>
<text text-anchor="middle" x="1481.75" y="-48.8" font-family="Helvetica,sans-Serif" font-size="14.00" fill="#6b7280">dual</text>
</g>
<!-- https://w3id.org/sdata/core/Information -->
<g id="node6" class="node">
<title>https://w3id.org/sdata/core/Information</title>
<path fill="#e8f1ff" stroke="#2b6cb0" stroke-width="1.6" d="M1272,-60C1272,-60 1206,-60 1206,-60 1200,-60 1194,-54 1194,-48 1194,-48 1194,-36 1194,-36 1194,-30 1200,-24 1206,-24 1206,-24 1272,-24 1272,-24 1278,-24 1284,-30 1284,-36 1284,-36 1284,-48 1284,-48 1284,-54 1278,-60 1272,-60"/>
<text text-anchor="middle" x="1239" y="-38.9" font-family="Helvetica,sans-Serif" font-size="12.00" fill="#1a365d">Information</text>
</g>
<!-- https://w3id.org/sdata/core/Material -->
<g id="node7" class="node">
<title>https://w3id.org/sdata/core/Material</title>
<path fill="#e8f1ff" stroke="#2b6cb0" stroke-width="1.6" d="M1102.5,-60C1102.5,-60 1057.5,-60 1057.5,-60 1051.5,-60 1045.5,-54 1045.5,-48 1045.5,-48 1045.5,-36 1045.5,-36 1045.5,-30 1051.5,-24 1057.5,-24 1057.5,-24 1102.5,-24 1102.5,-24 1108.5,-24 1114.5,-30 1114.5,-36 1114.5,-36 1114.5,-48 1114.5,-48 1114.5,-54 1108.5,-60 1102.5,-60"/>
<text text-anchor="middle" x="1080" y="-38.9" font-family="Helvetica,sans-Serif" font-size="12.00" fill="#1a365d">Material</text>
</g>
<!-- https://w3id.org/sdata/core/Material&#45;&gt;https://w3id.org/sdata/core/Information -->
<g id="edge7" class="edge">
<title>https://w3id.org/sdata/core/Material&#45;&gt;https://w3id.org/sdata/core/Information</title>
<path fill="none" stroke="#6b7280" stroke-width="1.6" stroke-dasharray="5,2" d="M1114.5,-42C1137.79,-42 1168.76,-42 1193.99,-42"/>
<text text-anchor="middle" x="1154.25" y="-48.8" font-family="Helvetica,sans-Serif" font-size="14.00" fill="#6b7280">dual</text>
</g>
<!-- https://w3id.org/sdata/core/InformationAgent -->
<g id="node8" class="node">
<title>https://w3id.org/sdata/core/InformationAgent</title>
<path fill="#e8f1ff" stroke="#2b6cb0" stroke-width="1.6" d="M993.5,-60C993.5,-60 888.5,-60 888.5,-60 882.5,-60 876.5,-54 876.5,-48 876.5,-48 876.5,-36 876.5,-36 876.5,-30 882.5,-24 888.5,-24 888.5,-24 993.5,-24 993.5,-24 999.5,-24 1005.5,-30 1005.5,-36 1005.5,-36 1005.5,-48 1005.5,-48 1005.5,-54 999.5,-60 993.5,-60"/>
<text text-anchor="middle" x="941" y="-38.9" font-family="Helvetica,sans-Serif" font-size="12.00" fill="#1a365d">Information Agent</text>
</g>
<!-- https://w3id.org/sdata/core/MaterialAgent -->
<g id="node9" class="node">
<title>https://w3id.org/sdata/core/MaterialAgent</title>
<path fill="#e8f1ff" stroke="#2b6cb0" stroke-width="1.6" d="M785,-60C785,-60 701,-60 701,-60 695,-60 689,-54 689,-48 689,-48 689,-36 689,-36 689,-30 695,-24 701,-24 701,-24 785,-24 785,-24 791,-24 797,-30 797,-36 797,-36 797,-48 797,-48 797,-54 791,-60 785,-60"/>
<text text-anchor="middle" x="743" y="-38.9" font-family="Helvetica,sans-Serif" font-size="12.00" fill="#1a365d">Material Agent</text>
</g>
<!-- https://w3id.org/sdata/core/MaterialAgent&#45;&gt;https://w3id.org/sdata/core/InformationAgent -->
<g id="edge8" class="edge">
<title>https://w3id.org/sdata/core/MaterialAgent&#45;&gt;https://w3id.org/sdata/core/InformationAgent</title>
<path fill="none" stroke="#6b7280" stroke-width="1.6" stroke-dasharray="5,2" d="M797.1,-42C821.61,-42 850.77,-42 876.41,-42"/>
<text text-anchor="middle" x="836.75" y="-48.8" font-family="Helvetica,sans-Serif" font-size="14.00" fill="#6b7280">dual</text>
</g>
<!-- https://w3id.org/sdata/core/InformationSite -->
<g id="node10" class="node">
<title>https://w3id.org/sdata/core/InformationSite</title>
<path fill="#e8f1ff" stroke="#2b6cb0" stroke-width="1.6" d="M1981.5,-60C1981.5,-60 1888.5,-60 1888.5,-60 1882.5,-60 1876.5,-54 1876.5,-48 1876.5,-48 1876.5,-36 1876.5,-36 1876.5,-30 1882.5,-24 1888.5,-24 1888.5,-24 1981.5,-24 1981.5,-24 1987.5,-24 1993.5,-30 1993.5,-36 1993.5,-36 1993.5,-48 1993.5,-48 1993.5,-54 1987.5,-60 1981.5,-60"/>
<text text-anchor="middle" x="1935" y="-38.9" font-family="Helvetica,sans-Serif" font-size="12.00" fill="#1a365d">Information Site</text>
</g>
<!-- https://w3id.org/sdata/core/MaterialSite -->
<g id="node11" class="node">
<title>https://w3id.org/sdata/core/MaterialSite</title>
<path fill="#e8f1ff" stroke="#2b6cb0" stroke-width="1.6" d="M1785,-60C1785,-60 1713,-60 1713,-60 1707,-60 1701,-54 1701,-48 1701,-48 1701,-36 1701,-36 1701,-30 1707,-24 1713,-24 1713,-24 1785,-24 1785,-24 1791,-24 1797,-30 1797,-36 1797,-36 1797,-48 1797,-48 1797,-54 1791,-60 1785,-60"/>
<text text-anchor="middle" x="1749" y="-38.9" font-family="Helvetica,sans-Serif" font-size="12.00" fill="#1a365d">Material Site</text>
</g>
<!-- https://w3id.org/sdata/core/MaterialSite&#45;&gt;https://w3id.org/sdata/core/InformationSite -->
<g id="edge11" class="edge">
<title>https://w3id.org/sdata/core/MaterialSite&#45;&gt;https://w3id.org/sdata/core/InformationSite</title>
<path fill="none" stroke="#6b7280" stroke-width="1.6" stroke-dasharray="5,2" d="M1797.38,-42C1821.49,-42 1850.85,-42 1876.24,-42"/>
<text text-anchor="middle" x="1836.75" y="-48.8" font-family="Helvetica,sans-Serif" font-size="14.00" fill="#6b7280">dual</text>
</g>
<!-- https://w3id.org/sdata/core/Agent -->
<g id="node12" class="node">
<title>https://w3id.org/sdata/core/Agent</title>
<path fill="#e8f1ff" stroke="#2b6cb0" stroke-width="1.6" d="M1978,-179C1978,-179 1946,-179 1946,-179 1940,-179 1934,-173 1934,-167 1934,-167 1934,-155 1934,-155 1934,-149 1940,-143 1946,-143 1946,-143 1978,-143 1978,-143 1984,-143 1990,-149 1990,-155 1990,-155 1990,-167 1990,-167 1990,-173 1984,-179 1978,-179"/>
<text text-anchor="middle" x="1962" y="-157.9" font-family="Helvetica,sans-Serif" font-size="12.00" fill="#1a365d">Agent</text>
</g>
<!-- https://w3id.org/sdata/core/Artifact -->
<g id="node13" class="node">
<title>https://w3id.org/sdata/core/Artifact</title>
<path fill="#e8f1ff" stroke="#2b6cb0" stroke-width="1.6" d="M1835.5,-179C1835.5,-179 1794.5,-179 1794.5,-179 1788.5,-179 1782.5,-173 1782.5,-167 1782.5,-167 1782.5,-155 1782.5,-155 1782.5,-149 1788.5,-143 1794.5,-143 1794.5,-143 1835.5,-143 1835.5,-143 1841.5,-143 1847.5,-149 1847.5,-155 1847.5,-155 1847.5,-167 1847.5,-167 1847.5,-173 1841.5,-179 1835.5,-179"/>
<text text-anchor="middle" x="1815" y="-157.9" font-family="Helvetica,sans-Serif" font-size="12.00" fill="#1a365d">Artifact</text>
</g>
<!-- https://w3id.org/sdata/core/Identifier -->
<g id="node14" class="node">
<title>https://w3id.org/sdata/core/Identifier</title>
<path fill="#e8f1ff" stroke="#2b6cb0" stroke-width="1.6" d="M1638.5,-179C1638.5,-179 1587.5,-179 1587.5,-179 1581.5,-179 1575.5,-173 1575.5,-167 1575.5,-167 1575.5,-155 1575.5,-155 1575.5,-149 1581.5,-143 1587.5,-143 1587.5,-143 1638.5,-143 1638.5,-143 1644.5,-143 1650.5,-149 1650.5,-155 1650.5,-155 1650.5,-167 1650.5,-167 1650.5,-173 1644.5,-179 1638.5,-179"/>
<text text-anchor="middle" x="1613" y="-157.9" font-family="Helvetica,sans-Serif" font-size="12.00" fill="#1a365d">Identifier</text>
</g>
<!-- https://w3id.org/sdata/core/Intangible -->
<g id="node15" class="node">
<title>https://w3id.org/sdata/core/Intangible</title>
<path fill="#e8f1ff" stroke="#2b6cb0" stroke-width="1.6" d="M1338,-179C1338,-179 1282,-179 1282,-179 1276,-179 1270,-173 1270,-167 1270,-167 1270,-155 1270,-155 1270,-149 1276,-143 1282,-143 1282,-143 1338,-143 1338,-143 1344,-143 1350,-149 1350,-155 1350,-155 1350,-167 1350,-167 1350,-173 1344,-179 1338,-179"/>
<text text-anchor="middle" x="1310" y="-157.9" font-family="Helvetica,sans-Serif" font-size="12.00" fill="#1a365d">Intangible</text>
</g>
<!-- https://w3id.org/sdata/core/Intangible&#45;&gt;https://w3id.org/sdata/core/InformationArtifact -->
<g id="edge4" class="edge">
<title>https://w3id.org/sdata/core/Intangible&#45;&gt;https://w3id.org/sdata/core/InformationArtifact</title>
<path fill="none" stroke="#4a5568" stroke-width="1.6" d="M1274.47,-142.94C1266.58,-139.79 1258.13,-136.9 1250,-135 998.89,-76.39 917.06,-175.12 671,-98 648.34,-90.9 625.48,-77.05 608.34,-65.02"/>
<polygon fill="#4a5568" stroke="#4a5568" stroke-width="1.6" points="610,-62.55 601.36,-60.01 606.53,-67.38 610,-62.55"/>
</g>
<!-- https://w3id.org/sdata/core/Intangible&#45;&gt;https://w3id.org/sdata/core/InformationProcess -->
<g id="edge5" class="edge">
<title>https://w3id.org/sdata/core/Intangible&#45;&gt;https://w3id.org/sdata/core/InformationProcess</title>
<path fill="none" stroke="#4a5568" stroke-width="1.6" d="M1350.07,-143.85C1380.76,-131.44 1424.12,-113.8 1462,-98 1489.05,-86.72 1519.19,-73.88 1543.53,-63.45"/>
<polygon fill="#4a5568" stroke="#4a5568" stroke-width="1.6" points="1544.91,-66.1 1551.55,-60.01 1542.56,-60.63 1544.91,-66.1"/>
</g>
<!-- https://w3id.org/sdata/core/Intangible&#45;&gt;https://w3id.org/sdata/core/Information -->
<g id="edge2" class="edge">
<title>https://w3id.org/sdata/core/Intangible&#45;&gt;https://w3id.org/sdata/core/Information</title>
<path fill="none" stroke="#4a5568" stroke-width="1.6" d="M1299.68,-142.99C1287.63,-123.14 1267.63,-90.18 1253.91,-67.56"/>
<polygon fill="#4a5568" stroke="#4a5568" stroke-width="1.6" points="1256.29,-65.76 1249.34,-60.03 1251.2,-68.84 1256.29,-65.76"/>
</g>
<!-- https://w3id.org/sdata/core/Intangible&#45;&gt;https://w3id.org/sdata/core/InformationAgent -->
<g id="edge3" class="edge">
<title>https://w3id.org/sdata/core/Intangible&#45;&gt;https://w3id.org/sdata/core/InformationAgent</title>
<path fill="none" stroke="#4a5568" stroke-width="1.6" d="M1272.71,-142.91C1265.29,-139.96 1257.48,-137.15 1250,-135 1153.44,-107.27 1120.79,-134.02 1027,-98 1006.34,-90.07 985.37,-76.78 969.31,-65.26"/>
<polygon fill="#4a5568" stroke="#4a5568" stroke-width="1.6" points="970.91,-62.74 962.3,-60.12 967.39,-67.54 970.91,-62.74"/>
</g>
<!-- https://w3id.org/sdata/core/Intangible&#45;&gt;https://w3id.org/sdata/core/InformationSite -->
<g id="edge6" class="edge">
<title>https://w3id.org/sdata/core/Intangible&#45;&gt;https://w3id.org/sdata/core/InformationSite</title>
<path fill="none" stroke="#4a5568" stroke-width="1.6" d="M1350.09,-155.83C1461.98,-144.09 1772.4,-110.77 1817,-98 1844.99,-89.98 1874.69,-76.11 1897.29,-64.3"/>
<polygon fill="#4a5568" stroke="#4a5568" stroke-width="1.6" points="1898.86,-66.84 1904.97,-60.23 1896.07,-61.58 1898.86,-66.84"/>
</g>
<!-- https://w3id.org/sdata/core/Process -->
<g id="node16" class="node">
<title>https://w3id.org/sdata/core/Process</title>
<path fill="#e8f1ff" stroke="#2b6cb0" stroke-width="1.6" d="M1218,-179C1218,-179 1176,-179 1176,-179 1170,-179 1164,-173 1164,-167 1164,-167 1164,-155 1164,-155 1164,-149 1170,-143 1176,-143 1176,-143 1218,-143 1218,-143 1224,-143 1230,-149 1230,-155 1230,-155 1230,-167 1230,-167 1230,-173 1224,-179 1218,-179"/>
<text text-anchor="middle" x="1197" y="-157.9" font-family="Helvetica,sans-Serif" font-size="12.00" fill="#1a365d">Process</text>
</g>
<!-- https://w3id.org/sdata/core/Role -->
<g id="node17" class="node">
<title>https://w3id.org/sdata/core/Role</title>
<path fill="#e8f1ff" stroke="#2b6cb0" stroke-width="1.6" d="M1112,-179C1112,-179 1082,-179 1082,-179 1076,-179 1070,-173 1070,-167 1070,-167 1070,-155 1070,-155 1070,-149 1076,-143 1082,-143 1082,-143 1112,-143 1112,-143 1118,-143 1124,-149 1124,-155 1124,-155 1124,-167 1124,-167 1124,-173 1118,-179 1112,-179"/>
<text text-anchor="middle" x="1097" y="-157.9" font-family="Helvetica,sans-Serif" font-size="12.00" fill="#1a365d">Role</text>
</g>
<!-- https://w3id.org/sdata/core/Site -->
<g id="node18" class="node">
<title>https://w3id.org/sdata/core/Site</title>
<path fill="#e8f1ff" stroke="#2b6cb0" stroke-width="1.6" d="M1018,-179C1018,-179 988,-179 988,-179 982,-179 976,-173 976,-167 976,-167 976,-155 976,-155 976,-149 982,-143 988,-143 988,-143 1018,-143 1018,-143 1024,-143 1030,-149 1030,-155 1030,-155 1030,-167 1030,-167 1030,-173 1024,-179 1018,-179"/>
<text text-anchor="middle" x="1003" y="-157.9" font-family="Helvetica,sans-Serif" font-size="12.00" fill="#1a365d">Site</text>
</g>
<!-- https://w3id.org/sdata/core/Substance -->
<g id="node19" class="node">
<title>https://w3id.org/sdata/core/Substance</title>
<path fill="#e8f1ff" stroke="#2b6cb0" stroke-width="1.6" d="M923.5,-179C923.5,-179 864.5,-179 864.5,-179 858.5,-179 852.5,-173 852.5,-167 852.5,-167 852.5,-155 852.5,-155 852.5,-149 858.5,-143 864.5,-143 864.5,-143 923.5,-143 923.5,-143 929.5,-143 935.5,-149 935.5,-155 935.5,-155 935.5,-167 935.5,-167 935.5,-173 929.5,-179 923.5,-179"/>
<text text-anchor="middle" x="894" y="-157.9" font-family="Helvetica,sans-Serif" font-size="12.00" fill="#1a365d">Substance</text>
</g>
<!-- https://w3id.org/sdata/core/Tangible -->
<g id="node20" class="node">
<title>https://w3id.org/sdata/core/Tangible</title>
<path fill="#e8f1ff" stroke="#2b6cb0" stroke-width="1.6" d="M800.5,-179C800.5,-179 755.5,-179 755.5,-179 749.5,-179 743.5,-173 743.5,-167 743.5,-167 743.5,-155 743.5,-155 743.5,-149 749.5,-143 755.5,-143 755.5,-143 800.5,-143 800.5,-143 806.5,-143 812.5,-149 812.5,-155 812.5,-155 812.5,-167 812.5,-167 812.5,-173 806.5,-179 800.5,-179"/>
<text text-anchor="middle" x="778" y="-157.9" font-family="Helvetica,sans-Serif" font-size="12.00" fill="#1a365d">Tangible</text>
</g>
<!-- https://w3id.org/sdata/core/Tangible&#45;&gt;https://w3id.org/sdata/core/MaterialArtifact -->
<g id="edge14" class="edge">
<title>https://w3id.org/sdata/core/Tangible&#45;&gt;https://w3id.org/sdata/core/MaterialArtifact</title>
<path fill="none" stroke="#4a5568" stroke-width="1.6" d="M743.31,-155.07C688.68,-146.75 579.66,-127.82 491,-98 463.98,-88.91 434.94,-75.43 412.43,-64.09"/>
<polygon fill="#4a5568" stroke="#4a5568" stroke-width="1.6" points="413.68,-61.38 404.76,-60.17 410.98,-66.68 413.68,-61.38"/>
</g>
<!-- https://w3id.org/sdata/core/Tangible&#45;&gt;https://w3id.org/sdata/core/MaterialProcess -->
<g id="edge15" class="edge">
<title>https://w3id.org/sdata/core/Tangible&#45;&gt;https://w3id.org/sdata/core/MaterialProcess</title>
<path fill="none" stroke="#4a5568" stroke-width="1.6" d="M810.77,-142.87C817.93,-139.77 825.59,-136.91 833,-135 1035.45,-82.73 1104.71,-167.26 1302,-98 1322.12,-90.94 1341.98,-77.58 1356.99,-65.81"/>
<polygon fill="#4a5568" stroke="#4a5568" stroke-width="1.6" points="1359.21,-67.84 1363.96,-60.18 1355.47,-63.21 1359.21,-67.84"/>
</g>
<!-- https://w3id.org/sdata/core/Tangible&#45;&gt;https://w3id.org/sdata/core/Material -->
<g id="edge12" class="edge">
<title>https://w3id.org/sdata/core/Tangible&#45;&gt;https://w3id.org/sdata/core/Material</title>
<path fill="none" stroke="#4a5568" stroke-width="1.6" d="M812.13,-142.99C818.93,-140.03 826.11,-137.2 833,-135 915.37,-108.71 947.46,-138.23 1024,-98 1038.38,-90.44 1051.52,-77.99 1061.45,-66.84"/>
<polygon fill="#4a5568" stroke="#4a5568" stroke-width="1.6" points="1063.93,-68.52 1067.2,-60.13 1059.41,-64.65 1063.93,-68.52"/>
</g>
<!-- https://w3id.org/sdata/core/Tangible&#45;&gt;https://w3id.org/sdata/core/MaterialAgent -->
<g id="edge13" class="edge">
<title>https://w3id.org/sdata/core/Tangible&#45;&gt;https://w3id.org/sdata/core/MaterialAgent</title>
<path fill="none" stroke="#4a5568" stroke-width="1.6" d="M772.91,-142.99C767.05,-123.4 757.37,-91.04 750.62,-68.46"/>
<polygon fill="#4a5568" stroke="#4a5568" stroke-width="1.6" points="753.38,-67.32 748.1,-60.03 747.68,-69.03 753.38,-67.32"/>
</g>
<!-- https://w3id.org/sdata/core/Tangible&#45;&gt;https://w3id.org/sdata/core/MaterialSite -->
<g id="edge16" class="edge">
<title>https://w3id.org/sdata/core/Tangible&#45;&gt;https://w3id.org/sdata/core/MaterialSite</title>
<path fill="none" stroke="#4a5568" stroke-width="1.6" d="M810.13,-142.93C817.46,-139.74 825.35,-136.83 833,-135 1016,-91.15 1502.54,-163.38 1679,-98 1697.14,-91.28 1714.28,-77.98 1727.06,-66.14"/>
<polygon fill="#4a5568" stroke="#4a5568" stroke-width="1.6" points="1729.25,-68.16 1733.32,-60.13 1725.13,-63.87 1729.25,-68.16"/>
</g>
</g>
</svg>
