<?xml version="1.0" encoding="UTF-8" standalone="no"?>
<!DOCTYPE svg PUBLIC "-//W3C//DTD SVG 1.1//EN"
 "http://www.w3.org/Graphics/SVG/1.1/DTD/svg11.dtd">
<!-- Generated by graphviz version 2.43.0 (0)
 -->
<!-- Pages: 1 -->
<svg width="2068pt" height="305pt"
 viewBox="0.00 0.00 2068.40 305.40" xmlns="http://www.w3.org/2000/svg" xmlns:xlink="http://www.w3.org/1999/xlink">
<g id="graph0" class="graph" transform="scale(1 1) rotate(0) translate(25.2 280.2)">
<polygon fill="#fafbfc" stroke="transparent" points="-25.2,25.2 -25.2,-280.2 2043.2,-280.2 2043.2,25.2 -25.2,25.2"/>
<text text-anchor="middle" x="1009" y="-235" font-family="Helvetica,sans-Serif" font-size="20.00">sdata Class Hierarchy (autark core)</text>
<g id="clust1" class="cluster">
<title>cluster_legend</title>
<path fill="#fafbfc" stroke="#cbd5e0" d="M20,-135C20,-135 278,-135 278,-135 284,-135 290,-141 290,-147 290,-147 290,-205 290,-205 290,-211 284,-217 278,-217 278,-217 20,-217 20,-217 14,-217 8,-211 8,-205 8,-205 8,-147 8,-147 8,-141 14,-135 20,-135"/>
<text text-anchor="middle" x="149" y="-197" font-family="Helvetica,sans-Serif" font-size="20.00">Legend</text>
</g>
<g id="clust2" class="cluster">
<title>cluster_sdata</title>
<path fill="#fafbfc" stroke="#90b5e8" d="M310,-8C310,-8 1998,-8 1998,-8 2004,-8 2010,-14 2010,-20 2010,-20 2010,-205 2010,-205 2010,-211 2004,-217 1998,-217 1998,-217 310,-217 310,-217 304,-217 298,-211 298,-205 298,-205 298,-20 298,-20 298,-14 304,-8 310,-8"/>
<text text-anchor="middle" x="1154" y="-197" font-family="Helvetica,sans-Serif" font-size="20.00">sdata classes</text>
</g>
<g id="clust3" class="cluster">
<title>cluster_dual_rank_MaterialArtifact</title>
</g>
<g id="clust4" class="cluster">
<title>cluster_dual_rank_MaterialSite</title>
</g>
<g id="clust5" class="cluster">
<title>cluster_dual_rank_Material</title>
</g>
<g id="clust6" class="cluster">
<title>cluster_dual_rank_MaterialProcess</title>
</g>
<g id="clust7" class="cluster">
<title>cluster_dual_rank_MaterialAgent</title>
</g>
<!-- legend_sdata -->
<g id="node1" class="node">
<title>legend_sdata</title>
<path fill="#e8f1ff" stroke="#2b6cb0" stroke-width="1.6" d="M91.5,-179C91.5,-179 28.5,-179 28.5,-179 22.5,-179 16.5,-173 16.5,-167 16.5,-167 16.5,-155 16.5,-155 16.5,-149 22.5,-143 28.5,-143 28.5,-143 91.5,-143 91.5,-143 97.5,-143 103.5,-149 103.5,-155 103.5,-155 103.5,-167 103.5,-167 103.5,-173 97.5,-179 91.5,-179"/>
<text text-anchor="middle" x="60" y="-157.9" font-family="Helvetica,sans-Serif" font-size="12.00" fill="#1a365d">sdata class</text>
</g>
<!-- legend_sdata&#45;&gt;legend_sdata -->
<g id="edge1" class="edge">
<title>legend_sdata&#45;&gt;legend_sdata</title>
<path fill="none" stroke="#4a5568" stroke-width="1.6" d="M103.82,-170.88C124.89,-172.1 143.5,-168.8 143.5,-161 143.5,-154.29 129.76,-150.92 112.52,-150.88"/>
<polygon fill="#4a5568" stroke="#4a5568" stroke-width="1.6" points="112.23,-147.91 103.82,-151.12 112.4,-153.85 112.23,-147.91"/>
<text text-anchor="middle" x="223.5" y="-157.3" font-family="Helvetica,sans-Serif" font-size="14.00">superclass &#45;&gt; subclass</text>
</g>
<!-- https://w3id.org/sdata/core/InformationArtifact -->
<g id="node2" class="node">
<title>https://w3id.org/sdata/core/InformationArtifact</title>
<path fill="#e8f1ff" stroke="#2b6cb0" stroke-width="1.6" d="M637,-60C637,-60 523,-60 523,-60 517,-60 511,-54 511,-48 511,-48 511,-36 511,-36 511,-30 517,-24 523,-24 523,-24 637,-24 637,-24 643,-24 649,-30 649,-36 649,-36 649,-48 649,-48 649,-54 643,-60 637,-60"/>
<text text-anchor="middle" x="580" y="-38.9" font-family="Helvetica,sans-Serif" font-size="12.00" fill="#1a365d">Information Artifact</text>
</g>
<!-- https://w3id.org/sdata/core/MaterialArtifact -->
<g id="node3" class="node">
<title>https://w3id.org/sdata/core/MaterialArtifact</title>
<path fill="#e8f1ff" stroke="#2b6cb0" stroke-width="1.6" d="M419.5,-60C419.5,-60 326.5,-60 326.5,-60 320.5,-60 314.5,-54 314.5,-48 314.5,-48 314.5,-36 314.5,-36 314.5,-30 320.5,-24 326.5,-24 326.5,-24 419.5,-24 419.5,-24 425.5,-24 431.5,-30 431.5,-36 431.5,-36 431.5,-48 431.5,-48 431.5,-54 425.5,-60 419.5,-60"/>
<text text-anchor="middle" x="373" y="-38.9" font-family="Helvetica,sans-Serif" font-size="12.00" fill="#1a365d">Material Artifact</text>
</g>
<!-- https://w3id.org/sdata/core/MaterialArtifact&#45;&gt;https://w3id.org/sdata/core/InformationArtifact -->
<g id="edge9" class="edge">
<title>https://w3id.org/sdata/core/MaterialArtifact&#45;&gt;https://w3id.org/sdata/core/InformationArtifact</title>
<path fill="none" stroke="#6b7280" stroke-width="1.6" stroke-dasharray="5,2" d="M431.76,-42C456.39,-42 485.19,-42 510.83,-42"/>
<text text-anchor="middle" x="471.25" y="-48.8" font-family="Helvetica,sans-Serif" font-size="14.00" fill="#6b7280">dual</text>
</g>
<!-- https://w3id.org/sdata/core/InformationSite -->
<g id="node4" class="node">
<title>https://w3id.org/sdata/core/InformationSite</title>
<path fill="#e8f1ff" stroke="#2b6cb0" stroke-width="1.6" d="M1624.5,-60C1624.5,-60 1531.5,-60 1531.5,-60 1525.5,-60 1519.5,-54 1519.5,-48 1519.5,-48 1519.5,-36 1519.5,-36 1519.5,-30 1525.5,-24 1531.5,-24 1531.5,-24 1624.5,-24 1624.5,-24 1630.5,-24 1636.5,-30 1636.5,-36 1636.5,-36 1636.5,-48 1636.5,-48 1636.5,-54 1630.5,-60 1624.5,-60"/>
<text text-anchor="middle" x="1578" y="-38.9" font-family="Helvetica,sans-Serif" font-size="12.00" fill="#1a365d">Information Site</text>
</g>
<!-- https://w3id.org/sdata/core/MaterialSite -->
<g id="node5" class="node">
<title>https://w3id.org/sdata/core/MaterialSite</title>
<path fill="#e8f1ff" stroke="#2b6cb0" stroke-width="1.6" d="M1428,-60C1428,-60 1356,-60 1356,-60 1350,-60 1344,-54 1344,-48 1344,-48 1344,-36 1344,-36 1344,-30 1350,-24 1356,-24 1356,-24 1428,-24 1428,-24 1434,-24 1440,-30 1440,-36 1440,-36 1440,-48 1440,-48 1440,-54 1434,-60 1428,-60"/>
<text text-anchor="middle" x="1392" y="-38.9" font-family="Helvetica,sans-Serif" font-size="12.00" fill="#1a365d">Material Site</text>
</g>
<!-- https://w3id.org/sdata/core/MaterialSite&#45;&gt;https://w3id.org/sdata/core/InformationSite -->
<g id="edge11" class="edge">
<title>https://w3id.org/sdata/core/MaterialSite&#45;&gt;https://w3id.org/sdata/core/InformationSite</title>
<path fill="none" stroke="#6b7280" stroke-width="1.6" stroke-dasharray="5,2" d="M1440.38,-42C1464.49,-42 1493.85,-42 1519.24,-42"/>
<text text-anchor="middle" x="1479.75" y="-48.8" font-family="Helvetica,sans-Serif" font-size="14.00" fill="#6b7280">dual</text>
</g>
<!-- https://w3id.org/sdata/core/Information -->
<g id="node6" class="node">
<title>https://w3id.org/sdata/core/Information</title>
<path fill="#e8f1ff" stroke="#2b6cb0" stroke-width="1.6" d="M1292,-60C1292,-60 1226,-60 1226,-60 1220,-60 1214,-54 1214,-48 1214,-48 1214,-36 1214,-36 1214,-30 1220,-24 1226,-24 1226,-24 1292,-24 1292,-24 1298,-24 1304,-30 1304,-36 1304,-36 1304,-48 1304,-48 1304,-54 1298,-60 1292,-60"/>
<text text-anchor="middle" x="1259" y="-38.9" font-family="Helvetica,sans-Serif" font-size="12.00" fill="#1a365d">Information</text>
</g>
<!-- https://w3id.org/sdata/core/Material -->
<g id="node7" class="node">
<title>https://w3id.org/sdata/core/Material</title>
<path fill="#e8f1ff" stroke="#2b6cb0" stroke-width="1.6" d="M1122.5,-60C1122.5,-60 1077.5,-60 1077.5,-60 1071.5,-60 1065.5,-54 1065.5,-48 1065.5,-48 1065.5,-36 1065.5,-36 1065.5,-30 1071.5,-24 1077.5,-24 1077.5,-24 1122.5,-24 1122.5,-24 1128.5,-24 1134.5,-30 1134.5,-36 1134.5,-36 1134.5,-48 1134.5,-48 1134.5,-54 1128.5,-60 1122.5,-60"/>
<text text-anchor="middle" x="1100" y="-38.9" font-family="Helvetica,sans-Serif" font-size="12.00" fill="#1a365d">Material</text>
</g>
<!-- https://w3id.org/sdata/core/Material&#45;&gt;https://w3id.org/sdata/core/Information -->
<g id="edge7" class="edge">
<title>https://w3id.org/sdata/core/Material&#45;&gt;https://w3id.org/sdata/core/Information</title>
<path fill="none" stroke="#6b7280" stroke-width="1.6" stroke-dasharray="5,2" d="M1134.5,-42C1157.79,-42 1188.76,-42 1213.99,-42"/>
<text text-anchor="middle" x="1174.25" y="-48.8" font-family="Helvetica,sans-Serif" font-size="14.00" fill="#6b7280">dual</text>
</g>
<!-- https://w3id.org/sdata/core/InformationProcess -->
<g id="node8" class="node">
<title>https://w3id.org/sdata/core/InformationProcess</title>
<path fill="#e8f1ff" stroke="#2b6cb0" stroke-width="1.6" d="M1013.5,-60C1013.5,-60 898.5,-60 898.5,-60 892.5,-60 886.5,-54 886.5,-48 886.5,-48 886.5,-36 886.5,-36 886.5,-30 892.5,-24 898.5,-24 898.5,-24 1013.5,-24 1013.5,-24 1019.5,-24 1025.5,-30 1025.5,-36 1025.5,-36 1025.5,-48 1025.5,-48 1025.5,-54 1019.5,-60 1013.5,-60"/>
<text text-anchor="middle" x="956" y="-38.9" font-family="Helvetica,sans-Serif" font-size="12.00" fill="#1a365d">Information Process</text>
</g>
<!-- https://w3id.org/sdata/core/MaterialProcess -->
<g id="node9" class="node">
<title>https://w3id.org/sdata/core/MaterialProcess</title>
<path fill="#e8f1ff" stroke="#2b6cb0" stroke-width="1.6" d="M795,-60C795,-60 701,-60 701,-60 695,-60 689,-54 689,-48 689,-48 689,-36 689,-36 689,-30 695,-24 701,-24 701,-24 795,-24 795,-24 801,-24 807,-30 807,-36 807,-36 807,-48 807,-48 807,-54 801,-60 795,-60"/>
<text text-anchor="middle" x="748" y="-38.9" font-family="Helvetica,sans-Serif" font-size="12.00" fill="#1a365d">Material Process</text>
</g>
<!-- https://w3id.org/sdata/core/MaterialProcess&#45;&gt;https://w3id.org/sdata/core/InformationProcess -->
<g id="edge10" class="edge">
<title>https://w3id.org/sdata/core/MaterialProcess&#45;&gt;https://w3id.org/sdata/core/InformationProcess</title>
<path fill="none" stroke="#6b7280" stroke-width="1.6" stroke-dasharray="5,2" d="M807.05,-42C831.79,-42 860.73,-42 886.5,-42"/>
<text text-anchor="middle" x="846.75" y="-48.8" font-family="Helvetica,sans-Serif" font-size="14.00" fill="#6b7280">dual</text>
</g>
<!-- https://w3id.org/sdata/core/InformationAgent -->
<g id="node10" class="node">
<title>https://w3id.org/sdata/core/InformationAgent</title>
<path fill="#e8f1ff" stroke="#2b6cb0" stroke-width="1.6" d="M1981.5,-60C1981.5,-60 1876.5,-60 1876.5,-60 1870.5,-60 1864.5,-54 1864.5,-48 1864.5,-48 1864.5,-36 1864.5,-36 1864.5,-30 1870.5,-24 1876.5,-24 1876.5,-24 1981.5,-24 1981.5,-24 1987.5,-24 1993.5,-30 1993.5,-36 1993.5,-36 1993.5,-48 1993.5,-48 1993.5,-54 1987.5,-60 1981.5,-60"/>
<text text-anchor="middle" x="1929" y="-38.9" font-family="Helvetica,sans-Serif" font-size="12.00" fill="#1a365d">Information Agent</text>
</g>
<!-- https://w3id.org/sdata/core/MaterialAgent -->
<g id="node11" class="node">
<title>https://w3id.org/sdata/core/MaterialAgent</title>
<path fill="#e8f1ff" stroke="#2b6cb0" stroke-width="1.6" d="M1773,-60C1773,-60 1689,-60 1689,-60 1683,-60 1677,-54 1677,-48 1677,-48 1677,-36 1677,-36 1677,-30 1683,-24 1689,-24 1689,-24 1773,-24 1773,-24 1779,-24 1785,-30 1785,-36 1785,-36 1785,-48 1785,-48 1785,-54 1779,-60 1773,-60"/>
<text text-anchor="middle" x="1731" y="-38.9" font-family="Helvetica,sans-Serif" font-size="12.00" fill="#1a365d">Material Agent</text>
</g>
<!-- https://w3id.org/sdata/core/MaterialAgent&#45;&gt;https://w3id.org/sdata/core/InformationAgent -->
<g id="edge8" class="edge">
<title>https://w3id.org/sdata/core/MaterialAgent&#45;&gt;https://w3id.org/sdata/core/InformationAgent</title>
<path fill="none" stroke="#6b7280" stroke-width="1.6" stroke-dasharray="5,2" d="M1785.1,-42C1809.61,-42 1838.77,-42 1864.41,-42"/>
<text text-anchor="middle" x="1824.75" y="-48.8" font-family="Helvetica,sans-Serif" font-size="14.00" fill="#6b7280">dual</text>
</g>
<!-- https://w3id.org/sdata/core/Agent -->
<g id="node12" class="node">
<title>https://w3id.org/sdata/core/Agent</title>
<path fill="#e8f1ff" stroke="#2b6cb0" stroke-width="1.6" d="M1978,-179C1978,-179 1946,-179 1946,-179 1940,-179 1934,-173 1934,-167 1934,-167 1934,-155 1934,-155 1934,-149 1940,-143 1946,-143 1946,-143 1978,-143 1978,-143 1984,-143 1990,-149 1990,-155 1990,-155 1990,-167 1990,-167 1990,-173 1984,-179 1978,-179"/>
<text text-anchor="middle" x="1962" y="-157.9" font-family="Helvetica,sans-Serif" font-size="12.00" fill="#1a365d">Agent</text>
</g>
<!-- https://w3id.org/sdata/core/Artifact -->
<g id="node13" class="node">
<title>https://w3id.org/sdata/core/Artifact</title>
<path fill="#e8f1ff" stroke="#2b6cb0" stroke-width="1.6" d="M1835.5,-179C1835.5,-179 1794.5,-179 1794.5,-179 1788.5,-179 1782.5,-173 1782.5,-167 1782.5,-167 1782.5,-155 1782.5,-155 1782.5,-149 1788.5,-143 1794.5,-143 1794.5,-143 1835.5,-143 1835.5,-143 1841.5,-143 1847.5,-149 1847.5,-155 1847.5,-155 1847.5,-167 1847.5,-167 1847.5,-173 1841.5,-179 1835.5,-179"/>
<text text-anchor="middle" x="1815" y="-157.9" font-family="Helvetica,sans-Serif" font-size="12.00" fill="#1a365d">Artifact</text>
</g>
<!-- https://w3id.org/sdata/core/Identifier -->
<g id="node14" class="node">
<title>https://w3id.org/sdata/core/Identifier</title>
<path fill="#e8f1ff" stroke="#2b6cb0" stroke-width="1.6" d="M1639.5,-179C1639.5,-179 1588.5,-179 1588.5,-179 1582.5,-179 1576.5,-173 1576.5,-167 1576.5,-167 1576.5,-155 1576.5,-155 1576.5,-149 1582.5,-143 1588.5,-143 1588.5,-143 1639.5,-143 1639.5,-143 1645.5,-143 1651.5,-149 1651.5,-155 1651.5,-155 1651.5,-167 1651.5,-167 1651.5,-173 1645.5,-179 1639.5,-179"/>
<text text-anchor="middle" x="1614" y="-157.9" font-family="Helvetica,sans-Serif" font-size="12.00" fill="#1a365d">Identifier</text>
</g>
<!-- https://w3id.org/sdata/core/Intangible -->
<g id="node15" class="node">
<title>https://w3id.org/sdata/core/Intangible</title>
<path fill="#e8f1ff" stroke="#2b6cb0" stroke-width="1.6" d="M1342,-179C1342,-179 1286,-179 1286,-179 1280,-179 1274,-173 1274,-167 1274,-167 1274,-155 1274,-155 1274,-149 1280,-143 1286,-143 1286,-143 1342,-143 1342,-143 1348,-143 1354,-149 1354,-155 1354,-155 1354,-167 1354,-167 1354,-173 1348,-179 1342,-179"/>
<text text-anchor="middle" x="1314" y="-157.9" font-family="Helvetica,sans-Serif" font-size="12.00" fill="#1a365d">Intangible</text>
</g>
<!-- https://w3id.org/sdata/core/Intangible&#45;&gt;https://w3id.org/sdata/core/InformationArtifact -->
<g id="edge4" class="edge">
<title>https://w3id.org/sdata/core/Intangible&#45;&gt;https://w3id.org/sdata/core/InformationArtifact</title>
<path fill="none" stroke="#4a5568" stroke-width="1.6" d="M1278.47,-142.93C1270.58,-139.79 1262.13,-136.9 1254,-135 1001.15,-76.04 918.77,-175.6 671,-98 648.34,-90.9 625.48,-77.05 608.34,-65.03"/>
<polygon fill="#4a5568" stroke="#4a5568" stroke-width="1.6" points="610,-62.56 601.36,-60.01 606.52,-67.39 610,-62.56"/>
</g>
<!-- https://w3id.org/sdata/core/Intangible&#45;&gt;https://w3id.org/sdata/core/InformationSite -->
<g id="edge6" class="edge">
<title>https://w3id.org/sdata/core/Intangible&#45;&gt;https://w3id.org/sdata/core/InformationSite</title>
<path fill="none" stroke="#4a5568" stroke-width="1.6" d="M1354.13,-143.4C1383.55,-131.12 1424.4,-113.85 1460,-98 1484.73,-86.99 1512.16,-74.24 1534.34,-63.79"/>
<polygon fill="#4a5568" stroke="#4a5568" stroke-width="1.6" points="1535.84,-66.37 1542.26,-60.05 1533.3,-60.99 1535.84,-66.37"/>
</g>
<!-- https://w3id.org/sdata/core/Intangible&#45;&gt;https://w3id.org/sdata/core/Information -->
<g id="edge2" class="edge">
<title>https://w3id.org/sdata/core/Intangible&#45;&gt;https://w3id.org/sdata/core/Information</title>
<path fill="none" stroke="#4a5568" stroke-width="1.6" d="M1306,-142.99C1296.72,-123.23 1281.31,-90.47 1270.69,-67.86"/>
<polygon fill="#4a5568" stroke="#4a5568" stroke-width="1.6" points="1273.32,-66.46 1267.01,-60.03 1267.93,-68.99 1273.32,-66.46"/>
</g>
<!-- https://w3id.org/sdata/core/Intangible&#45;&gt;https://w3id.org/sdata/core/InformationProcess -->
<g id="edge5" class="edge">
<title>https://w3id.org/sdata/core/Intangible&#45;&gt;https://w3id.org/sdata/core/InformationProcess</title>
<path fill="none" stroke="#4a5568" stroke-width="1.6" d="M1276.69,-142.98C1269.27,-140.02 1261.47,-137.2 1254,-135 1164.33,-108.65 1134.46,-130.95 1047,-98 1025.58,-89.93 1003.56,-76.77 986.54,-65.35"/>
<polygon fill="#4a5568" stroke="#4a5568" stroke-width="1.6" points="987.79,-62.6 979.1,-60.25 984.43,-67.51 987.79,-62.6"/>
</g>
<!-- https://w3id.org/sdata/core/Intangible&#45;&gt;https://w3id.org/sdata/core/InformationAgent -->
<g id="edge3" class="edge">
<title>https://w3id.org/sdata/core/Intangible&#45;&gt;https://w3id.org/sdata/core/InformationAgent</title>
<path fill="none" stroke="#4a5568" stroke-width="1.6" d="M1354.38,-155.59C1464.01,-143.5 1761.91,-110 1805,-98 1834.45,-89.8 1865.92,-75.77 1889.79,-63.94"/>
<polygon fill="#4a5568" stroke="#4a5568" stroke-width="1.6" points="1891.32,-66.5 1897.58,-60.02 1888.65,-61.18 1891.32,-66.5"/>
</g>
<!-- https://w3id.org/sdata/core/Process -->
<g id="node16" class="node">
<title>https://w3id.org/sdata/core/Process</title>
<path fill="#e8f1ff" stroke="#2b6cb0" stroke-width="1.6" d="M1222,-179C1222,-179 1180,-179 1180,-179 1174,-179 1168,-173 1168,-167 1168,-167 1168,-155 1168,-155 1168,-149 1174,-143 1180,-143 1180,-143 1222,-143 1222,-143 1228,-143 1234,-149 1234,-155 1234,-155 1234,-167 1234,-167 1234,-173 1228,-179 1222,-179"/>
<text text-anchor="middle" x="1201" y="-157.9" font-family="Helvetica,sans-Serif" font-size="12.00" fill="#1a365d">Process</text>
</g>
<!-- https://w3id.org/sdata/core/Role -->
<g id="node17" class="node">
<title>https://w3id.org/sdata/core/Role</title>
<path fill="#e8f1ff" stroke="#2b6cb0" stroke-width="1.6" d="M1116,-179C1116,-179 1086,-179 1086,-179 1080,-179 1074,-173 1074,-167 1074,-167 1074,-155 1074,-155 1074,-149 1080,-143 1086,-143 1086,-143 1116,-143 1116,-143 1122,-143 1128,-149 1128,-155 1128,-155 1128,-167 1128,-167 1128,-173 1122,-179 1116,-179"/>
<text text-anchor="middle" x="1101" y="-157.9" font-family="Helvetica,sans-Serif" font-size="12.00" fill="#1a365d">Role</text>
</g>
<!-- https://w3id.org/sdata/core/Site -->
<g id="node18" class="node">
<title>https://w3id.org/sdata/core/Site</title>
<path fill="#e8f1ff" stroke="#2b6cb0" stroke-width="1.6" d="M1022,-179C1022,-179 992,-179 992,-179 986,-179 980,-173 980,-167 980,-167 980,-155 980,-155 980,-149 986,-143 992,-143 992,-143 1022,-143 1022,-143 1028,-143 1034,-149 1034,-155 1034,-155 1034,-167 1034,-167 1034,-173 1028,-179 1022,-179"/>
<text text-anchor="middle" x="1007" y="-157.9" font-family="Helvetica,sans-Serif" font-size="12.00" fill="#1a365d">Site</text>
</g>
<!-- https://w3id.org/sdata/core/Substance -->
<g id="node19" class="node">
<title>https://w3id.org/sdata/core/Substance</title>
<path fill="#e8f1ff" stroke="#2b6cb0" stroke-width="1.6" d="M927.5,-179C927.5,-179 868.5,-179 868.5,-179 862.5,-179 856.5,-173 856.5,-167 856.5,-167 856.5,-155 856.5,-155 856.5,-149 862.5,-143 868.5,-143 868.5,-143 927.5,-143 927.5,-143 933.5,-143 939.5,-149 939.5,-155 939.5,-155 939.5,-167 939.5,-167 939.5,-173 933.5,-179 927.5,-179"/>
<text text-anchor="middle" x="898" y="-157.9" font-family="Helvetica,sans-Serif" font-size="12.00" fill="#1a365d">Substance</text>
</g>
<!-- https://w3id.org/sdata/core/Tangible -->
<g id="node20" class="node">
<title>https://w3id.org/sdata/core/Tangible</title>
<path fill="#e8f1ff" stroke="#2b6cb0" stroke-width="1.6" d="M804.5,-179C804.5,-179 759.5,-179 759.5,-179 753.5,-179 747.5,-173 747.5,-167 747.5,-167 747.5,-155 747.5,-155 747.5,-149 753.5,-143 759.5,-143 759.5,-143 804.5,-143 804.5,-143 810.5,-143 816.5,-149 816.5,-155 816.5,-155 816.5,-167 816.5,-167 816.5,-173 810.5,-179 804.5,-179"/>
<text text-anchor="middle" x="782" y="-157.9" font-family="Helvetica,sans-Serif" font-size="12.00" fill="#1a365d">Tangible</text>
</g>
<!-- https://w3id.org/sdata/core/Tangible&#45;&gt;https://w3id.org/sdata/core/MaterialArtifact -->
<g id="edge14" class="edge">
<title>https://w3id.org/sdata/core/Tangible&#45;&gt;https://w3id.org/sdata/core/MaterialArtifact</title>
<path fill="none" stroke="#4a5568" stroke-width="1.6" d="M747.28,-155.21C692.03,-147 581.13,-128.17 491,-98 463.97,-88.95 434.93,-75.47 412.42,-64.12"/>
<polygon fill="#4a5568" stroke="#4a5568" stroke-width="1.6" points="413.67,-61.41 404.75,-60.2 410.97,-66.71 413.67,-61.41"/>
</g>
<!-- https://w3id.org/sdata/core/Tangible&#45;&gt;https://w3id.org/sdata/core/MaterialSite -->
<g id="edge16" class="edge">
<title>https://w3id.org/sdata/core/Tangible&#45;&gt;https://w3id.org/sdata/core/MaterialSite</title>
<path fill="none" stroke="#4a5568" stroke-width="1.6" d="M814.47,-142.99C821.72,-139.83 829.48,-136.93 837,-135 1046.39,-81.23 1120.53,-176.39 1322,-98 1339.91,-91.03 1356.93,-77.86 1369.71,-66.15"/>
<polygon fill="#4a5568" stroke="#4a5568" stroke-width="1.6" points="1371.86,-68.21 1375.98,-60.21 1367.77,-63.89 1371.86,-68.21"/>
</g>
<!-- https://w3id.org/sdata/core/Tangible&#45;&gt;https://w3id.org/sdata/core/Material -->
<g id="edge12" class="edge">
<title>https://w3id.org/sdata/core/Tangible&#45;&gt;https://w3id.org/sdata/core/Material</title>
<path fill="none" stroke="#4a5568" stroke-width="1.6" d="M816.11,-142.91C822.91,-139.96 830.09,-137.15 837,-135 926.24,-107.22 960.96,-140.88 1044,-98 1058.44,-90.54 1071.58,-78.1 1081.49,-66.93"/>
<polygon fill="#4a5568" stroke="#4a5568" stroke-width="1.6" points="1083.98,-68.6 1087.23,-60.2 1079.46,-64.74 1083.98,-68.6"/>
</g>
<!-- https://w3id.org/sdata/core/Tangible&#45;&gt;https://w3id.org/sdata/core/MaterialProcess -->
<g id="edge15" class="edge">
<title>https://w3id.org/sdata/core/Tangible&#45;&gt;https://w3id.org/sdata/core/MaterialProcess</title>
<path fill="none" stroke="#4a5568" stroke-width="1.6" d="M777.06,-142.99C771.37,-123.4 761.96,-91.04 755.4,-68.46"/>
<polygon fill="#4a5568" stroke="#4a5568" stroke-width="1.6" points="758.18,-67.37 752.95,-60.03 752.47,-69.03 758.18,-67.37"/>
</g>
<!-- https://w3id.org/sdata/core/Tangible&#45;&gt;https://w3id.org/sdata/core/MaterialAgent -->
<g id="edge13" class="edge">
<title>https://w3id.org/sdata/core/Tangible&#45;&gt;https://w3id.org/sdata/core/MaterialAgent</title>
<path fill="none" stroke="#4a5568" stroke-width="1.6" d="M814.13,-142.94C821.46,-139.75 829.35,-136.84 837,-135 1013.92,-92.47 1483.2,-157.97 1655,-98 1674.43,-91.22 1693.19,-77.74 1707.21,-65.82"/>
<polygon fill="#4a5568" stroke="#4a5568" stroke-width="1.6" points="1709.26,-67.97 1713.69,-60.13 1705.34,-63.5 1709.26,-67.97"/>
</g>
</g>
</svg>
