<?xml version="1.0" encoding="UTF-8" standalone="no"?>
<!DOCTYPE svg PUBLIC "-//W3C//DTD SVG 1.1//EN"
 "http://www.w3.org/Graphics/SVG/1.1/DTD/svg11.dtd">
<!-- Generated by graphviz version 2.43.0 (0)
 -->
<!-- Pages: 1 -->
<svg width="2415pt" height="440pt"
 viewBox="0.00 0.00 2414.90 440.40" xmlns="http://www.w3.org/2000/svg" xmlns:xlink="http://www.w3.org/1999/xlink">
<g id="graph0" class="graph" transform="scale(1 1) rotate(0) translate(25.2 415.2)">
<polygon fill="#fafbfc" stroke="transparent" points="-25.2,25.2 -25.2,-415.2 2389.7,-415.2 2389.7,25.2 -25.2,25.2"/>
<text text-anchor="middle" x="1182.25" y="-370" font-family="Helvetica,sans-Serif" font-size="20.00">sdata Core + Processtypes Hierarchy (sdata&#45;only)</text>
<!-- https://w3id.org/sdata/core/Agent -->
<g id="node1" class="node">
<title>https://w3id.org/sdata/core/Agent</title>
<path fill="#e8f1ff" stroke="#2b6cb0" stroke-width="1.6" d="M577,-360C577,-360 545,-360 545,-360 539,-360 533,-354 533,-348 533,-348 533,-336 533,-336 533,-330 539,-324 545,-324 545,-324 577,-324 577,-324 583,-324 589,-330 589,-336 589,-336 589,-348 589,-348 589,-354 583,-360 577,-360"/>
<text text-anchor="middle" x="561" y="-338.9" font-family="Helvetica,sans-Serif" font-size="12.00" fill="#1a365d">Agent</text>
</g>
<!-- https://w3id.org/sdata/core/MachineAgent -->
<g id="node2" class="node">
<title>https://w3id.org/sdata/core/MachineAgent</title>
<path fill="#e8f1ff" stroke="#2b6cb0" stroke-width="1.6" d="M98,-252C98,-252 12,-252 12,-252 6,-252 0,-246 0,-240 0,-240 0,-228 0,-228 0,-222 6,-216 12,-216 12,-216 98,-216 98,-216 104,-216 110,-222 110,-228 110,-228 110,-240 110,-240 110,-246 104,-252 98,-252"/>
<text text-anchor="middle" x="55" y="-230.9" font-family="Helvetica,sans-Serif" font-size="12.00" fill="#1a365d">Machine Agent</text>
</g>
<!-- https://w3id.org/sdata/core/Agent&#45;&gt;https://w3id.org/sdata/core/MachineAgent -->
<g id="edge1" class="edge">
<title>https://w3id.org/sdata/core/Agent&#45;&gt;https://w3id.org/sdata/core/MachineAgent</title>
<path fill="none" stroke="#4a5568" stroke-width="1.6" d="M532.98,-335.41C464.23,-321.65 281.78,-284.87 130,-252 126.3,-251.2 122.51,-250.37 118.68,-249.52"/>
<polygon fill="#4a5568" stroke="#4a5568" stroke-width="1.6" points="119.21,-246.59 110.27,-247.65 117.92,-252.4 119.21,-246.59"/>
</g>
<!-- https://w3id.org/sdata/core/Organization -->
<g id="node3" class="node">
<title>https://w3id.org/sdata/core/Organization</title>
<path fill="#e8f1ff" stroke="#2b6cb0" stroke-width="1.6" d="M234,-252C234,-252 162,-252 162,-252 156,-252 150,-246 150,-240 150,-240 150,-228 150,-228 150,-222 156,-216 162,-216 162,-216 234,-216 234,-216 240,-216 246,-222 246,-228 246,-228 246,-240 246,-240 246,-246 240,-252 234,-252"/>
<text text-anchor="middle" x="198" y="-230.9" font-family="Helvetica,sans-Serif" font-size="12.00" fill="#1a365d">Organization</text>
</g>
<!-- https://w3id.org/sdata/core/Agent&#45;&gt;https://w3id.org/sdata/core/Organization -->
<g id="edge2" class="edge">
<title>https://w3id.org/sdata/core/Agent&#45;&gt;https://w3id.org/sdata/core/Organization</title>
<path fill="none" stroke="#4a5568" stroke-width="1.6" d="M532.82,-332.77C473.19,-315.36 333.28,-274.5 254.49,-251.5"/>
<polygon fill="#4a5568" stroke="#4a5568" stroke-width="1.6" points="255.12,-248.58 246.13,-249.05 253.46,-254.29 255.12,-248.58"/>
</g>
<!-- https://w3id.org/sdata/core/Person -->
<g id="node4" class="node">
<title>https://w3id.org/sdata/core/Person</title>
<path fill="#e8f1ff" stroke="#2b6cb0" stroke-width="1.6" d="M335.5,-252C335.5,-252 298.5,-252 298.5,-252 292.5,-252 286.5,-246 286.5,-240 286.5,-240 286.5,-228 286.5,-228 286.5,-222 292.5,-216 298.5,-216 298.5,-216 335.5,-216 335.5,-216 341.5,-216 347.5,-222 347.5,-228 347.5,-228 347.5,-240 347.5,-240 347.5,-246 341.5,-252 335.5,-252"/>
<text text-anchor="middle" x="317" y="-230.9" font-family="Helvetica,sans-Serif" font-size="12.00" fill="#1a365d">Person</text>
</g>
<!-- https://w3id.org/sdata/core/Agent&#45;&gt;https://w3id.org/sdata/core/Person -->
<g id="edge3" class="edge">
<title>https://w3id.org/sdata/core/Agent&#45;&gt;https://w3id.org/sdata/core/Person</title>
<path fill="none" stroke="#4a5568" stroke-width="1.6" d="M532.53,-328.63C488.71,-309.6 404.65,-273.08 355.46,-251.71"/>
<polygon fill="#4a5568" stroke="#4a5568" stroke-width="1.6" points="356.56,-248.94 347.58,-248.28 354.19,-254.4 356.56,-248.94"/>
</g>
<!-- https://w3id.org/sdata/core/SoftwareAgent -->
<g id="node5" class="node">
<title>https://w3id.org/sdata/core/SoftwareAgent</title>
<path fill="#e8f1ff" stroke="#2b6cb0" stroke-width="1.6" d="M488,-252C488,-252 400,-252 400,-252 394,-252 388,-246 388,-240 388,-240 388,-228 388,-228 388,-222 394,-216 400,-216 400,-216 488,-216 488,-216 494,-216 500,-222 500,-228 500,-228 500,-240 500,-240 500,-246 494,-252 488,-252"/>
<text text-anchor="middle" x="444" y="-230.9" font-family="Helvetica,sans-Serif" font-size="12.00" fill="#1a365d">Software Agent</text>
</g>
<!-- https://w3id.org/sdata/core/Agent&#45;&gt;https://w3id.org/sdata/core/SoftwareAgent -->
<g id="edge4" class="edge">
<title>https://w3id.org/sdata/core/Agent&#45;&gt;https://w3id.org/sdata/core/SoftwareAgent</title>
<path fill="none" stroke="#4a5568" stroke-width="1.6" d="M542.2,-323.97C522.53,-306.15 491.52,-278.06 469.62,-258.21"/>
<polygon fill="#4a5568" stroke="#4a5568" stroke-width="1.6" points="471.44,-255.84 463.14,-252.34 467.44,-260.25 471.44,-255.84"/>
</g>
<!-- https://w3id.org/sdata/core/Creation -->
<g id="node6" class="node">
<title>https://w3id.org/sdata/core/Creation</title>
<path fill="#eef8e7" stroke="#4f8a10" stroke-width="1.6" d="M584.5,-144C584.5,-144 537.5,-144 537.5,-144 531.5,-144 525.5,-138 525.5,-132 525.5,-132 525.5,-120 525.5,-120 525.5,-114 531.5,-108 537.5,-108 537.5,-108 584.5,-108 584.5,-108 590.5,-108 596.5,-114 596.5,-120 596.5,-120 596.5,-132 596.5,-132 596.5,-138 590.5,-144 584.5,-144"/>
<text text-anchor="middle" x="561" y="-122.9" font-family="Helvetica,sans-Serif" font-size="12.00" fill="#2f5d08">Creation</text>
</g>
<!-- https://w3id.org/sdata/core/Agent&#45;&gt;https://w3id.org/sdata/core/Creation -->
<!-- https://w3id.org/sdata/core/AssemblyProcess -->
<g id="node7" class="node">
<title>https://w3id.org/sdata/core/AssemblyProcess</title>
<path fill="#e8f1ff" stroke="#2b6cb0" stroke-width="1.6" d="M751,-144C751,-144 649,-144 649,-144 643,-144 637,-138 637,-132 637,-132 637,-120 637,-120 637,-114 643,-108 649,-108 649,-108 751,-108 751,-108 757,-108 763,-114 763,-120 763,-120 763,-132 763,-132 763,-138 757,-144 751,-144"/>
<text text-anchor="middle" x="700" y="-122.9" font-family="Helvetica,sans-Serif" font-size="12.00" fill="#1a365d">Assembly Process</text>
</g>
<!-- https://w3id.org/sdata/core/AttributeQuantityValue -->
<g id="node8" class="node">
<title>https://w3id.org/sdata/core/AttributeQuantityValue</title>
<path fill="#e8f1ff" stroke="#2b6cb0" stroke-width="1.6" d="M1291.5,-360C1291.5,-360 1150.5,-360 1150.5,-360 1144.5,-360 1138.5,-354 1138.5,-348 1138.5,-348 1138.5,-336 1138.5,-336 1138.5,-330 1144.5,-324 1150.5,-324 1150.5,-324 1291.5,-324 1291.5,-324 1297.5,-324 1303.5,-330 1303.5,-336 1303.5,-336 1303.5,-348 1303.5,-348 1303.5,-354 1297.5,-360 1291.5,-360"/>
<text text-anchor="middle" x="1221" y="-338.9" font-family="Helvetica,sans-Serif" font-size="12.00" fill="#1a365d">Attribute Quantity Value</text>
</g>
<!-- https://w3id.org/sdata/core/Certificate -->
<g id="node9" class="node">
<title>https://w3id.org/sdata/core/Certificate</title>
<path fill="#e8f1ff" stroke="#2b6cb0" stroke-width="1.6" d="M1694.5,-252C1694.5,-252 1635.5,-252 1635.5,-252 1629.5,-252 1623.5,-246 1623.5,-240 1623.5,-240 1623.5,-228 1623.5,-228 1623.5,-222 1629.5,-216 1635.5,-216 1635.5,-216 1694.5,-216 1694.5,-216 1700.5,-216 1706.5,-222 1706.5,-228 1706.5,-228 1706.5,-240 1706.5,-240 1706.5,-246 1700.5,-252 1694.5,-252"/>
<text text-anchor="middle" x="1665" y="-230.9" font-family="Helvetica,sans-Serif" font-size="12.00" fill="#1a365d">Certificate</text>
</g>
<!-- https://w3id.org/sdata/core/ChemicalAnalysis -->
<g id="node10" class="node">
<title>https://w3id.org/sdata/core/ChemicalAnalysis</title>
<path fill="#e8f1ff" stroke="#2b6cb0" stroke-width="1.6" d="M533,-36C533,-36 429,-36 429,-36 423,-36 417,-30 417,-24 417,-24 417,-12 417,-12 417,-6 423,0 429,0 429,0 533,0 533,0 539,0 545,-6 545,-12 545,-12 545,-24 545,-24 545,-30 539,-36 533,-36"/>
<text text-anchor="middle" x="481" y="-14.9" font-family="Helvetica,sans-Serif" font-size="12.00" fill="#1a365d">Chemical Analysis</text>
</g>
<!-- https://w3id.org/sdata/core/CoatingProcess -->
<g id="node11" class="node">
<title>https://w3id.org/sdata/core/CoatingProcess</title>
<path fill="#e8f1ff" stroke="#2b6cb0" stroke-width="1.6" d="M1070.5,-36C1070.5,-36 979.5,-36 979.5,-36 973.5,-36 967.5,-30 967.5,-24 967.5,-24 967.5,-12 967.5,-12 967.5,-6 973.5,0 979.5,0 979.5,0 1070.5,0 1070.5,0 1076.5,0 1082.5,-6 1082.5,-12 1082.5,-12 1082.5,-24 1082.5,-24 1082.5,-30 1076.5,-36 1070.5,-36"/>
<text text-anchor="middle" x="1025" y="-14.9" font-family="Helvetica,sans-Serif" font-size="12.00" fill="#1a365d">Coating Process</text>
</g>
<!-- https://w3id.org/sdata/core/CrashSimulation -->
<g id="node12" class="node">
<title>https://w3id.org/sdata/core/CrashSimulation</title>
<path fill="#e8f1ff" stroke="#2b6cb0" stroke-width="1.6" d="M1695,-36C1695,-36 1597,-36 1597,-36 1591,-36 1585,-30 1585,-24 1585,-24 1585,-12 1585,-12 1585,-6 1591,0 1597,0 1597,0 1695,0 1695,0 1701,0 1707,-6 1707,-12 1707,-12 1707,-24 1707,-24 1707,-30 1701,-36 1695,-36"/>
<text text-anchor="middle" x="1646" y="-14.9" font-family="Helvetica,sans-Serif" font-size="12.00" fill="#1a365d">Crash Simulation</text>
</g>
<!-- https://w3id.org/sdata/core/Data -->
<g id="node13" class="node">
<title>https://w3id.org/sdata/core/Data</title>
<path fill="#e8f1ff" stroke="#2b6cb0" stroke-width="1.6" d="M1755,-360C1755,-360 1725,-360 1725,-360 1719,-360 1713,-354 1713,-348 1713,-348 1713,-336 1713,-336 1713,-330 1719,-324 1725,-324 1725,-324 1755,-324 1755,-324 1761,-324 1767,-330 1767,-336 1767,-336 1767,-348 1767,-348 1767,-354 1761,-360 1755,-360"/>
<text text-anchor="middle" x="1740" y="-338.9" font-family="Helvetica,sans-Serif" font-size="12.00" fill="#1a365d">Data</text>
</g>
<!-- https://w3id.org/sdata/core/Data&#45;&gt;https://w3id.org/sdata/core/Certificate -->
<g id="edge6" class="edge">
<title>https://w3id.org/sdata/core/Data&#45;&gt;https://w3id.org/sdata/core/Certificate</title>
<path fill="none" stroke="#4a5568" stroke-width="1.6" d="M1727.95,-323.97C1715.61,-306.53 1696.32,-279.26 1682.34,-259.51"/>
<polygon fill="#4a5568" stroke="#4a5568" stroke-width="1.6" points="1684.61,-257.56 1677.27,-252.34 1679.75,-261 1684.61,-257.56"/>
</g>
<!-- https://w3id.org/sdata/core/DigitalProductPass -->
<g id="node14" class="node">
<title>https://w3id.org/sdata/core/DigitalProductPass</title>
<path fill="#e8f1ff" stroke="#2b6cb0" stroke-width="1.6" d="M1871.5,-252C1871.5,-252 1758.5,-252 1758.5,-252 1752.5,-252 1746.5,-246 1746.5,-240 1746.5,-240 1746.5,-228 1746.5,-228 1746.5,-222 1752.5,-216 1758.5,-216 1758.5,-216 1871.5,-216 1871.5,-216 1877.5,-216 1883.5,-222 1883.5,-228 1883.5,-228 1883.5,-240 1883.5,-240 1883.5,-246 1877.5,-252 1871.5,-252"/>
<text text-anchor="middle" x="1815" y="-230.9" font-family="Helvetica,sans-Serif" font-size="12.00" fill="#1a365d">Digital Product Pass</text>
</g>
<!-- https://w3id.org/sdata/core/Data&#45;&gt;https://w3id.org/sdata/core/DigitalProductPass -->
<g id="edge7" class="edge">
<title>https://w3id.org/sdata/core/Data&#45;&gt;https://w3id.org/sdata/core/DigitalProductPass</title>
<path fill="none" stroke="#4a5568" stroke-width="1.6" d="M1752.05,-323.97C1764.39,-306.53 1783.68,-279.26 1797.66,-259.51"/>
<polygon fill="#4a5568" stroke="#4a5568" stroke-width="1.6" points="1800.25,-261 1802.73,-252.34 1795.39,-257.56 1800.25,-261"/>
</g>
<!-- https://w3id.org/sdata/core/Experiment -->
<g id="node15" class="node">
<title>https://w3id.org/sdata/core/Experiment</title>
<path fill="#e8f1ff" stroke="#2b6cb0" stroke-width="1.6" d="M881,-144C881,-144 815,-144 815,-144 809,-144 803,-138 803,-132 803,-132 803,-120 803,-120 803,-114 809,-108 815,-108 815,-108 881,-108 881,-108 887,-108 893,-114 893,-120 893,-120 893,-132 893,-132 893,-138 887,-144 881,-144"/>
<text text-anchor="middle" x="848" y="-122.9" font-family="Helvetica,sans-Serif" font-size="12.00" fill="#1a365d">Experiment</text>
</g>
<!-- https://w3id.org/sdata/core/Experiment&#45;&gt;https://w3id.org/sdata/core/ChemicalAnalysis -->
<g id="edge8" class="edge">
<title>https://w3id.org/sdata/core/Experiment&#45;&gt;https://w3id.org/sdata/core/ChemicalAnalysis</title>
<path fill="none" stroke="#4a5568" stroke-width="1.6" d="M803,-112C739.32,-93.61 622.45,-59.85 548.39,-38.47"/>
<polygon fill="#4a5568" stroke="#4a5568" stroke-width="1.6" points="549.02,-35.55 540.03,-36.05 547.37,-41.27 549.02,-35.55"/>
</g>
<!-- https://w3id.org/sdata/core/MechanicalTest -->
<g id="node16" class="node">
<title>https://w3id.org/sdata/core/MechanicalTest</title>
<path fill="#e8f1ff" stroke="#2b6cb0" stroke-width="1.6" d="M688.5,-36C688.5,-36 597.5,-36 597.5,-36 591.5,-36 585.5,-30 585.5,-24 585.5,-24 585.5,-12 585.5,-12 585.5,-6 591.5,0 597.5,0 597.5,0 688.5,0 688.5,0 694.5,0 700.5,-6 700.5,-12 700.5,-12 700.5,-24 700.5,-24 700.5,-30 694.5,-36 688.5,-36"/>
<text text-anchor="middle" x="643" y="-14.9" font-family="Helvetica,sans-Serif" font-size="12.00" fill="#1a365d">Mechanical Test</text>
</g>
<!-- https://w3id.org/sdata/core/Experiment&#45;&gt;https://w3id.org/sdata/core/MechanicalTest -->
<g id="edge9" class="edge">
<title>https://w3id.org/sdata/core/Experiment&#45;&gt;https://w3id.org/sdata/core/MechanicalTest</title>
<path fill="none" stroke="#4a5568" stroke-width="1.6" d="M815.06,-107.97C779.45,-89.56 722.64,-60.18 684.12,-40.26"/>
<polygon fill="#4a5568" stroke="#4a5568" stroke-width="1.6" points="685.11,-37.43 676.19,-36.16 682.38,-42.71 685.11,-37.43"/>
</g>
<!-- https://w3id.org/sdata/core/MetallographicExamination -->
<g id="node17" class="node">
<title>https://w3id.org/sdata/core/MetallographicExamination</title>
<path fill="#e8f1ff" stroke="#2b6cb0" stroke-width="1.6" d="M915.5,-36C915.5,-36 752.5,-36 752.5,-36 746.5,-36 740.5,-30 740.5,-24 740.5,-24 740.5,-12 740.5,-12 740.5,-6 746.5,0 752.5,0 752.5,0 915.5,0 915.5,0 921.5,0 927.5,-6 927.5,-12 927.5,-12 927.5,-24 927.5,-24 927.5,-30 921.5,-36 915.5,-36"/>
<text text-anchor="middle" x="834" y="-14.9" font-family="Helvetica,sans-Serif" font-size="12.00" fill="#1a365d">Metallographic Examination</text>
</g>
<!-- https://w3id.org/sdata/core/Experiment&#45;&gt;https://w3id.org/sdata/core/MetallographicExamination -->
<g id="edge10" class="edge">
<title>https://w3id.org/sdata/core/Experiment&#45;&gt;https://w3id.org/sdata/core/MetallographicExamination</title>
<path fill="none" stroke="#4a5568" stroke-width="1.6" d="M845.75,-107.97C843.5,-90.92 840,-64.46 837.41,-44.82"/>
<polygon fill="#4a5568" stroke="#4a5568" stroke-width="1.6" points="840.35,-44.38 836.29,-36.34 834.45,-45.16 840.35,-44.38"/>
</g>
<!-- https://w3id.org/sdata/core/FormingProcess -->
<g id="node18" class="node">
<title>https://w3id.org/sdata/core/FormingProcess</title>
<path fill="#e8f1ff" stroke="#2b6cb0" stroke-width="1.6" d="M1229,-36C1229,-36 1135,-36 1135,-36 1129,-36 1123,-30 1123,-24 1123,-24 1123,-12 1123,-12 1123,-6 1129,0 1135,0 1135,0 1229,0 1229,0 1235,0 1241,-6 1241,-12 1241,-12 1241,-24 1241,-24 1241,-30 1235,-36 1229,-36"/>
<text text-anchor="middle" x="1182" y="-14.9" font-family="Helvetica,sans-Serif" font-size="12.00" fill="#1a365d">Forming Process</text>
</g>
<!-- https://w3id.org/sdata/core/Hardware -->
<g id="node19" class="node">
<title>https://w3id.org/sdata/core/Hardware</title>
<path fill="#e8f1ff" stroke="#2b6cb0" stroke-width="1.6" d="M1990,-252C1990,-252 1936,-252 1936,-252 1930,-252 1924,-246 1924,-240 1924,-240 1924,-228 1924,-228 1924,-222 1930,-216 1936,-216 1936,-216 1990,-216 1990,-216 1996,-216 2002,-222 2002,-228 2002,-228 2002,-240 2002,-240 2002,-246 1996,-252 1990,-252"/>
<text text-anchor="middle" x="1963" y="-230.9" font-family="Helvetica,sans-Serif" font-size="12.00" fill="#1a365d">Hardware</text>
</g>
<!-- https://w3id.org/sdata/core/HeatTreatment -->
<g id="node20" class="node">
<title>https://w3id.org/sdata/core/HeatTreatment</title>
<path fill="#e8f1ff" stroke="#2b6cb0" stroke-width="1.6" d="M1383,-36C1383,-36 1293,-36 1293,-36 1287,-36 1281,-30 1281,-24 1281,-24 1281,-12 1281,-12 1281,-6 1287,0 1293,0 1293,0 1383,0 1383,0 1389,0 1395,-6 1395,-12 1395,-12 1395,-24 1395,-24 1395,-30 1389,-36 1383,-36"/>
<text text-anchor="middle" x="1338" y="-14.9" font-family="Helvetica,sans-Serif" font-size="12.00" fill="#1a365d">Heat Treatment</text>
</g>
<!-- https://w3id.org/sdata/core/JoiningProcess -->
<g id="node21" class="node">
<title>https://w3id.org/sdata/core/JoiningProcess</title>
<path fill="#e8f1ff" stroke="#2b6cb0" stroke-width="1.6" d="M1532.5,-36C1532.5,-36 1447.5,-36 1447.5,-36 1441.5,-36 1435.5,-30 1435.5,-24 1435.5,-24 1435.5,-12 1435.5,-12 1435.5,-6 1441.5,0 1447.5,0 1447.5,0 1532.5,0 1532.5,0 1538.5,0 1544.5,-6 1544.5,-12 1544.5,-12 1544.5,-24 1544.5,-24 1544.5,-30 1538.5,-36 1532.5,-36"/>
<text text-anchor="middle" x="1490" y="-14.9" font-family="Helvetica,sans-Serif" font-size="12.00" fill="#1a365d">Joining Process</text>
</g>
<!-- https://w3id.org/sdata/core/ManufacturingProcess -->
<g id="node22" class="node">
<title>https://w3id.org/sdata/core/ManufacturingProcess</title>
<path fill="#e8f1ff" stroke="#2b6cb0" stroke-width="1.6" d="M1169,-144C1169,-144 1037,-144 1037,-144 1031,-144 1025,-138 1025,-132 1025,-132 1025,-120 1025,-120 1025,-114 1031,-108 1037,-108 1037,-108 1169,-108 1169,-108 1175,-108 1181,-114 1181,-120 1181,-120 1181,-132 1181,-132 1181,-138 1175,-144 1169,-144"/>
<text text-anchor="middle" x="1103" y="-122.9" font-family="Helvetica,sans-Serif" font-size="12.00" fill="#1a365d">Manufacturing Process</text>
</g>
<!-- https://w3id.org/sdata/core/ManufacturingProcess&#45;&gt;https://w3id.org/sdata/core/CoatingProcess -->
<g id="edge11" class="edge">
<title>https://w3id.org/sdata/core/ManufacturingProcess&#45;&gt;https://w3id.org/sdata/core/CoatingProcess</title>
<path fill="none" stroke="#4a5568" stroke-width="1.6" d="M1090.47,-107.97C1077.58,-90.46 1057.39,-63.02 1042.84,-43.25"/>
<polygon fill="#4a5568" stroke="#4a5568" stroke-width="1.6" points="1045.19,-41.42 1037.76,-36.34 1040.4,-44.95 1045.19,-41.42"/>
</g>
<!-- https://w3id.org/sdata/core/ManufacturingProcess&#45;&gt;https://w3id.org/sdata/core/FormingProcess -->
<g id="edge12" class="edge">
<title>https://w3id.org/sdata/core/ManufacturingProcess&#45;&gt;https://w3id.org/sdata/core/FormingProcess</title>
<path fill="none" stroke="#4a5568" stroke-width="1.6" d="M1115.69,-107.97C1128.74,-90.46 1149.19,-63.02 1163.93,-43.25"/>
<polygon fill="#4a5568" stroke="#4a5568" stroke-width="1.6" points="1166.38,-44.93 1169.08,-36.34 1161.61,-41.38 1166.38,-44.93"/>
</g>
<!-- https://w3id.org/sdata/core/ManufacturingProcess&#45;&gt;https://w3id.org/sdata/core/HeatTreatment -->
<g id="edge13" class="edge">
<title>https://w3id.org/sdata/core/ManufacturingProcess&#45;&gt;https://w3id.org/sdata/core/HeatTreatment</title>
<path fill="none" stroke="#4a5568" stroke-width="1.6" d="M1140.76,-107.97C1181.92,-89.4 1247.8,-59.69 1291.96,-39.76"/>
<polygon fill="#4a5568" stroke="#4a5568" stroke-width="1.6" points="1293.42,-42.37 1299.95,-36.16 1290.98,-36.95 1293.42,-42.37"/>
</g>
<!-- https://w3id.org/sdata/core/ManufacturingProcess&#45;&gt;https://w3id.org/sdata/core/JoiningProcess -->
<g id="edge14" class="edge">
<title>https://w3id.org/sdata/core/ManufacturingProcess&#45;&gt;https://w3id.org/sdata/core/JoiningProcess</title>
<path fill="none" stroke="#4a5568" stroke-width="1.6" d="M1165.18,-107.97C1237.04,-88.29 1354.65,-56.07 1426.9,-36.28"/>
<polygon fill="#4a5568" stroke="#4a5568" stroke-width="1.6" points="1428.07,-39.05 1435.48,-33.93 1426.5,-33.31 1428.07,-39.05"/>
</g>
<!-- https://w3id.org/sdata/core/Material -->
<g id="node23" class="node">
<title>https://w3id.org/sdata/core/Material</title>
<path fill="#e8f1ff" stroke="#2b6cb0" stroke-width="1.6" d="M2099.5,-252C2099.5,-252 2054.5,-252 2054.5,-252 2048.5,-252 2042.5,-246 2042.5,-240 2042.5,-240 2042.5,-228 2042.5,-228 2042.5,-222 2048.5,-216 2054.5,-216 2054.5,-216 2099.5,-216 2099.5,-216 2105.5,-216 2111.5,-222 2111.5,-228 2111.5,-228 2111.5,-240 2111.5,-240 2111.5,-246 2105.5,-252 2099.5,-252"/>
<text text-anchor="middle" x="2077" y="-230.9" font-family="Helvetica,sans-Serif" font-size="12.00" fill="#1a365d">Material</text>
</g>
<!-- https://w3id.org/sdata/core/Object -->
<g id="node24" class="node">
<title>https://w3id.org/sdata/core/Object</title>
<path fill="#e8f1ff" stroke="#2b6cb0" stroke-width="1.6" d="M2149,-360C2149,-360 2113,-360 2113,-360 2107,-360 2101,-354 2101,-348 2101,-348 2101,-336 2101,-336 2101,-330 2107,-324 2113,-324 2113,-324 2149,-324 2149,-324 2155,-324 2161,-330 2161,-336 2161,-336 2161,-348 2161,-348 2161,-354 2155,-360 2149,-360"/>
<text text-anchor="middle" x="2131" y="-338.9" font-family="Helvetica,sans-Serif" font-size="12.00" fill="#1a365d">Object</text>
</g>
<!-- https://w3id.org/sdata/core/Object&#45;&gt;https://w3id.org/sdata/core/Hardware -->
<g id="edge15" class="edge">
<title>https://w3id.org/sdata/core/Object&#45;&gt;https://w3id.org/sdata/core/Hardware</title>
<path fill="none" stroke="#4a5568" stroke-width="1.6" d="M2104.01,-323.97C2075.07,-305.71 2029.04,-276.67 1997.5,-256.76"/>
<polygon fill="#4a5568" stroke="#4a5568" stroke-width="1.6" points="1998.98,-254.18 1990.2,-252.16 1995.8,-259.22 1998.98,-254.18"/>
</g>
<!-- https://w3id.org/sdata/core/Object&#45;&gt;https://w3id.org/sdata/core/Material -->
<g id="edge16" class="edge">
<title>https://w3id.org/sdata/core/Object&#45;&gt;https://w3id.org/sdata/core/Material</title>
<path fill="none" stroke="#4a5568" stroke-width="1.6" d="M2122.32,-323.97C2113.52,-306.69 2099.79,-279.74 2089.75,-260.03"/>
<polygon fill="#4a5568" stroke="#4a5568" stroke-width="1.6" points="2092.34,-258.56 2085.83,-252.34 2087.04,-261.26 2092.34,-258.56"/>
</g>
<!-- https://w3id.org/sdata/core/Product -->
<g id="node25" class="node">
<title>https://w3id.org/sdata/core/Product</title>
<path fill="#e8f1ff" stroke="#2b6cb0" stroke-width="1.6" d="M2206,-252C2206,-252 2164,-252 2164,-252 2158,-252 2152,-246 2152,-240 2152,-240 2152,-228 2152,-228 2152,-222 2158,-216 2164,-216 2164,-216 2206,-216 2206,-216 2212,-216 2218,-222 2218,-228 2218,-228 2218,-240 2218,-240 2218,-246 2212,-252 2206,-252"/>
<text text-anchor="middle" x="2185" y="-230.9" font-family="Helvetica,sans-Serif" font-size="12.00" fill="#1a365d">Product</text>
</g>
<!-- https://w3id.org/sdata/core/Object&#45;&gt;https://w3id.org/sdata/core/Product -->
<g id="edge17" class="edge">
<title>https://w3id.org/sdata/core/Object&#45;&gt;https://w3id.org/sdata/core/Product</title>
<path fill="none" stroke="#4a5568" stroke-width="1.6" d="M2139.68,-323.97C2148.48,-306.69 2162.21,-279.74 2172.25,-260.03"/>
<polygon fill="#4a5568" stroke="#4a5568" stroke-width="1.6" points="2174.96,-261.26 2176.17,-252.34 2169.66,-258.56 2174.96,-261.26"/>
</g>
<!-- https://w3id.org/sdata/core/Software -->
<g id="node26" class="node">
<title>https://w3id.org/sdata/core/Software</title>
<path fill="#e8f1ff" stroke="#2b6cb0" stroke-width="1.6" d="M2319.5,-252C2319.5,-252 2270.5,-252 2270.5,-252 2264.5,-252 2258.5,-246 2258.5,-240 2258.5,-240 2258.5,-228 2258.5,-228 2258.5,-222 2264.5,-216 2270.5,-216 2270.5,-216 2319.5,-216 2319.5,-216 2325.5,-216 2331.5,-222 2331.5,-228 2331.5,-228 2331.5,-240 2331.5,-240 2331.5,-246 2325.5,-252 2319.5,-252"/>
<text text-anchor="middle" x="2295" y="-230.9" font-family="Helvetica,sans-Serif" font-size="12.00" fill="#1a365d">Software</text>
</g>
<!-- https://w3id.org/sdata/core/Object&#45;&gt;https://w3id.org/sdata/core/Software -->
<g id="edge18" class="edge">
<title>https://w3id.org/sdata/core/Object&#45;&gt;https://w3id.org/sdata/core/Software</title>
<path fill="none" stroke="#4a5568" stroke-width="1.6" d="M2157.35,-323.97C2185.48,-305.79 2230.15,-276.91 2260.94,-257.02"/>
<polygon fill="#4a5568" stroke="#4a5568" stroke-width="1.6" points="2262.92,-259.28 2268.44,-252.16 2259.69,-254.28 2262.92,-259.28"/>
</g>
<!-- https://w3id.org/sdata/core/Process -->
<g id="node27" class="node">
<title>https://w3id.org/sdata/core/Process</title>
<path fill="#e8f1ff" stroke="#2b6cb0" stroke-width="1.6" d="M1571,-252C1571,-252 1529,-252 1529,-252 1523,-252 1517,-246 1517,-240 1517,-240 1517,-228 1517,-228 1517,-222 1523,-216 1529,-216 1529,-216 1571,-216 1571,-216 1577,-216 1583,-222 1583,-228 1583,-228 1583,-240 1583,-240 1583,-246 1577,-252 1571,-252"/>
<text text-anchor="middle" x="1550" y="-230.9" font-family="Helvetica,sans-Serif" font-size="12.00" fill="#1a365d">Process</text>
</g>
<!-- https://w3id.org/sdata/core/Process&#45;&gt;https://w3id.org/sdata/core/Creation -->
<g id="edge25" class="edge">
<title>https://w3id.org/sdata/core/Process&#45;&gt;https://w3id.org/sdata/core/Creation</title>
<path fill="none" stroke="#4a5568" stroke-width="1.6" d="M1516.6,-232.22C1394.91,-228.86 964.2,-212.55 617,-144 613.03,-143.22 608.95,-142.27 604.88,-141.22"/>
<polygon fill="#4a5568" stroke="#4a5568" stroke-width="1.6" points="605.56,-138.32 596.58,-138.96 604,-144.06 605.56,-138.32"/>
</g>
<!-- https://w3id.org/sdata/core/Process&#45;&gt;https://w3id.org/sdata/core/AssemblyProcess -->
<g id="edge19" class="edge">
<title>https://w3id.org/sdata/core/Process&#45;&gt;https://w3id.org/sdata/core/AssemblyProcess</title>
<path fill="none" stroke="#4a5568" stroke-width="1.6" d="M1516.97,-230.2C1410.3,-220.93 1065.6,-189.25 783,-144 779.31,-143.41 775.53,-142.77 771.71,-142.09"/>
<polygon fill="#4a5568" stroke="#4a5568" stroke-width="1.6" points="772.24,-139.16 763.34,-140.56 771.17,-145.01 772.24,-139.16"/>
</g>
<!-- https://w3id.org/sdata/core/Process&#45;&gt;https://w3id.org/sdata/core/Experiment -->
<g id="edge20" class="edge">
<title>https://w3id.org/sdata/core/Process&#45;&gt;https://w3id.org/sdata/core/Experiment</title>
<path fill="none" stroke="#4a5568" stroke-width="1.6" d="M1516.61,-227.96C1404.5,-211.03 1040.76,-156.11 902.24,-135.19"/>
<polygon fill="#4a5568" stroke="#4a5568" stroke-width="1.6" points="902.3,-132.19 893.45,-133.86 901.41,-138.07 902.3,-132.19"/>
</g>
<!-- https://w3id.org/sdata/core/Process&#45;&gt;https://w3id.org/sdata/core/ManufacturingProcess -->
<g id="edge21" class="edge">
<title>https://w3id.org/sdata/core/Process&#45;&gt;https://w3id.org/sdata/core/ManufacturingProcess</title>
<path fill="none" stroke="#4a5568" stroke-width="1.6" d="M1516.77,-225.12C1446.78,-208.52 1282.49,-169.56 1183.27,-146.04"/>
<polygon fill="#4a5568" stroke="#4a5568" stroke-width="1.6" points="1183.73,-143.09 1174.77,-144.02 1182.35,-148.87 1183.73,-143.09"/>
</g>
<!-- https://w3id.org/sdata/core/RecyclingProcess -->
<g id="node28" class="node">
<title>https://w3id.org/sdata/core/RecyclingProcess</title>
<path fill="#e8f1ff" stroke="#2b6cb0" stroke-width="1.6" d="M1335,-144C1335,-144 1233,-144 1233,-144 1227,-144 1221,-138 1221,-132 1221,-132 1221,-120 1221,-120 1221,-114 1227,-108 1233,-108 1233,-108 1335,-108 1335,-108 1341,-108 1347,-114 1347,-120 1347,-120 1347,-132 1347,-132 1347,-138 1341,-144 1335,-144"/>
<text text-anchor="middle" x="1284" y="-122.9" font-family="Helvetica,sans-Serif" font-size="12.00" fill="#1a365d">Recycling Process</text>
</g>
<!-- https://w3id.org/sdata/core/Process&#45;&gt;https://w3id.org/sdata/core/RecyclingProcess -->
<g id="edge22" class="edge">
<title>https://w3id.org/sdata/core/Process&#45;&gt;https://w3id.org/sdata/core/RecyclingProcess</title>
<path fill="none" stroke="#4a5568" stroke-width="1.6" d="M1516.85,-219.79C1471.15,-201.58 1388.38,-168.59 1334.83,-147.25"/>
<polygon fill="#4a5568" stroke="#4a5568" stroke-width="1.6" points="1335.82,-144.45 1326.82,-144.06 1333.62,-149.97 1335.82,-144.45"/>
</g>
<!-- https://w3id.org/sdata/core/Simulation -->
<g id="node29" class="node">
<title>https://w3id.org/sdata/core/Simulation</title>
<path fill="#e8f1ff" stroke="#2b6cb0" stroke-width="1.6" d="M1459,-144C1459,-144 1399,-144 1399,-144 1393,-144 1387,-138 1387,-132 1387,-132 1387,-120 1387,-120 1387,-114 1393,-108 1399,-108 1399,-108 1459,-108 1459,-108 1465,-108 1471,-114 1471,-120 1471,-120 1471,-132 1471,-132 1471,-138 1465,-144 1459,-144"/>
<text text-anchor="middle" x="1429" y="-122.9" font-family="Helvetica,sans-Serif" font-size="12.00" fill="#1a365d">Simulation</text>
</g>
<!-- https://w3id.org/sdata/core/Process&#45;&gt;https://w3id.org/sdata/core/Simulation -->
<g id="edge23" class="edge">
<title>https://w3id.org/sdata/core/Process&#45;&gt;https://w3id.org/sdata/core/Simulation</title>
<path fill="none" stroke="#4a5568" stroke-width="1.6" d="M1530.56,-215.97C1510.13,-198.07 1477.87,-169.81 1455.21,-149.96"/>
<polygon fill="#4a5568" stroke="#4a5568" stroke-width="1.6" points="1457.15,-147.7 1448.79,-144.34 1453.23,-152.18 1457.15,-147.7"/>
</g>
<!-- https://w3id.org/sdata/core/Transport -->
<g id="node30" class="node">
<title>https://w3id.org/sdata/core/Transport</title>
<path fill="#e8f1ff" stroke="#2b6cb0" stroke-width="1.6" d="M1576.5,-144C1576.5,-144 1523.5,-144 1523.5,-144 1517.5,-144 1511.5,-138 1511.5,-132 1511.5,-132 1511.5,-120 1511.5,-120 1511.5,-114 1517.5,-108 1523.5,-108 1523.5,-108 1576.5,-108 1576.5,-108 1582.5,-108 1588.5,-114 1588.5,-120 1588.5,-120 1588.5,-132 1588.5,-132 1588.5,-138 1582.5,-144 1576.5,-144"/>
<text text-anchor="middle" x="1550" y="-122.9" font-family="Helvetica,sans-Serif" font-size="12.00" fill="#1a365d">Transport</text>
</g>
<!-- https://w3id.org/sdata/core/Process&#45;&gt;https://w3id.org/sdata/core/Transport -->
<g id="edge24" class="edge">
<title>https://w3id.org/sdata/core/Process&#45;&gt;https://w3id.org/sdata/core/Transport</title>
<path fill="none" stroke="#4a5568" stroke-width="1.6" d="M1550,-215.97C1550,-198.99 1550,-172.7 1550,-153.09"/>
<polygon fill="#4a5568" stroke="#4a5568" stroke-width="1.6" points="1552.98,-152.84 1550,-144.34 1547.03,-152.84 1552.98,-152.84"/>
</g>
<!-- https://w3id.org/sdata/core/Destruction -->
<g id="node31" class="node">
<title>https://w3id.org/sdata/core/Destruction</title>
<path fill="#eef8e7" stroke="#4f8a10" stroke-width="1.6" d="M1707,-144C1707,-144 1641,-144 1641,-144 1635,-144 1629,-138 1629,-132 1629,-132 1629,-120 1629,-120 1629,-114 1635,-108 1641,-108 1641,-108 1707,-108 1707,-108 1713,-108 1719,-114 1719,-120 1719,-120 1719,-132 1719,-132 1719,-138 1713,-144 1707,-144"/>
<text text-anchor="middle" x="1674" y="-122.9" font-family="Helvetica,sans-Serif" font-size="12.00" fill="#2f5d08">Destruction</text>
</g>
<!-- https://w3id.org/sdata/core/Process&#45;&gt;https://w3id.org/sdata/core/Destruction -->
<g id="edge26" class="edge">
<title>https://w3id.org/sdata/core/Process&#45;&gt;https://w3id.org/sdata/core/Destruction</title>
<path fill="none" stroke="#4a5568" stroke-width="1.6" d="M1569.92,-215.97C1590.86,-198.07 1623.92,-169.81 1647.14,-149.96"/>
<polygon fill="#4a5568" stroke="#4a5568" stroke-width="1.6" points="1649.19,-152.13 1653.71,-144.34 1645.32,-147.6 1649.19,-152.13"/>
</g>
<!-- https://w3id.org/sdata/core/Observation -->
<g id="node32" class="node">
<title>https://w3id.org/sdata/core/Observation</title>
<path fill="#eef8e7" stroke="#4f8a10" stroke-width="1.6" d="M1840.5,-144C1840.5,-144 1771.5,-144 1771.5,-144 1765.5,-144 1759.5,-138 1759.5,-132 1759.5,-132 1759.5,-120 1759.5,-120 1759.5,-114 1765.5,-108 1771.5,-108 1771.5,-108 1840.5,-108 1840.5,-108 1846.5,-108 1852.5,-114 1852.5,-120 1852.5,-120 1852.5,-132 1852.5,-132 1852.5,-138 1846.5,-144 1840.5,-144"/>
<text text-anchor="middle" x="1806" y="-122.9" font-family="Helvetica,sans-Serif" font-size="12.00" fill="#2f5d08">Observation</text>
</g>
<!-- https://w3id.org/sdata/core/Process&#45;&gt;https://w3id.org/sdata/core/Observation -->
<g id="edge27" class="edge">
<title>https://w3id.org/sdata/core/Process&#45;&gt;https://w3id.org/sdata/core/Observation</title>
<path fill="none" stroke="#4a5568" stroke-width="1.6" d="M1583.21,-219.25C1627.38,-200.96 1705.83,-168.48 1756.87,-147.34"/>
<polygon fill="#4a5568" stroke="#4a5568" stroke-width="1.6" points="1758.1,-150.06 1764.81,-144.05 1755.82,-144.56 1758.1,-150.06"/>
</g>
<!-- https://w3id.org/sdata/core/Preservation -->
<g id="node33" class="node">
<title>https://w3id.org/sdata/core/Preservation</title>
<path fill="#eef8e7" stroke="#4f8a10" stroke-width="1.6" d="M1975.5,-144C1975.5,-144 1904.5,-144 1904.5,-144 1898.5,-144 1892.5,-138 1892.5,-132 1892.5,-132 1892.5,-120 1892.5,-120 1892.5,-114 1898.5,-108 1904.5,-108 1904.5,-108 1975.5,-108 1975.5,-108 1981.5,-108 1987.5,-114 1987.5,-120 1987.5,-120 1987.5,-132 1987.5,-132 1987.5,-138 1981.5,-144 1975.5,-144"/>
<text text-anchor="middle" x="1940" y="-122.9" font-family="Helvetica,sans-Serif" font-size="12.00" fill="#2f5d08">Preservation</text>
</g>
<!-- https://w3id.org/sdata/core/Process&#45;&gt;https://w3id.org/sdata/core/Preservation -->
<g id="edge28" class="edge">
<title>https://w3id.org/sdata/core/Process&#45;&gt;https://w3id.org/sdata/core/Preservation</title>
<path fill="none" stroke="#4a5568" stroke-width="1.6" d="M1583.28,-222.03C1589.8,-219.97 1596.6,-217.87 1603,-216 1655.54,-200.65 1802.12,-162.55 1883.58,-141.52"/>
<polygon fill="#4a5568" stroke="#4a5568" stroke-width="1.6" points="1884.74,-144.29 1892.22,-139.29 1883.25,-138.53 1884.74,-144.29"/>
</g>
<!-- https://w3id.org/sdata/core/Recovery -->
<g id="node34" class="node">
<title>https://w3id.org/sdata/core/Recovery</title>
<path fill="#eef8e7" stroke="#4f8a10" stroke-width="1.6" d="M2092,-144C2092,-144 2040,-144 2040,-144 2034,-144 2028,-138 2028,-132 2028,-132 2028,-120 2028,-120 2028,-114 2034,-108 2040,-108 2040,-108 2092,-108 2092,-108 2098,-108 2104,-114 2104,-120 2104,-120 2104,-132 2104,-132 2104,-138 2098,-144 2092,-144"/>
<text text-anchor="middle" x="2066" y="-122.9" font-family="Helvetica,sans-Serif" font-size="12.00" fill="#2f5d08">Recovery</text>
</g>
<!-- https://w3id.org/sdata/core/Process&#45;&gt;https://w3id.org/sdata/core/Recovery -->
<g id="edge29" class="edge">
<title>https://w3id.org/sdata/core/Process&#45;&gt;https://w3id.org/sdata/core/Recovery</title>
<path fill="none" stroke="#4a5568" stroke-width="1.6" d="M1583.17,-221.61C1589.7,-219.58 1596.53,-217.61 1603,-216 1780.01,-172.05 1829.35,-185.3 2007,-144 2011.01,-143.07 2015.15,-142.03 2019.29,-140.94"/>
<polygon fill="#4a5568" stroke="#4a5568" stroke-width="1.6" points="2020.32,-143.74 2027.75,-138.65 2018.77,-138 2020.32,-143.74"/>
</g>
<!-- https://w3id.org/sdata/core/Transfer -->
<g id="node35" class="node">
<title>https://w3id.org/sdata/core/Transfer</title>
<path fill="#eef8e7" stroke="#4f8a10" stroke-width="1.6" d="M2201.5,-144C2201.5,-144 2156.5,-144 2156.5,-144 2150.5,-144 2144.5,-138 2144.5,-132 2144.5,-132 2144.5,-120 2144.5,-120 2144.5,-114 2150.5,-108 2156.5,-108 2156.5,-108 2201.5,-108 2201.5,-108 2207.5,-108 2213.5,-114 2213.5,-120 2213.5,-120 2213.5,-132 2213.5,-132 2213.5,-138 2207.5,-144 2201.5,-144"/>
<text text-anchor="middle" x="2179" y="-122.9" font-family="Helvetica,sans-Serif" font-size="12.00" fill="#2f5d08">Transfer</text>
</g>
<!-- https://w3id.org/sdata/core/Process&#45;&gt;https://w3id.org/sdata/core/Transfer -->
<g id="edge30" class="edge">
<title>https://w3id.org/sdata/core/Process&#45;&gt;https://w3id.org/sdata/core/Transfer</title>
<path fill="none" stroke="#4a5568" stroke-width="1.6" d="M1583.12,-221.41C1589.65,-219.4 1596.5,-217.48 1603,-216 1830.92,-164.11 1895.8,-194.68 2124,-144 2127.94,-143.13 2132,-142.1 2136.06,-141"/>
<polygon fill="#4a5568" stroke="#4a5568" stroke-width="1.6" points="2136.95,-143.84 2144.31,-138.65 2135.32,-138.12 2136.95,-143.84"/>
</g>
<!-- https://w3id.org/sdata/core/Transformation -->
<g id="node36" class="node">
<title>https://w3id.org/sdata/core/Transformation</title>
<path fill="#eef8e7" stroke="#4f8a10" stroke-width="1.6" d="M2352.5,-144C2352.5,-144 2265.5,-144 2265.5,-144 2259.5,-144 2253.5,-138 2253.5,-132 2253.5,-132 2253.5,-120 2253.5,-120 2253.5,-114 2259.5,-108 2265.5,-108 2265.5,-108 2352.5,-108 2352.5,-108 2358.5,-108 2364.5,-114 2364.5,-120 2364.5,-120 2364.5,-132 2364.5,-132 2364.5,-138 2358.5,-144 2352.5,-144"/>
<text text-anchor="middle" x="2309" y="-122.9" font-family="Helvetica,sans-Serif" font-size="12.00" fill="#2f5d08">Transformation</text>
</g>
<!-- https://w3id.org/sdata/core/Process&#45;&gt;https://w3id.org/sdata/core/Transformation -->
<g id="edge31" class="edge">
<title>https://w3id.org/sdata/core/Process&#45;&gt;https://w3id.org/sdata/core/Transformation</title>
<path fill="none" stroke="#4a5568" stroke-width="1.6" d="M1583.09,-221.29C1589.63,-219.28 1596.48,-217.4 1603,-216 1878.94,-156.61 1955.72,-191.27 2234,-144 2237.55,-143.4 2241.19,-142.73 2244.86,-142.02"/>
<polygon fill="#4a5568" stroke="#4a5568" stroke-width="1.6" points="2245.68,-144.89 2253.43,-140.31 2244.52,-139.06 2245.68,-144.89"/>
</g>
<!-- https://w3id.org/sdata/core/Simulation&#45;&gt;https://w3id.org/sdata/core/CrashSimulation -->
<g id="edge32" class="edge">
<title>https://w3id.org/sdata/core/Simulation&#45;&gt;https://w3id.org/sdata/core/CrashSimulation</title>
<path fill="none" stroke="#4a5568" stroke-width="1.6" d="M1463.86,-107.97C1501.72,-89.48 1562.21,-59.93 1602.98,-40.01"/>
<polygon fill="#4a5568" stroke="#4a5568" stroke-width="1.6" points="1604.53,-42.57 1610.86,-36.16 1601.92,-37.22 1604.53,-42.57"/>
</g>
<!-- https://w3id.org/sdata/core/ValueDomain -->
<g id="node37" class="node">
<title>https://w3id.org/sdata/core/ValueDomain</title>
<path fill="#e8f1ff" stroke="#2b6cb0" stroke-width="1.6" d="M2293,-360C2293,-360 2213,-360 2213,-360 2207,-360 2201,-354 2201,-348 2201,-348 2201,-336 2201,-336 2201,-330 2207,-324 2213,-324 2213,-324 2293,-324 2293,-324 2299,-324 2305,-330 2305,-336 2305,-336 2305,-348 2305,-348 2305,-354 2299,-360 2293,-360"/>
<text text-anchor="middle" x="2253" y="-338.9" font-family="Helvetica,sans-Serif" font-size="12.00" fill="#1a365d">Value Domain</text>
</g>
</g>
</svg>
