<?xml version="1.0" encoding="UTF-8" standalone="no"?>
<!DOCTYPE svg PUBLIC "-//W3C//DTD SVG 1.1//EN"
 "http://www.w3.org/Graphics/SVG/1.1/DTD/svg11.dtd">
<!-- Generated by graphviz version 2.43.0 (0)
 -->
<!-- Pages: 1 -->
<svg width="2506pt" height="348pt"
 viewBox="0.00 0.00 2506.40 348.40" xmlns="http://www.w3.org/2000/svg" xmlns:xlink="http://www.w3.org/1999/xlink">
<g id="graph0" class="graph" transform="scale(1 1) rotate(0) translate(25.2 323.2)">
<polygon fill="#fafbfc" stroke="transparent" points="-25.2,25.2 -25.2,-323.2 2481.2,-323.2 2481.2,25.2 -25.2,25.2"/>
<text text-anchor="middle" x="1228" y="-278" font-family="Helvetica,sans-Serif" font-size="20.00">sdata Core + Processtypes Hierarchy (sdata&#45;only)</text>
<!-- https://w3id.org/sdata/core/Agent -->
<g id="node1" class="node">
<title>https://w3id.org/sdata/core/Agent</title>
<path fill="#e8f1ff" stroke="#2b6cb0" stroke-width="1.6" d="M51.5,-268C51.5,-268 19.5,-268 19.5,-268 13.5,-268 7.5,-262 7.5,-256 7.5,-256 7.5,-244 7.5,-244 7.5,-238 13.5,-232 19.5,-232 19.5,-232 51.5,-232 51.5,-232 57.5,-232 63.5,-238 63.5,-244 63.5,-244 63.5,-256 63.5,-256 63.5,-262 57.5,-268 51.5,-268"/>
<text text-anchor="middle" x="35.5" y="-246.9" font-family="Helvetica,sans-Serif" font-size="12.00" fill="#1a365d">Agent</text>
</g>
<!-- https://w3id.org/sdata/core/Creation -->
<g id="node2" class="node">
<title>https://w3id.org/sdata/core/Creation</title>
<path fill="#eef8e7" stroke="#4f8a10" stroke-width="1.6" d="M59,-36C59,-36 12,-36 12,-36 6,-36 0,-30 0,-24 0,-24 0,-12 0,-12 0,-6 6,0 12,0 12,0 59,0 59,0 65,0 71,-6 71,-12 71,-12 71,-24 71,-24 71,-30 65,-36 59,-36"/>
<text text-anchor="middle" x="35.5" y="-14.9" font-family="Helvetica,sans-Serif" font-size="12.00" fill="#2f5d08">Creation</text>
</g>
<!-- https://w3id.org/sdata/core/Agent&#45;&gt;https://w3id.org/sdata/core/Creation -->
<!-- https://w3id.org/sdata/core/Artifact -->
<g id="node3" class="node">
<title>https://w3id.org/sdata/core/Artifact</title>
<path fill="#e8f1ff" stroke="#2b6cb0" stroke-width="1.6" d="M183,-268C183,-268 142,-268 142,-268 136,-268 130,-262 130,-256 130,-256 130,-244 130,-244 130,-238 136,-232 142,-232 142,-232 183,-232 183,-232 189,-232 195,-238 195,-244 195,-244 195,-256 195,-256 195,-262 189,-268 183,-268"/>
<text text-anchor="middle" x="162.5" y="-246.9" font-family="Helvetica,sans-Serif" font-size="12.00" fill="#1a365d">Artifact</text>
</g>
<!-- https://w3id.org/sdata/core/Identifier -->
<g id="node4" class="node">
<title>https://w3id.org/sdata/core/Identifier</title>
<path fill="#e8f1ff" stroke="#2b6cb0" stroke-width="1.6" d="M348,-268C348,-268 297,-268 297,-268 291,-268 285,-262 285,-256 285,-256 285,-244 285,-244 285,-238 291,-232 297,-232 297,-232 348,-232 348,-232 354,-232 360,-238 360,-244 360,-244 360,-256 360,-256 360,-262 354,-268 348,-268"/>
<text text-anchor="middle" x="322.5" y="-246.9" font-family="Helvetica,sans-Serif" font-size="12.00" fill="#1a365d">Identifier</text>
</g>
<!-- https://w3id.org/sdata/core/Information -->
<g id="node5" class="node">
<title>https://w3id.org/sdata/core/Information</title>
<path fill="#e8f1ff" stroke="#2b6cb0" stroke-width="1.6" d="M174.5,-145C174.5,-145 108.5,-145 108.5,-145 102.5,-145 96.5,-139 96.5,-133 96.5,-133 96.5,-121 96.5,-121 96.5,-115 102.5,-109 108.5,-109 108.5,-109 174.5,-109 174.5,-109 180.5,-109 186.5,-115 186.5,-121 186.5,-121 186.5,-133 186.5,-133 186.5,-139 180.5,-145 174.5,-145"/>
<text text-anchor="middle" x="141.5" y="-123.9" font-family="Helvetica,sans-Serif" font-size="12.00" fill="#1a365d">Information</text>
</g>
<!-- https://w3id.org/sdata/core/InformationAgent -->
<g id="node6" class="node">
<title>https://w3id.org/sdata/core/InformationAgent</title>
<path fill="#e8f1ff" stroke="#2b6cb0" stroke-width="1.6" d="M344,-145C344,-145 239,-145 239,-145 233,-145 227,-139 227,-133 227,-133 227,-121 227,-121 227,-115 233,-109 239,-109 239,-109 344,-109 344,-109 350,-109 356,-115 356,-121 356,-121 356,-133 356,-133 356,-139 350,-145 344,-145"/>
<text text-anchor="middle" x="291.5" y="-123.9" font-family="Helvetica,sans-Serif" font-size="12.00" fill="#1a365d">Information Agent</text>
</g>
<!-- https://w3id.org/sdata/core/InformationArtifact -->
<g id="node7" class="node">
<title>https://w3id.org/sdata/core/InformationArtifact</title>
<path fill="#e8f1ff" stroke="#2b6cb0" stroke-width="1.6" d="M522.5,-145C522.5,-145 408.5,-145 408.5,-145 402.5,-145 396.5,-139 396.5,-133 396.5,-133 396.5,-121 396.5,-121 396.5,-115 402.5,-109 408.5,-109 408.5,-109 522.5,-109 522.5,-109 528.5,-109 534.5,-115 534.5,-121 534.5,-121 534.5,-133 534.5,-133 534.5,-139 528.5,-145 522.5,-145"/>
<text text-anchor="middle" x="465.5" y="-123.9" font-family="Helvetica,sans-Serif" font-size="12.00" fill="#1a365d">Information Artifact</text>
</g>
<!-- https://w3id.org/sdata/core/InformationProcess -->
<g id="node8" class="node">
<title>https://w3id.org/sdata/core/InformationProcess</title>
<path fill="#e8f1ff" stroke="#2b6cb0" stroke-width="1.6" d="M702,-145C702,-145 587,-145 587,-145 581,-145 575,-139 575,-133 575,-133 575,-121 575,-121 575,-115 581,-109 587,-109 587,-109 702,-109 702,-109 708,-109 714,-115 714,-121 714,-121 714,-133 714,-133 714,-139 708,-145 702,-145"/>
<text text-anchor="middle" x="644.5" y="-123.9" font-family="Helvetica,sans-Serif" font-size="12.00" fill="#1a365d">Information Process</text>
</g>
<!-- https://w3id.org/sdata/core/InformationSite -->
<g id="node9" class="node">
<title>https://w3id.org/sdata/core/InformationSite</title>
<path fill="#e8f1ff" stroke="#2b6cb0" stroke-width="1.6" d="M859,-145C859,-145 766,-145 766,-145 760,-145 754,-139 754,-133 754,-133 754,-121 754,-121 754,-115 760,-109 766,-109 766,-109 859,-109 859,-109 865,-109 871,-115 871,-121 871,-121 871,-133 871,-133 871,-139 865,-145 859,-145"/>
<text text-anchor="middle" x="812.5" y="-123.9" font-family="Helvetica,sans-Serif" font-size="12.00" fill="#1a365d">Information Site</text>
</g>
<!-- https://w3id.org/sdata/core/Intangible -->
<g id="node10" class="node">
<title>https://w3id.org/sdata/core/Intangible</title>
<path fill="#e8f1ff" stroke="#2b6cb0" stroke-width="1.6" d="M493.5,-268C493.5,-268 437.5,-268 437.5,-268 431.5,-268 425.5,-262 425.5,-256 425.5,-256 425.5,-244 425.5,-244 425.5,-238 431.5,-232 437.5,-232 437.5,-232 493.5,-232 493.5,-232 499.5,-232 505.5,-238 505.5,-244 505.5,-244 505.5,-256 505.5,-256 505.5,-262 499.5,-268 493.5,-268"/>
<text text-anchor="middle" x="465.5" y="-246.9" font-family="Helvetica,sans-Serif" font-size="12.00" fill="#1a365d">Intangible</text>
</g>
<!-- https://w3id.org/sdata/core/Intangible&#45;&gt;https://w3id.org/sdata/core/Information -->
<g id="edge2" class="edge">
<title>https://w3id.org/sdata/core/Intangible&#45;&gt;https://w3id.org/sdata/core/Information</title>
<path fill="none" stroke="#4a5568" stroke-width="1.6" d="M425.45,-234.04C367.32,-212.33 259.48,-172.06 194.73,-147.88"/>
<polygon fill="#4a5568" stroke="#4a5568" stroke-width="1.6" points="195.66,-145.05 186.66,-144.87 193.58,-150.63 195.66,-145.05"/>
</g>
<!-- https://w3id.org/sdata/core/Intangible&#45;&gt;https://w3id.org/sdata/core/InformationAgent -->
<g id="edge3" class="edge">
<title>https://w3id.org/sdata/core/Intangible&#45;&gt;https://w3id.org/sdata/core/InformationAgent</title>
<path fill="none" stroke="#4a5568" stroke-width="1.6" d="M440.94,-231.92C410.2,-210.54 357.47,-173.87 323.57,-150.3"/>
<polygon fill="#4a5568" stroke="#4a5568" stroke-width="1.6" points="324.89,-147.6 316.22,-145.19 321.5,-152.48 324.89,-147.6"/>
</g>
<!-- https://w3id.org/sdata/core/Intangible&#45;&gt;https://w3id.org/sdata/core/InformationArtifact -->
<g id="edge4" class="edge">
<title>https://w3id.org/sdata/core/Intangible&#45;&gt;https://w3id.org/sdata/core/InformationArtifact</title>
<path fill="none" stroke="#4a5568" stroke-width="1.6" d="M465.5,-231.92C465.5,-211.68 465.5,-177.73 465.5,-154.16"/>
<polygon fill="#4a5568" stroke="#4a5568" stroke-width="1.6" points="468.48,-153.88 465.5,-145.38 462.53,-153.88 468.48,-153.88"/>
</g>
<!-- https://w3id.org/sdata/core/Intangible&#45;&gt;https://w3id.org/sdata/core/InformationProcess -->
<g id="edge5" class="edge">
<title>https://w3id.org/sdata/core/Intangible&#45;&gt;https://w3id.org/sdata/core/InformationProcess</title>
<path fill="none" stroke="#4a5568" stroke-width="1.6" d="M505.7,-242.93C537.69,-236.26 581.86,-222.72 611.5,-196 624.01,-184.72 632.27,-167.66 637.4,-153.45"/>
<polygon fill="#4a5568" stroke="#4a5568" stroke-width="1.6" points="640.34,-154.05 640.2,-145.04 634.69,-152.17 640.34,-154.05"/>
</g>
<!-- https://w3id.org/sdata/core/Intangible&#45;&gt;https://w3id.org/sdata/core/InformationSite -->
<g id="edge6" class="edge">
<title>https://w3id.org/sdata/core/Intangible&#45;&gt;https://w3id.org/sdata/core/InformationSite</title>
<path fill="none" stroke="#4a5568" stroke-width="1.6" d="M505.78,-246.38C579.36,-240.9 731.84,-226.17 774.5,-196 788.99,-185.75 798.61,-168.14 804.55,-153.41"/>
<polygon fill="#4a5568" stroke="#4a5568" stroke-width="1.6" points="807.45,-154.15 807.62,-145.14 801.87,-152.07 807.45,-154.15"/>
</g>
<!-- https://w3id.org/sdata/core/Material -->
<g id="node11" class="node">
<title>https://w3id.org/sdata/core/Material</title>
<path fill="#e8f1ff" stroke="#2b6cb0" stroke-width="1.6" d="M968,-145C968,-145 923,-145 923,-145 917,-145 911,-139 911,-133 911,-133 911,-121 911,-121 911,-115 917,-109 923,-109 923,-109 968,-109 968,-109 974,-109 980,-115 980,-121 980,-121 980,-133 980,-133 980,-139 974,-145 968,-145"/>
<text text-anchor="middle" x="945.5" y="-123.9" font-family="Helvetica,sans-Serif" font-size="12.00" fill="#1a365d">Material</text>
</g>
<!-- https://w3id.org/sdata/core/Material&#45;&gt;https://w3id.org/sdata/core/Information -->
<g id="edge7" class="edge">
<title>https://w3id.org/sdata/core/Material&#45;&gt;https://w3id.org/sdata/core/Information</title>
<path fill="none" stroke="#6b7280" stroke-width="1.6" stroke-dasharray="5,2" d="M910.87,-139.47C904.18,-141.56 897.17,-143.52 890.5,-145 712.03,-184.61 655.37,-194.72 521,-186 380.34,-176.87 344.65,-172.99 206.5,-145 200.07,-143.7 193.35,-142.1 186.76,-140.41"/>
<text text-anchor="middle" x="536.5" y="-184.8" font-family="Helvetica,sans-Serif" font-size="14.00" fill="#6b7280">dual</text>
</g>
<!-- https://w3id.org/sdata/core/MaterialAgent -->
<g id="node12" class="node">
<title>https://w3id.org/sdata/core/MaterialAgent</title>
<path fill="#e8f1ff" stroke="#2b6cb0" stroke-width="1.6" d="M1116.5,-145C1116.5,-145 1032.5,-145 1032.5,-145 1026.5,-145 1020.5,-139 1020.5,-133 1020.5,-133 1020.5,-121 1020.5,-121 1020.5,-115 1026.5,-109 1032.5,-109 1032.5,-109 1116.5,-109 1116.5,-109 1122.5,-109 1128.5,-115 1128.5,-121 1128.5,-121 1128.5,-133 1128.5,-133 1128.5,-139 1122.5,-145 1116.5,-145"/>
<text text-anchor="middle" x="1074.5" y="-123.9" font-family="Helvetica,sans-Serif" font-size="12.00" fill="#1a365d">Material Agent</text>
</g>
<!-- https://w3id.org/sdata/core/MaterialAgent&#45;&gt;https://w3id.org/sdata/core/InformationAgent -->
<g id="edge8" class="edge">
<title>https://w3id.org/sdata/core/MaterialAgent&#45;&gt;https://w3id.org/sdata/core/InformationAgent</title>
<path fill="none" stroke="#6b7280" stroke-width="1.6" stroke-dasharray="5,2" d="M1020.27,-141.24C928.2,-163.65 735.38,-202.95 572,-186 497.01,-178.22 412.54,-158.99 356.07,-144.58"/>
<text text-anchor="middle" x="587.5" y="-184.8" font-family="Helvetica,sans-Serif" font-size="14.00" fill="#6b7280">dual</text>
</g>
<!-- https://w3id.org/sdata/core/MaterialArtifact -->
<g id="node13" class="node">
<title>https://w3id.org/sdata/core/MaterialArtifact</title>
<path fill="#e8f1ff" stroke="#2b6cb0" stroke-width="1.6" d="M1274,-145C1274,-145 1181,-145 1181,-145 1175,-145 1169,-139 1169,-133 1169,-133 1169,-121 1169,-121 1169,-115 1175,-109 1181,-109 1181,-109 1274,-109 1274,-109 1280,-109 1286,-115 1286,-121 1286,-121 1286,-133 1286,-133 1286,-139 1280,-145 1274,-145"/>
<text text-anchor="middle" x="1227.5" y="-123.9" font-family="Helvetica,sans-Serif" font-size="12.00" fill="#1a365d">Material Artifact</text>
</g>
<!-- https://w3id.org/sdata/core/MaterialArtifact&#45;&gt;https://w3id.org/sdata/core/InformationArtifact -->
<g id="edge9" class="edge">
<title>https://w3id.org/sdata/core/MaterialArtifact&#45;&gt;https://w3id.org/sdata/core/InformationArtifact</title>
<path fill="none" stroke="#6b7280" stroke-width="1.6" stroke-dasharray="5,2" d="M1168.67,-142.72C1076.21,-165.47 891.2,-203.07 734,-186 662.95,-178.29 583.15,-159.41 529.14,-145.07"/>
<text text-anchor="middle" x="749.5" y="-184.8" font-family="Helvetica,sans-Serif" font-size="14.00" fill="#6b7280">dual</text>
</g>
<!-- https://w3id.org/sdata/core/MaterialProcess -->
<g id="node14" class="node">
<title>https://w3id.org/sdata/core/MaterialProcess</title>
<path fill="#e8f1ff" stroke="#2b6cb0" stroke-width="1.6" d="M1432.5,-145C1432.5,-145 1338.5,-145 1338.5,-145 1332.5,-145 1326.5,-139 1326.5,-133 1326.5,-133 1326.5,-121 1326.5,-121 1326.5,-115 1332.5,-109 1338.5,-109 1338.5,-109 1432.5,-109 1432.5,-109 1438.5,-109 1444.5,-115 1444.5,-121 1444.5,-121 1444.5,-133 1444.5,-133 1444.5,-139 1438.5,-145 1432.5,-145"/>
<text text-anchor="middle" x="1385.5" y="-123.9" font-family="Helvetica,sans-Serif" font-size="12.00" fill="#1a365d">Material Process</text>
</g>
<!-- https://w3id.org/sdata/core/MaterialProcess&#45;&gt;https://w3id.org/sdata/core/InformationProcess -->
<g id="edge10" class="edge">
<title>https://w3id.org/sdata/core/MaterialProcess&#45;&gt;https://w3id.org/sdata/core/InformationProcess</title>
<path fill="none" stroke="#6b7280" stroke-width="1.6" stroke-dasharray="5,2" d="M1326.35,-143.09C1231.49,-166.81 1039.49,-206.29 877,-186 815.22,-178.28 746.31,-159.46 699.66,-145.13"/>
<text text-anchor="middle" x="892.5" y="-184.8" font-family="Helvetica,sans-Serif" font-size="14.00" fill="#6b7280">dual</text>
</g>
<!-- https://w3id.org/sdata/core/MaterialSite -->
<g id="node15" class="node">
<title>https://w3id.org/sdata/core/MaterialSite</title>
<path fill="#e8f1ff" stroke="#2b6cb0" stroke-width="1.6" d="M1568.5,-145C1568.5,-145 1496.5,-145 1496.5,-145 1490.5,-145 1484.5,-139 1484.5,-133 1484.5,-133 1484.5,-121 1484.5,-121 1484.5,-115 1490.5,-109 1496.5,-109 1496.5,-109 1568.5,-109 1568.5,-109 1574.5,-109 1580.5,-115 1580.5,-121 1580.5,-121 1580.5,-133 1580.5,-133 1580.5,-139 1574.5,-145 1568.5,-145"/>
<text text-anchor="middle" x="1532.5" y="-123.9" font-family="Helvetica,sans-Serif" font-size="12.00" fill="#1a365d">Material Site</text>
</g>
<!-- https://w3id.org/sdata/core/MaterialSite&#45;&gt;https://w3id.org/sdata/core/InformationSite -->
<g id="edge11" class="edge">
<title>https://w3id.org/sdata/core/MaterialSite&#45;&gt;https://w3id.org/sdata/core/InformationSite</title>
<path fill="none" stroke="#6b7280" stroke-width="1.6" stroke-dasharray="5,2" d="M1484.46,-140.69C1392.24,-165.13 1184.11,-211.45 1010,-186 957.06,-178.26 898.6,-159.44 859.12,-145.12"/>
<text text-anchor="middle" x="1025.5" y="-184.8" font-family="Helvetica,sans-Serif" font-size="14.00" fill="#6b7280">dual</text>
</g>
<!-- https://w3id.org/sdata/core/Process -->
<g id="node16" class="node">
<title>https://w3id.org/sdata/core/Process</title>
<path fill="#e8f1ff" stroke="#2b6cb0" stroke-width="1.6" d="M1356.5,-268C1356.5,-268 1314.5,-268 1314.5,-268 1308.5,-268 1302.5,-262 1302.5,-256 1302.5,-256 1302.5,-244 1302.5,-244 1302.5,-238 1308.5,-232 1314.5,-232 1314.5,-232 1356.5,-232 1356.5,-232 1362.5,-232 1368.5,-238 1368.5,-244 1368.5,-244 1368.5,-256 1368.5,-256 1368.5,-262 1362.5,-268 1356.5,-268"/>
<text text-anchor="middle" x="1335.5" y="-246.9" font-family="Helvetica,sans-Serif" font-size="12.00" fill="#1a365d">Process</text>
</g>
<!-- https://w3id.org/sdata/core/Role -->
<g id="node17" class="node">
<title>https://w3id.org/sdata/core/Role</title>
<path fill="#e8f1ff" stroke="#2b6cb0" stroke-width="1.6" d="M1450.5,-268C1450.5,-268 1420.5,-268 1420.5,-268 1414.5,-268 1408.5,-262 1408.5,-256 1408.5,-256 1408.5,-244 1408.5,-244 1408.5,-238 1414.5,-232 1420.5,-232 1420.5,-232 1450.5,-232 1450.5,-232 1456.5,-232 1462.5,-238 1462.5,-244 1462.5,-244 1462.5,-256 1462.5,-256 1462.5,-262 1456.5,-268 1450.5,-268"/>
<text text-anchor="middle" x="1435.5" y="-246.9" font-family="Helvetica,sans-Serif" font-size="12.00" fill="#1a365d">Role</text>
</g>
<!-- https://w3id.org/sdata/core/Site -->
<g id="node18" class="node">
<title>https://w3id.org/sdata/core/Site</title>
<path fill="#e8f1ff" stroke="#2b6cb0" stroke-width="1.6" d="M1544.5,-268C1544.5,-268 1514.5,-268 1514.5,-268 1508.5,-268 1502.5,-262 1502.5,-256 1502.5,-256 1502.5,-244 1502.5,-244 1502.5,-238 1508.5,-232 1514.5,-232 1514.5,-232 1544.5,-232 1544.5,-232 1550.5,-232 1556.5,-238 1556.5,-244 1556.5,-244 1556.5,-256 1556.5,-256 1556.5,-262 1550.5,-268 1544.5,-268"/>
<text text-anchor="middle" x="1529.5" y="-246.9" font-family="Helvetica,sans-Serif" font-size="12.00" fill="#1a365d">Site</text>
</g>
<!-- https://w3id.org/sdata/core/Substance -->
<g id="node19" class="node">
<title>https://w3id.org/sdata/core/Substance</title>
<path fill="#e8f1ff" stroke="#2b6cb0" stroke-width="1.6" d="M1668,-268C1668,-268 1609,-268 1609,-268 1603,-268 1597,-262 1597,-256 1597,-256 1597,-244 1597,-244 1597,-238 1603,-232 1609,-232 1609,-232 1668,-232 1668,-232 1674,-232 1680,-238 1680,-244 1680,-244 1680,-256 1680,-256 1680,-262 1674,-268 1668,-268"/>
<text text-anchor="middle" x="1638.5" y="-246.9" font-family="Helvetica,sans-Serif" font-size="12.00" fill="#1a365d">Substance</text>
</g>
<!-- https://w3id.org/sdata/core/Tangible -->
<g id="node20" class="node">
<title>https://w3id.org/sdata/core/Tangible</title>
<path fill="#e8f1ff" stroke="#2b6cb0" stroke-width="1.6" d="M1250,-268C1250,-268 1205,-268 1205,-268 1199,-268 1193,-262 1193,-256 1193,-256 1193,-244 1193,-244 1193,-238 1199,-232 1205,-232 1205,-232 1250,-232 1250,-232 1256,-232 1262,-238 1262,-244 1262,-244 1262,-256 1262,-256 1262,-262 1256,-268 1250,-268"/>
<text text-anchor="middle" x="1227.5" y="-246.9" font-family="Helvetica,sans-Serif" font-size="12.00" fill="#1a365d">Tangible</text>
</g>
<!-- https://w3id.org/sdata/core/Tangible&#45;&gt;https://w3id.org/sdata/core/Material -->
<g id="edge12" class="edge">
<title>https://w3id.org/sdata/core/Tangible&#45;&gt;https://w3id.org/sdata/core/Material</title>
<path fill="none" stroke="#4a5568" stroke-width="1.6" d="M1192.73,-247.93C1145.53,-245.01 1060.12,-234.34 999.5,-196 982.58,-185.29 968.67,-167.39 959.22,-152.64"/>
<polygon fill="#4a5568" stroke="#4a5568" stroke-width="1.6" points="961.67,-150.95 954.68,-145.27 956.6,-154.07 961.67,-150.95"/>
</g>
<!-- https://w3id.org/sdata/core/Tangible&#45;&gt;https://w3id.org/sdata/core/MaterialAgent -->
<g id="edge13" class="edge">
<title>https://w3id.org/sdata/core/Tangible&#45;&gt;https://w3id.org/sdata/core/MaterialAgent</title>
<path fill="none" stroke="#4a5568" stroke-width="1.6" d="M1205.9,-231.92C1179.06,-210.69 1133.16,-174.39 1103.33,-150.8"/>
<polygon fill="#4a5568" stroke="#4a5568" stroke-width="1.6" points="1104.99,-148.32 1096.48,-145.38 1101.3,-152.99 1104.99,-148.32"/>
</g>
<!-- https://w3id.org/sdata/core/Tangible&#45;&gt;https://w3id.org/sdata/core/MaterialArtifact -->
<g id="edge14" class="edge">
<title>https://w3id.org/sdata/core/Tangible&#45;&gt;https://w3id.org/sdata/core/MaterialArtifact</title>
<path fill="none" stroke="#4a5568" stroke-width="1.6" d="M1227.5,-231.92C1227.5,-211.68 1227.5,-177.73 1227.5,-154.16"/>
<polygon fill="#4a5568" stroke="#4a5568" stroke-width="1.6" points="1230.48,-153.88 1227.5,-145.38 1224.53,-153.88 1230.48,-153.88"/>
</g>
<!-- https://w3id.org/sdata/core/Tangible&#45;&gt;https://w3id.org/sdata/core/MaterialProcess -->
<g id="edge15" class="edge">
<title>https://w3id.org/sdata/core/Tangible&#45;&gt;https://w3id.org/sdata/core/MaterialProcess</title>
<path fill="none" stroke="#4a5568" stroke-width="1.6" d="M1249.8,-231.92C1277.6,-210.63 1325.2,-174.18 1355.99,-150.6"/>
<polygon fill="#4a5568" stroke="#4a5568" stroke-width="1.6" points="1358.12,-152.72 1363.06,-145.19 1354.5,-147.99 1358.12,-152.72"/>
</g>
<!-- https://w3id.org/sdata/core/Tangible&#45;&gt;https://w3id.org/sdata/core/MaterialSite -->
<g id="edge16" class="edge">
<title>https://w3id.org/sdata/core/Tangible&#45;&gt;https://w3id.org/sdata/core/MaterialSite</title>
<path fill="none" stroke="#4a5568" stroke-width="1.6" d="M1262.19,-235.24C1315.83,-213.96 1419.2,-172.95 1481.41,-148.27"/>
<polygon fill="#4a5568" stroke="#4a5568" stroke-width="1.6" points="1482.72,-150.95 1489.53,-145.05 1480.53,-145.42 1482.72,-150.95"/>
</g>
<!-- https://w3id.org/sdata/core/Destruction -->
<g id="node21" class="node">
<title>https://w3id.org/sdata/core/Destruction</title>
<path fill="#eef8e7" stroke="#4f8a10" stroke-width="1.6" d="M1798.5,-268C1798.5,-268 1732.5,-268 1732.5,-268 1726.5,-268 1720.5,-262 1720.5,-256 1720.5,-256 1720.5,-244 1720.5,-244 1720.5,-238 1726.5,-232 1732.5,-232 1732.5,-232 1798.5,-232 1798.5,-232 1804.5,-232 1810.5,-238 1810.5,-244 1810.5,-244 1810.5,-256 1810.5,-256 1810.5,-262 1804.5,-268 1798.5,-268"/>
<text text-anchor="middle" x="1765.5" y="-246.9" font-family="Helvetica,sans-Serif" font-size="12.00" fill="#2f5d08">Destruction</text>
</g>
<!-- https://w3id.org/sdata/core/Observation -->
<g id="node22" class="node">
<title>https://w3id.org/sdata/core/Observation</title>
<path fill="#eef8e7" stroke="#4f8a10" stroke-width="1.6" d="M1932,-268C1932,-268 1863,-268 1863,-268 1857,-268 1851,-262 1851,-256 1851,-256 1851,-244 1851,-244 1851,-238 1857,-232 1863,-232 1863,-232 1932,-232 1932,-232 1938,-232 1944,-238 1944,-244 1944,-244 1944,-256 1944,-256 1944,-262 1938,-268 1932,-268"/>
<text text-anchor="middle" x="1897.5" y="-246.9" font-family="Helvetica,sans-Serif" font-size="12.00" fill="#2f5d08">Observation</text>
</g>
<!-- https://w3id.org/sdata/core/Preservation -->
<g id="node23" class="node">
<title>https://w3id.org/sdata/core/Preservation</title>
<path fill="#eef8e7" stroke="#4f8a10" stroke-width="1.6" d="M2067,-268C2067,-268 1996,-268 1996,-268 1990,-268 1984,-262 1984,-256 1984,-256 1984,-244 1984,-244 1984,-238 1990,-232 1996,-232 1996,-232 2067,-232 2067,-232 2073,-232 2079,-238 2079,-244 2079,-244 2079,-256 2079,-256 2079,-262 2073,-268 2067,-268"/>
<text text-anchor="middle" x="2031.5" y="-246.9" font-family="Helvetica,sans-Serif" font-size="12.00" fill="#2f5d08">Preservation</text>
</g>
<!-- https://w3id.org/sdata/core/Recovery -->
<g id="node24" class="node">
<title>https://w3id.org/sdata/core/Recovery</title>
<path fill="#eef8e7" stroke="#4f8a10" stroke-width="1.6" d="M2183.5,-268C2183.5,-268 2131.5,-268 2131.5,-268 2125.5,-268 2119.5,-262 2119.5,-256 2119.5,-256 2119.5,-244 2119.5,-244 2119.5,-238 2125.5,-232 2131.5,-232 2131.5,-232 2183.5,-232 2183.5,-232 2189.5,-232 2195.5,-238 2195.5,-244 2195.5,-244 2195.5,-256 2195.5,-256 2195.5,-262 2189.5,-268 2183.5,-268"/>
<text text-anchor="middle" x="2157.5" y="-246.9" font-family="Helvetica,sans-Serif" font-size="12.00" fill="#2f5d08">Recovery</text>
</g>
<!-- https://w3id.org/sdata/core/Transfer -->
<g id="node25" class="node">
<title>https://w3id.org/sdata/core/Transfer</title>
<path fill="#eef8e7" stroke="#4f8a10" stroke-width="1.6" d="M2293,-268C2293,-268 2248,-268 2248,-268 2242,-268 2236,-262 2236,-256 2236,-256 2236,-244 2236,-244 2236,-238 2242,-232 2248,-232 2248,-232 2293,-232 2293,-232 2299,-232 2305,-238 2305,-244 2305,-244 2305,-256 2305,-256 2305,-262 2299,-268 2293,-268"/>
<text text-anchor="middle" x="2270.5" y="-246.9" font-family="Helvetica,sans-Serif" font-size="12.00" fill="#2f5d08">Transfer</text>
</g>
<!-- https://w3id.org/sdata/core/Transformation -->
<g id="node26" class="node">
<title>https://w3id.org/sdata/core/Transformation</title>
<path fill="#eef8e7" stroke="#4f8a10" stroke-width="1.6" d="M2444,-268C2444,-268 2357,-268 2357,-268 2351,-268 2345,-262 2345,-256 2345,-256 2345,-244 2345,-244 2345,-238 2351,-232 2357,-232 2357,-232 2444,-232 2444,-232 2450,-232 2456,-238 2456,-244 2456,-244 2456,-256 2456,-256 2456,-262 2450,-268 2444,-268"/>
<text text-anchor="middle" x="2400.5" y="-246.9" font-family="Helvetica,sans-Serif" font-size="12.00" fill="#2f5d08">Transformation</text>
</g>
</g>
</svg>
