<?xml version="1.0" encoding="UTF-8" standalone="no"?>
<!DOCTYPE svg PUBLIC "-//W3C//DTD SVG 1.1//EN"
 "http://www.w3.org/Graphics/SVG/1.1/DTD/svg11.dtd">
<!-- Generated by graphviz version 2.43.0 (0)
 -->
<!-- Pages: 1 -->
<svg width="2026pt" height="803pt"
 viewBox="0.00 0.00 2026.40 803.40" xmlns="http://www.w3.org/2000/svg" xmlns:xlink="http://www.w3.org/1999/xlink">
<g id="graph0" class="graph" transform="scale(1 1) rotate(0) translate(25.2 778.2)">
<polygon fill="#fafbfc" stroke="transparent" points="-25.2,25.2 -25.2,-778.2 2001.2,-778.2 2001.2,25.2 -25.2,25.2"/>
<text text-anchor="middle" x="988" y="-733" font-family="Helvetica,sans-Serif" font-size="20.00">sdata Class Hierarchy (BFO/PROV base hierarchy &#45;&gt; sdata classes)</text>
<g id="clust1" class="cluster">
<title>cluster_legend</title>
<path fill="#fafbfc" stroke="#cbd5e0" d="M20,-510C20,-510 236,-510 236,-510 242,-510 248,-516 248,-522 248,-522 248,-703 248,-703 248,-709 242,-715 236,-715 236,-715 20,-715 20,-715 14,-715 8,-709 8,-703 8,-703 8,-522 8,-522 8,-516 14,-510 20,-510"/>
<text text-anchor="middle" x="128" y="-695" font-family="Helvetica,sans-Serif" font-size="20.00">Legend</text>
</g>
<g id="clust2" class="cluster">
<title>cluster_sdata</title>
<path fill="#fafbfc" stroke="#90b5e8" d="M66,-8C66,-8 1956,-8 1956,-8 1962,-8 1968,-14 1968,-20 1968,-20 1968,-124 1968,-124 1968,-130 1962,-136 1956,-136 1956,-136 66,-136 66,-136 60,-136 54,-130 54,-124 54,-124 54,-20 54,-20 54,-14 60,-8 66,-8"/>
<text text-anchor="middle" x="1011" y="-116" font-family="Helvetica,sans-Serif" font-size="20.00">sdata classes</text>
</g>
<g id="clust3" class="cluster">
<title>cluster_dual_rank_MaterialArtifact</title>
</g>
<g id="clust4" class="cluster">
<title>cluster_dual_rank_Material</title>
</g>
<g id="clust5" class="cluster">
<title>cluster_dual_rank_MaterialProcess</title>
</g>
<g id="clust6" class="cluster">
<title>cluster_dual_rank_MaterialSite</title>
</g>
<g id="clust7" class="cluster">
<title>cluster_dual_rank_MaterialAgent</title>
</g>
<g id="clust8" class="cluster">
<title>cluster_bfo_context</title>
<path fill="#fafbfc" stroke="#f3c887" d="M268,-173C268,-173 1054,-173 1054,-173 1060,-173 1066,-179 1066,-185 1066,-185 1066,-703 1066,-703 1066,-709 1060,-715 1054,-715 1054,-715 268,-715 268,-715 262,-715 256,-709 256,-703 256,-703 256,-185 256,-185 256,-179 262,-173 268,-173"/>
<text text-anchor="middle" x="661" y="-695" font-family="Helvetica,sans-Serif" font-size="20.00">BFO hierarchy</text>
</g>
<g id="clust9" class="cluster">
<title>cluster_prov_context</title>
<path fill="#fafbfc" stroke="#9ad9bf" d="M1804,-173C1804,-173 1952,-173 1952,-173 1958,-173 1964,-179 1964,-185 1964,-185 1964,-243 1964,-243 1964,-249 1958,-255 1952,-255 1952,-255 1804,-255 1804,-255 1798,-255 1792,-249 1792,-243 1792,-243 1792,-185 1792,-185 1792,-179 1798,-173 1804,-173"/>
<text text-anchor="middle" x="1878" y="-235" font-family="Helvetica,sans-Serif" font-size="20.00">PROV hierarchy</text>
</g>
<!-- legend_sdata -->
<g id="node1" class="node">
<title>legend_sdata</title>
<path fill="#e8f1ff" stroke="#2b6cb0" stroke-width="1.6" d="M103.5,-554C103.5,-554 40.5,-554 40.5,-554 34.5,-554 28.5,-548 28.5,-542 28.5,-542 28.5,-530 28.5,-530 28.5,-524 34.5,-518 40.5,-518 40.5,-518 103.5,-518 103.5,-518 109.5,-518 115.5,-524 115.5,-530 115.5,-530 115.5,-542 115.5,-542 115.5,-548 109.5,-554 103.5,-554"/>
<text text-anchor="middle" x="72" y="-532.9" font-family="Helvetica,sans-Serif" font-size="12.00" fill="#1a365d">sdata class</text>
</g>
<!-- legend_bfo -->
<g id="node2" class="node">
<title>legend_bfo</title>
<path fill="#fff4e5" stroke="#b7791f" stroke-width="1.6" d="M228,-677C228,-677 164,-677 164,-677 158,-677 152,-671 152,-665 152,-665 152,-653 152,-653 152,-647 158,-641 164,-641 164,-641 228,-641 228,-641 234,-641 240,-647 240,-653 240,-653 240,-665 240,-665 240,-671 234,-677 228,-677"/>
<text text-anchor="middle" x="196" y="-655.9" font-family="Helvetica,sans-Serif" font-size="12.00" fill="#7b341e">BFO parent</text>
</g>
<!-- legend_bfo&#45;&gt;legend_sdata -->
<g id="edge1" class="edge">
<title>legend_bfo&#45;&gt;legend_sdata</title>
<path fill="none" stroke="#4a5568" stroke-width="1.6" d="M151.76,-645.05C130.6,-636.76 106.56,-623.93 91,-605 81.23,-593.11 76.48,-576.54 74.16,-562.73"/>
<polygon fill="#4a5568" stroke="#4a5568" stroke-width="1.6" points="77.09,-562.14 72.97,-554.13 71.19,-562.96 77.09,-562.14"/>
<text text-anchor="middle" x="168.5" y="-593.8" font-family="Helvetica,sans-Serif" font-size="14.00">superclass → subclass</text>
</g>
<!-- legend_prov -->
<g id="node3" class="node">
<title>legend_prov</title>
<path fill="#e7fff6" stroke="#2f855a" stroke-width="1.6" d="M100,-677C100,-677 28,-677 28,-677 22,-677 16,-671 16,-665 16,-665 16,-653 16,-653 16,-647 22,-641 28,-641 28,-641 100,-641 100,-641 106,-641 112,-647 112,-653 112,-653 112,-665 112,-665 112,-671 106,-677 100,-677"/>
<text text-anchor="middle" x="64" y="-655.9" font-family="Helvetica,sans-Serif" font-size="12.00" fill="#1c4532">PROV parent</text>
</g>
<!-- legend_prov&#45;&gt;legend_sdata -->
<g id="edge2" class="edge">
<title>legend_prov&#45;&gt;legend_sdata</title>
<path fill="none" stroke="#4a5568" stroke-width="1.6" d="M53.7,-640.78C46.79,-627.1 39.68,-607.44 44,-590 46.42,-580.26 50.99,-570.33 55.75,-561.74"/>
<polygon fill="#4a5568" stroke="#4a5568" stroke-width="1.6" points="58.39,-563.11 60.11,-554.28 53.25,-560.11 58.39,-563.11"/>
</g>
<!-- https://w3id.org/sdata/core/InformationArtifact -->
<g id="node4" class="node">
<title>https://w3id.org/sdata/core/InformationArtifact</title>
<path fill="#e8f1ff" stroke="#2b6cb0" stroke-width="1.6" d="M479,-60C479,-60 365,-60 365,-60 359,-60 353,-54 353,-48 353,-48 353,-36 353,-36 353,-30 359,-24 365,-24 365,-24 479,-24 479,-24 485,-24 491,-30 491,-36 491,-36 491,-48 491,-48 491,-54 485,-60 479,-60"/>
<text text-anchor="middle" x="422" y="-38.9" font-family="Helvetica,sans-Serif" font-size="12.00" fill="#1a365d">Information Artifact</text>
</g>
<!-- https://w3id.org/sdata/core/MaterialArtifact -->
<g id="node5" class="node">
<title>https://w3id.org/sdata/core/MaterialArtifact</title>
<path fill="#e8f1ff" stroke="#2b6cb0" stroke-width="1.6" d="M261.5,-60C261.5,-60 168.5,-60 168.5,-60 162.5,-60 156.5,-54 156.5,-48 156.5,-48 156.5,-36 156.5,-36 156.5,-30 162.5,-24 168.5,-24 168.5,-24 261.5,-24 261.5,-24 267.5,-24 273.5,-30 273.5,-36 273.5,-36 273.5,-48 273.5,-48 273.5,-54 267.5,-60 261.5,-60"/>
<text text-anchor="middle" x="215" y="-38.9" font-family="Helvetica,sans-Serif" font-size="12.00" fill="#1a365d">Material Artifact</text>
</g>
<!-- https://w3id.org/sdata/core/MaterialArtifact&#45;&gt;https://w3id.org/sdata/core/InformationArtifact -->
<g id="edge5" class="edge">
<title>https://w3id.org/sdata/core/MaterialArtifact&#45;&gt;https://w3id.org/sdata/core/InformationArtifact</title>
<path fill="none" stroke="#6b7280" stroke-width="1.6" stroke-dasharray="5,2" d="M273.76,-42C298.39,-42 327.19,-42 352.83,-42"/>
<text text-anchor="middle" x="313.25" y="-48.8" font-family="Helvetica,sans-Serif" font-size="14.00" fill="#6b7280">dual</text>
</g>
<!-- https://w3id.org/sdata/core/Information -->
<g id="node6" class="node">
<title>https://w3id.org/sdata/core/Information</title>
<path fill="#e8f1ff" stroke="#2b6cb0" stroke-width="1.6" d="M1090,-60C1090,-60 1024,-60 1024,-60 1018,-60 1012,-54 1012,-48 1012,-48 1012,-36 1012,-36 1012,-30 1018,-24 1024,-24 1024,-24 1090,-24 1090,-24 1096,-24 1102,-30 1102,-36 1102,-36 1102,-48 1102,-48 1102,-54 1096,-60 1090,-60"/>
<text text-anchor="middle" x="1057" y="-38.9" font-family="Helvetica,sans-Serif" font-size="12.00" fill="#1a365d">Information</text>
</g>
<!-- https://w3id.org/sdata/core/Material -->
<g id="node7" class="node">
<title>https://w3id.org/sdata/core/Material</title>
<path fill="#e8f1ff" stroke="#2b6cb0" stroke-width="1.6" d="M920.5,-60C920.5,-60 875.5,-60 875.5,-60 869.5,-60 863.5,-54 863.5,-48 863.5,-48 863.5,-36 863.5,-36 863.5,-30 869.5,-24 875.5,-24 875.5,-24 920.5,-24 920.5,-24 926.5,-24 932.5,-30 932.5,-36 932.5,-36 932.5,-48 932.5,-48 932.5,-54 926.5,-60 920.5,-60"/>
<text text-anchor="middle" x="898" y="-38.9" font-family="Helvetica,sans-Serif" font-size="12.00" fill="#1a365d">Material</text>
</g>
<!-- https://w3id.org/sdata/core/Material&#45;&gt;https://w3id.org/sdata/core/Information -->
<g id="edge3" class="edge">
<title>https://w3id.org/sdata/core/Material&#45;&gt;https://w3id.org/sdata/core/Information</title>
<path fill="none" stroke="#6b7280" stroke-width="1.6" stroke-dasharray="5,2" d="M932.5,-42C955.79,-42 986.76,-42 1011.99,-42"/>
<text text-anchor="middle" x="972.25" y="-48.8" font-family="Helvetica,sans-Serif" font-size="14.00" fill="#6b7280">dual</text>
</g>
<!-- https://w3id.org/sdata/core/InformationProcess -->
<g id="node8" class="node">
<title>https://w3id.org/sdata/core/InformationProcess</title>
<path fill="#e8f1ff" stroke="#2b6cb0" stroke-width="1.6" d="M1269.5,-60C1269.5,-60 1154.5,-60 1154.5,-60 1148.5,-60 1142.5,-54 1142.5,-48 1142.5,-48 1142.5,-36 1142.5,-36 1142.5,-30 1148.5,-24 1154.5,-24 1154.5,-24 1269.5,-24 1269.5,-24 1275.5,-24 1281.5,-30 1281.5,-36 1281.5,-36 1281.5,-48 1281.5,-48 1281.5,-54 1275.5,-60 1269.5,-60"/>
<text text-anchor="middle" x="1212" y="-38.9" font-family="Helvetica,sans-Serif" font-size="12.00" fill="#1a365d">Information Process</text>
</g>
<!-- https://w3id.org/sdata/core/MaterialProcess -->
<g id="node9" class="node">
<title>https://w3id.org/sdata/core/MaterialProcess</title>
<path fill="#e8f1ff" stroke="#2b6cb0" stroke-width="1.6" d="M1467,-60C1467,-60 1373,-60 1373,-60 1367,-60 1361,-54 1361,-48 1361,-48 1361,-36 1361,-36 1361,-30 1367,-24 1373,-24 1373,-24 1467,-24 1467,-24 1473,-24 1479,-30 1479,-36 1479,-36 1479,-48 1479,-48 1479,-54 1473,-60 1467,-60"/>
<text text-anchor="middle" x="1420" y="-38.9" font-family="Helvetica,sans-Serif" font-size="12.00" fill="#1a365d">Material Process</text>
</g>
<!-- https://w3id.org/sdata/core/MaterialProcess&#45;&gt;https://w3id.org/sdata/core/InformationProcess -->
<g id="edge6" class="edge">
<title>https://w3id.org/sdata/core/MaterialProcess&#45;&gt;https://w3id.org/sdata/core/InformationProcess</title>
<path fill="none" stroke="#6b7280" stroke-width="1.6" stroke-dasharray="5,2" d="M1360.94,-42C1336.22,-42 1307.3,-42 1281.55,-42"/>
<text text-anchor="middle" x="1321.25" y="-48.8" font-family="Helvetica,sans-Serif" font-size="14.00" fill="#6b7280">dual</text>
</g>
<!-- https://w3id.org/sdata/core/InformationSite -->
<g id="node10" class="node">
<title>https://w3id.org/sdata/core/InformationSite</title>
<path fill="#e8f1ff" stroke="#2b6cb0" stroke-width="1.6" d="M811.5,-60C811.5,-60 718.5,-60 718.5,-60 712.5,-60 706.5,-54 706.5,-48 706.5,-48 706.5,-36 706.5,-36 706.5,-30 712.5,-24 718.5,-24 718.5,-24 811.5,-24 811.5,-24 817.5,-24 823.5,-30 823.5,-36 823.5,-36 823.5,-48 823.5,-48 823.5,-54 817.5,-60 811.5,-60"/>
<text text-anchor="middle" x="765" y="-38.9" font-family="Helvetica,sans-Serif" font-size="12.00" fill="#1a365d">Information Site</text>
</g>
<!-- https://w3id.org/sdata/core/MaterialSite -->
<g id="node11" class="node">
<title>https://w3id.org/sdata/core/MaterialSite</title>
<path fill="#e8f1ff" stroke="#2b6cb0" stroke-width="1.6" d="M615,-60C615,-60 543,-60 543,-60 537,-60 531,-54 531,-48 531,-48 531,-36 531,-36 531,-30 537,-24 543,-24 543,-24 615,-24 615,-24 621,-24 627,-30 627,-36 627,-36 627,-48 627,-48 627,-54 621,-60 615,-60"/>
<text text-anchor="middle" x="579" y="-38.9" font-family="Helvetica,sans-Serif" font-size="12.00" fill="#1a365d">Material Site</text>
</g>
<!-- https://w3id.org/sdata/core/MaterialSite&#45;&gt;https://w3id.org/sdata/core/InformationSite -->
<g id="edge7" class="edge">
<title>https://w3id.org/sdata/core/MaterialSite&#45;&gt;https://w3id.org/sdata/core/InformationSite</title>
<path fill="none" stroke="#6b7280" stroke-width="1.6" stroke-dasharray="5,2" d="M627.38,-42C651.49,-42 680.85,-42 706.24,-42"/>
<text text-anchor="middle" x="666.75" y="-48.8" font-family="Helvetica,sans-Serif" font-size="14.00" fill="#6b7280">dual</text>
</g>
<!-- https://w3id.org/sdata/core/InformationAgent -->
<g id="node12" class="node">
<title>https://w3id.org/sdata/core/InformationAgent</title>
<path fill="#e8f1ff" stroke="#2b6cb0" stroke-width="1.6" d="M1939.5,-60C1939.5,-60 1834.5,-60 1834.5,-60 1828.5,-60 1822.5,-54 1822.5,-48 1822.5,-48 1822.5,-36 1822.5,-36 1822.5,-30 1828.5,-24 1834.5,-24 1834.5,-24 1939.5,-24 1939.5,-24 1945.5,-24 1951.5,-30 1951.5,-36 1951.5,-36 1951.5,-48 1951.5,-48 1951.5,-54 1945.5,-60 1939.5,-60"/>
<text text-anchor="middle" x="1887" y="-38.9" font-family="Helvetica,sans-Serif" font-size="12.00" fill="#1a365d">Information Agent</text>
</g>
<!-- https://w3id.org/sdata/core/MaterialAgent -->
<g id="node13" class="node">
<title>https://w3id.org/sdata/core/MaterialAgent</title>
<path fill="#e8f1ff" stroke="#2b6cb0" stroke-width="1.6" d="M1731,-60C1731,-60 1647,-60 1647,-60 1641,-60 1635,-54 1635,-48 1635,-48 1635,-36 1635,-36 1635,-30 1641,-24 1647,-24 1647,-24 1731,-24 1731,-24 1737,-24 1743,-30 1743,-36 1743,-36 1743,-48 1743,-48 1743,-54 1737,-60 1731,-60"/>
<text text-anchor="middle" x="1689" y="-38.9" font-family="Helvetica,sans-Serif" font-size="12.00" fill="#1a365d">Material Agent</text>
</g>
<!-- https://w3id.org/sdata/core/MaterialAgent&#45;&gt;https://w3id.org/sdata/core/InformationAgent -->
<g id="edge4" class="edge">
<title>https://w3id.org/sdata/core/MaterialAgent&#45;&gt;https://w3id.org/sdata/core/InformationAgent</title>
<path fill="none" stroke="#6b7280" stroke-width="1.6" stroke-dasharray="5,2" d="M1743.1,-42C1767.61,-42 1796.77,-42 1822.41,-42"/>
<text text-anchor="middle" x="1782.75" y="-48.8" font-family="Helvetica,sans-Serif" font-size="14.00" fill="#6b7280">dual</text>
</g>
<!-- https://w3id.org/sdata/core/Identifier -->
<g id="node14" class="node">
<title>https://w3id.org/sdata/core/Identifier</title>
<path fill="#e8f1ff" stroke="#2b6cb0" stroke-width="1.6" d="M1582.5,-60C1582.5,-60 1531.5,-60 1531.5,-60 1525.5,-60 1519.5,-54 1519.5,-48 1519.5,-48 1519.5,-36 1519.5,-36 1519.5,-30 1525.5,-24 1531.5,-24 1531.5,-24 1582.5,-24 1582.5,-24 1588.5,-24 1594.5,-30 1594.5,-36 1594.5,-36 1594.5,-48 1594.5,-48 1594.5,-54 1588.5,-60 1582.5,-60"/>
<text text-anchor="middle" x="1557" y="-38.9" font-family="Helvetica,sans-Serif" font-size="12.00" fill="#1a365d">Identifier</text>
</g>
<!-- https://w3id.org/sdata/core/Role -->
<g id="node15" class="node">
<title>https://w3id.org/sdata/core/Role</title>
<path fill="#e8f1ff" stroke="#2b6cb0" stroke-width="1.6" d="M104,-60C104,-60 74,-60 74,-60 68,-60 62,-54 62,-48 62,-48 62,-36 62,-36 62,-30 68,-24 74,-24 74,-24 104,-24 104,-24 110,-24 116,-30 116,-36 116,-36 116,-48 116,-48 116,-54 110,-60 104,-60"/>
<text text-anchor="middle" x="89" y="-38.9" font-family="Helvetica,sans-Serif" font-size="12.00" fill="#1a365d">Role</text>
</g>
<!-- http://purl.obolibrary.org/obo/BFO_0000001 -->
<g id="node16" class="node">
<title>http://purl.obolibrary.org/obo/BFO_0000001</title>
<path fill="#fff4e5" stroke="#b7791f" stroke-width="1.6" d="M802,-677C802,-677 772,-677 772,-677 766,-677 760,-671 760,-665 760,-665 760,-653 760,-653 760,-647 766,-641 772,-641 772,-641 802,-641 802,-641 808,-641 814,-647 814,-653 814,-653 814,-665 814,-665 814,-671 808,-677 802,-677"/>
<text text-anchor="middle" x="787" y="-655.9" font-family="Helvetica,sans-Serif" font-size="12.00" fill="#7b341e">entity</text>
</g>
<!-- http://purl.obolibrary.org/obo/BFO_0000002 -->
<g id="node17" class="node">
<title>http://purl.obolibrary.org/obo/BFO_0000002</title>
<path fill="#fff4e5" stroke="#b7791f" stroke-width="1.6" d="M727,-554C727,-554 667,-554 667,-554 661,-554 655,-548 655,-542 655,-542 655,-530 655,-530 655,-524 661,-518 667,-518 667,-518 727,-518 727,-518 733,-518 739,-524 739,-530 739,-530 739,-542 739,-542 739,-548 733,-554 727,-554"/>
<text text-anchor="middle" x="697" y="-532.9" font-family="Helvetica,sans-Serif" font-size="12.00" fill="#7b341e">continuant</text>
</g>
<!-- http://purl.obolibrary.org/obo/BFO_0000001&#45;&gt;http://purl.obolibrary.org/obo/BFO_0000002 -->
<g id="edge8" class="edge">
<title>http://purl.obolibrary.org/obo/BFO_0000001&#45;&gt;http://purl.obolibrary.org/obo/BFO_0000002</title>
<path fill="none" stroke="#4a5568" stroke-width="1.6" d="M774.3,-640.92C758.84,-620.14 732.64,-584.91 715.08,-561.31"/>
<polygon fill="#4a5568" stroke="#4a5568" stroke-width="1.6" points="717.39,-559.43 709.93,-554.38 712.62,-562.98 717.39,-559.43"/>
</g>
<!-- http://purl.obolibrary.org/obo/BFO_0000003 -->
<g id="node18" class="node">
<title>http://purl.obolibrary.org/obo/BFO_0000003</title>
<path fill="#fff4e5" stroke="#b7791f" stroke-width="1.6" d="M904,-554C904,-554 850,-554 850,-554 844,-554 838,-548 838,-542 838,-542 838,-530 838,-530 838,-524 844,-518 850,-518 850,-518 904,-518 904,-518 910,-518 916,-524 916,-530 916,-530 916,-542 916,-542 916,-548 910,-554 904,-554"/>
<text text-anchor="middle" x="877" y="-532.9" font-family="Helvetica,sans-Serif" font-size="12.00" fill="#7b341e">occurrent</text>
</g>
<!-- http://purl.obolibrary.org/obo/BFO_0000001&#45;&gt;http://purl.obolibrary.org/obo/BFO_0000003 -->
<g id="edge9" class="edge">
<title>http://purl.obolibrary.org/obo/BFO_0000001&#45;&gt;http://purl.obolibrary.org/obo/BFO_0000003</title>
<path fill="none" stroke="#4a5568" stroke-width="1.6" d="M799.7,-640.92C815.16,-620.14 841.36,-584.91 858.92,-561.31"/>
<polygon fill="#4a5568" stroke="#4a5568" stroke-width="1.6" points="861.38,-562.98 864.07,-554.38 856.61,-559.43 861.38,-562.98"/>
</g>
<!-- http://purl.obolibrary.org/obo/BFO_0000004 -->
<g id="node19" class="node">
<title>http://purl.obolibrary.org/obo/BFO_0000004</title>
<path fill="#fff4e5" stroke="#b7791f" stroke-width="1.6" d="M677.5,-445C677.5,-445 538.5,-445 538.5,-445 532.5,-445 526.5,-439 526.5,-433 526.5,-433 526.5,-421 526.5,-421 526.5,-415 532.5,-409 538.5,-409 538.5,-409 677.5,-409 677.5,-409 683.5,-409 689.5,-415 689.5,-421 689.5,-421 689.5,-433 689.5,-433 689.5,-439 683.5,-445 677.5,-445"/>
<text text-anchor="middle" x="608" y="-423.9" font-family="Helvetica,sans-Serif" font-size="12.00" fill="#7b341e">independent continuant</text>
</g>
<!-- http://purl.obolibrary.org/obo/BFO_0000002&#45;&gt;http://purl.obolibrary.org/obo/BFO_0000004 -->
<g id="edge10" class="edge">
<title>http://purl.obolibrary.org/obo/BFO_0000002&#45;&gt;http://purl.obolibrary.org/obo/BFO_0000004</title>
<path fill="none" stroke="#4a5568" stroke-width="1.6" d="M682.7,-517.81C667.84,-499.95 644.48,-471.86 627.84,-451.86"/>
<polygon fill="#4a5568" stroke="#4a5568" stroke-width="1.6" points="629.99,-449.78 622.26,-445.15 625.41,-453.59 629.99,-449.78"/>
</g>
<!-- http://purl.obolibrary.org/obo/BFO_0000020 -->
<g id="node22" class="node">
<title>http://purl.obolibrary.org/obo/BFO_0000020</title>
<path fill="#fff4e5" stroke="#b7791f" stroke-width="1.6" d="M474,-445C474,-445 276,-445 276,-445 270,-445 264,-439 264,-433 264,-433 264,-421 264,-421 264,-415 270,-409 276,-409 276,-409 474,-409 474,-409 480,-409 486,-415 486,-421 486,-421 486,-433 486,-433 486,-439 480,-445 474,-445"/>
<text text-anchor="middle" x="375" y="-423.9" font-family="Helvetica,sans-Serif" font-size="12.00" fill="#7b341e">specifically dependent continuant</text>
</g>
<!-- http://purl.obolibrary.org/obo/BFO_0000002&#45;&gt;http://purl.obolibrary.org/obo/BFO_0000020 -->
<g id="edge11" class="edge">
<title>http://purl.obolibrary.org/obo/BFO_0000002&#45;&gt;http://purl.obolibrary.org/obo/BFO_0000020</title>
<path fill="none" stroke="#4a5568" stroke-width="1.6" d="M654.9,-521.01C598.7,-502.34 498.82,-469.14 434.81,-447.88"/>
<polygon fill="#4a5568" stroke="#4a5568" stroke-width="1.6" points="435.42,-444.94 426.41,-445.08 433.54,-450.59 435.42,-444.94"/>
</g>
<!-- http://purl.obolibrary.org/obo/BFO_0000031 -->
<g id="node25" class="node">
<title>http://purl.obolibrary.org/obo/BFO_0000031</title>
<path fill="#fff4e5" stroke="#b7791f" stroke-width="1.6" d="M940,-445C940,-445 742,-445 742,-445 736,-445 730,-439 730,-433 730,-433 730,-421 730,-421 730,-415 736,-409 742,-409 742,-409 940,-409 940,-409 946,-409 952,-415 952,-421 952,-421 952,-433 952,-433 952,-439 946,-445 940,-445"/>
<text text-anchor="middle" x="841" y="-423.9" font-family="Helvetica,sans-Serif" font-size="12.00" fill="#7b341e">generically dependent continuant</text>
</g>
<!-- http://purl.obolibrary.org/obo/BFO_0000002&#45;&gt;http://purl.obolibrary.org/obo/BFO_0000031 -->
<g id="edge12" class="edge">
<title>http://purl.obolibrary.org/obo/BFO_0000002&#45;&gt;http://purl.obolibrary.org/obo/BFO_0000031</title>
<path fill="none" stroke="#4a5568" stroke-width="1.6" d="M720.14,-517.81C744.8,-499.48 783.96,-470.38 810.99,-450.3"/>
<polygon fill="#4a5568" stroke="#4a5568" stroke-width="1.6" points="812.87,-452.61 817.92,-445.15 809.32,-447.83 812.87,-452.61"/>
</g>
<!-- http://purl.obolibrary.org/obo/BFO_0000015 -->
<g id="node20" class="node">
<title>http://purl.obolibrary.org/obo/BFO_0000015</title>
<path fill="#fff4e5" stroke="#b7791f" stroke-width="1.6" d="M1046,-445C1046,-445 1004,-445 1004,-445 998,-445 992,-439 992,-433 992,-433 992,-421 992,-421 992,-415 998,-409 1004,-409 1004,-409 1046,-409 1046,-409 1052,-409 1058,-415 1058,-421 1058,-421 1058,-433 1058,-433 1058,-439 1052,-445 1046,-445"/>
<text text-anchor="middle" x="1025" y="-423.9" font-family="Helvetica,sans-Serif" font-size="12.00" fill="#7b341e">process</text>
</g>
<!-- http://purl.obolibrary.org/obo/BFO_0000003&#45;&gt;http://purl.obolibrary.org/obo/BFO_0000015 -->
<g id="edge13" class="edge">
<title>http://purl.obolibrary.org/obo/BFO_0000003&#45;&gt;http://purl.obolibrary.org/obo/BFO_0000015</title>
<path fill="none" stroke="#4a5568" stroke-width="1.6" d="M900.78,-517.81C926.13,-499.48 966.38,-470.38 994.15,-450.3"/>
<polygon fill="#4a5568" stroke="#4a5568" stroke-width="1.6" points="996.13,-452.54 1001.28,-445.15 992.65,-447.72 996.13,-452.54"/>
</g>
<!-- http://purl.obolibrary.org/obo/BFO_0000040 -->
<g id="node26" class="node">
<title>http://purl.obolibrary.org/obo/BFO_0000040</title>
<path fill="#fff4e5" stroke="#b7791f" stroke-width="1.6" d="M679,-336C679,-336 595,-336 595,-336 589,-336 583,-330 583,-324 583,-324 583,-312 583,-312 583,-306 589,-300 595,-300 595,-300 679,-300 679,-300 685,-300 691,-306 691,-312 691,-312 691,-324 691,-324 691,-330 685,-336 679,-336"/>
<text text-anchor="middle" x="637" y="-314.9" font-family="Helvetica,sans-Serif" font-size="12.00" fill="#7b341e">material entity</text>
</g>
<!-- http://purl.obolibrary.org/obo/BFO_0000004&#45;&gt;http://purl.obolibrary.org/obo/BFO_0000040 -->
<g id="edge14" class="edge">
<title>http://purl.obolibrary.org/obo/BFO_0000004&#45;&gt;http://purl.obolibrary.org/obo/BFO_0000040</title>
<path fill="none" stroke="#4a5568" stroke-width="1.6" d="M612.66,-408.81C617.37,-391.42 624.72,-364.33 630.1,-344.45"/>
<polygon fill="#4a5568" stroke="#4a5568" stroke-width="1.6" points="633,-345.13 632.35,-336.15 627.26,-343.57 633,-345.13"/>
</g>
<!-- http://purl.obolibrary.org/obo/BFO_0000141 -->
<g id="node27" class="node">
<title>http://purl.obolibrary.org/obo/BFO_0000141</title>
<path fill="#fff4e5" stroke="#b7791f" stroke-width="1.6" d="M530.5,-336C530.5,-336 431.5,-336 431.5,-336 425.5,-336 419.5,-330 419.5,-324 419.5,-324 419.5,-312 419.5,-312 419.5,-306 425.5,-300 431.5,-300 431.5,-300 530.5,-300 530.5,-300 536.5,-300 542.5,-306 542.5,-312 542.5,-312 542.5,-324 542.5,-324 542.5,-330 536.5,-336 530.5,-336"/>
<text text-anchor="middle" x="481" y="-314.9" font-family="Helvetica,sans-Serif" font-size="12.00" fill="#7b341e">immaterial entity</text>
</g>
<!-- http://purl.obolibrary.org/obo/BFO_0000004&#45;&gt;http://purl.obolibrary.org/obo/BFO_0000141 -->
<g id="edge15" class="edge">
<title>http://purl.obolibrary.org/obo/BFO_0000004&#45;&gt;http://purl.obolibrary.org/obo/BFO_0000141</title>
<path fill="none" stroke="#4a5568" stroke-width="1.6" d="M587.6,-408.81C566.02,-390.64 531.89,-361.88 508.08,-341.82"/>
<polygon fill="#4a5568" stroke="#4a5568" stroke-width="1.6" points="509.77,-339.35 501.35,-336.15 505.94,-343.9 509.77,-339.35"/>
</g>
<!-- http://purl.obolibrary.org/obo/BFO_0000015&#45;&gt;https://w3id.org/sdata/core/InformationProcess -->
<g id="edge16" class="edge">
<title>http://purl.obolibrary.org/obo/BFO_0000015&#45;&gt;https://w3id.org/sdata/core/InformationProcess</title>
<path fill="none" stroke="#4a5568" stroke-width="1.6" d="M1040.59,-408.68C1049.07,-398.71 1059.37,-385.67 1067,-373 1131.49,-265.92 1183.62,-125.04 1203.41,-68.29"/>
<polygon fill="#4a5568" stroke="#4a5568" stroke-width="1.6" points="1206.23,-69.24 1206.2,-60.23 1200.61,-67.29 1206.23,-69.24"/>
</g>
<!-- http://purl.obolibrary.org/obo/BFO_0000015&#45;&gt;https://w3id.org/sdata/core/MaterialProcess -->
<g id="edge17" class="edge">
<title>http://purl.obolibrary.org/obo/BFO_0000015&#45;&gt;https://w3id.org/sdata/core/MaterialProcess</title>
<path fill="none" stroke="#4a5568" stroke-width="1.6" d="M1050.81,-408.86C1065.15,-398.95 1083.07,-385.91 1098,-373 1220.24,-267.33 1349.92,-123.12 1399.29,-66.85"/>
<polygon fill="#4a5568" stroke="#4a5568" stroke-width="1.6" points="1401.82,-68.48 1405.18,-60.13 1397.34,-64.56 1401.82,-68.48"/>
</g>
<!-- http://purl.obolibrary.org/obo/BFO_0000017 -->
<g id="node21" class="node">
<title>http://purl.obolibrary.org/obo/BFO_0000017</title>
<path fill="#fff4e5" stroke="#b7791f" stroke-width="1.6" d="M367.5,-336C367.5,-336 276.5,-336 276.5,-336 270.5,-336 264.5,-330 264.5,-324 264.5,-324 264.5,-312 264.5,-312 264.5,-306 270.5,-300 276.5,-300 276.5,-300 367.5,-300 367.5,-300 373.5,-300 379.5,-306 379.5,-312 379.5,-312 379.5,-324 379.5,-324 379.5,-330 373.5,-336 367.5,-336"/>
<text text-anchor="middle" x="322" y="-314.9" font-family="Helvetica,sans-Serif" font-size="12.00" fill="#7b341e">realizable entity</text>
</g>
<!-- http://purl.obolibrary.org/obo/BFO_0000023 -->
<g id="node23" class="node">
<title>http://purl.obolibrary.org/obo/BFO_0000023</title>
<path fill="#fff4e5" stroke="#b7791f" stroke-width="1.6" d="M314,-217C314,-217 284,-217 284,-217 278,-217 272,-211 272,-205 272,-205 272,-193 272,-193 272,-187 278,-181 284,-181 284,-181 314,-181 314,-181 320,-181 326,-187 326,-193 326,-193 326,-205 326,-205 326,-211 320,-217 314,-217"/>
<text text-anchor="middle" x="299" y="-195.9" font-family="Helvetica,sans-Serif" font-size="12.00" fill="#7b341e">role</text>
</g>
<!-- http://purl.obolibrary.org/obo/BFO_0000017&#45;&gt;http://purl.obolibrary.org/obo/BFO_0000023 -->
<g id="edge18" class="edge">
<title>http://purl.obolibrary.org/obo/BFO_0000017&#45;&gt;http://purl.obolibrary.org/obo/BFO_0000023</title>
<path fill="none" stroke="#4a5568" stroke-width="1.6" d="M318.66,-299.99C314.81,-280.4 308.44,-248.04 304,-225.46"/>
<polygon fill="#4a5568" stroke="#4a5568" stroke-width="1.6" points="306.91,-224.8 302.35,-217.03 301.07,-225.95 306.91,-224.8"/>
</g>
<!-- http://purl.obolibrary.org/obo/BFO_0000020&#45;&gt;http://purl.obolibrary.org/obo/BFO_0000017 -->
<g id="edge19" class="edge">
<title>http://purl.obolibrary.org/obo/BFO_0000020&#45;&gt;http://purl.obolibrary.org/obo/BFO_0000017</title>
<path fill="none" stroke="#4a5568" stroke-width="1.6" d="M366.48,-408.81C357.79,-391.26 344.21,-363.84 334.34,-343.91"/>
<polygon fill="#4a5568" stroke="#4a5568" stroke-width="1.6" points="336.93,-342.45 330.49,-336.15 331.6,-345.09 336.93,-342.45"/>
</g>
<!-- http://purl.obolibrary.org/obo/BFO_0000023&#45;&gt;https://w3id.org/sdata/core/Role -->
<g id="edge20" class="edge">
<title>http://purl.obolibrary.org/obo/BFO_0000023&#45;&gt;https://w3id.org/sdata/core/Role</title>
<path fill="none" stroke="#4a5568" stroke-width="1.6" d="M271.72,-193.59C236.98,-186.73 176.84,-170.53 138,-136 117.5,-117.78 104.18,-88.9 96.68,-68.15"/>
<polygon fill="#4a5568" stroke="#4a5568" stroke-width="1.6" points="99.48,-67.16 93.91,-60.09 93.86,-69.1 99.48,-67.16"/>
</g>
<!-- http://purl.obolibrary.org/obo/BFO_0000029 -->
<g id="node24" class="node">
<title>http://purl.obolibrary.org/obo/BFO_0000029</title>
<path fill="#fff4e5" stroke="#b7791f" stroke-width="1.6" d="M522,-217C522,-217 492,-217 492,-217 486,-217 480,-211 480,-205 480,-205 480,-193 480,-193 480,-187 486,-181 492,-181 492,-181 522,-181 522,-181 528,-181 534,-187 534,-193 534,-193 534,-205 534,-205 534,-211 528,-217 522,-217"/>
<text text-anchor="middle" x="507" y="-195.9" font-family="Helvetica,sans-Serif" font-size="12.00" fill="#7b341e">site</text>
</g>
<!-- http://purl.obolibrary.org/obo/BFO_0000029&#45;&gt;https://w3id.org/sdata/core/MaterialSite -->
<g id="edge21" class="edge">
<title>http://purl.obolibrary.org/obo/BFO_0000029&#45;&gt;https://w3id.org/sdata/core/MaterialSite</title>
<path fill="none" stroke="#4a5568" stroke-width="1.6" d="M514.98,-180.82C527.68,-153.47 552.57,-99.89 567.3,-68.2"/>
<polygon fill="#4a5568" stroke="#4a5568" stroke-width="1.6" points="570.1,-69.22 570.98,-60.26 564.7,-66.71 570.1,-69.22"/>
</g>
<!-- http://purl.obolibrary.org/obo/BFO_0000031&#45;&gt;https://w3id.org/sdata/core/InformationArtifact -->
<g id="edge25" class="edge">
<title>http://purl.obolibrary.org/obo/BFO_0000031&#45;&gt;https://w3id.org/sdata/core/InformationArtifact</title>
<path fill="none" stroke="#4a5568" stroke-width="1.6" d="M830.3,-408.9C801.29,-363.91 716.56,-240.97 616,-173 575.7,-145.76 553.94,-162.27 513,-136 483.79,-117.26 456.87,-87.51 440,-66.73"/>
<polygon fill="#4a5568" stroke="#4a5568" stroke-width="1.6" points="442.31,-64.84 434.68,-60.05 437.65,-68.55 442.31,-64.84"/>
</g>
<!-- http://purl.obolibrary.org/obo/BFO_0000031&#45;&gt;https://w3id.org/sdata/core/Information -->
<g id="edge23" class="edge">
<title>http://purl.obolibrary.org/obo/BFO_0000031&#45;&gt;https://w3id.org/sdata/core/Information</title>
<path fill="none" stroke="#4a5568" stroke-width="1.6" d="M850.7,-408.8C885.24,-347.55 1002.35,-139.91 1042.98,-67.86"/>
<polygon fill="#4a5568" stroke="#4a5568" stroke-width="1.6" points="1045.74,-69.02 1047.33,-60.15 1040.56,-66.1 1045.74,-69.02"/>
</g>
<!-- http://purl.obolibrary.org/obo/BFO_0000031&#45;&gt;https://w3id.org/sdata/core/InformationSite -->
<g id="edge26" class="edge">
<title>http://purl.obolibrary.org/obo/BFO_0000031&#45;&gt;https://w3id.org/sdata/core/InformationSite</title>
<path fill="none" stroke="#4a5568" stroke-width="1.6" d="M837.59,-408.8C825.48,-347.8 784.56,-141.59 770.11,-68.75"/>
<polygon fill="#4a5568" stroke="#4a5568" stroke-width="1.6" points="772.98,-67.91 768.4,-60.15 767.14,-69.07 772.98,-67.91"/>
</g>
<!-- http://purl.obolibrary.org/obo/BFO_0000031&#45;&gt;https://w3id.org/sdata/core/InformationAgent -->
<g id="edge24" class="edge">
<title>http://purl.obolibrary.org/obo/BFO_0000031&#45;&gt;https://w3id.org/sdata/core/InformationAgent</title>
<path fill="none" stroke="#4a5568" stroke-width="1.6" d="M923.11,-408.99C970.76,-398.93 1031.88,-385.71 1086,-373 1396.35,-300.13 1483.52,-289.36 1763,-136 1799.29,-116.09 1836.73,-86.53 1860.85,-66.11"/>
<polygon fill="#4a5568" stroke="#4a5568" stroke-width="1.6" points="1863.06,-68.13 1867.58,-60.34 1859.19,-63.61 1863.06,-68.13"/>
</g>
<!-- http://purl.obolibrary.org/obo/BFO_0000031&#45;&gt;https://w3id.org/sdata/core/Identifier -->
<g id="edge22" class="edge">
<title>http://purl.obolibrary.org/obo/BFO_0000031&#45;&gt;https://w3id.org/sdata/core/Identifier</title>
<path fill="none" stroke="#4a5568" stroke-width="1.6" d="M922.99,-408.94C1058.15,-377.04 1329.43,-296.56 1497,-136 1517.61,-116.25 1534.5,-88.11 1545.05,-67.97"/>
<polygon fill="#4a5568" stroke="#4a5568" stroke-width="1.6" points="1547.83,-69.06 1549.05,-60.14 1542.53,-66.36 1547.83,-69.06"/>
</g>
<!-- http://purl.obolibrary.org/obo/BFO_0000040&#45;&gt;https://w3id.org/sdata/core/MaterialArtifact -->
<g id="edge29" class="edge">
<title>http://purl.obolibrary.org/obo/BFO_0000040&#45;&gt;https://w3id.org/sdata/core/MaterialArtifact</title>
<path fill="none" stroke="#4a5568" stroke-width="1.6" d="M632.42,-299.94C623.19,-269.12 599.27,-204.43 554,-173 472.2,-116.2 424.07,-176.31 333,-136 295.44,-119.38 259.45,-88.02 237.3,-66.34"/>
<polygon fill="#4a5568" stroke="#4a5568" stroke-width="1.6" points="239.28,-64.12 231.16,-60.23 235.08,-68.33 239.28,-64.12"/>
</g>
<!-- http://purl.obolibrary.org/obo/BFO_0000040&#45;&gt;https://w3id.org/sdata/core/Material -->
<g id="edge27" class="edge">
<title>http://purl.obolibrary.org/obo/BFO_0000040&#45;&gt;https://w3id.org/sdata/core/Material</title>
<path fill="none" stroke="#4a5568" stroke-width="1.6" d="M671.25,-299.97C721.04,-273.51 813.09,-217.91 865,-145 881.32,-122.08 889.87,-90.66 894.14,-68.77"/>
<polygon fill="#4a5568" stroke="#4a5568" stroke-width="1.6" points="897.08,-69.21 895.67,-60.32 891.23,-68.15 897.08,-69.21"/>
</g>
<!-- http://purl.obolibrary.org/obo/BFO_0000040&#45;&gt;https://w3id.org/sdata/core/MaterialAgent -->
<g id="edge28" class="edge">
<title>http://purl.obolibrary.org/obo/BFO_0000040&#45;&gt;https://w3id.org/sdata/core/MaterialAgent</title>
<path fill="none" stroke="#4a5568" stroke-width="1.6" d="M691.06,-312.89C875.08,-298.05 1474.38,-242.38 1631,-136 1655.04,-119.67 1671.04,-89.73 1680.04,-68.22"/>
<polygon fill="#4a5568" stroke="#4a5568" stroke-width="1.6" points="1682.87,-69.15 1683.25,-60.16 1677.34,-66.95 1682.87,-69.15"/>
</g>
<!-- http://purl.obolibrary.org/obo/BFO_0000141&#45;&gt;http://purl.obolibrary.org/obo/BFO_0000029 -->
<g id="edge30" class="edge">
<title>http://purl.obolibrary.org/obo/BFO_0000141&#45;&gt;http://purl.obolibrary.org/obo/BFO_0000029</title>
<path fill="none" stroke="#4a5568" stroke-width="1.6" d="M484.78,-299.99C489.13,-280.4 496.32,-248.04 501.34,-225.46"/>
<polygon fill="#4a5568" stroke="#4a5568" stroke-width="1.6" points="504.27,-225.98 503.21,-217.03 498.47,-224.69 504.27,-225.98"/>
</g>
<!-- http://www.w3.org/ns/prov#Agent -->
<g id="node28" class="node">
<title>http://www.w3.org/ns/prov#Agent</title>
<path fill="#e7fff6" stroke="#2f855a" stroke-width="1.6" d="M1884,-217C1884,-217 1852,-217 1852,-217 1846,-217 1840,-211 1840,-205 1840,-205 1840,-193 1840,-193 1840,-187 1846,-181 1852,-181 1852,-181 1884,-181 1884,-181 1890,-181 1896,-187 1896,-193 1896,-193 1896,-205 1896,-205 1896,-211 1890,-217 1884,-217"/>
<text text-anchor="middle" x="1868" y="-195.9" font-family="Helvetica,sans-Serif" font-size="12.00" fill="#1c4532">Agent</text>
</g>
<!-- http://www.w3.org/ns/prov#Agent&#45;&gt;https://w3id.org/sdata/core/InformationAgent -->
<g id="edge31" class="edge">
<title>http://www.w3.org/ns/prov#Agent&#45;&gt;https://w3id.org/sdata/core/InformationAgent</title>
<path fill="none" stroke="#4a5568" stroke-width="1.6" d="M1870.11,-180.82C1873.43,-153.7 1879.91,-100.8 1883.81,-69.01"/>
<polygon fill="#4a5568" stroke="#4a5568" stroke-width="1.6" points="1886.8,-69.06 1884.88,-60.26 1880.9,-68.33 1886.8,-69.06"/>
</g>
<!-- http://www.w3.org/ns/prov#Agent&#45;&gt;https://w3id.org/sdata/core/MaterialAgent -->
<g id="edge32" class="edge">
<title>http://www.w3.org/ns/prov#Agent&#45;&gt;https://w3id.org/sdata/core/MaterialAgent</title>
<path fill="none" stroke="#4a5568" stroke-width="1.6" d="M1848.16,-180.82C1815.82,-152.81 1751.71,-97.31 1715.51,-65.95"/>
<polygon fill="#4a5568" stroke="#4a5568" stroke-width="1.6" points="1717.03,-63.34 1708.66,-60.02 1713.13,-67.83 1717.03,-63.34"/>
</g>
</g>
</svg>
