<?xml version="1.0" encoding="UTF-8" standalone="no"?>
<!DOCTYPE svg PUBLIC "-//W3C//DTD SVG 1.1//EN"
 "http://www.w3.org/Graphics/SVG/1.1/DTD/svg11.dtd">
<!-- Generated by graphviz version 2.43.0 (0)
 -->
<!-- Pages: 1 -->
<svg width="1915pt" height="441pt"
 viewBox="0.00 0.00 1914.90 441.30" xmlns="http://www.w3.org/2000/svg" xmlns:xlink="http://www.w3.org/1999/xlink">
<g id="graph0" class="graph" transform="scale(1 1) rotate(0) translate(25.2 416.1)">
<polygon fill="#fafbfc" stroke="transparent" points="-25.2,25.2 -25.2,-416.1 1889.7,-416.1 1889.7,25.2 -25.2,25.2"/>
<text text-anchor="middle" x="932.25" y="-370.9" font-family="Helvetica,sans-Serif" font-size="20.00">Class Hierarchy: MIN &#45;&gt; sdata&#45;core</text>
<g id="clust1" class="cluster">
<title>cluster_min</title>
<path fill="#fafbfc" stroke="#8fb7ea" d="M622.5,-164.72C622.5,-164.72 1844.5,-164.72 1844.5,-164.72 1850.5,-164.72 1856.5,-170.72 1856.5,-176.72 1856.5,-176.72 1856.5,-280.72 1856.5,-280.72 1856.5,-286.72 1850.5,-292.72 1844.5,-292.72 1844.5,-292.72 622.5,-292.72 622.5,-292.72 616.5,-292.72 610.5,-286.72 610.5,-280.72 610.5,-280.72 610.5,-176.72 610.5,-176.72 610.5,-170.72 616.5,-164.72 622.5,-164.72"/>
<text text-anchor="middle" x="1233.5" y="-272.72" font-family="Helvetica,sans-Serif" font-size="20.00">MIN classes</text>
</g>
<g id="clust2" class="cluster">
<title>cluster_min_rank</title>
</g>
<!-- https://w3id.org/min#Agent -->
<g id="node1" class="node">
<title>https://w3id.org/min#Agent</title>
<path fill="#e7f0ff" stroke="#2b6cb0" stroke-width="1.6" d="M670.5,-216.72C670.5,-216.72 638.5,-216.72 638.5,-216.72 632.5,-216.72 626.5,-210.72 626.5,-204.72 626.5,-204.72 626.5,-192.72 626.5,-192.72 626.5,-186.72 632.5,-180.72 638.5,-180.72 638.5,-180.72 670.5,-180.72 670.5,-180.72 676.5,-180.72 682.5,-186.72 682.5,-192.72 682.5,-192.72 682.5,-204.72 682.5,-204.72 682.5,-210.72 676.5,-216.72 670.5,-216.72"/>
<text text-anchor="middle" x="654.5" y="-195.62" font-family="Helvetica,sans-Serif" font-size="12.00" fill="#1a365d">Agent</text>
</g>
<!-- https://w3id.org/sdata/core/EnvironmentAgent -->
<g id="node14" class="node">
<title>https://w3id.org/sdata/core/EnvironmentAgent</title>
<path fill="#f8eeff" stroke="#6b46c1" stroke-width="1.6" d="M123,-108.72C123,-108.72 12,-108.72 12,-108.72 6,-108.72 0,-102.72 0,-96.72 0,-96.72 0,-84.72 0,-84.72 0,-78.72 6,-72.72 12,-72.72 12,-72.72 123,-72.72 123,-72.72 129,-72.72 135,-78.72 135,-84.72 135,-84.72 135,-96.72 135,-96.72 135,-102.72 129,-108.72 123,-108.72"/>
<text text-anchor="middle" x="67.5" y="-87.62" font-family="Helvetica,sans-Serif" font-size="12.00" fill="#44337a">Environment Agent</text>
</g>
<!-- https://w3id.org/min#Agent&#45;&gt;https://w3id.org/sdata/core/EnvironmentAgent -->
<g id="edge1" class="edge">
<title>https://w3id.org/min#Agent&#45;&gt;https://w3id.org/sdata/core/EnvironmentAgent</title>
<path fill="none" stroke="#4a5568" stroke-width="1.6" d="M626.28,-192.87C550.09,-179.73 333.91,-142.21 154.5,-108.72 151.01,-108.07 147.44,-107.4 143.84,-106.71"/>
<polygon fill="#4a5568" stroke="#4a5568" stroke-width="1.6" points="144.3,-103.77 135.4,-105.1 143.19,-109.62 144.3,-103.77"/>
</g>
<!-- https://w3id.org/sdata/core/HardwareAgent -->
<g id="node15" class="node">
<title>https://w3id.org/sdata/core/HardwareAgent</title>
<path fill="#f8eeff" stroke="#6b46c1" stroke-width="1.6" d="M280,-108.72C280,-108.72 187,-108.72 187,-108.72 181,-108.72 175,-102.72 175,-96.72 175,-96.72 175,-84.72 175,-84.72 175,-78.72 181,-72.72 187,-72.72 187,-72.72 280,-72.72 280,-72.72 286,-72.72 292,-78.72 292,-84.72 292,-84.72 292,-96.72 292,-96.72 292,-102.72 286,-108.72 280,-108.72"/>
<text text-anchor="middle" x="233.5" y="-87.62" font-family="Helvetica,sans-Serif" font-size="12.00" fill="#44337a">Hardware Agent</text>
</g>
<!-- https://w3id.org/min#Agent&#45;&gt;https://w3id.org/sdata/core/HardwareAgent -->
<g id="edge2" class="edge">
<title>https://w3id.org/min#Agent&#45;&gt;https://w3id.org/sdata/core/HardwareAgent</title>
<path fill="none" stroke="#4a5568" stroke-width="1.6" d="M626.22,-190.6C560.19,-173.97 394.34,-132.22 300.65,-108.63"/>
<polygon fill="#4a5568" stroke="#4a5568" stroke-width="1.6" points="301.34,-105.73 292.37,-106.54 299.89,-111.5 301.34,-105.73"/>
</g>
<!-- https://w3id.org/sdata/core/Organization -->
<g id="node16" class="node">
<title>https://w3id.org/sdata/core/Organization</title>
<path fill="#f8eeff" stroke="#6b46c1" stroke-width="1.6" d="M416.5,-108.72C416.5,-108.72 344.5,-108.72 344.5,-108.72 338.5,-108.72 332.5,-102.72 332.5,-96.72 332.5,-96.72 332.5,-84.72 332.5,-84.72 332.5,-78.72 338.5,-72.72 344.5,-72.72 344.5,-72.72 416.5,-72.72 416.5,-72.72 422.5,-72.72 428.5,-78.72 428.5,-84.72 428.5,-84.72 428.5,-96.72 428.5,-96.72 428.5,-102.72 422.5,-108.72 416.5,-108.72"/>
<text text-anchor="middle" x="380.5" y="-87.62" font-family="Helvetica,sans-Serif" font-size="12.00" fill="#44337a">Organization</text>
</g>
<!-- https://w3id.org/min#Agent&#45;&gt;https://w3id.org/sdata/core/Organization -->
<g id="edge3" class="edge">
<title>https://w3id.org/min#Agent&#45;&gt;https://w3id.org/sdata/core/Organization</title>
<path fill="none" stroke="#4a5568" stroke-width="1.6" d="M626.46,-186.87C580.96,-169.27 490.34,-134.21 432.71,-111.92"/>
<polygon fill="#4a5568" stroke="#4a5568" stroke-width="1.6" points="433.45,-109.02 424.45,-108.72 431.31,-114.57 433.45,-109.02"/>
</g>
<!-- https://w3id.org/sdata/core/Person -->
<g id="node17" class="node">
<title>https://w3id.org/sdata/core/Person</title>
<path fill="#f8eeff" stroke="#6b46c1" stroke-width="1.6" d="M518,-108.72C518,-108.72 481,-108.72 481,-108.72 475,-108.72 469,-102.72 469,-96.72 469,-96.72 469,-84.72 469,-84.72 469,-78.72 475,-72.72 481,-72.72 481,-72.72 518,-72.72 518,-72.72 524,-72.72 530,-78.72 530,-84.72 530,-84.72 530,-96.72 530,-96.72 530,-102.72 524,-108.72 518,-108.72"/>
<text text-anchor="middle" x="499.5" y="-87.62" font-family="Helvetica,sans-Serif" font-size="12.00" fill="#44337a">Person</text>
</g>
<!-- https://w3id.org/min#Agent&#45;&gt;https://w3id.org/sdata/core/Person -->
<g id="edge4" class="edge">
<title>https://w3id.org/min#Agent&#45;&gt;https://w3id.org/sdata/core/Person</title>
<path fill="none" stroke="#4a5568" stroke-width="1.6" d="M629.6,-180.69C603.01,-162.51 560.79,-133.63 531.7,-113.74"/>
<polygon fill="#4a5568" stroke="#4a5568" stroke-width="1.6" points="533.29,-111.23 524.6,-108.88 529.94,-116.14 533.29,-111.23"/>
</g>
<!-- https://w3id.org/sdata/core/SoftwareAgent -->
<g id="node18" class="node">
<title>https://w3id.org/sdata/core/SoftwareAgent</title>
<path fill="#f8eeff" stroke="#6b46c1" stroke-width="1.6" d="M670.5,-108.72C670.5,-108.72 582.5,-108.72 582.5,-108.72 576.5,-108.72 570.5,-102.72 570.5,-96.72 570.5,-96.72 570.5,-84.72 570.5,-84.72 570.5,-78.72 576.5,-72.72 582.5,-72.72 582.5,-72.72 670.5,-72.72 670.5,-72.72 676.5,-72.72 682.5,-78.72 682.5,-84.72 682.5,-84.72 682.5,-96.72 682.5,-96.72 682.5,-102.72 676.5,-108.72 670.5,-108.72"/>
<text text-anchor="middle" x="626.5" y="-87.62" font-family="Helvetica,sans-Serif" font-size="12.00" fill="#44337a">Software Agent</text>
</g>
<!-- https://w3id.org/min#Agent&#45;&gt;https://w3id.org/sdata/core/SoftwareAgent -->
<g id="edge5" class="edge">
<title>https://w3id.org/min#Agent&#45;&gt;https://w3id.org/sdata/core/SoftwareAgent</title>
<path fill="none" stroke="#4a5568" stroke-width="1.6" d="M650,-180.69C645.48,-163.56 638.45,-136.94 633.25,-117.28"/>
<polygon fill="#4a5568" stroke="#4a5568" stroke-width="1.6" points="636.13,-116.52 631.08,-109.06 630.38,-118.04 636.13,-116.52"/>
</g>
<!-- https://w3id.org/min#Data -->
<g id="node2" class="node">
<title>https://w3id.org/min#Data</title>
<path fill="#e7f0ff" stroke="#2b6cb0" stroke-width="1.6" d="M764.5,-216.72C764.5,-216.72 734.5,-216.72 734.5,-216.72 728.5,-216.72 722.5,-210.72 722.5,-204.72 722.5,-204.72 722.5,-192.72 722.5,-192.72 722.5,-186.72 728.5,-180.72 734.5,-180.72 734.5,-180.72 764.5,-180.72 764.5,-180.72 770.5,-180.72 776.5,-186.72 776.5,-192.72 776.5,-192.72 776.5,-204.72 776.5,-204.72 776.5,-210.72 770.5,-216.72 764.5,-216.72"/>
<text text-anchor="middle" x="749.5" y="-195.62" font-family="Helvetica,sans-Serif" font-size="12.00" fill="#1a365d">Data</text>
</g>
<!-- https://w3id.org/sdata/core/Data -->
<g id="node23" class="node">
<title>https://w3id.org/sdata/core/Data</title>
<path fill="#f8eeff" stroke="#6b46c1" stroke-width="1.6" d="M764.5,-108.72C764.5,-108.72 734.5,-108.72 734.5,-108.72 728.5,-108.72 722.5,-102.72 722.5,-96.72 722.5,-96.72 722.5,-84.72 722.5,-84.72 722.5,-78.72 728.5,-72.72 734.5,-72.72 734.5,-72.72 764.5,-72.72 764.5,-72.72 770.5,-72.72 776.5,-78.72 776.5,-84.72 776.5,-84.72 776.5,-96.72 776.5,-96.72 776.5,-102.72 770.5,-108.72 764.5,-108.72"/>
<text text-anchor="middle" x="749.5" y="-87.62" font-family="Helvetica,sans-Serif" font-size="12.00" fill="#44337a">Data</text>
</g>
<!-- https://w3id.org/min#Data&#45;&gt;https://w3id.org/sdata/core/Data -->
<g id="edge6" class="edge">
<title>https://w3id.org/min#Data&#45;&gt;https://w3id.org/sdata/core/Data</title>
<path fill="none" stroke="#4a5568" stroke-width="1.6" d="M749.5,-180.69C749.5,-163.71 749.5,-137.42 749.5,-117.81"/>
<polygon fill="#4a5568" stroke="#4a5568" stroke-width="1.6" points="752.48,-117.56 749.5,-109.06 746.53,-117.56 752.48,-117.56"/>
</g>
<!-- https://w3id.org/min#Object -->
<g id="node3" class="node">
<title>https://w3id.org/min#Object</title>
<path fill="#e7f0ff" stroke="#2b6cb0" stroke-width="1.6" d="M864.5,-216.72C864.5,-216.72 828.5,-216.72 828.5,-216.72 822.5,-216.72 816.5,-210.72 816.5,-204.72 816.5,-204.72 816.5,-192.72 816.5,-192.72 816.5,-186.72 822.5,-180.72 828.5,-180.72 828.5,-180.72 864.5,-180.72 864.5,-180.72 870.5,-180.72 876.5,-186.72 876.5,-192.72 876.5,-192.72 876.5,-204.72 876.5,-204.72 876.5,-210.72 870.5,-216.72 864.5,-216.72"/>
<text text-anchor="middle" x="846.5" y="-195.62" font-family="Helvetica,sans-Serif" font-size="12.00" fill="#1a365d">Object</text>
</g>
<!-- https://w3id.org/sdata/core/Hardware -->
<g id="node19" class="node">
<title>https://w3id.org/sdata/core/Hardware</title>
<path fill="#f8eeff" stroke="#6b46c1" stroke-width="1.6" d="M882.5,-108.72C882.5,-108.72 828.5,-108.72 828.5,-108.72 822.5,-108.72 816.5,-102.72 816.5,-96.72 816.5,-96.72 816.5,-84.72 816.5,-84.72 816.5,-78.72 822.5,-72.72 828.5,-72.72 828.5,-72.72 882.5,-72.72 882.5,-72.72 888.5,-72.72 894.5,-78.72 894.5,-84.72 894.5,-84.72 894.5,-96.72 894.5,-96.72 894.5,-102.72 888.5,-108.72 882.5,-108.72"/>
<text text-anchor="middle" x="855.5" y="-87.62" font-family="Helvetica,sans-Serif" font-size="12.00" fill="#44337a">Hardware</text>
</g>
<!-- https://w3id.org/min#Object&#45;&gt;https://w3id.org/sdata/core/Hardware -->
<g id="edge18" class="edge">
<title>https://w3id.org/min#Object&#45;&gt;https://w3id.org/sdata/core/Hardware</title>
<path fill="none" stroke="#4a5568" stroke-width="1.6" d="M847.95,-180.69C849.39,-163.64 851.64,-137.18 853.31,-117.54"/>
<polygon fill="#4a5568" stroke="#4a5568" stroke-width="1.6" points="856.27,-117.78 854.03,-109.06 850.34,-117.28 856.27,-117.78"/>
</g>
<!-- https://w3id.org/sdata/core/Material -->
<g id="node20" class="node">
<title>https://w3id.org/sdata/core/Material</title>
<path fill="#f8eeff" stroke="#6b46c1" stroke-width="1.6" d="M992,-108.72C992,-108.72 947,-108.72 947,-108.72 941,-108.72 935,-102.72 935,-96.72 935,-96.72 935,-84.72 935,-84.72 935,-78.72 941,-72.72 947,-72.72 947,-72.72 992,-72.72 992,-72.72 998,-72.72 1004,-78.72 1004,-84.72 1004,-84.72 1004,-96.72 1004,-96.72 1004,-102.72 998,-108.72 992,-108.72"/>
<text text-anchor="middle" x="969.5" y="-87.62" font-family="Helvetica,sans-Serif" font-size="12.00" fill="#44337a">Material</text>
</g>
<!-- https://w3id.org/min#Object&#45;&gt;https://w3id.org/sdata/core/Material -->
<g id="edge19" class="edge">
<title>https://w3id.org/min#Object&#45;&gt;https://w3id.org/sdata/core/Material</title>
<path fill="none" stroke="#4a5568" stroke-width="1.6" d="M866.26,-180.69C887.03,-162.79 919.82,-134.53 942.86,-114.68"/>
<polygon fill="#4a5568" stroke="#4a5568" stroke-width="1.6" points="944.88,-116.86 949.38,-109.06 941,-112.36 944.88,-116.86"/>
</g>
<!-- https://w3id.org/sdata/core/Product -->
<g id="node21" class="node">
<title>https://w3id.org/sdata/core/Product</title>
<path fill="#f8eeff" stroke="#6b46c1" stroke-width="1.6" d="M1098.5,-108.72C1098.5,-108.72 1056.5,-108.72 1056.5,-108.72 1050.5,-108.72 1044.5,-102.72 1044.5,-96.72 1044.5,-96.72 1044.5,-84.72 1044.5,-84.72 1044.5,-78.72 1050.5,-72.72 1056.5,-72.72 1056.5,-72.72 1098.5,-72.72 1098.5,-72.72 1104.5,-72.72 1110.5,-78.72 1110.5,-84.72 1110.5,-84.72 1110.5,-96.72 1110.5,-96.72 1110.5,-102.72 1104.5,-108.72 1098.5,-108.72"/>
<text text-anchor="middle" x="1077.5" y="-87.62" font-family="Helvetica,sans-Serif" font-size="12.00" fill="#44337a">Product</text>
</g>
<!-- https://w3id.org/min#Object&#45;&gt;https://w3id.org/sdata/core/Product -->
<g id="edge20" class="edge">
<title>https://w3id.org/min#Object&#45;&gt;https://w3id.org/sdata/core/Product</title>
<path fill="none" stroke="#4a5568" stroke-width="1.6" d="M870.32,-180.6C878.42,-175.16 887.66,-169.36 896.5,-164.72 942.66,-140.49 998.72,-119.02 1036.1,-105.74"/>
<polygon fill="#4a5568" stroke="#4a5568" stroke-width="1.6" points="1037.22,-108.5 1044.25,-102.87 1035.24,-102.89 1037.22,-108.5"/>
</g>
<!-- https://w3id.org/sdata/core/Software -->
<g id="node22" class="node">
<title>https://w3id.org/sdata/core/Software</title>
<path fill="#f8eeff" stroke="#6b46c1" stroke-width="1.6" d="M1212,-108.72C1212,-108.72 1163,-108.72 1163,-108.72 1157,-108.72 1151,-102.72 1151,-96.72 1151,-96.72 1151,-84.72 1151,-84.72 1151,-78.72 1157,-72.72 1163,-72.72 1163,-72.72 1212,-72.72 1212,-72.72 1218,-72.72 1224,-78.72 1224,-84.72 1224,-84.72 1224,-96.72 1224,-96.72 1224,-102.72 1218,-108.72 1212,-108.72"/>
<text text-anchor="middle" x="1187.5" y="-87.62" font-family="Helvetica,sans-Serif" font-size="12.00" fill="#44337a">Software</text>
</g>
<!-- https://w3id.org/min#Object&#45;&gt;https://w3id.org/sdata/core/Software -->
<g id="edge21" class="edge">
<title>https://w3id.org/min#Object&#45;&gt;https://w3id.org/sdata/core/Software</title>
<path fill="none" stroke="#4a5568" stroke-width="1.6" d="M868.94,-180.5C877.24,-174.8 886.96,-168.86 896.5,-164.72 994.61,-122.18 1027.22,-136.46 1130.5,-108.72 1134.41,-107.67 1138.46,-106.54 1142.51,-105.39"/>
<polygon fill="#4a5568" stroke="#4a5568" stroke-width="1.6" points="1143.45,-108.21 1150.79,-102.99 1141.8,-102.5 1143.45,-108.21"/>
</g>
<!-- https://w3id.org/min#Process -->
<g id="node4" class="node">
<title>https://w3id.org/min#Process</title>
<path fill="#e7f0ff" stroke="#2b6cb0" stroke-width="1.6" d="M970.5,-216.72C970.5,-216.72 928.5,-216.72 928.5,-216.72 922.5,-216.72 916.5,-210.72 916.5,-204.72 916.5,-204.72 916.5,-192.72 916.5,-192.72 916.5,-186.72 922.5,-180.72 928.5,-180.72 928.5,-180.72 970.5,-180.72 970.5,-180.72 976.5,-180.72 982.5,-186.72 982.5,-192.72 982.5,-192.72 982.5,-204.72 982.5,-204.72 982.5,-210.72 976.5,-216.72 970.5,-216.72"/>
<text text-anchor="middle" x="949.5" y="-195.62" font-family="Helvetica,sans-Serif" font-size="12.00" fill="#1a365d">Process</text>
</g>
<!-- https://w3id.org/sdata/core/Process -->
<g id="node24" class="node">
<title>https://w3id.org/sdata/core/Process</title>
<path fill="#f8eeff" stroke="#6b46c1" stroke-width="1.6" d="M1318.5,-108.72C1318.5,-108.72 1276.5,-108.72 1276.5,-108.72 1270.5,-108.72 1264.5,-102.72 1264.5,-96.72 1264.5,-96.72 1264.5,-84.72 1264.5,-84.72 1264.5,-78.72 1270.5,-72.72 1276.5,-72.72 1276.5,-72.72 1318.5,-72.72 1318.5,-72.72 1324.5,-72.72 1330.5,-78.72 1330.5,-84.72 1330.5,-84.72 1330.5,-96.72 1330.5,-96.72 1330.5,-102.72 1324.5,-108.72 1318.5,-108.72"/>
<text text-anchor="middle" x="1297.5" y="-87.62" font-family="Helvetica,sans-Serif" font-size="12.00" fill="#44337a">Process</text>
</g>
<!-- https://w3id.org/min#Process&#45;&gt;https://w3id.org/sdata/core/Process -->
<g id="edge22" class="edge">
<title>https://w3id.org/min#Process&#45;&gt;https://w3id.org/sdata/core/Process</title>
<path fill="none" stroke="#4a5568" stroke-width="1.6" d="M965.07,-180.59C971.22,-174.76 978.68,-168.71 986.5,-164.72 1090.65,-111.63 1130.52,-138.75 1243.5,-108.72 1247.5,-107.66 1251.65,-106.48 1255.79,-105.26"/>
<polygon fill="#4a5568" stroke="#4a5568" stroke-width="1.6" points="1256.95,-108.02 1264.22,-102.71 1255.23,-102.32 1256.95,-108.02"/>
</g>
<!-- https://w3id.org/min#Entity -->
<g id="node5" class="node">
<title>https://w3id.org/min#Entity</title>
<path fill="#e7f0ff" stroke="#2b6cb0" stroke-width="1.6" d="M1064.5,-216.72C1064.5,-216.72 1034.5,-216.72 1034.5,-216.72 1028.5,-216.72 1022.5,-210.72 1022.5,-204.72 1022.5,-204.72 1022.5,-192.72 1022.5,-192.72 1022.5,-186.72 1028.5,-180.72 1034.5,-180.72 1034.5,-180.72 1064.5,-180.72 1064.5,-180.72 1070.5,-180.72 1076.5,-186.72 1076.5,-192.72 1076.5,-192.72 1076.5,-204.72 1076.5,-204.72 1076.5,-210.72 1070.5,-216.72 1064.5,-216.72"/>
<text text-anchor="middle" x="1049.5" y="-195.62" font-family="Helvetica,sans-Serif" font-size="12.00" fill="#1a365d">Entity</text>
</g>
<!-- https://w3id.org/min#Forma -->
<g id="node6" class="node">
<title>https://w3id.org/min#Forma</title>
<path fill="#e7f0ff" stroke="#2b6cb0" stroke-width="1.6" d="M1261,-216.72C1261,-216.72 1226,-216.72 1226,-216.72 1220,-216.72 1214,-210.72 1214,-204.72 1214,-204.72 1214,-192.72 1214,-192.72 1214,-186.72 1220,-180.72 1226,-180.72 1226,-180.72 1261,-180.72 1261,-180.72 1267,-180.72 1273,-186.72 1273,-192.72 1273,-192.72 1273,-204.72 1273,-204.72 1273,-210.72 1267,-216.72 1261,-216.72"/>
<text text-anchor="middle" x="1243.5" y="-195.62" font-family="Helvetica,sans-Serif" font-size="12.00" fill="#1a365d">Forma</text>
</g>
<!-- https://w3id.org/min#Entity&#45;&gt;https://w3id.org/min#Forma -->
<g id="edge7" class="edge">
<title>https://w3id.org/min#Entity&#45;&gt;https://w3id.org/min#Forma</title>
<path fill="none" stroke="#4a5568" stroke-width="1.6" d="M1052.66,-217.19C1058.87,-247 1075.8,-304.77 1116.5,-328.72 1138.33,-341.57 1151.67,-341.57 1173.5,-328.72 1210.9,-306.71 1229.45,-256.96 1237.72,-225.79"/>
<polygon fill="#4a5568" stroke="#4a5568" stroke-width="1.6" points="1240.71,-226.11 1239.88,-217.14 1234.93,-224.67 1240.71,-226.11"/>
</g>
<!-- https://w3id.org/min#Nexus -->
<g id="node9" class="node">
<title>https://w3id.org/min#Nexus</title>
<path fill="#e7f0ff" stroke="#2b6cb0" stroke-width="1.6" d="M1162,-216.72C1162,-216.72 1129,-216.72 1129,-216.72 1123,-216.72 1117,-210.72 1117,-204.72 1117,-204.72 1117,-192.72 1117,-192.72 1117,-186.72 1123,-180.72 1129,-180.72 1129,-180.72 1162,-180.72 1162,-180.72 1168,-180.72 1174,-186.72 1174,-192.72 1174,-192.72 1174,-204.72 1174,-204.72 1174,-210.72 1168,-216.72 1162,-216.72"/>
<text text-anchor="middle" x="1145.5" y="-195.62" font-family="Helvetica,sans-Serif" font-size="12.00" fill="#1a365d">Nexus</text>
</g>
<!-- https://w3id.org/min#Entity&#45;&gt;https://w3id.org/min#Nexus -->
<g id="edge8" class="edge">
<title>https://w3id.org/min#Entity&#45;&gt;https://w3id.org/min#Nexus</title>
<path fill="none" stroke="#4a5568" stroke-width="1.6" d="M1076.88,-198.72C1087.28,-198.72 1097.68,-198.72 1108.08,-198.72"/>
<polygon fill="#4a5568" stroke="#4a5568" stroke-width="1.6" points="1108.32,-201.7 1116.82,-198.72 1108.32,-195.75 1108.32,-201.7"/>
</g>
<!-- https://w3id.org/min#Institutio -->
<g id="node7" class="node">
<title>https://w3id.org/min#Institutio</title>
<path fill="#e7f0ff" stroke="#2b6cb0" stroke-width="1.6" d="M1796.5,-216.72C1796.5,-216.72 1748.5,-216.72 1748.5,-216.72 1742.5,-216.72 1736.5,-210.72 1736.5,-204.72 1736.5,-204.72 1736.5,-192.72 1736.5,-192.72 1736.5,-186.72 1742.5,-180.72 1748.5,-180.72 1748.5,-180.72 1796.5,-180.72 1796.5,-180.72 1802.5,-180.72 1808.5,-186.72 1808.5,-192.72 1808.5,-192.72 1808.5,-204.72 1808.5,-204.72 1808.5,-210.72 1802.5,-216.72 1796.5,-216.72"/>
<text text-anchor="middle" x="1772.5" y="-195.62" font-family="Helvetica,sans-Serif" font-size="12.00" fill="#1a365d">Institutio</text>
</g>
<!-- https://w3id.org/min#Forma&#45;&gt;https://w3id.org/min#Institutio -->
<g id="edge9" class="edge">
<title>https://w3id.org/min#Forma&#45;&gt;https://w3id.org/min#Institutio</title>
<path fill="none" stroke="#4a5568" stroke-width="1.6" d="M1246.97,-217.16C1253.67,-246.91 1271.54,-304.62 1312.5,-328.72 1386.05,-371.99 1622.48,-371.19 1696.5,-328.72 1735.05,-306.6 1755.92,-256.52 1765.59,-225.38"/>
<polygon fill="#4a5568" stroke="#4a5568" stroke-width="1.6" points="1768.47,-226.13 1768.02,-217.14 1762.76,-224.45 1768.47,-226.13"/>
</g>
<!-- https://w3id.org/min#Lex -->
<g id="node8" class="node">
<title>https://w3id.org/min#Lex</title>
<path fill="#e7f0ff" stroke="#2b6cb0" stroke-width="1.6" d="M1684.5,-216.72C1684.5,-216.72 1654.5,-216.72 1654.5,-216.72 1648.5,-216.72 1642.5,-210.72 1642.5,-204.72 1642.5,-204.72 1642.5,-192.72 1642.5,-192.72 1642.5,-186.72 1648.5,-180.72 1654.5,-180.72 1654.5,-180.72 1684.5,-180.72 1684.5,-180.72 1690.5,-180.72 1696.5,-186.72 1696.5,-192.72 1696.5,-192.72 1696.5,-204.72 1696.5,-204.72 1696.5,-210.72 1690.5,-216.72 1684.5,-216.72"/>
<text text-anchor="middle" x="1669.5" y="-195.62" font-family="Helvetica,sans-Serif" font-size="12.00" fill="#1a365d">Lex</text>
</g>
<!-- https://w3id.org/min#Forma&#45;&gt;https://w3id.org/min#Lex -->
<g id="edge10" class="edge">
<title>https://w3id.org/min#Forma&#45;&gt;https://w3id.org/min#Lex</title>
<path fill="none" stroke="#4a5568" stroke-width="1.6" d="M1246.97,-217.16C1253.67,-246.91 1271.54,-304.62 1312.5,-328.72 1367.85,-361.29 1546.15,-361.29 1601.5,-328.72 1638.66,-306.85 1656.41,-257.06 1664.17,-225.83"/>
<polygon fill="#4a5568" stroke="#4a5568" stroke-width="1.6" points="1667.16,-226.13 1666.19,-217.18 1661.36,-224.78 1667.16,-226.13"/>
</g>
<!-- https://w3id.org/min#Norma -->
<g id="node10" class="node">
<title>https://w3id.org/min#Norma</title>
<path fill="#e7f0ff" stroke="#2b6cb0" stroke-width="1.6" d="M1590,-216.72C1590,-216.72 1553,-216.72 1553,-216.72 1547,-216.72 1541,-210.72 1541,-204.72 1541,-204.72 1541,-192.72 1541,-192.72 1541,-186.72 1547,-180.72 1553,-180.72 1553,-180.72 1590,-180.72 1590,-180.72 1596,-180.72 1602,-186.72 1602,-192.72 1602,-192.72 1602,-204.72 1602,-204.72 1602,-210.72 1596,-216.72 1590,-216.72"/>
<text text-anchor="middle" x="1571.5" y="-195.62" font-family="Helvetica,sans-Serif" font-size="12.00" fill="#1a365d">Norma</text>
</g>
<!-- https://w3id.org/min#Forma&#45;&gt;https://w3id.org/min#Norma -->
<g id="edge11" class="edge">
<title>https://w3id.org/min#Forma&#45;&gt;https://w3id.org/min#Norma</title>
<path fill="none" stroke="#4a5568" stroke-width="1.6" d="M1246.97,-217.16C1253.67,-246.91 1271.54,-304.62 1312.5,-328.72 1384.51,-371.09 1428.49,-371.09 1500.5,-328.72 1538.18,-306.55 1557.13,-256.49 1565.6,-225.36"/>
<polygon fill="#4a5568" stroke="#4a5568" stroke-width="1.6" points="1568.49,-226.1 1567.72,-217.12 1562.72,-224.61 1568.49,-226.1"/>
</g>
<!-- https://w3id.org/min#Possibile -->
<g id="node11" class="node">
<title>https://w3id.org/min#Possibile</title>
<path fill="#e7f0ff" stroke="#2b6cb0" stroke-width="1.6" d="M1489,-216.72C1489,-216.72 1442,-216.72 1442,-216.72 1436,-216.72 1430,-210.72 1430,-204.72 1430,-204.72 1430,-192.72 1430,-192.72 1430,-186.72 1436,-180.72 1442,-180.72 1442,-180.72 1489,-180.72 1489,-180.72 1495,-180.72 1501,-186.72 1501,-192.72 1501,-192.72 1501,-204.72 1501,-204.72 1501,-210.72 1495,-216.72 1489,-216.72"/>
<text text-anchor="middle" x="1465.5" y="-195.62" font-family="Helvetica,sans-Serif" font-size="12.00" fill="#1a365d">Possibile</text>
</g>
<!-- https://w3id.org/min#Forma&#45;&gt;https://w3id.org/min#Possibile -->
<g id="edge12" class="edge">
<title>https://w3id.org/min#Forma&#45;&gt;https://w3id.org/min#Possibile</title>
<path fill="none" stroke="#4a5568" stroke-width="1.6" d="M1246.97,-217.16C1253.67,-246.91 1271.54,-304.62 1312.5,-328.72 1342,-346.08 1359.82,-345.75 1389.5,-328.72 1428.05,-306.6 1448.92,-256.52 1458.59,-225.38"/>
<polygon fill="#4a5568" stroke="#4a5568" stroke-width="1.6" points="1461.47,-226.13 1461.02,-217.14 1455.76,-224.45 1461.47,-226.13"/>
</g>
<!-- https://w3id.org/min#Structura -->
<g id="node12" class="node">
<title>https://w3id.org/min#Structura</title>
<path fill="#e7f0ff" stroke="#2b6cb0" stroke-width="1.6" d="M1378,-216.72C1378,-216.72 1325,-216.72 1325,-216.72 1319,-216.72 1313,-210.72 1313,-204.72 1313,-204.72 1313,-192.72 1313,-192.72 1313,-186.72 1319,-180.72 1325,-180.72 1325,-180.72 1378,-180.72 1378,-180.72 1384,-180.72 1390,-186.72 1390,-192.72 1390,-192.72 1390,-204.72 1390,-204.72 1390,-210.72 1384,-216.72 1378,-216.72"/>
<text text-anchor="middle" x="1351.5" y="-195.62" font-family="Helvetica,sans-Serif" font-size="12.00" fill="#1a365d">Structura</text>
</g>
<!-- https://w3id.org/min#Forma&#45;&gt;https://w3id.org/min#Structura -->
<g id="edge13" class="edge">
<title>https://w3id.org/min#Forma&#45;&gt;https://w3id.org/min#Structura</title>
<path fill="none" stroke="#4a5568" stroke-width="1.6" d="M1273.03,-198.72C1283.41,-198.72 1293.79,-198.72 1304.16,-198.72"/>
<polygon fill="#4a5568" stroke="#4a5568" stroke-width="1.6" points="1304.38,-201.7 1312.88,-198.72 1304.38,-195.75 1304.38,-201.7"/>
</g>
<!-- https://w3id.org/min#Nexus&#45;&gt;https://w3id.org/min#Agent -->
<g id="edge14" class="edge">
<title>https://w3id.org/min#Nexus&#45;&gt;https://w3id.org/min#Agent</title>
<path fill="none" stroke="#4a5568" stroke-width="1.6" d="M1142.03,-217.16C1135.33,-246.91 1117.46,-304.62 1076.5,-328.72 1008.7,-368.61 790.3,-368.61 722.5,-328.72 685.34,-306.85 667.59,-257.06 659.83,-225.83"/>
<polygon fill="#4a5568" stroke="#4a5568" stroke-width="1.6" points="662.64,-224.78 657.81,-217.18 656.84,-226.13 662.64,-224.78"/>
</g>
<!-- https://w3id.org/min#Nexus&#45;&gt;https://w3id.org/min#Data -->
<g id="edge15" class="edge">
<title>https://w3id.org/min#Nexus&#45;&gt;https://w3id.org/min#Data</title>
<path fill="none" stroke="#4a5568" stroke-width="1.6" d="M1142.03,-217.16C1135.33,-246.91 1117.46,-304.62 1076.5,-328.72 1026.7,-358.02 866.3,-358.02 816.5,-328.72 779.45,-306.92 762.1,-257.1 754.6,-225.86"/>
<polygon fill="#4a5568" stroke="#4a5568" stroke-width="1.6" points="757.42,-224.83 752.66,-217.19 751.62,-226.14 757.42,-224.83"/>
</g>
<!-- https://w3id.org/min#Nexus&#45;&gt;https://w3id.org/min#Object -->
<g id="edge16" class="edge">
<title>https://w3id.org/min#Nexus&#45;&gt;https://w3id.org/min#Object</title>
<path fill="none" stroke="#4a5568" stroke-width="1.6" d="M1142.03,-217.16C1135.33,-246.91 1117.46,-304.62 1076.5,-328.72 1015.21,-364.78 977.79,-364.78 916.5,-328.72 879.1,-306.71 860.55,-256.96 852.28,-225.79"/>
<polygon fill="#4a5568" stroke="#4a5568" stroke-width="1.6" points="855.07,-224.67 850.12,-217.14 849.29,-226.11 855.07,-224.67"/>
</g>
<!-- https://w3id.org/min#Nexus&#45;&gt;https://w3id.org/min#Process -->
<g id="edge17" class="edge">
<title>https://w3id.org/min#Nexus&#45;&gt;https://w3id.org/min#Process</title>
<path fill="none" stroke="#4a5568" stroke-width="1.6" d="M1142.03,-217.16C1135.33,-246.91 1117.46,-304.62 1076.5,-328.72 1049.69,-344.5 1033.31,-344.5 1006.5,-328.72 970.35,-307.45 957.07,-257 952.23,-225.57"/>
<polygon fill="#4a5568" stroke="#4a5568" stroke-width="1.6" points="955.14,-224.88 951.03,-216.87 949.25,-225.69 955.14,-224.88"/>
</g>
<!-- __rank_anchor_min -->
<!-- __rank_anchor_sdata -->
<!-- __rank_anchor_min&#45;&gt;__rank_anchor_sdata -->
</g>
</svg>
