<?xml version="1.0" encoding="UTF-8" standalone="no"?>
<!DOCTYPE svg PUBLIC "-//W3C//DTD SVG 1.1//EN"
 "http://www.w3.org/Graphics/SVG/1.1/DTD/svg11.dtd">
<!-- Generated by graphviz version 2.43.0 (0)
 -->
<!-- Pages: 1 -->
<svg width="1602pt" height="671pt"
 viewBox="0.00 0.00 1602.40 671.40" xmlns="http://www.w3.org/2000/svg" xmlns:xlink="http://www.w3.org/1999/xlink">
<g id="graph0" class="graph" transform="scale(1 1) rotate(0) translate(25.2 646.2)">
<polygon fill="#fafbfc" stroke="transparent" points="-25.2,25.2 -25.2,-646.2 1577.2,-646.2 1577.2,25.2 -25.2,25.2"/>
<text text-anchor="middle" x="776" y="-601" font-family="Helvetica,sans-Serif" font-size="20.00">sdata Lifecycle Flow</text>
<g id="clust1" class="cluster">
<title>cluster_legend</title>
<path fill="#fafbfc" stroke="#cbd5e0" d="M20,-8C20,-8 625,-8 625,-8 631,-8 637,-14 637,-20 637,-20 637,-111 637,-111 637,-117 631,-123 625,-123 625,-123 20,-123 20,-123 14,-123 8,-117 8,-111 8,-111 8,-20 8,-20 8,-14 14,-8 20,-8"/>
<text text-anchor="middle" x="322.5" y="-103" font-family="Helvetica,sans-Serif" font-size="20.00">Legend</text>
</g>
<!-- legend_circular -->
<g id="node1" class="node">
<title>legend_circular</title>
<path fill="#e8f1ff" stroke="#2b6cb0" stroke-width="1.6" d="M362,-52C362,-52 284,-52 284,-52 278,-52 272,-46 272,-40 272,-40 272,-28 272,-28 272,-22 278,-16 284,-16 284,-16 362,-16 362,-16 368,-16 374,-22 374,-28 374,-28 374,-40 374,-40 374,-46 368,-52 362,-52"/>
<text text-anchor="middle" x="323" y="-30.9" font-family="Helvetica,sans-Serif" font-size="12.00" fill="#1a365d">circular stage</text>
</g>
<!-- legend_circular&#45;&gt;legend_circular -->
<g id="edge1" class="edge">
<title>legend_circular&#45;&gt;legend_circular</title>
<path fill="none" stroke="#2b6cb0" stroke-width="1.6" d="M305.33,-52.2C297.53,-67.7 303.42,-84 323,-84 339.06,-84 345.91,-73.03 343.55,-60.54"/>
<polygon fill="#2b6cb0" stroke="#2b6cb0" stroke-width="1.6" points="346.25,-59.26 340.67,-52.2 340.63,-61.21 346.25,-59.26"/>
<text text-anchor="middle" x="323" y="-87.8" font-family="Helvetica,sans-Serif" font-size="14.00">typicallyFollowedBy</text>
</g>
<!-- legend_terminal -->
<g id="node2" class="node">
<title>legend_terminal</title>
<path fill="#fff4e5" stroke="#b7791f" stroke-width="1.6" d="M617,-66C617,-66 534,-66 534,-66 528,-66 522,-60 522,-54 522,-54 522,-42 522,-42 522,-36 528,-30 534,-30 534,-30 617,-30 617,-30 623,-30 629,-36 629,-42 629,-42 629,-54 629,-54 629,-60 623,-66 617,-66"/>
<text text-anchor="middle" x="575.5" y="-44.9" font-family="Helvetica,sans-Serif" font-size="12.00" fill="#7b341e">terminal stage</text>
</g>
<!-- legend_circular&#45;&gt;legend_terminal -->
<g id="edge2" class="edge">
<title>legend_circular&#45;&gt;legend_terminal</title>
<path fill="none" stroke="#b7791f" stroke-width="1.6" stroke-dasharray="5,2" d="M374.09,-36.8C414.16,-39.04 470.52,-42.19 513.27,-44.58"/>
<polygon fill="#b7791f" stroke="#b7791f" stroke-width="1.6" points="513.25,-47.56 521.91,-45.06 513.59,-41.62 513.25,-47.56"/>
<text text-anchor="middle" x="447" y="-47.8" font-family="Helvetica,sans-Serif" font-size="14.00">terminal exit</text>
</g>
<!-- legend_cross -->
<g id="node3" class="node">
<title>legend_cross</title>
<path fill="#e7fff6" stroke="#2f855a" stroke-width="1.6" d="M138,-66C138,-66 28,-66 28,-66 22,-66 16,-60 16,-54 16,-54 16,-42 16,-42 16,-36 22,-30 28,-30 28,-30 138,-30 138,-30 144,-30 150,-36 150,-42 150,-42 150,-54 150,-54 150,-60 144,-66 138,-66"/>
<text text-anchor="middle" x="83" y="-44.9" font-family="Helvetica,sans-Serif" font-size="12.00" fill="#1c4532">cross&#45;cutting stage</text>
</g>
<!-- legend_cross&#45;&gt;legend_circular -->
<g id="edge3" class="edge">
<title>legend_cross&#45;&gt;legend_circular</title>
<path fill="none" stroke="#2f855a" stroke-width="1.6" stroke-dasharray="5,2" d="M150.3,-44.1C185.8,-42.01 229.15,-39.46 263.4,-37.45"/>
<polygon fill="#2f855a" stroke="#2f855a" stroke-width="1.6" points="263.6,-40.42 271.91,-36.95 263.25,-34.48 263.6,-40.42"/>
<text text-anchor="middle" x="211" y="-46.8" font-family="Helvetica,sans-Serif" font-size="14.00">observes</text>
</g>
<!-- https://w3id.org/sdata/core#Creation -->
<g id="node4" class="node">
<title>https://w3id.org/sdata/core#Creation</title>
<path fill="#e8f1ff" stroke="#2b6cb0" stroke-width="1.6" d="M346.5,-380C346.5,-380 299.5,-380 299.5,-380 293.5,-380 287.5,-374 287.5,-368 287.5,-368 287.5,-356 287.5,-356 287.5,-350 293.5,-344 299.5,-344 299.5,-344 346.5,-344 346.5,-344 352.5,-344 358.5,-350 358.5,-356 358.5,-356 358.5,-368 358.5,-368 358.5,-374 352.5,-380 346.5,-380"/>
<text text-anchor="middle" x="323" y="-358.9" font-family="Helvetica,sans-Serif" font-size="12.00" fill="#1a365d">Creation</text>
</g>
<!-- https://w3id.org/sdata/core#Destruction -->
<g id="node5" class="node">
<title>https://w3id.org/sdata/core#Destruction</title>
<path fill="#fff4e5" stroke="#b7791f" stroke-width="1.6" d="M1540,-410C1540,-410 1474,-410 1474,-410 1468,-410 1462,-404 1462,-398 1462,-398 1462,-386 1462,-386 1462,-380 1468,-374 1474,-374 1474,-374 1540,-374 1540,-374 1546,-374 1552,-380 1552,-386 1552,-386 1552,-398 1552,-398 1552,-404 1546,-410 1540,-410"/>
<text text-anchor="middle" x="1507" y="-388.9" font-family="Helvetica,sans-Serif" font-size="12.00" fill="#7b341e">Destruction</text>
</g>
<!-- https://w3id.org/sdata/core#Creation&#45;&gt;https://w3id.org/sdata/core#Destruction -->
<g id="edge4" class="edge">
<title>https://w3id.org/sdata/core#Creation&#45;&gt;https://w3id.org/sdata/core#Destruction</title>
<path fill="none" stroke="#b7791f" stroke-width="1.6" stroke-dasharray="5,2" d="M358.68,-379.77C363.97,-382.95 369.24,-386.4 374,-390 388.53,-401 387.97,-408.69 403,-419 471.75,-466.16 491.13,-495 574.5,-495 574.5,-495 574.5,-495 1273,-495 1351.39,-495 1432.93,-445.62 1475.67,-415.25"/>
<polygon fill="#b7791f" stroke="#b7791f" stroke-width="1.6" points="1477.54,-417.56 1482.69,-410.18 1474.06,-412.74 1477.54,-417.56"/>
<text text-anchor="middle" x="914" y="-498.8" font-family="Helvetica,sans-Serif" font-size="14.00">terminal exit</text>
</g>
<!-- https://w3id.org/sdata/core#Transformation -->
<g id="node6" class="node">
<title>https://w3id.org/sdata/core#Transformation</title>
<path fill="#e8f1ff" stroke="#2b6cb0" stroke-width="1.6" d="M619,-446C619,-446 532,-446 532,-446 526,-446 520,-440 520,-434 520,-434 520,-422 520,-422 520,-416 526,-410 532,-410 532,-410 619,-410 619,-410 625,-410 631,-416 631,-422 631,-422 631,-434 631,-434 631,-440 625,-446 619,-446"/>
<text text-anchor="middle" x="575.5" y="-424.9" font-family="Helvetica,sans-Serif" font-size="12.00" fill="#1a365d">Transformation</text>
</g>
<!-- https://w3id.org/sdata/core#Creation&#45;&gt;https://w3id.org/sdata/core#Transformation -->
<g id="edge5" class="edge">
<title>https://w3id.org/sdata/core#Creation&#45;&gt;https://w3id.org/sdata/core#Transformation</title>
<path fill="none" stroke="#2b6cb0" stroke-width="1.6" d="M358.57,-371.11C397.9,-381.47 462.95,-398.61 511.39,-411.37"/>
<polygon fill="#2b6cb0" stroke="#2b6cb0" stroke-width="1.6" points="510.64,-414.25 519.62,-413.54 512.16,-408.5 510.64,-414.25"/>
</g>
<!-- https://w3id.org/sdata/core#Transformation&#45;&gt;https://w3id.org/sdata/core#Destruction -->
<g id="edge18" class="edge">
<title>https://w3id.org/sdata/core#Transformation&#45;&gt;https://w3id.org/sdata/core#Destruction</title>
<path fill="none" stroke="#b7791f" stroke-width="1.6" stroke-dasharray="5,2" d="M631.07,-428.39C675.49,-428.67 739.79,-429 796,-429 796,-429 796,-429 1273,-429 1335.46,-429 1406.2,-415.87 1453.18,-405.25"/>
<polygon fill="#b7791f" stroke="#b7791f" stroke-width="1.6" points="1454.05,-408.1 1461.66,-403.3 1452.71,-402.31 1454.05,-408.1"/>
<text text-anchor="middle" x="1034.5" y="-432.8" font-family="Helvetica,sans-Serif" font-size="14.00">terminal exit</text>
</g>
<!-- https://w3id.org/sdata/core#Transfer -->
<g id="node10" class="node">
<title>https://w3id.org/sdata/core#Transfer</title>
<path fill="#e8f1ff" stroke="#2b6cb0" stroke-width="1.6" d="M819.5,-380C819.5,-380 774.5,-380 774.5,-380 768.5,-380 762.5,-374 762.5,-368 762.5,-368 762.5,-356 762.5,-356 762.5,-350 768.5,-344 774.5,-344 774.5,-344 819.5,-344 819.5,-344 825.5,-344 831.5,-350 831.5,-356 831.5,-356 831.5,-368 831.5,-368 831.5,-374 825.5,-380 819.5,-380"/>
<text text-anchor="middle" x="797" y="-358.9" font-family="Helvetica,sans-Serif" font-size="12.00" fill="#1a365d">Transfer</text>
</g>
<!-- https://w3id.org/sdata/core#Transformation&#45;&gt;https://w3id.org/sdata/core#Transfer -->
<g id="edge19" class="edge">
<title>https://w3id.org/sdata/core#Transformation&#45;&gt;https://w3id.org/sdata/core#Transfer</title>
<path fill="none" stroke="#2b6cb0" stroke-width="1.6" d="M631.04,-411.6C668.96,-400.2 718.78,-385.22 753.71,-374.72"/>
<polygon fill="#2b6cb0" stroke="#2b6cb0" stroke-width="1.6" points="754.97,-377.44 762.25,-372.15 753.25,-371.75 754.97,-377.44"/>
</g>
<!-- https://w3id.org/sdata/core#Observation -->
<g id="node7" class="node">
<title>https://w3id.org/sdata/core#Observation</title>
<path fill="#e7fff6" stroke="#2f855a" stroke-width="1.6" d="M117.5,-343C117.5,-343 48.5,-343 48.5,-343 42.5,-343 36.5,-337 36.5,-331 36.5,-331 36.5,-319 36.5,-319 36.5,-313 42.5,-307 48.5,-307 48.5,-307 117.5,-307 117.5,-307 123.5,-307 129.5,-313 129.5,-319 129.5,-319 129.5,-331 129.5,-331 129.5,-337 123.5,-343 117.5,-343"/>
<text text-anchor="middle" x="83" y="-321.9" font-family="Helvetica,sans-Serif" font-size="12.00" fill="#1c4532">Observation</text>
</g>
<!-- https://w3id.org/sdata/core#Observation&#45;&gt;https://w3id.org/sdata/core#Creation -->
<g id="edge6" class="edge">
<title>https://w3id.org/sdata/core#Observation&#45;&gt;https://w3id.org/sdata/core#Creation</title>
<path fill="none" stroke="#2f855a" stroke-width="1.6" stroke-dasharray="5,2" d="M129.61,-332.09C172.58,-338.77 236.49,-348.71 278.7,-355.27"/>
<polygon fill="#2f855a" stroke="#2f855a" stroke-width="1.6" points="278.5,-358.25 287.36,-356.61 279.41,-352.37 278.5,-358.25"/>
<text text-anchor="middle" x="211" y="-351.8" font-family="Helvetica,sans-Serif" font-size="14.00">observes</text>
</g>
<!-- https://w3id.org/sdata/core#Observation&#45;&gt;https://w3id.org/sdata/core#Destruction -->
<g id="edge7" class="edge">
<title>https://w3id.org/sdata/core#Observation&#45;&gt;https://w3id.org/sdata/core#Destruction</title>
<path fill="none" stroke="#b7791f" stroke-width="1.6" stroke-dasharray="5,2" d="M90.74,-343.05C113.52,-400.6 193.49,-576 322,-576 322,-576 322,-576 1273,-576 1374,-576 1456.89,-468.21 1490.22,-417.63"/>
<polygon fill="#b7791f" stroke="#b7791f" stroke-width="1.6" points="1492.83,-419.07 1494.96,-410.32 1487.84,-415.83 1492.83,-419.07"/>
<text text-anchor="middle" x="797" y="-579.8" font-family="Helvetica,sans-Serif" font-size="14.00">terminal exit</text>
</g>
<!-- https://w3id.org/sdata/core#Observation&#45;&gt;https://w3id.org/sdata/core#Transformation -->
<g id="edge11" class="edge">
<title>https://w3id.org/sdata/core#Observation&#45;&gt;https://w3id.org/sdata/core#Transformation</title>
<path fill="none" stroke="#2f855a" stroke-width="1.6" stroke-dasharray="5,2" d="M117.62,-343.2C135.49,-352.38 158.05,-363.19 179,-371 290.88,-412.7 431.1,-424.09 510.97,-427.08"/>
<polygon fill="#2f855a" stroke="#2f855a" stroke-width="1.6" points="511.34,-430.07 519.94,-427.39 511.54,-424.13 511.34,-430.07"/>
<text text-anchor="middle" x="323" y="-418.8" font-family="Helvetica,sans-Serif" font-size="14.00">observes</text>
</g>
<!-- https://w3id.org/sdata/core#Preservation -->
<g id="node8" class="node">
<title>https://w3id.org/sdata/core#Preservation</title>
<path fill="#e8f1ff" stroke="#2b6cb0" stroke-width="1.6" d="M1070,-299C1070,-299 999,-299 999,-299 993,-299 987,-293 987,-287 987,-287 987,-275 987,-275 987,-269 993,-263 999,-263 999,-263 1070,-263 1070,-263 1076,-263 1082,-269 1082,-275 1082,-275 1082,-287 1082,-287 1082,-293 1076,-299 1070,-299"/>
<text text-anchor="middle" x="1034.5" y="-277.9" font-family="Helvetica,sans-Serif" font-size="12.00" fill="#1a365d">Preservation</text>
</g>
<!-- https://w3id.org/sdata/core#Observation&#45;&gt;https://w3id.org/sdata/core#Preservation -->
<g id="edge8" class="edge">
<title>https://w3id.org/sdata/core#Observation&#45;&gt;https://w3id.org/sdata/core#Preservation</title>
<path fill="none" stroke="#2f855a" stroke-width="1.6" stroke-dasharray="5,2" d="M109.75,-306.94C151.99,-279.13 239.57,-229 322,-229 322,-229 322,-229 693,-229 794.65,-229 911.43,-251.93 978.43,-267.33"/>
<polygon fill="#2f855a" stroke="#2f855a" stroke-width="1.6" points="977.8,-270.24 986.75,-269.27 979.15,-264.44 977.8,-270.24"/>
<text text-anchor="middle" x="575.5" y="-232.8" font-family="Helvetica,sans-Serif" font-size="14.00">observes</text>
</g>
<!-- https://w3id.org/sdata/core#Recovery -->
<g id="node9" class="node">
<title>https://w3id.org/sdata/core#Recovery</title>
<path fill="#e8f1ff" stroke="#2b6cb0" stroke-width="1.6" d="M1298,-228C1298,-228 1246,-228 1246,-228 1240,-228 1234,-222 1234,-216 1234,-216 1234,-204 1234,-204 1234,-198 1240,-192 1246,-192 1246,-192 1298,-192 1298,-192 1304,-192 1310,-198 1310,-204 1310,-204 1310,-216 1310,-216 1310,-222 1304,-228 1298,-228"/>
<text text-anchor="middle" x="1272" y="-206.9" font-family="Helvetica,sans-Serif" font-size="12.00" fill="#1a365d">Recovery</text>
</g>
<!-- https://w3id.org/sdata/core#Observation&#45;&gt;https://w3id.org/sdata/core#Recovery -->
<g id="edge9" class="edge">
<title>https://w3id.org/sdata/core#Observation&#45;&gt;https://w3id.org/sdata/core#Recovery</title>
<path fill="none" stroke="#2f855a" stroke-width="1.6" stroke-dasharray="5,2" d="M96.01,-306.72C127.32,-261.5 216.44,-148 322,-148 322,-148 322,-148 1035.5,-148 1103.5,-148 1179.02,-172.47 1225.76,-190.67"/>
<polygon fill="#2f855a" stroke="#2f855a" stroke-width="1.6" points="1224.86,-193.51 1233.86,-193.87 1227.05,-187.98 1224.86,-193.51"/>
<text text-anchor="middle" x="692" y="-151.8" font-family="Helvetica,sans-Serif" font-size="14.00">observes</text>
</g>
<!-- https://w3id.org/sdata/core#Observation&#45;&gt;https://w3id.org/sdata/core#Transfer -->
<g id="edge10" class="edge">
<title>https://w3id.org/sdata/core#Observation&#45;&gt;https://w3id.org/sdata/core#Transfer</title>
<path fill="none" stroke="#2f855a" stroke-width="1.6" stroke-dasharray="5,2" d="M129.73,-324.48C186.9,-324.07 287.74,-324.08 374,-328 513.17,-334.32 677.6,-349.92 753.59,-357.59"/>
<polygon fill="#2f855a" stroke="#2f855a" stroke-width="1.6" points="753.65,-360.59 762.41,-358.49 754.25,-354.67 753.65,-360.59"/>
<text text-anchor="middle" x="447" y="-337.8" font-family="Helvetica,sans-Serif" font-size="14.00">observes</text>
</g>
<!-- https://w3id.org/sdata/core#Preservation&#45;&gt;https://w3id.org/sdata/core#Destruction -->
<g id="edge12" class="edge">
<title>https://w3id.org/sdata/core#Preservation&#45;&gt;https://w3id.org/sdata/core#Destruction</title>
<path fill="none" stroke="#b7791f" stroke-width="1.6" stroke-dasharray="5,2" d="M1082.12,-278.55C1158.75,-276.3 1314.6,-279.29 1433,-331 1452.25,-339.41 1470.39,-354.52 1483.77,-367.6"/>
<polygon fill="#b7791f" stroke="#b7791f" stroke-width="1.6" points="1481.85,-369.88 1489.95,-373.81 1486.07,-365.69 1481.85,-369.88"/>
<text text-anchor="middle" x="1272" y="-298.8" font-family="Helvetica,sans-Serif" font-size="14.00">terminal exit</text>
</g>
<!-- https://w3id.org/sdata/core#Preservation&#45;&gt;https://w3id.org/sdata/core#Recovery -->
<g id="edge13" class="edge">
<title>https://w3id.org/sdata/core#Preservation&#45;&gt;https://w3id.org/sdata/core#Recovery</title>
<path fill="none" stroke="#2b6cb0" stroke-width="1.6" d="M1082.03,-267.13C1114.76,-257.35 1159.58,-243.93 1199,-232 1207.53,-229.42 1216.63,-226.65 1225.38,-223.98"/>
<polygon fill="#2b6cb0" stroke="#2b6cb0" stroke-width="1.6" points="1226.38,-226.78 1233.64,-221.46 1224.64,-221.09 1226.38,-226.78"/>
</g>
<!-- https://w3id.org/sdata/core#Recovery&#45;&gt;https://w3id.org/sdata/core#Creation -->
<g id="edge14" class="edge">
<title>https://w3id.org/sdata/core#Recovery&#45;&gt;https://w3id.org/sdata/core#Creation</title>
<path fill="none" stroke="#2b6cb0" stroke-width="1.6" d="M1233.69,-214.19C1179.31,-220.45 1075.15,-233.01 987,-247 765.49,-282.17 712.49,-304.67 491,-340 449.11,-346.68 401.09,-352.85 367.32,-356.95"/>
<polygon fill="#2b6cb0" stroke="#2b6cb0" stroke-width="1.6" points="366.71,-354.03 358.62,-358 367.42,-359.93 366.71,-354.03"/>
</g>
<!-- https://w3id.org/sdata/core#Recovery&#45;&gt;https://w3id.org/sdata/core#Destruction -->
<g id="edge15" class="edge">
<title>https://w3id.org/sdata/core#Recovery&#45;&gt;https://w3id.org/sdata/core#Destruction</title>
<path fill="none" stroke="#b7791f" stroke-width="1.6" stroke-dasharray="5,2" d="M1310.13,-211.34C1345.23,-214.39 1397.64,-223.79 1433,-252 1469.63,-281.22 1489.89,-333.84 1499.31,-365.58"/>
<polygon fill="#b7791f" stroke="#b7791f" stroke-width="1.6" points="1496.5,-366.57 1501.68,-373.94 1502.22,-364.95 1496.5,-366.57"/>
<text text-anchor="middle" x="1389" y="-255.8" font-family="Helvetica,sans-Serif" font-size="14.00">terminal exit</text>
</g>
<!-- https://w3id.org/sdata/core#Transfer&#45;&gt;https://w3id.org/sdata/core#Destruction -->
<g id="edge16" class="edge">
<title>https://w3id.org/sdata/core#Transfer&#45;&gt;https://w3id.org/sdata/core#Destruction</title>
<path fill="none" stroke="#b7791f" stroke-width="1.6" stroke-dasharray="5,2" d="M831.67,-363.43C945.15,-368.24 1314.21,-383.87 1452.78,-389.74"/>
<polygon fill="#b7791f" stroke="#b7791f" stroke-width="1.6" points="1452.95,-392.73 1461.57,-390.12 1453.2,-386.78 1452.95,-392.73"/>
<text text-anchor="middle" x="1155" y="-381.8" font-family="Helvetica,sans-Serif" font-size="14.00">terminal exit</text>
</g>
<!-- https://w3id.org/sdata/core#Transfer&#45;&gt;https://w3id.org/sdata/core#Preservation -->
<g id="edge17" class="edge">
<title>https://w3id.org/sdata/core#Transfer&#45;&gt;https://w3id.org/sdata/core#Preservation</title>
<path fill="none" stroke="#2b6cb0" stroke-width="1.6" d="M827.34,-343.99C840.1,-336.72 855.44,-328.71 870,-323 905.06,-309.24 946.13,-298.71 978.33,-291.64"/>
<polygon fill="#2b6cb0" stroke="#2b6cb0" stroke-width="1.6" points="979.06,-294.52 986.74,-289.82 977.8,-288.71 979.06,-294.52"/>
</g>
</g>
</svg>
