<?xml version="1.0" encoding="UTF-8" standalone="no"?>
<!DOCTYPE svg PUBLIC "-//W3C//DTD SVG 1.1//EN"
 "http://www.w3.org/Graphics/SVG/1.1/DTD/svg11.dtd">
<!-- Generated by graphviz version 2.43.0 (0)
 -->
<!-- Pages: 1 -->
<svg width="2705pt" height="436pt"
 viewBox="0.00 0.00 2704.90 436.40" xmlns="http://www.w3.org/2000/svg" xmlns:xlink="http://www.w3.org/1999/xlink">
<g id="graph0" class="graph" transform="scale(1 1) rotate(0) translate(25.2 411.2)">
<polygon fill="#fafbfc" stroke="transparent" points="-25.2,25.2 -25.2,-411.2 2679.7,-411.2 2679.7,25.2 -25.2,25.2"/>
<text text-anchor="middle" x="1327.25" y="-366" font-family="Helvetica,sans-Serif" font-size="20.00">sdata Core + Processtypes Hierarchy (sdata&#45;only)</text>
<!-- https://w3id.org/sdata/core/Identifier -->
<g id="node1" class="node">
<title>https://w3id.org/sdata/core/Identifier</title>
<path fill="#e8f1ff" stroke="#2b6cb0" stroke-width="1.6" d="M514.5,-356C514.5,-356 463.5,-356 463.5,-356 457.5,-356 451.5,-350 451.5,-344 451.5,-344 451.5,-332 451.5,-332 451.5,-326 457.5,-320 463.5,-320 463.5,-320 514.5,-320 514.5,-320 520.5,-320 526.5,-326 526.5,-332 526.5,-332 526.5,-344 526.5,-344 526.5,-350 520.5,-356 514.5,-356"/>
<text text-anchor="middle" x="489" y="-334.9" font-family="Helvetica,sans-Serif" font-size="12.00" fill="#1a365d">Identifier</text>
</g>
<!-- https://w3id.org/sdata/core/Creation -->
<g id="node2" class="node">
<title>https://w3id.org/sdata/core/Creation</title>
<path fill="#eef8e7" stroke="#4f8a10" stroke-width="1.6" d="M512.5,-159C512.5,-159 465.5,-159 465.5,-159 459.5,-159 453.5,-153 453.5,-147 453.5,-147 453.5,-135 453.5,-135 453.5,-129 459.5,-123 465.5,-123 465.5,-123 512.5,-123 512.5,-123 518.5,-123 524.5,-129 524.5,-135 524.5,-135 524.5,-147 524.5,-147 524.5,-153 518.5,-159 512.5,-159"/>
<text text-anchor="middle" x="489" y="-137.9" font-family="Helvetica,sans-Serif" font-size="12.00" fill="#2f5d08">Creation</text>
</g>
<!-- https://w3id.org/sdata/core/Identifier&#45;&gt;https://w3id.org/sdata/core/Creation -->
<!-- https://w3id.org/sdata/core/InformationCreation -->
<g id="node7" class="node">
<title>https://w3id.org/sdata/core/InformationCreation</title>
<path fill="#eef8e7" stroke="#4f8a10" stroke-width="1.6" d="M132,-36C132,-36 12,-36 12,-36 6,-36 0,-30 0,-24 0,-24 0,-12 0,-12 0,-6 6,0 12,0 12,0 132,0 132,0 138,0 144,-6 144,-12 144,-12 144,-24 144,-24 144,-30 138,-36 132,-36"/>
<text text-anchor="middle" x="72" y="-14.9" font-family="Helvetica,sans-Serif" font-size="12.00" fill="#2f5d08">Information Creation</text>
</g>
<!-- https://w3id.org/sdata/core/Creation&#45;&gt;https://w3id.org/sdata/core/InformationCreation -->
<g id="edge21" class="edge">
<title>https://w3id.org/sdata/core/Creation&#45;&gt;https://w3id.org/sdata/core/InformationCreation</title>
<path fill="none" stroke="#4a5568" stroke-width="1.6" d="M453.28,-131.27C412.61,-121.2 344.26,-103.85 286,-87 233.51,-71.82 174.35,-52.88 131.56,-38.85"/>
<polygon fill="#4a5568" stroke="#4a5568" stroke-width="1.6" points="132.23,-35.93 123.23,-36.11 130.37,-41.59 132.23,-35.93"/>
</g>
<!-- https://w3id.org/sdata/core/MaterialCreation -->
<g id="node19" class="node">
<title>https://w3id.org/sdata/core/MaterialCreation</title>
<path fill="#eef8e7" stroke="#4f8a10" stroke-width="1.6" d="M1287.5,-36C1287.5,-36 1188.5,-36 1188.5,-36 1182.5,-36 1176.5,-30 1176.5,-24 1176.5,-24 1176.5,-12 1176.5,-12 1176.5,-6 1182.5,0 1188.5,0 1188.5,0 1287.5,0 1287.5,0 1293.5,0 1299.5,-6 1299.5,-12 1299.5,-12 1299.5,-24 1299.5,-24 1299.5,-30 1293.5,-36 1287.5,-36"/>
<text text-anchor="middle" x="1238" y="-14.9" font-family="Helvetica,sans-Serif" font-size="12.00" fill="#2f5d08">Material Creation</text>
</g>
<!-- https://w3id.org/sdata/core/Creation&#45;&gt;https://w3id.org/sdata/core/MaterialCreation -->
<g id="edge22" class="edge">
<title>https://w3id.org/sdata/core/Creation&#45;&gt;https://w3id.org/sdata/core/MaterialCreation</title>
<path fill="none" stroke="#4a5568" stroke-width="1.6" d="M524.51,-133.1C543.57,-129.62 567.5,-125.59 589,-123 811.08,-96.22 874.4,-142.87 1091,-87 1130.74,-76.75 1172.95,-56.08 1201.9,-40.21"/>
<polygon fill="#4a5568" stroke="#4a5568" stroke-width="1.6" points="1203.34,-42.81 1209.33,-36.08 1200.45,-37.61 1203.34,-42.81"/>
</g>
<!-- https://w3id.org/sdata/core/Information -->
<g id="node3" class="node">
<title>https://w3id.org/sdata/core/Information</title>
<path fill="#e8f1ff" stroke="#2b6cb0" stroke-width="1.6" d="M645,-356C645,-356 579,-356 579,-356 573,-356 567,-350 567,-344 567,-344 567,-332 567,-332 567,-326 573,-320 579,-320 579,-320 645,-320 645,-320 651,-320 657,-326 657,-332 657,-332 657,-344 657,-344 657,-350 651,-356 645,-356"/>
<text text-anchor="middle" x="612" y="-334.9" font-family="Helvetica,sans-Serif" font-size="12.00" fill="#1a365d">Information</text>
</g>
<!-- https://w3id.org/sdata/core/InformationAgent -->
<g id="node4" class="node">
<title>https://w3id.org/sdata/core/InformationAgent</title>
<path fill="#e8f1ff" stroke="#2b6cb0" stroke-width="1.6" d="M962.5,-356C962.5,-356 857.5,-356 857.5,-356 851.5,-356 845.5,-350 845.5,-344 845.5,-344 845.5,-332 845.5,-332 845.5,-326 851.5,-320 857.5,-320 857.5,-320 962.5,-320 962.5,-320 968.5,-320 974.5,-326 974.5,-332 974.5,-332 974.5,-344 974.5,-344 974.5,-350 968.5,-356 962.5,-356"/>
<text text-anchor="middle" x="910" y="-334.9" font-family="Helvetica,sans-Serif" font-size="12.00" fill="#1a365d">Information Agent</text>
</g>
<!-- https://w3id.org/sdata/core/InformationArtifact -->
<g id="node5" class="node">
<title>https://w3id.org/sdata/core/InformationArtifact</title>
<path fill="#e8f1ff" stroke="#2b6cb0" stroke-width="1.6" d="M1328,-356C1328,-356 1214,-356 1214,-356 1208,-356 1202,-350 1202,-344 1202,-344 1202,-332 1202,-332 1202,-326 1208,-320 1214,-320 1214,-320 1328,-320 1328,-320 1334,-320 1340,-326 1340,-332 1340,-332 1340,-344 1340,-344 1340,-350 1334,-356 1328,-356"/>
<text text-anchor="middle" x="1271" y="-334.9" font-family="Helvetica,sans-Serif" font-size="12.00" fill="#1a365d">Information Artifact</text>
</g>
<!-- https://w3id.org/sdata/core/InformationProcess -->
<g id="node6" class="node">
<title>https://w3id.org/sdata/core/InformationProcess</title>
<path fill="#e8f1ff" stroke="#2b6cb0" stroke-width="1.6" d="M736.5,-159C736.5,-159 621.5,-159 621.5,-159 615.5,-159 609.5,-153 609.5,-147 609.5,-147 609.5,-135 609.5,-135 609.5,-129 615.5,-123 621.5,-123 621.5,-123 736.5,-123 736.5,-123 742.5,-123 748.5,-129 748.5,-135 748.5,-135 748.5,-147 748.5,-147 748.5,-153 742.5,-159 736.5,-159"/>
<text text-anchor="middle" x="679" y="-137.9" font-family="Helvetica,sans-Serif" font-size="12.00" fill="#1a365d">Information Process</text>
</g>
<!-- https://w3id.org/sdata/core/InformationProcess&#45;&gt;https://w3id.org/sdata/core/InformationCreation -->
<g id="edge2" class="edge">
<title>https://w3id.org/sdata/core/InformationProcess&#45;&gt;https://w3id.org/sdata/core/InformationCreation</title>
<path fill="none" stroke="#4a5568" stroke-width="1.6" d="M609.37,-126.12C496.09,-103.54 272.52,-58.97 152.56,-35.06"/>
<polygon fill="#4a5568" stroke="#4a5568" stroke-width="1.6" points="153.02,-32.12 144.1,-33.37 151.86,-37.95 153.02,-32.12"/>
</g>
<!-- https://w3id.org/sdata/core/InformationDestruction -->
<g id="node8" class="node">
<title>https://w3id.org/sdata/core/InformationDestruction</title>
<path fill="#eef8e7" stroke="#4f8a10" stroke-width="1.6" d="M335.5,-36C335.5,-36 196.5,-36 196.5,-36 190.5,-36 184.5,-30 184.5,-24 184.5,-24 184.5,-12 184.5,-12 184.5,-6 190.5,0 196.5,0 196.5,0 335.5,0 335.5,0 341.5,0 347.5,-6 347.5,-12 347.5,-12 347.5,-24 347.5,-24 347.5,-30 341.5,-36 335.5,-36"/>
<text text-anchor="middle" x="266" y="-14.9" font-family="Helvetica,sans-Serif" font-size="12.00" fill="#2f5d08">Information Destruction</text>
</g>
<!-- https://w3id.org/sdata/core/InformationProcess&#45;&gt;https://w3id.org/sdata/core/InformationDestruction -->
<g id="edge3" class="edge">
<title>https://w3id.org/sdata/core/InformationProcess&#45;&gt;https://w3id.org/sdata/core/InformationDestruction</title>
<path fill="none" stroke="#4a5568" stroke-width="1.6" d="M620.7,-122.92C544.87,-100.7 412.66,-61.97 332.84,-38.58"/>
<polygon fill="#4a5568" stroke="#4a5568" stroke-width="1.6" points="333.33,-35.63 324.33,-36.09 331.65,-41.34 333.33,-35.63"/>
</g>
<!-- https://w3id.org/sdata/core/InformationObservation -->
<g id="node9" class="node">
<title>https://w3id.org/sdata/core/InformationObservation</title>
<path fill="#eef8e7" stroke="#4f8a10" stroke-width="1.6" d="M750.5,-36C750.5,-36 607.5,-36 607.5,-36 601.5,-36 595.5,-30 595.5,-24 595.5,-24 595.5,-12 595.5,-12 595.5,-6 601.5,0 607.5,0 607.5,0 750.5,0 750.5,0 756.5,0 762.5,-6 762.5,-12 762.5,-12 762.5,-24 762.5,-24 762.5,-30 756.5,-36 750.5,-36"/>
<text text-anchor="middle" x="679" y="-14.9" font-family="Helvetica,sans-Serif" font-size="12.00" fill="#2f5d08">Information Observation</text>
</g>
<!-- https://w3id.org/sdata/core/InformationProcess&#45;&gt;https://w3id.org/sdata/core/InformationObservation -->
<g id="edge4" class="edge">
<title>https://w3id.org/sdata/core/InformationProcess&#45;&gt;https://w3id.org/sdata/core/InformationObservation</title>
<path fill="none" stroke="#4a5568" stroke-width="1.6" d="M679,-122.92C679,-102.68 679,-68.73 679,-45.16"/>
<polygon fill="#4a5568" stroke="#4a5568" stroke-width="1.6" points="681.98,-44.88 679,-36.38 676.03,-44.88 681.98,-44.88"/>
</g>
<!-- https://w3id.org/sdata/core/InformationPreservation -->
<g id="node10" class="node">
<title>https://w3id.org/sdata/core/InformationPreservation</title>
<path fill="#eef8e7" stroke="#4f8a10" stroke-width="1.6" d="M544,-36C544,-36 400,-36 400,-36 394,-36 388,-30 388,-24 388,-24 388,-12 388,-12 388,-6 394,0 400,0 400,0 544,0 544,0 550,0 556,-6 556,-12 556,-12 556,-24 556,-24 556,-30 550,-36 544,-36"/>
<text text-anchor="middle" x="472" y="-14.9" font-family="Helvetica,sans-Serif" font-size="12.00" fill="#2f5d08">Information Preservation</text>
</g>
<!-- https://w3id.org/sdata/core/InformationProcess&#45;&gt;https://w3id.org/sdata/core/InformationPreservation -->
<g id="edge5" class="edge">
<title>https://w3id.org/sdata/core/InformationProcess&#45;&gt;https://w3id.org/sdata/core/InformationPreservation</title>
<path fill="none" stroke="#4a5568" stroke-width="1.6" d="M649.78,-122.92C612.9,-101.36 549.42,-64.26 509.14,-40.71"/>
<polygon fill="#4a5568" stroke="#4a5568" stroke-width="1.6" points="510.24,-37.91 501.4,-36.19 507.24,-43.05 510.24,-37.91"/>
</g>
<!-- https://w3id.org/sdata/core/InformationRecovery -->
<g id="node11" class="node">
<title>https://w3id.org/sdata/core/InformationRecovery</title>
<path fill="#eef8e7" stroke="#4f8a10" stroke-width="1.6" d="M1124,-36C1124,-36 998,-36 998,-36 992,-36 986,-30 986,-24 986,-24 986,-12 986,-12 986,-6 992,0 998,0 998,0 1124,0 1124,0 1130,0 1136,-6 1136,-12 1136,-12 1136,-24 1136,-24 1136,-30 1130,-36 1124,-36"/>
<text text-anchor="middle" x="1061" y="-14.9" font-family="Helvetica,sans-Serif" font-size="12.00" fill="#2f5d08">Information Recovery</text>
</g>
<!-- https://w3id.org/sdata/core/InformationProcess&#45;&gt;https://w3id.org/sdata/core/InformationRecovery -->
<g id="edge6" class="edge">
<title>https://w3id.org/sdata/core/InformationProcess&#45;&gt;https://w3id.org/sdata/core/InformationRecovery</title>
<path fill="none" stroke="#4a5568" stroke-width="1.6" d="M748.55,-128.59C796.37,-119.74 860.94,-105.81 916,-87 953.16,-74.3 993.44,-54.92 1022.1,-40.09"/>
<polygon fill="#4a5568" stroke="#4a5568" stroke-width="1.6" points="1023.71,-42.61 1029.86,-36.04 1020.95,-37.34 1023.71,-42.61"/>
</g>
<!-- https://w3id.org/sdata/core/InformationTransfer -->
<g id="node12" class="node">
<title>https://w3id.org/sdata/core/InformationTransfer</title>
<path fill="#eef8e7" stroke="#4f8a10" stroke-width="1.6" d="M933.5,-36C933.5,-36 814.5,-36 814.5,-36 808.5,-36 802.5,-30 802.5,-24 802.5,-24 802.5,-12 802.5,-12 802.5,-6 808.5,0 814.5,0 814.5,0 933.5,0 933.5,0 939.5,0 945.5,-6 945.5,-12 945.5,-12 945.5,-24 945.5,-24 945.5,-30 939.5,-36 933.5,-36"/>
<text text-anchor="middle" x="874" y="-14.9" font-family="Helvetica,sans-Serif" font-size="12.00" fill="#2f5d08">Information Transfer</text>
</g>
<!-- https://w3id.org/sdata/core/InformationProcess&#45;&gt;https://w3id.org/sdata/core/InformationTransfer -->
<g id="edge7" class="edge">
<title>https://w3id.org/sdata/core/InformationProcess&#45;&gt;https://w3id.org/sdata/core/InformationTransfer</title>
<path fill="none" stroke="#4a5568" stroke-width="1.6" d="M706.53,-122.92C741.27,-101.36 801.07,-64.26 839.02,-40.71"/>
<polygon fill="#4a5568" stroke="#4a5568" stroke-width="1.6" points="840.65,-43.2 846.3,-36.19 837.51,-38.14 840.65,-43.2"/>
</g>
<!-- https://w3id.org/sdata/core/InformationTransformation -->
<g id="node13" class="node">
<title>https://w3id.org/sdata/core/InformationTransformation</title>
<path fill="#eef8e7" stroke="#4f8a10" stroke-width="1.6" d="M2400,-36C2400,-36 2240,-36 2240,-36 2234,-36 2228,-30 2228,-24 2228,-24 2228,-12 2228,-12 2228,-6 2234,0 2240,0 2240,0 2400,0 2400,0 2406,0 2412,-6 2412,-12 2412,-12 2412,-24 2412,-24 2412,-30 2406,-36 2400,-36"/>
<text text-anchor="middle" x="2320" y="-14.9" font-family="Helvetica,sans-Serif" font-size="12.00" fill="#2f5d08">Information Transformation</text>
</g>
<!-- https://w3id.org/sdata/core/InformationProcess&#45;&gt;https://w3id.org/sdata/core/InformationTransformation -->
<g id="edge8" class="edge">
<title>https://w3id.org/sdata/core/InformationProcess&#45;&gt;https://w3id.org/sdata/core/InformationTransformation</title>
<path fill="none" stroke="#4a5568" stroke-width="1.6" d="M748.52,-127.09C758.71,-125.51 769.11,-124.08 779,-123 1101.47,-87.75 1184.21,-106.79 1508,-87 1819.35,-67.97 1898.01,-70.77 2208,-36 2211.63,-35.59 2215.32,-35.16 2219.04,-34.69"/>
<polygon fill="#4a5568" stroke="#4a5568" stroke-width="1.6" points="2219.73,-37.61 2227.79,-33.58 2218.98,-31.7 2219.73,-37.61"/>
</g>
<!-- https://w3id.org/sdata/core/InformationSite -->
<g id="node14" class="node">
<title>https://w3id.org/sdata/core/InformationSite</title>
<path fill="#e8f1ff" stroke="#2b6cb0" stroke-width="1.6" d="M1681.5,-356C1681.5,-356 1588.5,-356 1588.5,-356 1582.5,-356 1576.5,-350 1576.5,-344 1576.5,-344 1576.5,-332 1576.5,-332 1576.5,-326 1582.5,-320 1588.5,-320 1588.5,-320 1681.5,-320 1681.5,-320 1687.5,-320 1693.5,-326 1693.5,-332 1693.5,-332 1693.5,-344 1693.5,-344 1693.5,-350 1687.5,-356 1681.5,-356"/>
<text text-anchor="middle" x="1635" y="-334.9" font-family="Helvetica,sans-Serif" font-size="12.00" fill="#1a365d">Information Site</text>
</g>
<!-- https://w3id.org/sdata/core/Material -->
<g id="node15" class="node">
<title>https://w3id.org/sdata/core/Material</title>
<path fill="#e8f1ff" stroke="#2b6cb0" stroke-width="1.6" d="M793.5,-356C793.5,-356 748.5,-356 748.5,-356 742.5,-356 736.5,-350 736.5,-344 736.5,-344 736.5,-332 736.5,-332 736.5,-326 742.5,-320 748.5,-320 748.5,-320 793.5,-320 793.5,-320 799.5,-320 805.5,-326 805.5,-332 805.5,-332 805.5,-344 805.5,-344 805.5,-350 799.5,-356 793.5,-356"/>
<text text-anchor="middle" x="771" y="-334.9" font-family="Helvetica,sans-Serif" font-size="12.00" fill="#1a365d">Material</text>
</g>
<!-- https://w3id.org/sdata/core/Material&#45;&gt;https://w3id.org/sdata/core/Information -->
<g id="edge9" class="edge">
<title>https://w3id.org/sdata/core/Material&#45;&gt;https://w3id.org/sdata/core/Information</title>
<path fill="none" stroke="#6b7280" stroke-width="1.6" stroke-dasharray="5,2" d="M736.37,-338C713.13,-338 682.29,-338 657.14,-338"/>
<text text-anchor="middle" x="696.75" y="-344.8" font-family="Helvetica,sans-Serif" font-size="14.00" fill="#6b7280">dual</text>
</g>
<!-- https://w3id.org/sdata/core/MaterialAgent -->
<g id="node16" class="node">
<title>https://w3id.org/sdata/core/MaterialAgent</title>
<path fill="#e8f1ff" stroke="#2b6cb0" stroke-width="1.6" d="M1150,-356C1150,-356 1066,-356 1066,-356 1060,-356 1054,-350 1054,-344 1054,-344 1054,-332 1054,-332 1054,-326 1060,-320 1066,-320 1066,-320 1150,-320 1150,-320 1156,-320 1162,-326 1162,-332 1162,-332 1162,-344 1162,-344 1162,-350 1156,-356 1150,-356"/>
<text text-anchor="middle" x="1108" y="-334.9" font-family="Helvetica,sans-Serif" font-size="12.00" fill="#1a365d">Material Agent</text>
</g>
<!-- https://w3id.org/sdata/core/MaterialAgent&#45;&gt;https://w3id.org/sdata/core/InformationAgent -->
<g id="edge10" class="edge">
<title>https://w3id.org/sdata/core/MaterialAgent&#45;&gt;https://w3id.org/sdata/core/InformationAgent</title>
<path fill="none" stroke="#6b7280" stroke-width="1.6" stroke-dasharray="5,2" d="M1053.8,-338C1029.31,-338 1000.18,-338 974.56,-338"/>
<text text-anchor="middle" x="1014.25" y="-344.8" font-family="Helvetica,sans-Serif" font-size="14.00" fill="#6b7280">dual</text>
</g>
<!-- https://w3id.org/sdata/core/MaterialArtifact -->
<g id="node17" class="node">
<title>https://w3id.org/sdata/core/MaterialArtifact</title>
<path fill="#e8f1ff" stroke="#2b6cb0" stroke-width="1.6" d="M1524.5,-356C1524.5,-356 1431.5,-356 1431.5,-356 1425.5,-356 1419.5,-350 1419.5,-344 1419.5,-344 1419.5,-332 1419.5,-332 1419.5,-326 1425.5,-320 1431.5,-320 1431.5,-320 1524.5,-320 1524.5,-320 1530.5,-320 1536.5,-326 1536.5,-332 1536.5,-332 1536.5,-344 1536.5,-344 1536.5,-350 1530.5,-356 1524.5,-356"/>
<text text-anchor="middle" x="1478" y="-334.9" font-family="Helvetica,sans-Serif" font-size="12.00" fill="#1a365d">Material Artifact</text>
</g>
<!-- https://w3id.org/sdata/core/MaterialArtifact&#45;&gt;https://w3id.org/sdata/core/InformationArtifact -->
<g id="edge11" class="edge">
<title>https://w3id.org/sdata/core/MaterialArtifact&#45;&gt;https://w3id.org/sdata/core/InformationArtifact</title>
<path fill="none" stroke="#6b7280" stroke-width="1.6" stroke-dasharray="5,2" d="M1419.23,-338C1394.62,-338 1365.84,-338 1340.22,-338"/>
<text text-anchor="middle" x="1379.75" y="-344.8" font-family="Helvetica,sans-Serif" font-size="14.00" fill="#6b7280">dual</text>
</g>
<!-- https://w3id.org/sdata/core/MaterialProcess -->
<g id="node18" class="node">
<title>https://w3id.org/sdata/core/MaterialProcess</title>
<path fill="#e8f1ff" stroke="#2b6cb0" stroke-width="1.6" d="M1830,-159C1830,-159 1736,-159 1736,-159 1730,-159 1724,-153 1724,-147 1724,-147 1724,-135 1724,-135 1724,-129 1730,-123 1736,-123 1736,-123 1830,-123 1830,-123 1836,-123 1842,-129 1842,-135 1842,-135 1842,-147 1842,-147 1842,-153 1836,-159 1830,-159"/>
<text text-anchor="middle" x="1783" y="-137.9" font-family="Helvetica,sans-Serif" font-size="12.00" fill="#1a365d">Material Process</text>
</g>
<!-- https://w3id.org/sdata/core/MaterialProcess&#45;&gt;https://w3id.org/sdata/core/InformationProcess -->
<g id="edge12" class="edge">
<title>https://w3id.org/sdata/core/MaterialProcess&#45;&gt;https://w3id.org/sdata/core/InformationProcess</title>
<path fill="none" stroke="#6b7280" stroke-width="1.6" stroke-dasharray="5,2" d="M1723.79,-153.89C1713.88,-155.79 1703.67,-157.58 1694,-159 1291.66,-218.15 1181.95,-213.87 779,-159 769.12,-157.66 758.74,-156.03 748.54,-154.31"/>
<text text-anchor="middle" x="1236" y="-198.8" font-family="Helvetica,sans-Serif" font-size="14.00" fill="#6b7280">dual</text>
</g>
<!-- https://w3id.org/sdata/core/MaterialProcess&#45;&gt;https://w3id.org/sdata/core/MaterialCreation -->
<g id="edge13" class="edge">
<title>https://w3id.org/sdata/core/MaterialProcess&#45;&gt;https://w3id.org/sdata/core/MaterialCreation</title>
<path fill="none" stroke="#4a5568" stroke-width="1.6" d="M1723.75,-128.02C1713.84,-126.21 1703.64,-124.46 1694,-123 1552.06,-101.52 1510.6,-127.93 1373,-87 1336.83,-76.24 1298.7,-56.11 1272.22,-40.53"/>
<polygon fill="#4a5568" stroke="#4a5568" stroke-width="1.6" points="1273.56,-37.87 1264.73,-36.07 1270.51,-42.98 1273.56,-37.87"/>
</g>
<!-- https://w3id.org/sdata/core/MaterialDestruction -->
<g id="node20" class="node">
<title>https://w3id.org/sdata/core/MaterialDestruction</title>
<path fill="#eef8e7" stroke="#4f8a10" stroke-width="1.6" d="M1470,-36C1470,-36 1352,-36 1352,-36 1346,-36 1340,-30 1340,-24 1340,-24 1340,-12 1340,-12 1340,-6 1346,0 1352,0 1352,0 1470,0 1470,0 1476,0 1482,-6 1482,-12 1482,-12 1482,-24 1482,-24 1482,-30 1476,-36 1470,-36"/>
<text text-anchor="middle" x="1411" y="-14.9" font-family="Helvetica,sans-Serif" font-size="12.00" fill="#2f5d08">Material Destruction</text>
</g>
<!-- https://w3id.org/sdata/core/MaterialProcess&#45;&gt;https://w3id.org/sdata/core/MaterialDestruction -->
<g id="edge14" class="edge">
<title>https://w3id.org/sdata/core/MaterialProcess&#45;&gt;https://w3id.org/sdata/core/MaterialDestruction</title>
<path fill="none" stroke="#4a5568" stroke-width="1.6" d="M1730.49,-122.92C1662.32,-100.75 1543.58,-62.13 1471.65,-38.73"/>
<polygon fill="#4a5568" stroke="#4a5568" stroke-width="1.6" points="1472.55,-35.89 1463.54,-36.09 1470.71,-41.55 1472.55,-35.89"/>
</g>
<!-- https://w3id.org/sdata/core/MaterialObservation -->
<g id="node21" class="node">
<title>https://w3id.org/sdata/core/MaterialObservation</title>
<path fill="#eef8e7" stroke="#4f8a10" stroke-width="1.6" d="M1844,-36C1844,-36 1722,-36 1722,-36 1716,-36 1710,-30 1710,-24 1710,-24 1710,-12 1710,-12 1710,-6 1716,0 1722,0 1722,0 1844,0 1844,0 1850,0 1856,-6 1856,-12 1856,-12 1856,-24 1856,-24 1856,-30 1850,-36 1844,-36"/>
<text text-anchor="middle" x="1783" y="-14.9" font-family="Helvetica,sans-Serif" font-size="12.00" fill="#2f5d08">Material Observation</text>
</g>
<!-- https://w3id.org/sdata/core/MaterialProcess&#45;&gt;https://w3id.org/sdata/core/MaterialObservation -->
<g id="edge15" class="edge">
<title>https://w3id.org/sdata/core/MaterialProcess&#45;&gt;https://w3id.org/sdata/core/MaterialObservation</title>
<path fill="none" stroke="#4a5568" stroke-width="1.6" d="M1783,-122.92C1783,-102.68 1783,-68.73 1783,-45.16"/>
<polygon fill="#4a5568" stroke="#4a5568" stroke-width="1.6" points="1785.98,-44.88 1783,-36.38 1780.03,-44.88 1785.98,-44.88"/>
</g>
<!-- https://w3id.org/sdata/core/MaterialPreservation -->
<g id="node22" class="node">
<title>https://w3id.org/sdata/core/MaterialPreservation</title>
<path fill="#eef8e7" stroke="#4f8a10" stroke-width="1.6" d="M1657.5,-36C1657.5,-36 1534.5,-36 1534.5,-36 1528.5,-36 1522.5,-30 1522.5,-24 1522.5,-24 1522.5,-12 1522.5,-12 1522.5,-6 1528.5,0 1534.5,0 1534.5,0 1657.5,0 1657.5,0 1663.5,0 1669.5,-6 1669.5,-12 1669.5,-12 1669.5,-24 1669.5,-24 1669.5,-30 1663.5,-36 1657.5,-36"/>
<text text-anchor="middle" x="1596" y="-14.9" font-family="Helvetica,sans-Serif" font-size="12.00" fill="#2f5d08">Material Preservation</text>
</g>
<!-- https://w3id.org/sdata/core/MaterialProcess&#45;&gt;https://w3id.org/sdata/core/MaterialPreservation -->
<g id="edge16" class="edge">
<title>https://w3id.org/sdata/core/MaterialProcess&#45;&gt;https://w3id.org/sdata/core/MaterialPreservation</title>
<path fill="none" stroke="#4a5568" stroke-width="1.6" d="M1756.6,-122.92C1723.43,-101.45 1666.42,-64.57 1630.01,-41"/>
<polygon fill="#4a5568" stroke="#4a5568" stroke-width="1.6" points="1631.32,-38.31 1622.56,-36.19 1628.08,-43.3 1631.32,-38.31"/>
</g>
<!-- https://w3id.org/sdata/core/MaterialRecovery -->
<g id="node23" class="node">
<title>https://w3id.org/sdata/core/MaterialRecovery</title>
<path fill="#eef8e7" stroke="#4f8a10" stroke-width="1.6" d="M2175.5,-36C2175.5,-36 2070.5,-36 2070.5,-36 2064.5,-36 2058.5,-30 2058.5,-24 2058.5,-24 2058.5,-12 2058.5,-12 2058.5,-6 2064.5,0 2070.5,0 2070.5,0 2175.5,0 2175.5,0 2181.5,0 2187.5,-6 2187.5,-12 2187.5,-12 2187.5,-24 2187.5,-24 2187.5,-30 2181.5,-36 2175.5,-36"/>
<text text-anchor="middle" x="2123" y="-14.9" font-family="Helvetica,sans-Serif" font-size="12.00" fill="#2f5d08">Material Recovery</text>
</g>
<!-- https://w3id.org/sdata/core/MaterialProcess&#45;&gt;https://w3id.org/sdata/core/MaterialRecovery -->
<g id="edge17" class="edge">
<title>https://w3id.org/sdata/core/MaterialProcess&#45;&gt;https://w3id.org/sdata/core/MaterialRecovery</title>
<path fill="none" stroke="#4a5568" stroke-width="1.6" d="M1830.99,-122.92C1893.05,-100.84 2000.94,-62.44 2066.77,-39.01"/>
<polygon fill="#4a5568" stroke="#4a5568" stroke-width="1.6" points="2067.97,-41.74 2074.98,-36.09 2065.97,-36.14 2067.97,-41.74"/>
</g>
<!-- https://w3id.org/sdata/core/MaterialTransfer -->
<g id="node24" class="node">
<title>https://w3id.org/sdata/core/MaterialTransfer</title>
<path fill="#eef8e7" stroke="#4f8a10" stroke-width="1.6" d="M2006,-36C2006,-36 1908,-36 1908,-36 1902,-36 1896,-30 1896,-24 1896,-24 1896,-12 1896,-12 1896,-6 1902,0 1908,0 1908,0 2006,0 2006,0 2012,0 2018,-6 2018,-12 2018,-12 2018,-24 2018,-24 2018,-30 2012,-36 2006,-36"/>
<text text-anchor="middle" x="1957" y="-14.9" font-family="Helvetica,sans-Serif" font-size="12.00" fill="#2f5d08">Material Transfer</text>
</g>
<!-- https://w3id.org/sdata/core/MaterialProcess&#45;&gt;https://w3id.org/sdata/core/MaterialTransfer -->
<g id="edge18" class="edge">
<title>https://w3id.org/sdata/core/MaterialProcess&#45;&gt;https://w3id.org/sdata/core/MaterialTransfer</title>
<path fill="none" stroke="#4a5568" stroke-width="1.6" d="M1807.56,-122.92C1838.3,-101.54 1891.03,-64.87 1924.93,-41.3"/>
<polygon fill="#4a5568" stroke="#4a5568" stroke-width="1.6" points="1927,-43.48 1932.28,-36.19 1923.61,-38.6 1927,-43.48"/>
</g>
<!-- https://w3id.org/sdata/core/MaterialTransformation -->
<g id="node25" class="node">
<title>https://w3id.org/sdata/core/MaterialTransformation</title>
<path fill="#eef8e7" stroke="#4f8a10" stroke-width="1.6" d="M2642.5,-36C2642.5,-36 2503.5,-36 2503.5,-36 2497.5,-36 2491.5,-30 2491.5,-24 2491.5,-24 2491.5,-12 2491.5,-12 2491.5,-6 2497.5,0 2503.5,0 2503.5,0 2642.5,0 2642.5,0 2648.5,0 2654.5,-6 2654.5,-12 2654.5,-12 2654.5,-24 2654.5,-24 2654.5,-30 2648.5,-36 2642.5,-36"/>
<text text-anchor="middle" x="2573" y="-14.9" font-family="Helvetica,sans-Serif" font-size="12.00" fill="#2f5d08">Material Transformation</text>
</g>
<!-- https://w3id.org/sdata/core/MaterialProcess&#45;&gt;https://w3id.org/sdata/core/MaterialTransformation -->
<g id="edge19" class="edge">
<title>https://w3id.org/sdata/core/MaterialProcess&#45;&gt;https://w3id.org/sdata/core/MaterialTransformation</title>
<path fill="none" stroke="#4a5568" stroke-width="1.6" d="M1842.06,-130.95C1979.13,-109.96 2319.59,-57.81 2482.86,-32.81"/>
<polygon fill="#4a5568" stroke="#4a5568" stroke-width="1.6" points="2483.5,-35.72 2491.46,-31.49 2482.6,-29.84 2483.5,-35.72"/>
</g>
<!-- https://w3id.org/sdata/core/MaterialCreation&#45;&gt;https://w3id.org/sdata/core/InformationCreation -->
<g id="edge25" class="edge">
<title>https://w3id.org/sdata/core/MaterialCreation&#45;&gt;https://w3id.org/sdata/core/InformationCreation</title>
<path fill="none" stroke="#6b7280" stroke-width="1.6" stroke-dasharray="5,2" d="M1176.31,-32.06C1169.47,-33.46 1162.6,-34.81 1156,-36 1028.55,-59.01 996.69,-67.87 867.5,-77 555.08,-99.09 474.67,-75.69 164,-36 157.54,-35.18 150.86,-34.17 144.17,-33.06"/>
<text text-anchor="middle" x="852" y="-75.8" font-family="Helvetica,sans-Serif" font-size="14.00" fill="#6b7280">dual</text>
</g>
<!-- https://w3id.org/sdata/core/MaterialDestruction&#45;&gt;https://w3id.org/sdata/core/InformationDestruction -->
<g id="edge26" class="edge">
<title>https://w3id.org/sdata/core/MaterialDestruction&#45;&gt;https://w3id.org/sdata/core/InformationDestruction</title>
<path fill="none" stroke="#6b7280" stroke-width="1.6" stroke-dasharray="5,2" d="M1339.79,-32.62C1332.78,-33.85 1325.76,-35 1319,-36 900.84,-97.55 787.23,-89.8 368,-36 361.4,-35.15 354.58,-34.17 347.74,-33.12"/>
<text text-anchor="middle" x="891" y="-75.8" font-family="Helvetica,sans-Serif" font-size="14.00" fill="#6b7280">dual</text>
</g>
<!-- https://w3id.org/sdata/core/MaterialObservation&#45;&gt;https://w3id.org/sdata/core/InformationObservation -->
<g id="edge27" class="edge">
<title>https://w3id.org/sdata/core/MaterialObservation&#45;&gt;https://w3id.org/sdata/core/InformationObservation</title>
<path fill="none" stroke="#6b7280" stroke-width="1.6" stroke-dasharray="5,2" d="M1709.99,-32.68C1702.91,-33.89 1695.83,-35.02 1689,-36 1289.96,-93.12 1181.59,-89.17 782,-36 775.7,-35.16 769.2,-34.22 762.67,-33.21"/>
<text text-anchor="middle" x="1244" y="-75.8" font-family="Helvetica,sans-Serif" font-size="14.00" fill="#6b7280">dual</text>
</g>
<!-- https://w3id.org/sdata/core/MaterialPreservation&#45;&gt;https://w3id.org/sdata/core/InformationPreservation -->
<g id="edge28" class="edge">
<title>https://w3id.org/sdata/core/MaterialPreservation&#45;&gt;https://w3id.org/sdata/core/InformationPreservation</title>
<path fill="none" stroke="#6b7280" stroke-width="1.6" stroke-dasharray="5,2" d="M1522.47,-32.75C1515.57,-33.93 1508.66,-35.04 1502,-36 1094.22,-94.8 983.55,-89.21 575,-36 568.88,-35.2 562.57,-34.3 556.22,-33.33"/>
<text text-anchor="middle" x="1066" y="-75.8" font-family="Helvetica,sans-Serif" font-size="14.00" fill="#6b7280">dual</text>
</g>
<!-- https://w3id.org/sdata/core/MaterialRecovery&#45;&gt;https://w3id.org/sdata/core/InformationRecovery -->
<g id="edge29" class="edge">
<title>https://w3id.org/sdata/core/MaterialRecovery&#45;&gt;https://w3id.org/sdata/core/InformationRecovery</title>
<path fill="none" stroke="#6b7280" stroke-width="1.6" stroke-dasharray="5,2" d="M2058.19,-32.65C2051.39,-33.91 2044.57,-35.06 2038,-36 1786.36,-72.04 1721.17,-93.62 1467.5,-77 1351.15,-69.38 1217.61,-47.42 1136.29,-32.56"/>
<text text-anchor="middle" x="1483" y="-75.8" font-family="Helvetica,sans-Serif" font-size="14.00" fill="#6b7280">dual</text>
</g>
<!-- https://w3id.org/sdata/core/MaterialTransfer&#45;&gt;https://w3id.org/sdata/core/InformationTransfer -->
<g id="edge30" class="edge">
<title>https://w3id.org/sdata/core/MaterialTransfer&#45;&gt;https://w3id.org/sdata/core/InformationTransfer</title>
<path fill="none" stroke="#6b7280" stroke-width="1.6" stroke-dasharray="5,2" d="M1895.68,-32.51C1889.06,-33.81 1882.41,-35.01 1876,-36 1476.32,-97.89 1366.17,-94.66 966,-36 959.4,-35.03 952.55,-33.91 945.71,-32.71"/>
<text text-anchor="middle" x="1399" y="-75.8" font-family="Helvetica,sans-Serif" font-size="14.00" fill="#6b7280">dual</text>
</g>
<!-- https://w3id.org/sdata/core/MaterialTransformation&#45;&gt;https://w3id.org/sdata/core/InformationTransformation -->
<g id="edge31" class="edge">
<title>https://w3id.org/sdata/core/MaterialTransformation&#45;&gt;https://w3id.org/sdata/core/InformationTransformation</title>
<path fill="none" stroke="#6b7280" stroke-width="1.6" stroke-dasharray="5,2" d="M2491.48,-18C2466.15,-18 2438.05,-18 2412.05,-18"/>
<text text-anchor="middle" x="2451.75" y="-24.8" font-family="Helvetica,sans-Serif" font-size="14.00" fill="#6b7280">dual</text>
</g>
<!-- https://w3id.org/sdata/core/MaterialSite -->
<g id="node26" class="node">
<title>https://w3id.org/sdata/core/MaterialSite</title>
<path fill="#e8f1ff" stroke="#2b6cb0" stroke-width="1.6" d="M1857,-356C1857,-356 1785,-356 1785,-356 1779,-356 1773,-350 1773,-344 1773,-344 1773,-332 1773,-332 1773,-326 1779,-320 1785,-320 1785,-320 1857,-320 1857,-320 1863,-320 1869,-326 1869,-332 1869,-332 1869,-344 1869,-344 1869,-350 1863,-356 1857,-356"/>
<text text-anchor="middle" x="1821" y="-334.9" font-family="Helvetica,sans-Serif" font-size="12.00" fill="#1a365d">Material Site</text>
</g>
<!-- https://w3id.org/sdata/core/MaterialSite&#45;&gt;https://w3id.org/sdata/core/InformationSite -->
<g id="edge20" class="edge">
<title>https://w3id.org/sdata/core/MaterialSite&#45;&gt;https://w3id.org/sdata/core/InformationSite</title>
<path fill="none" stroke="#6b7280" stroke-width="1.6" stroke-dasharray="5,2" d="M1772.97,-338C1748.74,-338 1719.15,-338 1693.6,-338"/>
<text text-anchor="middle" x="1733.25" y="-344.8" font-family="Helvetica,sans-Serif" font-size="14.00" fill="#6b7280">dual</text>
</g>
<!-- https://w3id.org/sdata/core/Role -->
<g id="node27" class="node">
<title>https://w3id.org/sdata/core/Role</title>
<path fill="#e8f1ff" stroke="#2b6cb0" stroke-width="1.6" d="M1951,-356C1951,-356 1921,-356 1921,-356 1915,-356 1909,-350 1909,-344 1909,-344 1909,-332 1909,-332 1909,-326 1915,-320 1921,-320 1921,-320 1951,-320 1951,-320 1957,-320 1963,-326 1963,-332 1963,-332 1963,-344 1963,-344 1963,-350 1957,-356 1951,-356"/>
<text text-anchor="middle" x="1936" y="-334.9" font-family="Helvetica,sans-Serif" font-size="12.00" fill="#1a365d">Role</text>
</g>
<!-- https://w3id.org/sdata/core/Destruction -->
<g id="node28" class="node">
<title>https://w3id.org/sdata/core/Destruction</title>
<path fill="#eef8e7" stroke="#4f8a10" stroke-width="1.6" d="M877,-159C877,-159 811,-159 811,-159 805,-159 799,-153 799,-147 799,-147 799,-135 799,-135 799,-129 805,-123 811,-123 811,-123 877,-123 877,-123 883,-123 889,-129 889,-135 889,-135 889,-147 889,-147 889,-153 883,-159 877,-159"/>
<text text-anchor="middle" x="844" y="-137.9" font-family="Helvetica,sans-Serif" font-size="12.00" fill="#2f5d08">Destruction</text>
</g>
<!-- https://w3id.org/sdata/core/Destruction&#45;&gt;https://w3id.org/sdata/core/InformationDestruction -->
<g id="edge23" class="edge">
<title>https://w3id.org/sdata/core/Destruction&#45;&gt;https://w3id.org/sdata/core/InformationDestruction</title>
<path fill="none" stroke="#4a5568" stroke-width="1.6" d="M798.61,-129.72C788.54,-127.48 777.91,-125.14 768,-123 624.28,-92.04 457.02,-57.73 356.44,-37.29"/>
<polygon fill="#4a5568" stroke="#4a5568" stroke-width="1.6" points="356.74,-34.31 347.82,-35.54 355.55,-40.15 356.74,-34.31"/>
</g>
<!-- https://w3id.org/sdata/core/Destruction&#45;&gt;https://w3id.org/sdata/core/MaterialDestruction -->
<g id="edge24" class="edge">
<title>https://w3id.org/sdata/core/Destruction&#45;&gt;https://w3id.org/sdata/core/MaterialDestruction</title>
<path fill="none" stroke="#4a5568" stroke-width="1.6" d="M889.22,-135.97C982.18,-127.42 1191.84,-106.59 1261,-87 1300.77,-75.73 1343.47,-55.5 1373.09,-40.03"/>
<polygon fill="#4a5568" stroke="#4a5568" stroke-width="1.6" points="1374.59,-42.6 1380.71,-36 1371.81,-37.34 1374.59,-42.6"/>
</g>
<!-- https://w3id.org/sdata/core/Observation -->
<g id="node29" class="node">
<title>https://w3id.org/sdata/core/Observation</title>
<path fill="#eef8e7" stroke="#4f8a10" stroke-width="1.6" d="M1378.5,-159C1378.5,-159 1309.5,-159 1309.5,-159 1303.5,-159 1297.5,-153 1297.5,-147 1297.5,-147 1297.5,-135 1297.5,-135 1297.5,-129 1303.5,-123 1309.5,-123 1309.5,-123 1378.5,-123 1378.5,-123 1384.5,-123 1390.5,-129 1390.5,-135 1390.5,-135 1390.5,-147 1390.5,-147 1390.5,-153 1384.5,-159 1378.5,-159"/>
<text text-anchor="middle" x="1344" y="-137.9" font-family="Helvetica,sans-Serif" font-size="12.00" fill="#2f5d08">Observation</text>
</g>
<!-- https://w3id.org/sdata/core/Observation&#45;&gt;https://w3id.org/sdata/core/InformationObservation -->
<g id="edge32" class="edge">
<title>https://w3id.org/sdata/core/Observation&#45;&gt;https://w3id.org/sdata/core/InformationObservation</title>
<path fill="none" stroke="#4a5568" stroke-width="1.6" d="M1297.35,-132.07C1237.66,-121.87 1131.06,-103.51 1040,-87 948.64,-70.43 844.45,-50.72 771.56,-36.79"/>
<polygon fill="#4a5568" stroke="#4a5568" stroke-width="1.6" points="771.73,-33.8 762.83,-35.12 770.62,-39.64 771.73,-33.8"/>
</g>
<!-- https://w3id.org/sdata/core/Observation&#45;&gt;https://w3id.org/sdata/core/MaterialObservation -->
<g id="edge33" class="edge">
<title>https://w3id.org/sdata/core/Observation&#45;&gt;https://w3id.org/sdata/core/MaterialObservation</title>
<path fill="none" stroke="#4a5568" stroke-width="1.6" d="M1390.57,-127.17C1467.71,-105.9 1622.46,-63.25 1712.87,-38.33"/>
<polygon fill="#4a5568" stroke="#4a5568" stroke-width="1.6" points="1713.75,-41.17 1721.15,-36.05 1712.16,-35.44 1713.75,-41.17"/>
</g>
<!-- https://w3id.org/sdata/core/Preservation -->
<g id="node30" class="node">
<title>https://w3id.org/sdata/core/Preservation</title>
<path fill="#eef8e7" stroke="#4f8a10" stroke-width="1.6" d="M1167.5,-159C1167.5,-159 1096.5,-159 1096.5,-159 1090.5,-159 1084.5,-153 1084.5,-147 1084.5,-147 1084.5,-135 1084.5,-135 1084.5,-129 1090.5,-123 1096.5,-123 1096.5,-123 1167.5,-123 1167.5,-123 1173.5,-123 1179.5,-129 1179.5,-135 1179.5,-135 1179.5,-147 1179.5,-147 1179.5,-153 1173.5,-159 1167.5,-159"/>
<text text-anchor="middle" x="1132" y="-137.9" font-family="Helvetica,sans-Serif" font-size="12.00" fill="#2f5d08">Preservation</text>
</g>
<!-- https://w3id.org/sdata/core/Preservation&#45;&gt;https://w3id.org/sdata/core/InformationPreservation -->
<g id="edge34" class="edge">
<title>https://w3id.org/sdata/core/Preservation&#45;&gt;https://w3id.org/sdata/core/InformationPreservation</title>
<path fill="none" stroke="#4a5568" stroke-width="1.6" d="M1084.25,-132.01C1024,-121.86 917.23,-103.66 826,-87 737.26,-70.79 636.22,-51.28 564.87,-37.32"/>
<polygon fill="#4a5568" stroke="#4a5568" stroke-width="1.6" points="565.23,-34.36 556.32,-35.65 564.09,-40.2 565.23,-34.36"/>
</g>
<!-- https://w3id.org/sdata/core/Preservation&#45;&gt;https://w3id.org/sdata/core/MaterialPreservation -->
<g id="edge35" class="edge">
<title>https://w3id.org/sdata/core/Preservation&#45;&gt;https://w3id.org/sdata/core/MaterialPreservation</title>
<path fill="none" stroke="#4a5568" stroke-width="1.6" d="M1179.57,-133.75C1236.46,-125.67 1334.25,-109.88 1416,-87 1462.21,-74.07 1513.23,-54.24 1549.12,-39.33"/>
<polygon fill="#4a5568" stroke="#4a5568" stroke-width="1.6" points="1550.3,-42.06 1556.99,-36.03 1548,-36.57 1550.3,-42.06"/>
</g>
<!-- https://w3id.org/sdata/core/Recovery -->
<g id="node31" class="node">
<title>https://w3id.org/sdata/core/Recovery</title>
<path fill="#eef8e7" stroke="#4f8a10" stroke-width="1.6" d="M1662,-159C1662,-159 1610,-159 1610,-159 1604,-159 1598,-153 1598,-147 1598,-147 1598,-135 1598,-135 1598,-129 1604,-123 1610,-123 1610,-123 1662,-123 1662,-123 1668,-123 1674,-129 1674,-135 1674,-135 1674,-147 1674,-147 1674,-153 1668,-159 1662,-159"/>
<text text-anchor="middle" x="1636" y="-137.9" font-family="Helvetica,sans-Serif" font-size="12.00" fill="#2f5d08">Recovery</text>
</g>
<!-- https://w3id.org/sdata/core/Recovery&#45;&gt;https://w3id.org/sdata/core/InformationRecovery -->
<g id="edge36" class="edge">
<title>https://w3id.org/sdata/core/Recovery&#45;&gt;https://w3id.org/sdata/core/InformationRecovery</title>
<path fill="none" stroke="#4a5568" stroke-width="1.6" d="M1597.67,-130.8C1585.09,-128 1571,-125.12 1558,-123 1411.95,-99.21 1370.43,-123.4 1227,-87 1183.17,-75.88 1135.66,-55.5 1102.74,-39.94"/>
<polygon fill="#4a5568" stroke="#4a5568" stroke-width="1.6" points="1103.65,-37.07 1094.7,-36.09 1101.09,-42.44 1103.65,-37.07"/>
</g>
<!-- https://w3id.org/sdata/core/Recovery&#45;&gt;https://w3id.org/sdata/core/MaterialRecovery -->
<g id="edge37" class="edge">
<title>https://w3id.org/sdata/core/Recovery&#45;&gt;https://w3id.org/sdata/core/MaterialRecovery</title>
<path fill="none" stroke="#4a5568" stroke-width="1.6" d="M1674.12,-130.46C1683.86,-128.02 1694.32,-125.41 1704,-123 1825.29,-92.79 1966.37,-57.8 2049.98,-37.08"/>
<polygon fill="#4a5568" stroke="#4a5568" stroke-width="1.6" points="2050.86,-39.93 2058.39,-35 2049.42,-34.16 2050.86,-39.93"/>
</g>
<!-- https://w3id.org/sdata/core/Transfer -->
<g id="node32" class="node">
<title>https://w3id.org/sdata/core/Transfer</title>
<path fill="#eef8e7" stroke="#4f8a10" stroke-width="1.6" d="M1526.5,-159C1526.5,-159 1481.5,-159 1481.5,-159 1475.5,-159 1469.5,-153 1469.5,-147 1469.5,-147 1469.5,-135 1469.5,-135 1469.5,-129 1475.5,-123 1481.5,-123 1481.5,-123 1526.5,-123 1526.5,-123 1532.5,-123 1538.5,-129 1538.5,-135 1538.5,-135 1538.5,-147 1538.5,-147 1538.5,-153 1532.5,-159 1526.5,-159"/>
<text text-anchor="middle" x="1504" y="-137.9" font-family="Helvetica,sans-Serif" font-size="12.00" fill="#2f5d08">Transfer</text>
</g>
<!-- https://w3id.org/sdata/core/Transfer&#45;&gt;https://w3id.org/sdata/core/InformationTransfer -->
<g id="edge38" class="edge">
<title>https://w3id.org/sdata/core/Transfer&#45;&gt;https://w3id.org/sdata/core/InformationTransfer</title>
<path fill="none" stroke="#4a5568" stroke-width="1.6" d="M1469.22,-133.46C1451.51,-130.19 1429.63,-126.25 1410,-123 1304.02,-105.44 1276.54,-107 1171,-87 1095.43,-72.68 1009.88,-52.69 950.08,-38.09"/>
<polygon fill="#4a5568" stroke="#4a5568" stroke-width="1.6" points="950.78,-35.2 941.82,-36.06 949.36,-40.98 950.78,-35.2"/>
</g>
<!-- https://w3id.org/sdata/core/Transfer&#45;&gt;https://w3id.org/sdata/core/MaterialTransfer -->
<g id="edge39" class="edge">
<title>https://w3id.org/sdata/core/Transfer&#45;&gt;https://w3id.org/sdata/core/MaterialTransfer</title>
<path fill="none" stroke="#4a5568" stroke-width="1.6" d="M1538.79,-130.71C1613.18,-110.84 1788.89,-63.9 1887.24,-37.63"/>
<polygon fill="#4a5568" stroke="#4a5568" stroke-width="1.6" points="1888.19,-40.46 1895.64,-35.39 1886.66,-34.71 1888.19,-40.46"/>
</g>
<!-- https://w3id.org/sdata/core/Transformation -->
<g id="node33" class="node">
<title>https://w3id.org/sdata/core/Transformation</title>
<path fill="#eef8e7" stroke="#4f8a10" stroke-width="1.6" d="M2489.5,-159C2489.5,-159 2402.5,-159 2402.5,-159 2396.5,-159 2390.5,-153 2390.5,-147 2390.5,-147 2390.5,-135 2390.5,-135 2390.5,-129 2396.5,-123 2402.5,-123 2402.5,-123 2489.5,-123 2489.5,-123 2495.5,-123 2501.5,-129 2501.5,-135 2501.5,-135 2501.5,-147 2501.5,-147 2501.5,-153 2495.5,-159 2489.5,-159"/>
<text text-anchor="middle" x="2446" y="-137.9" font-family="Helvetica,sans-Serif" font-size="12.00" fill="#2f5d08">Transformation</text>
</g>
<!-- https://w3id.org/sdata/core/Transformation&#45;&gt;https://w3id.org/sdata/core/InformationTransformation -->
<g id="edge40" class="edge">
<title>https://w3id.org/sdata/core/Transformation&#45;&gt;https://w3id.org/sdata/core/InformationTransformation</title>
<path fill="none" stroke="#4a5568" stroke-width="1.6" d="M2428.21,-122.92C2406.3,-101.87 2368.94,-66 2344.37,-42.4"/>
<polygon fill="#4a5568" stroke="#4a5568" stroke-width="1.6" points="2346.29,-40.13 2338.1,-36.38 2342.17,-44.42 2346.29,-40.13"/>
</g>
<!-- https://w3id.org/sdata/core/Transformation&#45;&gt;https://w3id.org/sdata/core/MaterialTransformation -->
<g id="edge41" class="edge">
<title>https://w3id.org/sdata/core/Transformation&#45;&gt;https://w3id.org/sdata/core/MaterialTransformation</title>
<path fill="none" stroke="#4a5568" stroke-width="1.6" d="M2463.93,-122.92C2486.02,-101.87 2523.67,-66 2548.44,-42.4"/>
<polygon fill="#4a5568" stroke="#4a5568" stroke-width="1.6" points="2550.65,-44.4 2554.75,-36.38 2546.55,-40.09 2550.65,-44.4"/>
</g>
</g>
</svg>
