<?xml version="1.0" encoding="UTF-8" standalone="no"?>
<!DOCTYPE svg PUBLIC "-//W3C//DTD SVG 1.1//EN"
 "http://www.w3.org/Graphics/SVG/1.1/DTD/svg11.dtd">
<!-- Generated by graphviz version 2.43.0 (0)
 -->
<!-- Pages: 1 -->
<svg width="1133pt" height="757pt"
 viewBox="0.00 0.00 1133.40 757.40" xmlns="http://www.w3.org/2000/svg" xmlns:xlink="http://www.w3.org/1999/xlink">
<g id="graph0" class="graph" transform="scale(1 1) rotate(0) translate(25.2 732.2)">
<polygon fill="#fafbfc" stroke="transparent" points="-25.2,25.2 -25.2,-732.2 1108.2,-732.2 1108.2,25.2 -25.2,25.2"/>
<text text-anchor="middle" x="541.5" y="-687" font-family="Helvetica,sans-Serif" font-size="20.00">sdata Class Hierarchy (BFO/PROV base hierarchy &#45;&gt; sdata classes)</text>
<g id="clust1" class="cluster">
<title>cluster_legend</title>
<path fill="#fafbfc" stroke="#cbd5e0" d="M20,-464C20,-464 236,-464 236,-464 242,-464 248,-470 248,-476 248,-476 248,-657 248,-657 248,-663 242,-669 236,-669 236,-669 20,-669 20,-669 14,-669 8,-663 8,-657 8,-657 8,-476 8,-476 8,-470 14,-464 20,-464"/>
<text text-anchor="middle" x="128" y="-649" font-family="Helvetica,sans-Serif" font-size="20.00">Legend</text>
</g>
<g id="clust2" class="cluster">
<title>cluster_prov_context</title>
<path fill="#fafbfc" stroke="#9ad9bf" d="M88,-127C88,-127 236,-127 236,-127 242,-127 248,-133 248,-139 248,-139 248,-197 248,-197 248,-203 242,-209 236,-209 236,-209 88,-209 88,-209 82,-209 76,-203 76,-197 76,-197 76,-139 76,-139 76,-133 82,-127 88,-127"/>
<text text-anchor="middle" x="162" y="-189" font-family="Helvetica,sans-Serif" font-size="20.00">PROV hierarchy</text>
</g>
<g id="clust3" class="cluster">
<title>cluster_bfo_context</title>
<path fill="#fafbfc" stroke="#f3c887" d="M268,-127C268,-127 1054,-127 1054,-127 1060,-127 1066,-133 1066,-139 1066,-139 1066,-657 1066,-657 1066,-663 1060,-669 1054,-669 1054,-669 268,-669 268,-669 262,-669 256,-663 256,-657 256,-657 256,-139 256,-139 256,-133 262,-127 268,-127"/>
<text text-anchor="middle" x="661" y="-649" font-family="Helvetica,sans-Serif" font-size="20.00">BFO hierarchy</text>
</g>
<g id="clust4" class="cluster">
<title>cluster_sdata</title>
<path fill="#fafbfc" stroke="#90b5e8" d="M193,-8C193,-8 1063,-8 1063,-8 1069,-8 1075,-14 1075,-20 1075,-20 1075,-78 1075,-78 1075,-84 1069,-90 1063,-90 1063,-90 193,-90 193,-90 187,-90 181,-84 181,-78 181,-78 181,-20 181,-20 181,-14 187,-8 193,-8"/>
<text text-anchor="middle" x="628" y="-70" font-family="Helvetica,sans-Serif" font-size="20.00">sdata classes</text>
</g>
<!-- legend_sdata -->
<g id="node1" class="node">
<title>legend_sdata</title>
<path fill="#e8f1ff" stroke="#2b6cb0" stroke-width="1.6" d="M103.5,-508C103.5,-508 40.5,-508 40.5,-508 34.5,-508 28.5,-502 28.5,-496 28.5,-496 28.5,-484 28.5,-484 28.5,-478 34.5,-472 40.5,-472 40.5,-472 103.5,-472 103.5,-472 109.5,-472 115.5,-478 115.5,-484 115.5,-484 115.5,-496 115.5,-496 115.5,-502 109.5,-508 103.5,-508"/>
<text text-anchor="middle" x="72" y="-486.9" font-family="Helvetica,sans-Serif" font-size="12.00" fill="#1a365d">sdata class</text>
</g>
<!-- legend_bfo -->
<g id="node2" class="node">
<title>legend_bfo</title>
<path fill="#fff4e5" stroke="#b7791f" stroke-width="1.6" d="M228,-631C228,-631 164,-631 164,-631 158,-631 152,-625 152,-619 152,-619 152,-607 152,-607 152,-601 158,-595 164,-595 164,-595 228,-595 228,-595 234,-595 240,-601 240,-607 240,-607 240,-619 240,-619 240,-625 234,-631 228,-631"/>
<text text-anchor="middle" x="196" y="-609.9" font-family="Helvetica,sans-Serif" font-size="12.00" fill="#7b341e">BFO parent</text>
</g>
<!-- legend_bfo&#45;&gt;legend_sdata -->
<g id="edge1" class="edge">
<title>legend_bfo&#45;&gt;legend_sdata</title>
<path fill="none" stroke="#4a5568" stroke-width="1.6" d="M151.76,-599.05C130.6,-590.76 106.56,-577.93 91,-559 81.23,-547.11 76.48,-530.54 74.16,-516.73"/>
<polygon fill="#4a5568" stroke="#4a5568" stroke-width="1.6" points="77.09,-516.14 72.97,-508.13 71.19,-516.96 77.09,-516.14"/>
<text text-anchor="middle" x="168.5" y="-547.8" font-family="Helvetica,sans-Serif" font-size="14.00">superclass → subclass</text>
</g>
<!-- legend_prov -->
<g id="node3" class="node">
<title>legend_prov</title>
<path fill="#e7fff6" stroke="#2f855a" stroke-width="1.6" d="M100,-631C100,-631 28,-631 28,-631 22,-631 16,-625 16,-619 16,-619 16,-607 16,-607 16,-601 22,-595 28,-595 28,-595 100,-595 100,-595 106,-595 112,-601 112,-607 112,-607 112,-619 112,-619 112,-625 106,-631 100,-631"/>
<text text-anchor="middle" x="64" y="-609.9" font-family="Helvetica,sans-Serif" font-size="12.00" fill="#1c4532">PROV parent</text>
</g>
<!-- legend_prov&#45;&gt;legend_sdata -->
<g id="edge2" class="edge">
<title>legend_prov&#45;&gt;legend_sdata</title>
<path fill="none" stroke="#4a5568" stroke-width="1.6" d="M53.7,-594.78C46.79,-581.1 39.68,-561.44 44,-544 46.42,-534.26 50.99,-524.33 55.75,-515.74"/>
<polygon fill="#4a5568" stroke="#4a5568" stroke-width="1.6" points="58.39,-517.11 60.11,-508.28 53.25,-514.11 58.39,-517.11"/>
</g>
<!-- http://www.w3.org/ns/prov#Agent -->
<g id="node4" class="node">
<title>http://www.w3.org/ns/prov#Agent</title>
<path fill="#e7fff6" stroke="#2f855a" stroke-width="1.6" d="M228,-171C228,-171 196,-171 196,-171 190,-171 184,-165 184,-159 184,-159 184,-147 184,-147 184,-141 190,-135 196,-135 196,-135 228,-135 228,-135 234,-135 240,-141 240,-147 240,-147 240,-159 240,-159 240,-165 234,-171 228,-171"/>
<text text-anchor="middle" x="212" y="-149.9" font-family="Helvetica,sans-Serif" font-size="12.00" fill="#1c4532">Agent</text>
</g>
<!-- https://w3id.org/sdata/core#Agent -->
<g id="node17" class="node">
<title>https://w3id.org/sdata/core#Agent</title>
<path fill="#e8f1ff" stroke="#2b6cb0" stroke-width="1.6" d="M233,-52C233,-52 201,-52 201,-52 195,-52 189,-46 189,-40 189,-40 189,-28 189,-28 189,-22 195,-16 201,-16 201,-16 233,-16 233,-16 239,-16 245,-22 245,-28 245,-28 245,-40 245,-40 245,-46 239,-52 233,-52"/>
<text text-anchor="middle" x="217" y="-30.9" font-family="Helvetica,sans-Serif" font-size="12.00" fill="#1a365d">Agent</text>
</g>
<!-- http://www.w3.org/ns/prov#Agent&#45;&gt;https://w3id.org/sdata/core#Agent -->
<g id="edge21" class="edge">
<title>http://www.w3.org/ns/prov#Agent&#45;&gt;https://w3id.org/sdata/core#Agent</title>
<path fill="none" stroke="#4a5568" stroke-width="1.6" d="M212.73,-134.99C213.56,-115.49 214.93,-83.33 215.9,-60.76"/>
<polygon fill="#4a5568" stroke="#4a5568" stroke-width="1.6" points="218.88,-60.65 216.27,-52.03 212.94,-60.4 218.88,-60.65"/>
</g>
<!-- http://purl.obolibrary.org/obo/BFO_0000001 -->
<g id="node5" class="node">
<title>http://purl.obolibrary.org/obo/BFO_0000001</title>
<path fill="#fff4e5" stroke="#b7791f" stroke-width="1.6" d="M802,-631C802,-631 772,-631 772,-631 766,-631 760,-625 760,-619 760,-619 760,-607 760,-607 760,-601 766,-595 772,-595 772,-595 802,-595 802,-595 808,-595 814,-601 814,-607 814,-607 814,-619 814,-619 814,-625 808,-631 802,-631"/>
<text text-anchor="middle" x="787" y="-609.9" font-family="Helvetica,sans-Serif" font-size="12.00" fill="#7b341e">entity</text>
</g>
<!-- http://purl.obolibrary.org/obo/BFO_0000002 -->
<g id="node6" class="node">
<title>http://purl.obolibrary.org/obo/BFO_0000002</title>
<path fill="#fff4e5" stroke="#b7791f" stroke-width="1.6" d="M727,-508C727,-508 667,-508 667,-508 661,-508 655,-502 655,-496 655,-496 655,-484 655,-484 655,-478 661,-472 667,-472 667,-472 727,-472 727,-472 733,-472 739,-478 739,-484 739,-484 739,-496 739,-496 739,-502 733,-508 727,-508"/>
<text text-anchor="middle" x="697" y="-486.9" font-family="Helvetica,sans-Serif" font-size="12.00" fill="#7b341e">continuant</text>
</g>
<!-- http://purl.obolibrary.org/obo/BFO_0000001&#45;&gt;http://purl.obolibrary.org/obo/BFO_0000002 -->
<g id="edge3" class="edge">
<title>http://purl.obolibrary.org/obo/BFO_0000001&#45;&gt;http://purl.obolibrary.org/obo/BFO_0000002</title>
<path fill="none" stroke="#4a5568" stroke-width="1.6" d="M774.3,-594.92C758.84,-574.14 732.64,-538.91 715.08,-515.31"/>
<polygon fill="#4a5568" stroke="#4a5568" stroke-width="1.6" points="717.39,-513.43 709.93,-508.38 712.62,-516.98 717.39,-513.43"/>
</g>
<!-- http://purl.obolibrary.org/obo/BFO_0000003 -->
<g id="node7" class="node">
<title>http://purl.obolibrary.org/obo/BFO_0000003</title>
<path fill="#fff4e5" stroke="#b7791f" stroke-width="1.6" d="M904,-508C904,-508 850,-508 850,-508 844,-508 838,-502 838,-496 838,-496 838,-484 838,-484 838,-478 844,-472 850,-472 850,-472 904,-472 904,-472 910,-472 916,-478 916,-484 916,-484 916,-496 916,-496 916,-502 910,-508 904,-508"/>
<text text-anchor="middle" x="877" y="-486.9" font-family="Helvetica,sans-Serif" font-size="12.00" fill="#7b341e">occurrent</text>
</g>
<!-- http://purl.obolibrary.org/obo/BFO_0000001&#45;&gt;http://purl.obolibrary.org/obo/BFO_0000003 -->
<g id="edge4" class="edge">
<title>http://purl.obolibrary.org/obo/BFO_0000001&#45;&gt;http://purl.obolibrary.org/obo/BFO_0000003</title>
<path fill="none" stroke="#4a5568" stroke-width="1.6" d="M799.7,-594.92C815.16,-574.14 841.36,-538.91 858.92,-515.31"/>
<polygon fill="#4a5568" stroke="#4a5568" stroke-width="1.6" points="861.38,-516.98 864.07,-508.38 856.61,-513.43 861.38,-516.98"/>
</g>
<!-- http://purl.obolibrary.org/obo/BFO_0000004 -->
<g id="node8" class="node">
<title>http://purl.obolibrary.org/obo/BFO_0000004</title>
<path fill="#fff4e5" stroke="#b7791f" stroke-width="1.6" d="M677.5,-399C677.5,-399 538.5,-399 538.5,-399 532.5,-399 526.5,-393 526.5,-387 526.5,-387 526.5,-375 526.5,-375 526.5,-369 532.5,-363 538.5,-363 538.5,-363 677.5,-363 677.5,-363 683.5,-363 689.5,-369 689.5,-375 689.5,-375 689.5,-387 689.5,-387 689.5,-393 683.5,-399 677.5,-399"/>
<text text-anchor="middle" x="608" y="-377.9" font-family="Helvetica,sans-Serif" font-size="12.00" fill="#7b341e">independent continuant</text>
</g>
<!-- http://purl.obolibrary.org/obo/BFO_0000002&#45;&gt;http://purl.obolibrary.org/obo/BFO_0000004 -->
<g id="edge5" class="edge">
<title>http://purl.obolibrary.org/obo/BFO_0000002&#45;&gt;http://purl.obolibrary.org/obo/BFO_0000004</title>
<path fill="none" stroke="#4a5568" stroke-width="1.6" d="M682.7,-471.81C667.84,-453.95 644.48,-425.86 627.84,-405.86"/>
<polygon fill="#4a5568" stroke="#4a5568" stroke-width="1.6" points="629.99,-403.78 622.26,-399.15 625.41,-407.59 629.99,-403.78"/>
</g>
<!-- http://purl.obolibrary.org/obo/BFO_0000020 -->
<g id="node11" class="node">
<title>http://purl.obolibrary.org/obo/BFO_0000020</title>
<path fill="#fff4e5" stroke="#b7791f" stroke-width="1.6" d="M474,-399C474,-399 276,-399 276,-399 270,-399 264,-393 264,-387 264,-387 264,-375 264,-375 264,-369 270,-363 276,-363 276,-363 474,-363 474,-363 480,-363 486,-369 486,-375 486,-375 486,-387 486,-387 486,-393 480,-399 474,-399"/>
<text text-anchor="middle" x="375" y="-377.9" font-family="Helvetica,sans-Serif" font-size="12.00" fill="#7b341e">specifically dependent continuant</text>
</g>
<!-- http://purl.obolibrary.org/obo/BFO_0000002&#45;&gt;http://purl.obolibrary.org/obo/BFO_0000020 -->
<g id="edge6" class="edge">
<title>http://purl.obolibrary.org/obo/BFO_0000002&#45;&gt;http://purl.obolibrary.org/obo/BFO_0000020</title>
<path fill="none" stroke="#4a5568" stroke-width="1.6" d="M654.9,-475.01C598.7,-456.34 498.82,-423.14 434.81,-401.88"/>
<polygon fill="#4a5568" stroke="#4a5568" stroke-width="1.6" points="435.42,-398.94 426.41,-399.08 433.54,-404.59 435.42,-398.94"/>
</g>
<!-- http://purl.obolibrary.org/obo/BFO_0000031 -->
<g id="node14" class="node">
<title>http://purl.obolibrary.org/obo/BFO_0000031</title>
<path fill="#fff4e5" stroke="#b7791f" stroke-width="1.6" d="M940,-399C940,-399 742,-399 742,-399 736,-399 730,-393 730,-387 730,-387 730,-375 730,-375 730,-369 736,-363 742,-363 742,-363 940,-363 940,-363 946,-363 952,-369 952,-375 952,-375 952,-387 952,-387 952,-393 946,-399 940,-399"/>
<text text-anchor="middle" x="841" y="-377.9" font-family="Helvetica,sans-Serif" font-size="12.00" fill="#7b341e">generically dependent continuant</text>
</g>
<!-- http://purl.obolibrary.org/obo/BFO_0000002&#45;&gt;http://purl.obolibrary.org/obo/BFO_0000031 -->
<g id="edge7" class="edge">
<title>http://purl.obolibrary.org/obo/BFO_0000002&#45;&gt;http://purl.obolibrary.org/obo/BFO_0000031</title>
<path fill="none" stroke="#4a5568" stroke-width="1.6" d="M720.14,-471.81C744.8,-453.48 783.96,-424.38 810.99,-404.3"/>
<polygon fill="#4a5568" stroke="#4a5568" stroke-width="1.6" points="812.87,-406.61 817.92,-399.15 809.32,-401.83 812.87,-406.61"/>
</g>
<!-- http://purl.obolibrary.org/obo/BFO_0000015 -->
<g id="node9" class="node">
<title>http://purl.obolibrary.org/obo/BFO_0000015</title>
<path fill="#fff4e5" stroke="#b7791f" stroke-width="1.6" d="M1046,-399C1046,-399 1004,-399 1004,-399 998,-399 992,-393 992,-387 992,-387 992,-375 992,-375 992,-369 998,-363 1004,-363 1004,-363 1046,-363 1046,-363 1052,-363 1058,-369 1058,-375 1058,-375 1058,-387 1058,-387 1058,-393 1052,-399 1046,-399"/>
<text text-anchor="middle" x="1025" y="-377.9" font-family="Helvetica,sans-Serif" font-size="12.00" fill="#7b341e">process</text>
</g>
<!-- http://purl.obolibrary.org/obo/BFO_0000003&#45;&gt;http://purl.obolibrary.org/obo/BFO_0000015 -->
<g id="edge8" class="edge">
<title>http://purl.obolibrary.org/obo/BFO_0000003&#45;&gt;http://purl.obolibrary.org/obo/BFO_0000015</title>
<path fill="none" stroke="#4a5568" stroke-width="1.6" d="M900.78,-471.81C926.13,-453.48 966.38,-424.38 994.15,-404.3"/>
<polygon fill="#4a5568" stroke="#4a5568" stroke-width="1.6" points="996.13,-406.54 1001.28,-399.15 992.65,-401.72 996.13,-406.54"/>
</g>
<!-- http://purl.obolibrary.org/obo/BFO_0000040 -->
<g id="node15" class="node">
<title>http://purl.obolibrary.org/obo/BFO_0000040</title>
<path fill="#fff4e5" stroke="#b7791f" stroke-width="1.6" d="M679,-290C679,-290 595,-290 595,-290 589,-290 583,-284 583,-278 583,-278 583,-266 583,-266 583,-260 589,-254 595,-254 595,-254 679,-254 679,-254 685,-254 691,-260 691,-266 691,-266 691,-278 691,-278 691,-284 685,-290 679,-290"/>
<text text-anchor="middle" x="637" y="-268.9" font-family="Helvetica,sans-Serif" font-size="12.00" fill="#7b341e">material entity</text>
</g>
<!-- http://purl.obolibrary.org/obo/BFO_0000004&#45;&gt;http://purl.obolibrary.org/obo/BFO_0000040 -->
<g id="edge9" class="edge">
<title>http://purl.obolibrary.org/obo/BFO_0000004&#45;&gt;http://purl.obolibrary.org/obo/BFO_0000040</title>
<path fill="none" stroke="#4a5568" stroke-width="1.6" d="M612.66,-362.81C617.37,-345.42 624.72,-318.33 630.1,-298.45"/>
<polygon fill="#4a5568" stroke="#4a5568" stroke-width="1.6" points="633,-299.13 632.35,-290.15 627.26,-297.57 633,-299.13"/>
</g>
<!-- http://purl.obolibrary.org/obo/BFO_0000141 -->
<g id="node16" class="node">
<title>http://purl.obolibrary.org/obo/BFO_0000141</title>
<path fill="#fff4e5" stroke="#b7791f" stroke-width="1.6" d="M530.5,-290C530.5,-290 431.5,-290 431.5,-290 425.5,-290 419.5,-284 419.5,-278 419.5,-278 419.5,-266 419.5,-266 419.5,-260 425.5,-254 431.5,-254 431.5,-254 530.5,-254 530.5,-254 536.5,-254 542.5,-260 542.5,-266 542.5,-266 542.5,-278 542.5,-278 542.5,-284 536.5,-290 530.5,-290"/>
<text text-anchor="middle" x="481" y="-268.9" font-family="Helvetica,sans-Serif" font-size="12.00" fill="#7b341e">immaterial entity</text>
</g>
<!-- http://purl.obolibrary.org/obo/BFO_0000004&#45;&gt;http://purl.obolibrary.org/obo/BFO_0000141 -->
<g id="edge10" class="edge">
<title>http://purl.obolibrary.org/obo/BFO_0000004&#45;&gt;http://purl.obolibrary.org/obo/BFO_0000141</title>
<path fill="none" stroke="#4a5568" stroke-width="1.6" d="M587.6,-362.81C566.02,-344.64 531.89,-315.88 508.08,-295.82"/>
<polygon fill="#4a5568" stroke="#4a5568" stroke-width="1.6" points="509.77,-293.35 501.35,-290.15 505.94,-297.9 509.77,-293.35"/>
</g>
<!-- https://w3id.org/sdata/core#Process -->
<g id="node22" class="node">
<title>https://w3id.org/sdata/core#Process</title>
<path fill="#e8f1ff" stroke="#2b6cb0" stroke-width="1.6" d="M1055,-52C1055,-52 1013,-52 1013,-52 1007,-52 1001,-46 1001,-40 1001,-40 1001,-28 1001,-28 1001,-22 1007,-16 1013,-16 1013,-16 1055,-16 1055,-16 1061,-16 1067,-22 1067,-28 1067,-28 1067,-40 1067,-40 1067,-46 1061,-52 1055,-52"/>
<text text-anchor="middle" x="1034" y="-30.9" font-family="Helvetica,sans-Serif" font-size="12.00" fill="#1a365d">Process</text>
</g>
<!-- http://purl.obolibrary.org/obo/BFO_0000015&#45;&gt;https://w3id.org/sdata/core#Process -->
<g id="edge11" class="edge">
<title>http://purl.obolibrary.org/obo/BFO_0000015&#45;&gt;https://w3id.org/sdata/core#Process</title>
<path fill="none" stroke="#4a5568" stroke-width="1.6" d="M1025.45,-362.89C1026.91,-306.79 1031.57,-128.18 1033.32,-60.94"/>
<polygon fill="#4a5568" stroke="#4a5568" stroke-width="1.6" points="1036.3,-60.79 1033.55,-52.21 1030.36,-60.63 1036.3,-60.79"/>
</g>
<!-- http://purl.obolibrary.org/obo/BFO_0000017 -->
<g id="node10" class="node">
<title>http://purl.obolibrary.org/obo/BFO_0000017</title>
<path fill="#fff4e5" stroke="#b7791f" stroke-width="1.6" d="M367.5,-290C367.5,-290 276.5,-290 276.5,-290 270.5,-290 264.5,-284 264.5,-278 264.5,-278 264.5,-266 264.5,-266 264.5,-260 270.5,-254 276.5,-254 276.5,-254 367.5,-254 367.5,-254 373.5,-254 379.5,-260 379.5,-266 379.5,-266 379.5,-278 379.5,-278 379.5,-284 373.5,-290 367.5,-290"/>
<text text-anchor="middle" x="322" y="-268.9" font-family="Helvetica,sans-Serif" font-size="12.00" fill="#7b341e">realizable entity</text>
</g>
<!-- http://purl.obolibrary.org/obo/BFO_0000023 -->
<g id="node12" class="node">
<title>http://purl.obolibrary.org/obo/BFO_0000023</title>
<path fill="#fff4e5" stroke="#b7791f" stroke-width="1.6" d="M328,-171C328,-171 298,-171 298,-171 292,-171 286,-165 286,-159 286,-159 286,-147 286,-147 286,-141 292,-135 298,-135 298,-135 328,-135 328,-135 334,-135 340,-141 340,-147 340,-147 340,-159 340,-159 340,-165 334,-171 328,-171"/>
<text text-anchor="middle" x="313" y="-149.9" font-family="Helvetica,sans-Serif" font-size="12.00" fill="#7b341e">role</text>
</g>
<!-- http://purl.obolibrary.org/obo/BFO_0000017&#45;&gt;http://purl.obolibrary.org/obo/BFO_0000023 -->
<g id="edge12" class="edge">
<title>http://purl.obolibrary.org/obo/BFO_0000017&#45;&gt;http://purl.obolibrary.org/obo/BFO_0000023</title>
<path fill="none" stroke="#4a5568" stroke-width="1.6" d="M320.69,-253.99C319.19,-234.49 316.72,-202.33 314.98,-179.76"/>
<polygon fill="#4a5568" stroke="#4a5568" stroke-width="1.6" points="317.93,-179.28 314.31,-171.03 312,-179.74 317.93,-179.28"/>
</g>
<!-- http://purl.obolibrary.org/obo/BFO_0000020&#45;&gt;http://purl.obolibrary.org/obo/BFO_0000017 -->
<g id="edge13" class="edge">
<title>http://purl.obolibrary.org/obo/BFO_0000020&#45;&gt;http://purl.obolibrary.org/obo/BFO_0000017</title>
<path fill="none" stroke="#4a5568" stroke-width="1.6" d="M366.48,-362.81C357.79,-345.26 344.21,-317.84 334.34,-297.91"/>
<polygon fill="#4a5568" stroke="#4a5568" stroke-width="1.6" points="336.93,-296.45 330.49,-290.15 331.6,-299.09 336.93,-296.45"/>
</g>
<!-- https://w3id.org/sdata/core#Role -->
<g id="node23" class="node">
<title>https://w3id.org/sdata/core#Role</title>
<path fill="#e8f1ff" stroke="#2b6cb0" stroke-width="1.6" d="M327,-52C327,-52 297,-52 297,-52 291,-52 285,-46 285,-40 285,-40 285,-28 285,-28 285,-22 291,-16 297,-16 297,-16 327,-16 327,-16 333,-16 339,-22 339,-28 339,-28 339,-40 339,-40 339,-46 333,-52 327,-52"/>
<text text-anchor="middle" x="312" y="-30.9" font-family="Helvetica,sans-Serif" font-size="12.00" fill="#1a365d">Role</text>
</g>
<!-- http://purl.obolibrary.org/obo/BFO_0000023&#45;&gt;https://w3id.org/sdata/core#Role -->
<g id="edge14" class="edge">
<title>http://purl.obolibrary.org/obo/BFO_0000023&#45;&gt;https://w3id.org/sdata/core#Role</title>
<path fill="none" stroke="#4a5568" stroke-width="1.6" d="M312.85,-134.99C312.69,-115.49 312.41,-83.33 312.22,-60.76"/>
<polygon fill="#4a5568" stroke="#4a5568" stroke-width="1.6" points="315.19,-60.51 312.15,-52.03 309.24,-60.56 315.19,-60.51"/>
</g>
<!-- http://purl.obolibrary.org/obo/BFO_0000029 -->
<g id="node13" class="node">
<title>http://purl.obolibrary.org/obo/BFO_0000029</title>
<path fill="#fff4e5" stroke="#b7791f" stroke-width="1.6" d="M459,-171C459,-171 429,-171 429,-171 423,-171 417,-165 417,-159 417,-159 417,-147 417,-147 417,-141 423,-135 429,-135 429,-135 459,-135 459,-135 465,-135 471,-141 471,-147 471,-147 471,-159 471,-159 471,-165 465,-171 459,-171"/>
<text text-anchor="middle" x="444" y="-149.9" font-family="Helvetica,sans-Serif" font-size="12.00" fill="#7b341e">site</text>
</g>
<!-- https://w3id.org/sdata/core#Site -->
<g id="node24" class="node">
<title>https://w3id.org/sdata/core#Site</title>
<path fill="#e8f1ff" stroke="#2b6cb0" stroke-width="1.6" d="M421,-52C421,-52 391,-52 391,-52 385,-52 379,-46 379,-40 379,-40 379,-28 379,-28 379,-22 385,-16 391,-16 391,-16 421,-16 421,-16 427,-16 433,-22 433,-28 433,-28 433,-40 433,-40 433,-46 427,-52 421,-52"/>
<text text-anchor="middle" x="406" y="-30.9" font-family="Helvetica,sans-Serif" font-size="12.00" fill="#1a365d">Site</text>
</g>
<!-- http://purl.obolibrary.org/obo/BFO_0000029&#45;&gt;https://w3id.org/sdata/core#Site -->
<g id="edge15" class="edge">
<title>http://purl.obolibrary.org/obo/BFO_0000029&#45;&gt;https://w3id.org/sdata/core#Site</title>
<path fill="none" stroke="#4a5568" stroke-width="1.6" d="M438.47,-134.99C432.09,-115.32 421.51,-82.76 414.17,-60.16"/>
<polygon fill="#4a5568" stroke="#4a5568" stroke-width="1.6" points="416.99,-59.2 411.53,-52.03 411.33,-61.04 416.99,-59.2"/>
</g>
<!-- https://w3id.org/sdata/core#DigitalArtifact -->
<g id="node18" class="node">
<title>https://w3id.org/sdata/core#DigitalArtifact</title>
<path fill="#e8f1ff" stroke="#2b6cb0" stroke-width="1.6" d="M949,-52C949,-52 867,-52 867,-52 861,-52 855,-46 855,-40 855,-40 855,-28 855,-28 855,-22 861,-16 867,-16 867,-16 949,-16 949,-16 955,-16 961,-22 961,-28 961,-28 961,-40 961,-40 961,-46 955,-52 949,-52"/>
<text text-anchor="middle" x="908" y="-30.9" font-family="Helvetica,sans-Serif" font-size="12.00" fill="#1a365d">Digital Artifact</text>
</g>
<!-- http://purl.obolibrary.org/obo/BFO_0000031&#45;&gt;https://w3id.org/sdata/core#DigitalArtifact -->
<g id="edge16" class="edge">
<title>http://purl.obolibrary.org/obo/BFO_0000031&#45;&gt;https://w3id.org/sdata/core#DigitalArtifact</title>
<path fill="none" stroke="#4a5568" stroke-width="1.6" d="M849,-362.67C853.41,-352.47 858.66,-339.22 862,-327 888.35,-230.56 901.24,-111.81 905.89,-60.55"/>
<polygon fill="#4a5568" stroke="#4a5568" stroke-width="1.6" points="908.85,-60.79 906.64,-52.06 902.93,-60.27 908.85,-60.79"/>
</g>
<!-- https://w3id.org/sdata/core#Identifier -->
<g id="node19" class="node">
<title>https://w3id.org/sdata/core#Identifier</title>
<path fill="#e8f1ff" stroke="#2b6cb0" stroke-width="1.6" d="M802.5,-52C802.5,-52 751.5,-52 751.5,-52 745.5,-52 739.5,-46 739.5,-40 739.5,-40 739.5,-28 739.5,-28 739.5,-22 745.5,-16 751.5,-16 751.5,-16 802.5,-16 802.5,-16 808.5,-16 814.5,-22 814.5,-28 814.5,-28 814.5,-40 814.5,-40 814.5,-46 808.5,-52 802.5,-52"/>
<text text-anchor="middle" x="777" y="-30.9" font-family="Helvetica,sans-Serif" font-size="12.00" fill="#1a365d">Identifier</text>
</g>
<!-- http://purl.obolibrary.org/obo/BFO_0000031&#45;&gt;https://w3id.org/sdata/core#Identifier -->
<g id="edge17" class="edge">
<title>http://purl.obolibrary.org/obo/BFO_0000031&#45;&gt;https://w3id.org/sdata/core#Identifier</title>
<path fill="none" stroke="#4a5568" stroke-width="1.6" d="M837.83,-362.89C827.42,-306.79 794.29,-128.18 781.81,-60.94"/>
<polygon fill="#4a5568" stroke="#4a5568" stroke-width="1.6" points="784.67,-60.03 780.19,-52.21 778.82,-61.11 784.67,-60.03"/>
</g>
<!-- https://w3id.org/sdata/core#Material -->
<g id="node20" class="node">
<title>https://w3id.org/sdata/core#Material</title>
<path fill="#e8f1ff" stroke="#2b6cb0" stroke-width="1.6" d="M530.5,-52C530.5,-52 485.5,-52 485.5,-52 479.5,-52 473.5,-46 473.5,-40 473.5,-40 473.5,-28 473.5,-28 473.5,-22 479.5,-16 485.5,-16 485.5,-16 530.5,-16 530.5,-16 536.5,-16 542.5,-22 542.5,-28 542.5,-28 542.5,-40 542.5,-40 542.5,-46 536.5,-52 530.5,-52"/>
<text text-anchor="middle" x="508" y="-30.9" font-family="Helvetica,sans-Serif" font-size="12.00" fill="#1a365d">Material</text>
</g>
<!-- http://purl.obolibrary.org/obo/BFO_0000040&#45;&gt;https://w3id.org/sdata/core#Material -->
<g id="edge18" class="edge">
<title>http://purl.obolibrary.org/obo/BFO_0000040&#45;&gt;https://w3id.org/sdata/core#Material</title>
<path fill="none" stroke="#4a5568" stroke-width="1.6" d="M627.51,-253.65C604.91,-212.29 547.79,-107.8 521.56,-59.8"/>
<polygon fill="#4a5568" stroke="#4a5568" stroke-width="1.6" points="524.01,-58.09 517.33,-52.06 518.79,-60.95 524.01,-58.09"/>
</g>
<!-- https://w3id.org/sdata/core#PhysicalArtifact -->
<g id="node21" class="node">
<title>https://w3id.org/sdata/core#PhysicalArtifact</title>
<path fill="#e8f1ff" stroke="#2b6cb0" stroke-width="1.6" d="M687.5,-52C687.5,-52 594.5,-52 594.5,-52 588.5,-52 582.5,-46 582.5,-40 582.5,-40 582.5,-28 582.5,-28 582.5,-22 588.5,-16 594.5,-16 594.5,-16 687.5,-16 687.5,-16 693.5,-16 699.5,-22 699.5,-28 699.5,-28 699.5,-40 699.5,-40 699.5,-46 693.5,-52 687.5,-52"/>
<text text-anchor="middle" x="641" y="-30.9" font-family="Helvetica,sans-Serif" font-size="12.00" fill="#1a365d">Physical Artifact</text>
</g>
<!-- http://purl.obolibrary.org/obo/BFO_0000040&#45;&gt;https://w3id.org/sdata/core#PhysicalArtifact -->
<g id="edge19" class="edge">
<title>http://purl.obolibrary.org/obo/BFO_0000040&#45;&gt;https://w3id.org/sdata/core#PhysicalArtifact</title>
<path fill="none" stroke="#4a5568" stroke-width="1.6" d="M637.29,-253.65C637.99,-212.55 639.74,-109.09 640.56,-60.7"/>
<polygon fill="#4a5568" stroke="#4a5568" stroke-width="1.6" points="643.54,-60.61 640.71,-52.06 637.59,-60.51 643.54,-60.61"/>
</g>
<!-- http://purl.obolibrary.org/obo/BFO_0000141&#45;&gt;http://purl.obolibrary.org/obo/BFO_0000029 -->
<g id="edge20" class="edge">
<title>http://purl.obolibrary.org/obo/BFO_0000141&#45;&gt;http://purl.obolibrary.org/obo/BFO_0000029</title>
<path fill="none" stroke="#4a5568" stroke-width="1.6" d="M475.62,-253.99C469.4,-234.32 459.1,-201.76 451.96,-179.16"/>
<polygon fill="#4a5568" stroke="#4a5568" stroke-width="1.6" points="454.79,-178.24 449.39,-171.03 449.11,-180.03 454.79,-178.24"/>
</g>
</g>
</svg>
