<?xml version="1.0" encoding="UTF-8" standalone="no"?>
<!DOCTYPE svg PUBLIC "-//W3C//DTD SVG 1.1//EN"
 "http://www.w3.org/Graphics/SVG/1.1/DTD/svg11.dtd">
<!-- Generated by graphviz version 2.43.0 (0)
 -->
<!-- Pages: 1 -->
<svg width="1352pt" height="579pt"
 viewBox="0.00 0.00 1351.90 579.12" xmlns="http://www.w3.org/2000/svg" xmlns:xlink="http://www.w3.org/1999/xlink">
<g id="graph0" class="graph" transform="scale(1 1) rotate(0) translate(25.2 553.92)">
<polygon fill="#fafbfc" stroke="transparent" points="-25.2,25.2 -25.2,-553.92 1326.7,-553.92 1326.7,25.2 -25.2,25.2"/>
<text text-anchor="middle" x="650.75" y="-508.72" font-family="Helvetica,sans-Serif" font-size="20.00">Class Hierarchy: MIN &#45;&gt; OPA &#45;&gt; sdata&#45;core</text>
<g id="clust1" class="cluster">
<title>cluster_opa</title>
<path fill="#fafbfc" stroke="#97d5ba" d="M20,-190.36C20,-190.36 343,-190.36 343,-190.36 349,-190.36 355,-196.36 355,-202.36 355,-202.36 355,-388.72 355,-388.72 355,-394.72 349,-400.72 343,-400.72 343,-400.72 20,-400.72 20,-400.72 14,-400.72 8,-394.72 8,-388.72 8,-388.72 8,-202.36 8,-202.36 8,-196.36 14,-190.36 20,-190.36"/>
<text text-anchor="middle" x="181.5" y="-380.72" font-family="Helvetica,sans-Serif" font-size="20.00">OPA classes</text>
</g>
<g id="clust2" class="cluster">
<title>cluster_opa_rank</title>
</g>
<g id="clust7" class="cluster">
<title>cluster_min</title>
<path fill="#fafbfc" stroke="#8fb7ea" d="M20,-408.72C20,-408.72 460,-408.72 460,-408.72 466,-408.72 472,-414.72 472,-420.72 472,-420.72 472,-478.72 472,-478.72 472,-484.72 466,-490.72 460,-490.72 460,-490.72 20,-490.72 20,-490.72 14,-490.72 8,-484.72 8,-478.72 8,-478.72 8,-420.72 8,-420.72 8,-414.72 14,-408.72 20,-408.72"/>
<text text-anchor="middle" x="240" y="-470.72" font-family="Helvetica,sans-Serif" font-size="20.00">MIN classes</text>
</g>
<!-- https://w3id.org/opa#Agent -->
<g id="node1" class="node">
<title>https://w3id.org/opa#Agent</title>
<path fill="#e8fff4" stroke="#2f855a" stroke-width="1.6" d="M121,-324.72C121,-324.72 89,-324.72 89,-324.72 83,-324.72 77,-318.72 77,-312.72 77,-312.72 77,-300.72 77,-300.72 77,-294.72 83,-288.72 89,-288.72 89,-288.72 121,-288.72 121,-288.72 127,-288.72 133,-294.72 133,-300.72 133,-300.72 133,-312.72 133,-312.72 133,-318.72 127,-324.72 121,-324.72"/>
<text text-anchor="middle" x="105" y="-303.62" font-family="Helvetica,sans-Serif" font-size="12.00" fill="#1c4532">Agent</text>
</g>
<!-- https://w3id.org/sdata/core/Agent -->
<g id="node5" class="node">
<title>https://w3id.org/sdata/core/Agent</title>
<path fill="#f8eeff" stroke="#6b46c1" stroke-width="1.6" d="M441,-216.72C441,-216.72 409,-216.72 409,-216.72 403,-216.72 397,-210.72 397,-204.72 397,-204.72 397,-192.72 397,-192.72 397,-186.72 403,-180.72 409,-180.72 409,-180.72 441,-180.72 441,-180.72 447,-180.72 453,-186.72 453,-192.72 453,-192.72 453,-204.72 453,-204.72 453,-210.72 447,-216.72 441,-216.72"/>
<text text-anchor="middle" x="425" y="-195.62" font-family="Helvetica,sans-Serif" font-size="12.00" fill="#44337a">Agent</text>
</g>
<!-- https://w3id.org/opa#Agent&#45;&gt;https://w3id.org/sdata/core/Agent -->
<g id="edge4" class="edge">
<title>https://w3id.org/opa#Agent&#45;&gt;https://w3id.org/sdata/core/Agent</title>
<path fill="none" stroke="#4a5568" stroke-width="1.6" d="M133,-290C139.46,-286.69 146.38,-283.4 153,-280.72 175.12,-271.76 319.51,-229.98 388.46,-210.18"/>
<polygon fill="#4a5568" stroke="#4a5568" stroke-width="1.6" points="389.53,-212.97 396.88,-207.76 387.89,-207.25 389.53,-212.97"/>
</g>
<!-- https://w3id.org/opa#Object -->
<g id="node2" class="node">
<title>https://w3id.org/opa#Object</title>
<path fill="#e8fff4" stroke="#2f855a" stroke-width="1.6" d="M221,-324.72C221,-324.72 185,-324.72 185,-324.72 179,-324.72 173,-318.72 173,-312.72 173,-312.72 173,-300.72 173,-300.72 173,-294.72 179,-288.72 185,-288.72 185,-288.72 221,-288.72 221,-288.72 227,-288.72 233,-294.72 233,-300.72 233,-300.72 233,-312.72 233,-312.72 233,-318.72 227,-324.72 221,-324.72"/>
<text text-anchor="middle" x="203" y="-303.62" font-family="Helvetica,sans-Serif" font-size="12.00" fill="#1c4532">Object</text>
</g>
<!-- https://w3id.org/sdata/core/Object -->
<g id="node6" class="node">
<title>https://w3id.org/sdata/core/Object</title>
<path fill="#f8eeff" stroke="#6b46c1" stroke-width="1.6" d="M951,-216.72C951,-216.72 915,-216.72 915,-216.72 909,-216.72 903,-210.72 903,-204.72 903,-204.72 903,-192.72 903,-192.72 903,-186.72 909,-180.72 915,-180.72 915,-180.72 951,-180.72 951,-180.72 957,-180.72 963,-186.72 963,-192.72 963,-192.72 963,-204.72 963,-204.72 963,-210.72 957,-216.72 951,-216.72"/>
<text text-anchor="middle" x="933" y="-195.62" font-family="Helvetica,sans-Serif" font-size="12.00" fill="#44337a">Object</text>
</g>
<!-- https://w3id.org/opa#Object&#45;&gt;https://w3id.org/sdata/core/Object -->
<g id="edge5" class="edge">
<title>https://w3id.org/opa#Object&#45;&gt;https://w3id.org/sdata/core/Object</title>
<path fill="none" stroke="#4a5568" stroke-width="1.6" d="M232.99,-288.65C239.42,-285.58 246.31,-282.73 253,-280.72 488.99,-210.01 788.46,-200.7 894.03,-199.72"/>
<polygon fill="#4a5568" stroke="#4a5568" stroke-width="1.6" points="894.29,-202.69 902.76,-199.65 894.24,-196.74 894.29,-202.69"/>
</g>
<!-- https://w3id.org/opa#Process -->
<g id="node3" class="node">
<title>https://w3id.org/opa#Process</title>
<path fill="#e8fff4" stroke="#2f855a" stroke-width="1.6" d="M327,-324.72C327,-324.72 285,-324.72 285,-324.72 279,-324.72 273,-318.72 273,-312.72 273,-312.72 273,-300.72 273,-300.72 273,-294.72 279,-288.72 285,-288.72 285,-288.72 327,-288.72 327,-288.72 333,-288.72 339,-294.72 339,-300.72 339,-300.72 339,-312.72 339,-312.72 339,-318.72 333,-324.72 327,-324.72"/>
<text text-anchor="middle" x="306" y="-303.62" font-family="Helvetica,sans-Serif" font-size="12.00" fill="#1c4532">Process</text>
</g>
<!-- https://w3id.org/sdata/core/Process -->
<g id="node7" class="node">
<title>https://w3id.org/sdata/core/Process</title>
<path fill="#f8eeff" stroke="#6b46c1" stroke-width="1.6" d="M1057,-216.72C1057,-216.72 1015,-216.72 1015,-216.72 1009,-216.72 1003,-210.72 1003,-204.72 1003,-204.72 1003,-192.72 1003,-192.72 1003,-186.72 1009,-180.72 1015,-180.72 1015,-180.72 1057,-180.72 1057,-180.72 1063,-180.72 1069,-186.72 1069,-192.72 1069,-192.72 1069,-204.72 1069,-204.72 1069,-210.72 1063,-216.72 1057,-216.72"/>
<text text-anchor="middle" x="1036" y="-195.62" font-family="Helvetica,sans-Serif" font-size="12.00" fill="#44337a">Process</text>
</g>
<!-- https://w3id.org/opa#Process&#45;&gt;https://w3id.org/sdata/core/Process -->
<g id="edge6" class="edge">
<title>https://w3id.org/opa#Process&#45;&gt;https://w3id.org/sdata/core/Process</title>
<path fill="none" stroke="#4a5568" stroke-width="1.6" d="M339.13,-303.48C438,-296.36 739.22,-271.38 983,-216.72 986.76,-215.88 990.64,-214.88 994.5,-213.81"/>
<polygon fill="#4a5568" stroke="#4a5568" stroke-width="1.6" points="995.57,-216.59 1002.89,-211.35 993.9,-210.88 995.57,-216.59"/>
</g>
<!-- __rank_anchor_opa -->
<!-- __rank_anchor_sdata -->
<!-- __rank_anchor_opa&#45;&gt;__rank_anchor_sdata -->
<!-- https://w3id.org/sdata/core/EnvironmentAgent -->
<g id="node13" class="node">
<title>https://w3id.org/sdata/core/EnvironmentAgent</title>
<path fill="#f8eeff" stroke="#6b46c1" stroke-width="1.6" d="M200.5,-108.72C200.5,-108.72 89.5,-108.72 89.5,-108.72 83.5,-108.72 77.5,-102.72 77.5,-96.72 77.5,-96.72 77.5,-84.72 77.5,-84.72 77.5,-78.72 83.5,-72.72 89.5,-72.72 89.5,-72.72 200.5,-72.72 200.5,-72.72 206.5,-72.72 212.5,-78.72 212.5,-84.72 212.5,-84.72 212.5,-96.72 212.5,-96.72 212.5,-102.72 206.5,-108.72 200.5,-108.72"/>
<text text-anchor="middle" x="145" y="-87.62" font-family="Helvetica,sans-Serif" font-size="12.00" fill="#44337a">Environment Agent</text>
</g>
<!-- https://w3id.org/sdata/core/Agent&#45;&gt;https://w3id.org/sdata/core/EnvironmentAgent -->
<g id="edge7" class="edge">
<title>https://w3id.org/sdata/core/Agent&#45;&gt;https://w3id.org/sdata/core/EnvironmentAgent</title>
<path fill="none" stroke="#4a5568" stroke-width="1.6" d="M396.87,-187.07C350.51,-169.52 257.33,-134.24 198.22,-111.87"/>
<polygon fill="#4a5568" stroke="#4a5568" stroke-width="1.6" points="199.11,-109.03 190.11,-108.8 197.01,-114.59 199.11,-109.03"/>
</g>
<!-- https://w3id.org/sdata/core/HardwareAgent -->
<g id="node14" class="node">
<title>https://w3id.org/sdata/core/HardwareAgent</title>
<path fill="#f8eeff" stroke="#6b46c1" stroke-width="1.6" d="M357.5,-108.72C357.5,-108.72 264.5,-108.72 264.5,-108.72 258.5,-108.72 252.5,-102.72 252.5,-96.72 252.5,-96.72 252.5,-84.72 252.5,-84.72 252.5,-78.72 258.5,-72.72 264.5,-72.72 264.5,-72.72 357.5,-72.72 357.5,-72.72 363.5,-72.72 369.5,-78.72 369.5,-84.72 369.5,-84.72 369.5,-96.72 369.5,-96.72 369.5,-102.72 363.5,-108.72 357.5,-108.72"/>
<text text-anchor="middle" x="311" y="-87.62" font-family="Helvetica,sans-Serif" font-size="12.00" fill="#44337a">Hardware Agent</text>
</g>
<!-- https://w3id.org/sdata/core/Agent&#45;&gt;https://w3id.org/sdata/core/HardwareAgent -->
<g id="edge8" class="edge">
<title>https://w3id.org/sdata/core/Agent&#45;&gt;https://w3id.org/sdata/core/HardwareAgent</title>
<path fill="none" stroke="#4a5568" stroke-width="1.6" d="M406.68,-180.69C387.52,-162.87 357.31,-134.78 335.97,-114.93"/>
<polygon fill="#4a5568" stroke="#4a5568" stroke-width="1.6" points="337.9,-112.67 329.65,-109.06 333.85,-117.03 337.9,-112.67"/>
</g>
<!-- https://w3id.org/sdata/core/Organization -->
<g id="node15" class="node">
<title>https://w3id.org/sdata/core/Organization</title>
<path fill="#f8eeff" stroke="#6b46c1" stroke-width="1.6" d="M494,-108.72C494,-108.72 422,-108.72 422,-108.72 416,-108.72 410,-102.72 410,-96.72 410,-96.72 410,-84.72 410,-84.72 410,-78.72 416,-72.72 422,-72.72 422,-72.72 494,-72.72 494,-72.72 500,-72.72 506,-78.72 506,-84.72 506,-84.72 506,-96.72 506,-96.72 506,-102.72 500,-108.72 494,-108.72"/>
<text text-anchor="middle" x="458" y="-87.62" font-family="Helvetica,sans-Serif" font-size="12.00" fill="#44337a">Organization</text>
</g>
<!-- https://w3id.org/sdata/core/Agent&#45;&gt;https://w3id.org/sdata/core/Organization -->
<g id="edge9" class="edge">
<title>https://w3id.org/sdata/core/Agent&#45;&gt;https://w3id.org/sdata/core/Organization</title>
<path fill="none" stroke="#4a5568" stroke-width="1.6" d="M430.3,-180.69C435.63,-163.56 443.92,-136.94 450.04,-117.28"/>
<polygon fill="#4a5568" stroke="#4a5568" stroke-width="1.6" points="452.92,-118.06 452.6,-109.06 447.23,-116.29 452.92,-118.06"/>
</g>
<!-- https://w3id.org/sdata/core/Person -->
<g id="node16" class="node">
<title>https://w3id.org/sdata/core/Person</title>
<path fill="#f8eeff" stroke="#6b46c1" stroke-width="1.6" d="M595.5,-108.72C595.5,-108.72 558.5,-108.72 558.5,-108.72 552.5,-108.72 546.5,-102.72 546.5,-96.72 546.5,-96.72 546.5,-84.72 546.5,-84.72 546.5,-78.72 552.5,-72.72 558.5,-72.72 558.5,-72.72 595.5,-72.72 595.5,-72.72 601.5,-72.72 607.5,-78.72 607.5,-84.72 607.5,-84.72 607.5,-96.72 607.5,-96.72 607.5,-102.72 601.5,-108.72 595.5,-108.72"/>
<text text-anchor="middle" x="577" y="-87.62" font-family="Helvetica,sans-Serif" font-size="12.00" fill="#44337a">Person</text>
</g>
<!-- https://w3id.org/sdata/core/Agent&#45;&gt;https://w3id.org/sdata/core/Person -->
<g id="edge10" class="edge">
<title>https://w3id.org/sdata/core/Agent&#45;&gt;https://w3id.org/sdata/core/Person</title>
<path fill="none" stroke="#4a5568" stroke-width="1.6" d="M449.42,-180.69C475.38,-162.58 516.55,-133.88 545.06,-113.99"/>
<polygon fill="#4a5568" stroke="#4a5568" stroke-width="1.6" points="547.12,-116.19 552.39,-108.88 543.71,-111.31 547.12,-116.19"/>
</g>
<!-- https://w3id.org/sdata/core/SoftwareAgent -->
<g id="node17" class="node">
<title>https://w3id.org/sdata/core/SoftwareAgent</title>
<path fill="#f8eeff" stroke="#6b46c1" stroke-width="1.6" d="M748,-108.72C748,-108.72 660,-108.72 660,-108.72 654,-108.72 648,-102.72 648,-96.72 648,-96.72 648,-84.72 648,-84.72 648,-78.72 654,-72.72 660,-72.72 660,-72.72 748,-72.72 748,-72.72 754,-72.72 760,-78.72 760,-84.72 760,-84.72 760,-96.72 760,-96.72 760,-102.72 754,-108.72 748,-108.72"/>
<text text-anchor="middle" x="704" y="-87.62" font-family="Helvetica,sans-Serif" font-size="12.00" fill="#44337a">Software Agent</text>
</g>
<!-- https://w3id.org/sdata/core/Agent&#45;&gt;https://w3id.org/sdata/core/SoftwareAgent -->
<g id="edge11" class="edge">
<title>https://w3id.org/sdata/core/Agent&#45;&gt;https://w3id.org/sdata/core/SoftwareAgent</title>
<path fill="none" stroke="#4a5568" stroke-width="1.6" d="M453.03,-187.07C499.22,-169.52 592.08,-134.24 650.97,-111.87"/>
<polygon fill="#4a5568" stroke="#4a5568" stroke-width="1.6" points="652.16,-114.6 659.05,-108.8 650.05,-109.04 652.16,-114.6"/>
</g>
<!-- https://w3id.org/sdata/core/Data -->
<g id="node8" class="node">
<title>https://w3id.org/sdata/core/Data</title>
<path fill="#f8eeff" stroke="#6b46c1" stroke-width="1.6" d="M842,-108.72C842,-108.72 812,-108.72 812,-108.72 806,-108.72 800,-102.72 800,-96.72 800,-96.72 800,-84.72 800,-84.72 800,-78.72 806,-72.72 812,-72.72 812,-72.72 842,-72.72 842,-72.72 848,-72.72 854,-78.72 854,-84.72 854,-84.72 854,-96.72 854,-96.72 854,-102.72 848,-108.72 842,-108.72"/>
<text text-anchor="middle" x="827" y="-87.62" font-family="Helvetica,sans-Serif" font-size="12.00" fill="#44337a">Data</text>
</g>
<!-- https://w3id.org/sdata/core/Object&#45;&gt;https://w3id.org/sdata/core/Data -->
<g id="edge12" class="edge">
<title>https://w3id.org/sdata/core/Object&#45;&gt;https://w3id.org/sdata/core/Data</title>
<path fill="none" stroke="#4a5568" stroke-width="1.6" d="M915.97,-180.69C898.23,-162.95 870.3,-135.02 850.47,-115.19"/>
<polygon fill="#4a5568" stroke="#4a5568" stroke-width="1.6" points="852.45,-112.97 844.34,-109.06 848.25,-117.17 852.45,-112.97"/>
</g>
<!-- https://w3id.org/sdata/core/Hardware -->
<g id="node9" class="node">
<title>https://w3id.org/sdata/core/Hardware</title>
<path fill="#f8eeff" stroke="#6b46c1" stroke-width="1.6" d="M960,-108.72C960,-108.72 906,-108.72 906,-108.72 900,-108.72 894,-102.72 894,-96.72 894,-96.72 894,-84.72 894,-84.72 894,-78.72 900,-72.72 906,-72.72 906,-72.72 960,-72.72 960,-72.72 966,-72.72 972,-78.72 972,-84.72 972,-84.72 972,-96.72 972,-96.72 972,-102.72 966,-108.72 960,-108.72"/>
<text text-anchor="middle" x="933" y="-87.62" font-family="Helvetica,sans-Serif" font-size="12.00" fill="#44337a">Hardware</text>
</g>
<!-- https://w3id.org/sdata/core/Object&#45;&gt;https://w3id.org/sdata/core/Hardware -->
<g id="edge13" class="edge">
<title>https://w3id.org/sdata/core/Object&#45;&gt;https://w3id.org/sdata/core/Hardware</title>
<path fill="none" stroke="#4a5568" stroke-width="1.6" d="M933,-180.69C933,-163.71 933,-137.42 933,-117.81"/>
<polygon fill="#4a5568" stroke="#4a5568" stroke-width="1.6" points="935.98,-117.56 933,-109.06 930.03,-117.56 935.98,-117.56"/>
</g>
<!-- https://w3id.org/sdata/core/Material -->
<g id="node10" class="node">
<title>https://w3id.org/sdata/core/Material</title>
<path fill="#f8eeff" stroke="#6b46c1" stroke-width="1.6" d="M1069.5,-108.72C1069.5,-108.72 1024.5,-108.72 1024.5,-108.72 1018.5,-108.72 1012.5,-102.72 1012.5,-96.72 1012.5,-96.72 1012.5,-84.72 1012.5,-84.72 1012.5,-78.72 1018.5,-72.72 1024.5,-72.72 1024.5,-72.72 1069.5,-72.72 1069.5,-72.72 1075.5,-72.72 1081.5,-78.72 1081.5,-84.72 1081.5,-84.72 1081.5,-96.72 1081.5,-96.72 1081.5,-102.72 1075.5,-108.72 1069.5,-108.72"/>
<text text-anchor="middle" x="1047" y="-87.62" font-family="Helvetica,sans-Serif" font-size="12.00" fill="#44337a">Material</text>
</g>
<!-- https://w3id.org/sdata/core/Object&#45;&gt;https://w3id.org/sdata/core/Material -->
<g id="edge14" class="edge">
<title>https://w3id.org/sdata/core/Object&#45;&gt;https://w3id.org/sdata/core/Material</title>
<path fill="none" stroke="#4a5568" stroke-width="1.6" d="M951.32,-180.69C970.48,-162.87 1000.69,-134.78 1022.03,-114.93"/>
<polygon fill="#4a5568" stroke="#4a5568" stroke-width="1.6" points="1024.15,-117.03 1028.35,-109.06 1020.1,-112.67 1024.15,-117.03"/>
</g>
<!-- https://w3id.org/sdata/core/Product -->
<g id="node11" class="node">
<title>https://w3id.org/sdata/core/Product</title>
<path fill="#f8eeff" stroke="#6b46c1" stroke-width="1.6" d="M1176,-108.72C1176,-108.72 1134,-108.72 1134,-108.72 1128,-108.72 1122,-102.72 1122,-96.72 1122,-96.72 1122,-84.72 1122,-84.72 1122,-78.72 1128,-72.72 1134,-72.72 1134,-72.72 1176,-72.72 1176,-72.72 1182,-72.72 1188,-78.72 1188,-84.72 1188,-84.72 1188,-96.72 1188,-96.72 1188,-102.72 1182,-108.72 1176,-108.72"/>
<text text-anchor="middle" x="1155" y="-87.62" font-family="Helvetica,sans-Serif" font-size="12.00" fill="#44337a">Product</text>
</g>
<!-- https://w3id.org/sdata/core/Object&#45;&gt;https://w3id.org/sdata/core/Product -->
<g id="edge15" class="edge">
<title>https://w3id.org/sdata/core/Object&#45;&gt;https://w3id.org/sdata/core/Product</title>
<path fill="none" stroke="#4a5568" stroke-width="1.6" d="M963.4,-183.2C1002.42,-164.57 1070.26,-132.18 1113.86,-111.36"/>
<polygon fill="#4a5568" stroke="#4a5568" stroke-width="1.6" points="1115.32,-113.96 1121.71,-107.62 1112.76,-108.59 1115.32,-113.96"/>
</g>
<!-- https://w3id.org/sdata/core/Software -->
<g id="node12" class="node">
<title>https://w3id.org/sdata/core/Software</title>
<path fill="#f8eeff" stroke="#6b46c1" stroke-width="1.6" d="M1289.5,-108.72C1289.5,-108.72 1240.5,-108.72 1240.5,-108.72 1234.5,-108.72 1228.5,-102.72 1228.5,-96.72 1228.5,-96.72 1228.5,-84.72 1228.5,-84.72 1228.5,-78.72 1234.5,-72.72 1240.5,-72.72 1240.5,-72.72 1289.5,-72.72 1289.5,-72.72 1295.5,-72.72 1301.5,-78.72 1301.5,-84.72 1301.5,-84.72 1301.5,-96.72 1301.5,-96.72 1301.5,-102.72 1295.5,-108.72 1289.5,-108.72"/>
<text text-anchor="middle" x="1265" y="-87.62" font-family="Helvetica,sans-Serif" font-size="12.00" fill="#44337a">Software</text>
</g>
<!-- https://w3id.org/sdata/core/Object&#45;&gt;https://w3id.org/sdata/core/Software -->
<g id="edge16" class="edge">
<title>https://w3id.org/sdata/core/Object&#45;&gt;https://w3id.org/sdata/core/Software</title>
<path fill="none" stroke="#4a5568" stroke-width="1.6" d="M963.11,-187.36C969.65,-185.15 976.55,-182.83 983,-180.72 1066.53,-153.34 1164.46,-122.78 1220.17,-105.53"/>
<polygon fill="#4a5568" stroke="#4a5568" stroke-width="1.6" points="1221.17,-108.34 1228.41,-102.98 1219.41,-102.65 1221.17,-108.34"/>
</g>
<!-- https://w3id.org/sdata/core/AttributeQuantityValue -->
<g id="node18" class="node">
<title>https://w3id.org/sdata/core/AttributeQuantityValue</title>
<path fill="#f8eeff" stroke="#6b46c1" stroke-width="1.6" d="M657.5,-452.72C657.5,-452.72 516.5,-452.72 516.5,-452.72 510.5,-452.72 504.5,-446.72 504.5,-440.72 504.5,-440.72 504.5,-428.72 504.5,-428.72 504.5,-422.72 510.5,-416.72 516.5,-416.72 516.5,-416.72 657.5,-416.72 657.5,-416.72 663.5,-416.72 669.5,-422.72 669.5,-428.72 669.5,-428.72 669.5,-440.72 669.5,-440.72 669.5,-446.72 663.5,-452.72 657.5,-452.72"/>
<text text-anchor="middle" x="587" y="-431.62" font-family="Helvetica,sans-Serif" font-size="12.00" fill="#44337a">Attribute Quantity Value</text>
</g>
<!-- https://w3id.org/sdata/core/ValueDomain -->
<g id="node19" class="node">
<title>https://w3id.org/sdata/core/ValueDomain</title>
<path fill="#f8eeff" stroke="#6b46c1" stroke-width="1.6" d="M802,-452.72C802,-452.72 722,-452.72 722,-452.72 716,-452.72 710,-446.72 710,-440.72 710,-440.72 710,-428.72 710,-428.72 710,-422.72 716,-416.72 722,-416.72 722,-416.72 802,-416.72 802,-416.72 808,-416.72 814,-422.72 814,-428.72 814,-428.72 814,-440.72 814,-440.72 814,-446.72 808,-452.72 802,-452.72"/>
<text text-anchor="middle" x="762" y="-431.62" font-family="Helvetica,sans-Serif" font-size="12.00" fill="#44337a">Value Domain</text>
</g>
<!-- https://w3id.org/min#Information -->
<g id="node20" class="node">
<title>https://w3id.org/min#Information</title>
<path fill="#e7f0ff" stroke="#2b6cb0" stroke-width="1.6" d="M452,-452.72C452,-452.72 386,-452.72 386,-452.72 380,-452.72 374,-446.72 374,-440.72 374,-440.72 374,-428.72 374,-428.72 374,-422.72 380,-416.72 386,-416.72 386,-416.72 452,-416.72 452,-416.72 458,-416.72 464,-422.72 464,-428.72 464,-428.72 464,-440.72 464,-440.72 464,-446.72 458,-452.72 452,-452.72"/>
<text text-anchor="middle" x="419" y="-431.62" font-family="Helvetica,sans-Serif" font-size="12.00" fill="#1a365d">Information</text>
</g>
<!-- https://w3id.org/min#Material -->
<g id="node21" class="node">
<title>https://w3id.org/min#Material</title>
<path fill="#e7f0ff" stroke="#2b6cb0" stroke-width="1.6" d="M321.5,-452.72C321.5,-452.72 276.5,-452.72 276.5,-452.72 270.5,-452.72 264.5,-446.72 264.5,-440.72 264.5,-440.72 264.5,-428.72 264.5,-428.72 264.5,-422.72 270.5,-416.72 276.5,-416.72 276.5,-416.72 321.5,-416.72 321.5,-416.72 327.5,-416.72 333.5,-422.72 333.5,-428.72 333.5,-428.72 333.5,-440.72 333.5,-440.72 333.5,-446.72 327.5,-452.72 321.5,-452.72"/>
<text text-anchor="middle" x="299" y="-431.62" font-family="Helvetica,sans-Serif" font-size="12.00" fill="#1a365d">Material</text>
</g>
<!-- https://w3id.org/min#Modality -->
<g id="node22" class="node">
<title>https://w3id.org/min#Modality</title>
<path fill="#e7f0ff" stroke="#2b6cb0" stroke-width="1.6" d="M212.5,-452.72C212.5,-452.72 165.5,-452.72 165.5,-452.72 159.5,-452.72 153.5,-446.72 153.5,-440.72 153.5,-440.72 153.5,-428.72 153.5,-428.72 153.5,-422.72 159.5,-416.72 165.5,-416.72 165.5,-416.72 212.5,-416.72 212.5,-416.72 218.5,-416.72 224.5,-422.72 224.5,-428.72 224.5,-428.72 224.5,-440.72 224.5,-440.72 224.5,-446.72 218.5,-452.72 212.5,-452.72"/>
<text text-anchor="middle" x="189" y="-431.62" font-family="Helvetica,sans-Serif" font-size="12.00" fill="#1a365d">Modality</text>
</g>
<!-- https://w3id.org/min#Nexus -->
<g id="node23" class="node">
<title>https://w3id.org/min#Nexus</title>
<path fill="#e7f0ff" stroke="#2b6cb0" stroke-width="1.6" d="M101.5,-452.72C101.5,-452.72 68.5,-452.72 68.5,-452.72 62.5,-452.72 56.5,-446.72 56.5,-440.72 56.5,-440.72 56.5,-428.72 56.5,-428.72 56.5,-422.72 62.5,-416.72 68.5,-416.72 68.5,-416.72 101.5,-416.72 101.5,-416.72 107.5,-416.72 113.5,-422.72 113.5,-428.72 113.5,-428.72 113.5,-440.72 113.5,-440.72 113.5,-446.72 107.5,-452.72 101.5,-452.72"/>
<text text-anchor="middle" x="85" y="-431.62" font-family="Helvetica,sans-Serif" font-size="12.00" fill="#1a365d">Nexus</text>
</g>
<!-- https://w3id.org/min#Nexus&#45;&gt;https://w3id.org/opa#Agent -->
<g id="edge1" class="edge">
<title>https://w3id.org/min#Nexus&#45;&gt;https://w3id.org/opa#Agent</title>
<path fill="none" stroke="#4a5568" stroke-width="1.6" d="M87.74,-416.46C91.15,-394.97 97.01,-358.08 100.94,-333.3"/>
<polygon fill="#4a5568" stroke="#4a5568" stroke-width="1.6" points="103.9,-333.63 102.29,-324.77 98.02,-332.7 103.9,-333.63"/>
</g>
<!-- https://w3id.org/min#Nexus&#45;&gt;https://w3id.org/opa#Object -->
<g id="edge2" class="edge">
<title>https://w3id.org/min#Nexus&#45;&gt;https://w3id.org/opa#Object</title>
<path fill="none" stroke="#4a5568" stroke-width="1.6" d="M113.59,-418.69C120.24,-415.32 127.33,-411.82 134,-408.72 142.31,-404.86 146.22,-406.88 153,-400.72 173.26,-382.29 186.91,-353.69 194.75,-333.08"/>
<polygon fill="#4a5568" stroke="#4a5568" stroke-width="1.6" points="197.56,-334.06 197.67,-325.06 191.97,-332.03 197.56,-334.06"/>
</g>
<!-- https://w3id.org/min#Nexus&#45;&gt;https://w3id.org/opa#Process -->
<g id="edge3" class="edge">
<title>https://w3id.org/min#Nexus&#45;&gt;https://w3id.org/opa#Process</title>
<path fill="none" stroke="#4a5568" stroke-width="1.6" d="M113.75,-416.63C120.22,-413.48 127.19,-410.6 134,-408.72 159.55,-401.66 230.54,-414.8 253,-400.72 277.19,-385.56 291.43,-355.11 298.95,-333.17"/>
<polygon fill="#4a5568" stroke="#4a5568" stroke-width="1.6" points="301.83,-333.95 301.6,-324.95 296.17,-332.13 301.83,-333.95"/>
</g>
<!-- __rank_anchor_min -->
<!-- __rank_anchor_min&#45;&gt;__rank_anchor_opa -->
</g>
</svg>
