<?xml version="1.0" encoding="UTF-8" standalone="no"?>
<!DOCTYPE svg PUBLIC "-//W3C//DTD SVG 1.1//EN"
 "http://www.w3.org/Graphics/SVG/1.1/DTD/svg11.dtd">
<!-- Generated by graphviz version 2.43.0 (0)
 -->
<!-- Pages: 1 -->
<svg width="2307pt" height="502pt"
 viewBox="0.00 0.00 2307.40 502.40" xmlns="http://www.w3.org/2000/svg" xmlns:xlink="http://www.w3.org/1999/xlink">
<g id="graph0" class="graph" transform="scale(1 1) rotate(0) translate(25.2 477.2)">
<polygon fill="#fafbfc" stroke="transparent" points="-25.2,25.2 -25.2,-477.2 2282.2,-477.2 2282.2,25.2 -25.2,25.2"/>
<text text-anchor="middle" x="1128.5" y="-432" font-family="Helvetica,sans-Serif" font-size="20.00">sdata Core + Processtypes Hierarchy</text>
<g id="clust1" class="cluster">
<title>cluster_proc</title>
<path fill="#fafbfc" stroke="#b6d7a8" d="M1398,-116C1398,-116 2237,-116 2237,-116 2243,-116 2249,-122 2249,-128 2249,-128 2249,-186 2249,-186 2249,-192 2243,-198 2237,-198 2237,-198 1398,-198 1398,-198 1392,-198 1386,-192 1386,-186 1386,-186 1386,-128 1386,-128 1386,-122 1392,-116 1398,-116"/>
<text text-anchor="middle" x="1817.5" y="-178" font-family="Helvetica,sans-Serif" font-size="20.00">sdata&#45;processtypes classes</text>
</g>
<g id="clust2" class="cluster">
<title>cluster_core</title>
<path fill="#fafbfc" stroke="#90b5e8" d="M20,-8C20,-8 1366,-8 1366,-8 1372,-8 1378,-14 1378,-20 1378,-20 1378,-402 1378,-402 1378,-408 1372,-414 1366,-414 1366,-414 20,-414 20,-414 14,-414 8,-408 8,-402 8,-402 8,-20 8,-20 8,-14 14,-8 20,-8"/>
<text text-anchor="middle" x="693" y="-394" font-family="Helvetica,sans-Serif" font-size="20.00">sdata&#45;core classes</text>
</g>
<!-- https://w3id.org/sdata/core/Creation -->
<g id="node1" class="node">
<title>https://w3id.org/sdata/core/Creation</title>
<path fill="#eef8e7" stroke="#4f8a10" stroke-width="1.6" d="M2228.5,-160C2228.5,-160 2181.5,-160 2181.5,-160 2175.5,-160 2169.5,-154 2169.5,-148 2169.5,-148 2169.5,-136 2169.5,-136 2169.5,-130 2175.5,-124 2181.5,-124 2181.5,-124 2228.5,-124 2228.5,-124 2234.5,-124 2240.5,-130 2240.5,-136 2240.5,-136 2240.5,-148 2240.5,-148 2240.5,-154 2234.5,-160 2228.5,-160"/>
<text text-anchor="middle" x="2205" y="-138.9" font-family="Helvetica,sans-Serif" font-size="12.00" fill="#2f5d08">Creation</text>
</g>
<!-- https://w3id.org/sdata/core/Destruction -->
<g id="node2" class="node">
<title>https://w3id.org/sdata/core/Destruction</title>
<path fill="#eef8e7" stroke="#4f8a10" stroke-width="1.6" d="M2117,-160C2117,-160 2051,-160 2051,-160 2045,-160 2039,-154 2039,-148 2039,-148 2039,-136 2039,-136 2039,-130 2045,-124 2051,-124 2051,-124 2117,-124 2117,-124 2123,-124 2129,-130 2129,-136 2129,-136 2129,-148 2129,-148 2129,-154 2123,-160 2117,-160"/>
<text text-anchor="middle" x="2084" y="-138.9" font-family="Helvetica,sans-Serif" font-size="12.00" fill="#2f5d08">Destruction</text>
</g>
<!-- https://w3id.org/sdata/core/Observation -->
<g id="node3" class="node">
<title>https://w3id.org/sdata/core/Observation</title>
<path fill="#eef8e7" stroke="#4f8a10" stroke-width="1.6" d="M1986.5,-160C1986.5,-160 1917.5,-160 1917.5,-160 1911.5,-160 1905.5,-154 1905.5,-148 1905.5,-148 1905.5,-136 1905.5,-136 1905.5,-130 1911.5,-124 1917.5,-124 1917.5,-124 1986.5,-124 1986.5,-124 1992.5,-124 1998.5,-130 1998.5,-136 1998.5,-136 1998.5,-148 1998.5,-148 1998.5,-154 1992.5,-160 1986.5,-160"/>
<text text-anchor="middle" x="1952" y="-138.9" font-family="Helvetica,sans-Serif" font-size="12.00" fill="#2f5d08">Observation</text>
</g>
<!-- https://w3id.org/sdata/core/Preservation -->
<g id="node4" class="node">
<title>https://w3id.org/sdata/core/Preservation</title>
<path fill="#eef8e7" stroke="#4f8a10" stroke-width="1.6" d="M1853.5,-160C1853.5,-160 1782.5,-160 1782.5,-160 1776.5,-160 1770.5,-154 1770.5,-148 1770.5,-148 1770.5,-136 1770.5,-136 1770.5,-130 1776.5,-124 1782.5,-124 1782.5,-124 1853.5,-124 1853.5,-124 1859.5,-124 1865.5,-130 1865.5,-136 1865.5,-136 1865.5,-148 1865.5,-148 1865.5,-154 1859.5,-160 1853.5,-160"/>
<text text-anchor="middle" x="1818" y="-138.9" font-family="Helvetica,sans-Serif" font-size="12.00" fill="#2f5d08">Preservation</text>
</g>
<!-- https://w3id.org/sdata/core/Recovery -->
<g id="node5" class="node">
<title>https://w3id.org/sdata/core/Recovery</title>
<path fill="#eef8e7" stroke="#4f8a10" stroke-width="1.6" d="M1718,-160C1718,-160 1666,-160 1666,-160 1660,-160 1654,-154 1654,-148 1654,-148 1654,-136 1654,-136 1654,-130 1660,-124 1666,-124 1666,-124 1718,-124 1718,-124 1724,-124 1730,-130 1730,-136 1730,-136 1730,-148 1730,-148 1730,-154 1724,-160 1718,-160"/>
<text text-anchor="middle" x="1692" y="-138.9" font-family="Helvetica,sans-Serif" font-size="12.00" fill="#2f5d08">Recovery</text>
</g>
<!-- https://w3id.org/sdata/core/Transfer -->
<g id="node6" class="node">
<title>https://w3id.org/sdata/core/Transfer</title>
<path fill="#eef8e7" stroke="#4f8a10" stroke-width="1.6" d="M1601.5,-160C1601.5,-160 1556.5,-160 1556.5,-160 1550.5,-160 1544.5,-154 1544.5,-148 1544.5,-148 1544.5,-136 1544.5,-136 1544.5,-130 1550.5,-124 1556.5,-124 1556.5,-124 1601.5,-124 1601.5,-124 1607.5,-124 1613.5,-130 1613.5,-136 1613.5,-136 1613.5,-148 1613.5,-148 1613.5,-154 1607.5,-160 1601.5,-160"/>
<text text-anchor="middle" x="1579" y="-138.9" font-family="Helvetica,sans-Serif" font-size="12.00" fill="#2f5d08">Transfer</text>
</g>
<!-- https://w3id.org/sdata/core/Transformation -->
<g id="node7" class="node">
<title>https://w3id.org/sdata/core/Transformation</title>
<path fill="#eef8e7" stroke="#4f8a10" stroke-width="1.6" d="M1492.5,-160C1492.5,-160 1405.5,-160 1405.5,-160 1399.5,-160 1393.5,-154 1393.5,-148 1393.5,-148 1393.5,-136 1393.5,-136 1393.5,-130 1399.5,-124 1405.5,-124 1405.5,-124 1492.5,-124 1492.5,-124 1498.5,-124 1504.5,-130 1504.5,-136 1504.5,-136 1504.5,-148 1504.5,-148 1504.5,-154 1498.5,-160 1492.5,-160"/>
<text text-anchor="middle" x="1449" y="-138.9" font-family="Helvetica,sans-Serif" font-size="12.00" fill="#2f5d08">Transformation</text>
</g>
<!-- https://w3id.org/sdata/core/Agent -->
<g id="node8" class="node">
<title>https://w3id.org/sdata/core/Agent</title>
<path fill="#e8f1ff" stroke="#2b6cb0" stroke-width="1.6" d="M1358,-376C1358,-376 1326,-376 1326,-376 1320,-376 1314,-370 1314,-364 1314,-364 1314,-352 1314,-352 1314,-346 1320,-340 1326,-340 1326,-340 1358,-340 1358,-340 1364,-340 1370,-346 1370,-352 1370,-352 1370,-364 1370,-364 1370,-370 1364,-376 1358,-376"/>
<text text-anchor="middle" x="1342" y="-354.9" font-family="Helvetica,sans-Serif" font-size="12.00" fill="#1a365d">Agent</text>
</g>
<!-- https://w3id.org/sdata/core/Agent&#45;&gt;https://w3id.org/sdata/core/Creation -->
<!-- https://w3id.org/sdata/core/MachineAgent -->
<g id="node22" class="node">
<title>https://w3id.org/sdata/core/MachineAgent</title>
<path fill="#e8f1ff" stroke="#2b6cb0" stroke-width="1.6" d="M968,-268C968,-268 882,-268 882,-268 876,-268 870,-262 870,-256 870,-256 870,-244 870,-244 870,-238 876,-232 882,-232 882,-232 968,-232 968,-232 974,-232 980,-238 980,-244 980,-244 980,-256 980,-256 980,-262 974,-268 968,-268"/>
<text text-anchor="middle" x="925" y="-246.9" font-family="Helvetica,sans-Serif" font-size="12.00" fill="#1a365d">Machine Agent</text>
</g>
<!-- https://w3id.org/sdata/core/Agent&#45;&gt;https://w3id.org/sdata/core/MachineAgent -->
<g id="edge1" class="edge">
<title>https://w3id.org/sdata/core/Agent&#45;&gt;https://w3id.org/sdata/core/MachineAgent</title>
<path fill="none" stroke="#4a5568" stroke-width="1.6" d="M1313.99,-349.88C1247.85,-333.07 1080.63,-290.56 988.43,-267.12"/>
<polygon fill="#4a5568" stroke="#4a5568" stroke-width="1.6" points="988.99,-264.2 980.02,-264.99 987.53,-269.96 988.99,-264.2"/>
</g>
<!-- https://w3id.org/sdata/core/Organization -->
<g id="node28" class="node">
<title>https://w3id.org/sdata/core/Organization</title>
<path fill="#e8f1ff" stroke="#2b6cb0" stroke-width="1.6" d="M1104,-268C1104,-268 1032,-268 1032,-268 1026,-268 1020,-262 1020,-256 1020,-256 1020,-244 1020,-244 1020,-238 1026,-232 1032,-232 1032,-232 1104,-232 1104,-232 1110,-232 1116,-238 1116,-244 1116,-244 1116,-256 1116,-256 1116,-262 1110,-268 1104,-268"/>
<text text-anchor="middle" x="1068" y="-246.9" font-family="Helvetica,sans-Serif" font-size="12.00" fill="#1a365d">Organization</text>
</g>
<!-- https://w3id.org/sdata/core/Agent&#45;&gt;https://w3id.org/sdata/core/Organization -->
<g id="edge2" class="edge">
<title>https://w3id.org/sdata/core/Agent&#45;&gt;https://w3id.org/sdata/core/Organization</title>
<path fill="none" stroke="#4a5568" stroke-width="1.6" d="M1313.96,-346.15C1268.46,-328.55 1177.84,-293.49 1120.21,-271.2"/>
<polygon fill="#4a5568" stroke="#4a5568" stroke-width="1.6" points="1120.95,-268.3 1111.95,-268 1118.81,-273.85 1120.95,-268.3"/>
</g>
<!-- https://w3id.org/sdata/core/Person -->
<g id="node29" class="node">
<title>https://w3id.org/sdata/core/Person</title>
<path fill="#e8f1ff" stroke="#2b6cb0" stroke-width="1.6" d="M1205.5,-268C1205.5,-268 1168.5,-268 1168.5,-268 1162.5,-268 1156.5,-262 1156.5,-256 1156.5,-256 1156.5,-244 1156.5,-244 1156.5,-238 1162.5,-232 1168.5,-232 1168.5,-232 1205.5,-232 1205.5,-232 1211.5,-232 1217.5,-238 1217.5,-244 1217.5,-244 1217.5,-256 1217.5,-256 1217.5,-262 1211.5,-268 1205.5,-268"/>
<text text-anchor="middle" x="1187" y="-246.9" font-family="Helvetica,sans-Serif" font-size="12.00" fill="#1a365d">Person</text>
</g>
<!-- https://w3id.org/sdata/core/Agent&#45;&gt;https://w3id.org/sdata/core/Person -->
<g id="edge3" class="edge">
<title>https://w3id.org/sdata/core/Agent&#45;&gt;https://w3id.org/sdata/core/Person</title>
<path fill="none" stroke="#4a5568" stroke-width="1.6" d="M1317.1,-339.97C1290.51,-321.79 1248.29,-292.91 1219.2,-273.02"/>
<polygon fill="#4a5568" stroke="#4a5568" stroke-width="1.6" points="1220.79,-270.51 1212.1,-268.16 1217.44,-275.42 1220.79,-270.51"/>
</g>
<!-- https://w3id.org/sdata/core/SoftwareAgent -->
<g id="node35" class="node">
<title>https://w3id.org/sdata/core/SoftwareAgent</title>
<path fill="#e8f1ff" stroke="#2b6cb0" stroke-width="1.6" d="M1358,-268C1358,-268 1270,-268 1270,-268 1264,-268 1258,-262 1258,-256 1258,-256 1258,-244 1258,-244 1258,-238 1264,-232 1270,-232 1270,-232 1358,-232 1358,-232 1364,-232 1370,-238 1370,-244 1370,-244 1370,-256 1370,-256 1370,-262 1364,-268 1358,-268"/>
<text text-anchor="middle" x="1314" y="-246.9" font-family="Helvetica,sans-Serif" font-size="12.00" fill="#1a365d">Software Agent</text>
</g>
<!-- https://w3id.org/sdata/core/Agent&#45;&gt;https://w3id.org/sdata/core/SoftwareAgent -->
<g id="edge4" class="edge">
<title>https://w3id.org/sdata/core/Agent&#45;&gt;https://w3id.org/sdata/core/SoftwareAgent</title>
<path fill="none" stroke="#4a5568" stroke-width="1.6" d="M1337.5,-339.97C1332.98,-322.84 1325.95,-296.22 1320.75,-276.56"/>
<polygon fill="#4a5568" stroke="#4a5568" stroke-width="1.6" points="1323.63,-275.8 1318.58,-268.34 1317.88,-277.32 1323.63,-275.8"/>
</g>
<!-- https://w3id.org/sdata/core/AssemblyProcess -->
<g id="node9" class="node">
<title>https://w3id.org/sdata/core/AssemblyProcess</title>
<path fill="#e8f1ff" stroke="#2b6cb0" stroke-width="1.6" d="M130,-160C130,-160 28,-160 28,-160 22,-160 16,-154 16,-148 16,-148 16,-136 16,-136 16,-130 22,-124 28,-124 28,-124 130,-124 130,-124 136,-124 142,-130 142,-136 142,-136 142,-148 142,-148 142,-154 136,-160 130,-160"/>
<text text-anchor="middle" x="79" y="-138.9" font-family="Helvetica,sans-Serif" font-size="12.00" fill="#1a365d">Assembly Process</text>
</g>
<!-- https://w3id.org/sdata/core/AttributeQuantityValue -->
<g id="node10" class="node">
<title>https://w3id.org/sdata/core/AttributeQuantityValue</title>
<path fill="#e8f1ff" stroke="#2b6cb0" stroke-width="1.6" d="M1046.5,-376C1046.5,-376 905.5,-376 905.5,-376 899.5,-376 893.5,-370 893.5,-364 893.5,-364 893.5,-352 893.5,-352 893.5,-346 899.5,-340 905.5,-340 905.5,-340 1046.5,-340 1046.5,-340 1052.5,-340 1058.5,-346 1058.5,-352 1058.5,-352 1058.5,-364 1058.5,-364 1058.5,-370 1052.5,-376 1046.5,-376"/>
<text text-anchor="middle" x="976" y="-354.9" font-family="Helvetica,sans-Serif" font-size="12.00" fill="#1a365d">Attribute Quantity Value</text>
</g>
<!-- https://w3id.org/sdata/core/Certificate -->
<g id="node11" class="node">
<title>https://w3id.org/sdata/core/Certificate</title>
<path fill="#e8f1ff" stroke="#2b6cb0" stroke-width="1.6" d="M640.5,-268C640.5,-268 581.5,-268 581.5,-268 575.5,-268 569.5,-262 569.5,-256 569.5,-256 569.5,-244 569.5,-244 569.5,-238 575.5,-232 581.5,-232 581.5,-232 640.5,-232 640.5,-232 646.5,-232 652.5,-238 652.5,-244 652.5,-244 652.5,-256 652.5,-256 652.5,-262 646.5,-268 640.5,-268"/>
<text text-anchor="middle" x="611" y="-246.9" font-family="Helvetica,sans-Serif" font-size="12.00" fill="#1a365d">Certificate</text>
</g>
<!-- https://w3id.org/sdata/core/ChemicalAnalysis -->
<g id="node12" class="node">
<title>https://w3id.org/sdata/core/ChemicalAnalysis</title>
<path fill="#e8f1ff" stroke="#2b6cb0" stroke-width="1.6" d="M132,-52C132,-52 28,-52 28,-52 22,-52 16,-46 16,-40 16,-40 16,-28 16,-28 16,-22 22,-16 28,-16 28,-16 132,-16 132,-16 138,-16 144,-22 144,-28 144,-28 144,-40 144,-40 144,-46 138,-52 132,-52"/>
<text text-anchor="middle" x="80" y="-30.9" font-family="Helvetica,sans-Serif" font-size="12.00" fill="#1a365d">Chemical Analysis</text>
</g>
<!-- https://w3id.org/sdata/core/CoatingProcess -->
<g id="node13" class="node">
<title>https://w3id.org/sdata/core/CoatingProcess</title>
<path fill="#e8f1ff" stroke="#2b6cb0" stroke-width="1.6" d="M669.5,-52C669.5,-52 578.5,-52 578.5,-52 572.5,-52 566.5,-46 566.5,-40 566.5,-40 566.5,-28 566.5,-28 566.5,-22 572.5,-16 578.5,-16 578.5,-16 669.5,-16 669.5,-16 675.5,-16 681.5,-22 681.5,-28 681.5,-28 681.5,-40 681.5,-40 681.5,-46 675.5,-52 669.5,-52"/>
<text text-anchor="middle" x="624" y="-30.9" font-family="Helvetica,sans-Serif" font-size="12.00" fill="#1a365d">Coating Process</text>
</g>
<!-- https://w3id.org/sdata/core/CrashSimulation -->
<g id="node14" class="node">
<title>https://w3id.org/sdata/core/CrashSimulation</title>
<path fill="#e8f1ff" stroke="#2b6cb0" stroke-width="1.6" d="M1294,-52C1294,-52 1196,-52 1196,-52 1190,-52 1184,-46 1184,-40 1184,-40 1184,-28 1184,-28 1184,-22 1190,-16 1196,-16 1196,-16 1294,-16 1294,-16 1300,-16 1306,-22 1306,-28 1306,-28 1306,-40 1306,-40 1306,-46 1300,-52 1294,-52"/>
<text text-anchor="middle" x="1245" y="-30.9" font-family="Helvetica,sans-Serif" font-size="12.00" fill="#1a365d">Crash Simulation</text>
</g>
<!-- https://w3id.org/sdata/core/Data -->
<g id="node15" class="node">
<title>https://w3id.org/sdata/core/Data</title>
<path fill="#e8f1ff" stroke="#2b6cb0" stroke-width="1.6" d="M701,-376C701,-376 671,-376 671,-376 665,-376 659,-370 659,-364 659,-364 659,-352 659,-352 659,-346 665,-340 671,-340 671,-340 701,-340 701,-340 707,-340 713,-346 713,-352 713,-352 713,-364 713,-364 713,-370 707,-376 701,-376"/>
<text text-anchor="middle" x="686" y="-354.9" font-family="Helvetica,sans-Serif" font-size="12.00" fill="#1a365d">Data</text>
</g>
<!-- https://w3id.org/sdata/core/Data&#45;&gt;https://w3id.org/sdata/core/Certificate -->
<g id="edge6" class="edge">
<title>https://w3id.org/sdata/core/Data&#45;&gt;https://w3id.org/sdata/core/Certificate</title>
<path fill="none" stroke="#4a5568" stroke-width="1.6" d="M673.95,-339.97C661.61,-322.53 642.32,-295.26 628.34,-275.51"/>
<polygon fill="#4a5568" stroke="#4a5568" stroke-width="1.6" points="630.61,-273.56 623.27,-268.34 625.75,-277 630.61,-273.56"/>
</g>
<!-- https://w3id.org/sdata/core/DigitalProductPass -->
<g id="node16" class="node">
<title>https://w3id.org/sdata/core/DigitalProductPass</title>
<path fill="#e8f1ff" stroke="#2b6cb0" stroke-width="1.6" d="M817.5,-268C817.5,-268 704.5,-268 704.5,-268 698.5,-268 692.5,-262 692.5,-256 692.5,-256 692.5,-244 692.5,-244 692.5,-238 698.5,-232 704.5,-232 704.5,-232 817.5,-232 817.5,-232 823.5,-232 829.5,-238 829.5,-244 829.5,-244 829.5,-256 829.5,-256 829.5,-262 823.5,-268 817.5,-268"/>
<text text-anchor="middle" x="761" y="-246.9" font-family="Helvetica,sans-Serif" font-size="12.00" fill="#1a365d">Digital Product Pass</text>
</g>
<!-- https://w3id.org/sdata/core/Data&#45;&gt;https://w3id.org/sdata/core/DigitalProductPass -->
<g id="edge7" class="edge">
<title>https://w3id.org/sdata/core/Data&#45;&gt;https://w3id.org/sdata/core/DigitalProductPass</title>
<path fill="none" stroke="#4a5568" stroke-width="1.6" d="M698.05,-339.97C710.39,-322.53 729.68,-295.26 743.66,-275.51"/>
<polygon fill="#4a5568" stroke="#4a5568" stroke-width="1.6" points="746.25,-277 748.73,-268.34 741.39,-273.56 746.25,-277"/>
</g>
<!-- https://w3id.org/sdata/core/Experiment -->
<g id="node17" class="node">
<title>https://w3id.org/sdata/core/Experiment</title>
<path fill="#e8f1ff" stroke="#2b6cb0" stroke-width="1.6" d="M268,-160C268,-160 202,-160 202,-160 196,-160 190,-154 190,-148 190,-148 190,-136 190,-136 190,-130 196,-124 202,-124 202,-124 268,-124 268,-124 274,-124 280,-130 280,-136 280,-136 280,-148 280,-148 280,-154 274,-160 268,-160"/>
<text text-anchor="middle" x="235" y="-138.9" font-family="Helvetica,sans-Serif" font-size="12.00" fill="#1a365d">Experiment</text>
</g>
<!-- https://w3id.org/sdata/core/Experiment&#45;&gt;https://w3id.org/sdata/core/ChemicalAnalysis -->
<g id="edge8" class="edge">
<title>https://w3id.org/sdata/core/Experiment&#45;&gt;https://w3id.org/sdata/core/ChemicalAnalysis</title>
<path fill="none" stroke="#4a5568" stroke-width="1.6" d="M210.1,-123.97C183.51,-105.79 141.29,-76.91 112.2,-57.02"/>
<polygon fill="#4a5568" stroke="#4a5568" stroke-width="1.6" points="113.79,-54.51 105.1,-52.16 110.44,-59.42 113.79,-54.51"/>
</g>
<!-- https://w3id.org/sdata/core/MechanicalTest -->
<g id="node25" class="node">
<title>https://w3id.org/sdata/core/MechanicalTest</title>
<path fill="#e8f1ff" stroke="#2b6cb0" stroke-width="1.6" d="M287.5,-52C287.5,-52 196.5,-52 196.5,-52 190.5,-52 184.5,-46 184.5,-40 184.5,-40 184.5,-28 184.5,-28 184.5,-22 190.5,-16 196.5,-16 196.5,-16 287.5,-16 287.5,-16 293.5,-16 299.5,-22 299.5,-28 299.5,-28 299.5,-40 299.5,-40 299.5,-46 293.5,-52 287.5,-52"/>
<text text-anchor="middle" x="242" y="-30.9" font-family="Helvetica,sans-Serif" font-size="12.00" fill="#1a365d">Mechanical Test</text>
</g>
<!-- https://w3id.org/sdata/core/Experiment&#45;&gt;https://w3id.org/sdata/core/MechanicalTest -->
<g id="edge9" class="edge">
<title>https://w3id.org/sdata/core/Experiment&#45;&gt;https://w3id.org/sdata/core/MechanicalTest</title>
<path fill="none" stroke="#4a5568" stroke-width="1.6" d="M236.12,-123.97C237.25,-106.92 239,-80.46 240.29,-60.82"/>
<polygon fill="#4a5568" stroke="#4a5568" stroke-width="1.6" points="243.26,-61.02 240.85,-52.34 237.33,-60.63 243.26,-61.02"/>
</g>
<!-- https://w3id.org/sdata/core/MetallographicExamination -->
<g id="node26" class="node">
<title>https://w3id.org/sdata/core/MetallographicExamination</title>
<path fill="#e8f1ff" stroke="#2b6cb0" stroke-width="1.6" d="M514.5,-52C514.5,-52 351.5,-52 351.5,-52 345.5,-52 339.5,-46 339.5,-40 339.5,-40 339.5,-28 339.5,-28 339.5,-22 345.5,-16 351.5,-16 351.5,-16 514.5,-16 514.5,-16 520.5,-16 526.5,-22 526.5,-28 526.5,-28 526.5,-40 526.5,-40 526.5,-46 520.5,-52 514.5,-52"/>
<text text-anchor="middle" x="433" y="-30.9" font-family="Helvetica,sans-Serif" font-size="12.00" fill="#1a365d">Metallographic Examination</text>
</g>
<!-- https://w3id.org/sdata/core/Experiment&#45;&gt;https://w3id.org/sdata/core/MetallographicExamination -->
<g id="edge10" class="edge">
<title>https://w3id.org/sdata/core/Experiment&#45;&gt;https://w3id.org/sdata/core/MetallographicExamination</title>
<path fill="none" stroke="#4a5568" stroke-width="1.6" d="M266.81,-123.97C301.21,-105.56 356.08,-76.18 393.28,-56.26"/>
<polygon fill="#4a5568" stroke="#4a5568" stroke-width="1.6" points="394.85,-58.8 400.94,-52.16 392.04,-53.55 394.85,-58.8"/>
</g>
<!-- https://w3id.org/sdata/core/FormingProcess -->
<g id="node18" class="node">
<title>https://w3id.org/sdata/core/FormingProcess</title>
<path fill="#e8f1ff" stroke="#2b6cb0" stroke-width="1.6" d="M828,-52C828,-52 734,-52 734,-52 728,-52 722,-46 722,-40 722,-40 722,-28 722,-28 722,-22 728,-16 734,-16 734,-16 828,-16 828,-16 834,-16 840,-22 840,-28 840,-28 840,-40 840,-40 840,-46 834,-52 828,-52"/>
<text text-anchor="middle" x="781" y="-30.9" font-family="Helvetica,sans-Serif" font-size="12.00" fill="#1a365d">Forming Process</text>
</g>
<!-- https://w3id.org/sdata/core/Hardware -->
<g id="node19" class="node">
<title>https://w3id.org/sdata/core/Hardware</title>
<path fill="#e8f1ff" stroke="#2b6cb0" stroke-width="1.6" d="M188,-268C188,-268 134,-268 134,-268 128,-268 122,-262 122,-256 122,-256 122,-244 122,-244 122,-238 128,-232 134,-232 134,-232 188,-232 188,-232 194,-232 200,-238 200,-244 200,-244 200,-256 200,-256 200,-262 194,-268 188,-268"/>
<text text-anchor="middle" x="161" y="-246.9" font-family="Helvetica,sans-Serif" font-size="12.00" fill="#1a365d">Hardware</text>
</g>
<!-- https://w3id.org/sdata/core/HeatTreatment -->
<g id="node20" class="node">
<title>https://w3id.org/sdata/core/HeatTreatment</title>
<path fill="#e8f1ff" stroke="#2b6cb0" stroke-width="1.6" d="M982,-52C982,-52 892,-52 892,-52 886,-52 880,-46 880,-40 880,-40 880,-28 880,-28 880,-22 886,-16 892,-16 892,-16 982,-16 982,-16 988,-16 994,-22 994,-28 994,-28 994,-40 994,-40 994,-46 988,-52 982,-52"/>
<text text-anchor="middle" x="937" y="-30.9" font-family="Helvetica,sans-Serif" font-size="12.00" fill="#1a365d">Heat Treatment</text>
</g>
<!-- https://w3id.org/sdata/core/JoiningProcess -->
<g id="node21" class="node">
<title>https://w3id.org/sdata/core/JoiningProcess</title>
<path fill="#e8f1ff" stroke="#2b6cb0" stroke-width="1.6" d="M1131.5,-52C1131.5,-52 1046.5,-52 1046.5,-52 1040.5,-52 1034.5,-46 1034.5,-40 1034.5,-40 1034.5,-28 1034.5,-28 1034.5,-22 1040.5,-16 1046.5,-16 1046.5,-16 1131.5,-16 1131.5,-16 1137.5,-16 1143.5,-22 1143.5,-28 1143.5,-28 1143.5,-40 1143.5,-40 1143.5,-46 1137.5,-52 1131.5,-52"/>
<text text-anchor="middle" x="1089" y="-30.9" font-family="Helvetica,sans-Serif" font-size="12.00" fill="#1a365d">Joining Process</text>
</g>
<!-- https://w3id.org/sdata/core/ManufacturingProcess -->
<g id="node23" class="node">
<title>https://w3id.org/sdata/core/ManufacturingProcess</title>
<path fill="#e8f1ff" stroke="#2b6cb0" stroke-width="1.6" d="M690,-160C690,-160 558,-160 558,-160 552,-160 546,-154 546,-148 546,-148 546,-136 546,-136 546,-130 552,-124 558,-124 558,-124 690,-124 690,-124 696,-124 702,-130 702,-136 702,-136 702,-148 702,-148 702,-154 696,-160 690,-160"/>
<text text-anchor="middle" x="624" y="-138.9" font-family="Helvetica,sans-Serif" font-size="12.00" fill="#1a365d">Manufacturing Process</text>
</g>
<!-- https://w3id.org/sdata/core/ManufacturingProcess&#45;&gt;https://w3id.org/sdata/core/CoatingProcess -->
<g id="edge11" class="edge">
<title>https://w3id.org/sdata/core/ManufacturingProcess&#45;&gt;https://w3id.org/sdata/core/CoatingProcess</title>
<path fill="none" stroke="#4a5568" stroke-width="1.6" d="M624,-123.97C624,-106.99 624,-80.7 624,-61.09"/>
<polygon fill="#4a5568" stroke="#4a5568" stroke-width="1.6" points="626.98,-60.84 624,-52.34 621.03,-60.84 626.98,-60.84"/>
</g>
<!-- https://w3id.org/sdata/core/ManufacturingProcess&#45;&gt;https://w3id.org/sdata/core/FormingProcess -->
<g id="edge12" class="edge">
<title>https://w3id.org/sdata/core/ManufacturingProcess&#45;&gt;https://w3id.org/sdata/core/FormingProcess</title>
<path fill="none" stroke="#4a5568" stroke-width="1.6" d="M649.22,-123.97C676.15,-105.79 718.92,-76.91 748.39,-57.02"/>
<polygon fill="#4a5568" stroke="#4a5568" stroke-width="1.6" points="750.2,-59.39 755.58,-52.16 746.87,-54.45 750.2,-59.39"/>
</g>
<!-- https://w3id.org/sdata/core/ManufacturingProcess&#45;&gt;https://w3id.org/sdata/core/HeatTreatment -->
<g id="edge13" class="edge">
<title>https://w3id.org/sdata/core/ManufacturingProcess&#45;&gt;https://w3id.org/sdata/core/HeatTreatment</title>
<path fill="none" stroke="#4a5568" stroke-width="1.6" d="M674.29,-123.97C729.99,-105.11 819.68,-74.73 878.49,-54.81"/>
<polygon fill="#4a5568" stroke="#4a5568" stroke-width="1.6" points="879.48,-57.62 886.58,-52.08 877.57,-51.99 879.48,-57.62"/>
</g>
<!-- https://w3id.org/sdata/core/ManufacturingProcess&#45;&gt;https://w3id.org/sdata/core/JoiningProcess -->
<g id="edge14" class="edge">
<title>https://w3id.org/sdata/core/ManufacturingProcess&#45;&gt;https://w3id.org/sdata/core/JoiningProcess</title>
<path fill="none" stroke="#4a5568" stroke-width="1.6" d="M689.55,-123.95C700.38,-121.23 711.49,-118.49 722,-116 851.28,-85.35 884.32,-80.91 1014,-52 1017.77,-51.16 1021.64,-50.29 1025.55,-49.42"/>
<polygon fill="#4a5568" stroke="#4a5568" stroke-width="1.6" points="1026.48,-52.25 1034.12,-47.49 1025.18,-46.45 1026.48,-52.25"/>
</g>
<!-- https://w3id.org/sdata/core/Material -->
<g id="node24" class="node">
<title>https://w3id.org/sdata/core/Material</title>
<path fill="#e8f1ff" stroke="#2b6cb0" stroke-width="1.6" d="M297.5,-268C297.5,-268 252.5,-268 252.5,-268 246.5,-268 240.5,-262 240.5,-256 240.5,-256 240.5,-244 240.5,-244 240.5,-238 246.5,-232 252.5,-232 252.5,-232 297.5,-232 297.5,-232 303.5,-232 309.5,-238 309.5,-244 309.5,-244 309.5,-256 309.5,-256 309.5,-262 303.5,-268 297.5,-268"/>
<text text-anchor="middle" x="275" y="-246.9" font-family="Helvetica,sans-Serif" font-size="12.00" fill="#1a365d">Material</text>
</g>
<!-- https://w3id.org/sdata/core/Object -->
<g id="node27" class="node">
<title>https://w3id.org/sdata/core/Object</title>
<path fill="#e8f1ff" stroke="#2b6cb0" stroke-width="1.6" d="M347,-376C347,-376 311,-376 311,-376 305,-376 299,-370 299,-364 299,-364 299,-352 299,-352 299,-346 305,-340 311,-340 311,-340 347,-340 347,-340 353,-340 359,-346 359,-352 359,-352 359,-364 359,-364 359,-370 353,-376 347,-376"/>
<text text-anchor="middle" x="329" y="-354.9" font-family="Helvetica,sans-Serif" font-size="12.00" fill="#1a365d">Object</text>
</g>
<!-- https://w3id.org/sdata/core/Object&#45;&gt;https://w3id.org/sdata/core/Hardware -->
<g id="edge15" class="edge">
<title>https://w3id.org/sdata/core/Object&#45;&gt;https://w3id.org/sdata/core/Hardware</title>
<path fill="none" stroke="#4a5568" stroke-width="1.6" d="M302.01,-339.97C273.07,-321.71 227.04,-292.67 195.5,-272.76"/>
<polygon fill="#4a5568" stroke="#4a5568" stroke-width="1.6" points="196.98,-270.18 188.2,-268.16 193.8,-275.22 196.98,-270.18"/>
</g>
<!-- https://w3id.org/sdata/core/Object&#45;&gt;https://w3id.org/sdata/core/Material -->
<g id="edge16" class="edge">
<title>https://w3id.org/sdata/core/Object&#45;&gt;https://w3id.org/sdata/core/Material</title>
<path fill="none" stroke="#4a5568" stroke-width="1.6" d="M320.32,-339.97C311.52,-322.69 297.79,-295.74 287.75,-276.03"/>
<polygon fill="#4a5568" stroke="#4a5568" stroke-width="1.6" points="290.34,-274.56 283.83,-268.34 285.04,-277.26 290.34,-274.56"/>
</g>
<!-- https://w3id.org/sdata/core/Product -->
<g id="node31" class="node">
<title>https://w3id.org/sdata/core/Product</title>
<path fill="#e8f1ff" stroke="#2b6cb0" stroke-width="1.6" d="M404,-268C404,-268 362,-268 362,-268 356,-268 350,-262 350,-256 350,-256 350,-244 350,-244 350,-238 356,-232 362,-232 362,-232 404,-232 404,-232 410,-232 416,-238 416,-244 416,-244 416,-256 416,-256 416,-262 410,-268 404,-268"/>
<text text-anchor="middle" x="383" y="-246.9" font-family="Helvetica,sans-Serif" font-size="12.00" fill="#1a365d">Product</text>
</g>
<!-- https://w3id.org/sdata/core/Object&#45;&gt;https://w3id.org/sdata/core/Product -->
<g id="edge17" class="edge">
<title>https://w3id.org/sdata/core/Object&#45;&gt;https://w3id.org/sdata/core/Product</title>
<path fill="none" stroke="#4a5568" stroke-width="1.6" d="M337.68,-339.97C346.48,-322.69 360.21,-295.74 370.25,-276.03"/>
<polygon fill="#4a5568" stroke="#4a5568" stroke-width="1.6" points="372.96,-277.26 374.17,-268.34 367.66,-274.56 372.96,-277.26"/>
</g>
<!-- https://w3id.org/sdata/core/Software -->
<g id="node34" class="node">
<title>https://w3id.org/sdata/core/Software</title>
<path fill="#e8f1ff" stroke="#2b6cb0" stroke-width="1.6" d="M517.5,-268C517.5,-268 468.5,-268 468.5,-268 462.5,-268 456.5,-262 456.5,-256 456.5,-256 456.5,-244 456.5,-244 456.5,-238 462.5,-232 468.5,-232 468.5,-232 517.5,-232 517.5,-232 523.5,-232 529.5,-238 529.5,-244 529.5,-244 529.5,-256 529.5,-256 529.5,-262 523.5,-268 517.5,-268"/>
<text text-anchor="middle" x="493" y="-246.9" font-family="Helvetica,sans-Serif" font-size="12.00" fill="#1a365d">Software</text>
</g>
<!-- https://w3id.org/sdata/core/Object&#45;&gt;https://w3id.org/sdata/core/Software -->
<g id="edge18" class="edge">
<title>https://w3id.org/sdata/core/Object&#45;&gt;https://w3id.org/sdata/core/Software</title>
<path fill="none" stroke="#4a5568" stroke-width="1.6" d="M355.35,-339.97C383.48,-321.79 428.15,-292.91 458.94,-273.02"/>
<polygon fill="#4a5568" stroke="#4a5568" stroke-width="1.6" points="460.92,-275.28 466.44,-268.16 457.69,-270.28 460.92,-275.28"/>
</g>
<!-- https://w3id.org/sdata/core/Process -->
<g id="node30" class="node">
<title>https://w3id.org/sdata/core/Process</title>
<path fill="#e8f1ff" stroke="#2b6cb0" stroke-width="1.6" d="M70,-268C70,-268 28,-268 28,-268 22,-268 16,-262 16,-256 16,-256 16,-244 16,-244 16,-238 22,-232 28,-232 28,-232 70,-232 70,-232 76,-232 82,-238 82,-244 82,-244 82,-256 82,-256 82,-262 76,-268 70,-268"/>
<text text-anchor="middle" x="49" y="-246.9" font-family="Helvetica,sans-Serif" font-size="12.00" fill="#1a365d">Process</text>
</g>
<!-- https://w3id.org/sdata/core/Process&#45;&gt;https://w3id.org/sdata/core/Creation -->
<g id="edge25" class="edge">
<title>https://w3id.org/sdata/core/Process&#45;&gt;https://w3id.org/sdata/core/Creation</title>
<path fill="none" stroke="#4a5568" stroke-width="1.6" d="M82.28,-236.69C88.74,-234.77 95.52,-233.07 102,-232 214.22,-213.49 2044.09,-241.92 2149,-198 2164.45,-191.53 2177.97,-178.6 2187.85,-166.9"/>
<polygon fill="#4a5568" stroke="#4a5568" stroke-width="1.6" points="2190.22,-168.7 2193.24,-160.21 2185.59,-164.97 2190.22,-168.7"/>
</g>
<!-- https://w3id.org/sdata/core/Process&#45;&gt;https://w3id.org/sdata/core/Destruction -->
<g id="edge26" class="edge">
<title>https://w3id.org/sdata/core/Process&#45;&gt;https://w3id.org/sdata/core/Destruction</title>
<path fill="none" stroke="#4a5568" stroke-width="1.6" d="M82.28,-236.7C88.74,-234.78 95.52,-233.07 102,-232 207.09,-214.6 1919.31,-235.52 2019,-198 2036.16,-191.54 2051.95,-178.43 2063.67,-166.63"/>
<polygon fill="#4a5568" stroke="#4a5568" stroke-width="1.6" points="2066.03,-168.46 2069.74,-160.26 2061.73,-164.36 2066.03,-168.46"/>
</g>
<!-- https://w3id.org/sdata/core/Process&#45;&gt;https://w3id.org/sdata/core/Observation -->
<g id="edge27" class="edge">
<title>https://w3id.org/sdata/core/Process&#45;&gt;https://w3id.org/sdata/core/Observation</title>
<path fill="none" stroke="#4a5568" stroke-width="1.6" d="M82.28,-236.7C88.74,-234.78 95.52,-233.08 102,-232 297.57,-199.49 1700.23,-267.27 1886,-198 1903.33,-191.54 1919.36,-178.43 1931.28,-166.63"/>
<polygon fill="#4a5568" stroke="#4a5568" stroke-width="1.6" points="1933.68,-168.43 1937.47,-160.26 1929.41,-164.28 1933.68,-168.43"/>
</g>
<!-- https://w3id.org/sdata/core/Process&#45;&gt;https://w3id.org/sdata/core/Preservation -->
<g id="edge28" class="edge">
<title>https://w3id.org/sdata/core/Process&#45;&gt;https://w3id.org/sdata/core/Preservation</title>
<path fill="none" stroke="#4a5568" stroke-width="1.6" d="M82.28,-236.71C88.74,-234.79 95.52,-233.08 102,-232 282.65,-201.83 1577.98,-260.86 1750,-198 1767.85,-191.48 1784.5,-178.18 1796.86,-166.3"/>
<polygon fill="#4a5568" stroke="#4a5568" stroke-width="1.6" points="1799,-168.37 1802.92,-160.26 1794.8,-164.15 1799,-168.37"/>
</g>
<!-- https://w3id.org/sdata/core/Process&#45;&gt;https://w3id.org/sdata/core/Recovery -->
<g id="edge29" class="edge">
<title>https://w3id.org/sdata/core/Process&#45;&gt;https://w3id.org/sdata/core/Recovery</title>
<path fill="none" stroke="#4a5568" stroke-width="1.6" d="M82.28,-236.72C88.74,-234.8 95.52,-233.09 102,-232 269.92,-203.82 1476.56,-262.81 1634,-198 1649.77,-191.51 1663.76,-178.58 1674.05,-166.88"/>
<polygon fill="#4a5568" stroke="#4a5568" stroke-width="1.6" points="1676.48,-168.62 1679.67,-160.2 1671.92,-164.79 1676.48,-168.62"/>
</g>
<!-- https://w3id.org/sdata/core/Process&#45;&gt;https://w3id.org/sdata/core/Transfer -->
<g id="edge30" class="edge">
<title>https://w3id.org/sdata/core/Process&#45;&gt;https://w3id.org/sdata/core/Transfer</title>
<path fill="none" stroke="#4a5568" stroke-width="1.6" d="M82,-236.81C88.54,-234.86 95.43,-233.11 102,-232 257.95,-205.69 1379.9,-260.93 1525,-198 1539.94,-191.52 1552.89,-178.76 1562.35,-167.17"/>
<polygon fill="#4a5568" stroke="#4a5568" stroke-width="1.6" points="1564.93,-168.71 1567.78,-160.16 1560.22,-165.06 1564.93,-168.71"/>
</g>
<!-- https://w3id.org/sdata/core/Process&#45;&gt;https://w3id.org/sdata/core/Transformation -->
<g id="edge31" class="edge">
<title>https://w3id.org/sdata/core/Process&#45;&gt;https://w3id.org/sdata/core/Transformation</title>
<path fill="none" stroke="#4a5568" stroke-width="1.6" d="M82,-236.83C88.55,-234.87 95.43,-233.12 102,-232 242.92,-208.04 1255.26,-251.03 1388,-198 1404.42,-191.44 1419.25,-178.32 1430.18,-166.55"/>
<polygon fill="#4a5568" stroke="#4a5568" stroke-width="1.6" points="1432.4,-168.52 1435.83,-160.19 1427.96,-164.57 1432.4,-168.52"/>
</g>
<!-- https://w3id.org/sdata/core/Process&#45;&gt;https://w3id.org/sdata/core/AssemblyProcess -->
<g id="edge19" class="edge">
<title>https://w3id.org/sdata/core/Process&#45;&gt;https://w3id.org/sdata/core/AssemblyProcess</title>
<path fill="none" stroke="#4a5568" stroke-width="1.6" d="M53.82,-231.97C58.67,-214.84 66.2,-188.22 71.77,-168.56"/>
<polygon fill="#4a5568" stroke="#4a5568" stroke-width="1.6" points="74.64,-169.33 74.09,-160.34 68.91,-167.71 74.64,-169.33"/>
</g>
<!-- https://w3id.org/sdata/core/Process&#45;&gt;https://w3id.org/sdata/core/Experiment -->
<g id="edge20" class="edge">
<title>https://w3id.org/sdata/core/Process&#45;&gt;https://w3id.org/sdata/core/Experiment</title>
<path fill="none" stroke="#4a5568" stroke-width="1.6" d="M82.11,-236.33C105.16,-226.97 136.26,-213.25 162,-198 178.04,-188.5 194.74,-176.13 208.11,-165.53"/>
<polygon fill="#4a5568" stroke="#4a5568" stroke-width="1.6" points="210.01,-167.81 214.78,-160.17 206.29,-163.18 210.01,-167.81"/>
</g>
<!-- https://w3id.org/sdata/core/Process&#45;&gt;https://w3id.org/sdata/core/ManufacturingProcess -->
<g id="edge21" class="edge">
<title>https://w3id.org/sdata/core/Process&#45;&gt;https://w3id.org/sdata/core/ManufacturingProcess</title>
<path fill="none" stroke="#4a5568" stroke-width="1.6" d="M82.16,-237.57C88.69,-235.55 95.52,-233.58 102,-232 107.28,-230.71 390.34,-182.64 537.36,-157.69"/>
<polygon fill="#4a5568" stroke="#4a5568" stroke-width="1.6" points="538.1,-160.59 545.98,-156.23 537.1,-154.72 538.1,-160.59"/>
</g>
<!-- https://w3id.org/sdata/core/RecyclingProcess -->
<g id="node32" class="node">
<title>https://w3id.org/sdata/core/RecyclingProcess</title>
<path fill="#e8f1ff" stroke="#2b6cb0" stroke-width="1.6" d="M856,-160C856,-160 754,-160 754,-160 748,-160 742,-154 742,-148 742,-148 742,-136 742,-136 742,-130 748,-124 754,-124 754,-124 856,-124 856,-124 862,-124 868,-130 868,-136 868,-136 868,-148 868,-148 868,-154 862,-160 856,-160"/>
<text text-anchor="middle" x="805" y="-138.9" font-family="Helvetica,sans-Serif" font-size="12.00" fill="#1a365d">Recycling Process</text>
</g>
<!-- https://w3id.org/sdata/core/Process&#45;&gt;https://w3id.org/sdata/core/RecyclingProcess -->
<g id="edge22" class="edge">
<title>https://w3id.org/sdata/core/Process&#45;&gt;https://w3id.org/sdata/core/RecyclingProcess</title>
<path fill="none" stroke="#4a5568" stroke-width="1.6" d="M82.03,-236.98C88.57,-235 95.44,-233.21 102,-232 237.69,-206.95 591.02,-241.41 722,-198 742.92,-191.07 763.58,-177.4 779.06,-165.43"/>
<polygon fill="#4a5568" stroke="#4a5568" stroke-width="1.6" points="780.99,-167.69 785.79,-160.07 777.29,-163.04 780.99,-167.69"/>
</g>
<!-- https://w3id.org/sdata/core/Simulation -->
<g id="node33" class="node">
<title>https://w3id.org/sdata/core/Simulation</title>
<path fill="#e8f1ff" stroke="#2b6cb0" stroke-width="1.6" d="M980,-160C980,-160 920,-160 920,-160 914,-160 908,-154 908,-148 908,-148 908,-136 908,-136 908,-130 914,-124 920,-124 920,-124 980,-124 980,-124 986,-124 992,-130 992,-136 992,-136 992,-148 992,-148 992,-154 986,-160 980,-160"/>
<text text-anchor="middle" x="950" y="-138.9" font-family="Helvetica,sans-Serif" font-size="12.00" fill="#1a365d">Simulation</text>
</g>
<!-- https://w3id.org/sdata/core/Process&#45;&gt;https://w3id.org/sdata/core/Simulation -->
<g id="edge23" class="edge">
<title>https://w3id.org/sdata/core/Process&#45;&gt;https://w3id.org/sdata/core/Simulation</title>
<path fill="none" stroke="#4a5568" stroke-width="1.6" d="M82.02,-236.92C88.56,-234.95 95.44,-233.17 102,-232 274.1,-201.25 725.93,-263.57 888,-198 904.54,-191.31 919.61,-178.19 930.75,-166.44"/>
<polygon fill="#4a5568" stroke="#4a5568" stroke-width="1.6" points="932.99,-168.4 936.52,-160.11 928.59,-164.39 932.99,-168.4"/>
</g>
<!-- https://w3id.org/sdata/core/Transport -->
<g id="node36" class="node">
<title>https://w3id.org/sdata/core/Transport</title>
<path fill="#e8f1ff" stroke="#2b6cb0" stroke-width="1.6" d="M1097.5,-160C1097.5,-160 1044.5,-160 1044.5,-160 1038.5,-160 1032.5,-154 1032.5,-148 1032.5,-148 1032.5,-136 1032.5,-136 1032.5,-130 1038.5,-124 1044.5,-124 1044.5,-124 1097.5,-124 1097.5,-124 1103.5,-124 1109.5,-130 1109.5,-136 1109.5,-136 1109.5,-148 1109.5,-148 1109.5,-154 1103.5,-160 1097.5,-160"/>
<text text-anchor="middle" x="1071" y="-138.9" font-family="Helvetica,sans-Serif" font-size="12.00" fill="#1a365d">Transport</text>
</g>
<!-- https://w3id.org/sdata/core/Process&#45;&gt;https://w3id.org/sdata/core/Transport -->
<g id="edge24" class="edge">
<title>https://w3id.org/sdata/core/Process&#45;&gt;https://w3id.org/sdata/core/Transport</title>
<path fill="none" stroke="#4a5568" stroke-width="1.6" d="M82.01,-236.89C88.56,-234.92 95.43,-233.15 102,-232 201.66,-214.5 918.56,-236.83 1012,-198 1027.89,-191.4 1042.12,-178.46 1052.62,-166.79"/>
<polygon fill="#4a5568" stroke="#4a5568" stroke-width="1.6" points="1055.07,-168.51 1058.36,-160.13 1050.56,-164.63 1055.07,-168.51"/>
</g>
<!-- https://w3id.org/sdata/core/Simulation&#45;&gt;https://w3id.org/sdata/core/CrashSimulation -->
<g id="edge32" class="edge">
<title>https://w3id.org/sdata/core/Simulation&#45;&gt;https://w3id.org/sdata/core/CrashSimulation</title>
<path fill="none" stroke="#4a5568" stroke-width="1.6" d="M991.58,-123.91C998.38,-121.21 1005.37,-118.49 1012,-116 1070.44,-94.07 1137.86,-70.86 1185.09,-54.93"/>
<polygon fill="#4a5568" stroke="#4a5568" stroke-width="1.6" points="1186.27,-57.67 1193.38,-52.14 1184.37,-52.03 1186.27,-57.67"/>
</g>
<!-- https://w3id.org/sdata/core/ValueDomain -->
<g id="node37" class="node">
<title>https://w3id.org/sdata/core/ValueDomain</title>
<path fill="#e8f1ff" stroke="#2b6cb0" stroke-width="1.6" d="M205,-376C205,-376 125,-376 125,-376 119,-376 113,-370 113,-364 113,-364 113,-352 113,-352 113,-346 119,-340 125,-340 125,-340 205,-340 205,-340 211,-340 217,-346 217,-352 217,-352 217,-364 217,-364 217,-370 211,-376 205,-376"/>
<text text-anchor="middle" x="165" y="-354.9" font-family="Helvetica,sans-Serif" font-size="12.00" fill="#1a365d">Value Domain</text>
</g>
</g>
</svg>
