<?xml version="1.0" encoding="UTF-8" standalone="no"?>
<!DOCTYPE svg PUBLIC "-//W3C//DTD SVG 1.1//EN"
 "http://www.w3.org/Graphics/SVG/1.1/DTD/svg11.dtd">
<!-- Generated by graphviz version 2.43.0 (0)
 -->
<!-- Pages: 1 -->
<svg width="1774pt" height="757pt"
 viewBox="0.00 0.00 1774.40 757.40" xmlns="http://www.w3.org/2000/svg" xmlns:xlink="http://www.w3.org/1999/xlink">
<g id="graph0" class="graph" transform="scale(1 1) rotate(0) translate(25.2 732.2)">
<polygon fill="#fafbfc" stroke="transparent" points="-25.2,25.2 -25.2,-732.2 1749.2,-732.2 1749.2,25.2 -25.2,25.2"/>
<text text-anchor="middle" x="862" y="-687" font-family="Helvetica,sans-Serif" font-size="20.00">sdata Class Hierarchy (BFO/PROV base hierarchy &#45;&gt; sdata classes)</text>
<g id="clust1" class="cluster">
<title>cluster_sdata</title>
<path fill="#fafbfc" stroke="#90b5e8" d="M20,-8C20,-8 1704,-8 1704,-8 1710,-8 1716,-14 1716,-20 1716,-20 1716,-78 1716,-78 1716,-84 1710,-90 1704,-90 1704,-90 20,-90 20,-90 14,-90 8,-84 8,-78 8,-78 8,-20 8,-20 8,-14 14,-8 20,-8"/>
<text text-anchor="middle" x="862" y="-70" font-family="Helvetica,sans-Serif" font-size="20.00">sdata classes</text>
</g>
<g id="clust2" class="cluster">
<title>cluster_bfo_context</title>
<path fill="#fafbfc" stroke="#f3c887" d="M105,-127C105,-127 891,-127 891,-127 897,-127 903,-133 903,-139 903,-139 903,-657 903,-657 903,-663 897,-669 891,-669 891,-669 105,-669 105,-669 99,-669 93,-663 93,-657 93,-657 93,-139 93,-139 93,-133 99,-127 105,-127"/>
<text text-anchor="middle" x="498" y="-649" font-family="Helvetica,sans-Serif" font-size="20.00">BFO hierarchy</text>
</g>
<g id="clust3" class="cluster">
<title>cluster_prov_context</title>
<path fill="#fafbfc" stroke="#9ad9bf" d="M1480,-127C1480,-127 1628,-127 1628,-127 1634,-127 1640,-133 1640,-139 1640,-139 1640,-197 1640,-197 1640,-203 1634,-209 1628,-209 1628,-209 1480,-209 1480,-209 1474,-209 1468,-203 1468,-197 1468,-197 1468,-139 1468,-139 1468,-133 1474,-127 1480,-127"/>
<text text-anchor="middle" x="1554" y="-189" font-family="Helvetica,sans-Serif" font-size="20.00">PROV hierarchy</text>
</g>
<g id="clust4" class="cluster">
<title>cluster_legend</title>
<path fill="#fafbfc" stroke="#cbd5e0" d="M1208,-464C1208,-464 1424,-464 1424,-464 1430,-464 1436,-470 1436,-476 1436,-476 1436,-657 1436,-657 1436,-663 1430,-669 1424,-669 1424,-669 1208,-669 1208,-669 1202,-669 1196,-663 1196,-657 1196,-657 1196,-476 1196,-476 1196,-470 1202,-464 1208,-464"/>
<text text-anchor="middle" x="1316" y="-649" font-family="Helvetica,sans-Serif" font-size="20.00">Legend</text>
</g>
<!-- https://w3id.org/sdata/core/Identifier -->
<g id="node1" class="node">
<title>https://w3id.org/sdata/core/Identifier</title>
<path fill="#e8f1ff" stroke="#2b6cb0" stroke-width="1.6" d="M575.5,-52C575.5,-52 524.5,-52 524.5,-52 518.5,-52 512.5,-46 512.5,-40 512.5,-40 512.5,-28 512.5,-28 512.5,-22 518.5,-16 524.5,-16 524.5,-16 575.5,-16 575.5,-16 581.5,-16 587.5,-22 587.5,-28 587.5,-28 587.5,-40 587.5,-40 587.5,-46 581.5,-52 575.5,-52"/>
<text text-anchor="middle" x="550" y="-30.9" font-family="Helvetica,sans-Serif" font-size="12.00" fill="#1a365d">Identifier</text>
</g>
<!-- https://w3id.org/sdata/core/Information -->
<g id="node2" class="node">
<title>https://w3id.org/sdata/core/Information</title>
<path fill="#e8f1ff" stroke="#2b6cb0" stroke-width="1.6" d="M706,-52C706,-52 640,-52 640,-52 634,-52 628,-46 628,-40 628,-40 628,-28 628,-28 628,-22 634,-16 640,-16 640,-16 706,-16 706,-16 712,-16 718,-22 718,-28 718,-28 718,-40 718,-40 718,-46 712,-52 706,-52"/>
<text text-anchor="middle" x="673" y="-30.9" font-family="Helvetica,sans-Serif" font-size="12.00" fill="#1a365d">Information</text>
</g>
<!-- https://w3id.org/sdata/core/InformationAgent -->
<g id="node3" class="node">
<title>https://w3id.org/sdata/core/InformationAgent</title>
<path fill="#e8f1ff" stroke="#2b6cb0" stroke-width="1.6" d="M1358.5,-52C1358.5,-52 1253.5,-52 1253.5,-52 1247.5,-52 1241.5,-46 1241.5,-40 1241.5,-40 1241.5,-28 1241.5,-28 1241.5,-22 1247.5,-16 1253.5,-16 1253.5,-16 1358.5,-16 1358.5,-16 1364.5,-16 1370.5,-22 1370.5,-28 1370.5,-28 1370.5,-40 1370.5,-40 1370.5,-46 1364.5,-52 1358.5,-52"/>
<text text-anchor="middle" x="1306" y="-30.9" font-family="Helvetica,sans-Serif" font-size="12.00" fill="#1a365d">Information Agent</text>
</g>
<!-- https://w3id.org/sdata/core/InformationArtifact -->
<g id="node4" class="node">
<title>https://w3id.org/sdata/core/InformationArtifact</title>
<path fill="#e8f1ff" stroke="#2b6cb0" stroke-width="1.6" d="M1032,-52C1032,-52 918,-52 918,-52 912,-52 906,-46 906,-40 906,-40 906,-28 906,-28 906,-22 912,-16 918,-16 918,-16 1032,-16 1032,-16 1038,-16 1044,-22 1044,-28 1044,-28 1044,-40 1044,-40 1044,-46 1038,-52 1032,-52"/>
<text text-anchor="middle" x="975" y="-30.9" font-family="Helvetica,sans-Serif" font-size="12.00" fill="#1a365d">Information Artifact</text>
</g>
<!-- https://w3id.org/sdata/core/InformationProcess -->
<g id="node5" class="node">
<title>https://w3id.org/sdata/core/InformationProcess</title>
<path fill="#e8f1ff" stroke="#2b6cb0" stroke-width="1.6" d="M1537.5,-52C1537.5,-52 1422.5,-52 1422.5,-52 1416.5,-52 1410.5,-46 1410.5,-40 1410.5,-40 1410.5,-28 1410.5,-28 1410.5,-22 1416.5,-16 1422.5,-16 1422.5,-16 1537.5,-16 1537.5,-16 1543.5,-16 1549.5,-22 1549.5,-28 1549.5,-28 1549.5,-40 1549.5,-40 1549.5,-46 1543.5,-52 1537.5,-52"/>
<text text-anchor="middle" x="1480" y="-30.9" font-family="Helvetica,sans-Serif" font-size="12.00" fill="#1a365d">Information Process</text>
</g>
<!-- https://w3id.org/sdata/core/InformationSite -->
<g id="node6" class="node">
<title>https://w3id.org/sdata/core/InformationSite</title>
<path fill="#e8f1ff" stroke="#2b6cb0" stroke-width="1.6" d="M1189.5,-52C1189.5,-52 1096.5,-52 1096.5,-52 1090.5,-52 1084.5,-46 1084.5,-40 1084.5,-40 1084.5,-28 1084.5,-28 1084.5,-22 1090.5,-16 1096.5,-16 1096.5,-16 1189.5,-16 1189.5,-16 1195.5,-16 1201.5,-22 1201.5,-28 1201.5,-28 1201.5,-40 1201.5,-40 1201.5,-46 1195.5,-52 1189.5,-52"/>
<text text-anchor="middle" x="1143" y="-30.9" font-family="Helvetica,sans-Serif" font-size="12.00" fill="#1a365d">Information Site</text>
</g>
<!-- https://w3id.org/sdata/core/Material -->
<g id="node7" class="node">
<title>https://w3id.org/sdata/core/Material</title>
<path fill="#e8f1ff" stroke="#2b6cb0" stroke-width="1.6" d="M303.5,-52C303.5,-52 258.5,-52 258.5,-52 252.5,-52 246.5,-46 246.5,-40 246.5,-40 246.5,-28 246.5,-28 246.5,-22 252.5,-16 258.5,-16 258.5,-16 303.5,-16 303.5,-16 309.5,-16 315.5,-22 315.5,-28 315.5,-28 315.5,-40 315.5,-40 315.5,-46 309.5,-52 303.5,-52"/>
<text text-anchor="middle" x="281" y="-30.9" font-family="Helvetica,sans-Serif" font-size="12.00" fill="#1a365d">Material</text>
</g>
<!-- https://w3id.org/sdata/core/MaterialAgent -->
<g id="node8" class="node">
<title>https://w3id.org/sdata/core/MaterialAgent</title>
<path fill="#e8f1ff" stroke="#2b6cb0" stroke-width="1.6" d="M854,-52C854,-52 770,-52 770,-52 764,-52 758,-46 758,-40 758,-40 758,-28 758,-28 758,-22 764,-16 770,-16 770,-16 854,-16 854,-16 860,-16 866,-22 866,-28 866,-28 866,-40 866,-40 866,-46 860,-52 854,-52"/>
<text text-anchor="middle" x="812" y="-30.9" font-family="Helvetica,sans-Serif" font-size="12.00" fill="#1a365d">Material Agent</text>
</g>
<!-- https://w3id.org/sdata/core/MaterialArtifact -->
<g id="node9" class="node">
<title>https://w3id.org/sdata/core/MaterialArtifact</title>
<path fill="#e8f1ff" stroke="#2b6cb0" stroke-width="1.6" d="M460.5,-52C460.5,-52 367.5,-52 367.5,-52 361.5,-52 355.5,-46 355.5,-40 355.5,-40 355.5,-28 355.5,-28 355.5,-22 361.5,-16 367.5,-16 367.5,-16 460.5,-16 460.5,-16 466.5,-16 472.5,-22 472.5,-28 472.5,-28 472.5,-40 472.5,-40 472.5,-46 466.5,-52 460.5,-52"/>
<text text-anchor="middle" x="414" y="-30.9" font-family="Helvetica,sans-Serif" font-size="12.00" fill="#1a365d">Material Artifact</text>
</g>
<!-- https://w3id.org/sdata/core/MaterialProcess -->
<g id="node10" class="node">
<title>https://w3id.org/sdata/core/MaterialProcess</title>
<path fill="#e8f1ff" stroke="#2b6cb0" stroke-width="1.6" d="M1696,-52C1696,-52 1602,-52 1602,-52 1596,-52 1590,-46 1590,-40 1590,-40 1590,-28 1590,-28 1590,-22 1596,-16 1602,-16 1602,-16 1696,-16 1696,-16 1702,-16 1708,-22 1708,-28 1708,-28 1708,-40 1708,-40 1708,-46 1702,-52 1696,-52"/>
<text text-anchor="middle" x="1649" y="-30.9" font-family="Helvetica,sans-Serif" font-size="12.00" fill="#1a365d">Material Process</text>
</g>
<!-- https://w3id.org/sdata/core/MaterialSite -->
<g id="node11" class="node">
<title>https://w3id.org/sdata/core/MaterialSite</title>
<path fill="#e8f1ff" stroke="#2b6cb0" stroke-width="1.6" d="M194,-52C194,-52 122,-52 122,-52 116,-52 110,-46 110,-40 110,-40 110,-28 110,-28 110,-22 116,-16 122,-16 122,-16 194,-16 194,-16 200,-16 206,-22 206,-28 206,-28 206,-40 206,-40 206,-46 200,-52 194,-52"/>
<text text-anchor="middle" x="158" y="-30.9" font-family="Helvetica,sans-Serif" font-size="12.00" fill="#1a365d">Material Site</text>
</g>
<!-- https://w3id.org/sdata/core/Role -->
<g id="node12" class="node">
<title>https://w3id.org/sdata/core/Role</title>
<path fill="#e8f1ff" stroke="#2b6cb0" stroke-width="1.6" d="M58,-52C58,-52 28,-52 28,-52 22,-52 16,-46 16,-40 16,-40 16,-28 16,-28 16,-22 22,-16 28,-16 28,-16 58,-16 58,-16 64,-16 70,-22 70,-28 70,-28 70,-40 70,-40 70,-46 64,-52 58,-52"/>
<text text-anchor="middle" x="43" y="-30.9" font-family="Helvetica,sans-Serif" font-size="12.00" fill="#1a365d">Role</text>
</g>
<!-- http://purl.obolibrary.org/obo/BFO_0000001 -->
<g id="node13" class="node">
<title>http://purl.obolibrary.org/obo/BFO_0000001</title>
<path fill="#fff4e5" stroke="#b7791f" stroke-width="1.6" d="M639,-631C639,-631 609,-631 609,-631 603,-631 597,-625 597,-619 597,-619 597,-607 597,-607 597,-601 603,-595 609,-595 609,-595 639,-595 639,-595 645,-595 651,-601 651,-607 651,-607 651,-619 651,-619 651,-625 645,-631 639,-631"/>
<text text-anchor="middle" x="624" y="-609.9" font-family="Helvetica,sans-Serif" font-size="12.00" fill="#7b341e">entity</text>
</g>
<!-- http://purl.obolibrary.org/obo/BFO_0000002 -->
<g id="node14" class="node">
<title>http://purl.obolibrary.org/obo/BFO_0000002</title>
<path fill="#fff4e5" stroke="#b7791f" stroke-width="1.6" d="M564,-508C564,-508 504,-508 504,-508 498,-508 492,-502 492,-496 492,-496 492,-484 492,-484 492,-478 498,-472 504,-472 504,-472 564,-472 564,-472 570,-472 576,-478 576,-484 576,-484 576,-496 576,-496 576,-502 570,-508 564,-508"/>
<text text-anchor="middle" x="534" y="-486.9" font-family="Helvetica,sans-Serif" font-size="12.00" fill="#7b341e">continuant</text>
</g>
<!-- http://purl.obolibrary.org/obo/BFO_0000001&#45;&gt;http://purl.obolibrary.org/obo/BFO_0000002 -->
<g id="edge3" class="edge">
<title>http://purl.obolibrary.org/obo/BFO_0000001&#45;&gt;http://purl.obolibrary.org/obo/BFO_0000002</title>
<path fill="none" stroke="#4a5568" stroke-width="1.6" d="M611.3,-594.92C595.84,-574.14 569.64,-538.91 552.08,-515.31"/>
<polygon fill="#4a5568" stroke="#4a5568" stroke-width="1.6" points="554.39,-513.43 546.93,-508.38 549.62,-516.98 554.39,-513.43"/>
</g>
<!-- http://purl.obolibrary.org/obo/BFO_0000003 -->
<g id="node15" class="node">
<title>http://purl.obolibrary.org/obo/BFO_0000003</title>
<path fill="#fff4e5" stroke="#b7791f" stroke-width="1.6" d="M741,-508C741,-508 687,-508 687,-508 681,-508 675,-502 675,-496 675,-496 675,-484 675,-484 675,-478 681,-472 687,-472 687,-472 741,-472 741,-472 747,-472 753,-478 753,-484 753,-484 753,-496 753,-496 753,-502 747,-508 741,-508"/>
<text text-anchor="middle" x="714" y="-486.9" font-family="Helvetica,sans-Serif" font-size="12.00" fill="#7b341e">occurrent</text>
</g>
<!-- http://purl.obolibrary.org/obo/BFO_0000001&#45;&gt;http://purl.obolibrary.org/obo/BFO_0000003 -->
<g id="edge4" class="edge">
<title>http://purl.obolibrary.org/obo/BFO_0000001&#45;&gt;http://purl.obolibrary.org/obo/BFO_0000003</title>
<path fill="none" stroke="#4a5568" stroke-width="1.6" d="M636.7,-594.92C652.16,-574.14 678.36,-538.91 695.92,-515.31"/>
<polygon fill="#4a5568" stroke="#4a5568" stroke-width="1.6" points="698.38,-516.98 701.07,-508.38 693.61,-513.43 698.38,-516.98"/>
</g>
<!-- http://purl.obolibrary.org/obo/BFO_0000004 -->
<g id="node16" class="node">
<title>http://purl.obolibrary.org/obo/BFO_0000004</title>
<path fill="#fff4e5" stroke="#b7791f" stroke-width="1.6" d="M514.5,-399C514.5,-399 375.5,-399 375.5,-399 369.5,-399 363.5,-393 363.5,-387 363.5,-387 363.5,-375 363.5,-375 363.5,-369 369.5,-363 375.5,-363 375.5,-363 514.5,-363 514.5,-363 520.5,-363 526.5,-369 526.5,-375 526.5,-375 526.5,-387 526.5,-387 526.5,-393 520.5,-399 514.5,-399"/>
<text text-anchor="middle" x="445" y="-377.9" font-family="Helvetica,sans-Serif" font-size="12.00" fill="#7b341e">independent continuant</text>
</g>
<!-- http://purl.obolibrary.org/obo/BFO_0000002&#45;&gt;http://purl.obolibrary.org/obo/BFO_0000004 -->
<g id="edge5" class="edge">
<title>http://purl.obolibrary.org/obo/BFO_0000002&#45;&gt;http://purl.obolibrary.org/obo/BFO_0000004</title>
<path fill="none" stroke="#4a5568" stroke-width="1.6" d="M519.7,-471.81C504.84,-453.95 481.48,-425.86 464.84,-405.86"/>
<polygon fill="#4a5568" stroke="#4a5568" stroke-width="1.6" points="466.99,-403.78 459.26,-399.15 462.41,-407.59 466.99,-403.78"/>
</g>
<!-- http://purl.obolibrary.org/obo/BFO_0000020 -->
<g id="node19" class="node">
<title>http://purl.obolibrary.org/obo/BFO_0000020</title>
<path fill="#fff4e5" stroke="#b7791f" stroke-width="1.6" d="M311,-399C311,-399 113,-399 113,-399 107,-399 101,-393 101,-387 101,-387 101,-375 101,-375 101,-369 107,-363 113,-363 113,-363 311,-363 311,-363 317,-363 323,-369 323,-375 323,-375 323,-387 323,-387 323,-393 317,-399 311,-399"/>
<text text-anchor="middle" x="212" y="-377.9" font-family="Helvetica,sans-Serif" font-size="12.00" fill="#7b341e">specifically dependent continuant</text>
</g>
<!-- http://purl.obolibrary.org/obo/BFO_0000002&#45;&gt;http://purl.obolibrary.org/obo/BFO_0000020 -->
<g id="edge6" class="edge">
<title>http://purl.obolibrary.org/obo/BFO_0000002&#45;&gt;http://purl.obolibrary.org/obo/BFO_0000020</title>
<path fill="none" stroke="#4a5568" stroke-width="1.6" d="M491.9,-475.01C435.7,-456.34 335.82,-423.14 271.81,-401.88"/>
<polygon fill="#4a5568" stroke="#4a5568" stroke-width="1.6" points="272.42,-398.94 263.41,-399.08 270.54,-404.59 272.42,-398.94"/>
</g>
<!-- http://purl.obolibrary.org/obo/BFO_0000031 -->
<g id="node22" class="node">
<title>http://purl.obolibrary.org/obo/BFO_0000031</title>
<path fill="#fff4e5" stroke="#b7791f" stroke-width="1.6" d="M777,-399C777,-399 579,-399 579,-399 573,-399 567,-393 567,-387 567,-387 567,-375 567,-375 567,-369 573,-363 579,-363 579,-363 777,-363 777,-363 783,-363 789,-369 789,-375 789,-375 789,-387 789,-387 789,-393 783,-399 777,-399"/>
<text text-anchor="middle" x="678" y="-377.9" font-family="Helvetica,sans-Serif" font-size="12.00" fill="#7b341e">generically dependent continuant</text>
</g>
<!-- http://purl.obolibrary.org/obo/BFO_0000002&#45;&gt;http://purl.obolibrary.org/obo/BFO_0000031 -->
<g id="edge7" class="edge">
<title>http://purl.obolibrary.org/obo/BFO_0000002&#45;&gt;http://purl.obolibrary.org/obo/BFO_0000031</title>
<path fill="none" stroke="#4a5568" stroke-width="1.6" d="M557.14,-471.81C581.8,-453.48 620.96,-424.38 647.99,-404.3"/>
<polygon fill="#4a5568" stroke="#4a5568" stroke-width="1.6" points="649.87,-406.61 654.92,-399.15 646.32,-401.83 649.87,-406.61"/>
</g>
<!-- http://purl.obolibrary.org/obo/BFO_0000015 -->
<g id="node17" class="node">
<title>http://purl.obolibrary.org/obo/BFO_0000015</title>
<path fill="#fff4e5" stroke="#b7791f" stroke-width="1.6" d="M883,-399C883,-399 841,-399 841,-399 835,-399 829,-393 829,-387 829,-387 829,-375 829,-375 829,-369 835,-363 841,-363 841,-363 883,-363 883,-363 889,-363 895,-369 895,-375 895,-375 895,-387 895,-387 895,-393 889,-399 883,-399"/>
<text text-anchor="middle" x="862" y="-377.9" font-family="Helvetica,sans-Serif" font-size="12.00" fill="#7b341e">process</text>
</g>
<!-- http://purl.obolibrary.org/obo/BFO_0000003&#45;&gt;http://purl.obolibrary.org/obo/BFO_0000015 -->
<g id="edge8" class="edge">
<title>http://purl.obolibrary.org/obo/BFO_0000003&#45;&gt;http://purl.obolibrary.org/obo/BFO_0000015</title>
<path fill="none" stroke="#4a5568" stroke-width="1.6" d="M737.78,-471.81C763.13,-453.48 803.38,-424.38 831.15,-404.3"/>
<polygon fill="#4a5568" stroke="#4a5568" stroke-width="1.6" points="833.13,-406.54 838.28,-399.15 829.65,-401.72 833.13,-406.54"/>
</g>
<!-- http://purl.obolibrary.org/obo/BFO_0000040 -->
<g id="node23" class="node">
<title>http://purl.obolibrary.org/obo/BFO_0000040</title>
<path fill="#fff4e5" stroke="#b7791f" stroke-width="1.6" d="M516,-290C516,-290 432,-290 432,-290 426,-290 420,-284 420,-278 420,-278 420,-266 420,-266 420,-260 426,-254 432,-254 432,-254 516,-254 516,-254 522,-254 528,-260 528,-266 528,-266 528,-278 528,-278 528,-284 522,-290 516,-290"/>
<text text-anchor="middle" x="474" y="-268.9" font-family="Helvetica,sans-Serif" font-size="12.00" fill="#7b341e">material entity</text>
</g>
<!-- http://purl.obolibrary.org/obo/BFO_0000004&#45;&gt;http://purl.obolibrary.org/obo/BFO_0000040 -->
<g id="edge9" class="edge">
<title>http://purl.obolibrary.org/obo/BFO_0000004&#45;&gt;http://purl.obolibrary.org/obo/BFO_0000040</title>
<path fill="none" stroke="#4a5568" stroke-width="1.6" d="M449.66,-362.81C454.37,-345.42 461.72,-318.33 467.1,-298.45"/>
<polygon fill="#4a5568" stroke="#4a5568" stroke-width="1.6" points="470,-299.13 469.35,-290.15 464.26,-297.57 470,-299.13"/>
</g>
<!-- http://purl.obolibrary.org/obo/BFO_0000141 -->
<g id="node24" class="node">
<title>http://purl.obolibrary.org/obo/BFO_0000141</title>
<path fill="#fff4e5" stroke="#b7791f" stroke-width="1.6" d="M367.5,-290C367.5,-290 268.5,-290 268.5,-290 262.5,-290 256.5,-284 256.5,-278 256.5,-278 256.5,-266 256.5,-266 256.5,-260 262.5,-254 268.5,-254 268.5,-254 367.5,-254 367.5,-254 373.5,-254 379.5,-260 379.5,-266 379.5,-266 379.5,-278 379.5,-278 379.5,-284 373.5,-290 367.5,-290"/>
<text text-anchor="middle" x="318" y="-268.9" font-family="Helvetica,sans-Serif" font-size="12.00" fill="#7b341e">immaterial entity</text>
</g>
<!-- http://purl.obolibrary.org/obo/BFO_0000004&#45;&gt;http://purl.obolibrary.org/obo/BFO_0000141 -->
<g id="edge10" class="edge">
<title>http://purl.obolibrary.org/obo/BFO_0000004&#45;&gt;http://purl.obolibrary.org/obo/BFO_0000141</title>
<path fill="none" stroke="#4a5568" stroke-width="1.6" d="M424.6,-362.81C403.02,-344.64 368.89,-315.88 345.08,-295.82"/>
<polygon fill="#4a5568" stroke="#4a5568" stroke-width="1.6" points="346.77,-293.35 338.35,-290.15 342.94,-297.9 346.77,-293.35"/>
</g>
<!-- http://purl.obolibrary.org/obo/BFO_0000015&#45;&gt;https://w3id.org/sdata/core/InformationProcess -->
<g id="edge11" class="edge">
<title>http://purl.obolibrary.org/obo/BFO_0000015&#45;&gt;https://w3id.org/sdata/core/InformationProcess</title>
<path fill="none" stroke="#4a5568" stroke-width="1.6" d="M895.07,-379.41C980.56,-377.31 1206.4,-367.93 1267,-327 1363.81,-261.63 1318.96,-185.81 1396,-98 1409.87,-82.2 1428.29,-67.84 1444.35,-56.84"/>
<polygon fill="#4a5568" stroke="#4a5568" stroke-width="1.6" points="1446.12,-59.23 1451.53,-52.03 1442.81,-54.29 1446.12,-59.23"/>
</g>
<!-- http://purl.obolibrary.org/obo/BFO_0000015&#45;&gt;https://w3id.org/sdata/core/MaterialProcess -->
<g id="edge12" class="edge">
<title>http://purl.obolibrary.org/obo/BFO_0000015&#45;&gt;https://w3id.org/sdata/core/MaterialProcess</title>
<path fill="none" stroke="#4a5568" stroke-width="1.6" d="M895.1,-378.17C983.71,-372.91 1224.5,-356.27 1298,-327 1403.75,-284.88 1367.25,-195.72 1458,-127 1499.79,-95.35 1523.11,-113.44 1570,-90 1587.98,-81.01 1606.51,-68.32 1621.1,-57.4"/>
<polygon fill="#4a5568" stroke="#4a5568" stroke-width="1.6" points="1622.97,-59.72 1627.93,-52.2 1619.36,-54.98 1622.97,-59.72"/>
</g>
<!-- http://purl.obolibrary.org/obo/BFO_0000017 -->
<g id="node18" class="node">
<title>http://purl.obolibrary.org/obo/BFO_0000017</title>
<path fill="#fff4e5" stroke="#b7791f" stroke-width="1.6" d="M204.5,-290C204.5,-290 113.5,-290 113.5,-290 107.5,-290 101.5,-284 101.5,-278 101.5,-278 101.5,-266 101.5,-266 101.5,-260 107.5,-254 113.5,-254 113.5,-254 204.5,-254 204.5,-254 210.5,-254 216.5,-260 216.5,-266 216.5,-266 216.5,-278 216.5,-278 216.5,-284 210.5,-290 204.5,-290"/>
<text text-anchor="middle" x="159" y="-268.9" font-family="Helvetica,sans-Serif" font-size="12.00" fill="#7b341e">realizable entity</text>
</g>
<!-- http://purl.obolibrary.org/obo/BFO_0000023 -->
<g id="node20" class="node">
<title>http://purl.obolibrary.org/obo/BFO_0000023</title>
<path fill="#fff4e5" stroke="#b7791f" stroke-width="1.6" d="M151,-171C151,-171 121,-171 121,-171 115,-171 109,-165 109,-159 109,-159 109,-147 109,-147 109,-141 115,-135 121,-135 121,-135 151,-135 151,-135 157,-135 163,-141 163,-147 163,-147 163,-159 163,-159 163,-165 157,-171 151,-171"/>
<text text-anchor="middle" x="136" y="-149.9" font-family="Helvetica,sans-Serif" font-size="12.00" fill="#7b341e">role</text>
</g>
<!-- http://purl.obolibrary.org/obo/BFO_0000017&#45;&gt;http://purl.obolibrary.org/obo/BFO_0000023 -->
<g id="edge13" class="edge">
<title>http://purl.obolibrary.org/obo/BFO_0000017&#45;&gt;http://purl.obolibrary.org/obo/BFO_0000023</title>
<path fill="none" stroke="#4a5568" stroke-width="1.6" d="M155.66,-253.99C151.81,-234.4 145.44,-202.04 141,-179.46"/>
<polygon fill="#4a5568" stroke="#4a5568" stroke-width="1.6" points="143.91,-178.8 139.35,-171.03 138.07,-179.95 143.91,-178.8"/>
</g>
<!-- http://purl.obolibrary.org/obo/BFO_0000020&#45;&gt;http://purl.obolibrary.org/obo/BFO_0000017 -->
<g id="edge14" class="edge">
<title>http://purl.obolibrary.org/obo/BFO_0000020&#45;&gt;http://purl.obolibrary.org/obo/BFO_0000017</title>
<path fill="none" stroke="#4a5568" stroke-width="1.6" d="M203.48,-362.81C194.79,-345.26 181.21,-317.84 171.34,-297.91"/>
<polygon fill="#4a5568" stroke="#4a5568" stroke-width="1.6" points="173.93,-296.45 167.49,-290.15 168.6,-299.09 173.93,-296.45"/>
</g>
<!-- http://purl.obolibrary.org/obo/BFO_0000023&#45;&gt;https://w3id.org/sdata/core/Role -->
<g id="edge15" class="edge">
<title>http://purl.obolibrary.org/obo/BFO_0000023&#45;&gt;https://w3id.org/sdata/core/Role</title>
<path fill="none" stroke="#4a5568" stroke-width="1.6" d="M122.48,-134.99C106.57,-114.97 80.04,-81.6 62.06,-58.97"/>
<polygon fill="#4a5568" stroke="#4a5568" stroke-width="1.6" points="64.16,-56.84 56.54,-52.03 59.5,-60.54 64.16,-56.84"/>
</g>
<!-- http://purl.obolibrary.org/obo/BFO_0000029 -->
<g id="node21" class="node">
<title>http://purl.obolibrary.org/obo/BFO_0000029</title>
<path fill="#fff4e5" stroke="#b7791f" stroke-width="1.6" d="M257,-171C257,-171 227,-171 227,-171 221,-171 215,-165 215,-159 215,-159 215,-147 215,-147 215,-141 221,-135 227,-135 227,-135 257,-135 257,-135 263,-135 269,-141 269,-147 269,-147 269,-159 269,-159 269,-165 263,-171 257,-171"/>
<text text-anchor="middle" x="242" y="-149.9" font-family="Helvetica,sans-Serif" font-size="12.00" fill="#7b341e">site</text>
</g>
<!-- http://purl.obolibrary.org/obo/BFO_0000029&#45;&gt;https://w3id.org/sdata/core/MaterialSite -->
<g id="edge16" class="edge">
<title>http://purl.obolibrary.org/obo/BFO_0000029&#45;&gt;https://w3id.org/sdata/core/MaterialSite</title>
<path fill="none" stroke="#4a5568" stroke-width="1.6" d="M229.79,-134.99C215.42,-114.97 191.46,-81.6 175.21,-58.97"/>
<polygon fill="#4a5568" stroke="#4a5568" stroke-width="1.6" points="177.6,-57.2 170.23,-52.03 172.77,-60.67 177.6,-57.2"/>
</g>
<!-- http://purl.obolibrary.org/obo/BFO_0000031&#45;&gt;https://w3id.org/sdata/core/Identifier -->
<g id="edge17" class="edge">
<title>http://purl.obolibrary.org/obo/BFO_0000031&#45;&gt;https://w3id.org/sdata/core/Identifier</title>
<path fill="none" stroke="#4a5568" stroke-width="1.6" d="M671.65,-362.89C650.8,-306.68 584.3,-127.45 559.47,-60.53"/>
<polygon fill="#4a5568" stroke="#4a5568" stroke-width="1.6" points="562.13,-59.15 556.39,-52.21 556.55,-61.22 562.13,-59.15"/>
</g>
<!-- http://purl.obolibrary.org/obo/BFO_0000031&#45;&gt;https://w3id.org/sdata/core/Information -->
<g id="edge18" class="edge">
<title>http://purl.obolibrary.org/obo/BFO_0000031&#45;&gt;https://w3id.org/sdata/core/Information</title>
<path fill="none" stroke="#4a5568" stroke-width="1.6" d="M677.75,-362.89C676.94,-306.79 674.35,-128.18 673.38,-60.94"/>
<polygon fill="#4a5568" stroke="#4a5568" stroke-width="1.6" points="676.35,-60.67 673.25,-52.21 670.4,-60.75 676.35,-60.67"/>
</g>
<!-- http://purl.obolibrary.org/obo/BFO_0000031&#45;&gt;https://w3id.org/sdata/core/InformationAgent -->
<g id="edge19" class="edge">
<title>http://purl.obolibrary.org/obo/BFO_0000031&#45;&gt;https://w3id.org/sdata/core/InformationAgent</title>
<path fill="none" stroke="#4a5568" stroke-width="1.6" d="M713.03,-362.83C734.17,-352.47 761.64,-338.99 786,-327 819.35,-310.59 828.07,-307.23 861,-290 1023.52,-204.96 1064.94,-184.75 1222,-90 1239.32,-79.55 1258.19,-67.28 1273.65,-56.98"/>
<polygon fill="#4a5568" stroke="#4a5568" stroke-width="1.6" points="1275.54,-59.3 1280.95,-52.1 1272.23,-54.35 1275.54,-59.3"/>
</g>
<!-- http://purl.obolibrary.org/obo/BFO_0000031&#45;&gt;https://w3id.org/sdata/core/InformationArtifact -->
<g id="edge20" class="edge">
<title>http://purl.obolibrary.org/obo/BFO_0000031&#45;&gt;https://w3id.org/sdata/core/InformationArtifact</title>
<path fill="none" stroke="#4a5568" stroke-width="1.6" d="M692.73,-362.89C741.52,-306.22 897.94,-124.51 954.42,-58.91"/>
<polygon fill="#4a5568" stroke="#4a5568" stroke-width="1.6" points="956.89,-60.59 960.18,-52.21 952.38,-56.71 956.89,-60.59"/>
</g>
<!-- http://purl.obolibrary.org/obo/BFO_0000031&#45;&gt;https://w3id.org/sdata/core/InformationSite -->
<g id="edge21" class="edge">
<title>http://purl.obolibrary.org/obo/BFO_0000031&#45;&gt;https://w3id.org/sdata/core/InformationSite</title>
<path fill="none" stroke="#4a5568" stroke-width="1.6" d="M703.5,-362.84C718.59,-352.59 738.01,-339.23 755,-327 891.04,-229.06 1049.82,-107.1 1113.95,-57.53"/>
<polygon fill="#4a5568" stroke="#4a5568" stroke-width="1.6" points="1116.03,-59.67 1120.94,-52.12 1112.39,-54.97 1116.03,-59.67"/>
</g>
<!-- http://purl.obolibrary.org/obo/BFO_0000040&#45;&gt;https://w3id.org/sdata/core/Material -->
<g id="edge22" class="edge">
<title>http://purl.obolibrary.org/obo/BFO_0000040&#45;&gt;https://w3id.org/sdata/core/Material</title>
<path fill="none" stroke="#4a5568" stroke-width="1.6" d="M459.81,-253.65C425.78,-212.03 339.47,-106.5 300.56,-58.91"/>
<polygon fill="#4a5568" stroke="#4a5568" stroke-width="1.6" points="302.64,-56.76 294.95,-52.06 298.03,-60.52 302.64,-56.76"/>
</g>
<!-- http://purl.obolibrary.org/obo/BFO_0000040&#45;&gt;https://w3id.org/sdata/core/MaterialAgent -->
<g id="edge23" class="edge">
<title>http://purl.obolibrary.org/obo/BFO_0000040&#45;&gt;https://w3id.org/sdata/core/MaterialAgent</title>
<path fill="none" stroke="#4a5568" stroke-width="1.6" d="M499.71,-253.85C547.18,-222.08 651.62,-151.68 738,-90 752.73,-79.48 768.88,-67.53 782.33,-57.46"/>
<polygon fill="#4a5568" stroke="#4a5568" stroke-width="1.6" points="784.48,-59.56 789.49,-52.08 780.91,-54.8 784.48,-59.56"/>
</g>
<!-- http://purl.obolibrary.org/obo/BFO_0000040&#45;&gt;https://w3id.org/sdata/core/MaterialArtifact -->
<g id="edge24" class="edge">
<title>http://purl.obolibrary.org/obo/BFO_0000040&#45;&gt;https://w3id.org/sdata/core/MaterialArtifact</title>
<path fill="none" stroke="#4a5568" stroke-width="1.6" d="M469.59,-253.65C459.12,-212.46 432.73,-108.66 420.46,-60.4"/>
<polygon fill="#4a5568" stroke="#4a5568" stroke-width="1.6" points="423.32,-59.57 418.34,-52.06 417.55,-61.03 423.32,-59.57"/>
</g>
<!-- http://purl.obolibrary.org/obo/BFO_0000141&#45;&gt;http://purl.obolibrary.org/obo/BFO_0000029 -->
<g id="edge25" class="edge">
<title>http://purl.obolibrary.org/obo/BFO_0000141&#45;&gt;http://purl.obolibrary.org/obo/BFO_0000029</title>
<path fill="none" stroke="#4a5568" stroke-width="1.6" d="M306.95,-253.99C294,-234.06 272.46,-200.89 257.76,-178.27"/>
<polygon fill="#4a5568" stroke="#4a5568" stroke-width="1.6" points="260.19,-176.54 253.06,-171.03 255.2,-179.78 260.19,-176.54"/>
</g>
<!-- http://www.w3.org/ns/prov#Agent -->
<g id="node25" class="node">
<title>http://www.w3.org/ns/prov#Agent</title>
<path fill="#e7fff6" stroke="#2f855a" stroke-width="1.6" d="M1532,-171C1532,-171 1500,-171 1500,-171 1494,-171 1488,-165 1488,-159 1488,-159 1488,-147 1488,-147 1488,-141 1494,-135 1500,-135 1500,-135 1532,-135 1532,-135 1538,-135 1544,-141 1544,-147 1544,-147 1544,-159 1544,-159 1544,-165 1538,-171 1532,-171"/>
<text text-anchor="middle" x="1516" y="-149.9" font-family="Helvetica,sans-Serif" font-size="12.00" fill="#1c4532">Agent</text>
</g>
<!-- http://www.w3.org/ns/prov#Agent&#45;&gt;https://w3id.org/sdata/core/InformationAgent -->
<g id="edge26" class="edge">
<title>http://www.w3.org/ns/prov#Agent&#45;&gt;https://w3id.org/sdata/core/InformationAgent</title>
<path fill="none" stroke="#4a5568" stroke-width="1.6" d="M1487.72,-139.1C1462.07,-127.14 1423.42,-108.45 1391,-90 1373.15,-79.84 1353.88,-67.49 1338.21,-57.07"/>
<polygon fill="#4a5568" stroke="#4a5568" stroke-width="1.6" points="1339.54,-54.39 1330.83,-52.13 1336.23,-59.33 1339.54,-54.39"/>
</g>
<!-- http://www.w3.org/ns/prov#Agent&#45;&gt;https://w3id.org/sdata/core/MaterialAgent -->
<g id="edge27" class="edge">
<title>http://www.w3.org/ns/prov#Agent&#45;&gt;https://w3id.org/sdata/core/MaterialAgent</title>
<path fill="none" stroke="#4a5568" stroke-width="1.6" d="M1487.73,-151.22C1380.37,-147.94 998.39,-133.41 886,-90 867.44,-82.83 849.45,-69.65 835.86,-57.99"/>
<polygon fill="#4a5568" stroke="#4a5568" stroke-width="1.6" points="837.51,-55.48 829.17,-52.07 833.56,-59.93 837.51,-55.48"/>
</g>
<!-- legend_sdata -->
<g id="node26" class="node">
<title>legend_sdata</title>
<path fill="#e8f1ff" stroke="#2b6cb0" stroke-width="1.6" d="M1291.5,-508C1291.5,-508 1228.5,-508 1228.5,-508 1222.5,-508 1216.5,-502 1216.5,-496 1216.5,-496 1216.5,-484 1216.5,-484 1216.5,-478 1222.5,-472 1228.5,-472 1228.5,-472 1291.5,-472 1291.5,-472 1297.5,-472 1303.5,-478 1303.5,-484 1303.5,-484 1303.5,-496 1303.5,-496 1303.5,-502 1297.5,-508 1291.5,-508"/>
<text text-anchor="middle" x="1260" y="-486.9" font-family="Helvetica,sans-Serif" font-size="12.00" fill="#1a365d">sdata class</text>
</g>
<!-- legend_bfo -->
<g id="node27" class="node">
<title>legend_bfo</title>
<path fill="#fff4e5" stroke="#b7791f" stroke-width="1.6" d="M1416,-631C1416,-631 1352,-631 1352,-631 1346,-631 1340,-625 1340,-619 1340,-619 1340,-607 1340,-607 1340,-601 1346,-595 1352,-595 1352,-595 1416,-595 1416,-595 1422,-595 1428,-601 1428,-607 1428,-607 1428,-619 1428,-619 1428,-625 1422,-631 1416,-631"/>
<text text-anchor="middle" x="1384" y="-609.9" font-family="Helvetica,sans-Serif" font-size="12.00" fill="#7b341e">BFO parent</text>
</g>
<!-- legend_bfo&#45;&gt;legend_sdata -->
<g id="edge1" class="edge">
<title>legend_bfo&#45;&gt;legend_sdata</title>
<path fill="none" stroke="#4a5568" stroke-width="1.6" d="M1366.5,-594.92C1344.93,-573.87 1308.16,-538 1283.98,-514.4"/>
<polygon fill="#4a5568" stroke="#4a5568" stroke-width="1.6" points="1285.98,-512.19 1277.82,-508.38 1281.82,-516.45 1285.98,-512.19"/>
<text text-anchor="middle" x="1406.5" y="-547.8" font-family="Helvetica,sans-Serif" font-size="14.00">superclass → subclass</text>
</g>
<!-- legend_prov -->
<g id="node28" class="node">
<title>legend_prov</title>
<path fill="#e7fff6" stroke="#2f855a" stroke-width="1.6" d="M1288,-631C1288,-631 1216,-631 1216,-631 1210,-631 1204,-625 1204,-619 1204,-619 1204,-607 1204,-607 1204,-601 1210,-595 1216,-595 1216,-595 1288,-595 1288,-595 1294,-595 1300,-601 1300,-607 1300,-607 1300,-619 1300,-619 1300,-625 1294,-631 1288,-631"/>
<text text-anchor="middle" x="1252" y="-609.9" font-family="Helvetica,sans-Serif" font-size="12.00" fill="#1c4532">PROV parent</text>
</g>
<!-- legend_prov&#45;&gt;legend_sdata -->
<g id="edge2" class="edge">
<title>legend_prov&#45;&gt;legend_sdata</title>
<path fill="none" stroke="#4a5568" stroke-width="1.6" d="M1241.7,-594.78C1234.79,-581.1 1227.68,-561.44 1232,-544 1234.42,-534.26 1238.99,-524.33 1243.75,-515.74"/>
<polygon fill="#4a5568" stroke="#4a5568" stroke-width="1.6" points="1246.39,-517.11 1248.11,-508.28 1241.25,-514.11 1246.39,-517.11"/>
</g>
</g>
</svg>
