<?xml version="1.0" encoding="UTF-8" standalone="no"?>
<!DOCTYPE svg PUBLIC "-//W3C//DTD SVG 1.1//EN"
 "http://www.w3.org/Graphics/SVG/1.1/DTD/svg11.dtd">
<!-- Generated by graphviz version 2.43.0 (0)
 -->
<!-- Pages: 1 -->
<svg width="2068pt" height="305pt"
 viewBox="0.00 0.00 2068.40 305.40" xmlns="http://www.w3.org/2000/svg" xmlns:xlink="http://www.w3.org/1999/xlink">
<g id="graph0" class="graph" transform="scale(1 1) rotate(0) translate(25.2 280.2)">
<polygon fill="#fafbfc" stroke="transparent" points="-25.2,25.2 -25.2,-280.2 2043.2,-280.2 2043.2,25.2 -25.2,25.2"/>
<text text-anchor="middle" x="1009" y="-235" font-family="Helvetica,sans-Serif" font-size="20.00">sdata Class Hierarchy (autark core)</text>
<g id="clust1" class="cluster">
<title>cluster_legend</title>
<path fill="#fafbfc" stroke="#cbd5e0" d="M20,-135C20,-135 278,-135 278,-135 284,-135 290,-141 290,-147 290,-147 290,-205 290,-205 290,-211 284,-217 278,-217 278,-217 20,-217 20,-217 14,-217 8,-211 8,-205 8,-205 8,-147 8,-147 8,-141 14,-135 20,-135"/>
<text text-anchor="middle" x="149" y="-197" font-family="Helvetica,sans-Serif" font-size="20.00">Legend</text>
</g>
<g id="clust2" class="cluster">
<title>cluster_sdata</title>
<path fill="#fafbfc" stroke="#90b5e8" d="M310,-8C310,-8 1998,-8 1998,-8 2004,-8 2010,-14 2010,-20 2010,-20 2010,-205 2010,-205 2010,-211 2004,-217 1998,-217 1998,-217 310,-217 310,-217 304,-217 298,-211 298,-205 298,-205 298,-20 298,-20 298,-14 304,-8 310,-8"/>
<text text-anchor="middle" x="1154" y="-197" font-family="Helvetica,sans-Serif" font-size="20.00">sdata classes</text>
</g>
<g id="clust3" class="cluster">
<title>cluster_dual_rank_Material</title>
</g>
<g id="clust4" class="cluster">
<title>cluster_dual_rank_MaterialArtifact</title>
</g>
<g id="clust5" class="cluster">
<title>cluster_dual_rank_MaterialSite</title>
</g>
<g id="clust6" class="cluster">
<title>cluster_dual_rank_MaterialProcess</title>
</g>
<g id="clust7" class="cluster">
<title>cluster_dual_rank_MaterialAgent</title>
</g>
<!-- legend_sdata -->
<g id="node1" class="node">
<title>legend_sdata</title>
<path fill="#e8f1ff" stroke="#2b6cb0" stroke-width="1.6" d="M91.5,-179C91.5,-179 28.5,-179 28.5,-179 22.5,-179 16.5,-173 16.5,-167 16.5,-167 16.5,-155 16.5,-155 16.5,-149 22.5,-143 28.5,-143 28.5,-143 91.5,-143 91.5,-143 97.5,-143 103.5,-149 103.5,-155 103.5,-155 103.5,-167 103.5,-167 103.5,-173 97.5,-179 91.5,-179"/>
<text text-anchor="middle" x="60" y="-157.9" font-family="Helvetica,sans-Serif" font-size="12.00" fill="#1a365d">sdata class</text>
</g>
<!-- legend_sdata&#45;&gt;legend_sdata -->
<g id="edge1" class="edge">
<title>legend_sdata&#45;&gt;legend_sdata</title>
<path fill="none" stroke="#4a5568" stroke-width="1.6" d="M103.82,-170.88C124.89,-172.1 143.5,-168.8 143.5,-161 143.5,-154.29 129.76,-150.92 112.52,-150.88"/>
<polygon fill="#4a5568" stroke="#4a5568" stroke-width="1.6" points="112.23,-147.91 103.82,-151.12 112.4,-153.85 112.23,-147.91"/>
<text text-anchor="middle" x="223.5" y="-157.3" font-family="Helvetica,sans-Serif" font-size="14.00">superclass &#45;&gt; subclass</text>
</g>
<!-- https://w3id.org/sdata/core/Information -->
<g id="node2" class="node">
<title>https://w3id.org/sdata/core/Information</title>
<path fill="#e8f1ff" stroke="#2b6cb0" stroke-width="1.6" d="M541,-60C541,-60 475,-60 475,-60 469,-60 463,-54 463,-48 463,-48 463,-36 463,-36 463,-30 469,-24 475,-24 475,-24 541,-24 541,-24 547,-24 553,-30 553,-36 553,-36 553,-48 553,-48 553,-54 547,-60 541,-60"/>
<text text-anchor="middle" x="508" y="-38.9" font-family="Helvetica,sans-Serif" font-size="12.00" fill="#1a365d">Information</text>
</g>
<!-- https://w3id.org/sdata/core/Material -->
<g id="node3" class="node">
<title>https://w3id.org/sdata/core/Material</title>
<path fill="#e8f1ff" stroke="#2b6cb0" stroke-width="1.6" d="M371.5,-60C371.5,-60 326.5,-60 326.5,-60 320.5,-60 314.5,-54 314.5,-48 314.5,-48 314.5,-36 314.5,-36 314.5,-30 320.5,-24 326.5,-24 326.5,-24 371.5,-24 371.5,-24 377.5,-24 383.5,-30 383.5,-36 383.5,-36 383.5,-48 383.5,-48 383.5,-54 377.5,-60 371.5,-60"/>
<text text-anchor="middle" x="349" y="-38.9" font-family="Helvetica,sans-Serif" font-size="12.00" fill="#1a365d">Material</text>
</g>
<!-- https://w3id.org/sdata/core/Material&#45;&gt;https://w3id.org/sdata/core/Information -->
<g id="edge7" class="edge">
<title>https://w3id.org/sdata/core/Material&#45;&gt;https://w3id.org/sdata/core/Information</title>
<path fill="none" stroke="#6b7280" stroke-width="1.6" stroke-dasharray="5,2" d="M383.5,-42C406.79,-42 437.76,-42 462.99,-42"/>
<text text-anchor="middle" x="423.25" y="-48.8" font-family="Helvetica,sans-Serif" font-size="14.00" fill="#6b7280">dual</text>
</g>
<!-- https://w3id.org/sdata/core/InformationArtifact -->
<g id="node4" class="node">
<title>https://w3id.org/sdata/core/InformationArtifact</title>
<path fill="#e8f1ff" stroke="#2b6cb0" stroke-width="1.6" d="M1625,-60C1625,-60 1511,-60 1511,-60 1505,-60 1499,-54 1499,-48 1499,-48 1499,-36 1499,-36 1499,-30 1505,-24 1511,-24 1511,-24 1625,-24 1625,-24 1631,-24 1637,-30 1637,-36 1637,-36 1637,-48 1637,-48 1637,-54 1631,-60 1625,-60"/>
<text text-anchor="middle" x="1568" y="-38.9" font-family="Helvetica,sans-Serif" font-size="12.00" fill="#1a365d">Information Artifact</text>
</g>
<!-- https://w3id.org/sdata/core/MaterialArtifact -->
<g id="node5" class="node">
<title>https://w3id.org/sdata/core/MaterialArtifact</title>
<path fill="#e8f1ff" stroke="#2b6cb0" stroke-width="1.6" d="M1407.5,-60C1407.5,-60 1314.5,-60 1314.5,-60 1308.5,-60 1302.5,-54 1302.5,-48 1302.5,-48 1302.5,-36 1302.5,-36 1302.5,-30 1308.5,-24 1314.5,-24 1314.5,-24 1407.5,-24 1407.5,-24 1413.5,-24 1419.5,-30 1419.5,-36 1419.5,-36 1419.5,-48 1419.5,-48 1419.5,-54 1413.5,-60 1407.5,-60"/>
<text text-anchor="middle" x="1361" y="-38.9" font-family="Helvetica,sans-Serif" font-size="12.00" fill="#1a365d">Material Artifact</text>
</g>
<!-- https://w3id.org/sdata/core/MaterialArtifact&#45;&gt;https://w3id.org/sdata/core/InformationArtifact -->
<g id="edge9" class="edge">
<title>https://w3id.org/sdata/core/MaterialArtifact&#45;&gt;https://w3id.org/sdata/core/InformationArtifact</title>
<path fill="none" stroke="#6b7280" stroke-width="1.6" stroke-dasharray="5,2" d="M1419.76,-42C1444.39,-42 1473.19,-42 1498.83,-42"/>
<text text-anchor="middle" x="1459.25" y="-48.8" font-family="Helvetica,sans-Serif" font-size="14.00" fill="#6b7280">dual</text>
</g>
<!-- https://w3id.org/sdata/core/InformationSite -->
<g id="node6" class="node">
<title>https://w3id.org/sdata/core/InformationSite</title>
<path fill="#e8f1ff" stroke="#2b6cb0" stroke-width="1.6" d="M1250.5,-60C1250.5,-60 1157.5,-60 1157.5,-60 1151.5,-60 1145.5,-54 1145.5,-48 1145.5,-48 1145.5,-36 1145.5,-36 1145.5,-30 1151.5,-24 1157.5,-24 1157.5,-24 1250.5,-24 1250.5,-24 1256.5,-24 1262.5,-30 1262.5,-36 1262.5,-36 1262.5,-48 1262.5,-48 1262.5,-54 1256.5,-60 1250.5,-60"/>
<text text-anchor="middle" x="1204" y="-38.9" font-family="Helvetica,sans-Serif" font-size="12.00" fill="#1a365d">Information Site</text>
</g>
<!-- https://w3id.org/sdata/core/MaterialSite -->
<g id="node7" class="node">
<title>https://w3id.org/sdata/core/MaterialSite</title>
<path fill="#e8f1ff" stroke="#2b6cb0" stroke-width="1.6" d="M1054,-60C1054,-60 982,-60 982,-60 976,-60 970,-54 970,-48 970,-48 970,-36 970,-36 970,-30 976,-24 982,-24 982,-24 1054,-24 1054,-24 1060,-24 1066,-30 1066,-36 1066,-36 1066,-48 1066,-48 1066,-54 1060,-60 1054,-60"/>
<text text-anchor="middle" x="1018" y="-38.9" font-family="Helvetica,sans-Serif" font-size="12.00" fill="#1a365d">Material Site</text>
</g>
<!-- https://w3id.org/sdata/core/MaterialSite&#45;&gt;https://w3id.org/sdata/core/InformationSite -->
<g id="edge11" class="edge">
<title>https://w3id.org/sdata/core/MaterialSite&#45;&gt;https://w3id.org/sdata/core/InformationSite</title>
<path fill="none" stroke="#6b7280" stroke-width="1.6" stroke-dasharray="5,2" d="M1066.38,-42C1090.49,-42 1119.85,-42 1145.24,-42"/>
<text text-anchor="middle" x="1105.75" y="-48.8" font-family="Helvetica,sans-Serif" font-size="14.00" fill="#6b7280">dual</text>
</g>
<!-- https://w3id.org/sdata/core/InformationProcess -->
<g id="node8" class="node">
<title>https://w3id.org/sdata/core/InformationProcess</title>
<path fill="#e8f1ff" stroke="#2b6cb0" stroke-width="1.6" d="M917.5,-60C917.5,-60 802.5,-60 802.5,-60 796.5,-60 790.5,-54 790.5,-48 790.5,-48 790.5,-36 790.5,-36 790.5,-30 796.5,-24 802.5,-24 802.5,-24 917.5,-24 917.5,-24 923.5,-24 929.5,-30 929.5,-36 929.5,-36 929.5,-48 929.5,-48 929.5,-54 923.5,-60 917.5,-60"/>
<text text-anchor="middle" x="860" y="-38.9" font-family="Helvetica,sans-Serif" font-size="12.00" fill="#1a365d">Information Process</text>
</g>
<!-- https://w3id.org/sdata/core/MaterialProcess -->
<g id="node9" class="node">
<title>https://w3id.org/sdata/core/MaterialProcess</title>
<path fill="#e8f1ff" stroke="#2b6cb0" stroke-width="1.6" d="M699,-60C699,-60 605,-60 605,-60 599,-60 593,-54 593,-48 593,-48 593,-36 593,-36 593,-30 599,-24 605,-24 605,-24 699,-24 699,-24 705,-24 711,-30 711,-36 711,-36 711,-48 711,-48 711,-54 705,-60 699,-60"/>
<text text-anchor="middle" x="652" y="-38.9" font-family="Helvetica,sans-Serif" font-size="12.00" fill="#1a365d">Material Process</text>
</g>
<!-- https://w3id.org/sdata/core/MaterialProcess&#45;&gt;https://w3id.org/sdata/core/InformationProcess -->
<g id="edge10" class="edge">
<title>https://w3id.org/sdata/core/MaterialProcess&#45;&gt;https://w3id.org/sdata/core/InformationProcess</title>
<path fill="none" stroke="#6b7280" stroke-width="1.6" stroke-dasharray="5,2" d="M711.05,-42C735.79,-42 764.73,-42 790.5,-42"/>
<text text-anchor="middle" x="750.75" y="-48.8" font-family="Helvetica,sans-Serif" font-size="14.00" fill="#6b7280">dual</text>
</g>
<!-- https://w3id.org/sdata/core/InformationAgent -->
<g id="node10" class="node">
<title>https://w3id.org/sdata/core/InformationAgent</title>
<path fill="#e8f1ff" stroke="#2b6cb0" stroke-width="1.6" d="M1981.5,-60C1981.5,-60 1876.5,-60 1876.5,-60 1870.5,-60 1864.5,-54 1864.5,-48 1864.5,-48 1864.5,-36 1864.5,-36 1864.5,-30 1870.5,-24 1876.5,-24 1876.5,-24 1981.5,-24 1981.5,-24 1987.5,-24 1993.5,-30 1993.5,-36 1993.5,-36 1993.5,-48 1993.5,-48 1993.5,-54 1987.5,-60 1981.5,-60"/>
<text text-anchor="middle" x="1929" y="-38.9" font-family="Helvetica,sans-Serif" font-size="12.00" fill="#1a365d">Information Agent</text>
</g>
<!-- https://w3id.org/sdata/core/MaterialAgent -->
<g id="node11" class="node">
<title>https://w3id.org/sdata/core/MaterialAgent</title>
<path fill="#e8f1ff" stroke="#2b6cb0" stroke-width="1.6" d="M1773,-60C1773,-60 1689,-60 1689,-60 1683,-60 1677,-54 1677,-48 1677,-48 1677,-36 1677,-36 1677,-30 1683,-24 1689,-24 1689,-24 1773,-24 1773,-24 1779,-24 1785,-30 1785,-36 1785,-36 1785,-48 1785,-48 1785,-54 1779,-60 1773,-60"/>
<text text-anchor="middle" x="1731" y="-38.9" font-family="Helvetica,sans-Serif" font-size="12.00" fill="#1a365d">Material Agent</text>
</g>
<!-- https://w3id.org/sdata/core/MaterialAgent&#45;&gt;https://w3id.org/sdata/core/InformationAgent -->
<g id="edge8" class="edge">
<title>https://w3id.org/sdata/core/MaterialAgent&#45;&gt;https://w3id.org/sdata/core/InformationAgent</title>
<path fill="none" stroke="#6b7280" stroke-width="1.6" stroke-dasharray="5,2" d="M1785.1,-42C1809.61,-42 1838.77,-42 1864.41,-42"/>
<text text-anchor="middle" x="1824.75" y="-48.8" font-family="Helvetica,sans-Serif" font-size="14.00" fill="#6b7280">dual</text>
</g>
<!-- https://w3id.org/sdata/core/Agent -->
<g id="node12" class="node">
<title>https://w3id.org/sdata/core/Agent</title>
<path fill="#e8f1ff" stroke="#2b6cb0" stroke-width="1.6" d="M1963,-179C1963,-179 1931,-179 1931,-179 1925,-179 1919,-173 1919,-167 1919,-167 1919,-155 1919,-155 1919,-149 1925,-143 1931,-143 1931,-143 1963,-143 1963,-143 1969,-143 1975,-149 1975,-155 1975,-155 1975,-167 1975,-167 1975,-173 1969,-179 1963,-179"/>
<text text-anchor="middle" x="1947" y="-157.9" font-family="Helvetica,sans-Serif" font-size="12.00" fill="#1a365d">Agent</text>
</g>
<!-- https://w3id.org/sdata/core/Artifact -->
<g id="node13" class="node">
<title>https://w3id.org/sdata/core/Artifact</title>
<path fill="#e8f1ff" stroke="#2b6cb0" stroke-width="1.6" d="M1813.5,-179C1813.5,-179 1772.5,-179 1772.5,-179 1766.5,-179 1760.5,-173 1760.5,-167 1760.5,-167 1760.5,-155 1760.5,-155 1760.5,-149 1766.5,-143 1772.5,-143 1772.5,-143 1813.5,-143 1813.5,-143 1819.5,-143 1825.5,-149 1825.5,-155 1825.5,-155 1825.5,-167 1825.5,-167 1825.5,-173 1819.5,-179 1813.5,-179"/>
<text text-anchor="middle" x="1793" y="-157.9" font-family="Helvetica,sans-Serif" font-size="12.00" fill="#1a365d">Artifact</text>
</g>
<!-- https://w3id.org/sdata/core/Identifier -->
<g id="node14" class="node">
<title>https://w3id.org/sdata/core/Identifier</title>
<path fill="#e8f1ff" stroke="#2b6cb0" stroke-width="1.6" d="M1601.5,-179C1601.5,-179 1550.5,-179 1550.5,-179 1544.5,-179 1538.5,-173 1538.5,-167 1538.5,-167 1538.5,-155 1538.5,-155 1538.5,-149 1544.5,-143 1550.5,-143 1550.5,-143 1601.5,-143 1601.5,-143 1607.5,-143 1613.5,-149 1613.5,-155 1613.5,-155 1613.5,-167 1613.5,-167 1613.5,-173 1607.5,-179 1601.5,-179"/>
<text text-anchor="middle" x="1576" y="-157.9" font-family="Helvetica,sans-Serif" font-size="12.00" fill="#1a365d">Identifier</text>
</g>
<!-- https://w3id.org/sdata/core/Intangible -->
<g id="node15" class="node">
<title>https://w3id.org/sdata/core/Intangible</title>
<path fill="#e8f1ff" stroke="#2b6cb0" stroke-width="1.6" d="M1273,-179C1273,-179 1217,-179 1217,-179 1211,-179 1205,-173 1205,-167 1205,-167 1205,-155 1205,-155 1205,-149 1211,-143 1217,-143 1217,-143 1273,-143 1273,-143 1279,-143 1285,-149 1285,-155 1285,-155 1285,-167 1285,-167 1285,-173 1279,-179 1273,-179"/>
<text text-anchor="middle" x="1245" y="-157.9" font-family="Helvetica,sans-Serif" font-size="12.00" fill="#1a365d">Intangible</text>
</g>
<!-- https://w3id.org/sdata/core/Intangible&#45;&gt;https://w3id.org/sdata/core/Information -->
<g id="edge2" class="edge">
<title>https://w3id.org/sdata/core/Intangible&#45;&gt;https://w3id.org/sdata/core/Information</title>
<path fill="none" stroke="#4a5568" stroke-width="1.6" d="M1209.48,-142.92C1201.58,-139.77 1193.14,-136.88 1185,-135 1052.7,-104.35 701.42,-147.61 575,-98 557.62,-91.18 541.36,-78.06 529.21,-66.34"/>
<polygon fill="#4a5568" stroke="#4a5568" stroke-width="1.6" points="531.01,-63.94 522.9,-60.03 526.8,-68.14 531.01,-63.94"/>
</g>
<!-- https://w3id.org/sdata/core/Intangible&#45;&gt;https://w3id.org/sdata/core/InformationArtifact -->
<g id="edge4" class="edge">
<title>https://w3id.org/sdata/core/Intangible&#45;&gt;https://w3id.org/sdata/core/InformationArtifact</title>
<path fill="none" stroke="#4a5568" stroke-width="1.6" d="M1285.35,-148.43C1325.06,-136.75 1387.24,-117.67 1440,-98 1467.9,-87.6 1498.56,-74.49 1522.87,-63.67"/>
<polygon fill="#4a5568" stroke="#4a5568" stroke-width="1.6" points="1524.32,-66.29 1530.87,-60.1 1521.89,-60.85 1524.32,-66.29"/>
</g>
<!-- https://w3id.org/sdata/core/Intangible&#45;&gt;https://w3id.org/sdata/core/InformationSite -->
<g id="edge6" class="edge">
<title>https://w3id.org/sdata/core/Intangible&#45;&gt;https://w3id.org/sdata/core/InformationSite</title>
<path fill="none" stroke="#4a5568" stroke-width="1.6" d="M1239.04,-142.99C1232.15,-123.32 1220.74,-90.76 1212.82,-68.16"/>
<polygon fill="#4a5568" stroke="#4a5568" stroke-width="1.6" points="1215.59,-67.07 1209.97,-60.03 1209.97,-69.04 1215.59,-67.07"/>
</g>
<!-- https://w3id.org/sdata/core/Intangible&#45;&gt;https://w3id.org/sdata/core/InformationProcess -->
<g id="edge5" class="edge">
<title>https://w3id.org/sdata/core/Intangible&#45;&gt;https://w3id.org/sdata/core/InformationProcess</title>
<path fill="none" stroke="#4a5568" stroke-width="1.6" d="M1208.04,-143C1200.53,-140 1192.6,-137.15 1185,-135 1084.12,-106.41 1050.56,-133.77 952,-98 929.96,-90 907.33,-76.55 890.03,-64.96"/>
<polygon fill="#4a5568" stroke="#4a5568" stroke-width="1.6" points="891.65,-62.46 882.96,-60.12 888.29,-67.37 891.65,-62.46"/>
</g>
<!-- https://w3id.org/sdata/core/Intangible&#45;&gt;https://w3id.org/sdata/core/InformationAgent -->
<g id="edge3" class="edge">
<title>https://w3id.org/sdata/core/Intangible&#45;&gt;https://w3id.org/sdata/core/InformationAgent</title>
<path fill="none" stroke="#4a5568" stroke-width="1.6" d="M1285.35,-156.25C1405.41,-145.01 1755.07,-111.49 1805,-98 1834.62,-90 1866.2,-75.9 1890.08,-63.98"/>
<polygon fill="#4a5568" stroke="#4a5568" stroke-width="1.6" points="1891.63,-66.53 1897.87,-60.03 1888.95,-61.22 1891.63,-66.53"/>
</g>
<!-- https://w3id.org/sdata/core/Process -->
<g id="node16" class="node">
<title>https://w3id.org/sdata/core/Process</title>
<path fill="#e8f1ff" stroke="#2b6cb0" stroke-width="1.6" d="M1153,-179C1153,-179 1111,-179 1111,-179 1105,-179 1099,-173 1099,-167 1099,-167 1099,-155 1099,-155 1099,-149 1105,-143 1111,-143 1111,-143 1153,-143 1153,-143 1159,-143 1165,-149 1165,-155 1165,-155 1165,-167 1165,-167 1165,-173 1159,-179 1153,-179"/>
<text text-anchor="middle" x="1132" y="-157.9" font-family="Helvetica,sans-Serif" font-size="12.00" fill="#1a365d">Process</text>
</g>
<!-- https://w3id.org/sdata/core/Role -->
<g id="node17" class="node">
<title>https://w3id.org/sdata/core/Role</title>
<path fill="#e8f1ff" stroke="#2b6cb0" stroke-width="1.6" d="M1047,-179C1047,-179 1017,-179 1017,-179 1011,-179 1005,-173 1005,-167 1005,-167 1005,-155 1005,-155 1005,-149 1011,-143 1017,-143 1017,-143 1047,-143 1047,-143 1053,-143 1059,-149 1059,-155 1059,-155 1059,-167 1059,-167 1059,-173 1053,-179 1047,-179"/>
<text text-anchor="middle" x="1032" y="-157.9" font-family="Helvetica,sans-Serif" font-size="12.00" fill="#1a365d">Role</text>
</g>
<!-- https://w3id.org/sdata/core/Site -->
<g id="node18" class="node">
<title>https://w3id.org/sdata/core/Site</title>
<path fill="#e8f1ff" stroke="#2b6cb0" stroke-width="1.6" d="M953,-179C953,-179 923,-179 923,-179 917,-179 911,-173 911,-167 911,-167 911,-155 911,-155 911,-149 917,-143 923,-143 923,-143 953,-143 953,-143 959,-143 965,-149 965,-155 965,-155 965,-167 965,-167 965,-173 959,-179 953,-179"/>
<text text-anchor="middle" x="938" y="-157.9" font-family="Helvetica,sans-Serif" font-size="12.00" fill="#1a365d">Site</text>
</g>
<!-- https://w3id.org/sdata/core/Substance -->
<g id="node19" class="node">
<title>https://w3id.org/sdata/core/Substance</title>
<path fill="#e8f1ff" stroke="#2b6cb0" stroke-width="1.6" d="M858.5,-179C858.5,-179 799.5,-179 799.5,-179 793.5,-179 787.5,-173 787.5,-167 787.5,-167 787.5,-155 787.5,-155 787.5,-149 793.5,-143 799.5,-143 799.5,-143 858.5,-143 858.5,-143 864.5,-143 870.5,-149 870.5,-155 870.5,-155 870.5,-167 870.5,-167 870.5,-173 864.5,-179 858.5,-179"/>
<text text-anchor="middle" x="829" y="-157.9" font-family="Helvetica,sans-Serif" font-size="12.00" fill="#1a365d">Substance</text>
</g>
<!-- https://w3id.org/sdata/core/Tangible -->
<g id="node20" class="node">
<title>https://w3id.org/sdata/core/Tangible</title>
<path fill="#e8f1ff" stroke="#2b6cb0" stroke-width="1.6" d="M735.5,-179C735.5,-179 690.5,-179 690.5,-179 684.5,-179 678.5,-173 678.5,-167 678.5,-167 678.5,-155 678.5,-155 678.5,-149 684.5,-143 690.5,-143 690.5,-143 735.5,-143 735.5,-143 741.5,-143 747.5,-149 747.5,-155 747.5,-155 747.5,-167 747.5,-167 747.5,-173 741.5,-179 735.5,-179"/>
<text text-anchor="middle" x="713" y="-157.9" font-family="Helvetica,sans-Serif" font-size="12.00" fill="#1a365d">Tangible</text>
</g>
<!-- https://w3id.org/sdata/core/Tangible&#45;&gt;https://w3id.org/sdata/core/Material -->
<g id="edge12" class="edge">
<title>https://w3id.org/sdata/core/Tangible&#45;&gt;https://w3id.org/sdata/core/Material</title>
<path fill="none" stroke="#4a5568" stroke-width="1.6" d="M678.33,-155.48C625.95,-147.89 524.14,-130.18 443,-98 421.16,-89.34 398.38,-76.13 380.71,-64.83"/>
<polygon fill="#4a5568" stroke="#4a5568" stroke-width="1.6" points="382.22,-62.26 373.47,-60.12 378.98,-67.25 382.22,-62.26"/>
</g>
<!-- https://w3id.org/sdata/core/Tangible&#45;&gt;https://w3id.org/sdata/core/MaterialArtifact -->
<g id="edge14" class="edge">
<title>https://w3id.org/sdata/core/Tangible&#45;&gt;https://w3id.org/sdata/core/MaterialArtifact</title>
<path fill="none" stroke="#4a5568" stroke-width="1.6" d="M745.46,-142.96C752.71,-139.81 760.48,-136.92 768,-135 823.38,-120.9 1227.07,-116.9 1281,-98 1300.96,-91 1320.57,-77.65 1335.38,-65.86"/>
<polygon fill="#4a5568" stroke="#4a5568" stroke-width="1.6" points="1337.56,-67.92 1342.24,-60.23 1333.79,-63.32 1337.56,-67.92"/>
</g>
<!-- https://w3id.org/sdata/core/Tangible&#45;&gt;https://w3id.org/sdata/core/MaterialSite -->
<g id="edge16" class="edge">
<title>https://w3id.org/sdata/core/Tangible&#45;&gt;https://w3id.org/sdata/core/MaterialSite</title>
<path fill="none" stroke="#4a5568" stroke-width="1.6" d="M747.45,-142.93C754.16,-140.01 761.22,-137.21 768,-135 845.66,-109.72 873.91,-132.37 948,-98 965.07,-90.08 981.74,-77.25 994.53,-65.97"/>
<polygon fill="#4a5568" stroke="#4a5568" stroke-width="1.6" points="996.54,-68.16 1000.84,-60.25 992.55,-63.75 996.54,-68.16"/>
</g>
<!-- https://w3id.org/sdata/core/Tangible&#45;&gt;https://w3id.org/sdata/core/MaterialProcess -->
<g id="edge15" class="edge">
<title>https://w3id.org/sdata/core/Tangible&#45;&gt;https://w3id.org/sdata/core/MaterialProcess</title>
<path fill="none" stroke="#4a5568" stroke-width="1.6" d="M704.13,-142.99C693.83,-123.23 676.75,-90.47 664.96,-67.86"/>
<polygon fill="#4a5568" stroke="#4a5568" stroke-width="1.6" points="667.45,-66.2 660.88,-60.03 662.17,-68.95 667.45,-66.2"/>
</g>
<!-- https://w3id.org/sdata/core/Tangible&#45;&gt;https://w3id.org/sdata/core/MaterialAgent -->
<g id="edge13" class="edge">
<title>https://w3id.org/sdata/core/Tangible&#45;&gt;https://w3id.org/sdata/core/MaterialAgent</title>
<path fill="none" stroke="#4a5568" stroke-width="1.6" d="M745.13,-142.92C752.46,-139.73 760.35,-136.83 768,-135 959.9,-89.23 1468.62,-162.69 1655,-98 1674.44,-91.25 1693.2,-77.77 1707.22,-65.85"/>
<polygon fill="#4a5568" stroke="#4a5568" stroke-width="1.6" points="1709.28,-68 1713.7,-60.15 1705.35,-63.53 1709.28,-68"/>
</g>
</g>
</svg>
