<?xml version="1.0" encoding="UTF-8" standalone="no"?>
<!DOCTYPE svg PUBLIC "-//W3C//DTD SVG 1.1//EN"
 "http://www.w3.org/Graphics/SVG/1.1/DTD/svg11.dtd">
<!-- Generated by graphviz version 2.43.0 (0)
 -->
<!-- Pages: 1 -->
<svg width="4134pt" height="396pt"
 viewBox="0.00 0.00 4133.90 396.40" xmlns="http://www.w3.org/2000/svg" xmlns:xlink="http://www.w3.org/1999/xlink">
<g id="graph0" class="graph" transform="scale(1 1) rotate(0) translate(25.2 371.2)">
<polygon fill="#fafbfc" stroke="transparent" points="-25.2,25.2 -25.2,-371.2 4108.7,-371.2 4108.7,25.2 -25.2,25.2"/>
<text text-anchor="middle" x="2041.75" y="-326" font-family="Helvetica,sans-Serif" font-size="20.00">sdata Class Hierarchy (core v0.6.0 / MIN+OPA based)</text>
<g id="clust1" class="cluster">
<title>cluster_sdata</title>
<path fill="#fafbfc" stroke="#90b5e8" d="M20,-8C20,-8 3768,-8 3768,-8 3774,-8 3780,-14 3780,-20 3780,-20 3780,-296 3780,-296 3780,-302 3774,-308 3768,-308 3768,-308 20,-308 20,-308 14,-308 8,-302 8,-296 8,-296 8,-20 8,-20 8,-14 14,-8 20,-8"/>
<text text-anchor="middle" x="1894" y="-288" font-family="Helvetica,sans-Serif" font-size="20.00">sdata classes</text>
</g>
<g id="clust2" class="cluster">
<title>cluster_legend</title>
<path fill="#fafbfc" stroke="#cbd5e0" d="M3800,-226C3800,-226 4058,-226 4058,-226 4064,-226 4070,-232 4070,-238 4070,-238 4070,-296 4070,-296 4070,-302 4064,-308 4058,-308 4058,-308 3800,-308 3800,-308 3794,-308 3788,-302 3788,-296 3788,-296 3788,-238 3788,-238 3788,-232 3794,-226 3800,-226"/>
<text text-anchor="middle" x="3929" y="-288" font-family="Helvetica,sans-Serif" font-size="20.00">Legend</text>
</g>
<!-- https://w3id.org/sdata/core/Activity -->
<g id="node1" class="node">
<title>https://w3id.org/sdata/core/Activity</title>
<path fill="#e8f1ff" stroke="#2b6cb0" stroke-width="1.6" d="M3396,-270C3396,-270 3356,-270 3356,-270 3350,-270 3344,-264 3344,-258 3344,-258 3344,-246 3344,-246 3344,-240 3350,-234 3356,-234 3356,-234 3396,-234 3396,-234 3402,-234 3408,-240 3408,-246 3408,-246 3408,-258 3408,-258 3408,-264 3402,-270 3396,-270"/>
<text text-anchor="middle" x="3376" y="-248.9" font-family="Helvetica,sans-Serif" font-size="12.00" fill="#1a365d">Activity</text>
</g>
<!-- https://w3id.org/sdata/core/AssemblyProcess -->
<g id="node4" class="node">
<title>https://w3id.org/sdata/core/AssemblyProcess</title>
<path fill="#e8f1ff" stroke="#2b6cb0" stroke-width="1.6" d="M3026,-161C3026,-161 2924,-161 2924,-161 2918,-161 2912,-155 2912,-149 2912,-149 2912,-137 2912,-137 2912,-131 2918,-125 2924,-125 2924,-125 3026,-125 3026,-125 3032,-125 3038,-131 3038,-137 3038,-137 3038,-149 3038,-149 3038,-155 3032,-161 3026,-161"/>
<text text-anchor="middle" x="2975" y="-139.9" font-family="Helvetica,sans-Serif" font-size="12.00" fill="#1a365d">Assembly Process</text>
</g>
<!-- https://w3id.org/sdata/core/Activity&#45;&gt;https://w3id.org/sdata/core/AssemblyProcess -->
<g id="edge2" class="edge">
<title>https://w3id.org/sdata/core/Activity&#45;&gt;https://w3id.org/sdata/core/AssemblyProcess</title>
<path fill="none" stroke="#4a5568" stroke-width="1.6" d="M3343.86,-242.42C3279.68,-225.3 3134.25,-186.49 3046.39,-163.05"/>
<polygon fill="#4a5568" stroke="#4a5568" stroke-width="1.6" points="3047.05,-160.15 3038.07,-160.83 3045.52,-165.9 3047.05,-160.15"/>
</g>
<!-- https://w3id.org/sdata/core/Experiment -->
<g id="node12" class="node">
<title>https://w3id.org/sdata/core/Experiment</title>
<path fill="#e8f1ff" stroke="#2b6cb0" stroke-width="1.6" d="M3156,-161C3156,-161 3090,-161 3090,-161 3084,-161 3078,-155 3078,-149 3078,-149 3078,-137 3078,-137 3078,-131 3084,-125 3090,-125 3090,-125 3156,-125 3156,-125 3162,-125 3168,-131 3168,-137 3168,-137 3168,-149 3168,-149 3168,-155 3162,-161 3156,-161"/>
<text text-anchor="middle" x="3123" y="-139.9" font-family="Helvetica,sans-Serif" font-size="12.00" fill="#1a365d">Experiment</text>
</g>
<!-- https://w3id.org/sdata/core/Activity&#45;&gt;https://w3id.org/sdata/core/Experiment -->
<g id="edge3" class="edge">
<title>https://w3id.org/sdata/core/Activity&#45;&gt;https://w3id.org/sdata/core/Experiment</title>
<path fill="none" stroke="#4a5568" stroke-width="1.6" d="M3343.96,-237.45C3300.41,-219.03 3222.18,-185.94 3171.44,-164.49"/>
<polygon fill="#4a5568" stroke="#4a5568" stroke-width="1.6" points="3172.53,-161.72 3163.55,-161.15 3170.22,-167.2 3172.53,-161.72"/>
</g>
<!-- https://w3id.org/sdata/core/ManufacturingProcess -->
<g id="node18" class="node">
<title>https://w3id.org/sdata/core/ManufacturingProcess</title>
<path fill="#e8f1ff" stroke="#2b6cb0" stroke-width="1.6" d="M3352,-161C3352,-161 3220,-161 3220,-161 3214,-161 3208,-155 3208,-149 3208,-149 3208,-137 3208,-137 3208,-131 3214,-125 3220,-125 3220,-125 3352,-125 3352,-125 3358,-125 3364,-131 3364,-137 3364,-137 3364,-149 3364,-149 3364,-155 3358,-161 3352,-161"/>
<text text-anchor="middle" x="3286" y="-139.9" font-family="Helvetica,sans-Serif" font-size="12.00" fill="#1a365d">Manufacturing Process</text>
</g>
<!-- https://w3id.org/sdata/core/Activity&#45;&gt;https://w3id.org/sdata/core/ManufacturingProcess -->
<g id="edge4" class="edge">
<title>https://w3id.org/sdata/core/Activity&#45;&gt;https://w3id.org/sdata/core/ManufacturingProcess</title>
<path fill="none" stroke="#4a5568" stroke-width="1.6" d="M3361.54,-233.81C3346.52,-215.95 3322.89,-187.86 3306.07,-167.86"/>
<polygon fill="#4a5568" stroke="#4a5568" stroke-width="1.6" points="3308.17,-165.74 3300.42,-161.15 3303.62,-169.57 3308.17,-165.74"/>
</g>
<!-- https://w3id.org/sdata/core/RecyclingProcess -->
<g id="node33" class="node">
<title>https://w3id.org/sdata/core/RecyclingProcess</title>
<path fill="#e8f1ff" stroke="#2b6cb0" stroke-width="1.6" d="M3518,-161C3518,-161 3416,-161 3416,-161 3410,-161 3404,-155 3404,-149 3404,-149 3404,-137 3404,-137 3404,-131 3410,-125 3416,-125 3416,-125 3518,-125 3518,-125 3524,-125 3530,-131 3530,-137 3530,-137 3530,-149 3530,-149 3530,-155 3524,-161 3518,-161"/>
<text text-anchor="middle" x="3467" y="-139.9" font-family="Helvetica,sans-Serif" font-size="12.00" fill="#1a365d">Recycling Process</text>
</g>
<!-- https://w3id.org/sdata/core/Activity&#45;&gt;https://w3id.org/sdata/core/RecyclingProcess -->
<g id="edge5" class="edge">
<title>https://w3id.org/sdata/core/Activity&#45;&gt;https://w3id.org/sdata/core/RecyclingProcess</title>
<path fill="none" stroke="#4a5568" stroke-width="1.6" d="M3390.62,-233.81C3405.81,-215.95 3429.7,-187.86 3446.71,-167.86"/>
<polygon fill="#4a5568" stroke="#4a5568" stroke-width="1.6" points="3449.18,-169.55 3452.42,-161.15 3444.64,-165.7 3449.18,-169.55"/>
</g>
<!-- https://w3id.org/sdata/core/Simulation -->
<g id="node35" class="node">
<title>https://w3id.org/sdata/core/Simulation</title>
<path fill="#e8f1ff" stroke="#2b6cb0" stroke-width="1.6" d="M3642,-161C3642,-161 3582,-161 3582,-161 3576,-161 3570,-155 3570,-149 3570,-149 3570,-137 3570,-137 3570,-131 3576,-125 3582,-125 3582,-125 3642,-125 3642,-125 3648,-125 3654,-131 3654,-137 3654,-137 3654,-149 3654,-149 3654,-155 3648,-161 3642,-161"/>
<text text-anchor="middle" x="3612" y="-139.9" font-family="Helvetica,sans-Serif" font-size="12.00" fill="#1a365d">Simulation</text>
</g>
<!-- https://w3id.org/sdata/core/Activity&#45;&gt;https://w3id.org/sdata/core/Simulation -->
<g id="edge6" class="edge">
<title>https://w3id.org/sdata/core/Activity&#45;&gt;https://w3id.org/sdata/core/Simulation</title>
<path fill="none" stroke="#4a5568" stroke-width="1.6" d="M3408.32,-236.35C3449.25,-217.79 3520.03,-185.7 3566.43,-164.66"/>
<polygon fill="#4a5568" stroke="#4a5568" stroke-width="1.6" points="3567.72,-167.34 3574.23,-161.13 3565.26,-161.93 3567.72,-167.34"/>
</g>
<!-- https://w3id.org/sdata/core/Transport -->
<g id="node41" class="node">
<title>https://w3id.org/sdata/core/Transport</title>
<path fill="#e8f1ff" stroke="#2b6cb0" stroke-width="1.6" d="M3759.5,-161C3759.5,-161 3706.5,-161 3706.5,-161 3700.5,-161 3694.5,-155 3694.5,-149 3694.5,-149 3694.5,-137 3694.5,-137 3694.5,-131 3700.5,-125 3706.5,-125 3706.5,-125 3759.5,-125 3759.5,-125 3765.5,-125 3771.5,-131 3771.5,-137 3771.5,-137 3771.5,-149 3771.5,-149 3771.5,-155 3765.5,-161 3759.5,-161"/>
<text text-anchor="middle" x="3733" y="-139.9" font-family="Helvetica,sans-Serif" font-size="12.00" fill="#1a365d">Transport</text>
</g>
<!-- https://w3id.org/sdata/core/Activity&#45;&gt;https://w3id.org/sdata/core/Transport -->
<g id="edge7" class="edge">
<title>https://w3id.org/sdata/core/Activity&#45;&gt;https://w3id.org/sdata/core/Transport</title>
<path fill="none" stroke="#4a5568" stroke-width="1.6" d="M3408.31,-241.32C3471.69,-222.32 3612.54,-180.1 3686.15,-158.04"/>
<polygon fill="#4a5568" stroke="#4a5568" stroke-width="1.6" points="3687.06,-160.87 3694.35,-155.58 3685.35,-155.18 3687.06,-160.87"/>
</g>
<!-- https://w3id.org/sdata/core/Agent -->
<g id="node2" class="node">
<title>https://w3id.org/sdata/core/Agent</title>
<path fill="#e8f1ff" stroke="#2b6cb0" stroke-width="1.6" d="M2617,-270C2617,-270 2585,-270 2585,-270 2579,-270 2573,-264 2573,-258 2573,-258 2573,-246 2573,-246 2573,-240 2579,-234 2585,-234 2585,-234 2617,-234 2617,-234 2623,-234 2629,-240 2629,-246 2629,-246 2629,-258 2629,-258 2629,-264 2623,-270 2617,-270"/>
<text text-anchor="middle" x="2601" y="-248.9" font-family="Helvetica,sans-Serif" font-size="12.00" fill="#1a365d">Agent</text>
</g>
<!-- https://w3id.org/sdata/core/HumanAgent -->
<g id="node15" class="node">
<title>https://w3id.org/sdata/core/HumanAgent</title>
<path fill="#e8f1ff" stroke="#2b6cb0" stroke-width="1.6" d="M2421.5,-161C2421.5,-161 2342.5,-161 2342.5,-161 2336.5,-161 2330.5,-155 2330.5,-149 2330.5,-149 2330.5,-137 2330.5,-137 2330.5,-131 2336.5,-125 2342.5,-125 2342.5,-125 2421.5,-125 2421.5,-125 2427.5,-125 2433.5,-131 2433.5,-137 2433.5,-137 2433.5,-149 2433.5,-149 2433.5,-155 2427.5,-161 2421.5,-161"/>
<text text-anchor="middle" x="2382" y="-139.9" font-family="Helvetica,sans-Serif" font-size="12.00" fill="#1a365d">Human Agent</text>
</g>
<!-- https://w3id.org/sdata/core/Agent&#45;&gt;https://w3id.org/sdata/core/HumanAgent -->
<g id="edge8" class="edge">
<title>https://w3id.org/sdata/core/Agent&#45;&gt;https://w3id.org/sdata/core/HumanAgent</title>
<path fill="none" stroke="#4a5568" stroke-width="1.6" d="M2572.82,-237.23C2535.3,-218.9 2468.59,-186.31 2424.83,-164.93"/>
<polygon fill="#4a5568" stroke="#4a5568" stroke-width="1.6" points="2425.88,-162.13 2416.94,-161.07 2423.27,-167.47 2425.88,-162.13"/>
</g>
<!-- https://w3id.org/sdata/core/MachineAgent -->
<g id="node17" class="node">
<title>https://w3id.org/sdata/core/MachineAgent</title>
<path fill="#e8f1ff" stroke="#2b6cb0" stroke-width="1.6" d="M2572,-161C2572,-161 2486,-161 2486,-161 2480,-161 2474,-155 2474,-149 2474,-149 2474,-137 2474,-137 2474,-131 2480,-125 2486,-125 2486,-125 2572,-125 2572,-125 2578,-125 2584,-131 2584,-137 2584,-137 2584,-149 2584,-149 2584,-155 2578,-161 2572,-161"/>
<text text-anchor="middle" x="2529" y="-139.9" font-family="Helvetica,sans-Serif" font-size="12.00" fill="#1a365d">Machine Agent</text>
</g>
<!-- https://w3id.org/sdata/core/Agent&#45;&gt;https://w3id.org/sdata/core/MachineAgent -->
<g id="edge9" class="edge">
<title>https://w3id.org/sdata/core/Agent&#45;&gt;https://w3id.org/sdata/core/MachineAgent</title>
<path fill="none" stroke="#4a5568" stroke-width="1.6" d="M2589.43,-233.81C2577.52,-216.1 2558.84,-188.35 2545.41,-168.38"/>
<polygon fill="#4a5568" stroke="#4a5568" stroke-width="1.6" points="2547.75,-166.54 2540.54,-161.15 2542.82,-169.86 2547.75,-166.54"/>
</g>
<!-- https://w3id.org/sdata/core/Organization -->
<g id="node27" class="node">
<title>https://w3id.org/sdata/core/Organization</title>
<path fill="#e8f1ff" stroke="#2b6cb0" stroke-width="1.6" d="M2708,-161C2708,-161 2636,-161 2636,-161 2630,-161 2624,-155 2624,-149 2624,-149 2624,-137 2624,-137 2624,-131 2630,-125 2636,-125 2636,-125 2708,-125 2708,-125 2714,-125 2720,-131 2720,-137 2720,-137 2720,-149 2720,-149 2720,-155 2714,-161 2708,-161"/>
<text text-anchor="middle" x="2672" y="-139.9" font-family="Helvetica,sans-Serif" font-size="12.00" fill="#1a365d">Organization</text>
</g>
<!-- https://w3id.org/sdata/core/Agent&#45;&gt;https://w3id.org/sdata/core/Organization -->
<g id="edge10" class="edge">
<title>https://w3id.org/sdata/core/Agent&#45;&gt;https://w3id.org/sdata/core/Organization</title>
<path fill="none" stroke="#4a5568" stroke-width="1.6" d="M2612.41,-233.81C2624.16,-216.1 2642.57,-188.35 2655.82,-168.38"/>
<polygon fill="#4a5568" stroke="#4a5568" stroke-width="1.6" points="2658.4,-169.88 2660.62,-161.15 2653.44,-166.59 2658.4,-169.88"/>
</g>
<!-- https://w3id.org/sdata/core/SoftwareAgent -->
<g id="node37" class="node">
<title>https://w3id.org/sdata/core/SoftwareAgent</title>
<path fill="#e8f1ff" stroke="#2b6cb0" stroke-width="1.6" d="M2860,-161C2860,-161 2772,-161 2772,-161 2766,-161 2760,-155 2760,-149 2760,-149 2760,-137 2760,-137 2760,-131 2766,-125 2772,-125 2772,-125 2860,-125 2860,-125 2866,-125 2872,-131 2872,-137 2872,-137 2872,-149 2872,-149 2872,-155 2866,-161 2860,-161"/>
<text text-anchor="middle" x="2816" y="-139.9" font-family="Helvetica,sans-Serif" font-size="12.00" fill="#1a365d">Software Agent</text>
</g>
<!-- https://w3id.org/sdata/core/Agent&#45;&gt;https://w3id.org/sdata/core/SoftwareAgent -->
<g id="edge11" class="edge">
<title>https://w3id.org/sdata/core/Agent&#45;&gt;https://w3id.org/sdata/core/SoftwareAgent</title>
<path fill="none" stroke="#4a5568" stroke-width="1.6" d="M2629.11,-237.01C2665.97,-218.67 2730.97,-186.32 2773.77,-165.02"/>
<polygon fill="#4a5568" stroke="#4a5568" stroke-width="1.6" points="2775.2,-167.63 2781.49,-161.18 2772.55,-162.3 2775.2,-167.63"/>
</g>
<!-- https://w3id.org/sdata/core/Assembly -->
<g id="node3" class="node">
<title>https://w3id.org/sdata/core/Assembly</title>
<path fill="#e8f1ff" stroke="#2b6cb0" stroke-width="1.6" d="M82,-161C82,-161 28,-161 28,-161 22,-161 16,-155 16,-149 16,-149 16,-137 16,-137 16,-131 22,-125 28,-125 28,-125 82,-125 82,-125 88,-125 94,-131 94,-137 94,-137 94,-149 94,-149 94,-155 88,-161 82,-161"/>
<text text-anchor="middle" x="55" y="-139.9" font-family="Helvetica,sans-Serif" font-size="12.00" fill="#1a365d">Assembly</text>
</g>
<!-- https://w3id.org/sdata/core/AttributeQuantityValue -->
<g id="node5" class="node">
<title>https://w3id.org/sdata/core/AttributeQuantityValue</title>
<path fill="#e8f1ff" stroke="#2b6cb0" stroke-width="1.6" d="M2211.5,-270C2211.5,-270 2070.5,-270 2070.5,-270 2064.5,-270 2058.5,-264 2058.5,-258 2058.5,-258 2058.5,-246 2058.5,-246 2058.5,-240 2064.5,-234 2070.5,-234 2070.5,-234 2211.5,-234 2211.5,-234 2217.5,-234 2223.5,-240 2223.5,-246 2223.5,-246 2223.5,-258 2223.5,-258 2223.5,-264 2217.5,-270 2211.5,-270"/>
<text text-anchor="middle" x="2141" y="-248.9" font-family="Helvetica,sans-Serif" font-size="12.00" fill="#1a365d">Attribute Quantity Value</text>
</g>
<!-- https://w3id.org/sdata/core/Certificate -->
<g id="node6" class="node">
<title>https://w3id.org/sdata/core/Certificate</title>
<path fill="#e8f1ff" stroke="#2b6cb0" stroke-width="1.6" d="M1215.5,-161C1215.5,-161 1156.5,-161 1156.5,-161 1150.5,-161 1144.5,-155 1144.5,-149 1144.5,-149 1144.5,-137 1144.5,-137 1144.5,-131 1150.5,-125 1156.5,-125 1156.5,-125 1215.5,-125 1215.5,-125 1221.5,-125 1227.5,-131 1227.5,-137 1227.5,-137 1227.5,-149 1227.5,-149 1227.5,-155 1221.5,-161 1215.5,-161"/>
<text text-anchor="middle" x="1186" y="-139.9" font-family="Helvetica,sans-Serif" font-size="12.00" fill="#1a365d">Certificate</text>
</g>
<!-- https://w3id.org/sdata/core/ChemicalAnalysis -->
<g id="node7" class="node">
<title>https://w3id.org/sdata/core/ChemicalAnalysis</title>
<path fill="#e8f1ff" stroke="#2b6cb0" stroke-width="1.6" d="M2598,-52C2598,-52 2494,-52 2494,-52 2488,-52 2482,-46 2482,-40 2482,-40 2482,-28 2482,-28 2482,-22 2488,-16 2494,-16 2494,-16 2598,-16 2598,-16 2604,-16 2610,-22 2610,-28 2610,-28 2610,-40 2610,-40 2610,-46 2604,-52 2598,-52"/>
<text text-anchor="middle" x="2546" y="-30.9" font-family="Helvetica,sans-Serif" font-size="12.00" fill="#1a365d">Chemical Analysis</text>
</g>
<!-- https://w3id.org/sdata/core/CoatingProcess -->
<g id="node8" class="node">
<title>https://w3id.org/sdata/core/CoatingProcess</title>
<path fill="#e8f1ff" stroke="#2b6cb0" stroke-width="1.6" d="M3135.5,-52C3135.5,-52 3044.5,-52 3044.5,-52 3038.5,-52 3032.5,-46 3032.5,-40 3032.5,-40 3032.5,-28 3032.5,-28 3032.5,-22 3038.5,-16 3044.5,-16 3044.5,-16 3135.5,-16 3135.5,-16 3141.5,-16 3147.5,-22 3147.5,-28 3147.5,-28 3147.5,-40 3147.5,-40 3147.5,-46 3141.5,-52 3135.5,-52"/>
<text text-anchor="middle" x="3090" y="-30.9" font-family="Helvetica,sans-Serif" font-size="12.00" fill="#1a365d">Coating Process</text>
</g>
<!-- https://w3id.org/sdata/core/Component -->
<g id="node9" class="node">
<title>https://w3id.org/sdata/core/Component</title>
<path fill="#e8f1ff" stroke="#2b6cb0" stroke-width="1.6" d="M212,-161C212,-161 146,-161 146,-161 140,-161 134,-155 134,-149 134,-149 134,-137 134,-137 134,-131 140,-125 146,-125 146,-125 212,-125 212,-125 218,-125 224,-131 224,-137 224,-137 224,-149 224,-149 224,-155 218,-161 212,-161"/>
<text text-anchor="middle" x="179" y="-139.9" font-family="Helvetica,sans-Serif" font-size="12.00" fill="#1a365d">Component</text>
</g>
<!-- https://w3id.org/sdata/core/CrashSimulation -->
<g id="node10" class="node">
<title>https://w3id.org/sdata/core/CrashSimulation</title>
<path fill="#e8f1ff" stroke="#2b6cb0" stroke-width="1.6" d="M3760,-52C3760,-52 3662,-52 3662,-52 3656,-52 3650,-46 3650,-40 3650,-40 3650,-28 3650,-28 3650,-22 3656,-16 3662,-16 3662,-16 3760,-16 3760,-16 3766,-16 3772,-22 3772,-28 3772,-28 3772,-40 3772,-40 3772,-46 3766,-52 3760,-52"/>
<text text-anchor="middle" x="3711" y="-30.9" font-family="Helvetica,sans-Serif" font-size="12.00" fill="#1a365d">Crash Simulation</text>
</g>
<!-- https://w3id.org/sdata/core/Data -->
<g id="node11" class="node">
<title>https://w3id.org/sdata/core/Data</title>
<path fill="#e8f1ff" stroke="#2b6cb0" stroke-width="1.6" d="M1768,-270C1768,-270 1738,-270 1738,-270 1732,-270 1726,-264 1726,-258 1726,-258 1726,-246 1726,-246 1726,-240 1732,-234 1738,-234 1738,-234 1768,-234 1768,-234 1774,-234 1780,-240 1780,-246 1780,-246 1780,-258 1780,-258 1780,-264 1774,-270 1768,-270"/>
<text text-anchor="middle" x="1753" y="-248.9" font-family="Helvetica,sans-Serif" font-size="12.00" fill="#1a365d">Data</text>
</g>
<!-- https://w3id.org/sdata/core/Data&#45;&gt;https://w3id.org/sdata/core/Certificate -->
<g id="edge12" class="edge">
<title>https://w3id.org/sdata/core/Data&#45;&gt;https://w3id.org/sdata/core/Certificate</title>
<path fill="none" stroke="#4a5568" stroke-width="1.6" d="M1725.73,-247.04C1649.67,-235.79 1428.91,-201.83 1248,-161 1244.06,-160.11 1239.99,-159.13 1235.91,-158.11"/>
<polygon fill="#4a5568" stroke="#4a5568" stroke-width="1.6" points="1236.53,-155.2 1227.56,-155.96 1235.05,-160.96 1236.53,-155.2"/>
</g>
<!-- https://w3id.org/sdata/core/MaterialProperty -->
<g id="node20" class="node">
<title>https://w3id.org/sdata/core/MaterialProperty</title>
<path fill="#e8f1ff" stroke="#2b6cb0" stroke-width="1.6" d="M1378.5,-161C1378.5,-161 1279.5,-161 1279.5,-161 1273.5,-161 1267.5,-155 1267.5,-149 1267.5,-149 1267.5,-137 1267.5,-137 1267.5,-131 1273.5,-125 1279.5,-125 1279.5,-125 1378.5,-125 1378.5,-125 1384.5,-125 1390.5,-131 1390.5,-137 1390.5,-137 1390.5,-149 1390.5,-149 1390.5,-155 1384.5,-161 1378.5,-161"/>
<text text-anchor="middle" x="1329" y="-139.9" font-family="Helvetica,sans-Serif" font-size="12.00" fill="#1a365d">Material Property</text>
</g>
<!-- https://w3id.org/sdata/core/Data&#45;&gt;https://w3id.org/sdata/core/MaterialProperty -->
<g id="edge13" class="edge">
<title>https://w3id.org/sdata/core/Data&#45;&gt;https://w3id.org/sdata/core/MaterialProperty</title>
<path fill="none" stroke="#4a5568" stroke-width="1.6" d="M1725.83,-244.14C1660.81,-227.73 1494.55,-185.78 1399.14,-161.7"/>
<polygon fill="#4a5568" stroke="#4a5568" stroke-width="1.6" points="1399.67,-158.77 1390.7,-159.57 1398.21,-164.53 1399.67,-158.77"/>
</g>
<!-- https://w3id.org/sdata/core/MeasurementData -->
<g id="node21" class="node">
<title>https://w3id.org/sdata/core/MeasurementData</title>
<path fill="#e8f1ff" stroke="#2b6cb0" stroke-width="1.6" d="M1553.5,-161C1553.5,-161 1442.5,-161 1442.5,-161 1436.5,-161 1430.5,-155 1430.5,-149 1430.5,-149 1430.5,-137 1430.5,-137 1430.5,-131 1436.5,-125 1442.5,-125 1442.5,-125 1553.5,-125 1553.5,-125 1559.5,-125 1565.5,-131 1565.5,-137 1565.5,-137 1565.5,-149 1565.5,-149 1565.5,-155 1559.5,-161 1553.5,-161"/>
<text text-anchor="middle" x="1498" y="-139.9" font-family="Helvetica,sans-Serif" font-size="12.00" fill="#1a365d">Measurement Data</text>
</g>
<!-- https://w3id.org/sdata/core/Data&#45;&gt;https://w3id.org/sdata/core/MeasurementData -->
<g id="edge14" class="edge">
<title>https://w3id.org/sdata/core/Data&#45;&gt;https://w3id.org/sdata/core/MeasurementData</title>
<path fill="none" stroke="#4a5568" stroke-width="1.6" d="M1725.71,-239.55C1683.06,-221.65 1599.99,-186.8 1546.85,-164.5"/>
<polygon fill="#4a5568" stroke="#4a5568" stroke-width="1.6" points="1547.9,-161.71 1538.91,-161.17 1545.6,-167.2 1547.9,-161.71"/>
</g>
<!-- https://w3id.org/sdata/core/Metadata -->
<g id="node23" class="node">
<title>https://w3id.org/sdata/core/Metadata</title>
<path fill="#e8f1ff" stroke="#2b6cb0" stroke-width="1.6" d="M1672,-161C1672,-161 1618,-161 1618,-161 1612,-161 1606,-155 1606,-149 1606,-149 1606,-137 1606,-137 1606,-131 1612,-125 1618,-125 1618,-125 1672,-125 1672,-125 1678,-125 1684,-131 1684,-137 1684,-137 1684,-149 1684,-149 1684,-155 1678,-161 1672,-161"/>
<text text-anchor="middle" x="1645" y="-139.9" font-family="Helvetica,sans-Serif" font-size="12.00" fill="#1a365d">Metadata</text>
</g>
<!-- https://w3id.org/sdata/core/Data&#45;&gt;https://w3id.org/sdata/core/Metadata -->
<g id="edge15" class="edge">
<title>https://w3id.org/sdata/core/Data&#45;&gt;https://w3id.org/sdata/core/Metadata</title>
<path fill="none" stroke="#4a5568" stroke-width="1.6" d="M1735.65,-233.81C1717.46,-215.79 1688.78,-187.37 1668.55,-167.34"/>
<polygon fill="#4a5568" stroke="#4a5568" stroke-width="1.6" points="1670.44,-165.02 1662.31,-161.15 1666.25,-169.24 1670.44,-165.02"/>
</g>
<!-- https://w3id.org/sdata/core/Model -->
<g id="node25" class="node">
<title>https://w3id.org/sdata/core/Model</title>
<path fill="#e8f1ff" stroke="#2b6cb0" stroke-width="1.6" d="M1769.5,-161C1769.5,-161 1736.5,-161 1736.5,-161 1730.5,-161 1724.5,-155 1724.5,-149 1724.5,-149 1724.5,-137 1724.5,-137 1724.5,-131 1730.5,-125 1736.5,-125 1736.5,-125 1769.5,-125 1769.5,-125 1775.5,-125 1781.5,-131 1781.5,-137 1781.5,-137 1781.5,-149 1781.5,-149 1781.5,-155 1775.5,-161 1769.5,-161"/>
<text text-anchor="middle" x="1753" y="-139.9" font-family="Helvetica,sans-Serif" font-size="12.00" fill="#1a365d">Model</text>
</g>
<!-- https://w3id.org/sdata/core/Data&#45;&gt;https://w3id.org/sdata/core/Model -->
<g id="edge16" class="edge">
<title>https://w3id.org/sdata/core/Data&#45;&gt;https://w3id.org/sdata/core/Model</title>
<path fill="none" stroke="#4a5568" stroke-width="1.6" d="M1753,-233.81C1753,-216.49 1753,-189.57 1753,-169.71"/>
<polygon fill="#4a5568" stroke="#4a5568" stroke-width="1.6" points="1755.98,-169.65 1753,-161.15 1750.03,-169.65 1755.98,-169.65"/>
</g>
<!-- https://w3id.org/sdata/core/Passport -->
<g id="node28" class="node">
<title>https://w3id.org/sdata/core/Passport</title>
<path fill="#e8f1ff" stroke="#2b6cb0" stroke-width="1.6" d="M1882,-161C1882,-161 1834,-161 1834,-161 1828,-161 1822,-155 1822,-149 1822,-149 1822,-137 1822,-137 1822,-131 1828,-125 1834,-125 1834,-125 1882,-125 1882,-125 1888,-125 1894,-131 1894,-137 1894,-137 1894,-149 1894,-149 1894,-155 1888,-161 1882,-161"/>
<text text-anchor="middle" x="1858" y="-139.9" font-family="Helvetica,sans-Serif" font-size="12.00" fill="#1a365d">Passport</text>
</g>
<!-- https://w3id.org/sdata/core/Data&#45;&gt;https://w3id.org/sdata/core/Passport -->
<g id="edge17" class="edge">
<title>https://w3id.org/sdata/core/Data&#45;&gt;https://w3id.org/sdata/core/Passport</title>
<path fill="none" stroke="#4a5568" stroke-width="1.6" d="M1769.87,-233.81C1787.55,-215.79 1815.44,-187.37 1835.1,-167.34"/>
<polygon fill="#4a5568" stroke="#4a5568" stroke-width="1.6" points="1837.34,-169.3 1841.17,-161.15 1833.09,-165.13 1837.34,-169.3"/>
</g>
<!-- https://w3id.org/sdata/core/ProcessData -->
<g id="node29" class="node">
<title>https://w3id.org/sdata/core/ProcessData</title>
<path fill="#e8f1ff" stroke="#2b6cb0" stroke-width="1.6" d="M2020,-161C2020,-161 1946,-161 1946,-161 1940,-161 1934,-155 1934,-149 1934,-149 1934,-137 1934,-137 1934,-131 1940,-125 1946,-125 1946,-125 2020,-125 2020,-125 2026,-125 2032,-131 2032,-137 2032,-137 2032,-149 2032,-149 2032,-155 2026,-161 2020,-161"/>
<text text-anchor="middle" x="1983" y="-139.9" font-family="Helvetica,sans-Serif" font-size="12.00" fill="#1a365d">Process Data</text>
</g>
<!-- https://w3id.org/sdata/core/Data&#45;&gt;https://w3id.org/sdata/core/ProcessData -->
<g id="edge18" class="edge">
<title>https://w3id.org/sdata/core/Data&#45;&gt;https://w3id.org/sdata/core/ProcessData</title>
<path fill="none" stroke="#4a5568" stroke-width="1.6" d="M1780.29,-238.31C1819.32,-220.15 1891.54,-186.55 1938.41,-164.74"/>
<polygon fill="#4a5568" stroke="#4a5568" stroke-width="1.6" points="1939.82,-167.37 1946.28,-161.08 1937.31,-161.97 1939.82,-167.37"/>
</g>
<!-- https://w3id.org/sdata/core/SimulationResult -->
<g id="node36" class="node">
<title>https://w3id.org/sdata/core/SimulationResult</title>
<path fill="#e8f1ff" stroke="#2b6cb0" stroke-width="1.6" d="M2183.5,-161C2183.5,-161 2084.5,-161 2084.5,-161 2078.5,-161 2072.5,-155 2072.5,-149 2072.5,-149 2072.5,-137 2072.5,-137 2072.5,-131 2078.5,-125 2084.5,-125 2084.5,-125 2183.5,-125 2183.5,-125 2189.5,-125 2195.5,-131 2195.5,-137 2195.5,-137 2195.5,-149 2195.5,-149 2195.5,-155 2189.5,-161 2183.5,-161"/>
<text text-anchor="middle" x="2134" y="-139.9" font-family="Helvetica,sans-Serif" font-size="12.00" fill="#1a365d">Simulation Result</text>
</g>
<!-- https://w3id.org/sdata/core/Data&#45;&gt;https://w3id.org/sdata/core/SimulationResult -->
<g id="edge19" class="edge">
<title>https://w3id.org/sdata/core/Data&#45;&gt;https://w3id.org/sdata/core/SimulationResult</title>
<path fill="none" stroke="#4a5568" stroke-width="1.6" d="M1780.1,-243.39C1838.91,-226.87 1979.84,-187.29 2065.05,-163.36"/>
<polygon fill="#4a5568" stroke="#4a5568" stroke-width="1.6" points="2066,-166.19 2073.37,-161.03 2064.39,-160.46 2066,-166.19"/>
</g>
<!-- https://w3id.org/sdata/core/Table -->
<g id="node39" class="node">
<title>https://w3id.org/sdata/core/Table</title>
<path fill="#e8f1ff" stroke="#2b6cb0" stroke-width="1.6" d="M2278,-161C2278,-161 2248,-161 2248,-161 2242,-161 2236,-155 2236,-149 2236,-149 2236,-137 2236,-137 2236,-131 2242,-125 2248,-125 2248,-125 2278,-125 2278,-125 2284,-125 2290,-131 2290,-137 2290,-137 2290,-149 2290,-149 2290,-155 2284,-161 2278,-161"/>
<text text-anchor="middle" x="2263" y="-139.9" font-family="Helvetica,sans-Serif" font-size="12.00" fill="#1a365d">Table</text>
</g>
<!-- https://w3id.org/sdata/core/Data&#45;&gt;https://w3id.org/sdata/core/Table -->
<g id="edge20" class="edge">
<title>https://w3id.org/sdata/core/Data&#45;&gt;https://w3id.org/sdata/core/Table</title>
<path fill="none" stroke="#4a5568" stroke-width="1.6" d="M1780.22,-247.22C1852.2,-236.9 2053.21,-205.97 2216,-161 2219.87,-159.93 2223.88,-158.69 2227.85,-157.38"/>
<polygon fill="#4a5568" stroke="#4a5568" stroke-width="1.6" points="2228.82,-160.19 2235.89,-154.61 2226.89,-154.57 2228.82,-160.19"/>
</g>
<!-- https://w3id.org/sdata/core/Experiment&#45;&gt;https://w3id.org/sdata/core/ChemicalAnalysis -->
<g id="edge21" class="edge">
<title>https://w3id.org/sdata/core/Experiment&#45;&gt;https://w3id.org/sdata/core/ChemicalAnalysis</title>
<path fill="none" stroke="#4a5568" stroke-width="1.6" d="M3077.66,-129.61C3071.09,-127.97 3064.38,-126.38 3058,-125 2869.8,-84.38 2820.3,-87.1 2631,-52 2626.96,-51.25 2622.81,-50.47 2618.63,-49.67"/>
<polygon fill="#4a5568" stroke="#4a5568" stroke-width="1.6" points="2618.92,-46.69 2610.01,-48 2617.79,-52.54 2618.92,-46.69"/>
</g>
<!-- https://w3id.org/sdata/core/MechanicalTest -->
<g id="node22" class="node">
<title>https://w3id.org/sdata/core/MechanicalTest</title>
<path fill="#e8f1ff" stroke="#2b6cb0" stroke-width="1.6" d="M2753.5,-52C2753.5,-52 2662.5,-52 2662.5,-52 2656.5,-52 2650.5,-46 2650.5,-40 2650.5,-40 2650.5,-28 2650.5,-28 2650.5,-22 2656.5,-16 2662.5,-16 2662.5,-16 2753.5,-16 2753.5,-16 2759.5,-16 2765.5,-22 2765.5,-28 2765.5,-28 2765.5,-40 2765.5,-40 2765.5,-46 2759.5,-52 2753.5,-52"/>
<text text-anchor="middle" x="2708" y="-30.9" font-family="Helvetica,sans-Serif" font-size="12.00" fill="#1a365d">Mechanical Test</text>
</g>
<!-- https://w3id.org/sdata/core/Experiment&#45;&gt;https://w3id.org/sdata/core/MechanicalTest -->
<g id="edge22" class="edge">
<title>https://w3id.org/sdata/core/Experiment&#45;&gt;https://w3id.org/sdata/core/MechanicalTest</title>
<path fill="none" stroke="#4a5568" stroke-width="1.6" d="M3077.9,-130.18C3071.23,-128.44 3064.44,-126.67 3058,-125 2959.08,-99.35 2844.35,-69.9 2773.98,-51.88"/>
<polygon fill="#4a5568" stroke="#4a5568" stroke-width="1.6" points="2774.59,-48.97 2765.62,-49.74 2773.11,-54.73 2774.59,-48.97"/>
</g>
<!-- https://w3id.org/sdata/core/MetallographicExamination -->
<g id="node24" class="node">
<title>https://w3id.org/sdata/core/MetallographicExamination</title>
<path fill="#e8f1ff" stroke="#2b6cb0" stroke-width="1.6" d="M2980.5,-52C2980.5,-52 2817.5,-52 2817.5,-52 2811.5,-52 2805.5,-46 2805.5,-40 2805.5,-40 2805.5,-28 2805.5,-28 2805.5,-22 2811.5,-16 2817.5,-16 2817.5,-16 2980.5,-16 2980.5,-16 2986.5,-16 2992.5,-22 2992.5,-28 2992.5,-28 2992.5,-40 2992.5,-40 2992.5,-46 2986.5,-52 2980.5,-52"/>
<text text-anchor="middle" x="2899" y="-30.9" font-family="Helvetica,sans-Serif" font-size="12.00" fill="#1a365d">Metallographic Examination</text>
</g>
<!-- https://w3id.org/sdata/core/Experiment&#45;&gt;https://w3id.org/sdata/core/MetallographicExamination -->
<g id="edge23" class="edge">
<title>https://w3id.org/sdata/core/Experiment&#45;&gt;https://w3id.org/sdata/core/MetallographicExamination</title>
<path fill="none" stroke="#4a5568" stroke-width="1.6" d="M3087.01,-124.81C3047.74,-106.05 2984.87,-76.02 2942.77,-55.91"/>
<polygon fill="#4a5568" stroke="#4a5568" stroke-width="1.6" points="2943.85,-53.13 2934.9,-52.15 2941.29,-58.5 2943.85,-53.13"/>
</g>
<!-- https://w3id.org/sdata/core/FormingProcess -->
<g id="node13" class="node">
<title>https://w3id.org/sdata/core/FormingProcess</title>
<path fill="#e8f1ff" stroke="#2b6cb0" stroke-width="1.6" d="M3294,-52C3294,-52 3200,-52 3200,-52 3194,-52 3188,-46 3188,-40 3188,-40 3188,-28 3188,-28 3188,-22 3194,-16 3200,-16 3200,-16 3294,-16 3294,-16 3300,-16 3306,-22 3306,-28 3306,-28 3306,-40 3306,-40 3306,-46 3300,-52 3294,-52"/>
<text text-anchor="middle" x="3247" y="-30.9" font-family="Helvetica,sans-Serif" font-size="12.00" fill="#1a365d">Forming Process</text>
</g>
<!-- https://w3id.org/sdata/core/HeatTreatment -->
<g id="node14" class="node">
<title>https://w3id.org/sdata/core/HeatTreatment</title>
<path fill="#e8f1ff" stroke="#2b6cb0" stroke-width="1.6" d="M3448,-52C3448,-52 3358,-52 3358,-52 3352,-52 3346,-46 3346,-40 3346,-40 3346,-28 3346,-28 3346,-22 3352,-16 3358,-16 3358,-16 3448,-16 3448,-16 3454,-16 3460,-22 3460,-28 3460,-28 3460,-40 3460,-40 3460,-46 3454,-52 3448,-52"/>
<text text-anchor="middle" x="3403" y="-30.9" font-family="Helvetica,sans-Serif" font-size="12.00" fill="#1a365d">Heat Treatment</text>
</g>
<!-- https://w3id.org/sdata/core/JoiningProcess -->
<g id="node16" class="node">
<title>https://w3id.org/sdata/core/JoiningProcess</title>
<path fill="#e8f1ff" stroke="#2b6cb0" stroke-width="1.6" d="M3597.5,-52C3597.5,-52 3512.5,-52 3512.5,-52 3506.5,-52 3500.5,-46 3500.5,-40 3500.5,-40 3500.5,-28 3500.5,-28 3500.5,-22 3506.5,-16 3512.5,-16 3512.5,-16 3597.5,-16 3597.5,-16 3603.5,-16 3609.5,-22 3609.5,-28 3609.5,-28 3609.5,-40 3609.5,-40 3609.5,-46 3603.5,-52 3597.5,-52"/>
<text text-anchor="middle" x="3555" y="-30.9" font-family="Helvetica,sans-Serif" font-size="12.00" fill="#1a365d">Joining Process</text>
</g>
<!-- https://w3id.org/sdata/core/ManufacturingProcess&#45;&gt;https://w3id.org/sdata/core/CoatingProcess -->
<g id="edge24" class="edge">
<title>https://w3id.org/sdata/core/ManufacturingProcess&#45;&gt;https://w3id.org/sdata/core/CoatingProcess</title>
<path fill="none" stroke="#4a5568" stroke-width="1.6" d="M3254.51,-124.81C3220.36,-106.17 3165.82,-76.39 3128.99,-56.28"/>
<polygon fill="#4a5568" stroke="#4a5568" stroke-width="1.6" points="3130.3,-53.61 3121.41,-52.15 3127.45,-58.83 3130.3,-53.61"/>
</g>
<!-- https://w3id.org/sdata/core/ManufacturingProcess&#45;&gt;https://w3id.org/sdata/core/FormingProcess -->
<g id="edge25" class="edge">
<title>https://w3id.org/sdata/core/ManufacturingProcess&#45;&gt;https://w3id.org/sdata/core/FormingProcess</title>
<path fill="none" stroke="#4a5568" stroke-width="1.6" d="M3279.73,-124.81C3273.37,-107.34 3263.43,-80.08 3256.18,-60.18"/>
<polygon fill="#4a5568" stroke="#4a5568" stroke-width="1.6" points="3258.96,-59.12 3253.25,-52.15 3253.37,-61.15 3258.96,-59.12"/>
</g>
<!-- https://w3id.org/sdata/core/ManufacturingProcess&#45;&gt;https://w3id.org/sdata/core/HeatTreatment -->
<g id="edge26" class="edge">
<title>https://w3id.org/sdata/core/ManufacturingProcess&#45;&gt;https://w3id.org/sdata/core/HeatTreatment</title>
<path fill="none" stroke="#4a5568" stroke-width="1.6" d="M3304.8,-124.81C3324.58,-106.71 3355.84,-78.12 3377.77,-58.08"/>
<polygon fill="#4a5568" stroke="#4a5568" stroke-width="1.6" points="3379.98,-60.08 3384.25,-52.15 3375.97,-55.69 3379.98,-60.08"/>
</g>
<!-- https://w3id.org/sdata/core/ManufacturingProcess&#45;&gt;https://w3id.org/sdata/core/JoiningProcess -->
<g id="edge27" class="edge">
<title>https://w3id.org/sdata/core/ManufacturingProcess&#45;&gt;https://w3id.org/sdata/core/JoiningProcess</title>
<path fill="none" stroke="#4a5568" stroke-width="1.6" d="M3328.92,-124.93C3376.55,-105.98 3453.37,-75.43 3504.02,-55.28"/>
<polygon fill="#4a5568" stroke="#4a5568" stroke-width="1.6" points="3505.43,-57.92 3512.23,-52.01 3503.23,-52.39 3505.43,-57.92"/>
</g>
<!-- https://w3id.org/sdata/core/Material -->
<g id="node19" class="node">
<title>https://w3id.org/sdata/core/Material</title>
<path fill="#e8f1ff" stroke="#2b6cb0" stroke-width="1.6" d="M321.5,-161C321.5,-161 276.5,-161 276.5,-161 270.5,-161 264.5,-155 264.5,-149 264.5,-149 264.5,-137 264.5,-137 264.5,-131 270.5,-125 276.5,-125 276.5,-125 321.5,-125 321.5,-125 327.5,-125 333.5,-131 333.5,-137 333.5,-137 333.5,-149 333.5,-149 333.5,-155 327.5,-161 321.5,-161"/>
<text text-anchor="middle" x="299" y="-139.9" font-family="Helvetica,sans-Serif" font-size="12.00" fill="#1a365d">Material</text>
</g>
<!-- https://w3id.org/sdata/core/Object -->
<g id="node26" class="node">
<title>https://w3id.org/sdata/core/Object</title>
<path fill="#e8f1ff" stroke="#2b6cb0" stroke-width="1.6" d="M548,-270C548,-270 512,-270 512,-270 506,-270 500,-264 500,-258 500,-258 500,-246 500,-246 500,-240 506,-234 512,-234 512,-234 548,-234 548,-234 554,-234 560,-240 560,-246 560,-246 560,-258 560,-258 560,-264 554,-270 548,-270"/>
<text text-anchor="middle" x="530" y="-248.9" font-family="Helvetica,sans-Serif" font-size="12.00" fill="#1a365d">Object</text>
</g>
<!-- https://w3id.org/sdata/core/Object&#45;&gt;https://w3id.org/sdata/core/Assembly -->
<g id="edge28" class="edge">
<title>https://w3id.org/sdata/core/Object&#45;&gt;https://w3id.org/sdata/core/Assembly</title>
<path fill="none" stroke="#4a5568" stroke-width="1.6" d="M499.82,-245.2C431.04,-231.81 257.49,-197.15 114,-161 110.29,-160.07 106.47,-159.06 102.63,-158.02"/>
<polygon fill="#4a5568" stroke="#4a5568" stroke-width="1.6" points="103.24,-155.1 94.25,-155.71 101.66,-160.84 103.24,-155.1"/>
</g>
<!-- https://w3id.org/sdata/core/Object&#45;&gt;https://w3id.org/sdata/core/Component -->
<g id="edge29" class="edge">
<title>https://w3id.org/sdata/core/Object&#45;&gt;https://w3id.org/sdata/core/Component</title>
<path fill="none" stroke="#4a5568" stroke-width="1.6" d="M499.77,-241.78C440.29,-223.65 307.34,-183.12 232.62,-160.35"/>
<polygon fill="#4a5568" stroke="#4a5568" stroke-width="1.6" points="233.25,-157.43 224.25,-157.79 231.52,-163.12 233.25,-157.43"/>
</g>
<!-- https://w3id.org/sdata/core/Object&#45;&gt;https://w3id.org/sdata/core/Material -->
<g id="edge30" class="edge">
<title>https://w3id.org/sdata/core/Object&#45;&gt;https://w3id.org/sdata/core/Material</title>
<path fill="none" stroke="#4a5568" stroke-width="1.6" d="M499.8,-237.01C459.42,-218.31 387.62,-185.05 341.71,-163.78"/>
<polygon fill="#4a5568" stroke="#4a5568" stroke-width="1.6" points="342.69,-160.96 333.73,-160.09 340.19,-166.36 342.69,-160.96"/>
</g>
<!-- https://w3id.org/sdata/core/Product -->
<g id="node30" class="node">
<title>https://w3id.org/sdata/core/Product</title>
<path fill="#e8f1ff" stroke="#2b6cb0" stroke-width="1.6" d="M428,-161C428,-161 386,-161 386,-161 380,-161 374,-155 374,-149 374,-149 374,-137 374,-137 374,-131 380,-125 386,-125 386,-125 428,-125 428,-125 434,-125 440,-131 440,-137 440,-137 440,-149 440,-149 440,-155 434,-161 428,-161"/>
<text text-anchor="middle" x="407" y="-139.9" font-family="Helvetica,sans-Serif" font-size="12.00" fill="#1a365d">Product</text>
</g>
<!-- https://w3id.org/sdata/core/Object&#45;&gt;https://w3id.org/sdata/core/Product -->
<g id="edge31" class="edge">
<title>https://w3id.org/sdata/core/Object&#45;&gt;https://w3id.org/sdata/core/Product</title>
<path fill="none" stroke="#4a5568" stroke-width="1.6" d="M510.24,-233.81C489.35,-215.64 456.29,-186.88 433.23,-166.82"/>
<polygon fill="#4a5568" stroke="#4a5568" stroke-width="1.6" points="435.08,-164.48 426.71,-161.15 431.17,-168.97 435.08,-164.48"/>
</g>
<!-- https://w3id.org/sdata/core/RawMaterial -->
<g id="node31" class="node">
<title>https://w3id.org/sdata/core/RawMaterial</title>
<path fill="#e8f1ff" stroke="#2b6cb0" stroke-width="1.6" d="M567.5,-161C567.5,-161 492.5,-161 492.5,-161 486.5,-161 480.5,-155 480.5,-149 480.5,-149 480.5,-137 480.5,-137 480.5,-131 486.5,-125 492.5,-125 492.5,-125 567.5,-125 567.5,-125 573.5,-125 579.5,-131 579.5,-137 579.5,-137 579.5,-149 579.5,-149 579.5,-155 573.5,-161 567.5,-161"/>
<text text-anchor="middle" x="530" y="-139.9" font-family="Helvetica,sans-Serif" font-size="12.00" fill="#1a365d">Raw Material</text>
</g>
<!-- https://w3id.org/sdata/core/Object&#45;&gt;https://w3id.org/sdata/core/RawMaterial -->
<g id="edge32" class="edge">
<title>https://w3id.org/sdata/core/Object&#45;&gt;https://w3id.org/sdata/core/RawMaterial</title>
<path fill="none" stroke="#4a5568" stroke-width="1.6" d="M530,-233.81C530,-216.49 530,-189.57 530,-169.71"/>
<polygon fill="#4a5568" stroke="#4a5568" stroke-width="1.6" points="532.98,-169.65 530,-161.15 527.03,-169.65 532.98,-169.65"/>
</g>
<!-- https://w3id.org/sdata/core/Recyclate -->
<g id="node32" class="node">
<title>https://w3id.org/sdata/core/Recyclate</title>
<path fill="#e8f1ff" stroke="#2b6cb0" stroke-width="1.6" d="M686,-161C686,-161 632,-161 632,-161 626,-161 620,-155 620,-149 620,-149 620,-137 620,-137 620,-131 626,-125 632,-125 632,-125 686,-125 686,-125 692,-125 698,-131 698,-137 698,-137 698,-149 698,-149 698,-155 692,-161 686,-161"/>
<text text-anchor="middle" x="659" y="-139.9" font-family="Helvetica,sans-Serif" font-size="12.00" fill="#1a365d">Recyclate</text>
</g>
<!-- https://w3id.org/sdata/core/Object&#45;&gt;https://w3id.org/sdata/core/Recyclate -->
<g id="edge33" class="edge">
<title>https://w3id.org/sdata/core/Object&#45;&gt;https://w3id.org/sdata/core/Recyclate</title>
<path fill="none" stroke="#4a5568" stroke-width="1.6" d="M550.73,-233.81C572.64,-215.64 607.31,-186.88 631.49,-166.82"/>
<polygon fill="#4a5568" stroke="#4a5568" stroke-width="1.6" points="633.68,-168.87 638.33,-161.15 629.88,-164.29 633.68,-168.87"/>
</g>
<!-- https://w3id.org/sdata/core/SemiFinishedProduct -->
<g id="node34" class="node">
<title>https://w3id.org/sdata/core/SemiFinishedProduct</title>
<path fill="#e8f1ff" stroke="#2b6cb0" stroke-width="1.6" d="M878,-161C878,-161 750,-161 750,-161 744,-161 738,-155 738,-149 738,-149 738,-137 738,-137 738,-131 744,-125 750,-125 750,-125 878,-125 878,-125 884,-125 890,-131 890,-137 890,-137 890,-149 890,-149 890,-155 884,-161 878,-161"/>
<text text-anchor="middle" x="814" y="-139.9" font-family="Helvetica,sans-Serif" font-size="12.00" fill="#1a365d">Semi&#45;Finished Product</text>
</g>
<!-- https://w3id.org/sdata/core/Object&#45;&gt;https://w3id.org/sdata/core/SemiFinishedProduct -->
<g id="edge34" class="edge">
<title>https://w3id.org/sdata/core/Object&#45;&gt;https://w3id.org/sdata/core/SemiFinishedProduct</title>
<path fill="none" stroke="#4a5568" stroke-width="1.6" d="M560.12,-239.65C607.84,-221.67 701.47,-186.4 760.72,-164.07"/>
<polygon fill="#4a5568" stroke="#4a5568" stroke-width="1.6" points="761.94,-166.79 768.84,-161.01 759.84,-161.23 761.94,-166.79"/>
</g>
<!-- https://w3id.org/sdata/core/Specimen -->
<g id="node38" class="node">
<title>https://w3id.org/sdata/core/Specimen</title>
<path fill="#e8f1ff" stroke="#2b6cb0" stroke-width="1.6" d="M998,-161C998,-161 942,-161 942,-161 936,-161 930,-155 930,-149 930,-149 930,-137 930,-137 930,-131 936,-125 942,-125 942,-125 998,-125 998,-125 1004,-125 1010,-131 1010,-137 1010,-137 1010,-149 1010,-149 1010,-155 1004,-161 998,-161"/>
<text text-anchor="middle" x="970" y="-139.9" font-family="Helvetica,sans-Serif" font-size="12.00" fill="#1a365d">Specimen</text>
</g>
<!-- https://w3id.org/sdata/core/Object&#45;&gt;https://w3id.org/sdata/core/Specimen -->
<g id="edge35" class="edge">
<title>https://w3id.org/sdata/core/Object&#45;&gt;https://w3id.org/sdata/core/Specimen</title>
<path fill="none" stroke="#4a5568" stroke-width="1.6" d="M560.16,-244.33C624.6,-229.96 780.41,-194.69 910,-161 913.7,-160.04 917.51,-159.02 921.34,-157.98"/>
<polygon fill="#4a5568" stroke="#4a5568" stroke-width="1.6" points="922.32,-160.8 929.72,-155.67 920.74,-155.06 922.32,-160.8"/>
</g>
<!-- https://w3id.org/sdata/core/Tool -->
<g id="node40" class="node">
<title>https://w3id.org/sdata/core/Tool</title>
<path fill="#e8f1ff" stroke="#2b6cb0" stroke-width="1.6" d="M1092,-161C1092,-161 1062,-161 1062,-161 1056,-161 1050,-155 1050,-149 1050,-149 1050,-137 1050,-137 1050,-131 1056,-125 1062,-125 1062,-125 1092,-125 1092,-125 1098,-125 1104,-131 1104,-137 1104,-137 1104,-149 1104,-149 1104,-155 1098,-161 1092,-161"/>
<text text-anchor="middle" x="1077" y="-139.9" font-family="Helvetica,sans-Serif" font-size="12.00" fill="#1a365d">Tool</text>
</g>
<!-- https://w3id.org/sdata/core/Object&#45;&gt;https://w3id.org/sdata/core/Tool -->
<g id="edge36" class="edge">
<title>https://w3id.org/sdata/core/Object&#45;&gt;https://w3id.org/sdata/core/Tool</title>
<path fill="none" stroke="#4a5568" stroke-width="1.6" d="M560.26,-247.37C638.75,-237.56 854.96,-208.05 1030,-161 1033.78,-159.98 1037.68,-158.8 1041.56,-157.54"/>
<polygon fill="#4a5568" stroke="#4a5568" stroke-width="1.6" points="1042.83,-160.24 1049.91,-154.68 1040.91,-154.61 1042.83,-160.24"/>
</g>
<!-- https://w3id.org/sdata/core/Simulation&#45;&gt;https://w3id.org/sdata/core/CrashSimulation -->
<g id="edge37" class="edge">
<title>https://w3id.org/sdata/core/Simulation&#45;&gt;https://w3id.org/sdata/core/CrashSimulation</title>
<path fill="none" stroke="#4a5568" stroke-width="1.6" d="M3627.91,-124.81C3644.5,-106.87 3670.64,-78.62 3689.17,-58.6"/>
<polygon fill="#4a5568" stroke="#4a5568" stroke-width="1.6" points="3691.54,-60.41 3695.13,-52.15 3687.18,-56.37 3691.54,-60.41"/>
</g>
<!-- https://w3id.org/sdata/core/ValueDomain -->
<g id="node42" class="node">
<title>https://w3id.org/sdata/core/ValueDomain</title>
<path fill="#e8f1ff" stroke="#2b6cb0" stroke-width="1.6" d="M278,-270C278,-270 198,-270 198,-270 192,-270 186,-264 186,-258 186,-258 186,-246 186,-246 186,-240 192,-234 198,-234 198,-234 278,-234 278,-234 284,-234 290,-240 290,-246 290,-246 290,-258 290,-258 290,-264 284,-270 278,-270"/>
<text text-anchor="middle" x="238" y="-248.9" font-family="Helvetica,sans-Serif" font-size="12.00" fill="#1a365d">Value Domain</text>
</g>
<!-- legend_sdata -->
<g id="node43" class="node">
<title>legend_sdata</title>
<path fill="#e8f1ff" stroke="#2b6cb0" stroke-width="1.6" d="M3871.5,-270C3871.5,-270 3808.5,-270 3808.5,-270 3802.5,-270 3796.5,-264 3796.5,-258 3796.5,-258 3796.5,-246 3796.5,-246 3796.5,-240 3802.5,-234 3808.5,-234 3808.5,-234 3871.5,-234 3871.5,-234 3877.5,-234 3883.5,-240 3883.5,-246 3883.5,-246 3883.5,-258 3883.5,-258 3883.5,-264 3877.5,-270 3871.5,-270"/>
<text text-anchor="middle" x="3840" y="-248.9" font-family="Helvetica,sans-Serif" font-size="12.00" fill="#1a365d">sdata class</text>
</g>
<!-- legend_sdata&#45;&gt;legend_sdata -->
<g id="edge1" class="edge">
<title>legend_sdata&#45;&gt;legend_sdata</title>
<path fill="none" stroke="#4a5568" stroke-width="1.6" d="M3883.82,-261.88C3904.89,-263.1 3923.5,-259.8 3923.5,-252 3923.5,-245.29 3909.76,-241.92 3892.52,-241.88"/>
<polygon fill="#4a5568" stroke="#4a5568" stroke-width="1.6" points="3892.23,-238.91 3883.82,-242.12 3892.4,-244.85 3892.23,-238.91"/>
<text text-anchor="middle" x="4003.5" y="-248.3" font-family="Helvetica,sans-Serif" font-size="14.00">superclass &#45;&gt; subclass</text>
</g>
</g>
</svg>
