<?xml version="1.0" encoding="UTF-8" standalone="no"?>
<!DOCTYPE svg PUBLIC "-//W3C//DTD SVG 1.1//EN"
 "http://www.w3.org/Graphics/SVG/1.1/DTD/svg11.dtd">
<!-- Generated by graphviz version 2.43.0 (0)
 -->
<!-- Pages: 1 -->
<svg width="890pt" height="1018pt"
 viewBox="0.00 0.00 890.40 1017.90" xmlns="http://www.w3.org/2000/svg" xmlns:xlink="http://www.w3.org/1999/xlink">
<g id="graph0" class="graph" transform="scale(1 1) rotate(0) translate(25.2 992.7)">
<polygon fill="#fafbfc" stroke="transparent" points="-25.2,25.2 -25.2,-992.7 865.2,-992.7 865.2,25.2 -25.2,25.2"/>
<text text-anchor="middle" x="420" y="-947.5" font-family="Helvetica,sans-Serif" font-size="20.00">sdata Process Hierarchy (MaterialProcess/InformationProcess branches only)</text>
<g id="clust1" class="cluster">
<title>cluster_information_branch</title>
<path fill="#fafbfc" stroke="#a9d18e" d="M20,-8C20,-8 406,-8 406,-8 412,-8 418,-14 418,-20 418,-20 418,-846 418,-846 418,-852 412,-858 406,-858 406,-858 20,-858 20,-858 14,-858 8,-852 8,-846 8,-846 8,-20 8,-20 8,-14 14,-8 20,-8"/>
<text text-anchor="middle" x="213" y="-838" font-family="Helvetica,sans-Serif" font-size="20.00">Information process branch</text>
</g>
<g id="clust2" class="cluster">
<title>cluster_material_branch</title>
<path fill="#fafbfc" stroke="#9dc3e6" d="M454,-8C454,-8 820,-8 820,-8 826,-8 832,-14 832,-20 832,-20 832,-846 832,-846 832,-852 826,-858 820,-858 820,-858 454,-858 454,-858 448,-858 442,-852 442,-846 442,-846 442,-20 442,-20 442,-14 448,-8 454,-8"/>
<text text-anchor="middle" x="637" y="-838" font-family="Helvetica,sans-Serif" font-size="20.00">Material process branch</text>
</g>
<!-- https://w3id.org/sdata/core/InformationCreation -->
<g id="node1" class="node">
<title>https://w3id.org/sdata/core/InformationCreation</title>
<path fill="#eef8e7" stroke="#4f8a10" stroke-width="1.6" d="M378,-790C378,-790 258,-790 258,-790 252,-790 246,-784 246,-778 246,-778 246,-766 246,-766 246,-760 252,-754 258,-754 258,-754 378,-754 378,-754 384,-754 390,-760 390,-766 390,-766 390,-778 390,-778 390,-784 384,-790 378,-790"/>
<text text-anchor="middle" x="318" y="-768.9" font-family="Helvetica,sans-Serif" font-size="12.00" fill="#2f5d08">Information Creation</text>
</g>
<!-- https://w3id.org/sdata/core/InformationTransformation -->
<g id="node8" class="node">
<title>https://w3id.org/sdata/core/InformationTransformation</title>
<path fill="#eef8e7" stroke="#4f8a10" stroke-width="1.6" d="M398,-667C398,-667 238,-667 238,-667 232,-667 226,-661 226,-655 226,-655 226,-643 226,-643 226,-637 232,-631 238,-631 238,-631 398,-631 398,-631 404,-631 410,-637 410,-643 410,-643 410,-655 410,-655 410,-661 404,-667 398,-667"/>
<text text-anchor="middle" x="318" y="-645.9" font-family="Helvetica,sans-Serif" font-size="12.00" fill="#2f5d08">Information Transformation</text>
</g>
<!-- https://w3id.org/sdata/core/InformationCreation&#45;&gt;https://w3id.org/sdata/core/InformationTransformation -->
<g id="edge1" class="edge">
<title>https://w3id.org/sdata/core/InformationCreation&#45;&gt;https://w3id.org/sdata/core/InformationTransformation</title>
<path fill="none" stroke="#4f8a10" stroke-width="2" d="M318,-753.92C318,-733.68 318,-699.73 318,-676.16"/>
<polygon fill="#4f8a10" stroke="#4f8a10" stroke-width="2" points="320.98,-675.88 318,-667.38 315.03,-675.88 320.98,-675.88"/>
<text text-anchor="middle" x="333.5" y="-706.8" font-family="Helvetica,sans-Serif" font-size="14.00" fill="#4f8a10">next</text>
</g>
<!-- https://w3id.org/sdata/core/InformationDestruction -->
<g id="node2" class="node">
<title>https://w3id.org/sdata/core/InformationDestruction</title>
<path fill="#eef8e7" stroke="#4f8a10" stroke-width="1.6" d="M312.5,-52C312.5,-52 173.5,-52 173.5,-52 167.5,-52 161.5,-46 161.5,-40 161.5,-40 161.5,-28 161.5,-28 161.5,-22 167.5,-16 173.5,-16 173.5,-16 312.5,-16 312.5,-16 318.5,-16 324.5,-22 324.5,-28 324.5,-28 324.5,-40 324.5,-40 324.5,-46 318.5,-52 312.5,-52"/>
<text text-anchor="middle" x="243" y="-30.9" font-family="Helvetica,sans-Serif" font-size="12.00" fill="#2f5d08">Information Destruction</text>
</g>
<!-- https://w3id.org/sdata/core/InformationObservation -->
<g id="node3" class="node">
<title>https://w3id.org/sdata/core/InformationObservation</title>
<path fill="#eef8e7" stroke="#4f8a10" stroke-width="1.6" d="M314.5,-421C314.5,-421 171.5,-421 171.5,-421 165.5,-421 159.5,-415 159.5,-409 159.5,-409 159.5,-397 159.5,-397 159.5,-391 165.5,-385 171.5,-385 171.5,-385 314.5,-385 314.5,-385 320.5,-385 326.5,-391 326.5,-397 326.5,-397 326.5,-409 326.5,-409 326.5,-415 320.5,-421 314.5,-421"/>
<text text-anchor="middle" x="243" y="-399.9" font-family="Helvetica,sans-Serif" font-size="12.00" fill="#2f5d08">Information Observation</text>
</g>
<!-- https://w3id.org/sdata/core/InformationPreservation -->
<g id="node4" class="node">
<title>https://w3id.org/sdata/core/InformationPreservation</title>
<path fill="#eef8e7" stroke="#4f8a10" stroke-width="1.6" d="M315,-298C315,-298 171,-298 171,-298 165,-298 159,-292 159,-286 159,-286 159,-274 159,-274 159,-268 165,-262 171,-262 171,-262 315,-262 315,-262 321,-262 327,-268 327,-274 327,-274 327,-286 327,-286 327,-292 321,-298 315,-298"/>
<text text-anchor="middle" x="243" y="-276.9" font-family="Helvetica,sans-Serif" font-size="12.00" fill="#2f5d08">Information Preservation</text>
</g>
<!-- https://w3id.org/sdata/core/InformationObservation&#45;&gt;https://w3id.org/sdata/core/InformationPreservation -->
<g id="edge2" class="edge">
<title>https://w3id.org/sdata/core/InformationObservation&#45;&gt;https://w3id.org/sdata/core/InformationPreservation</title>
<path fill="none" stroke="#4f8a10" stroke-width="2" d="M243,-384.92C243,-364.68 243,-330.73 243,-307.16"/>
<polygon fill="#4f8a10" stroke="#4f8a10" stroke-width="2" points="245.98,-306.88 243,-298.38 240.03,-306.88 245.98,-306.88"/>
<text text-anchor="middle" x="258.5" y="-337.8" font-family="Helvetica,sans-Serif" font-size="14.00" fill="#4f8a10">next</text>
</g>
<!-- https://w3id.org/sdata/core/InformationRecovery -->
<g id="node6" class="node">
<title>https://w3id.org/sdata/core/InformationRecovery</title>
<path fill="#eef8e7" stroke="#4f8a10" stroke-width="1.6" d="M306,-175C306,-175 180,-175 180,-175 174,-175 168,-169 168,-163 168,-163 168,-151 168,-151 168,-145 174,-139 180,-139 180,-139 306,-139 306,-139 312,-139 318,-145 318,-151 318,-151 318,-163 318,-163 318,-169 312,-175 306,-175"/>
<text text-anchor="middle" x="243" y="-153.9" font-family="Helvetica,sans-Serif" font-size="12.00" fill="#2f5d08">Information Recovery</text>
</g>
<!-- https://w3id.org/sdata/core/InformationPreservation&#45;&gt;https://w3id.org/sdata/core/InformationRecovery -->
<g id="edge3" class="edge">
<title>https://w3id.org/sdata/core/InformationPreservation&#45;&gt;https://w3id.org/sdata/core/InformationRecovery</title>
<path fill="none" stroke="#4f8a10" stroke-width="2" d="M243,-261.92C243,-241.68 243,-207.73 243,-184.16"/>
<polygon fill="#4f8a10" stroke="#4f8a10" stroke-width="2" points="245.98,-183.88 243,-175.38 240.03,-183.88 245.98,-183.88"/>
<text text-anchor="middle" x="258.5" y="-214.8" font-family="Helvetica,sans-Serif" font-size="14.00" fill="#4f8a10">next</text>
</g>
<!-- https://w3id.org/sdata/core/InformationProcess -->
<g id="node5" class="node">
<title>https://w3id.org/sdata/core/InformationProcess</title>
<path fill="#e8f1ff" stroke="#2b6cb0" stroke-width="1.6" d="M149.5,-790C149.5,-790 34.5,-790 34.5,-790 28.5,-790 22.5,-784 22.5,-778 22.5,-778 22.5,-766 22.5,-766 22.5,-760 28.5,-754 34.5,-754 34.5,-754 149.5,-754 149.5,-754 155.5,-754 161.5,-760 161.5,-766 161.5,-766 161.5,-778 161.5,-778 161.5,-784 155.5,-790 149.5,-790"/>
<text text-anchor="middle" x="92" y="-768.9" font-family="Helvetica,sans-Serif" font-size="12.00" fill="#1a365d">Information Process</text>
</g>
<!-- https://w3id.org/sdata/core/InformationProcess&#45;&gt;https://w3id.org/sdata/core/InformationCreation -->
<g id="edge4" class="edge">
<title>https://w3id.org/sdata/core/InformationProcess&#45;&gt;https://w3id.org/sdata/core/InformationCreation</title>
<path fill="none" stroke="#4a5568" stroke-width="1.6" d="M161.74,-772C186.97,-772 212.19,-772 237.42,-772"/>
<polygon fill="#4a5568" stroke="#4a5568" stroke-width="1.6" points="237.47,-774.98 245.97,-772 237.47,-769.03 237.47,-774.98"/>
</g>
<!-- https://w3id.org/sdata/core/InformationProcess&#45;&gt;https://w3id.org/sdata/core/InformationDestruction -->
<g id="edge5" class="edge">
<title>https://w3id.org/sdata/core/InformationProcess&#45;&gt;https://w3id.org/sdata/core/InformationDestruction</title>
<path fill="none" stroke="#4a5568" stroke-width="1.6" d="M74.27,-753.6C65.76,-744 56.47,-731.34 52,-718 49.88,-711.68 51.59,-709.65 52,-703 67.56,-449.2 32.64,-365.6 148,-139 164.39,-106.81 193.5,-77.14 215.19,-57.8"/>
<polygon fill="#4a5568" stroke="#4a5568" stroke-width="1.6" points="217.22,-59.98 221.66,-52.14 213.3,-55.5 217.22,-59.98"/>
</g>
<!-- https://w3id.org/sdata/core/InformationProcess&#45;&gt;https://w3id.org/sdata/core/InformationObservation -->
<g id="edge6" class="edge">
<title>https://w3id.org/sdata/core/InformationProcess&#45;&gt;https://w3id.org/sdata/core/InformationObservation</title>
<path fill="none" stroke="#4a5568" stroke-width="1.6" d="M79.69,-753.78C73.35,-743.84 66.27,-730.8 63,-718 61.35,-711.54 62.07,-709.6 63,-703 69.96,-653.55 85.61,-644.23 94,-595 104.32,-534.44 65.58,-506.48 102,-457 114.2,-440.43 132.21,-429.04 151.31,-421.21"/>
<polygon fill="#4a5568" stroke="#4a5568" stroke-width="1.6" points="152.38,-423.99 159.26,-418.18 150.26,-418.43 152.38,-423.99"/>
</g>
<!-- https://w3id.org/sdata/core/InformationProcess&#45;&gt;https://w3id.org/sdata/core/InformationPreservation -->
<g id="edge7" class="edge">
<title>https://w3id.org/sdata/core/InformationProcess&#45;&gt;https://w3id.org/sdata/core/InformationPreservation</title>
<path fill="none" stroke="#4a5568" stroke-width="1.6" d="M92.51,-753.91C94.62,-694.68 104.74,-499.46 147,-457 210.71,-392.99 289.07,-490.29 347,-421 380.62,-380.79 321.22,-330.95 279.23,-302.88"/>
<polygon fill="#4a5568" stroke="#4a5568" stroke-width="1.6" points="280.62,-300.24 271.87,-298.07 277.36,-305.21 280.62,-300.24"/>
</g>
<!-- https://w3id.org/sdata/core/InformationProcess&#45;&gt;https://w3id.org/sdata/core/InformationRecovery -->
<g id="edge8" class="edge">
<title>https://w3id.org/sdata/core/InformationProcess&#45;&gt;https://w3id.org/sdata/core/InformationRecovery</title>
<path fill="none" stroke="#4a5568" stroke-width="1.6" d="M99.07,-753.7C117.01,-710.61 166.88,-595.63 223,-508 238.69,-483.51 240.38,-473.97 264,-457 301.69,-429.93 335.44,-459.05 362,-421 380.33,-394.74 388.16,-346.49 347,-262 330.61,-228.36 298.91,-199.16 274.79,-180.33"/>
<polygon fill="#4a5568" stroke="#4a5568" stroke-width="1.6" points="276.46,-177.86 267.9,-175.07 272.85,-182.59 276.46,-177.86"/>
</g>
<!-- https://w3id.org/sdata/core/InformationTransfer -->
<g id="node7" class="node">
<title>https://w3id.org/sdata/core/InformationTransfer</title>
<path fill="#eef8e7" stroke="#4f8a10" stroke-width="1.6" d="M373.5,-544C373.5,-544 254.5,-544 254.5,-544 248.5,-544 242.5,-538 242.5,-532 242.5,-532 242.5,-520 242.5,-520 242.5,-514 248.5,-508 254.5,-508 254.5,-508 373.5,-508 373.5,-508 379.5,-508 385.5,-514 385.5,-520 385.5,-520 385.5,-532 385.5,-532 385.5,-538 379.5,-544 373.5,-544"/>
<text text-anchor="middle" x="314" y="-522.9" font-family="Helvetica,sans-Serif" font-size="12.00" fill="#2f5d08">Information Transfer</text>
</g>
<!-- https://w3id.org/sdata/core/InformationProcess&#45;&gt;https://w3id.org/sdata/core/InformationTransfer -->
<g id="edge9" class="edge">
<title>https://w3id.org/sdata/core/InformationProcess&#45;&gt;https://w3id.org/sdata/core/InformationTransfer</title>
<path fill="none" stroke="#4a5568" stroke-width="1.6" d="M125.21,-753.86C140.16,-744.83 157.09,-732.58 169,-718 195.58,-685.46 179.31,-663.46 206,-631 224.08,-609 238.04,-614.28 259,-595 273.24,-581.9 286.93,-565 297.09,-551.32"/>
<polygon fill="#4a5568" stroke="#4a5568" stroke-width="1.6" points="299.75,-552.72 302.35,-544.1 294.94,-549.22 299.75,-552.72"/>
</g>
<!-- https://w3id.org/sdata/core/InformationProcess&#45;&gt;https://w3id.org/sdata/core/InformationTransformation -->
<g id="edge10" class="edge">
<title>https://w3id.org/sdata/core/InformationProcess&#45;&gt;https://w3id.org/sdata/core/InformationTransformation</title>
<path fill="none" stroke="#4a5568" stroke-width="1.6" d="M149.76,-753.89C176.02,-744.97 206.97,-732.8 233,-718 254.99,-705.49 277.23,-687.47 293.44,-673.12"/>
<polygon fill="#4a5568" stroke="#4a5568" stroke-width="1.6" points="295.67,-675.12 300,-667.22 291.69,-670.69 295.67,-675.12"/>
</g>
<!-- https://w3id.org/sdata/core/InformationRecovery&#45;&gt;https://w3id.org/sdata/core/InformationDestruction -->
<g id="edge11" class="edge">
<title>https://w3id.org/sdata/core/InformationRecovery&#45;&gt;https://w3id.org/sdata/core/InformationDestruction</title>
<path fill="none" stroke="#4f8a10" stroke-width="2" d="M243,-138.92C243,-118.68 243,-84.73 243,-61.16"/>
<polygon fill="#4f8a10" stroke="#4f8a10" stroke-width="2" points="245.98,-60.88 243,-52.38 240.03,-60.88 245.98,-60.88"/>
<text text-anchor="middle" x="258.5" y="-91.8" font-family="Helvetica,sans-Serif" font-size="14.00" fill="#4f8a10">next</text>
</g>
<!-- https://w3id.org/sdata/core/InformationTransfer&#45;&gt;https://w3id.org/sdata/core/InformationObservation -->
<g id="edge12" class="edge">
<title>https://w3id.org/sdata/core/InformationTransfer&#45;&gt;https://w3id.org/sdata/core/InformationObservation</title>
<path fill="none" stroke="#4f8a10" stroke-width="2" d="M303.98,-507.92C291.89,-487.32 271.47,-452.52 257.62,-428.92"/>
<polygon fill="#4f8a10" stroke="#4f8a10" stroke-width="2" points="260.07,-427.21 253.2,-421.38 254.94,-430.22 260.07,-427.21"/>
<text text-anchor="middle" x="297.5" y="-460.8" font-family="Helvetica,sans-Serif" font-size="14.00" fill="#4f8a10">next</text>
</g>
<!-- https://w3id.org/sdata/core/InformationTransformation&#45;&gt;https://w3id.org/sdata/core/InformationTransfer -->
<g id="edge13" class="edge">
<title>https://w3id.org/sdata/core/InformationTransformation&#45;&gt;https://w3id.org/sdata/core/InformationTransfer</title>
<path fill="none" stroke="#4f8a10" stroke-width="2" d="M317.44,-630.92C316.77,-610.68 315.64,-576.73 314.86,-553.16"/>
<polygon fill="#4f8a10" stroke="#4f8a10" stroke-width="2" points="317.83,-552.78 314.57,-544.38 311.88,-552.98 317.83,-552.78"/>
<text text-anchor="middle" x="331.5" y="-583.8" font-family="Helvetica,sans-Serif" font-size="14.00" fill="#4f8a10">next</text>
</g>
<!-- https://w3id.org/sdata/core/MaterialCreation -->
<g id="node9" class="node">
<title>https://w3id.org/sdata/core/MaterialCreation</title>
<path fill="#eef8e7" stroke="#4f8a10" stroke-width="1.6" d="M791.5,-790C791.5,-790 692.5,-790 692.5,-790 686.5,-790 680.5,-784 680.5,-778 680.5,-778 680.5,-766 680.5,-766 680.5,-760 686.5,-754 692.5,-754 692.5,-754 791.5,-754 791.5,-754 797.5,-754 803.5,-760 803.5,-766 803.5,-766 803.5,-778 803.5,-778 803.5,-784 797.5,-790 791.5,-790"/>
<text text-anchor="middle" x="742" y="-768.9" font-family="Helvetica,sans-Serif" font-size="12.00" fill="#2f5d08">Material Creation</text>
</g>
<!-- https://w3id.org/sdata/core/MaterialCreation&#45;&gt;https://w3id.org/sdata/core/InformationCreation -->
<g id="edge14" class="edge">
<title>https://w3id.org/sdata/core/MaterialCreation&#45;&gt;https://w3id.org/sdata/core/InformationCreation</title>
<path fill="none" stroke="#6b7280" stroke-width="1.6" stroke-dasharray="5,2" d="M719.98,-790.15C694.25,-810.07 649.51,-840.83 605,-853 530.84,-873.28 505.25,-876.37 432,-853 393.37,-840.67 356.63,-809.96 335.75,-790.09"/>
<text text-anchor="middle" x="535" y="-869.8" font-family="Helvetica,sans-Serif" font-size="14.00" fill="#6b7280">dual</text>
</g>
<!-- https://w3id.org/sdata/core/MaterialTransformation -->
<g id="node16" class="node">
<title>https://w3id.org/sdata/core/MaterialTransformation</title>
<path fill="#eef8e7" stroke="#4f8a10" stroke-width="1.6" d="M811.5,-667C811.5,-667 672.5,-667 672.5,-667 666.5,-667 660.5,-661 660.5,-655 660.5,-655 660.5,-643 660.5,-643 660.5,-637 666.5,-631 672.5,-631 672.5,-631 811.5,-631 811.5,-631 817.5,-631 823.5,-637 823.5,-643 823.5,-643 823.5,-655 823.5,-655 823.5,-661 817.5,-667 811.5,-667"/>
<text text-anchor="middle" x="742" y="-645.9" font-family="Helvetica,sans-Serif" font-size="12.00" fill="#2f5d08">Material Transformation</text>
</g>
<!-- https://w3id.org/sdata/core/MaterialCreation&#45;&gt;https://w3id.org/sdata/core/MaterialTransformation -->
<g id="edge15" class="edge">
<title>https://w3id.org/sdata/core/MaterialCreation&#45;&gt;https://w3id.org/sdata/core/MaterialTransformation</title>
<path fill="none" stroke="#2b6cb0" stroke-width="2" d="M742,-753.92C742,-733.68 742,-699.73 742,-676.16"/>
<polygon fill="#2b6cb0" stroke="#2b6cb0" stroke-width="2" points="744.98,-675.88 742,-667.38 739.03,-675.88 744.98,-675.88"/>
<text text-anchor="middle" x="757.5" y="-706.8" font-family="Helvetica,sans-Serif" font-size="14.00" fill="#2b6cb0">next</text>
</g>
<!-- https://w3id.org/sdata/core/MaterialDestruction -->
<g id="node10" class="node">
<title>https://w3id.org/sdata/core/MaterialDestruction</title>
<path fill="#eef8e7" stroke="#4f8a10" stroke-width="1.6" d="M726,-52C726,-52 608,-52 608,-52 602,-52 596,-46 596,-40 596,-40 596,-28 596,-28 596,-22 602,-16 608,-16 608,-16 726,-16 726,-16 732,-16 738,-22 738,-28 738,-28 738,-40 738,-40 738,-46 732,-52 726,-52"/>
<text text-anchor="middle" x="667" y="-30.9" font-family="Helvetica,sans-Serif" font-size="12.00" fill="#2f5d08">Material Destruction</text>
</g>
<!-- https://w3id.org/sdata/core/MaterialDestruction&#45;&gt;https://w3id.org/sdata/core/InformationDestruction -->
<g id="edge16" class="edge">
<title>https://w3id.org/sdata/core/MaterialDestruction&#45;&gt;https://w3id.org/sdata/core/InformationDestruction</title>
<path fill="none" stroke="#6b7280" stroke-width="1.6" stroke-dasharray="5,2" d="M595.98,-34C521.05,-34 403.16,-34 324.5,-34"/>
<text text-anchor="middle" x="460.25" y="-40.8" font-family="Helvetica,sans-Serif" font-size="14.00" fill="#6b7280">dual</text>
</g>
<!-- https://w3id.org/sdata/core/MaterialObservation -->
<g id="node11" class="node">
<title>https://w3id.org/sdata/core/MaterialObservation</title>
<path fill="#eef8e7" stroke="#4f8a10" stroke-width="1.6" d="M728,-421C728,-421 606,-421 606,-421 600,-421 594,-415 594,-409 594,-409 594,-397 594,-397 594,-391 600,-385 606,-385 606,-385 728,-385 728,-385 734,-385 740,-391 740,-397 740,-397 740,-409 740,-409 740,-415 734,-421 728,-421"/>
<text text-anchor="middle" x="667" y="-399.9" font-family="Helvetica,sans-Serif" font-size="12.00" fill="#2f5d08">Material Observation</text>
</g>
<!-- https://w3id.org/sdata/core/MaterialObservation&#45;&gt;https://w3id.org/sdata/core/InformationObservation -->
<g id="edge17" class="edge">
<title>https://w3id.org/sdata/core/MaterialObservation&#45;&gt;https://w3id.org/sdata/core/InformationObservation</title>
<path fill="none" stroke="#6b7280" stroke-width="1.6" stroke-dasharray="5,2" d="M593.92,-403C519.55,-403 404.44,-403 326.52,-403"/>
<text text-anchor="middle" x="460.25" y="-409.8" font-family="Helvetica,sans-Serif" font-size="14.00" fill="#6b7280">dual</text>
</g>
<!-- https://w3id.org/sdata/core/MaterialPreservation -->
<g id="node12" class="node">
<title>https://w3id.org/sdata/core/MaterialPreservation</title>
<path fill="#eef8e7" stroke="#4f8a10" stroke-width="1.6" d="M728.5,-298C728.5,-298 605.5,-298 605.5,-298 599.5,-298 593.5,-292 593.5,-286 593.5,-286 593.5,-274 593.5,-274 593.5,-268 599.5,-262 605.5,-262 605.5,-262 728.5,-262 728.5,-262 734.5,-262 740.5,-268 740.5,-274 740.5,-274 740.5,-286 740.5,-286 740.5,-292 734.5,-298 728.5,-298"/>
<text text-anchor="middle" x="667" y="-276.9" font-family="Helvetica,sans-Serif" font-size="12.00" fill="#2f5d08">Material Preservation</text>
</g>
<!-- https://w3id.org/sdata/core/MaterialObservation&#45;&gt;https://w3id.org/sdata/core/MaterialPreservation -->
<g id="edge18" class="edge">
<title>https://w3id.org/sdata/core/MaterialObservation&#45;&gt;https://w3id.org/sdata/core/MaterialPreservation</title>
<path fill="none" stroke="#2b6cb0" stroke-width="2" d="M667,-384.92C667,-364.68 667,-330.73 667,-307.16"/>
<polygon fill="#2b6cb0" stroke="#2b6cb0" stroke-width="2" points="669.98,-306.88 667,-298.38 664.03,-306.88 669.98,-306.88"/>
<text text-anchor="middle" x="682.5" y="-337.8" font-family="Helvetica,sans-Serif" font-size="14.00" fill="#2b6cb0">next</text>
</g>
<!-- https://w3id.org/sdata/core/MaterialPreservation&#45;&gt;https://w3id.org/sdata/core/InformationPreservation -->
<g id="edge19" class="edge">
<title>https://w3id.org/sdata/core/MaterialPreservation&#45;&gt;https://w3id.org/sdata/core/InformationPreservation</title>
<path fill="none" stroke="#6b7280" stroke-width="1.6" stroke-dasharray="5,2" d="M593.41,-280C519.19,-280 404.76,-280 327.02,-280"/>
<text text-anchor="middle" x="460.25" y="-286.8" font-family="Helvetica,sans-Serif" font-size="14.00" fill="#6b7280">dual</text>
</g>
<!-- https://w3id.org/sdata/core/MaterialRecovery -->
<g id="node14" class="node">
<title>https://w3id.org/sdata/core/MaterialRecovery</title>
<path fill="#eef8e7" stroke="#4f8a10" stroke-width="1.6" d="M719.5,-175C719.5,-175 614.5,-175 614.5,-175 608.5,-175 602.5,-169 602.5,-163 602.5,-163 602.5,-151 602.5,-151 602.5,-145 608.5,-139 614.5,-139 614.5,-139 719.5,-139 719.5,-139 725.5,-139 731.5,-145 731.5,-151 731.5,-151 731.5,-163 731.5,-163 731.5,-169 725.5,-175 719.5,-175"/>
<text text-anchor="middle" x="667" y="-153.9" font-family="Helvetica,sans-Serif" font-size="12.00" fill="#2f5d08">Material Recovery</text>
</g>
<!-- https://w3id.org/sdata/core/MaterialPreservation&#45;&gt;https://w3id.org/sdata/core/MaterialRecovery -->
<g id="edge20" class="edge">
<title>https://w3id.org/sdata/core/MaterialPreservation&#45;&gt;https://w3id.org/sdata/core/MaterialRecovery</title>
<path fill="none" stroke="#2b6cb0" stroke-width="2" d="M667,-261.92C667,-241.68 667,-207.73 667,-184.16"/>
<polygon fill="#2b6cb0" stroke="#2b6cb0" stroke-width="2" points="669.98,-183.88 667,-175.38 664.03,-183.88 669.98,-183.88"/>
<text text-anchor="middle" x="682.5" y="-214.8" font-family="Helvetica,sans-Serif" font-size="14.00" fill="#2b6cb0">next</text>
</g>
<!-- https://w3id.org/sdata/core/MaterialProcess -->
<g id="node13" class="node">
<title>https://w3id.org/sdata/core/MaterialProcess</title>
<path fill="#e8f1ff" stroke="#2b6cb0" stroke-width="1.6" d="M573,-790C573,-790 479,-790 479,-790 473,-790 467,-784 467,-778 467,-778 467,-766 467,-766 467,-760 473,-754 479,-754 479,-754 573,-754 573,-754 579,-754 585,-760 585,-766 585,-766 585,-778 585,-778 585,-784 579,-790 573,-790"/>
<text text-anchor="middle" x="526" y="-768.9" font-family="Helvetica,sans-Serif" font-size="12.00" fill="#1a365d">Material Process</text>
</g>
<!-- https://w3id.org/sdata/core/MaterialProcess&#45;&gt;https://w3id.org/sdata/core/InformationProcess -->
<g id="edge21" class="edge">
<title>https://w3id.org/sdata/core/MaterialProcess&#45;&gt;https://w3id.org/sdata/core/InformationProcess</title>
<path fill="none" stroke="#6b7280" stroke-width="1.6" stroke-dasharray="5,2" d="M511.28,-790.04C493.82,-809.85 462.69,-840.52 428,-853 343.52,-883.39 312.48,-877.11 226,-853 182.27,-840.81 138.57,-810.05 113.47,-790.14"/>
<text text-anchor="middle" x="310" y="-869.8" font-family="Helvetica,sans-Serif" font-size="14.00" fill="#6b7280">dual</text>
</g>
<!-- https://w3id.org/sdata/core/MaterialProcess&#45;&gt;https://w3id.org/sdata/core/MaterialCreation -->
<g id="edge22" class="edge">
<title>https://w3id.org/sdata/core/MaterialProcess&#45;&gt;https://w3id.org/sdata/core/MaterialCreation</title>
<path fill="none" stroke="#4a5568" stroke-width="1.6" d="M585.06,-772C613.98,-772 642.9,-772 671.83,-772"/>
<polygon fill="#4a5568" stroke="#4a5568" stroke-width="1.6" points="671.89,-774.98 680.39,-772 671.89,-769.03 671.89,-774.98"/>
</g>
<!-- https://w3id.org/sdata/core/MaterialProcess&#45;&gt;https://w3id.org/sdata/core/MaterialDestruction -->
<g id="edge23" class="edge">
<title>https://w3id.org/sdata/core/MaterialProcess&#45;&gt;https://w3id.org/sdata/core/MaterialDestruction</title>
<path fill="none" stroke="#4a5568" stroke-width="1.6" d="M503.54,-753.8C493.02,-744.43 481.42,-731.92 475,-718 435.93,-633.24 460.79,-599.92 477,-508 506.63,-339.96 504.27,-290.38 583,-139 598.87,-108.48 624.53,-78.43 643.32,-58.54"/>
<polygon fill="#4a5568" stroke="#4a5568" stroke-width="1.6" points="645.66,-60.4 649.4,-52.2 641.37,-56.28 645.66,-60.4"/>
</g>
<!-- https://w3id.org/sdata/core/MaterialProcess&#45;&gt;https://w3id.org/sdata/core/MaterialObservation -->
<g id="edge24" class="edge">
<title>https://w3id.org/sdata/core/MaterialProcess&#45;&gt;https://w3id.org/sdata/core/MaterialObservation</title>
<path fill="none" stroke="#4a5568" stroke-width="1.6" d="M509.96,-753.85C501.99,-744.12 493.17,-731.27 489,-718 471.49,-662.33 480.45,-501.67 518,-457 535.06,-436.7 560.46,-424.18 585.47,-416.45"/>
<polygon fill="#4a5568" stroke="#4a5568" stroke-width="1.6" points="586.59,-419.22 593.93,-414.01 584.94,-413.51 586.59,-419.22"/>
</g>
<!-- https://w3id.org/sdata/core/MaterialProcess&#45;&gt;https://w3id.org/sdata/core/MaterialPreservation -->
<g id="edge25" class="edge">
<title>https://w3id.org/sdata/core/MaterialProcess&#45;&gt;https://w3id.org/sdata/core/MaterialPreservation</title>
<path fill="none" stroke="#4a5568" stroke-width="1.6" d="M516.46,-753.93C511.36,-743.82 505.61,-730.57 503,-718 501.64,-711.47 502.15,-709.61 503,-703 518.13,-584.74 513.62,-527.18 610,-457 665.42,-416.64 717.55,-474.84 760,-421 791.21,-381.42 737.95,-331.5 700.01,-303.23"/>
<polygon fill="#4a5568" stroke="#4a5568" stroke-width="1.6" points="701.75,-300.81 693.13,-298.21 698.24,-305.62 701.75,-300.81"/>
</g>
<!-- https://w3id.org/sdata/core/MaterialProcess&#45;&gt;https://w3id.org/sdata/core/MaterialRecovery -->
<g id="edge26" class="edge">
<title>https://w3id.org/sdata/core/MaterialProcess&#45;&gt;https://w3id.org/sdata/core/MaterialRecovery</title>
<path fill="none" stroke="#4a5568" stroke-width="1.6" d="M529.48,-753.97C541.18,-701.16 584.17,-538.81 685,-457 718.45,-429.86 750.85,-456.67 775,-421 792.31,-395.44 800.04,-348.45 761,-262 746.3,-229.44 717.54,-200.02 695.69,-180.85"/>
<polygon fill="#4a5568" stroke="#4a5568" stroke-width="1.6" points="697.54,-178.51 689.15,-175.23 693.66,-183.03 697.54,-178.51"/>
</g>
<!-- https://w3id.org/sdata/core/MaterialTransfer -->
<g id="node15" class="node">
<title>https://w3id.org/sdata/core/MaterialTransfer</title>
<path fill="#eef8e7" stroke="#4f8a10" stroke-width="1.6" d="M781,-544C781,-544 683,-544 683,-544 677,-544 671,-538 671,-532 671,-532 671,-520 671,-520 671,-514 677,-508 683,-508 683,-508 781,-508 781,-508 787,-508 793,-514 793,-520 793,-520 793,-532 793,-532 793,-538 787,-544 781,-544"/>
<text text-anchor="middle" x="732" y="-522.9" font-family="Helvetica,sans-Serif" font-size="12.00" fill="#2f5d08">Material Transfer</text>
</g>
<!-- https://w3id.org/sdata/core/MaterialProcess&#45;&gt;https://w3id.org/sdata/core/MaterialTransfer -->
<g id="edge27" class="edge">
<title>https://w3id.org/sdata/core/MaterialProcess&#45;&gt;https://w3id.org/sdata/core/MaterialTransfer</title>
<path fill="none" stroke="#4a5568" stroke-width="1.6" d="M539.99,-753.61C561.47,-727 603.98,-674.66 641,-631 664.66,-603.09 692.42,-571.53 711.01,-550.57"/>
<polygon fill="#4a5568" stroke="#4a5568" stroke-width="1.6" points="713.28,-552.49 716.7,-544.15 708.83,-548.54 713.28,-552.49"/>
</g>
<!-- https://w3id.org/sdata/core/MaterialProcess&#45;&gt;https://w3id.org/sdata/core/MaterialTransformation -->
<g id="edge28" class="edge">
<title>https://w3id.org/sdata/core/MaterialProcess&#45;&gt;https://w3id.org/sdata/core/MaterialTransformation</title>
<path fill="none" stroke="#4a5568" stroke-width="1.6" d="M556.49,-753.92C595.13,-732.27 661.76,-694.95 703.77,-671.41"/>
<polygon fill="#4a5568" stroke="#4a5568" stroke-width="1.6" points="705.35,-673.94 711.32,-667.19 702.45,-668.75 705.35,-673.94"/>
</g>
<!-- https://w3id.org/sdata/core/MaterialRecovery&#45;&gt;https://w3id.org/sdata/core/InformationRecovery -->
<g id="edge29" class="edge">
<title>https://w3id.org/sdata/core/MaterialRecovery&#45;&gt;https://w3id.org/sdata/core/InformationRecovery</title>
<path fill="none" stroke="#6b7280" stroke-width="1.6" stroke-dasharray="5,2" d="M602.44,-157C526.06,-157 399.1,-157 318.31,-157"/>
<text text-anchor="middle" x="460.25" y="-163.8" font-family="Helvetica,sans-Serif" font-size="14.00" fill="#6b7280">dual</text>
</g>
<!-- https://w3id.org/sdata/core/MaterialRecovery&#45;&gt;https://w3id.org/sdata/core/MaterialDestruction -->
<g id="edge30" class="edge">
<title>https://w3id.org/sdata/core/MaterialRecovery&#45;&gt;https://w3id.org/sdata/core/MaterialDestruction</title>
<path fill="none" stroke="#2b6cb0" stroke-width="2" d="M667,-138.92C667,-118.68 667,-84.73 667,-61.16"/>
<polygon fill="#2b6cb0" stroke="#2b6cb0" stroke-width="2" points="669.98,-60.88 667,-52.38 664.03,-60.88 669.98,-60.88"/>
<text text-anchor="middle" x="682.5" y="-91.8" font-family="Helvetica,sans-Serif" font-size="14.00" fill="#2b6cb0">next</text>
</g>
<!-- https://w3id.org/sdata/core/MaterialTransfer&#45;&gt;https://w3id.org/sdata/core/InformationTransfer -->
<g id="edge31" class="edge">
<title>https://w3id.org/sdata/core/MaterialTransfer&#45;&gt;https://w3id.org/sdata/core/InformationTransfer</title>
<path fill="none" stroke="#6b7280" stroke-width="1.6" stroke-dasharray="5,2" d="M670.92,-526C595.18,-526 466.27,-526 385.86,-526"/>
<text text-anchor="middle" x="528.25" y="-532.8" font-family="Helvetica,sans-Serif" font-size="14.00" fill="#6b7280">dual</text>
</g>
<!-- https://w3id.org/sdata/core/MaterialTransfer&#45;&gt;https://w3id.org/sdata/core/MaterialObservation -->
<g id="edge32" class="edge">
<title>https://w3id.org/sdata/core/MaterialTransfer&#45;&gt;https://w3id.org/sdata/core/MaterialObservation</title>
<path fill="none" stroke="#2b6cb0" stroke-width="2" d="M722.82,-507.92C711.76,-487.32 693.06,-452.52 680.39,-428.92"/>
<polygon fill="#2b6cb0" stroke="#2b6cb0" stroke-width="2" points="682.98,-427.46 676.34,-421.38 677.74,-430.28 682.98,-427.46"/>
<text text-anchor="middle" x="718.5" y="-460.8" font-family="Helvetica,sans-Serif" font-size="14.00" fill="#2b6cb0">next</text>
</g>
<!-- https://w3id.org/sdata/core/MaterialTransformation&#45;&gt;https://w3id.org/sdata/core/InformationTransformation -->
<g id="edge33" class="edge">
<title>https://w3id.org/sdata/core/MaterialTransformation&#45;&gt;https://w3id.org/sdata/core/InformationTransformation</title>
<path fill="none" stroke="#6b7280" stroke-width="1.6" stroke-dasharray="5,2" d="M660.21,-649C588.56,-649 484.53,-649 410,-649"/>
<text text-anchor="middle" x="535.25" y="-655.8" font-family="Helvetica,sans-Serif" font-size="14.00" fill="#6b7280">dual</text>
</g>
<!-- https://w3id.org/sdata/core/MaterialTransformation&#45;&gt;https://w3id.org/sdata/core/MaterialTransfer -->
<g id="edge34" class="edge">
<title>https://w3id.org/sdata/core/MaterialTransformation&#45;&gt;https://w3id.org/sdata/core/MaterialTransfer</title>
<path fill="none" stroke="#2b6cb0" stroke-width="2" d="M740.59,-630.92C738.92,-610.68 736.11,-576.73 734.16,-553.16"/>
<polygon fill="#2b6cb0" stroke="#2b6cb0" stroke-width="2" points="737.1,-552.61 733.44,-544.38 731.17,-553.1 737.1,-552.61"/>
<text text-anchor="middle" x="752.5" y="-583.8" font-family="Helvetica,sans-Serif" font-size="14.00" fill="#2b6cb0">next</text>
</g>
</g>
</svg>
