<?xml version="1.0" encoding="UTF-8" standalone="no"?>
<!DOCTYPE svg PUBLIC "-//W3C//DTD SVG 1.1//EN"
 "http://www.w3.org/Graphics/SVG/1.1/DTD/svg11.dtd">
<!-- Generated by graphviz version 2.43.0 (0)
 -->
<!-- Pages: 1 -->
<svg width="1129pt" height="371pt"
 viewBox="0.00 0.00 1129.40 371.40" xmlns="http://www.w3.org/2000/svg" xmlns:xlink="http://www.w3.org/1999/xlink">
<g id="graph0" class="graph" transform="scale(1 1) rotate(0) translate(25.2 346.2)">
<polygon fill="#fafbfc" stroke="transparent" points="-25.2,25.2 -25.2,-346.2 1104.2,-346.2 1104.2,25.2 -25.2,25.2"/>
<text text-anchor="middle" x="539.5" y="-301" font-family="Helvetica,sans-Serif" font-size="20.00">sdata Process Hierarchy (core + process verbs)</text>
<g id="clust1" class="cluster">
<title>cluster_process_proc</title>
<path fill="#fafbfc" stroke="#b6d7a8" d="M20,-8C20,-8 1059,-8 1059,-8 1065,-8 1071,-14 1071,-20 1071,-20 1071,-108 1071,-108 1071,-114 1065,-120 1059,-120 1059,-120 20,-120 20,-120 14,-120 8,-114 8,-108 8,-108 8,-20 8,-20 8,-14 14,-8 20,-8"/>
<text text-anchor="middle" x="539.5" y="-100" font-family="Helvetica,sans-Serif" font-size="20.00">sdata&#45;processtypes verb classes</text>
</g>
<g id="clust2" class="cluster">
<title>cluster_process_core</title>
<path fill="#fafbfc" stroke="#90b5e8" d="M440,-171C440,-171 698,-171 698,-171 704,-171 710,-177 710,-183 710,-183 710,-271 710,-271 710,-277 704,-283 698,-283 698,-283 440,-283 440,-283 434,-283 428,-277 428,-271 428,-271 428,-183 428,-183 428,-177 434,-171 440,-171"/>
<text text-anchor="middle" x="569" y="-263" font-family="Helvetica,sans-Serif" font-size="20.00">sdata&#45;core process classes</text>
</g>
<!-- https://w3id.org/sdata/core/Creation -->
<g id="node1" class="node">
<title>https://w3id.org/sdata/core/Creation</title>
<path fill="#eef8e7" stroke="#4f8a10" stroke-width="1.6" d="M75.5,-52C75.5,-52 28.5,-52 28.5,-52 22.5,-52 16.5,-46 16.5,-40 16.5,-40 16.5,-28 16.5,-28 16.5,-22 22.5,-16 28.5,-16 28.5,-16 75.5,-16 75.5,-16 81.5,-16 87.5,-22 87.5,-28 87.5,-28 87.5,-40 87.5,-40 87.5,-46 81.5,-52 75.5,-52"/>
<text text-anchor="middle" x="52" y="-30.9" font-family="Helvetica,sans-Serif" font-size="12.00" fill="#2f5d08">Creation</text>
</g>
<!-- https://w3id.org/sdata/core/Transformation -->
<g id="node7" class="node">
<title>https://w3id.org/sdata/core/Transformation</title>
<path fill="#eef8e7" stroke="#4f8a10" stroke-width="1.6" d="M1051.5,-52C1051.5,-52 964.5,-52 964.5,-52 958.5,-52 952.5,-46 952.5,-40 952.5,-40 952.5,-28 952.5,-28 952.5,-22 958.5,-16 964.5,-16 964.5,-16 1051.5,-16 1051.5,-16 1057.5,-16 1063.5,-22 1063.5,-28 1063.5,-28 1063.5,-40 1063.5,-40 1063.5,-46 1057.5,-52 1051.5,-52"/>
<text text-anchor="middle" x="1008" y="-30.9" font-family="Helvetica,sans-Serif" font-size="12.00" fill="#2f5d08">Transformation</text>
</g>
<!-- https://w3id.org/sdata/core/Creation&#45;&gt;https://w3id.org/sdata/core/Transformation -->
<g id="edge1" class="edge">
<title>https://w3id.org/sdata/core/Creation&#45;&gt;https://w3id.org/sdata/core/Transformation</title>
<path fill="none" stroke="#4f8a10" stroke-width="2" stroke-dasharray="5,2" d="M58.31,-52.18C66.35,-72.2 82.37,-103.37 108,-117 182.37,-156.54 784.71,-139.02 866,-117 908.51,-105.49 951.33,-77.73 978.67,-57.47"/>
<polygon fill="#4f8a10" stroke="#4f8a10" stroke-width="2" points="980.61,-59.73 985.61,-52.23 977.03,-54.97 980.61,-59.73"/>
<text text-anchor="middle" x="437" y="-131.8" font-family="Helvetica,sans-Serif" font-size="14.00" fill="#4f8a10">sequence</text>
</g>
<!-- https://w3id.org/sdata/core/Destruction -->
<g id="node2" class="node">
<title>https://w3id.org/sdata/core/Destruction</title>
<path fill="#eef8e7" stroke="#4f8a10" stroke-width="1.6" d="M206,-52C206,-52 140,-52 140,-52 134,-52 128,-46 128,-40 128,-40 128,-28 128,-28 128,-22 134,-16 140,-16 140,-16 206,-16 206,-16 212,-16 218,-22 218,-28 218,-28 218,-40 218,-40 218,-46 212,-52 206,-52"/>
<text text-anchor="middle" x="173" y="-30.9" font-family="Helvetica,sans-Serif" font-size="12.00" fill="#2f5d08">Destruction</text>
</g>
<!-- https://w3id.org/sdata/core/Observation -->
<g id="node3" class="node">
<title>https://w3id.org/sdata/core/Observation</title>
<path fill="#eef8e7" stroke="#4f8a10" stroke-width="1.6" d="M339.5,-52C339.5,-52 270.5,-52 270.5,-52 264.5,-52 258.5,-46 258.5,-40 258.5,-40 258.5,-28 258.5,-28 258.5,-22 264.5,-16 270.5,-16 270.5,-16 339.5,-16 339.5,-16 345.5,-16 351.5,-22 351.5,-28 351.5,-28 351.5,-40 351.5,-40 351.5,-46 345.5,-52 339.5,-52"/>
<text text-anchor="middle" x="305" y="-30.9" font-family="Helvetica,sans-Serif" font-size="12.00" fill="#2f5d08">Observation</text>
</g>
<!-- https://w3id.org/sdata/core/Preservation -->
<g id="node4" class="node">
<title>https://w3id.org/sdata/core/Preservation</title>
<path fill="#eef8e7" stroke="#4f8a10" stroke-width="1.6" d="M541.5,-52C541.5,-52 470.5,-52 470.5,-52 464.5,-52 458.5,-46 458.5,-40 458.5,-40 458.5,-28 458.5,-28 458.5,-22 464.5,-16 470.5,-16 470.5,-16 541.5,-16 541.5,-16 547.5,-16 553.5,-22 553.5,-28 553.5,-28 553.5,-40 553.5,-40 553.5,-46 547.5,-52 541.5,-52"/>
<text text-anchor="middle" x="506" y="-30.9" font-family="Helvetica,sans-Serif" font-size="12.00" fill="#2f5d08">Preservation</text>
</g>
<!-- https://w3id.org/sdata/core/Observation&#45;&gt;https://w3id.org/sdata/core/Preservation -->
<g id="edge2" class="edge">
<title>https://w3id.org/sdata/core/Observation&#45;&gt;https://w3id.org/sdata/core/Preservation</title>
<path fill="none" stroke="#4f8a10" stroke-width="2" stroke-dasharray="5,2" d="M351.62,-34C380.88,-34 418.78,-34 449.71,-34"/>
<polygon fill="#4f8a10" stroke="#4f8a10" stroke-width="2" points="449.74,-36.98 458.24,-34 449.74,-31.03 449.74,-36.98"/>
<text text-anchor="middle" x="405" y="-40.8" font-family="Helvetica,sans-Serif" font-size="14.00" fill="#4f8a10">sequence</text>
</g>
<!-- https://w3id.org/sdata/core/Recovery -->
<g id="node5" class="node">
<title>https://w3id.org/sdata/core/Recovery</title>
<path fill="#eef8e7" stroke="#4f8a10" stroke-width="1.6" d="M724,-52C724,-52 672,-52 672,-52 666,-52 660,-46 660,-40 660,-40 660,-28 660,-28 660,-22 666,-16 672,-16 672,-16 724,-16 724,-16 730,-16 736,-22 736,-28 736,-28 736,-40 736,-40 736,-46 730,-52 724,-52"/>
<text text-anchor="middle" x="698" y="-30.9" font-family="Helvetica,sans-Serif" font-size="12.00" fill="#2f5d08">Recovery</text>
</g>
<!-- https://w3id.org/sdata/core/Preservation&#45;&gt;https://w3id.org/sdata/core/Recovery -->
<g id="edge3" class="edge">
<title>https://w3id.org/sdata/core/Preservation&#45;&gt;https://w3id.org/sdata/core/Recovery</title>
<path fill="none" stroke="#4f8a10" stroke-width="2" stroke-dasharray="5,2" d="M553.95,-34C583.65,-34 621.61,-34 651.1,-34"/>
<polygon fill="#4f8a10" stroke="#4f8a10" stroke-width="2" points="651.47,-36.98 659.97,-34 651.47,-31.03 651.47,-36.98"/>
<text text-anchor="middle" x="606.75" y="-40.8" font-family="Helvetica,sans-Serif" font-size="14.00" fill="#4f8a10">sequence</text>
</g>
<!-- https://w3id.org/sdata/core/Recovery&#45;&gt;https://w3id.org/sdata/core/Destruction -->
<g id="edge11" class="edge">
<title>https://w3id.org/sdata/core/Recovery&#45;&gt;https://w3id.org/sdata/core/Destruction</title>
<path fill="none" stroke="#4f8a10" stroke-width="2" stroke-dasharray="5,2" d="M678.7,-52.2C655.64,-72.56 614.9,-104.36 573,-117 501.73,-138.51 304.93,-149.6 238,-117 213.85,-105.24 196.02,-79.68 185.21,-60.01"/>
<polygon fill="#4f8a10" stroke="#4f8a10" stroke-width="2" points="187.73,-58.41 181.14,-52.27 182.46,-61.18 187.73,-58.41"/>
<text text-anchor="middle" x="365" y="-131.8" font-family="Helvetica,sans-Serif" font-size="14.00" fill="#4f8a10">sequence</text>
</g>
<!-- https://w3id.org/sdata/core/Transfer -->
<g id="node6" class="node">
<title>https://w3id.org/sdata/core/Transfer</title>
<path fill="#eef8e7" stroke="#4f8a10" stroke-width="1.6" d="M833.5,-52C833.5,-52 788.5,-52 788.5,-52 782.5,-52 776.5,-46 776.5,-40 776.5,-40 776.5,-28 776.5,-28 776.5,-22 782.5,-16 788.5,-16 788.5,-16 833.5,-16 833.5,-16 839.5,-16 845.5,-22 845.5,-28 845.5,-28 845.5,-40 845.5,-40 845.5,-46 839.5,-52 833.5,-52"/>
<text text-anchor="middle" x="811" y="-30.9" font-family="Helvetica,sans-Serif" font-size="12.00" fill="#2f5d08">Transfer</text>
</g>
<!-- https://w3id.org/sdata/core/Transfer&#45;&gt;https://w3id.org/sdata/core/Observation -->
<g id="edge12" class="edge">
<title>https://w3id.org/sdata/core/Transfer&#45;&gt;https://w3id.org/sdata/core/Observation</title>
<path fill="none" stroke="#4f8a10" stroke-width="2" stroke-dasharray="5,2" d="M804.9,-52.17C797.09,-72.18 781.43,-103.34 756,-117 693.74,-150.43 505.93,-136.46 438,-117 397.82,-105.49 357.99,-77.92 332.54,-57.71"/>
<polygon fill="#4f8a10" stroke="#4f8a10" stroke-width="2" points="334.24,-55.25 325.76,-52.22 330.5,-59.88 334.24,-55.25"/>
<text text-anchor="middle" x="509" y="-131.8" font-family="Helvetica,sans-Serif" font-size="14.00" fill="#4f8a10">sequence</text>
</g>
<!-- https://w3id.org/sdata/core/Transformation&#45;&gt;https://w3id.org/sdata/core/Transfer -->
<g id="edge13" class="edge">
<title>https://w3id.org/sdata/core/Transformation&#45;&gt;https://w3id.org/sdata/core/Transfer</title>
<path fill="none" stroke="#4f8a10" stroke-width="2" stroke-dasharray="5,2" d="M952.37,-34C921.32,-34 883.22,-34 854.4,-34"/>
<polygon fill="#4f8a10" stroke="#4f8a10" stroke-width="2" points="854.27,-31.03 845.77,-34 854.27,-36.98 854.27,-31.03"/>
<text text-anchor="middle" x="899" y="-40.8" font-family="Helvetica,sans-Serif" font-size="14.00" fill="#4f8a10">sequence</text>
</g>
<!-- https://w3id.org/sdata/core/Process -->
<g id="node8" class="node">
<title>https://w3id.org/sdata/core/Process</title>
<path fill="#e8f1ff" stroke="#2b6cb0" stroke-width="1.6" d="M590,-215C590,-215 548,-215 548,-215 542,-215 536,-209 536,-203 536,-203 536,-191 536,-191 536,-185 542,-179 548,-179 548,-179 590,-179 590,-179 596,-179 602,-185 602,-191 602,-191 602,-203 602,-203 602,-209 596,-215 590,-215"/>
<text text-anchor="middle" x="569" y="-193.9" font-family="Helvetica,sans-Serif" font-size="12.00" fill="#1a365d">Process</text>
</g>
<!-- https://w3id.org/sdata/core/Process&#45;&gt;https://w3id.org/sdata/core/Creation -->
<g id="edge4" class="edge">
<title>https://w3id.org/sdata/core/Process&#45;&gt;https://w3id.org/sdata/core/Creation</title>
<path fill="none" stroke="#4a5568" stroke-width="1.6" d="M535.94,-193.98C442.59,-187.76 179.17,-166.41 108,-120 86.11,-105.73 70.82,-79.58 61.82,-60.04"/>
<polygon fill="#4a5568" stroke="#4a5568" stroke-width="1.6" points="64.48,-58.71 58.34,-52.13 59.03,-61.1 64.48,-58.71"/>
</g>
<!-- https://w3id.org/sdata/core/Process&#45;&gt;https://w3id.org/sdata/core/Destruction -->
<g id="edge5" class="edge">
<title>https://w3id.org/sdata/core/Process&#45;&gt;https://w3id.org/sdata/core/Destruction</title>
<path fill="none" stroke="#4a5568" stroke-width="1.6" d="M535.63,-196.36C471.92,-195.45 331.04,-185.52 238,-120 215.71,-104.3 197.61,-78.66 186.23,-59.64"/>
<polygon fill="#4a5568" stroke="#4a5568" stroke-width="1.6" points="188.75,-58.06 181.91,-52.2 183.6,-61.05 188.75,-58.06"/>
</g>
<!-- https://w3id.org/sdata/core/Process&#45;&gt;https://w3id.org/sdata/core/Observation -->
<g id="edge6" class="edge">
<title>https://w3id.org/sdata/core/Process&#45;&gt;https://w3id.org/sdata/core/Observation</title>
<path fill="none" stroke="#4a5568" stroke-width="1.6" d="M535.72,-192.96C477.06,-186.93 358.76,-171.49 330,-143 308.42,-121.62 303.95,-85.55 303.69,-61.03"/>
<polygon fill="#4a5568" stroke="#4a5568" stroke-width="1.6" points="306.67,-60.78 303.77,-52.25 300.72,-60.73 306.67,-60.78"/>
</g>
<!-- https://w3id.org/sdata/core/Process&#45;&gt;https://w3id.org/sdata/core/Preservation -->
<g id="edge7" class="edge">
<title>https://w3id.org/sdata/core/Process&#45;&gt;https://w3id.org/sdata/core/Preservation</title>
<path fill="none" stroke="#4a5568" stroke-width="1.6" d="M562.9,-178.89C557.94,-165.1 550.69,-145.24 544,-128 535.03,-104.87 524.3,-78.74 516.53,-60.08"/>
<polygon fill="#4a5568" stroke="#4a5568" stroke-width="1.6" points="519.21,-58.77 513.19,-52.07 513.71,-61.06 519.21,-58.77"/>
</g>
<!-- https://w3id.org/sdata/core/Process&#45;&gt;https://w3id.org/sdata/core/Recovery -->
<g id="edge8" class="edge">
<title>https://w3id.org/sdata/core/Process&#45;&gt;https://w3id.org/sdata/core/Recovery</title>
<path fill="none" stroke="#4a5568" stroke-width="1.6" d="M582.81,-178.77C605.89,-149.96 652.37,-91.95 678.69,-59.1"/>
<polygon fill="#4a5568" stroke="#4a5568" stroke-width="1.6" points="681.3,-60.6 684.29,-52.11 676.66,-56.88 681.3,-60.6"/>
</g>
<!-- https://w3id.org/sdata/core/Process&#45;&gt;https://w3id.org/sdata/core/Transfer -->
<g id="edge9" class="edge">
<title>https://w3id.org/sdata/core/Process&#45;&gt;https://w3id.org/sdata/core/Transfer</title>
<path fill="none" stroke="#4a5568" stroke-width="1.6" d="M602.24,-188.98C642.3,-179.16 709.97,-158.09 756,-120 775.58,-103.8 790.59,-78.78 799.94,-60.07"/>
<polygon fill="#4a5568" stroke="#4a5568" stroke-width="1.6" points="802.71,-61.18 803.72,-52.23 797.35,-58.6 802.71,-61.18"/>
</g>
<!-- https://w3id.org/sdata/core/Process&#45;&gt;https://w3id.org/sdata/core/Transformation -->
<g id="edge10" class="edge">
<title>https://w3id.org/sdata/core/Process&#45;&gt;https://w3id.org/sdata/core/Transformation</title>
<path fill="none" stroke="#4a5568" stroke-width="1.6" d="M602.08,-190.76C658,-181.2 774.13,-158.29 866,-120 906.41,-103.15 949.03,-76.25 976.9,-57.22"/>
<polygon fill="#4a5568" stroke="#4a5568" stroke-width="1.6" points="978.7,-59.6 984.01,-52.33 975.32,-54.7 978.7,-59.6"/>
</g>
</g>
</svg>
