<?xml version="1.0" encoding="UTF-8" standalone="no"?>
<!DOCTYPE svg PUBLIC "-//W3C//DTD SVG 1.1//EN"
 "http://www.w3.org/Graphics/SVG/1.1/DTD/svg11.dtd">
<!-- Generated by graphviz version 2.43.0 (0)
 -->
<!-- Pages: 1 -->
<svg width="1580pt" height="332pt"
 viewBox="0.00 0.00 1580.40 332.40" xmlns="http://www.w3.org/2000/svg" xmlns:xlink="http://www.w3.org/1999/xlink">
<g id="graph0" class="graph" transform="scale(1 1) rotate(0) translate(25.2 307.2)">
<polygon fill="#fafbfc" stroke="transparent" points="-25.2,25.2 -25.2,-307.2 1555.2,-307.2 1555.2,25.2 -25.2,25.2"/>
<text text-anchor="middle" x="765" y="-262" font-family="Helvetica,sans-Serif" font-size="20.00">sdata Core + Processtypes Hierarchy (sdata&#45;only)</text>
<!-- https://w3id.org/sdata/core/Agent -->
<g id="node1" class="node">
<title>https://w3id.org/sdata/core/Agent</title>
<path fill="#e8f1ff" stroke="#2b6cb0" stroke-width="1.6" d="M584.5,-252C584.5,-252 552.5,-252 552.5,-252 546.5,-252 540.5,-246 540.5,-240 540.5,-240 540.5,-228 540.5,-228 540.5,-222 546.5,-216 552.5,-216 552.5,-216 584.5,-216 584.5,-216 590.5,-216 596.5,-222 596.5,-228 596.5,-228 596.5,-240 596.5,-240 596.5,-246 590.5,-252 584.5,-252"/>
<text text-anchor="middle" x="568.5" y="-230.9" font-family="Helvetica,sans-Serif" font-size="12.00" fill="#1a365d">Agent</text>
</g>
<!-- https://w3id.org/sdata/core/HardwareAgent -->
<g id="node2" class="node">
<title>https://w3id.org/sdata/core/HardwareAgent</title>
<path fill="#e8f1ff" stroke="#2b6cb0" stroke-width="1.6" d="M105,-144C105,-144 12,-144 12,-144 6,-144 0,-138 0,-132 0,-132 0,-120 0,-120 0,-114 6,-108 12,-108 12,-108 105,-108 105,-108 111,-108 117,-114 117,-120 117,-120 117,-132 117,-132 117,-138 111,-144 105,-144"/>
<text text-anchor="middle" x="58.5" y="-122.9" font-family="Helvetica,sans-Serif" font-size="12.00" fill="#1a365d">Hardware Agent</text>
</g>
<!-- https://w3id.org/sdata/core/Agent&#45;&gt;https://w3id.org/sdata/core/HardwareAgent -->
<g id="edge1" class="edge">
<title>https://w3id.org/sdata/core/Agent&#45;&gt;https://w3id.org/sdata/core/HardwareAgent</title>
<path fill="none" stroke="#4a5568" stroke-width="1.6" d="M540.5,-227.3C471.8,-213.3 289.45,-176.04 137.5,-144 133.59,-143.18 129.57,-142.32 125.51,-141.46"/>
<polygon fill="#4a5568" stroke="#4a5568" stroke-width="1.6" points="126.09,-138.54 117.16,-139.68 124.85,-144.36 126.09,-138.54"/>
</g>
<!-- https://w3id.org/sdata/core/Organization -->
<g id="node3" class="node">
<title>https://w3id.org/sdata/core/Organization</title>
<path fill="#e8f1ff" stroke="#2b6cb0" stroke-width="1.6" d="M241.5,-144C241.5,-144 169.5,-144 169.5,-144 163.5,-144 157.5,-138 157.5,-132 157.5,-132 157.5,-120 157.5,-120 157.5,-114 163.5,-108 169.5,-108 169.5,-108 241.5,-108 241.5,-108 247.5,-108 253.5,-114 253.5,-120 253.5,-120 253.5,-132 253.5,-132 253.5,-138 247.5,-144 241.5,-144"/>
<text text-anchor="middle" x="205.5" y="-122.9" font-family="Helvetica,sans-Serif" font-size="12.00" fill="#1a365d">Organization</text>
</g>
<!-- https://w3id.org/sdata/core/Agent&#45;&gt;https://w3id.org/sdata/core/Organization -->
<g id="edge2" class="edge">
<title>https://w3id.org/sdata/core/Agent&#45;&gt;https://w3id.org/sdata/core/Organization</title>
<path fill="none" stroke="#4a5568" stroke-width="1.6" d="M540.32,-224.77C480.69,-207.36 340.78,-166.5 261.99,-143.5"/>
<polygon fill="#4a5568" stroke="#4a5568" stroke-width="1.6" points="262.62,-140.58 253.63,-141.05 260.96,-146.29 262.62,-140.58"/>
</g>
<!-- https://w3id.org/sdata/core/Person -->
<g id="node4" class="node">
<title>https://w3id.org/sdata/core/Person</title>
<path fill="#e8f1ff" stroke="#2b6cb0" stroke-width="1.6" d="M343,-144C343,-144 306,-144 306,-144 300,-144 294,-138 294,-132 294,-132 294,-120 294,-120 294,-114 300,-108 306,-108 306,-108 343,-108 343,-108 349,-108 355,-114 355,-120 355,-120 355,-132 355,-132 355,-138 349,-144 343,-144"/>
<text text-anchor="middle" x="324.5" y="-122.9" font-family="Helvetica,sans-Serif" font-size="12.00" fill="#1a365d">Person</text>
</g>
<!-- https://w3id.org/sdata/core/Agent&#45;&gt;https://w3id.org/sdata/core/Person -->
<g id="edge3" class="edge">
<title>https://w3id.org/sdata/core/Agent&#45;&gt;https://w3id.org/sdata/core/Person</title>
<path fill="none" stroke="#4a5568" stroke-width="1.6" d="M540.03,-220.63C496.21,-201.6 412.15,-165.08 362.96,-143.71"/>
<polygon fill="#4a5568" stroke="#4a5568" stroke-width="1.6" points="364.06,-140.94 355.08,-140.28 361.69,-146.4 364.06,-140.94"/>
</g>
<!-- https://w3id.org/sdata/core/SoftwareAgent -->
<g id="node5" class="node">
<title>https://w3id.org/sdata/core/SoftwareAgent</title>
<path fill="#e8f1ff" stroke="#2b6cb0" stroke-width="1.6" d="M495.5,-144C495.5,-144 407.5,-144 407.5,-144 401.5,-144 395.5,-138 395.5,-132 395.5,-132 395.5,-120 395.5,-120 395.5,-114 401.5,-108 407.5,-108 407.5,-108 495.5,-108 495.5,-108 501.5,-108 507.5,-114 507.5,-120 507.5,-120 507.5,-132 507.5,-132 507.5,-138 501.5,-144 495.5,-144"/>
<text text-anchor="middle" x="451.5" y="-122.9" font-family="Helvetica,sans-Serif" font-size="12.00" fill="#1a365d">Software Agent</text>
</g>
<!-- https://w3id.org/sdata/core/Agent&#45;&gt;https://w3id.org/sdata/core/SoftwareAgent -->
<g id="edge4" class="edge">
<title>https://w3id.org/sdata/core/Agent&#45;&gt;https://w3id.org/sdata/core/SoftwareAgent</title>
<path fill="none" stroke="#4a5568" stroke-width="1.6" d="M549.7,-215.97C530.03,-198.15 499.02,-170.06 477.12,-150.21"/>
<polygon fill="#4a5568" stroke="#4a5568" stroke-width="1.6" points="478.94,-147.84 470.64,-144.34 474.94,-152.25 478.94,-147.84"/>
</g>
<!-- https://w3id.org/sdata/core/Creation -->
<g id="node6" class="node">
<title>https://w3id.org/sdata/core/Creation</title>
<path fill="#eef8e7" stroke="#4f8a10" stroke-width="1.6" d="M592,-36C592,-36 545,-36 545,-36 539,-36 533,-30 533,-24 533,-24 533,-12 533,-12 533,-6 539,0 545,0 545,0 592,0 592,0 598,0 604,-6 604,-12 604,-12 604,-24 604,-24 604,-30 598,-36 592,-36"/>
<text text-anchor="middle" x="568.5" y="-14.9" font-family="Helvetica,sans-Serif" font-size="12.00" fill="#2f5d08">Creation</text>
</g>
<!-- https://w3id.org/sdata/core/Agent&#45;&gt;https://w3id.org/sdata/core/Creation -->
<!-- https://w3id.org/sdata/core/AttributeQuantityValue -->
<g id="node7" class="node">
<title>https://w3id.org/sdata/core/AttributeQuantityValue</title>
<path fill="#e8f1ff" stroke="#2b6cb0" stroke-width="1.6" d="M992,-252C992,-252 851,-252 851,-252 845,-252 839,-246 839,-240 839,-240 839,-228 839,-228 839,-222 845,-216 851,-216 851,-216 992,-216 992,-216 998,-216 1004,-222 1004,-228 1004,-228 1004,-240 1004,-240 1004,-246 998,-252 992,-252"/>
<text text-anchor="middle" x="921.5" y="-230.9" font-family="Helvetica,sans-Serif" font-size="12.00" fill="#1a365d">Attribute Quantity Value</text>
</g>
<!-- https://w3id.org/sdata/core/Data -->
<g id="node8" class="node">
<title>https://w3id.org/sdata/core/Data</title>
<path fill="#e8f1ff" stroke="#2b6cb0" stroke-width="1.6" d="M1070.5,-144C1070.5,-144 1040.5,-144 1040.5,-144 1034.5,-144 1028.5,-138 1028.5,-132 1028.5,-132 1028.5,-120 1028.5,-120 1028.5,-114 1034.5,-108 1040.5,-108 1040.5,-108 1070.5,-108 1070.5,-108 1076.5,-108 1082.5,-114 1082.5,-120 1082.5,-120 1082.5,-132 1082.5,-132 1082.5,-138 1076.5,-144 1070.5,-144"/>
<text text-anchor="middle" x="1055.5" y="-122.9" font-family="Helvetica,sans-Serif" font-size="12.00" fill="#1a365d">Data</text>
</g>
<!-- https://w3id.org/sdata/core/Hardware -->
<g id="node9" class="node">
<title>https://w3id.org/sdata/core/Hardware</title>
<path fill="#e8f1ff" stroke="#2b6cb0" stroke-width="1.6" d="M1188.5,-144C1188.5,-144 1134.5,-144 1134.5,-144 1128.5,-144 1122.5,-138 1122.5,-132 1122.5,-132 1122.5,-120 1122.5,-120 1122.5,-114 1128.5,-108 1134.5,-108 1134.5,-108 1188.5,-108 1188.5,-108 1194.5,-108 1200.5,-114 1200.5,-120 1200.5,-120 1200.5,-132 1200.5,-132 1200.5,-138 1194.5,-144 1188.5,-144"/>
<text text-anchor="middle" x="1161.5" y="-122.9" font-family="Helvetica,sans-Serif" font-size="12.00" fill="#1a365d">Hardware</text>
</g>
<!-- https://w3id.org/sdata/core/Material -->
<g id="node10" class="node">
<title>https://w3id.org/sdata/core/Material</title>
<path fill="#e8f1ff" stroke="#2b6cb0" stroke-width="1.6" d="M1298,-144C1298,-144 1253,-144 1253,-144 1247,-144 1241,-138 1241,-132 1241,-132 1241,-120 1241,-120 1241,-114 1247,-108 1253,-108 1253,-108 1298,-108 1298,-108 1304,-108 1310,-114 1310,-120 1310,-120 1310,-132 1310,-132 1310,-138 1304,-144 1298,-144"/>
<text text-anchor="middle" x="1275.5" y="-122.9" font-family="Helvetica,sans-Serif" font-size="12.00" fill="#1a365d">Material</text>
</g>
<!-- https://w3id.org/sdata/core/Object -->
<g id="node11" class="node">
<title>https://w3id.org/sdata/core/Object</title>
<path fill="#e8f1ff" stroke="#2b6cb0" stroke-width="1.6" d="M1293.5,-252C1293.5,-252 1257.5,-252 1257.5,-252 1251.5,-252 1245.5,-246 1245.5,-240 1245.5,-240 1245.5,-228 1245.5,-228 1245.5,-222 1251.5,-216 1257.5,-216 1257.5,-216 1293.5,-216 1293.5,-216 1299.5,-216 1305.5,-222 1305.5,-228 1305.5,-228 1305.5,-240 1305.5,-240 1305.5,-246 1299.5,-252 1293.5,-252"/>
<text text-anchor="middle" x="1275.5" y="-230.9" font-family="Helvetica,sans-Serif" font-size="12.00" fill="#1a365d">Object</text>
</g>
<!-- https://w3id.org/sdata/core/Object&#45;&gt;https://w3id.org/sdata/core/Data -->
<g id="edge6" class="edge">
<title>https://w3id.org/sdata/core/Object&#45;&gt;https://w3id.org/sdata/core/Data</title>
<path fill="none" stroke="#4a5568" stroke-width="1.6" d="M1245.37,-218.48C1204.91,-198.99 1133.16,-164.42 1090.4,-143.81"/>
<polygon fill="#4a5568" stroke="#4a5568" stroke-width="1.6" points="1091.45,-141.02 1082.51,-140.01 1088.87,-146.38 1091.45,-141.02"/>
</g>
<!-- https://w3id.org/sdata/core/Object&#45;&gt;https://w3id.org/sdata/core/Hardware -->
<g id="edge7" class="edge">
<title>https://w3id.org/sdata/core/Object&#45;&gt;https://w3id.org/sdata/core/Hardware</title>
<path fill="none" stroke="#4a5568" stroke-width="1.6" d="M1257.18,-215.97C1238.02,-198.15 1207.81,-170.06 1186.47,-150.21"/>
<polygon fill="#4a5568" stroke="#4a5568" stroke-width="1.6" points="1188.4,-147.95 1180.15,-144.34 1184.35,-152.31 1188.4,-147.95"/>
</g>
<!-- https://w3id.org/sdata/core/Object&#45;&gt;https://w3id.org/sdata/core/Material -->
<g id="edge8" class="edge">
<title>https://w3id.org/sdata/core/Object&#45;&gt;https://w3id.org/sdata/core/Material</title>
<path fill="none" stroke="#4a5568" stroke-width="1.6" d="M1275.5,-215.97C1275.5,-198.99 1275.5,-172.7 1275.5,-153.09"/>
<polygon fill="#4a5568" stroke="#4a5568" stroke-width="1.6" points="1278.48,-152.84 1275.5,-144.34 1272.53,-152.84 1278.48,-152.84"/>
</g>
<!-- https://w3id.org/sdata/core/Product -->
<g id="node12" class="node">
<title>https://w3id.org/sdata/core/Product</title>
<path fill="#e8f1ff" stroke="#2b6cb0" stroke-width="1.6" d="M1404.5,-144C1404.5,-144 1362.5,-144 1362.5,-144 1356.5,-144 1350.5,-138 1350.5,-132 1350.5,-132 1350.5,-120 1350.5,-120 1350.5,-114 1356.5,-108 1362.5,-108 1362.5,-108 1404.5,-108 1404.5,-108 1410.5,-108 1416.5,-114 1416.5,-120 1416.5,-120 1416.5,-132 1416.5,-132 1416.5,-138 1410.5,-144 1404.5,-144"/>
<text text-anchor="middle" x="1383.5" y="-122.9" font-family="Helvetica,sans-Serif" font-size="12.00" fill="#1a365d">Product</text>
</g>
<!-- https://w3id.org/sdata/core/Object&#45;&gt;https://w3id.org/sdata/core/Product -->
<g id="edge9" class="edge">
<title>https://w3id.org/sdata/core/Object&#45;&gt;https://w3id.org/sdata/core/Product</title>
<path fill="none" stroke="#4a5568" stroke-width="1.6" d="M1292.85,-215.97C1310.93,-198.23 1339.38,-170.3 1359.59,-150.47"/>
<polygon fill="#4a5568" stroke="#4a5568" stroke-width="1.6" points="1361.85,-152.42 1365.83,-144.34 1357.68,-148.17 1361.85,-152.42"/>
</g>
<!-- https://w3id.org/sdata/core/Software -->
<g id="node13" class="node">
<title>https://w3id.org/sdata/core/Software</title>
<path fill="#e8f1ff" stroke="#2b6cb0" stroke-width="1.6" d="M1518,-144C1518,-144 1469,-144 1469,-144 1463,-144 1457,-138 1457,-132 1457,-132 1457,-120 1457,-120 1457,-114 1463,-108 1469,-108 1469,-108 1518,-108 1518,-108 1524,-108 1530,-114 1530,-120 1530,-120 1530,-132 1530,-132 1530,-138 1524,-144 1518,-144"/>
<text text-anchor="middle" x="1493.5" y="-122.9" font-family="Helvetica,sans-Serif" font-size="12.00" fill="#1a365d">Software</text>
</g>
<!-- https://w3id.org/sdata/core/Object&#45;&gt;https://w3id.org/sdata/core/Software -->
<g id="edge10" class="edge">
<title>https://w3id.org/sdata/core/Object&#45;&gt;https://w3id.org/sdata/core/Software</title>
<path fill="none" stroke="#4a5568" stroke-width="1.6" d="M1305.81,-218.26C1343.48,-199.95 1407.99,-168.58 1450.69,-147.82"/>
<polygon fill="#4a5568" stroke="#4a5568" stroke-width="1.6" points="1452.06,-150.46 1458.4,-144.07 1449.45,-145.11 1452.06,-150.46"/>
</g>
<!-- https://w3id.org/sdata/core/Process -->
<g id="node14" class="node">
<title>https://w3id.org/sdata/core/Process</title>
<path fill="#e8f1ff" stroke="#2b6cb0" stroke-width="1.6" d="M976.5,-144C976.5,-144 934.5,-144 934.5,-144 928.5,-144 922.5,-138 922.5,-132 922.5,-132 922.5,-120 922.5,-120 922.5,-114 928.5,-108 934.5,-108 934.5,-108 976.5,-108 976.5,-108 982.5,-108 988.5,-114 988.5,-120 988.5,-120 988.5,-132 988.5,-132 988.5,-138 982.5,-144 976.5,-144"/>
<text text-anchor="middle" x="955.5" y="-122.9" font-family="Helvetica,sans-Serif" font-size="12.00" fill="#1a365d">Process</text>
</g>
<!-- https://w3id.org/sdata/core/Process&#45;&gt;https://w3id.org/sdata/core/Creation -->
<g id="edge11" class="edge">
<title>https://w3id.org/sdata/core/Process&#45;&gt;https://w3id.org/sdata/core/Creation</title>
<path fill="none" stroke="#4a5568" stroke-width="1.6" d="M922.04,-116.38C862.19,-100.88 732.91,-67.02 624.5,-36 620.61,-34.89 616.58,-33.71 612.55,-32.52"/>
<polygon fill="#4a5568" stroke="#4a5568" stroke-width="1.6" points="613.29,-29.63 604.3,-30.05 611.59,-35.34 613.29,-29.63"/>
</g>
<!-- https://w3id.org/sdata/core/Destruction -->
<g id="node15" class="node">
<title>https://w3id.org/sdata/core/Destruction</title>
<path fill="#eef8e7" stroke="#4f8a10" stroke-width="1.6" d="M722.5,-36C722.5,-36 656.5,-36 656.5,-36 650.5,-36 644.5,-30 644.5,-24 644.5,-24 644.5,-12 644.5,-12 644.5,-6 650.5,0 656.5,0 656.5,0 722.5,0 722.5,0 728.5,0 734.5,-6 734.5,-12 734.5,-12 734.5,-24 734.5,-24 734.5,-30 728.5,-36 722.5,-36"/>
<text text-anchor="middle" x="689.5" y="-14.9" font-family="Helvetica,sans-Serif" font-size="12.00" fill="#2f5d08">Destruction</text>
</g>
<!-- https://w3id.org/sdata/core/Process&#45;&gt;https://w3id.org/sdata/core/Destruction -->
<g id="edge12" class="edge">
<title>https://w3id.org/sdata/core/Process&#45;&gt;https://w3id.org/sdata/core/Destruction</title>
<path fill="none" stroke="#4a5568" stroke-width="1.6" d="M922.35,-111.79C876.65,-93.58 793.88,-60.59 740.33,-39.25"/>
<polygon fill="#4a5568" stroke="#4a5568" stroke-width="1.6" points="741.32,-36.45 732.32,-36.06 739.12,-41.97 741.32,-36.45"/>
</g>
<!-- https://w3id.org/sdata/core/Observation -->
<g id="node16" class="node">
<title>https://w3id.org/sdata/core/Observation</title>
<path fill="#eef8e7" stroke="#4f8a10" stroke-width="1.6" d="M856,-36C856,-36 787,-36 787,-36 781,-36 775,-30 775,-24 775,-24 775,-12 775,-12 775,-6 781,0 787,0 787,0 856,0 856,0 862,0 868,-6 868,-12 868,-12 868,-24 868,-24 868,-30 862,-36 856,-36"/>
<text text-anchor="middle" x="821.5" y="-14.9" font-family="Helvetica,sans-Serif" font-size="12.00" fill="#2f5d08">Observation</text>
</g>
<!-- https://w3id.org/sdata/core/Process&#45;&gt;https://w3id.org/sdata/core/Observation -->
<g id="edge13" class="edge">
<title>https://w3id.org/sdata/core/Process&#45;&gt;https://w3id.org/sdata/core/Observation</title>
<path fill="none" stroke="#4a5568" stroke-width="1.6" d="M933.97,-107.97C911.25,-90 875.32,-61.57 850.2,-41.7"/>
<polygon fill="#4a5568" stroke="#4a5568" stroke-width="1.6" points="851.93,-39.28 843.42,-36.34 848.24,-43.95 851.93,-39.28"/>
</g>
<!-- https://w3id.org/sdata/core/Preservation -->
<g id="node17" class="node">
<title>https://w3id.org/sdata/core/Preservation</title>
<path fill="#eef8e7" stroke="#4f8a10" stroke-width="1.6" d="M991,-36C991,-36 920,-36 920,-36 914,-36 908,-30 908,-24 908,-24 908,-12 908,-12 908,-6 914,0 920,0 920,0 991,0 991,0 997,0 1003,-6 1003,-12 1003,-12 1003,-24 1003,-24 1003,-30 997,-36 991,-36"/>
<text text-anchor="middle" x="955.5" y="-14.9" font-family="Helvetica,sans-Serif" font-size="12.00" fill="#2f5d08">Preservation</text>
</g>
<!-- https://w3id.org/sdata/core/Process&#45;&gt;https://w3id.org/sdata/core/Preservation -->
<g id="edge14" class="edge">
<title>https://w3id.org/sdata/core/Process&#45;&gt;https://w3id.org/sdata/core/Preservation</title>
<path fill="none" stroke="#4a5568" stroke-width="1.6" d="M955.5,-107.97C955.5,-90.99 955.5,-64.7 955.5,-45.09"/>
<polygon fill="#4a5568" stroke="#4a5568" stroke-width="1.6" points="958.48,-44.84 955.5,-36.34 952.53,-44.84 958.48,-44.84"/>
</g>
<!-- https://w3id.org/sdata/core/Recovery -->
<g id="node18" class="node">
<title>https://w3id.org/sdata/core/Recovery</title>
<path fill="#eef8e7" stroke="#4f8a10" stroke-width="1.6" d="M1107.5,-36C1107.5,-36 1055.5,-36 1055.5,-36 1049.5,-36 1043.5,-30 1043.5,-24 1043.5,-24 1043.5,-12 1043.5,-12 1043.5,-6 1049.5,0 1055.5,0 1055.5,0 1107.5,0 1107.5,0 1113.5,0 1119.5,-6 1119.5,-12 1119.5,-12 1119.5,-24 1119.5,-24 1119.5,-30 1113.5,-36 1107.5,-36"/>
<text text-anchor="middle" x="1081.5" y="-14.9" font-family="Helvetica,sans-Serif" font-size="12.00" fill="#2f5d08">Recovery</text>
</g>
<!-- https://w3id.org/sdata/core/Process&#45;&gt;https://w3id.org/sdata/core/Recovery -->
<g id="edge15" class="edge">
<title>https://w3id.org/sdata/core/Process&#45;&gt;https://w3id.org/sdata/core/Recovery</title>
<path fill="none" stroke="#4a5568" stroke-width="1.6" d="M975.74,-107.97C997.02,-90.07 1030.61,-61.81 1054.21,-41.96"/>
<polygon fill="#4a5568" stroke="#4a5568" stroke-width="1.6" points="1056.3,-44.09 1060.89,-36.34 1052.47,-39.54 1056.3,-44.09"/>
</g>
<!-- https://w3id.org/sdata/core/Transfer -->
<g id="node19" class="node">
<title>https://w3id.org/sdata/core/Transfer</title>
<path fill="#eef8e7" stroke="#4f8a10" stroke-width="1.6" d="M1217,-36C1217,-36 1172,-36 1172,-36 1166,-36 1160,-30 1160,-24 1160,-24 1160,-12 1160,-12 1160,-6 1166,0 1172,0 1172,0 1217,0 1217,0 1223,0 1229,-6 1229,-12 1229,-12 1229,-24 1229,-24 1229,-30 1223,-36 1217,-36"/>
<text text-anchor="middle" x="1194.5" y="-14.9" font-family="Helvetica,sans-Serif" font-size="12.00" fill="#2f5d08">Transfer</text>
</g>
<!-- https://w3id.org/sdata/core/Process&#45;&gt;https://w3id.org/sdata/core/Transfer -->
<g id="edge16" class="edge">
<title>https://w3id.org/sdata/core/Process&#45;&gt;https://w3id.org/sdata/core/Transfer</title>
<path fill="none" stroke="#4a5568" stroke-width="1.6" d="M988.73,-110.26C1031.29,-91.39 1105.11,-58.65 1151.79,-37.94"/>
<polygon fill="#4a5568" stroke="#4a5568" stroke-width="1.6" points="1153.05,-40.64 1159.61,-34.47 1150.64,-35.2 1153.05,-40.64"/>
</g>
<!-- https://w3id.org/sdata/core/Transformation -->
<g id="node20" class="node">
<title>https://w3id.org/sdata/core/Transformation</title>
<path fill="#eef8e7" stroke="#4f8a10" stroke-width="1.6" d="M1368,-36C1368,-36 1281,-36 1281,-36 1275,-36 1269,-30 1269,-24 1269,-24 1269,-12 1269,-12 1269,-6 1275,0 1281,0 1281,0 1368,0 1368,0 1374,0 1380,-6 1380,-12 1380,-12 1380,-24 1380,-24 1380,-30 1374,-36 1368,-36"/>
<text text-anchor="middle" x="1324.5" y="-14.9" font-family="Helvetica,sans-Serif" font-size="12.00" fill="#2f5d08">Transformation</text>
</g>
<!-- https://w3id.org/sdata/core/Process&#45;&gt;https://w3id.org/sdata/core/Transformation -->
<g id="edge17" class="edge">
<title>https://w3id.org/sdata/core/Process&#45;&gt;https://w3id.org/sdata/core/Transformation</title>
<path fill="none" stroke="#4a5568" stroke-width="1.6" d="M988.52,-114.21C995.13,-112.1 1002.02,-109.95 1008.5,-108 1095.46,-81.82 1196.6,-53.75 1260.57,-36.28"/>
<polygon fill="#4a5568" stroke="#4a5568" stroke-width="1.6" points="1261.54,-39.1 1268.95,-34 1259.97,-33.36 1261.54,-39.1"/>
</g>
<!-- https://w3id.org/sdata/core/ValueDomain -->
<g id="node21" class="node">
<title>https://w3id.org/sdata/core/ValueDomain</title>
<path fill="#e8f1ff" stroke="#2b6cb0" stroke-width="1.6" d="M1437.5,-252C1437.5,-252 1357.5,-252 1357.5,-252 1351.5,-252 1345.5,-246 1345.5,-240 1345.5,-240 1345.5,-228 1345.5,-228 1345.5,-222 1351.5,-216 1357.5,-216 1357.5,-216 1437.5,-216 1437.5,-216 1443.5,-216 1449.5,-222 1449.5,-228 1449.5,-228 1449.5,-240 1449.5,-240 1449.5,-246 1443.5,-252 1437.5,-252"/>
<text text-anchor="middle" x="1397.5" y="-230.9" font-family="Helvetica,sans-Serif" font-size="12.00" fill="#1a365d">Value Domain</text>
</g>
</g>
</svg>
