<?xml version="1.0" encoding="UTF-8" standalone="no"?>
<!DOCTYPE svg PUBLIC "-//W3C//DTD SVG 1.1//EN"
 "http://www.w3.org/Graphics/SVG/1.1/DTD/svg11.dtd">
<!-- Generated by graphviz version 2.43.0 (0)
 -->
<!-- Pages: 1 -->
<svg width="1334pt" height="394pt"
 viewBox="0.00 0.00 1334.40 394.40" xmlns="http://www.w3.org/2000/svg" xmlns:xlink="http://www.w3.org/1999/xlink">
<g id="graph0" class="graph" transform="scale(1 1) rotate(0) translate(25.2 369.2)">
<polygon fill="#fafbfc" stroke="transparent" points="-25.2,25.2 -25.2,-369.2 1309.2,-369.2 1309.2,25.2 -25.2,25.2"/>
<text text-anchor="middle" x="642" y="-324" font-family="Helvetica,sans-Serif" font-size="20.00">sdata Core + Processtypes Hierarchy</text>
<g id="clust1" class="cluster">
<title>cluster_core</title>
<path fill="#fafbfc" stroke="#90b5e8" d="M20,-116C20,-116 1167,-116 1167,-116 1173,-116 1179,-122 1179,-128 1179,-128 1179,-294 1179,-294 1179,-300 1173,-306 1167,-306 1167,-306 20,-306 20,-306 14,-306 8,-300 8,-294 8,-294 8,-128 8,-128 8,-122 14,-116 20,-116"/>
<text text-anchor="middle" x="593.5" y="-286" font-family="Helvetica,sans-Serif" font-size="20.00">sdata&#45;core classes</text>
</g>
<g id="clust2" class="cluster">
<title>cluster_proc</title>
<path fill="#fafbfc" stroke="#b6d7a8" d="M425,-8C425,-8 1264,-8 1264,-8 1270,-8 1276,-14 1276,-20 1276,-20 1276,-78 1276,-78 1276,-84 1270,-90 1264,-90 1264,-90 425,-90 425,-90 419,-90 413,-84 413,-78 413,-78 413,-20 413,-20 413,-14 419,-8 425,-8"/>
<text text-anchor="middle" x="844.5" y="-70" font-family="Helvetica,sans-Serif" font-size="20.00">sdata&#45;processtypes classes</text>
</g>
<!-- https://w3id.org/sdata/core/Agent -->
<g id="node1" class="node">
<title>https://w3id.org/sdata/core/Agent</title>
<path fill="#e8f1ff" stroke="#2b6cb0" stroke-width="1.6" d="M1159,-268C1159,-268 1127,-268 1127,-268 1121,-268 1115,-262 1115,-256 1115,-256 1115,-244 1115,-244 1115,-238 1121,-232 1127,-232 1127,-232 1159,-232 1159,-232 1165,-232 1171,-238 1171,-244 1171,-244 1171,-256 1171,-256 1171,-262 1165,-268 1159,-268"/>
<text text-anchor="middle" x="1143" y="-246.9" font-family="Helvetica,sans-Serif" font-size="12.00" fill="#1a365d">Agent</text>
</g>
<!-- https://w3id.org/sdata/core/HardwareAgent -->
<g id="node5" class="node">
<title>https://w3id.org/sdata/core/HardwareAgent</title>
<path fill="#e8f1ff" stroke="#2b6cb0" stroke-width="1.6" d="M768.5,-160C768.5,-160 675.5,-160 675.5,-160 669.5,-160 663.5,-154 663.5,-148 663.5,-148 663.5,-136 663.5,-136 663.5,-130 669.5,-124 675.5,-124 675.5,-124 768.5,-124 768.5,-124 774.5,-124 780.5,-130 780.5,-136 780.5,-136 780.5,-148 780.5,-148 780.5,-154 774.5,-160 768.5,-160"/>
<text text-anchor="middle" x="722" y="-138.9" font-family="Helvetica,sans-Serif" font-size="12.00" fill="#1a365d">Hardware Agent</text>
</g>
<!-- https://w3id.org/sdata/core/Agent&#45;&gt;https://w3id.org/sdata/core/HardwareAgent -->
<g id="edge1" class="edge">
<title>https://w3id.org/sdata/core/Agent&#45;&gt;https://w3id.org/sdata/core/HardwareAgent</title>
<path fill="none" stroke="#4a5568" stroke-width="1.6" d="M1114.72,-241.88C1048.69,-225.25 882.84,-183.5 789.15,-159.91"/>
<polygon fill="#4a5568" stroke="#4a5568" stroke-width="1.6" points="789.84,-157.01 780.87,-157.82 788.39,-162.78 789.84,-157.01"/>
</g>
<!-- https://w3id.org/sdata/core/Organization -->
<g id="node8" class="node">
<title>https://w3id.org/sdata/core/Organization</title>
<path fill="#e8f1ff" stroke="#2b6cb0" stroke-width="1.6" d="M905,-160C905,-160 833,-160 833,-160 827,-160 821,-154 821,-148 821,-148 821,-136 821,-136 821,-130 827,-124 833,-124 833,-124 905,-124 905,-124 911,-124 917,-130 917,-136 917,-136 917,-148 917,-148 917,-154 911,-160 905,-160"/>
<text text-anchor="middle" x="869" y="-138.9" font-family="Helvetica,sans-Serif" font-size="12.00" fill="#1a365d">Organization</text>
</g>
<!-- https://w3id.org/sdata/core/Agent&#45;&gt;https://w3id.org/sdata/core/Organization -->
<g id="edge2" class="edge">
<title>https://w3id.org/sdata/core/Agent&#45;&gt;https://w3id.org/sdata/core/Organization</title>
<path fill="none" stroke="#4a5568" stroke-width="1.6" d="M1114.96,-238.15C1069.46,-220.55 978.84,-185.49 921.21,-163.2"/>
<polygon fill="#4a5568" stroke="#4a5568" stroke-width="1.6" points="921.95,-160.3 912.95,-160 919.81,-165.85 921.95,-160.3"/>
</g>
<!-- https://w3id.org/sdata/core/Person -->
<g id="node9" class="node">
<title>https://w3id.org/sdata/core/Person</title>
<path fill="#e8f1ff" stroke="#2b6cb0" stroke-width="1.6" d="M1006.5,-160C1006.5,-160 969.5,-160 969.5,-160 963.5,-160 957.5,-154 957.5,-148 957.5,-148 957.5,-136 957.5,-136 957.5,-130 963.5,-124 969.5,-124 969.5,-124 1006.5,-124 1006.5,-124 1012.5,-124 1018.5,-130 1018.5,-136 1018.5,-136 1018.5,-148 1018.5,-148 1018.5,-154 1012.5,-160 1006.5,-160"/>
<text text-anchor="middle" x="988" y="-138.9" font-family="Helvetica,sans-Serif" font-size="12.00" fill="#1a365d">Person</text>
</g>
<!-- https://w3id.org/sdata/core/Agent&#45;&gt;https://w3id.org/sdata/core/Person -->
<g id="edge3" class="edge">
<title>https://w3id.org/sdata/core/Agent&#45;&gt;https://w3id.org/sdata/core/Person</title>
<path fill="none" stroke="#4a5568" stroke-width="1.6" d="M1118.1,-231.97C1091.51,-213.79 1049.29,-184.91 1020.2,-165.02"/>
<polygon fill="#4a5568" stroke="#4a5568" stroke-width="1.6" points="1021.79,-162.51 1013.1,-160.16 1018.44,-167.42 1021.79,-162.51"/>
</g>
<!-- https://w3id.org/sdata/core/SoftwareAgent -->
<g id="node13" class="node">
<title>https://w3id.org/sdata/core/SoftwareAgent</title>
<path fill="#e8f1ff" stroke="#2b6cb0" stroke-width="1.6" d="M1159,-160C1159,-160 1071,-160 1071,-160 1065,-160 1059,-154 1059,-148 1059,-148 1059,-136 1059,-136 1059,-130 1065,-124 1071,-124 1071,-124 1159,-124 1159,-124 1165,-124 1171,-130 1171,-136 1171,-136 1171,-148 1171,-148 1171,-154 1165,-160 1159,-160"/>
<text text-anchor="middle" x="1115" y="-138.9" font-family="Helvetica,sans-Serif" font-size="12.00" fill="#1a365d">Software Agent</text>
</g>
<!-- https://w3id.org/sdata/core/Agent&#45;&gt;https://w3id.org/sdata/core/SoftwareAgent -->
<g id="edge4" class="edge">
<title>https://w3id.org/sdata/core/Agent&#45;&gt;https://w3id.org/sdata/core/SoftwareAgent</title>
<path fill="none" stroke="#4a5568" stroke-width="1.6" d="M1138.5,-231.97C1133.98,-214.84 1126.95,-188.22 1121.75,-168.56"/>
<polygon fill="#4a5568" stroke="#4a5568" stroke-width="1.6" points="1124.63,-167.8 1119.58,-160.34 1118.88,-169.32 1124.63,-167.8"/>
</g>
<!-- https://w3id.org/sdata/core/Creation -->
<g id="node15" class="node">
<title>https://w3id.org/sdata/core/Creation</title>
<path fill="#eef8e7" stroke="#4f8a10" stroke-width="1.6" d="M1255.5,-52C1255.5,-52 1208.5,-52 1208.5,-52 1202.5,-52 1196.5,-46 1196.5,-40 1196.5,-40 1196.5,-28 1196.5,-28 1196.5,-22 1202.5,-16 1208.5,-16 1208.5,-16 1255.5,-16 1255.5,-16 1261.5,-16 1267.5,-22 1267.5,-28 1267.5,-28 1267.5,-40 1267.5,-40 1267.5,-46 1261.5,-52 1255.5,-52"/>
<text text-anchor="middle" x="1232" y="-30.9" font-family="Helvetica,sans-Serif" font-size="12.00" fill="#2f5d08">Creation</text>
</g>
<!-- https://w3id.org/sdata/core/Agent&#45;&gt;https://w3id.org/sdata/core/Creation -->
<!-- https://w3id.org/sdata/core/AttributeQuantityValue -->
<g id="node2" class="node">
<title>https://w3id.org/sdata/core/AttributeQuantityValue</title>
<path fill="#e8f1ff" stroke="#2b6cb0" stroke-width="1.6" d="M827.5,-268C827.5,-268 686.5,-268 686.5,-268 680.5,-268 674.5,-262 674.5,-256 674.5,-256 674.5,-244 674.5,-244 674.5,-238 680.5,-232 686.5,-232 686.5,-232 827.5,-232 827.5,-232 833.5,-232 839.5,-238 839.5,-244 839.5,-244 839.5,-256 839.5,-256 839.5,-262 833.5,-268 827.5,-268"/>
<text text-anchor="middle" x="757" y="-246.9" font-family="Helvetica,sans-Serif" font-size="12.00" fill="#1a365d">Attribute Quantity Value</text>
</g>
<!-- https://w3id.org/sdata/core/Data -->
<g id="node3" class="node">
<title>https://w3id.org/sdata/core/Data</title>
<path fill="#e8f1ff" stroke="#2b6cb0" stroke-width="1.6" d="M164,-160C164,-160 134,-160 134,-160 128,-160 122,-154 122,-148 122,-148 122,-136 122,-136 122,-130 128,-124 134,-124 134,-124 164,-124 164,-124 170,-124 176,-130 176,-136 176,-136 176,-148 176,-148 176,-154 170,-160 164,-160"/>
<text text-anchor="middle" x="149" y="-138.9" font-family="Helvetica,sans-Serif" font-size="12.00" fill="#1a365d">Data</text>
</g>
<!-- https://w3id.org/sdata/core/Hardware -->
<g id="node4" class="node">
<title>https://w3id.org/sdata/core/Hardware</title>
<path fill="#e8f1ff" stroke="#2b6cb0" stroke-width="1.6" d="M282,-160C282,-160 228,-160 228,-160 222,-160 216,-154 216,-148 216,-148 216,-136 216,-136 216,-130 222,-124 228,-124 228,-124 282,-124 282,-124 288,-124 294,-130 294,-136 294,-136 294,-148 294,-148 294,-154 288,-160 282,-160"/>
<text text-anchor="middle" x="255" y="-138.9" font-family="Helvetica,sans-Serif" font-size="12.00" fill="#1a365d">Hardware</text>
</g>
<!-- https://w3id.org/sdata/core/Material -->
<g id="node6" class="node">
<title>https://w3id.org/sdata/core/Material</title>
<path fill="#e8f1ff" stroke="#2b6cb0" stroke-width="1.6" d="M391.5,-160C391.5,-160 346.5,-160 346.5,-160 340.5,-160 334.5,-154 334.5,-148 334.5,-148 334.5,-136 334.5,-136 334.5,-130 340.5,-124 346.5,-124 346.5,-124 391.5,-124 391.5,-124 397.5,-124 403.5,-130 403.5,-136 403.5,-136 403.5,-148 403.5,-148 403.5,-154 397.5,-160 391.5,-160"/>
<text text-anchor="middle" x="369" y="-138.9" font-family="Helvetica,sans-Serif" font-size="12.00" fill="#1a365d">Material</text>
</g>
<!-- https://w3id.org/sdata/core/Object -->
<g id="node7" class="node">
<title>https://w3id.org/sdata/core/Object</title>
<path fill="#e8f1ff" stroke="#2b6cb0" stroke-width="1.6" d="M387,-268C387,-268 351,-268 351,-268 345,-268 339,-262 339,-256 339,-256 339,-244 339,-244 339,-238 345,-232 351,-232 351,-232 387,-232 387,-232 393,-232 399,-238 399,-244 399,-244 399,-256 399,-256 399,-262 393,-268 387,-268"/>
<text text-anchor="middle" x="369" y="-246.9" font-family="Helvetica,sans-Serif" font-size="12.00" fill="#1a365d">Object</text>
</g>
<!-- https://w3id.org/sdata/core/Object&#45;&gt;https://w3id.org/sdata/core/Data -->
<g id="edge6" class="edge">
<title>https://w3id.org/sdata/core/Object&#45;&gt;https://w3id.org/sdata/core/Data</title>
<path fill="none" stroke="#4a5568" stroke-width="1.6" d="M338.87,-234.48C298.41,-214.99 226.66,-180.42 183.9,-159.81"/>
<polygon fill="#4a5568" stroke="#4a5568" stroke-width="1.6" points="184.95,-157.02 176.01,-156.01 182.37,-162.38 184.95,-157.02"/>
</g>
<!-- https://w3id.org/sdata/core/Object&#45;&gt;https://w3id.org/sdata/core/Hardware -->
<g id="edge7" class="edge">
<title>https://w3id.org/sdata/core/Object&#45;&gt;https://w3id.org/sdata/core/Hardware</title>
<path fill="none" stroke="#4a5568" stroke-width="1.6" d="M350.68,-231.97C331.52,-214.15 301.31,-186.06 279.97,-166.21"/>
<polygon fill="#4a5568" stroke="#4a5568" stroke-width="1.6" points="281.9,-163.95 273.65,-160.34 277.85,-168.31 281.9,-163.95"/>
</g>
<!-- https://w3id.org/sdata/core/Object&#45;&gt;https://w3id.org/sdata/core/Material -->
<g id="edge8" class="edge">
<title>https://w3id.org/sdata/core/Object&#45;&gt;https://w3id.org/sdata/core/Material</title>
<path fill="none" stroke="#4a5568" stroke-width="1.6" d="M369,-231.97C369,-214.99 369,-188.7 369,-169.09"/>
<polygon fill="#4a5568" stroke="#4a5568" stroke-width="1.6" points="371.98,-168.84 369,-160.34 366.03,-168.84 371.98,-168.84"/>
</g>
<!-- https://w3id.org/sdata/core/Product -->
<g id="node11" class="node">
<title>https://w3id.org/sdata/core/Product</title>
<path fill="#e8f1ff" stroke="#2b6cb0" stroke-width="1.6" d="M498,-160C498,-160 456,-160 456,-160 450,-160 444,-154 444,-148 444,-148 444,-136 444,-136 444,-130 450,-124 456,-124 456,-124 498,-124 498,-124 504,-124 510,-130 510,-136 510,-136 510,-148 510,-148 510,-154 504,-160 498,-160"/>
<text text-anchor="middle" x="477" y="-138.9" font-family="Helvetica,sans-Serif" font-size="12.00" fill="#1a365d">Product</text>
</g>
<!-- https://w3id.org/sdata/core/Object&#45;&gt;https://w3id.org/sdata/core/Product -->
<g id="edge9" class="edge">
<title>https://w3id.org/sdata/core/Object&#45;&gt;https://w3id.org/sdata/core/Product</title>
<path fill="none" stroke="#4a5568" stroke-width="1.6" d="M386.35,-231.97C404.43,-214.23 432.88,-186.3 453.09,-166.47"/>
<polygon fill="#4a5568" stroke="#4a5568" stroke-width="1.6" points="455.35,-168.42 459.33,-160.34 451.18,-164.17 455.35,-168.42"/>
</g>
<!-- https://w3id.org/sdata/core/Software -->
<g id="node12" class="node">
<title>https://w3id.org/sdata/core/Software</title>
<path fill="#e8f1ff" stroke="#2b6cb0" stroke-width="1.6" d="M611.5,-160C611.5,-160 562.5,-160 562.5,-160 556.5,-160 550.5,-154 550.5,-148 550.5,-148 550.5,-136 550.5,-136 550.5,-130 556.5,-124 562.5,-124 562.5,-124 611.5,-124 611.5,-124 617.5,-124 623.5,-130 623.5,-136 623.5,-136 623.5,-148 623.5,-148 623.5,-154 617.5,-160 611.5,-160"/>
<text text-anchor="middle" x="587" y="-138.9" font-family="Helvetica,sans-Serif" font-size="12.00" fill="#1a365d">Software</text>
</g>
<!-- https://w3id.org/sdata/core/Object&#45;&gt;https://w3id.org/sdata/core/Software -->
<g id="edge10" class="edge">
<title>https://w3id.org/sdata/core/Object&#45;&gt;https://w3id.org/sdata/core/Software</title>
<path fill="none" stroke="#4a5568" stroke-width="1.6" d="M399.31,-234.26C436.98,-215.95 501.49,-184.58 544.19,-163.82"/>
<polygon fill="#4a5568" stroke="#4a5568" stroke-width="1.6" points="545.56,-166.46 551.9,-160.07 542.95,-161.11 545.56,-166.46"/>
</g>
<!-- https://w3id.org/sdata/core/Process -->
<g id="node10" class="node">
<title>https://w3id.org/sdata/core/Process</title>
<path fill="#e8f1ff" stroke="#2b6cb0" stroke-width="1.6" d="M70,-160C70,-160 28,-160 28,-160 22,-160 16,-154 16,-148 16,-148 16,-136 16,-136 16,-130 22,-124 28,-124 28,-124 70,-124 70,-124 76,-124 82,-130 82,-136 82,-136 82,-148 82,-148 82,-154 76,-160 70,-160"/>
<text text-anchor="middle" x="49" y="-138.9" font-family="Helvetica,sans-Serif" font-size="12.00" fill="#1a365d">Process</text>
</g>
<!-- https://w3id.org/sdata/core/Process&#45;&gt;https://w3id.org/sdata/core/Creation -->
<g id="edge11" class="edge">
<title>https://w3id.org/sdata/core/Process&#45;&gt;https://w3id.org/sdata/core/Creation</title>
<path fill="none" stroke="#4a5568" stroke-width="1.6" d="M79.6,-123.94C86.75,-120.71 94.48,-117.78 102,-116 218.16,-88.5 1066.07,-136.52 1176,-90 1191.42,-83.47 1204.94,-70.54 1214.83,-58.85"/>
<polygon fill="#4a5568" stroke="#4a5568" stroke-width="1.6" points="1217.2,-60.66 1220.22,-52.18 1212.57,-56.92 1217.2,-60.66"/>
</g>
<!-- https://w3id.org/sdata/core/Destruction -->
<g id="node16" class="node">
<title>https://w3id.org/sdata/core/Destruction</title>
<path fill="#eef8e7" stroke="#4f8a10" stroke-width="1.6" d="M1144,-52C1144,-52 1078,-52 1078,-52 1072,-52 1066,-46 1066,-40 1066,-40 1066,-28 1066,-28 1066,-22 1072,-16 1078,-16 1078,-16 1144,-16 1144,-16 1150,-16 1156,-22 1156,-28 1156,-28 1156,-40 1156,-40 1156,-46 1150,-52 1144,-52"/>
<text text-anchor="middle" x="1111" y="-30.9" font-family="Helvetica,sans-Serif" font-size="12.00" fill="#2f5d08">Destruction</text>
</g>
<!-- https://w3id.org/sdata/core/Process&#45;&gt;https://w3id.org/sdata/core/Destruction -->
<g id="edge12" class="edge">
<title>https://w3id.org/sdata/core/Process&#45;&gt;https://w3id.org/sdata/core/Destruction</title>
<path fill="none" stroke="#4a5568" stroke-width="1.6" d="M79.61,-123.96C86.75,-120.73 94.48,-117.79 102,-116 204.07,-91.66 947.98,-127.44 1046,-90 1063.13,-83.46 1078.92,-70.34 1090.64,-58.56"/>
<polygon fill="#4a5568" stroke="#4a5568" stroke-width="1.6" points="1093,-60.4 1096.72,-52.2 1088.7,-56.29 1093,-60.4"/>
</g>
<!-- https://w3id.org/sdata/core/Observation -->
<g id="node17" class="node">
<title>https://w3id.org/sdata/core/Observation</title>
<path fill="#eef8e7" stroke="#4f8a10" stroke-width="1.6" d="M1013.5,-52C1013.5,-52 944.5,-52 944.5,-52 938.5,-52 932.5,-46 932.5,-40 932.5,-40 932.5,-28 932.5,-28 932.5,-22 938.5,-16 944.5,-16 944.5,-16 1013.5,-16 1013.5,-16 1019.5,-16 1025.5,-22 1025.5,-28 1025.5,-28 1025.5,-40 1025.5,-40 1025.5,-46 1019.5,-52 1013.5,-52"/>
<text text-anchor="middle" x="979" y="-30.9" font-family="Helvetica,sans-Serif" font-size="12.00" fill="#2f5d08">Observation</text>
</g>
<!-- https://w3id.org/sdata/core/Process&#45;&gt;https://w3id.org/sdata/core/Observation -->
<g id="edge13" class="edge">
<title>https://w3id.org/sdata/core/Process&#45;&gt;https://w3id.org/sdata/core/Observation</title>
<path fill="none" stroke="#4a5568" stroke-width="1.6" d="M79.61,-123.99C86.76,-120.75 94.48,-117.81 102,-116 277.08,-73.82 743.43,-153.39 912,-90 929.47,-83.43 945.74,-70.32 957.87,-58.54"/>
<polygon fill="#4a5568" stroke="#4a5568" stroke-width="1.6" points="960.3,-60.32 964.17,-52.19 956.07,-56.13 960.3,-60.32"/>
</g>
<!-- https://w3id.org/sdata/core/Preservation -->
<g id="node18" class="node">
<title>https://w3id.org/sdata/core/Preservation</title>
<path fill="#eef8e7" stroke="#4f8a10" stroke-width="1.6" d="M880.5,-52C880.5,-52 809.5,-52 809.5,-52 803.5,-52 797.5,-46 797.5,-40 797.5,-40 797.5,-28 797.5,-28 797.5,-22 803.5,-16 809.5,-16 809.5,-16 880.5,-16 880.5,-16 886.5,-16 892.5,-22 892.5,-28 892.5,-28 892.5,-40 892.5,-40 892.5,-46 886.5,-52 880.5,-52"/>
<text text-anchor="middle" x="845" y="-30.9" font-family="Helvetica,sans-Serif" font-size="12.00" fill="#2f5d08">Preservation</text>
</g>
<!-- https://w3id.org/sdata/core/Process&#45;&gt;https://w3id.org/sdata/core/Preservation -->
<g id="edge14" class="edge">
<title>https://w3id.org/sdata/core/Process&#45;&gt;https://w3id.org/sdata/core/Preservation</title>
<path fill="none" stroke="#4a5568" stroke-width="1.6" d="M79.9,-123.9C86.97,-120.71 94.59,-117.81 102,-116 247.82,-80.37 636.47,-142.78 777,-90 794.79,-83.32 811.44,-70.02 823.82,-58.17"/>
<polygon fill="#4a5568" stroke="#4a5568" stroke-width="1.6" points="825.94,-60.25 829.88,-52.15 821.75,-56.03 825.94,-60.25"/>
</g>
<!-- https://w3id.org/sdata/core/Recovery -->
<g id="node19" class="node">
<title>https://w3id.org/sdata/core/Recovery</title>
<path fill="#eef8e7" stroke="#4f8a10" stroke-width="1.6" d="M745,-52C745,-52 693,-52 693,-52 687,-52 681,-46 681,-40 681,-40 681,-28 681,-28 681,-22 687,-16 693,-16 693,-16 745,-16 745,-16 751,-16 757,-22 757,-28 757,-28 757,-40 757,-40 757,-46 751,-52 745,-52"/>
<text text-anchor="middle" x="719" y="-30.9" font-family="Helvetica,sans-Serif" font-size="12.00" fill="#2f5d08">Recovery</text>
</g>
<!-- https://w3id.org/sdata/core/Process&#45;&gt;https://w3id.org/sdata/core/Recovery -->
<g id="edge15" class="edge">
<title>https://w3id.org/sdata/core/Process&#45;&gt;https://w3id.org/sdata/core/Recovery</title>
<path fill="none" stroke="#4a5568" stroke-width="1.6" d="M79.91,-123.94C86.98,-120.75 94.6,-117.84 102,-116 222.47,-86.05 545.59,-138.16 660,-90 675.86,-83.32 690.09,-70.38 700.6,-58.73"/>
<polygon fill="#4a5568" stroke="#4a5568" stroke-width="1.6" points="703.04,-60.46 706.34,-52.08 698.53,-56.57 703.04,-60.46"/>
</g>
<!-- https://w3id.org/sdata/core/Transfer -->
<g id="node20" class="node">
<title>https://w3id.org/sdata/core/Transfer</title>
<path fill="#eef8e7" stroke="#4f8a10" stroke-width="1.6" d="M628.5,-52C628.5,-52 583.5,-52 583.5,-52 577.5,-52 571.5,-46 571.5,-40 571.5,-40 571.5,-28 571.5,-28 571.5,-22 577.5,-16 583.5,-16 583.5,-16 628.5,-16 628.5,-16 634.5,-16 640.5,-22 640.5,-28 640.5,-28 640.5,-40 640.5,-40 640.5,-46 634.5,-52 628.5,-52"/>
<text text-anchor="middle" x="606" y="-30.9" font-family="Helvetica,sans-Serif" font-size="12.00" fill="#2f5d08">Transfer</text>
</g>
<!-- https://w3id.org/sdata/core/Process&#45;&gt;https://w3id.org/sdata/core/Transfer -->
<g id="edge16" class="edge">
<title>https://w3id.org/sdata/core/Process&#45;&gt;https://w3id.org/sdata/core/Transfer</title>
<path fill="none" stroke="#4a5568" stroke-width="1.6" d="M80.21,-123.88C87.2,-120.73 94.7,-117.86 102,-116 198.86,-91.34 459.81,-130.9 551,-90 566,-83.27 579.17,-70.51 588.86,-58.97"/>
<polygon fill="#4a5568" stroke="#4a5568" stroke-width="1.6" points="591.44,-60.5 594.43,-52 586.8,-56.78 591.44,-60.5"/>
</g>
<!-- https://w3id.org/sdata/core/Transformation -->
<g id="node21" class="node">
<title>https://w3id.org/sdata/core/Transformation</title>
<path fill="#eef8e7" stroke="#4f8a10" stroke-width="1.6" d="M519.5,-52C519.5,-52 432.5,-52 432.5,-52 426.5,-52 420.5,-46 420.5,-40 420.5,-40 420.5,-28 420.5,-28 420.5,-22 426.5,-16 432.5,-16 432.5,-16 519.5,-16 519.5,-16 525.5,-16 531.5,-22 531.5,-28 531.5,-28 531.5,-40 531.5,-40 531.5,-46 525.5,-52 519.5,-52"/>
<text text-anchor="middle" x="476" y="-30.9" font-family="Helvetica,sans-Serif" font-size="12.00" fill="#2f5d08">Transformation</text>
</g>
<!-- https://w3id.org/sdata/core/Process&#45;&gt;https://w3id.org/sdata/core/Transformation -->
<g id="edge17" class="edge">
<title>https://w3id.org/sdata/core/Process&#45;&gt;https://w3id.org/sdata/core/Transformation</title>
<path fill="none" stroke="#4a5568" stroke-width="1.6" d="M82.17,-123.95C88.64,-121.03 95.45,-118.22 102,-116 208.02,-80.04 336.51,-56.33 411.95,-44.32"/>
<polygon fill="#4a5568" stroke="#4a5568" stroke-width="1.6" points="412.5,-47.24 420.43,-42.98 411.58,-41.36 412.5,-47.24"/>
</g>
<!-- https://w3id.org/sdata/core/ValueDomain -->
<g id="node14" class="node">
<title>https://w3id.org/sdata/core/ValueDomain</title>
<path fill="#e8f1ff" stroke="#2b6cb0" stroke-width="1.6" d="M198,-268C198,-268 118,-268 118,-268 112,-268 106,-262 106,-256 106,-256 106,-244 106,-244 106,-238 112,-232 118,-232 118,-232 198,-232 198,-232 204,-232 210,-238 210,-244 210,-244 210,-256 210,-256 210,-262 204,-268 198,-268"/>
<text text-anchor="middle" x="158" y="-246.9" font-family="Helvetica,sans-Serif" font-size="12.00" fill="#1a365d">Value Domain</text>
</g>
</g>
</svg>
