<?xml version="1.0" encoding="UTF-8" standalone="no"?>
<!DOCTYPE svg PUBLIC "-//W3C//DTD SVG 1.1//EN"
 "http://www.w3.org/Graphics/SVG/1.1/DTD/svg11.dtd">
<!-- Generated by graphviz version 2.43.0 (0)
 -->
<!-- Pages: 1 -->
<svg width="2545pt" height="406pt"
 viewBox="0.00 0.00 2545.40 406.40" xmlns="http://www.w3.org/2000/svg" xmlns:xlink="http://www.w3.org/1999/xlink">
<g id="graph0" class="graph" transform="scale(1 1) rotate(0) translate(25.2 381.2)">
<polygon fill="#fafbfc" stroke="transparent" points="-25.2,25.2 -25.2,-381.2 2520.2,-381.2 2520.2,25.2 -25.2,25.2"/>
<text text-anchor="middle" x="1247.5" y="-336" font-family="Helvetica,sans-Serif" font-size="20.00">sdata Core + Processtypes Hierarchy (autark core)</text>
<g id="clust1" class="cluster">
<title>cluster_core</title>
<path fill="#fafbfc" stroke="#90b5e8" d="M20,-109C20,-109 1707,-109 1707,-109 1713,-109 1719,-115 1719,-121 1719,-121 1719,-306 1719,-306 1719,-312 1713,-318 1707,-318 1707,-318 20,-318 20,-318 14,-318 8,-312 8,-306 8,-306 8,-121 8,-121 8,-115 14,-109 20,-109"/>
<text text-anchor="middle" x="863.5" y="-298" font-family="Helvetica,sans-Serif" font-size="20.00">sdata&#45;core classes</text>
</g>
<g id="clust2" class="cluster">
<title>cluster_core_dual_rank_MaterialSite</title>
</g>
<g id="clust3" class="cluster">
<title>cluster_core_dual_rank_MaterialProcess</title>
</g>
<g id="clust4" class="cluster">
<title>cluster_core_dual_rank_MaterialAgent</title>
</g>
<g id="clust5" class="cluster">
<title>cluster_core_dual_rank_MaterialArtifact</title>
</g>
<g id="clust6" class="cluster">
<title>cluster_core_dual_rank_Material</title>
</g>
<g id="clust7" class="cluster">
<title>cluster_proc</title>
<path fill="#fafbfc" stroke="#b6d7a8" d="M1748,-8C1748,-8 2475,-8 2475,-8 2481,-8 2487,-14 2487,-20 2487,-20 2487,-306 2487,-306 2487,-312 2481,-318 2475,-318 2475,-318 1748,-318 1748,-318 1742,-318 1736,-312 1736,-306 1736,-306 1736,-20 1736,-20 1736,-14 1742,-8 1748,-8"/>
<text text-anchor="middle" x="2111.5" y="-298" font-family="Helvetica,sans-Serif" font-size="20.00">sdata&#45;processtypes classes</text>
</g>
<!-- https://w3id.org/sdata/core/InformationSite -->
<g id="node1" class="node">
<title>https://w3id.org/sdata/core/InformationSite</title>
<path fill="#e8f1ff" stroke="#2b6cb0" stroke-width="1.6" d="M304.5,-161C304.5,-161 211.5,-161 211.5,-161 205.5,-161 199.5,-155 199.5,-149 199.5,-149 199.5,-137 199.5,-137 199.5,-131 205.5,-125 211.5,-125 211.5,-125 304.5,-125 304.5,-125 310.5,-125 316.5,-131 316.5,-137 316.5,-137 316.5,-149 316.5,-149 316.5,-155 310.5,-161 304.5,-161"/>
<text text-anchor="middle" x="258" y="-139.9" font-family="Helvetica,sans-Serif" font-size="12.00" fill="#1a365d">Information Site</text>
</g>
<!-- https://w3id.org/sdata/core/MaterialSite -->
<g id="node2" class="node">
<title>https://w3id.org/sdata/core/MaterialSite</title>
<path fill="#e8f1ff" stroke="#2b6cb0" stroke-width="1.6" d="M108,-161C108,-161 36,-161 36,-161 30,-161 24,-155 24,-149 24,-149 24,-137 24,-137 24,-131 30,-125 36,-125 36,-125 108,-125 108,-125 114,-125 120,-131 120,-137 120,-137 120,-149 120,-149 120,-155 114,-161 108,-161"/>
<text text-anchor="middle" x="72" y="-139.9" font-family="Helvetica,sans-Serif" font-size="12.00" fill="#1a365d">Material Site</text>
</g>
<!-- https://w3id.org/sdata/core/MaterialSite&#45;&gt;https://w3id.org/sdata/core/InformationSite -->
<g id="edge11" class="edge">
<title>https://w3id.org/sdata/core/MaterialSite&#45;&gt;https://w3id.org/sdata/core/InformationSite</title>
<path fill="none" stroke="#6b7280" stroke-width="1.6" stroke-dasharray="5,2" d="M120.38,-143C144.49,-143 173.85,-143 199.24,-143"/>
<text text-anchor="middle" x="159.75" y="-149.8" font-family="Helvetica,sans-Serif" font-size="14.00" fill="#6b7280">dual</text>
</g>
<!-- https://w3id.org/sdata/core/InformationProcess -->
<g id="node3" class="node">
<title>https://w3id.org/sdata/core/InformationProcess</title>
<path fill="#e8f1ff" stroke="#2b6cb0" stroke-width="1.6" d="M1412.5,-161C1412.5,-161 1297.5,-161 1297.5,-161 1291.5,-161 1285.5,-155 1285.5,-149 1285.5,-149 1285.5,-137 1285.5,-137 1285.5,-131 1291.5,-125 1297.5,-125 1297.5,-125 1412.5,-125 1412.5,-125 1418.5,-125 1424.5,-131 1424.5,-137 1424.5,-137 1424.5,-149 1424.5,-149 1424.5,-155 1418.5,-161 1412.5,-161"/>
<text text-anchor="middle" x="1355" y="-139.9" font-family="Helvetica,sans-Serif" font-size="12.00" fill="#1a365d">Information Process</text>
</g>
<!-- https://w3id.org/sdata/core/MaterialProcess -->
<g id="node4" class="node">
<title>https://w3id.org/sdata/core/MaterialProcess</title>
<path fill="#e8f1ff" stroke="#2b6cb0" stroke-width="1.6" d="M1194,-161C1194,-161 1100,-161 1100,-161 1094,-161 1088,-155 1088,-149 1088,-149 1088,-137 1088,-137 1088,-131 1094,-125 1100,-125 1100,-125 1194,-125 1194,-125 1200,-125 1206,-131 1206,-137 1206,-137 1206,-149 1206,-149 1206,-155 1200,-161 1194,-161"/>
<text text-anchor="middle" x="1147" y="-139.9" font-family="Helvetica,sans-Serif" font-size="12.00" fill="#1a365d">Material Process</text>
</g>
<!-- https://w3id.org/sdata/core/MaterialProcess&#45;&gt;https://w3id.org/sdata/core/InformationProcess -->
<g id="edge10" class="edge">
<title>https://w3id.org/sdata/core/MaterialProcess&#45;&gt;https://w3id.org/sdata/core/InformationProcess</title>
<path fill="none" stroke="#6b7280" stroke-width="1.6" stroke-dasharray="5,2" d="M1206.05,-143C1230.79,-143 1259.73,-143 1285.5,-143"/>
<text text-anchor="middle" x="1245.75" y="-149.8" font-family="Helvetica,sans-Serif" font-size="14.00" fill="#6b7280">dual</text>
</g>
<!-- https://w3id.org/sdata/core/InformationAgent -->
<g id="node5" class="node">
<title>https://w3id.org/sdata/core/InformationAgent</title>
<path fill="#e8f1ff" stroke="#2b6cb0" stroke-width="1.6" d="M1035.5,-161C1035.5,-161 930.5,-161 930.5,-161 924.5,-161 918.5,-155 918.5,-149 918.5,-149 918.5,-137 918.5,-137 918.5,-131 924.5,-125 930.5,-125 930.5,-125 1035.5,-125 1035.5,-125 1041.5,-125 1047.5,-131 1047.5,-137 1047.5,-137 1047.5,-149 1047.5,-149 1047.5,-155 1041.5,-161 1035.5,-161"/>
<text text-anchor="middle" x="983" y="-139.9" font-family="Helvetica,sans-Serif" font-size="12.00" fill="#1a365d">Information Agent</text>
</g>
<!-- https://w3id.org/sdata/core/MaterialAgent -->
<g id="node6" class="node">
<title>https://w3id.org/sdata/core/MaterialAgent</title>
<path fill="#e8f1ff" stroke="#2b6cb0" stroke-width="1.6" d="M827,-161C827,-161 743,-161 743,-161 737,-161 731,-155 731,-149 731,-149 731,-137 731,-137 731,-131 737,-125 743,-125 743,-125 827,-125 827,-125 833,-125 839,-131 839,-137 839,-137 839,-149 839,-149 839,-155 833,-161 827,-161"/>
<text text-anchor="middle" x="785" y="-139.9" font-family="Helvetica,sans-Serif" font-size="12.00" fill="#1a365d">Material Agent</text>
</g>
<!-- https://w3id.org/sdata/core/MaterialAgent&#45;&gt;https://w3id.org/sdata/core/InformationAgent -->
<g id="edge8" class="edge">
<title>https://w3id.org/sdata/core/MaterialAgent&#45;&gt;https://w3id.org/sdata/core/InformationAgent</title>
<path fill="none" stroke="#6b7280" stroke-width="1.6" stroke-dasharray="5,2" d="M839.1,-143C863.61,-143 892.77,-143 918.41,-143"/>
<text text-anchor="middle" x="878.75" y="-149.8" font-family="Helvetica,sans-Serif" font-size="14.00" fill="#6b7280">dual</text>
</g>
<!-- https://w3id.org/sdata/core/InformationArtifact -->
<g id="node7" class="node">
<title>https://w3id.org/sdata/core/InformationArtifact</title>
<path fill="#e8f1ff" stroke="#2b6cb0" stroke-width="1.6" d="M679,-161C679,-161 565,-161 565,-161 559,-161 553,-155 553,-149 553,-149 553,-137 553,-137 553,-131 559,-125 565,-125 565,-125 679,-125 679,-125 685,-125 691,-131 691,-137 691,-137 691,-149 691,-149 691,-155 685,-161 679,-161"/>
<text text-anchor="middle" x="622" y="-139.9" font-family="Helvetica,sans-Serif" font-size="12.00" fill="#1a365d">Information Artifact</text>
</g>
<!-- https://w3id.org/sdata/core/MaterialArtifact -->
<g id="node8" class="node">
<title>https://w3id.org/sdata/core/MaterialArtifact</title>
<path fill="#e8f1ff" stroke="#2b6cb0" stroke-width="1.6" d="M461.5,-161C461.5,-161 368.5,-161 368.5,-161 362.5,-161 356.5,-155 356.5,-149 356.5,-149 356.5,-137 356.5,-137 356.5,-131 362.5,-125 368.5,-125 368.5,-125 461.5,-125 461.5,-125 467.5,-125 473.5,-131 473.5,-137 473.5,-137 473.5,-149 473.5,-149 473.5,-155 467.5,-161 461.5,-161"/>
<text text-anchor="middle" x="415" y="-139.9" font-family="Helvetica,sans-Serif" font-size="12.00" fill="#1a365d">Material Artifact</text>
</g>
<!-- https://w3id.org/sdata/core/MaterialArtifact&#45;&gt;https://w3id.org/sdata/core/InformationArtifact -->
<g id="edge9" class="edge">
<title>https://w3id.org/sdata/core/MaterialArtifact&#45;&gt;https://w3id.org/sdata/core/InformationArtifact</title>
<path fill="none" stroke="#6b7280" stroke-width="1.6" stroke-dasharray="5,2" d="M473.76,-143C498.39,-143 527.19,-143 552.83,-143"/>
<text text-anchor="middle" x="513.25" y="-149.8" font-family="Helvetica,sans-Serif" font-size="14.00" fill="#6b7280">dual</text>
</g>
<!-- https://w3id.org/sdata/core/Information -->
<g id="node9" class="node">
<title>https://w3id.org/sdata/core/Information</title>
<path fill="#e8f1ff" stroke="#2b6cb0" stroke-width="1.6" d="M1691,-161C1691,-161 1625,-161 1625,-161 1619,-161 1613,-155 1613,-149 1613,-149 1613,-137 1613,-137 1613,-131 1619,-125 1625,-125 1625,-125 1691,-125 1691,-125 1697,-125 1703,-131 1703,-137 1703,-137 1703,-149 1703,-149 1703,-155 1697,-161 1691,-161"/>
<text text-anchor="middle" x="1658" y="-139.9" font-family="Helvetica,sans-Serif" font-size="12.00" fill="#1a365d">Information</text>
</g>
<!-- https://w3id.org/sdata/core/Material -->
<g id="node10" class="node">
<title>https://w3id.org/sdata/core/Material</title>
<path fill="#e8f1ff" stroke="#2b6cb0" stroke-width="1.6" d="M1521.5,-161C1521.5,-161 1476.5,-161 1476.5,-161 1470.5,-161 1464.5,-155 1464.5,-149 1464.5,-149 1464.5,-137 1464.5,-137 1464.5,-131 1470.5,-125 1476.5,-125 1476.5,-125 1521.5,-125 1521.5,-125 1527.5,-125 1533.5,-131 1533.5,-137 1533.5,-137 1533.5,-149 1533.5,-149 1533.5,-155 1527.5,-161 1521.5,-161"/>
<text text-anchor="middle" x="1499" y="-139.9" font-family="Helvetica,sans-Serif" font-size="12.00" fill="#1a365d">Material</text>
</g>
<!-- https://w3id.org/sdata/core/Material&#45;&gt;https://w3id.org/sdata/core/Information -->
<g id="edge7" class="edge">
<title>https://w3id.org/sdata/core/Material&#45;&gt;https://w3id.org/sdata/core/Information</title>
<path fill="none" stroke="#6b7280" stroke-width="1.6" stroke-dasharray="5,2" d="M1533.5,-143C1556.79,-143 1587.76,-143 1612.99,-143"/>
<text text-anchor="middle" x="1573.25" y="-149.8" font-family="Helvetica,sans-Serif" font-size="14.00" fill="#6b7280">dual</text>
</g>
<!-- https://w3id.org/sdata/core/Agent -->
<g id="node11" class="node">
<title>https://w3id.org/sdata/core/Agent</title>
<path fill="#e8f1ff" stroke="#2b6cb0" stroke-width="1.6" d="M1691,-280C1691,-280 1659,-280 1659,-280 1653,-280 1647,-274 1647,-268 1647,-268 1647,-256 1647,-256 1647,-250 1653,-244 1659,-244 1659,-244 1691,-244 1691,-244 1697,-244 1703,-250 1703,-256 1703,-256 1703,-268 1703,-268 1703,-274 1697,-280 1691,-280"/>
<text text-anchor="middle" x="1675" y="-258.9" font-family="Helvetica,sans-Serif" font-size="12.00" fill="#1a365d">Agent</text>
</g>
<!-- https://w3id.org/sdata/core/Creation -->
<g id="node20" class="node">
<title>https://w3id.org/sdata/core/Creation</title>
<path fill="#eef8e7" stroke="#4f8a10" stroke-width="1.6" d="M1803.5,-52C1803.5,-52 1756.5,-52 1756.5,-52 1750.5,-52 1744.5,-46 1744.5,-40 1744.5,-40 1744.5,-28 1744.5,-28 1744.5,-22 1750.5,-16 1756.5,-16 1756.5,-16 1803.5,-16 1803.5,-16 1809.5,-16 1815.5,-22 1815.5,-28 1815.5,-28 1815.5,-40 1815.5,-40 1815.5,-46 1809.5,-52 1803.5,-52"/>
<text text-anchor="middle" x="1780" y="-30.9" font-family="Helvetica,sans-Serif" font-size="12.00" fill="#2f5d08">Creation</text>
</g>
<!-- https://w3id.org/sdata/core/Agent&#45;&gt;https://w3id.org/sdata/core/Creation -->
<!-- https://w3id.org/sdata/core/Artifact -->
<g id="node12" class="node">
<title>https://w3id.org/sdata/core/Artifact</title>
<path fill="#e8f1ff" stroke="#2b6cb0" stroke-width="1.6" d="M1503.5,-280C1503.5,-280 1462.5,-280 1462.5,-280 1456.5,-280 1450.5,-274 1450.5,-268 1450.5,-268 1450.5,-256 1450.5,-256 1450.5,-250 1456.5,-244 1462.5,-244 1462.5,-244 1503.5,-244 1503.5,-244 1509.5,-244 1515.5,-250 1515.5,-256 1515.5,-256 1515.5,-268 1515.5,-268 1515.5,-274 1509.5,-280 1503.5,-280"/>
<text text-anchor="middle" x="1483" y="-258.9" font-family="Helvetica,sans-Serif" font-size="12.00" fill="#1a365d">Artifact</text>
</g>
<!-- https://w3id.org/sdata/core/Identifier -->
<g id="node13" class="node">
<title>https://w3id.org/sdata/core/Identifier</title>
<path fill="#e8f1ff" stroke="#2b6cb0" stroke-width="1.6" d="M1217.5,-280C1217.5,-280 1166.5,-280 1166.5,-280 1160.5,-280 1154.5,-274 1154.5,-268 1154.5,-268 1154.5,-256 1154.5,-256 1154.5,-250 1160.5,-244 1166.5,-244 1166.5,-244 1217.5,-244 1217.5,-244 1223.5,-244 1229.5,-250 1229.5,-256 1229.5,-256 1229.5,-268 1229.5,-268 1229.5,-274 1223.5,-280 1217.5,-280"/>
<text text-anchor="middle" x="1192" y="-258.9" font-family="Helvetica,sans-Serif" font-size="12.00" fill="#1a365d">Identifier</text>
</g>
<!-- https://w3id.org/sdata/core/Intangible -->
<g id="node14" class="node">
<title>https://w3id.org/sdata/core/Intangible</title>
<path fill="#e8f1ff" stroke="#2b6cb0" stroke-width="1.6" d="M1079,-280C1079,-280 1023,-280 1023,-280 1017,-280 1011,-274 1011,-268 1011,-268 1011,-256 1011,-256 1011,-250 1017,-244 1023,-244 1023,-244 1079,-244 1079,-244 1085,-244 1091,-250 1091,-256 1091,-256 1091,-268 1091,-268 1091,-274 1085,-280 1079,-280"/>
<text text-anchor="middle" x="1051" y="-258.9" font-family="Helvetica,sans-Serif" font-size="12.00" fill="#1a365d">Intangible</text>
</g>
<!-- https://w3id.org/sdata/core/Intangible&#45;&gt;https://w3id.org/sdata/core/InformationSite -->
<g id="edge6" class="edge">
<title>https://w3id.org/sdata/core/Intangible&#45;&gt;https://w3id.org/sdata/core/InformationSite</title>
<path fill="none" stroke="#4a5568" stroke-width="1.6" d="M1010.92,-248.41C1004.32,-246.69 997.51,-245.13 991,-244 704.4,-194.08 612.69,-294.79 338,-199 318.03,-192.04 298.42,-178.69 283.61,-166.88"/>
<polygon fill="#4a5568" stroke="#4a5568" stroke-width="1.6" points="285.21,-164.34 276.75,-161.25 281.43,-168.94 285.21,-164.34"/>
</g>
<!-- https://w3id.org/sdata/core/Intangible&#45;&gt;https://w3id.org/sdata/core/InformationProcess -->
<g id="edge5" class="edge">
<title>https://w3id.org/sdata/core/Intangible&#45;&gt;https://w3id.org/sdata/core/InformationProcess</title>
<path fill="none" stroke="#4a5568" stroke-width="1.6" d="M1091.23,-247.55C1126.87,-235.44 1180.2,-216.86 1226,-199 1253.61,-188.23 1284.14,-175.27 1308.56,-164.63"/>
<polygon fill="#4a5568" stroke="#4a5568" stroke-width="1.6" points="1310,-167.25 1316.59,-161.12 1307.61,-161.8 1310,-167.25"/>
</g>
<!-- https://w3id.org/sdata/core/Intangible&#45;&gt;https://w3id.org/sdata/core/InformationAgent -->
<g id="edge3" class="edge">
<title>https://w3id.org/sdata/core/Intangible&#45;&gt;https://w3id.org/sdata/core/InformationAgent</title>
<path fill="none" stroke="#4a5568" stroke-width="1.6" d="M1041.11,-243.99C1029.58,-224.14 1010.42,-191.18 997.28,-168.56"/>
<polygon fill="#4a5568" stroke="#4a5568" stroke-width="1.6" points="999.74,-166.89 992.9,-161.03 994.6,-169.88 999.74,-166.89"/>
</g>
<!-- https://w3id.org/sdata/core/Intangible&#45;&gt;https://w3id.org/sdata/core/InformationArtifact -->
<g id="edge4" class="edge">
<title>https://w3id.org/sdata/core/Intangible&#45;&gt;https://w3id.org/sdata/core/InformationArtifact</title>
<path fill="none" stroke="#4a5568" stroke-width="1.6" d="M1010.82,-248.93C1004.23,-247.14 997.45,-245.43 991,-244 868.81,-216.89 830.49,-242.16 713,-199 691.36,-191.05 669.18,-177.77 652.14,-166.25"/>
<polygon fill="#4a5568" stroke="#4a5568" stroke-width="1.6" points="653.37,-163.49 644.69,-161.11 649.99,-168.38 653.37,-163.49"/>
</g>
<!-- https://w3id.org/sdata/core/Intangible&#45;&gt;https://w3id.org/sdata/core/Information -->
<g id="edge2" class="edge">
<title>https://w3id.org/sdata/core/Intangible&#45;&gt;https://w3id.org/sdata/core/Information</title>
<path fill="none" stroke="#4a5568" stroke-width="1.6" d="M1091.39,-251.93C1104.89,-249.11 1120.05,-246.17 1134,-244 1319.06,-215.18 1373.78,-253.41 1553,-199 1578.32,-191.31 1604.69,-177.47 1624.67,-165.6"/>
<polygon fill="#4a5568" stroke="#4a5568" stroke-width="1.6" points="1626.27,-168.11 1632,-161.16 1623.19,-163.02 1626.27,-168.11"/>
</g>
<!-- https://w3id.org/sdata/core/Process -->
<g id="node15" class="node">
<title>https://w3id.org/sdata/core/Process</title>
<path fill="#e8f1ff" stroke="#2b6cb0" stroke-width="1.6" d="M959,-280C959,-280 917,-280 917,-280 911,-280 905,-274 905,-268 905,-268 905,-256 905,-256 905,-250 911,-244 917,-244 917,-244 959,-244 959,-244 965,-244 971,-250 971,-256 971,-256 971,-268 971,-268 971,-274 965,-280 959,-280"/>
<text text-anchor="middle" x="938" y="-258.9" font-family="Helvetica,sans-Serif" font-size="12.00" fill="#1a365d">Process</text>
</g>
<!-- https://w3id.org/sdata/core/Role -->
<g id="node16" class="node">
<title>https://w3id.org/sdata/core/Role</title>
<path fill="#e8f1ff" stroke="#2b6cb0" stroke-width="1.6" d="M853,-280C853,-280 823,-280 823,-280 817,-280 811,-274 811,-268 811,-268 811,-256 811,-256 811,-250 817,-244 823,-244 823,-244 853,-244 853,-244 859,-244 865,-250 865,-256 865,-256 865,-268 865,-268 865,-274 859,-280 853,-280"/>
<text text-anchor="middle" x="838" y="-258.9" font-family="Helvetica,sans-Serif" font-size="12.00" fill="#1a365d">Role</text>
</g>
<!-- https://w3id.org/sdata/core/Site -->
<g id="node17" class="node">
<title>https://w3id.org/sdata/core/Site</title>
<path fill="#e8f1ff" stroke="#2b6cb0" stroke-width="1.6" d="M759,-280C759,-280 729,-280 729,-280 723,-280 717,-274 717,-268 717,-268 717,-256 717,-256 717,-250 723,-244 729,-244 729,-244 759,-244 759,-244 765,-244 771,-250 771,-256 771,-256 771,-268 771,-268 771,-274 765,-280 759,-280"/>
<text text-anchor="middle" x="744" y="-258.9" font-family="Helvetica,sans-Serif" font-size="12.00" fill="#1a365d">Site</text>
</g>
<!-- https://w3id.org/sdata/core/Substance -->
<g id="node18" class="node">
<title>https://w3id.org/sdata/core/Substance</title>
<path fill="#e8f1ff" stroke="#2b6cb0" stroke-width="1.6" d="M664.5,-280C664.5,-280 605.5,-280 605.5,-280 599.5,-280 593.5,-274 593.5,-268 593.5,-268 593.5,-256 593.5,-256 593.5,-250 599.5,-244 605.5,-244 605.5,-244 664.5,-244 664.5,-244 670.5,-244 676.5,-250 676.5,-256 676.5,-256 676.5,-268 676.5,-268 676.5,-274 670.5,-280 664.5,-280"/>
<text text-anchor="middle" x="635" y="-258.9" font-family="Helvetica,sans-Serif" font-size="12.00" fill="#1a365d">Substance</text>
</g>
<!-- https://w3id.org/sdata/core/Tangible -->
<g id="node19" class="node">
<title>https://w3id.org/sdata/core/Tangible</title>
<path fill="#e8f1ff" stroke="#2b6cb0" stroke-width="1.6" d="M541.5,-280C541.5,-280 496.5,-280 496.5,-280 490.5,-280 484.5,-274 484.5,-268 484.5,-268 484.5,-256 484.5,-256 484.5,-250 490.5,-244 496.5,-244 496.5,-244 541.5,-244 541.5,-244 547.5,-244 553.5,-250 553.5,-256 553.5,-256 553.5,-268 553.5,-268 553.5,-274 547.5,-280 541.5,-280"/>
<text text-anchor="middle" x="519" y="-258.9" font-family="Helvetica,sans-Serif" font-size="12.00" fill="#1a365d">Tangible</text>
</g>
<!-- https://w3id.org/sdata/core/Tangible&#45;&gt;https://w3id.org/sdata/core/MaterialSite -->
<g id="edge16" class="edge">
<title>https://w3id.org/sdata/core/Tangible&#45;&gt;https://w3id.org/sdata/core/MaterialSite</title>
<path fill="none" stroke="#4a5568" stroke-width="1.6" d="M484.38,-258.08C421.94,-252.07 286.94,-235.68 179,-199 153.92,-190.48 127.44,-176.9 107.09,-165.37"/>
<polygon fill="#4a5568" stroke="#4a5568" stroke-width="1.6" points="108.46,-162.73 99.61,-161.07 105.49,-167.89 108.46,-162.73"/>
</g>
<!-- https://w3id.org/sdata/core/Tangible&#45;&gt;https://w3id.org/sdata/core/MaterialProcess -->
<g id="edge15" class="edge">
<title>https://w3id.org/sdata/core/Tangible&#45;&gt;https://w3id.org/sdata/core/MaterialProcess</title>
<path fill="none" stroke="#4a5568" stroke-width="1.6" d="M553.57,-248.92C559.97,-247.02 566.64,-245.28 573,-244 788.72,-200.72 858.85,-273.15 1066,-199 1086.08,-191.81 1105.93,-178.46 1120.96,-166.71"/>
<polygon fill="#4a5568" stroke="#4a5568" stroke-width="1.6" points="1123.17,-168.75 1127.93,-161.1 1119.44,-164.11 1123.17,-168.75"/>
</g>
<!-- https://w3id.org/sdata/core/Tangible&#45;&gt;https://w3id.org/sdata/core/MaterialAgent -->
<g id="edge13" class="edge">
<title>https://w3id.org/sdata/core/Tangible&#45;&gt;https://w3id.org/sdata/core/MaterialAgent</title>
<path fill="none" stroke="#4a5568" stroke-width="1.6" d="M553.52,-250.04C606.33,-233.23 701.87,-202.63 709,-199 726.43,-190.13 744.23,-177.48 758.21,-166.55"/>
<polygon fill="#4a5568" stroke="#4a5568" stroke-width="1.6" points="760.36,-168.64 765.16,-161.02 756.66,-163.98 760.36,-168.64"/>
</g>
<!-- https://w3id.org/sdata/core/Tangible&#45;&gt;https://w3id.org/sdata/core/MaterialArtifact -->
<g id="edge14" class="edge">
<title>https://w3id.org/sdata/core/Tangible&#45;&gt;https://w3id.org/sdata/core/MaterialArtifact</title>
<path fill="none" stroke="#4a5568" stroke-width="1.6" d="M503.88,-243.99C485.93,-223.8 455.91,-190.03 435.79,-167.39"/>
<polygon fill="#4a5568" stroke="#4a5568" stroke-width="1.6" points="438.01,-165.41 430.14,-161.03 433.56,-169.36 438.01,-165.41"/>
</g>
<!-- https://w3id.org/sdata/core/Tangible&#45;&gt;https://w3id.org/sdata/core/Material -->
<g id="edge12" class="edge">
<title>https://w3id.org/sdata/core/Tangible&#45;&gt;https://w3id.org/sdata/core/Material</title>
<path fill="none" stroke="#4a5568" stroke-width="1.6" d="M553.53,-248.71C559.93,-246.84 566.62,-245.15 573,-244 763.52,-209.66 1265.77,-276.88 1443,-199 1458.33,-192.26 1471.85,-179.32 1481.76,-167.68"/>
<polygon fill="#4a5568" stroke="#4a5568" stroke-width="1.6" points="1484.11,-169.51 1487.16,-161.04 1479.49,-165.76 1484.11,-169.51"/>
</g>
<!-- https://w3id.org/sdata/core/Destruction -->
<g id="node21" class="node">
<title>https://w3id.org/sdata/core/Destruction</title>
<path fill="#eef8e7" stroke="#4f8a10" stroke-width="1.6" d="M2467,-280C2467,-280 2401,-280 2401,-280 2395,-280 2389,-274 2389,-268 2389,-268 2389,-256 2389,-256 2389,-250 2395,-244 2401,-244 2401,-244 2467,-244 2467,-244 2473,-244 2479,-250 2479,-256 2479,-256 2479,-268 2479,-268 2479,-274 2473,-280 2467,-280"/>
<text text-anchor="middle" x="2434" y="-258.9" font-family="Helvetica,sans-Serif" font-size="12.00" fill="#2f5d08">Destruction</text>
</g>
<!-- https://w3id.org/sdata/core/Observation -->
<g id="node22" class="node">
<title>https://w3id.org/sdata/core/Observation</title>
<path fill="#eef8e7" stroke="#4f8a10" stroke-width="1.6" d="M2336.5,-280C2336.5,-280 2267.5,-280 2267.5,-280 2261.5,-280 2255.5,-274 2255.5,-268 2255.5,-268 2255.5,-256 2255.5,-256 2255.5,-250 2261.5,-244 2267.5,-244 2267.5,-244 2336.5,-244 2336.5,-244 2342.5,-244 2348.5,-250 2348.5,-256 2348.5,-256 2348.5,-268 2348.5,-268 2348.5,-274 2342.5,-280 2336.5,-280"/>
<text text-anchor="middle" x="2302" y="-258.9" font-family="Helvetica,sans-Serif" font-size="12.00" fill="#2f5d08">Observation</text>
</g>
<!-- https://w3id.org/sdata/core/Preservation -->
<g id="node23" class="node">
<title>https://w3id.org/sdata/core/Preservation</title>
<path fill="#eef8e7" stroke="#4f8a10" stroke-width="1.6" d="M2203.5,-280C2203.5,-280 2132.5,-280 2132.5,-280 2126.5,-280 2120.5,-274 2120.5,-268 2120.5,-268 2120.5,-256 2120.5,-256 2120.5,-250 2126.5,-244 2132.5,-244 2132.5,-244 2203.5,-244 2203.5,-244 2209.5,-244 2215.5,-250 2215.5,-256 2215.5,-256 2215.5,-268 2215.5,-268 2215.5,-274 2209.5,-280 2203.5,-280"/>
<text text-anchor="middle" x="2168" y="-258.9" font-family="Helvetica,sans-Serif" font-size="12.00" fill="#2f5d08">Preservation</text>
</g>
<!-- https://w3id.org/sdata/core/Recovery -->
<g id="node24" class="node">
<title>https://w3id.org/sdata/core/Recovery</title>
<path fill="#eef8e7" stroke="#4f8a10" stroke-width="1.6" d="M2068,-280C2068,-280 2016,-280 2016,-280 2010,-280 2004,-274 2004,-268 2004,-268 2004,-256 2004,-256 2004,-250 2010,-244 2016,-244 2016,-244 2068,-244 2068,-244 2074,-244 2080,-250 2080,-256 2080,-256 2080,-268 2080,-268 2080,-274 2074,-280 2068,-280"/>
<text text-anchor="middle" x="2042" y="-258.9" font-family="Helvetica,sans-Serif" font-size="12.00" fill="#2f5d08">Recovery</text>
</g>
<!-- https://w3id.org/sdata/core/Transfer -->
<g id="node25" class="node">
<title>https://w3id.org/sdata/core/Transfer</title>
<path fill="#eef8e7" stroke="#4f8a10" stroke-width="1.6" d="M1951.5,-280C1951.5,-280 1906.5,-280 1906.5,-280 1900.5,-280 1894.5,-274 1894.5,-268 1894.5,-268 1894.5,-256 1894.5,-256 1894.5,-250 1900.5,-244 1906.5,-244 1906.5,-244 1951.5,-244 1951.5,-244 1957.5,-244 1963.5,-250 1963.5,-256 1963.5,-256 1963.5,-268 1963.5,-268 1963.5,-274 1957.5,-280 1951.5,-280"/>
<text text-anchor="middle" x="1929" y="-258.9" font-family="Helvetica,sans-Serif" font-size="12.00" fill="#2f5d08">Transfer</text>
</g>
<!-- https://w3id.org/sdata/core/Transformation -->
<g id="node26" class="node">
<title>https://w3id.org/sdata/core/Transformation</title>
<path fill="#eef8e7" stroke="#4f8a10" stroke-width="1.6" d="M1842.5,-280C1842.5,-280 1755.5,-280 1755.5,-280 1749.5,-280 1743.5,-274 1743.5,-268 1743.5,-268 1743.5,-256 1743.5,-256 1743.5,-250 1749.5,-244 1755.5,-244 1755.5,-244 1842.5,-244 1842.5,-244 1848.5,-244 1854.5,-250 1854.5,-256 1854.5,-256 1854.5,-268 1854.5,-268 1854.5,-274 1848.5,-280 1842.5,-280"/>
<text text-anchor="middle" x="1799" y="-258.9" font-family="Helvetica,sans-Serif" font-size="12.00" fill="#2f5d08">Transformation</text>
</g>
</g>
</svg>
