<?xml version="1.0" encoding="UTF-8" standalone="no"?>
<!DOCTYPE svg PUBLIC "-//W3C//DTD SVG 1.1//EN"
 "http://www.w3.org/Graphics/SVG/1.1/DTD/svg11.dtd">
<!-- Generated by graphviz version 2.43.0 (0)
 -->
<!-- Pages: 1 -->
<svg width="2247pt" height="915pt"
 viewBox="0.00 0.00 2247.22 915.40" xmlns="http://www.w3.org/2000/svg" xmlns:xlink="http://www.w3.org/1999/xlink">
<g id="graph0" class="graph" transform="scale(1 1) rotate(0) translate(25.2 890.2)">
<polygon fill="#fafbfc" stroke="transparent" points="-25.2,25.2 -25.2,-890.2 2222.02,-890.2 2222.02,25.2 -25.2,25.2"/>
<text text-anchor="middle" x="1098.41" y="-845" font-family="Helvetica,sans-Serif" font-size="20.00">sdata Core + Processtypes Hierarchy (without agents)</text>
<g id="clust1" class="cluster">
<title>cluster_core</title>
<path fill="#fafbfc" stroke="#90b5e8" d="M955,-8C955,-8 2146,-8 2146,-8 2152,-8 2158,-14 2158,-20 2158,-20 2158,-815 2158,-815 2158,-821 2152,-827 2146,-827 2146,-827 955,-827 955,-827 949,-827 943,-821 943,-815 943,-815 943,-20 943,-20 943,-14 949,-8 955,-8"/>
<text text-anchor="middle" x="1550.5" y="-807" font-family="Helvetica,sans-Serif" font-size="20.00">sdata&#45;core classes</text>
</g>
<g id="clust2" class="cluster">
<title>cluster_core_dual_rank_MaterialArtifact</title>
</g>
<g id="clust3" class="cluster">
<title>cluster_core_dual_rank_Material</title>
</g>
<g id="clust4" class="cluster">
<title>cluster_core_dual_rank_MaterialAgent</title>
</g>
<g id="clust5" class="cluster">
<title>cluster_core_dual_rank_MaterialProcess</title>
</g>
<g id="clust6" class="cluster">
<title>cluster_core_dual_rank_MaterialSite</title>
</g>
<g id="clust7" class="cluster">
<title>cluster_proc</title>
<path fill="#fafbfc" stroke="#b6d7a8" d="M84,-16C84,-16 923,-16 923,-16 929,-16 935,-22 935,-28 935,-28 935,-86 935,-86 935,-92 929,-98 923,-98 923,-98 84,-98 84,-98 78,-98 72,-92 72,-86 72,-86 72,-28 72,-28 72,-22 78,-16 84,-16"/>
<text text-anchor="middle" x="503.5" y="-78" font-family="Helvetica,sans-Serif" font-size="20.00">sdata&#45;processtypes classes</text>
</g>
<g id="clust8" class="cluster">
<title>cluster_bfo</title>
<path fill="#fafbfc" stroke="#f3c887" d="M20,-135C20,-135 743,-135 743,-135 749,-135 755,-141 755,-147 755,-147 755,-815 755,-815 755,-821 749,-827 743,-827 743,-827 20,-827 20,-827 14,-827 8,-821 8,-815 8,-815 8,-147 8,-147 8,-141 14,-135 20,-135"/>
<text text-anchor="middle" x="381.5" y="-807" font-family="Helvetica,sans-Serif" font-size="20.00">BFO hierarchy</text>
</g>
<g id="clust9" class="cluster">
<title>cluster_prov</title>
<path fill="#fafbfc" stroke="#9ad9bf" d="M775,-373C775,-373 923,-373 923,-373 929,-373 935,-379 935,-385 935,-385 935,-443 935,-443 935,-449 929,-455 923,-455 923,-455 775,-455 775,-455 769,-455 763,-449 763,-443 763,-443 763,-385 763,-385 763,-379 769,-373 775,-373"/>
<text text-anchor="middle" x="849" y="-435" font-family="Helvetica,sans-Serif" font-size="20.00">PROV hierarchy</text>
</g>
<!-- https://w3id.org/sdata/core/InformationArtifact -->
<g id="node1" class="node">
<title>https://w3id.org/sdata/core/InformationArtifact</title>
<path fill="#e8f1ff" stroke="#2b6cb0" stroke-width="1.6" d="M1282,-298C1282,-298 1168,-298 1168,-298 1162,-298 1156,-292 1156,-286 1156,-286 1156,-274 1156,-274 1156,-268 1162,-262 1168,-262 1168,-262 1282,-262 1282,-262 1288,-262 1294,-268 1294,-274 1294,-274 1294,-286 1294,-286 1294,-292 1288,-298 1282,-298"/>
<text text-anchor="middle" x="1225" y="-276.9" font-family="Helvetica,sans-Serif" font-size="12.00" fill="#1a365d">Information Artifact</text>
</g>
<!-- https://w3id.org/sdata/core/MaterialArtifact -->
<g id="node2" class="node">
<title>https://w3id.org/sdata/core/MaterialArtifact</title>
<path fill="#e8f1ff" stroke="#2b6cb0" stroke-width="1.6" d="M1064.5,-298C1064.5,-298 971.5,-298 971.5,-298 965.5,-298 959.5,-292 959.5,-286 959.5,-286 959.5,-274 959.5,-274 959.5,-268 965.5,-262 971.5,-262 971.5,-262 1064.5,-262 1064.5,-262 1070.5,-262 1076.5,-268 1076.5,-274 1076.5,-274 1076.5,-286 1076.5,-286 1076.5,-292 1070.5,-298 1064.5,-298"/>
<text text-anchor="middle" x="1018" y="-276.9" font-family="Helvetica,sans-Serif" font-size="12.00" fill="#1a365d">Material Artifact</text>
</g>
<!-- https://w3id.org/sdata/core/MaterialArtifact&#45;&gt;https://w3id.org/sdata/core/InformationArtifact -->
<g id="edge34" class="edge">
<title>https://w3id.org/sdata/core/MaterialArtifact&#45;&gt;https://w3id.org/sdata/core/InformationArtifact</title>
<path fill="none" stroke="#6b7280" stroke-width="1.6" stroke-dasharray="5,2" d="M1076.76,-280C1101.39,-280 1130.19,-280 1155.83,-280"/>
<text text-anchor="middle" x="1116.25" y="-286.8" font-family="Helvetica,sans-Serif" font-size="14.00" fill="#6b7280">dual</text>
</g>
<!-- https://w3id.org/sdata/core/Information -->
<g id="node3" class="node">
<title>https://w3id.org/sdata/core/Information</title>
<path fill="#e8f1ff" stroke="#2b6cb0" stroke-width="1.6" d="M1561,-298C1561,-298 1495,-298 1495,-298 1489,-298 1483,-292 1483,-286 1483,-286 1483,-274 1483,-274 1483,-268 1489,-262 1495,-262 1495,-262 1561,-262 1561,-262 1567,-262 1573,-268 1573,-274 1573,-274 1573,-286 1573,-286 1573,-292 1567,-298 1561,-298"/>
<text text-anchor="middle" x="1528" y="-276.9" font-family="Helvetica,sans-Serif" font-size="12.00" fill="#1a365d">Information</text>
</g>
<!-- https://w3id.org/sdata/core/Material -->
<g id="node4" class="node">
<title>https://w3id.org/sdata/core/Material</title>
<path fill="#e8f1ff" stroke="#2b6cb0" stroke-width="1.6" d="M1391.5,-298C1391.5,-298 1346.5,-298 1346.5,-298 1340.5,-298 1334.5,-292 1334.5,-286 1334.5,-286 1334.5,-274 1334.5,-274 1334.5,-268 1340.5,-262 1346.5,-262 1346.5,-262 1391.5,-262 1391.5,-262 1397.5,-262 1403.5,-268 1403.5,-274 1403.5,-274 1403.5,-286 1403.5,-286 1403.5,-292 1397.5,-298 1391.5,-298"/>
<text text-anchor="middle" x="1369" y="-276.9" font-family="Helvetica,sans-Serif" font-size="12.00" fill="#1a365d">Material</text>
</g>
<!-- https://w3id.org/sdata/core/Material&#45;&gt;https://w3id.org/sdata/core/Information -->
<g id="edge32" class="edge">
<title>https://w3id.org/sdata/core/Material&#45;&gt;https://w3id.org/sdata/core/Information</title>
<path fill="none" stroke="#6b7280" stroke-width="1.6" stroke-dasharray="5,2" d="M1403.5,-280C1426.79,-280 1457.76,-280 1482.99,-280"/>
<text text-anchor="middle" x="1443.25" y="-286.8" font-family="Helvetica,sans-Serif" font-size="14.00" fill="#6b7280">dual</text>
</g>
<!-- https://w3id.org/sdata/core/InformationAgent -->
<g id="node5" class="node">
<title>https://w3id.org/sdata/core/InformationAgent</title>
<path fill="#e8f1ff" stroke="#2b6cb0" stroke-width="1.6" d="M2129.5,-298C2129.5,-298 2024.5,-298 2024.5,-298 2018.5,-298 2012.5,-292 2012.5,-286 2012.5,-286 2012.5,-274 2012.5,-274 2012.5,-268 2018.5,-262 2024.5,-262 2024.5,-262 2129.5,-262 2129.5,-262 2135.5,-262 2141.5,-268 2141.5,-274 2141.5,-274 2141.5,-286 2141.5,-286 2141.5,-292 2135.5,-298 2129.5,-298"/>
<text text-anchor="middle" x="2077" y="-276.9" font-family="Helvetica,sans-Serif" font-size="12.00" fill="#1a365d">Information Agent</text>
</g>
<!-- https://w3id.org/sdata/core/MaterialAgent -->
<g id="node6" class="node">
<title>https://w3id.org/sdata/core/MaterialAgent</title>
<path fill="#e8f1ff" stroke="#2b6cb0" stroke-width="1.6" d="M1921,-298C1921,-298 1837,-298 1837,-298 1831,-298 1825,-292 1825,-286 1825,-286 1825,-274 1825,-274 1825,-268 1831,-262 1837,-262 1837,-262 1921,-262 1921,-262 1927,-262 1933,-268 1933,-274 1933,-274 1933,-286 1933,-286 1933,-292 1927,-298 1921,-298"/>
<text text-anchor="middle" x="1879" y="-276.9" font-family="Helvetica,sans-Serif" font-size="12.00" fill="#1a365d">Material Agent</text>
</g>
<!-- https://w3id.org/sdata/core/MaterialAgent&#45;&gt;https://w3id.org/sdata/core/InformationAgent -->
<g id="edge33" class="edge">
<title>https://w3id.org/sdata/core/MaterialAgent&#45;&gt;https://w3id.org/sdata/core/InformationAgent</title>
<path fill="none" stroke="#6b7280" stroke-width="1.6" stroke-dasharray="5,2" d="M1933.1,-280C1957.61,-280 1986.77,-280 2012.41,-280"/>
<text text-anchor="middle" x="1972.75" y="-286.8" font-family="Helvetica,sans-Serif" font-size="14.00" fill="#6b7280">dual</text>
</g>
<!-- https://w3id.org/sdata/core/InformationProcess -->
<g id="node7" class="node">
<title>https://w3id.org/sdata/core/InformationProcess</title>
<path fill="#e8f1ff" stroke="#2b6cb0" stroke-width="1.6" d="M1093.5,-60C1093.5,-60 978.5,-60 978.5,-60 972.5,-60 966.5,-54 966.5,-48 966.5,-48 966.5,-36 966.5,-36 966.5,-30 972.5,-24 978.5,-24 978.5,-24 1093.5,-24 1093.5,-24 1099.5,-24 1105.5,-30 1105.5,-36 1105.5,-36 1105.5,-48 1105.5,-48 1105.5,-54 1099.5,-60 1093.5,-60"/>
<text text-anchor="middle" x="1036" y="-38.9" font-family="Helvetica,sans-Serif" font-size="12.00" fill="#1a365d">Information Process</text>
</g>
<!-- https://w3id.org/sdata/core/MaterialProcess -->
<g id="node8" class="node">
<title>https://w3id.org/sdata/core/MaterialProcess</title>
<path fill="#e8f1ff" stroke="#2b6cb0" stroke-width="1.6" d="M1291,-60C1291,-60 1197,-60 1197,-60 1191,-60 1185,-54 1185,-48 1185,-48 1185,-36 1185,-36 1185,-30 1191,-24 1197,-24 1197,-24 1291,-24 1291,-24 1297,-24 1303,-30 1303,-36 1303,-36 1303,-48 1303,-48 1303,-54 1297,-60 1291,-60"/>
<text text-anchor="middle" x="1244" y="-38.9" font-family="Helvetica,sans-Serif" font-size="12.00" fill="#1a365d">Material Process</text>
</g>
<!-- https://w3id.org/sdata/core/MaterialProcess&#45;&gt;https://w3id.org/sdata/core/InformationProcess -->
<g id="edge35" class="edge">
<title>https://w3id.org/sdata/core/MaterialProcess&#45;&gt;https://w3id.org/sdata/core/InformationProcess</title>
<path fill="none" stroke="#6b7280" stroke-width="1.6" stroke-dasharray="5,2" d="M1184.94,-42C1160.22,-42 1131.3,-42 1105.55,-42"/>
<text text-anchor="middle" x="1145.25" y="-48.8" font-family="Helvetica,sans-Serif" font-size="14.00" fill="#6b7280">dual</text>
</g>
<!-- https://w3id.org/sdata/core/InformationSite -->
<g id="node9" class="node">
<title>https://w3id.org/sdata/core/InformationSite</title>
<path fill="#e8f1ff" stroke="#2b6cb0" stroke-width="1.6" d="M1727.5,-179C1727.5,-179 1634.5,-179 1634.5,-179 1628.5,-179 1622.5,-173 1622.5,-167 1622.5,-167 1622.5,-155 1622.5,-155 1622.5,-149 1628.5,-143 1634.5,-143 1634.5,-143 1727.5,-143 1727.5,-143 1733.5,-143 1739.5,-149 1739.5,-155 1739.5,-155 1739.5,-167 1739.5,-167 1739.5,-173 1733.5,-179 1727.5,-179"/>
<text text-anchor="middle" x="1681" y="-157.9" font-family="Helvetica,sans-Serif" font-size="12.00" fill="#1a365d">Information Site</text>
</g>
<!-- https://w3id.org/sdata/core/MaterialSite -->
<g id="node10" class="node">
<title>https://w3id.org/sdata/core/MaterialSite</title>
<path fill="#e8f1ff" stroke="#2b6cb0" stroke-width="1.6" d="M1531,-179C1531,-179 1459,-179 1459,-179 1453,-179 1447,-173 1447,-167 1447,-167 1447,-155 1447,-155 1447,-149 1453,-143 1459,-143 1459,-143 1531,-143 1531,-143 1537,-143 1543,-149 1543,-155 1543,-155 1543,-167 1543,-167 1543,-173 1537,-179 1531,-179"/>
<text text-anchor="middle" x="1495" y="-157.9" font-family="Helvetica,sans-Serif" font-size="12.00" fill="#1a365d">Material Site</text>
</g>
<!-- https://w3id.org/sdata/core/MaterialSite&#45;&gt;https://w3id.org/sdata/core/InformationSite -->
<g id="edge36" class="edge">
<title>https://w3id.org/sdata/core/MaterialSite&#45;&gt;https://w3id.org/sdata/core/InformationSite</title>
<path fill="none" stroke="#6b7280" stroke-width="1.6" stroke-dasharray="5,2" d="M1543.38,-161C1567.49,-161 1596.85,-161 1622.24,-161"/>
<text text-anchor="middle" x="1582.75" y="-167.8" font-family="Helvetica,sans-Serif" font-size="14.00" fill="#6b7280">dual</text>
</g>
<!-- https://w3id.org/sdata/core/Agent -->
<g id="node11" class="node">
<title>https://w3id.org/sdata/core/Agent</title>
<path fill="#e8f1ff" stroke="#2b6cb0" stroke-width="1.6" d="M1773,-298C1773,-298 1741,-298 1741,-298 1735,-298 1729,-292 1729,-286 1729,-286 1729,-274 1729,-274 1729,-268 1735,-262 1741,-262 1741,-262 1773,-262 1773,-262 1779,-262 1785,-268 1785,-274 1785,-274 1785,-286 1785,-286 1785,-292 1779,-298 1773,-298"/>
<text text-anchor="middle" x="1757" y="-276.9" font-family="Helvetica,sans-Serif" font-size="12.00" fill="#1a365d">Agent</text>
</g>
<!-- https://w3id.org/sdata/core/Creation -->
<g id="node18" class="node">
<title>https://w3id.org/sdata/core/Creation</title>
<path fill="#eef8e7" stroke="#4f8a10" stroke-width="1.6" d="M914.5,-60C914.5,-60 867.5,-60 867.5,-60 861.5,-60 855.5,-54 855.5,-48 855.5,-48 855.5,-36 855.5,-36 855.5,-30 861.5,-24 867.5,-24 867.5,-24 914.5,-24 914.5,-24 920.5,-24 926.5,-30 926.5,-36 926.5,-36 926.5,-48 926.5,-48 926.5,-54 920.5,-60 914.5,-60"/>
<text text-anchor="middle" x="891" y="-38.9" font-family="Helvetica,sans-Serif" font-size="12.00" fill="#2f5d08">Creation</text>
</g>
<!-- https://w3id.org/sdata/core/Agent&#45;&gt;https://w3id.org/sdata/core/Creation -->
<!-- https://w3id.org/sdata/core/Artifact -->
<g id="node12" class="node">
<title>https://w3id.org/sdata/core/Artifact</title>
<path fill="#e8f1ff" stroke="#2b6cb0" stroke-width="1.6" d="M2086.5,-789C2086.5,-789 2045.5,-789 2045.5,-789 2039.5,-789 2033.5,-783 2033.5,-777 2033.5,-777 2033.5,-765 2033.5,-765 2033.5,-759 2039.5,-753 2045.5,-753 2045.5,-753 2086.5,-753 2086.5,-753 2092.5,-753 2098.5,-759 2098.5,-765 2098.5,-765 2098.5,-777 2098.5,-777 2098.5,-783 2092.5,-789 2086.5,-789"/>
<text text-anchor="middle" x="2066" y="-767.9" font-family="Helvetica,sans-Serif" font-size="12.00" fill="#1a365d">Artifact</text>
</g>
<!-- https://w3id.org/sdata/core/Identifier -->
<g id="node13" class="node">
<title>https://w3id.org/sdata/core/Identifier</title>
<path fill="#e8f1ff" stroke="#2b6cb0" stroke-width="1.6" d="M1676.5,-298C1676.5,-298 1625.5,-298 1625.5,-298 1619.5,-298 1613.5,-292 1613.5,-286 1613.5,-286 1613.5,-274 1613.5,-274 1613.5,-268 1619.5,-262 1625.5,-262 1625.5,-262 1676.5,-262 1676.5,-262 1682.5,-262 1688.5,-268 1688.5,-274 1688.5,-274 1688.5,-286 1688.5,-286 1688.5,-292 1682.5,-298 1676.5,-298"/>
<text text-anchor="middle" x="1651" y="-276.9" font-family="Helvetica,sans-Serif" font-size="12.00" fill="#1a365d">Identifier</text>
</g>
<!-- https://w3id.org/sdata/core/Process -->
<g id="node14" class="node">
<title>https://w3id.org/sdata/core/Process</title>
<path fill="#e8f1ff" stroke="#2b6cb0" stroke-width="1.6" d="M1930,-789C1930,-789 1888,-789 1888,-789 1882,-789 1876,-783 1876,-777 1876,-777 1876,-765 1876,-765 1876,-759 1882,-753 1888,-753 1888,-753 1930,-753 1930,-753 1936,-753 1942,-759 1942,-765 1942,-765 1942,-777 1942,-777 1942,-783 1936,-789 1930,-789"/>
<text text-anchor="middle" x="1909" y="-767.9" font-family="Helvetica,sans-Serif" font-size="12.00" fill="#1a365d">Process</text>
</g>
<!-- https://w3id.org/sdata/core/Role -->
<g id="node15" class="node">
<title>https://w3id.org/sdata/core/Role</title>
<path fill="#e8f1ff" stroke="#2b6cb0" stroke-width="1.6" d="M994,-179C994,-179 964,-179 964,-179 958,-179 952,-173 952,-167 952,-167 952,-155 952,-155 952,-149 958,-143 964,-143 964,-143 994,-143 994,-143 1000,-143 1006,-149 1006,-155 1006,-155 1006,-167 1006,-167 1006,-173 1000,-179 994,-179"/>
<text text-anchor="middle" x="979" y="-157.9" font-family="Helvetica,sans-Serif" font-size="12.00" fill="#1a365d">Role</text>
</g>
<!-- https://w3id.org/sdata/core/Site -->
<g id="node16" class="node">
<title>https://w3id.org/sdata/core/Site</title>
<path fill="#e8f1ff" stroke="#2b6cb0" stroke-width="1.6" d="M1723,-789C1723,-789 1693,-789 1693,-789 1687,-789 1681,-783 1681,-777 1681,-777 1681,-765 1681,-765 1681,-759 1687,-753 1693,-753 1693,-753 1723,-753 1723,-753 1729,-753 1735,-759 1735,-765 1735,-765 1735,-777 1735,-777 1735,-783 1729,-789 1723,-789"/>
<text text-anchor="middle" x="1708" y="-767.9" font-family="Helvetica,sans-Serif" font-size="12.00" fill="#1a365d">Site</text>
</g>
<!-- https://w3id.org/sdata/core/Substance -->
<g id="node17" class="node">
<title>https://w3id.org/sdata/core/Substance</title>
<path fill="#e8f1ff" stroke="#2b6cb0" stroke-width="1.6" d="M1426.5,-789C1426.5,-789 1367.5,-789 1367.5,-789 1361.5,-789 1355.5,-783 1355.5,-777 1355.5,-777 1355.5,-765 1355.5,-765 1355.5,-759 1361.5,-753 1367.5,-753 1367.5,-753 1426.5,-753 1426.5,-753 1432.5,-753 1438.5,-759 1438.5,-765 1438.5,-765 1438.5,-777 1438.5,-777 1438.5,-783 1432.5,-789 1426.5,-789"/>
<text text-anchor="middle" x="1397" y="-767.9" font-family="Helvetica,sans-Serif" font-size="12.00" fill="#1a365d">Substance</text>
</g>
<!-- https://w3id.org/sdata/core/Destruction -->
<g id="node19" class="node">
<title>https://w3id.org/sdata/core/Destruction</title>
<path fill="#eef8e7" stroke="#4f8a10" stroke-width="1.6" d="M803,-60C803,-60 737,-60 737,-60 731,-60 725,-54 725,-48 725,-48 725,-36 725,-36 725,-30 731,-24 737,-24 737,-24 803,-24 803,-24 809,-24 815,-30 815,-36 815,-36 815,-48 815,-48 815,-54 809,-60 803,-60"/>
<text text-anchor="middle" x="770" y="-38.9" font-family="Helvetica,sans-Serif" font-size="12.00" fill="#2f5d08">Destruction</text>
</g>
<!-- https://w3id.org/sdata/core/Observation -->
<g id="node20" class="node">
<title>https://w3id.org/sdata/core/Observation</title>
<path fill="#eef8e7" stroke="#4f8a10" stroke-width="1.6" d="M160.5,-60C160.5,-60 91.5,-60 91.5,-60 85.5,-60 79.5,-54 79.5,-48 79.5,-48 79.5,-36 79.5,-36 79.5,-30 85.5,-24 91.5,-24 91.5,-24 160.5,-24 160.5,-24 166.5,-24 172.5,-30 172.5,-36 172.5,-36 172.5,-48 172.5,-48 172.5,-54 166.5,-60 160.5,-60"/>
<text text-anchor="middle" x="126" y="-38.9" font-family="Helvetica,sans-Serif" font-size="12.00" fill="#2f5d08">Observation</text>
</g>
<!-- https://w3id.org/sdata/core/Preservation -->
<g id="node21" class="node">
<title>https://w3id.org/sdata/core/Preservation</title>
<path fill="#eef8e7" stroke="#4f8a10" stroke-width="1.6" d="M295.5,-60C295.5,-60 224.5,-60 224.5,-60 218.5,-60 212.5,-54 212.5,-48 212.5,-48 212.5,-36 212.5,-36 212.5,-30 218.5,-24 224.5,-24 224.5,-24 295.5,-24 295.5,-24 301.5,-24 307.5,-30 307.5,-36 307.5,-36 307.5,-48 307.5,-48 307.5,-54 301.5,-60 295.5,-60"/>
<text text-anchor="middle" x="260" y="-38.9" font-family="Helvetica,sans-Serif" font-size="12.00" fill="#2f5d08">Preservation</text>
</g>
<!-- https://w3id.org/sdata/core/Recovery -->
<g id="node22" class="node">
<title>https://w3id.org/sdata/core/Recovery</title>
<path fill="#eef8e7" stroke="#4f8a10" stroke-width="1.6" d="M412,-60C412,-60 360,-60 360,-60 354,-60 348,-54 348,-48 348,-48 348,-36 348,-36 348,-30 354,-24 360,-24 360,-24 412,-24 412,-24 418,-24 424,-30 424,-36 424,-36 424,-48 424,-48 424,-54 418,-60 412,-60"/>
<text text-anchor="middle" x="386" y="-38.9" font-family="Helvetica,sans-Serif" font-size="12.00" fill="#2f5d08">Recovery</text>
</g>
<!-- https://w3id.org/sdata/core/Transfer -->
<g id="node23" class="node">
<title>https://w3id.org/sdata/core/Transfer</title>
<path fill="#eef8e7" stroke="#4f8a10" stroke-width="1.6" d="M521.5,-60C521.5,-60 476.5,-60 476.5,-60 470.5,-60 464.5,-54 464.5,-48 464.5,-48 464.5,-36 464.5,-36 464.5,-30 470.5,-24 476.5,-24 476.5,-24 521.5,-24 521.5,-24 527.5,-24 533.5,-30 533.5,-36 533.5,-36 533.5,-48 533.5,-48 533.5,-54 527.5,-60 521.5,-60"/>
<text text-anchor="middle" x="499" y="-38.9" font-family="Helvetica,sans-Serif" font-size="12.00" fill="#2f5d08">Transfer</text>
</g>
<!-- https://w3id.org/sdata/core/Transformation -->
<g id="node24" class="node">
<title>https://w3id.org/sdata/core/Transformation</title>
<path fill="#eef8e7" stroke="#4f8a10" stroke-width="1.6" d="M672.5,-60C672.5,-60 585.5,-60 585.5,-60 579.5,-60 573.5,-54 573.5,-48 573.5,-48 573.5,-36 573.5,-36 573.5,-30 579.5,-24 585.5,-24 585.5,-24 672.5,-24 672.5,-24 678.5,-24 684.5,-30 684.5,-36 684.5,-36 684.5,-48 684.5,-48 684.5,-54 678.5,-60 672.5,-60"/>
<text text-anchor="middle" x="629" y="-38.9" font-family="Helvetica,sans-Serif" font-size="12.00" fill="#2f5d08">Transformation</text>
</g>
<!-- http://purl.obolibrary.org/obo/BFO_0000001 -->
<g id="node25" class="node">
<title>http://purl.obolibrary.org/obo/BFO_0000001</title>
<path fill="#fff4e5" stroke="#b7791f" stroke-width="1.6" d="M192,-789C192,-789 162,-789 162,-789 156,-789 150,-783 150,-777 150,-777 150,-765 150,-765 150,-759 156,-753 162,-753 162,-753 192,-753 192,-753 198,-753 204,-759 204,-765 204,-765 204,-777 204,-777 204,-783 198,-789 192,-789"/>
<text text-anchor="middle" x="177" y="-767.9" font-family="Helvetica,sans-Serif" font-size="12.00" fill="#7b341e">entity</text>
</g>
<!-- http://purl.obolibrary.org/obo/BFO_0000002 -->
<g id="node26" class="node">
<title>http://purl.obolibrary.org/obo/BFO_0000002</title>
<path fill="#fff4e5" stroke="#b7791f" stroke-width="1.6" d="M396,-680C396,-680 336,-680 336,-680 330,-680 324,-674 324,-668 324,-668 324,-656 324,-656 324,-650 330,-644 336,-644 336,-644 396,-644 396,-644 402,-644 408,-650 408,-656 408,-656 408,-668 408,-668 408,-674 402,-680 396,-680"/>
<text text-anchor="middle" x="366" y="-658.9" font-family="Helvetica,sans-Serif" font-size="12.00" fill="#7b341e">continuant</text>
</g>
<!-- http://purl.obolibrary.org/obo/BFO_0000001&#45;&gt;http://purl.obolibrary.org/obo/BFO_0000002 -->
<g id="edge1" class="edge">
<title>http://purl.obolibrary.org/obo/BFO_0000001&#45;&gt;http://purl.obolibrary.org/obo/BFO_0000002</title>
<path fill="none" stroke="#4a5568" stroke-width="1.6" d="M204.08,-754.67C236.67,-736.22 291.58,-705.13 328.3,-684.34"/>
<polygon fill="#4a5568" stroke="#4a5568" stroke-width="1.6" points="329.92,-686.85 335.85,-680.07 326.98,-681.67 329.92,-686.85"/>
</g>
<!-- http://purl.obolibrary.org/obo/BFO_0000003 -->
<g id="node27" class="node">
<title>http://purl.obolibrary.org/obo/BFO_0000003</title>
<path fill="#fff4e5" stroke="#b7791f" stroke-width="1.6" d="M146,-608C146,-608 92,-608 92,-608 86,-608 80,-602 80,-596 80,-596 80,-584 80,-584 80,-578 86,-572 92,-572 92,-572 146,-572 146,-572 152,-572 158,-578 158,-584 158,-584 158,-596 158,-596 158,-602 152,-608 146,-608"/>
<text text-anchor="middle" x="119" y="-586.9" font-family="Helvetica,sans-Serif" font-size="12.00" fill="#7b341e">occurrent</text>
</g>
<!-- http://purl.obolibrary.org/obo/BFO_0000001&#45;&gt;http://purl.obolibrary.org/obo/BFO_0000003 -->
<g id="edge2" class="edge">
<title>http://purl.obolibrary.org/obo/BFO_0000001&#45;&gt;http://purl.obolibrary.org/obo/BFO_0000003</title>
<path fill="none" stroke="#4a5568" stroke-width="1.6" d="M171.44,-752.84C161.18,-721.16 139.21,-653.38 127.22,-616.38"/>
<polygon fill="#4a5568" stroke="#4a5568" stroke-width="1.6" points="129.99,-615.28 124.54,-608.11 124.33,-617.11 129.99,-615.28"/>
</g>
<!-- http://purl.obolibrary.org/obo/BFO_0000004 -->
<g id="node28" class="node">
<title>http://purl.obolibrary.org/obo/BFO_0000004</title>
<path fill="#fff4e5" stroke="#b7791f" stroke-width="1.6" d="M471.5,-536C471.5,-536 332.5,-536 332.5,-536 326.5,-536 320.5,-530 320.5,-524 320.5,-524 320.5,-512 320.5,-512 320.5,-506 326.5,-500 332.5,-500 332.5,-500 471.5,-500 471.5,-500 477.5,-500 483.5,-506 483.5,-512 483.5,-512 483.5,-524 483.5,-524 483.5,-530 477.5,-536 471.5,-536"/>
<text text-anchor="middle" x="402" y="-514.9" font-family="Helvetica,sans-Serif" font-size="12.00" fill="#7b341e">independent continuant</text>
</g>
<!-- http://purl.obolibrary.org/obo/BFO_0000002&#45;&gt;http://purl.obolibrary.org/obo/BFO_0000004 -->
<g id="edge3" class="edge">
<title>http://purl.obolibrary.org/obo/BFO_0000002&#45;&gt;http://purl.obolibrary.org/obo/BFO_0000004</title>
<path fill="none" stroke="#4a5568" stroke-width="1.6" d="M370.34,-643.87C376.61,-619.14 388.25,-573.24 395.53,-544.51"/>
<polygon fill="#4a5568" stroke="#4a5568" stroke-width="1.6" points="398.44,-545.16 397.64,-536.19 392.67,-543.7 398.44,-545.16"/>
</g>
<!-- http://purl.obolibrary.org/obo/BFO_0000020 -->
<g id="node31" class="node">
<title>http://purl.obolibrary.org/obo/BFO_0000020</title>
<path fill="#fff4e5" stroke="#b7791f" stroke-width="1.6" d="M268,-536C268,-536 70,-536 70,-536 64,-536 58,-530 58,-524 58,-524 58,-512 58,-512 58,-506 64,-500 70,-500 70,-500 268,-500 268,-500 274,-500 280,-506 280,-512 280,-512 280,-524 280,-524 280,-530 274,-536 268,-536"/>
<text text-anchor="middle" x="169" y="-514.9" font-family="Helvetica,sans-Serif" font-size="12.00" fill="#7b341e">specifically dependent continuant</text>
</g>
<!-- http://purl.obolibrary.org/obo/BFO_0000002&#45;&gt;http://purl.obolibrary.org/obo/BFO_0000020 -->
<g id="edge4" class="edge">
<title>http://purl.obolibrary.org/obo/BFO_0000002&#45;&gt;http://purl.obolibrary.org/obo/BFO_0000020</title>
<path fill="none" stroke="#4a5568" stroke-width="1.6" d="M342.24,-643.87C306.59,-618.18 239.27,-569.65 199.87,-541.25"/>
<polygon fill="#4a5568" stroke="#4a5568" stroke-width="1.6" points="201.48,-538.75 192.85,-536.19 198,-543.57 201.48,-538.75"/>
</g>
<!-- http://purl.obolibrary.org/obo/BFO_0000031 -->
<g id="node34" class="node">
<title>http://purl.obolibrary.org/obo/BFO_0000031</title>
<path fill="#fff4e5" stroke="#b7791f" stroke-width="1.6" d="M735,-417C735,-417 537,-417 537,-417 531,-417 525,-411 525,-405 525,-405 525,-393 525,-393 525,-387 531,-381 537,-381 537,-381 735,-381 735,-381 741,-381 747,-387 747,-393 747,-393 747,-405 747,-405 747,-411 741,-417 735,-417"/>
<text text-anchor="middle" x="636" y="-395.9" font-family="Helvetica,sans-Serif" font-size="12.00" fill="#7b341e">generically dependent continuant</text>
</g>
<!-- http://purl.obolibrary.org/obo/BFO_0000002&#45;&gt;http://purl.obolibrary.org/obo/BFO_0000031 -->
<g id="edge5" class="edge">
<title>http://purl.obolibrary.org/obo/BFO_0000002&#45;&gt;http://purl.obolibrary.org/obo/BFO_0000031</title>
<path fill="none" stroke="#4a5568" stroke-width="1.6" d="M385.38,-643.95C412.21,-620.19 462.01,-575.59 503,-536 543.02,-497.34 587.98,-450.66 614.03,-423.26"/>
<polygon fill="#4a5568" stroke="#4a5568" stroke-width="1.6" points="616.23,-425.27 619.92,-417.05 611.91,-421.17 616.23,-425.27"/>
</g>
<!-- http://purl.obolibrary.org/obo/BFO_0000015 -->
<g id="node29" class="node">
<title>http://purl.obolibrary.org/obo/BFO_0000015</title>
<path fill="#fff4e5" stroke="#b7791f" stroke-width="1.6" d="M585,-179C585,-179 543,-179 543,-179 537,-179 531,-173 531,-167 531,-167 531,-155 531,-155 531,-149 537,-143 543,-143 543,-143 585,-143 585,-143 591,-143 597,-149 597,-155 597,-155 597,-167 597,-167 597,-173 591,-179 585,-179"/>
<text text-anchor="middle" x="564" y="-157.9" font-family="Helvetica,sans-Serif" font-size="12.00" fill="#7b341e">process</text>
</g>
<!-- http://purl.obolibrary.org/obo/BFO_0000003&#45;&gt;http://purl.obolibrary.org/obo/BFO_0000015 -->
<g id="edge6" class="edge">
<title>http://purl.obolibrary.org/obo/BFO_0000003&#45;&gt;http://purl.obolibrary.org/obo/BFO_0000015</title>
<path fill="none" stroke="#4a5568" stroke-width="1.6" d="M81.58,-571.91C66.11,-563.16 49.2,-551.12 38,-536 18.16,-509.22 17,-497.33 17,-464 17,-464 17,-464 17,-279 17,-175.86 393.55,-163.33 521.81,-162.05"/>
<polygon fill="#4a5568" stroke="#4a5568" stroke-width="1.6" points="522.13,-165.02 530.61,-161.98 522.08,-159.07 522.13,-165.02"/>
</g>
<!-- http://purl.obolibrary.org/obo/BFO_0000040 -->
<g id="node35" class="node">
<title>http://purl.obolibrary.org/obo/BFO_0000040</title>
<path fill="#fff4e5" stroke="#b7791f" stroke-width="1.6" d="M473,-417C473,-417 389,-417 389,-417 383,-417 377,-411 377,-405 377,-405 377,-393 377,-393 377,-387 383,-381 389,-381 389,-381 473,-381 473,-381 479,-381 485,-387 485,-393 485,-393 485,-405 485,-405 485,-411 479,-417 473,-417"/>
<text text-anchor="middle" x="431" y="-395.9" font-family="Helvetica,sans-Serif" font-size="12.00" fill="#7b341e">material entity</text>
</g>
<!-- http://purl.obolibrary.org/obo/BFO_0000004&#45;&gt;http://purl.obolibrary.org/obo/BFO_0000040 -->
<g id="edge7" class="edge">
<title>http://purl.obolibrary.org/obo/BFO_0000004&#45;&gt;http://purl.obolibrary.org/obo/BFO_0000040</title>
<path fill="none" stroke="#4a5568" stroke-width="1.6" d="M406.22,-499.99C411.07,-480.4 419.09,-448.04 424.69,-425.46"/>
<polygon fill="#4a5568" stroke="#4a5568" stroke-width="1.6" points="427.62,-426 426.78,-417.03 421.85,-424.57 427.62,-426"/>
</g>
<!-- http://purl.obolibrary.org/obo/BFO_0000141 -->
<g id="node36" class="node">
<title>http://purl.obolibrary.org/obo/BFO_0000141</title>
<path fill="#fff4e5" stroke="#b7791f" stroke-width="1.6" d="M324.5,-417C324.5,-417 225.5,-417 225.5,-417 219.5,-417 213.5,-411 213.5,-405 213.5,-405 213.5,-393 213.5,-393 213.5,-387 219.5,-381 225.5,-381 225.5,-381 324.5,-381 324.5,-381 330.5,-381 336.5,-387 336.5,-393 336.5,-393 336.5,-405 336.5,-405 336.5,-411 330.5,-417 324.5,-417"/>
<text text-anchor="middle" x="275" y="-395.9" font-family="Helvetica,sans-Serif" font-size="12.00" fill="#7b341e">immaterial entity</text>
</g>
<!-- http://purl.obolibrary.org/obo/BFO_0000004&#45;&gt;http://purl.obolibrary.org/obo/BFO_0000141 -->
<g id="edge8" class="edge">
<title>http://purl.obolibrary.org/obo/BFO_0000004&#45;&gt;http://purl.obolibrary.org/obo/BFO_0000141</title>
<path fill="none" stroke="#4a5568" stroke-width="1.6" d="M383.53,-499.99C361.43,-479.62 324.33,-445.44 299.76,-422.81"/>
<polygon fill="#4a5568" stroke="#4a5568" stroke-width="1.6" points="301.76,-420.6 293.49,-417.03 297.72,-424.98 301.76,-420.6"/>
</g>
<!-- http://purl.obolibrary.org/obo/BFO_0000015&#45;&gt;https://w3id.org/sdata/core/InformationProcess -->
<g id="edge9" class="edge">
<title>http://purl.obolibrary.org/obo/BFO_0000015&#45;&gt;https://w3id.org/sdata/core/InformationProcess</title>
<path fill="none" stroke="#4a5568" stroke-width="1.6" d="M597.18,-158.83C664.68,-155.54 822.04,-143.23 945,-98 966.63,-90.04 988.82,-76.76 1005.86,-65.24"/>
<polygon fill="#4a5568" stroke="#4a5568" stroke-width="1.6" points="1008.01,-67.38 1013.31,-60.1 1004.63,-62.48 1008.01,-67.38"/>
</g>
<!-- http://purl.obolibrary.org/obo/BFO_0000015&#45;&gt;https://w3id.org/sdata/core/MaterialProcess -->
<g id="edge10" class="edge">
<title>http://purl.obolibrary.org/obo/BFO_0000015&#45;&gt;https://w3id.org/sdata/core/MaterialProcess</title>
<path fill="none" stroke="#4a5568" stroke-width="1.6" d="M597.35,-157.75C702.37,-150.45 1025.21,-126.22 1126,-98 1154.23,-90.1 1184.15,-76.08 1206.79,-64.18"/>
<polygon fill="#4a5568" stroke="#4a5568" stroke-width="1.6" points="1208.39,-66.7 1214.48,-60.07 1205.59,-61.45 1208.39,-66.7"/>
</g>
<!-- http://purl.obolibrary.org/obo/BFO_0000015&#45;&gt;https://w3id.org/sdata/core/Creation -->
<g id="edge11" class="edge">
<title>http://purl.obolibrary.org/obo/BFO_0000015&#45;&gt;https://w3id.org/sdata/core/Creation</title>
<path fill="none" stroke="#4a5568" stroke-width="1.6" d="M597.33,-158.19C650.6,-154.08 756.88,-140.74 835,-98 849.16,-90.25 862.2,-77.91 872.13,-66.87"/>
<polygon fill="#4a5568" stroke="#4a5568" stroke-width="1.6" points="874.57,-68.59 877.89,-60.22 870.08,-64.7 874.57,-68.59"/>
</g>
<!-- http://purl.obolibrary.org/obo/BFO_0000015&#45;&gt;https://w3id.org/sdata/core/Destruction -->
<g id="edge12" class="edge">
<title>http://purl.obolibrary.org/obo/BFO_0000015&#45;&gt;https://w3id.org/sdata/core/Destruction</title>
<path fill="none" stroke="#4a5568" stroke-width="1.6" d="M597.26,-148.28C626.47,-137.3 669.56,-119.39 704,-98 718.86,-88.77 733.96,-76.45 745.95,-65.82"/>
<polygon fill="#4a5568" stroke="#4a5568" stroke-width="1.6" points="747.96,-68.01 752.28,-60.11 743.98,-63.59 747.96,-68.01"/>
</g>
<!-- http://purl.obolibrary.org/obo/BFO_0000015&#45;&gt;https://w3id.org/sdata/core/Observation -->
<g id="edge13" class="edge">
<title>http://purl.obolibrary.org/obo/BFO_0000015&#45;&gt;https://w3id.org/sdata/core/Observation</title>
<path fill="none" stroke="#4a5568" stroke-width="1.6" d="M530.99,-160.19C463.94,-159.38 308.35,-151.35 192,-98 175.53,-90.45 159.82,-77.67 147.87,-66.34"/>
<polygon fill="#4a5568" stroke="#4a5568" stroke-width="1.6" points="149.79,-64.05 141.63,-60.23 145.62,-68.3 149.79,-64.05"/>
</g>
<!-- http://purl.obolibrary.org/obo/BFO_0000015&#45;&gt;https://w3id.org/sdata/core/Preservation -->
<g id="edge14" class="edge">
<title>http://purl.obolibrary.org/obo/BFO_0000015&#45;&gt;https://w3id.org/sdata/core/Preservation</title>
<path fill="none" stroke="#4a5568" stroke-width="1.6" d="M530.76,-155.78C483.59,-148.82 395.47,-132.14 328,-98 311.77,-89.79 295.84,-77.21 283.48,-66.16"/>
<polygon fill="#4a5568" stroke="#4a5568" stroke-width="1.6" points="285.27,-63.77 277,-60.21 281.25,-68.15 285.27,-63.77"/>
</g>
<!-- http://purl.obolibrary.org/obo/BFO_0000015&#45;&gt;https://w3id.org/sdata/core/Recovery -->
<g id="edge15" class="edge">
<title>http://purl.obolibrary.org/obo/BFO_0000015&#45;&gt;https://w3id.org/sdata/core/Recovery</title>
<path fill="none" stroke="#4a5568" stroke-width="1.6" d="M531,-146.01C506.05,-134.73 471.52,-117.56 444,-98 431.07,-88.81 418.13,-76.87 407.76,-66.46"/>
<polygon fill="#4a5568" stroke="#4a5568" stroke-width="1.6" points="409.73,-64.21 401.66,-60.21 405.47,-68.37 409.73,-64.21"/>
</g>
<!-- http://purl.obolibrary.org/obo/BFO_0000015&#45;&gt;https://w3id.org/sdata/core/Transfer -->
<g id="edge16" class="edge">
<title>http://purl.obolibrary.org/obo/BFO_0000015&#45;&gt;https://w3id.org/sdata/core/Transfer</title>
<path fill="none" stroke="#4a5568" stroke-width="1.6" d="M554.55,-142.99C543.52,-123.14 525.21,-90.18 512.65,-67.56"/>
<polygon fill="#4a5568" stroke="#4a5568" stroke-width="1.6" points="515.19,-66.02 508.46,-60.03 509.99,-68.91 515.19,-66.02"/>
</g>
<!-- http://purl.obolibrary.org/obo/BFO_0000015&#45;&gt;https://w3id.org/sdata/core/Transformation -->
<g id="edge17" class="edge">
<title>http://purl.obolibrary.org/obo/BFO_0000015&#45;&gt;https://w3id.org/sdata/core/Transformation</title>
<path fill="none" stroke="#4a5568" stroke-width="1.6" d="M573.45,-142.99C584.48,-123.14 602.79,-90.18 615.35,-67.56"/>
<polygon fill="#4a5568" stroke="#4a5568" stroke-width="1.6" points="618.01,-68.91 619.54,-60.03 612.81,-66.02 618.01,-68.91"/>
</g>
<!-- http://purl.obolibrary.org/obo/BFO_0000017 -->
<g id="node30" class="node">
<title>http://purl.obolibrary.org/obo/BFO_0000017</title>
<path fill="#fff4e5" stroke="#b7791f" stroke-width="1.6" d="M161.5,-417C161.5,-417 70.5,-417 70.5,-417 64.5,-417 58.5,-411 58.5,-405 58.5,-405 58.5,-393 58.5,-393 58.5,-387 64.5,-381 70.5,-381 70.5,-381 161.5,-381 161.5,-381 167.5,-381 173.5,-387 173.5,-393 173.5,-393 173.5,-405 173.5,-405 173.5,-411 167.5,-417 161.5,-417"/>
<text text-anchor="middle" x="116" y="-395.9" font-family="Helvetica,sans-Serif" font-size="12.00" fill="#7b341e">realizable entity</text>
</g>
<!-- http://purl.obolibrary.org/obo/BFO_0000023 -->
<g id="node32" class="node">
<title>http://purl.obolibrary.org/obo/BFO_0000023</title>
<path fill="#fff4e5" stroke="#b7791f" stroke-width="1.6" d="M402,-298C402,-298 372,-298 372,-298 366,-298 360,-292 360,-286 360,-286 360,-274 360,-274 360,-268 366,-262 372,-262 372,-262 402,-262 402,-262 408,-262 414,-268 414,-274 414,-274 414,-286 414,-286 414,-292 408,-298 402,-298"/>
<text text-anchor="middle" x="387" y="-276.9" font-family="Helvetica,sans-Serif" font-size="12.00" fill="#7b341e">role</text>
</g>
<!-- http://purl.obolibrary.org/obo/BFO_0000017&#45;&gt;http://purl.obolibrary.org/obo/BFO_0000023 -->
<g id="edge18" class="edge">
<title>http://purl.obolibrary.org/obo/BFO_0000017&#45;&gt;http://purl.obolibrary.org/obo/BFO_0000023</title>
<path fill="none" stroke="#4a5568" stroke-width="1.6" d="M155.41,-380.99C208.25,-358.17 301.26,-318.02 351.84,-296.18"/>
<polygon fill="#4a5568" stroke="#4a5568" stroke-width="1.6" points="353.26,-298.81 359.88,-292.71 350.9,-293.35 353.26,-298.81"/>
</g>
<!-- http://purl.obolibrary.org/obo/BFO_0000020&#45;&gt;http://purl.obolibrary.org/obo/BFO_0000017 -->
<g id="edge19" class="edge">
<title>http://purl.obolibrary.org/obo/BFO_0000020&#45;&gt;http://purl.obolibrary.org/obo/BFO_0000017</title>
<path fill="none" stroke="#4a5568" stroke-width="1.6" d="M161.29,-499.99C152.34,-480.23 137.5,-447.47 127.26,-424.86"/>
<polygon fill="#4a5568" stroke="#4a5568" stroke-width="1.6" points="129.93,-423.55 123.72,-417.03 124.51,-426 129.93,-423.55"/>
</g>
<!-- http://purl.obolibrary.org/obo/BFO_0000023&#45;&gt;https://w3id.org/sdata/core/Role -->
<g id="edge20" class="edge">
<title>http://purl.obolibrary.org/obo/BFO_0000023&#45;&gt;https://w3id.org/sdata/core/Role</title>
<path fill="none" stroke="#4a5568" stroke-width="1.6" d="M414.3,-272.47C437.53,-267.05 471.83,-259.39 502,-254 618.2,-233.23 649.21,-239.95 765,-217 828.54,-204.41 901.37,-184.5 943.58,-172.4"/>
<polygon fill="#4a5568" stroke="#4a5568" stroke-width="1.6" points="944.52,-175.23 951.86,-170.02 942.87,-169.51 944.52,-175.23"/>
</g>
<!-- http://purl.obolibrary.org/obo/BFO_0000029 -->
<g id="node33" class="node">
<title>http://purl.obolibrary.org/obo/BFO_0000029</title>
<path fill="#fff4e5" stroke="#b7791f" stroke-width="1.6" d="M564,-298C564,-298 534,-298 534,-298 528,-298 522,-292 522,-286 522,-286 522,-274 522,-274 522,-268 528,-262 534,-262 534,-262 564,-262 564,-262 570,-262 576,-268 576,-274 576,-274 576,-286 576,-286 576,-292 570,-298 564,-298"/>
<text text-anchor="middle" x="549" y="-276.9" font-family="Helvetica,sans-Serif" font-size="12.00" fill="#7b341e">site</text>
</g>
<!-- http://purl.obolibrary.org/obo/BFO_0000029&#45;&gt;https://w3id.org/sdata/core/MaterialSite -->
<g id="edge21" class="edge">
<title>http://purl.obolibrary.org/obo/BFO_0000029&#45;&gt;https://w3id.org/sdata/core/MaterialSite</title>
<path fill="none" stroke="#4a5568" stroke-width="1.6" d="M576.4,-277.24C725.51,-267.61 1432.93,-221.76 1443,-217 1457.37,-210.21 1469.76,-197.57 1478.84,-186.11"/>
<polygon fill="#4a5568" stroke="#4a5568" stroke-width="1.6" points="1481.31,-187.78 1484.06,-179.2 1476.56,-184.19 1481.31,-187.78"/>
</g>
<!-- http://purl.obolibrary.org/obo/BFO_0000031&#45;&gt;https://w3id.org/sdata/core/InformationArtifact -->
<g id="edge25" class="edge">
<title>http://purl.obolibrary.org/obo/BFO_0000031&#45;&gt;https://w3id.org/sdata/core/InformationArtifact</title>
<path fill="none" stroke="#4a5568" stroke-width="1.6" d="M710.06,-380.97C724.26,-378.04 739.05,-375.23 753,-373 904.84,-348.68 948.26,-375.01 1097,-336 1127.61,-327.97 1160.37,-313.78 1185.08,-301.83"/>
<polygon fill="#4a5568" stroke="#4a5568" stroke-width="1.6" points="1186.49,-304.45 1192.81,-298.04 1183.87,-299.11 1186.49,-304.45"/>
</g>
<!-- http://purl.obolibrary.org/obo/BFO_0000031&#45;&gt;https://w3id.org/sdata/core/Information -->
<g id="edge23" class="edge">
<title>http://purl.obolibrary.org/obo/BFO_0000031&#45;&gt;https://w3id.org/sdata/core/Information</title>
<path fill="none" stroke="#4a5568" stroke-width="1.6" d="M707.16,-380.95C722.22,-377.86 738.07,-374.99 753,-373 790.01,-368.06 1388.03,-345.99 1424,-336 1449.65,-328.88 1476.15,-314.75 1495.97,-302.6"/>
<polygon fill="#4a5568" stroke="#4a5568" stroke-width="1.6" points="1497.6,-305.09 1503.23,-298.05 1494.44,-300.04 1497.6,-305.09"/>
</g>
<!-- http://purl.obolibrary.org/obo/BFO_0000031&#45;&gt;https://w3id.org/sdata/core/InformationAgent -->
<g id="edge24" class="edge">
<title>http://purl.obolibrary.org/obo/BFO_0000031&#45;&gt;https://w3id.org/sdata/core/InformationAgent</title>
<path fill="none" stroke="#4a5568" stroke-width="1.6" d="M705.24,-380.97C720.86,-377.76 737.43,-374.83 753,-373 1013.72,-342.33 1677.94,-402.87 1934,-345 1972.07,-336.4 2012.4,-317.33 2040.49,-302.23"/>
<polygon fill="#4a5568" stroke="#4a5568" stroke-width="1.6" points="2042.04,-304.77 2048.07,-298.09 2039.18,-299.55 2042.04,-304.77"/>
</g>
<!-- http://purl.obolibrary.org/obo/BFO_0000031&#45;&gt;https://w3id.org/sdata/core/InformationSite -->
<g id="edge26" class="edge">
<title>http://purl.obolibrary.org/obo/BFO_0000031&#45;&gt;https://w3id.org/sdata/core/InformationSite</title>
<path fill="none" stroke="#4a5568" stroke-width="1.6" d="M705.24,-380.97C720.86,-377.75 737.42,-374.83 753,-373 830.66,-363.89 2101.61,-388 2160,-336 2197.32,-302.76 2211.04,-262.5 2178,-225 2150.03,-193.27 1877.59,-173.38 1748.37,-165.66"/>
<polygon fill="#4a5568" stroke="#4a5568" stroke-width="1.6" points="1748.35,-162.68 1739.69,-165.15 1748,-168.62 1748.35,-162.68"/>
</g>
<!-- http://purl.obolibrary.org/obo/BFO_0000031&#45;&gt;https://w3id.org/sdata/core/Identifier -->
<g id="edge22" class="edge">
<title>http://purl.obolibrary.org/obo/BFO_0000031&#45;&gt;https://w3id.org/sdata/core/Identifier</title>
<path fill="none" stroke="#4a5568" stroke-width="1.6" d="M706.52,-380.95C721.76,-377.82 737.86,-374.94 753,-373 845.45,-361.17 1504.9,-371.7 1591,-336 1607.04,-329.35 1621.51,-316.41 1632.21,-304.75"/>
<polygon fill="#4a5568" stroke="#4a5568" stroke-width="1.6" points="1634.69,-306.44 1638.07,-298.1 1630.22,-302.51 1634.69,-306.44"/>
</g>
<!-- http://purl.obolibrary.org/obo/BFO_0000040&#45;&gt;https://w3id.org/sdata/core/MaterialArtifact -->
<g id="edge29" class="edge">
<title>http://purl.obolibrary.org/obo/BFO_0000040&#45;&gt;https://w3id.org/sdata/core/MaterialArtifact</title>
<path fill="none" stroke="#4a5568" stroke-width="1.6" d="M478.93,-380.97C487.56,-378.14 496.51,-375.37 505,-373 562.44,-356.99 576.95,-352.32 636,-344 692.88,-335.99 708.1,-343.9 765,-336 828.79,-327.14 900.42,-310.97 951.14,-298.45"/>
<polygon fill="#4a5568" stroke="#4a5568" stroke-width="1.6" points="951.88,-301.33 959.41,-296.39 950.44,-295.56 951.88,-301.33"/>
</g>
<!-- http://purl.obolibrary.org/obo/BFO_0000040&#45;&gt;https://w3id.org/sdata/core/Material -->
<g id="edge27" class="edge">
<title>http://purl.obolibrary.org/obo/BFO_0000040&#45;&gt;https://w3id.org/sdata/core/Material</title>
<path fill="none" stroke="#4a5568" stroke-width="1.6" d="M474.68,-381C484.51,-377.8 495,-374.88 505,-373 681.43,-339.84 1147.12,-407.01 1312,-336 1327.52,-329.32 1341.27,-316.38 1351.38,-304.73"/>
<polygon fill="#4a5568" stroke="#4a5568" stroke-width="1.6" points="1353.76,-306.52 1356.9,-298.07 1349.18,-302.72 1353.76,-306.52"/>
</g>
<!-- http://purl.obolibrary.org/obo/BFO_0000040&#45;&gt;https://w3id.org/sdata/core/MaterialAgent -->
<g id="edge28" class="edge">
<title>http://purl.obolibrary.org/obo/BFO_0000040&#45;&gt;https://w3id.org/sdata/core/MaterialAgent</title>
<path fill="none" stroke="#4a5568" stroke-width="1.6" d="M474.26,-380.99C484.21,-377.75 494.85,-374.81 505,-373 649,-347.25 1685.9,-392.08 1821,-336 1836.75,-329.46 1850.74,-316.53 1861.04,-304.84"/>
<polygon fill="#4a5568" stroke="#4a5568" stroke-width="1.6" points="1863.46,-306.59 1866.66,-298.17 1858.91,-302.76 1863.46,-306.59"/>
</g>
<!-- http://purl.obolibrary.org/obo/BFO_0000141&#45;&gt;http://purl.obolibrary.org/obo/BFO_0000029 -->
<g id="edge30" class="edge">
<title>http://purl.obolibrary.org/obo/BFO_0000141&#45;&gt;http://purl.obolibrary.org/obo/BFO_0000029</title>
<path fill="none" stroke="#4a5568" stroke-width="1.6" d="M321.29,-380.99C353.21,-369.01 396.48,-352.26 434,-336 461.25,-324.19 491.52,-309.65 514.17,-298.49"/>
<polygon fill="#4a5568" stroke="#4a5568" stroke-width="1.6" points="515.55,-301.13 521.84,-294.69 512.91,-295.79 515.55,-301.13"/>
</g>
<!-- http://www.w3.org/ns/prov#Agent -->
<g id="node37" class="node">
<title>http://www.w3.org/ns/prov#Agent</title>
<path fill="#e7fff6" stroke="#2f855a" stroke-width="1.6" d="M915,-417C915,-417 883,-417 883,-417 877,-417 871,-411 871,-405 871,-405 871,-393 871,-393 871,-387 877,-381 883,-381 883,-381 915,-381 915,-381 921,-381 927,-387 927,-393 927,-393 927,-405 927,-405 927,-411 921,-417 915,-417"/>
<text text-anchor="middle" x="899" y="-395.9" font-family="Helvetica,sans-Serif" font-size="12.00" fill="#1c4532">Agent</text>
</g>
<!-- http://www.w3.org/ns/prov#Agent&#45;&gt;https://w3id.org/sdata/core/InformationAgent -->
<g id="edge38" class="edge">
<title>http://www.w3.org/ns/prov#Agent&#45;&gt;https://w3id.org/sdata/core/InformationAgent</title>
<path fill="none" stroke="#4a5568" stroke-width="1.6" d="M927.03,-397.6C1087.62,-395.21 1887.2,-381.53 1990,-345 2014.12,-336.43 2037.25,-318.8 2053.59,-304.22"/>
<polygon fill="#4a5568" stroke="#4a5568" stroke-width="1.6" points="2055.91,-306.12 2060.16,-298.18 2051.89,-301.74 2055.91,-306.12"/>
</g>
<!-- http://www.w3.org/ns/prov#Agent&#45;&gt;https://w3id.org/sdata/core/MaterialAgent -->
<g id="edge39" class="edge">
<title>http://www.w3.org/ns/prov#Agent&#45;&gt;https://w3id.org/sdata/core/MaterialAgent</title>
<path fill="none" stroke="#4a5568" stroke-width="1.6" d="M927.05,-397.59C1072.19,-395.3 1734.36,-382.85 1817,-345 1835.68,-336.44 1851.67,-319.53 1862.73,-305.24"/>
<polygon fill="#4a5568" stroke="#4a5568" stroke-width="1.6" points="1865.38,-306.67 1868.05,-298.07 1860.6,-303.12 1865.38,-306.67"/>
</g>
<!-- http://www.w3.org/ns/prov#Agent&#45;&gt;https://w3id.org/sdata/core/Agent -->
<g id="edge37" class="edge">
<title>http://www.w3.org/ns/prov#Agent&#45;&gt;https://w3id.org/sdata/core/Agent</title>
<path fill="none" stroke="#4a5568" stroke-width="1.6" d="M927.3,-396.77C1026.51,-392.3 1367.76,-375.54 1648,-345 1675.24,-342.03 1684.95,-349.14 1709,-336 1722.23,-328.77 1733.53,-316.39 1741.83,-305.2"/>
<polygon fill="#4a5568" stroke="#4a5568" stroke-width="1.6" points="1744.38,-306.75 1746.85,-298.09 1739.52,-303.32 1744.38,-306.75"/>
</g>
</g>
</svg>
