<?xml version="1.0" encoding="UTF-8" standalone="no"?>
<!DOCTYPE svg PUBLIC "-//W3C//DTD SVG 1.1//EN"
 "http://www.w3.org/Graphics/SVG/1.1/DTD/svg11.dtd">
<!-- Generated by graphviz version 2.43.0 (0)
 -->
<!-- Pages: 1 -->
<svg width="2526pt" height="396pt"
 viewBox="0.00 0.00 2525.90 396.40" xmlns="http://www.w3.org/2000/svg" xmlns:xlink="http://www.w3.org/1999/xlink">
<g id="graph0" class="graph" transform="scale(1 1) rotate(0) translate(25.2 371.2)">
<polygon fill="#fafbfc" stroke="transparent" points="-25.2,25.2 -25.2,-371.2 2500.7,-371.2 2500.7,25.2 -25.2,25.2"/>
<text text-anchor="middle" x="1237.75" y="-326" font-family="Helvetica,sans-Serif" font-size="20.00">sdata Class Hierarchy (core v0.8.0 / MIN+OPA based)</text>
<g id="clust1" class="cluster">
<title>cluster_sdata</title>
<path fill="#fafbfc" stroke="#90b5e8" d="M20,-8C20,-8 2160,-8 2160,-8 2166,-8 2172,-14 2172,-20 2172,-20 2172,-296 2172,-296 2172,-302 2166,-308 2160,-308 2160,-308 20,-308 20,-308 14,-308 8,-302 8,-296 8,-296 8,-20 8,-20 8,-14 14,-8 20,-8"/>
<text text-anchor="middle" x="1090" y="-288" font-family="Helvetica,sans-Serif" font-size="20.00">sdata classes</text>
</g>
<g id="clust2" class="cluster">
<title>cluster_legend</title>
<path fill="#fafbfc" stroke="#cbd5e0" d="M2192,-226C2192,-226 2450,-226 2450,-226 2456,-226 2462,-232 2462,-238 2462,-238 2462,-296 2462,-296 2462,-302 2456,-308 2450,-308 2450,-308 2192,-308 2192,-308 2186,-308 2180,-302 2180,-296 2180,-296 2180,-238 2180,-238 2180,-232 2186,-226 2192,-226"/>
<text text-anchor="middle" x="2321" y="-288" font-family="Helvetica,sans-Serif" font-size="20.00">Legend</text>
</g>
<!-- https://w3id.org/sdata/core/Agent -->
<g id="node1" class="node">
<title>https://w3id.org/sdata/core/Agent</title>
<path fill="#e8f1ff" stroke="#2b6cb0" stroke-width="1.6" d="M1938,-270C1938,-270 1906,-270 1906,-270 1900,-270 1894,-264 1894,-258 1894,-258 1894,-246 1894,-246 1894,-240 1900,-234 1906,-234 1906,-234 1938,-234 1938,-234 1944,-234 1950,-240 1950,-246 1950,-246 1950,-258 1950,-258 1950,-264 1944,-270 1938,-270"/>
<text text-anchor="middle" x="1922" y="-248.9" font-family="Helvetica,sans-Serif" font-size="12.00" fill="#1a365d">Agent</text>
</g>
<!-- https://w3id.org/sdata/core/MachineAgent -->
<g id="node15" class="node">
<title>https://w3id.org/sdata/core/MachineAgent</title>
<path fill="#e8f1ff" stroke="#2b6cb0" stroke-width="1.6" d="M1762,-161C1762,-161 1676,-161 1676,-161 1670,-161 1664,-155 1664,-149 1664,-149 1664,-137 1664,-137 1664,-131 1670,-125 1676,-125 1676,-125 1762,-125 1762,-125 1768,-125 1774,-131 1774,-137 1774,-137 1774,-149 1774,-149 1774,-155 1768,-161 1762,-161"/>
<text text-anchor="middle" x="1719" y="-139.9" font-family="Helvetica,sans-Serif" font-size="12.00" fill="#1a365d">Machine Agent</text>
</g>
<!-- https://w3id.org/sdata/core/Agent&#45;&gt;https://w3id.org/sdata/core/MachineAgent -->
<g id="edge2" class="edge">
<title>https://w3id.org/sdata/core/Agent&#45;&gt;https://w3id.org/sdata/core/MachineAgent</title>
<path fill="none" stroke="#4a5568" stroke-width="1.6" d="M1893.77,-236.12C1858.74,-217.66 1798.77,-186.05 1759.01,-165.09"/>
<polygon fill="#4a5568" stroke="#4a5568" stroke-width="1.6" points="1760.25,-162.38 1751.34,-161.05 1757.47,-167.64 1760.25,-162.38"/>
</g>
<!-- https://w3id.org/sdata/core/Organization -->
<g id="node21" class="node">
<title>https://w3id.org/sdata/core/Organization</title>
<path fill="#e8f1ff" stroke="#2b6cb0" stroke-width="1.6" d="M1898,-161C1898,-161 1826,-161 1826,-161 1820,-161 1814,-155 1814,-149 1814,-149 1814,-137 1814,-137 1814,-131 1820,-125 1826,-125 1826,-125 1898,-125 1898,-125 1904,-125 1910,-131 1910,-137 1910,-137 1910,-149 1910,-149 1910,-155 1904,-161 1898,-161"/>
<text text-anchor="middle" x="1862" y="-139.9" font-family="Helvetica,sans-Serif" font-size="12.00" fill="#1a365d">Organization</text>
</g>
<!-- https://w3id.org/sdata/core/Agent&#45;&gt;https://w3id.org/sdata/core/Organization -->
<g id="edge3" class="edge">
<title>https://w3id.org/sdata/core/Agent&#45;&gt;https://w3id.org/sdata/core/Organization</title>
<path fill="none" stroke="#4a5568" stroke-width="1.6" d="M1912.36,-233.81C1902.48,-216.18 1887.01,-188.6 1875.82,-168.65"/>
<polygon fill="#4a5568" stroke="#4a5568" stroke-width="1.6" points="1878.37,-167.11 1871.62,-161.15 1873.18,-170.02 1878.37,-167.11"/>
</g>
<!-- https://w3id.org/sdata/core/Person -->
<g id="node22" class="node">
<title>https://w3id.org/sdata/core/Person</title>
<path fill="#e8f1ff" stroke="#2b6cb0" stroke-width="1.6" d="M1999.5,-161C1999.5,-161 1962.5,-161 1962.5,-161 1956.5,-161 1950.5,-155 1950.5,-149 1950.5,-149 1950.5,-137 1950.5,-137 1950.5,-131 1956.5,-125 1962.5,-125 1962.5,-125 1999.5,-125 1999.5,-125 2005.5,-125 2011.5,-131 2011.5,-137 2011.5,-137 2011.5,-149 2011.5,-149 2011.5,-155 2005.5,-161 1999.5,-161"/>
<text text-anchor="middle" x="1981" y="-139.9" font-family="Helvetica,sans-Serif" font-size="12.00" fill="#1a365d">Person</text>
</g>
<!-- https://w3id.org/sdata/core/Agent&#45;&gt;https://w3id.org/sdata/core/Person -->
<g id="edge4" class="edge">
<title>https://w3id.org/sdata/core/Agent&#45;&gt;https://w3id.org/sdata/core/Person</title>
<path fill="none" stroke="#4a5568" stroke-width="1.6" d="M1931.48,-233.81C1941.2,-216.18 1956.41,-188.6 1967.41,-168.65"/>
<polygon fill="#4a5568" stroke="#4a5568" stroke-width="1.6" points="1970.04,-170.03 1971.54,-161.15 1964.83,-167.16 1970.04,-170.03"/>
</g>
<!-- https://w3id.org/sdata/core/SoftwareAgent -->
<g id="node28" class="node">
<title>https://w3id.org/sdata/core/SoftwareAgent</title>
<path fill="#e8f1ff" stroke="#2b6cb0" stroke-width="1.6" d="M2152,-161C2152,-161 2064,-161 2064,-161 2058,-161 2052,-155 2052,-149 2052,-149 2052,-137 2052,-137 2052,-131 2058,-125 2064,-125 2064,-125 2152,-125 2152,-125 2158,-125 2164,-131 2164,-137 2164,-137 2164,-149 2164,-149 2164,-155 2158,-161 2152,-161"/>
<text text-anchor="middle" x="2108" y="-139.9" font-family="Helvetica,sans-Serif" font-size="12.00" fill="#1a365d">Software Agent</text>
</g>
<!-- https://w3id.org/sdata/core/Agent&#45;&gt;https://w3id.org/sdata/core/SoftwareAgent -->
<g id="edge5" class="edge">
<title>https://w3id.org/sdata/core/Agent&#45;&gt;https://w3id.org/sdata/core/SoftwareAgent</title>
<path fill="none" stroke="#4a5568" stroke-width="1.6" d="M1950.25,-234.75C1982.37,-216.27 2034.96,-186.02 2070.5,-165.57"/>
<polygon fill="#4a5568" stroke="#4a5568" stroke-width="1.6" points="2072.37,-167.93 2078.25,-161.11 2069.4,-162.77 2072.37,-167.93"/>
</g>
<!-- https://w3id.org/sdata/core/AssemblyProcess -->
<g id="node2" class="node">
<title>https://w3id.org/sdata/core/AssemblyProcess</title>
<path fill="#e8f1ff" stroke="#2b6cb0" stroke-width="1.6" d="M130,-161C130,-161 28,-161 28,-161 22,-161 16,-155 16,-149 16,-149 16,-137 16,-137 16,-131 22,-125 28,-125 28,-125 130,-125 130,-125 136,-125 142,-131 142,-137 142,-137 142,-149 142,-149 142,-155 136,-161 130,-161"/>
<text text-anchor="middle" x="79" y="-139.9" font-family="Helvetica,sans-Serif" font-size="12.00" fill="#1a365d">Assembly Process</text>
</g>
<!-- https://w3id.org/sdata/core/AttributeQuantityValue -->
<g id="node3" class="node">
<title>https://w3id.org/sdata/core/AttributeQuantityValue</title>
<path fill="#e8f1ff" stroke="#2b6cb0" stroke-width="1.6" d="M1760.5,-270C1760.5,-270 1619.5,-270 1619.5,-270 1613.5,-270 1607.5,-264 1607.5,-258 1607.5,-258 1607.5,-246 1607.5,-246 1607.5,-240 1613.5,-234 1619.5,-234 1619.5,-234 1760.5,-234 1760.5,-234 1766.5,-234 1772.5,-240 1772.5,-246 1772.5,-246 1772.5,-258 1772.5,-258 1772.5,-264 1766.5,-270 1760.5,-270"/>
<text text-anchor="middle" x="1690" y="-248.9" font-family="Helvetica,sans-Serif" font-size="12.00" fill="#1a365d">Attribute Quantity Value</text>
</g>
<!-- https://w3id.org/sdata/core/Certificate -->
<g id="node4" class="node">
<title>https://w3id.org/sdata/core/Certificate</title>
<path fill="#e8f1ff" stroke="#2b6cb0" stroke-width="1.6" d="M1434.5,-161C1434.5,-161 1375.5,-161 1375.5,-161 1369.5,-161 1363.5,-155 1363.5,-149 1363.5,-149 1363.5,-137 1363.5,-137 1363.5,-131 1369.5,-125 1375.5,-125 1375.5,-125 1434.5,-125 1434.5,-125 1440.5,-125 1446.5,-131 1446.5,-137 1446.5,-137 1446.5,-149 1446.5,-149 1446.5,-155 1440.5,-161 1434.5,-161"/>
<text text-anchor="middle" x="1405" y="-139.9" font-family="Helvetica,sans-Serif" font-size="12.00" fill="#1a365d">Certificate</text>
</g>
<!-- https://w3id.org/sdata/core/ChemicalAnalysis -->
<g id="node5" class="node">
<title>https://w3id.org/sdata/core/ChemicalAnalysis</title>
<path fill="#e8f1ff" stroke="#2b6cb0" stroke-width="1.6" d="M132,-52C132,-52 28,-52 28,-52 22,-52 16,-46 16,-40 16,-40 16,-28 16,-28 16,-22 22,-16 28,-16 28,-16 132,-16 132,-16 138,-16 144,-22 144,-28 144,-28 144,-40 144,-40 144,-46 138,-52 132,-52"/>
<text text-anchor="middle" x="80" y="-30.9" font-family="Helvetica,sans-Serif" font-size="12.00" fill="#1a365d">Chemical Analysis</text>
</g>
<!-- https://w3id.org/sdata/core/CoatingProcess -->
<g id="node6" class="node">
<title>https://w3id.org/sdata/core/CoatingProcess</title>
<path fill="#e8f1ff" stroke="#2b6cb0" stroke-width="1.6" d="M669.5,-52C669.5,-52 578.5,-52 578.5,-52 572.5,-52 566.5,-46 566.5,-40 566.5,-40 566.5,-28 566.5,-28 566.5,-22 572.5,-16 578.5,-16 578.5,-16 669.5,-16 669.5,-16 675.5,-16 681.5,-22 681.5,-28 681.5,-28 681.5,-40 681.5,-40 681.5,-46 675.5,-52 669.5,-52"/>
<text text-anchor="middle" x="624" y="-30.9" font-family="Helvetica,sans-Serif" font-size="12.00" fill="#1a365d">Coating Process</text>
</g>
<!-- https://w3id.org/sdata/core/CrashSimulation -->
<g id="node7" class="node">
<title>https://w3id.org/sdata/core/CrashSimulation</title>
<path fill="#e8f1ff" stroke="#2b6cb0" stroke-width="1.6" d="M1294,-52C1294,-52 1196,-52 1196,-52 1190,-52 1184,-46 1184,-40 1184,-40 1184,-28 1184,-28 1184,-22 1190,-16 1196,-16 1196,-16 1294,-16 1294,-16 1300,-16 1306,-22 1306,-28 1306,-28 1306,-40 1306,-40 1306,-46 1300,-52 1294,-52"/>
<text text-anchor="middle" x="1245" y="-30.9" font-family="Helvetica,sans-Serif" font-size="12.00" fill="#1a365d">Crash Simulation</text>
</g>
<!-- https://w3id.org/sdata/core/Data -->
<g id="node8" class="node">
<title>https://w3id.org/sdata/core/Data</title>
<path fill="#e8f1ff" stroke="#2b6cb0" stroke-width="1.6" d="M1477,-270C1477,-270 1447,-270 1447,-270 1441,-270 1435,-264 1435,-258 1435,-258 1435,-246 1435,-246 1435,-240 1441,-234 1447,-234 1447,-234 1477,-234 1477,-234 1483,-234 1489,-240 1489,-246 1489,-246 1489,-258 1489,-258 1489,-264 1483,-270 1477,-270"/>
<text text-anchor="middle" x="1462" y="-248.9" font-family="Helvetica,sans-Serif" font-size="12.00" fill="#1a365d">Data</text>
</g>
<!-- https://w3id.org/sdata/core/Data&#45;&gt;https://w3id.org/sdata/core/Certificate -->
<g id="edge6" class="edge">
<title>https://w3id.org/sdata/core/Data&#45;&gt;https://w3id.org/sdata/core/Certificate</title>
<path fill="none" stroke="#4a5568" stroke-width="1.6" d="M1452.84,-233.81C1443.49,-216.26 1428.89,-188.84 1418.27,-168.91"/>
<polygon fill="#4a5568" stroke="#4a5568" stroke-width="1.6" points="1420.76,-167.25 1414.14,-161.15 1415.51,-170.05 1420.76,-167.25"/>
</g>
<!-- https://w3id.org/sdata/core/DigitalProductPass -->
<g id="node9" class="node">
<title>https://w3id.org/sdata/core/DigitalProductPass</title>
<path fill="#e8f1ff" stroke="#2b6cb0" stroke-width="1.6" d="M1611.5,-161C1611.5,-161 1498.5,-161 1498.5,-161 1492.5,-161 1486.5,-155 1486.5,-149 1486.5,-149 1486.5,-137 1486.5,-137 1486.5,-131 1492.5,-125 1498.5,-125 1498.5,-125 1611.5,-125 1611.5,-125 1617.5,-125 1623.5,-131 1623.5,-137 1623.5,-137 1623.5,-149 1623.5,-149 1623.5,-155 1617.5,-161 1611.5,-161"/>
<text text-anchor="middle" x="1555" y="-139.9" font-family="Helvetica,sans-Serif" font-size="12.00" fill="#1a365d">Digital Product Pass</text>
</g>
<!-- https://w3id.org/sdata/core/Data&#45;&gt;https://w3id.org/sdata/core/DigitalProductPass -->
<g id="edge7" class="edge">
<title>https://w3id.org/sdata/core/Data&#45;&gt;https://w3id.org/sdata/core/DigitalProductPass</title>
<path fill="none" stroke="#4a5568" stroke-width="1.6" d="M1476.94,-233.81C1492.53,-215.87 1517.09,-187.62 1534.49,-167.6"/>
<polygon fill="#4a5568" stroke="#4a5568" stroke-width="1.6" points="1536.76,-169.52 1540.1,-161.15 1532.27,-165.61 1536.76,-169.52"/>
</g>
<!-- https://w3id.org/sdata/core/Experiment -->
<g id="node10" class="node">
<title>https://w3id.org/sdata/core/Experiment</title>
<path fill="#e8f1ff" stroke="#2b6cb0" stroke-width="1.6" d="M260,-161C260,-161 194,-161 194,-161 188,-161 182,-155 182,-149 182,-149 182,-137 182,-137 182,-131 188,-125 194,-125 194,-125 260,-125 260,-125 266,-125 272,-131 272,-137 272,-137 272,-149 272,-149 272,-155 266,-161 260,-161"/>
<text text-anchor="middle" x="227" y="-139.9" font-family="Helvetica,sans-Serif" font-size="12.00" fill="#1a365d">Experiment</text>
</g>
<!-- https://w3id.org/sdata/core/Experiment&#45;&gt;https://w3id.org/sdata/core/ChemicalAnalysis -->
<g id="edge8" class="edge">
<title>https://w3id.org/sdata/core/Experiment&#45;&gt;https://w3id.org/sdata/core/ChemicalAnalysis</title>
<path fill="none" stroke="#4a5568" stroke-width="1.6" d="M203.38,-124.81C178.2,-106.48 138.23,-77.38 110.64,-57.3"/>
<polygon fill="#4a5568" stroke="#4a5568" stroke-width="1.6" points="112.18,-54.75 103.56,-52.15 108.68,-59.56 112.18,-54.75"/>
</g>
<!-- https://w3id.org/sdata/core/MechanicalTest -->
<g id="node18" class="node">
<title>https://w3id.org/sdata/core/MechanicalTest</title>
<path fill="#e8f1ff" stroke="#2b6cb0" stroke-width="1.6" d="M287.5,-52C287.5,-52 196.5,-52 196.5,-52 190.5,-52 184.5,-46 184.5,-40 184.5,-40 184.5,-28 184.5,-28 184.5,-22 190.5,-16 196.5,-16 196.5,-16 287.5,-16 287.5,-16 293.5,-16 299.5,-22 299.5,-28 299.5,-28 299.5,-40 299.5,-40 299.5,-46 293.5,-52 287.5,-52"/>
<text text-anchor="middle" x="242" y="-30.9" font-family="Helvetica,sans-Serif" font-size="12.00" fill="#1a365d">Mechanical Test</text>
</g>
<!-- https://w3id.org/sdata/core/Experiment&#45;&gt;https://w3id.org/sdata/core/MechanicalTest -->
<g id="edge9" class="edge">
<title>https://w3id.org/sdata/core/Experiment&#45;&gt;https://w3id.org/sdata/core/MechanicalTest</title>
<path fill="none" stroke="#4a5568" stroke-width="1.6" d="M229.41,-124.81C231.84,-107.49 235.61,-80.57 238.4,-60.71"/>
<polygon fill="#4a5568" stroke="#4a5568" stroke-width="1.6" points="241.36,-60.98 239.6,-52.15 235.47,-60.15 241.36,-60.98"/>
</g>
<!-- https://w3id.org/sdata/core/MetallographicExamination -->
<g id="node19" class="node">
<title>https://w3id.org/sdata/core/MetallographicExamination</title>
<path fill="#e8f1ff" stroke="#2b6cb0" stroke-width="1.6" d="M514.5,-52C514.5,-52 351.5,-52 351.5,-52 345.5,-52 339.5,-46 339.5,-40 339.5,-40 339.5,-28 339.5,-28 339.5,-22 345.5,-16 351.5,-16 351.5,-16 514.5,-16 514.5,-16 520.5,-16 526.5,-22 526.5,-28 526.5,-28 526.5,-40 526.5,-40 526.5,-46 520.5,-52 514.5,-52"/>
<text text-anchor="middle" x="433" y="-30.9" font-family="Helvetica,sans-Serif" font-size="12.00" fill="#1a365d">Metallographic Examination</text>
</g>
<!-- https://w3id.org/sdata/core/Experiment&#45;&gt;https://w3id.org/sdata/core/MetallographicExamination -->
<g id="edge10" class="edge">
<title>https://w3id.org/sdata/core/Experiment&#45;&gt;https://w3id.org/sdata/core/MetallographicExamination</title>
<path fill="none" stroke="#4a5568" stroke-width="1.6" d="M260.1,-124.81C295.99,-106.17 353.31,-76.39 392.02,-56.28"/>
<polygon fill="#4a5568" stroke="#4a5568" stroke-width="1.6" points="393.81,-58.71 399.98,-52.15 391.07,-53.43 393.81,-58.71"/>
</g>
<!-- https://w3id.org/sdata/core/FormingProcess -->
<g id="node11" class="node">
<title>https://w3id.org/sdata/core/FormingProcess</title>
<path fill="#e8f1ff" stroke="#2b6cb0" stroke-width="1.6" d="M828,-52C828,-52 734,-52 734,-52 728,-52 722,-46 722,-40 722,-40 722,-28 722,-28 722,-22 728,-16 734,-16 734,-16 828,-16 828,-16 834,-16 840,-22 840,-28 840,-28 840,-40 840,-40 840,-46 834,-52 828,-52"/>
<text text-anchor="middle" x="781" y="-30.9" font-family="Helvetica,sans-Serif" font-size="12.00" fill="#1a365d">Forming Process</text>
</g>
<!-- https://w3id.org/sdata/core/Hardware -->
<g id="node12" class="node">
<title>https://w3id.org/sdata/core/Hardware</title>
<path fill="#e8f1ff" stroke="#2b6cb0" stroke-width="1.6" d="M982,-161C982,-161 928,-161 928,-161 922,-161 916,-155 916,-149 916,-149 916,-137 916,-137 916,-131 922,-125 928,-125 928,-125 982,-125 982,-125 988,-125 994,-131 994,-137 994,-137 994,-149 994,-149 994,-155 988,-161 982,-161"/>
<text text-anchor="middle" x="955" y="-139.9" font-family="Helvetica,sans-Serif" font-size="12.00" fill="#1a365d">Hardware</text>
</g>
<!-- https://w3id.org/sdata/core/HeatTreatment -->
<g id="node13" class="node">
<title>https://w3id.org/sdata/core/HeatTreatment</title>
<path fill="#e8f1ff" stroke="#2b6cb0" stroke-width="1.6" d="M982,-52C982,-52 892,-52 892,-52 886,-52 880,-46 880,-40 880,-40 880,-28 880,-28 880,-22 886,-16 892,-16 892,-16 982,-16 982,-16 988,-16 994,-22 994,-28 994,-28 994,-40 994,-40 994,-46 988,-52 982,-52"/>
<text text-anchor="middle" x="937" y="-30.9" font-family="Helvetica,sans-Serif" font-size="12.00" fill="#1a365d">Heat Treatment</text>
</g>
<!-- https://w3id.org/sdata/core/JoiningProcess -->
<g id="node14" class="node">
<title>https://w3id.org/sdata/core/JoiningProcess</title>
<path fill="#e8f1ff" stroke="#2b6cb0" stroke-width="1.6" d="M1131.5,-52C1131.5,-52 1046.5,-52 1046.5,-52 1040.5,-52 1034.5,-46 1034.5,-40 1034.5,-40 1034.5,-28 1034.5,-28 1034.5,-22 1040.5,-16 1046.5,-16 1046.5,-16 1131.5,-16 1131.5,-16 1137.5,-16 1143.5,-22 1143.5,-28 1143.5,-28 1143.5,-40 1143.5,-40 1143.5,-46 1137.5,-52 1131.5,-52"/>
<text text-anchor="middle" x="1089" y="-30.9" font-family="Helvetica,sans-Serif" font-size="12.00" fill="#1a365d">Joining Process</text>
</g>
<!-- https://w3id.org/sdata/core/ManufacturingProcess -->
<g id="node16" class="node">
<title>https://w3id.org/sdata/core/ManufacturingProcess</title>
<path fill="#e8f1ff" stroke="#2b6cb0" stroke-width="1.6" d="M456,-161C456,-161 324,-161 324,-161 318,-161 312,-155 312,-149 312,-149 312,-137 312,-137 312,-131 318,-125 324,-125 324,-125 456,-125 456,-125 462,-125 468,-131 468,-137 468,-137 468,-149 468,-149 468,-155 462,-161 456,-161"/>
<text text-anchor="middle" x="390" y="-139.9" font-family="Helvetica,sans-Serif" font-size="12.00" fill="#1a365d">Manufacturing Process</text>
</g>
<!-- https://w3id.org/sdata/core/ManufacturingProcess&#45;&gt;https://w3id.org/sdata/core/CoatingProcess -->
<g id="edge11" class="edge">
<title>https://w3id.org/sdata/core/ManufacturingProcess&#45;&gt;https://w3id.org/sdata/core/CoatingProcess</title>
<path fill="none" stroke="#4a5568" stroke-width="1.6" d="M427.34,-124.93C468.52,-106.1 534.77,-75.8 578.84,-55.65"/>
<polygon fill="#4a5568" stroke="#4a5568" stroke-width="1.6" points="580.3,-58.25 586.8,-52.01 577.83,-52.84 580.3,-58.25"/>
</g>
<!-- https://w3id.org/sdata/core/ManufacturingProcess&#45;&gt;https://w3id.org/sdata/core/FormingProcess -->
<g id="edge12" class="edge">
<title>https://w3id.org/sdata/core/ManufacturingProcess&#45;&gt;https://w3id.org/sdata/core/FormingProcess</title>
<path fill="none" stroke="#4a5568" stroke-width="1.6" d="M452.39,-124.93C523.7,-105.41 640.01,-73.58 713.42,-53.49"/>
<polygon fill="#4a5568" stroke="#4a5568" stroke-width="1.6" points="714.3,-56.34 721.72,-51.22 712.73,-50.6 714.3,-56.34"/>
</g>
<!-- https://w3id.org/sdata/core/ManufacturingProcess&#45;&gt;https://w3id.org/sdata/core/HeatTreatment -->
<g id="edge13" class="edge">
<title>https://w3id.org/sdata/core/ManufacturingProcess&#45;&gt;https://w3id.org/sdata/core/HeatTreatment</title>
<path fill="none" stroke="#4a5568" stroke-width="1.6" d="M468.31,-127.7C561.7,-110.49 722.49,-80.34 860,-52 863.72,-51.23 867.54,-50.43 871.39,-49.62"/>
<polygon fill="#4a5568" stroke="#4a5568" stroke-width="1.6" points="872.16,-52.49 879.85,-47.8 870.92,-46.67 872.16,-52.49"/>
</g>
<!-- https://w3id.org/sdata/core/ManufacturingProcess&#45;&gt;https://w3id.org/sdata/core/JoiningProcess -->
<g id="edge14" class="edge">
<title>https://w3id.org/sdata/core/ManufacturingProcess&#45;&gt;https://w3id.org/sdata/core/JoiningProcess</title>
<path fill="none" stroke="#4a5568" stroke-width="1.6" d="M468.06,-128.21C474.8,-127.1 481.52,-126.01 488,-125 721.2,-88.6 781.81,-94.35 1014,-52 1017.8,-51.31 1021.69,-50.55 1025.62,-49.76"/>
<polygon fill="#4a5568" stroke="#4a5568" stroke-width="1.6" points="1026.5,-52.62 1034.22,-47.98 1025.3,-46.79 1026.5,-52.62"/>
</g>
<!-- https://w3id.org/sdata/core/Material -->
<g id="node17" class="node">
<title>https://w3id.org/sdata/core/Material</title>
<path fill="#e8f1ff" stroke="#2b6cb0" stroke-width="1.6" d="M1091.5,-161C1091.5,-161 1046.5,-161 1046.5,-161 1040.5,-161 1034.5,-155 1034.5,-149 1034.5,-149 1034.5,-137 1034.5,-137 1034.5,-131 1040.5,-125 1046.5,-125 1046.5,-125 1091.5,-125 1091.5,-125 1097.5,-125 1103.5,-131 1103.5,-137 1103.5,-137 1103.5,-149 1103.5,-149 1103.5,-155 1097.5,-161 1091.5,-161"/>
<text text-anchor="middle" x="1069" y="-139.9" font-family="Helvetica,sans-Serif" font-size="12.00" fill="#1a365d">Material</text>
</g>
<!-- https://w3id.org/sdata/core/Object -->
<g id="node20" class="node">
<title>https://w3id.org/sdata/core/Object</title>
<path fill="#e8f1ff" stroke="#2b6cb0" stroke-width="1.6" d="M1128,-270C1128,-270 1092,-270 1092,-270 1086,-270 1080,-264 1080,-258 1080,-258 1080,-246 1080,-246 1080,-240 1086,-234 1092,-234 1092,-234 1128,-234 1128,-234 1134,-234 1140,-240 1140,-246 1140,-246 1140,-258 1140,-258 1140,-264 1134,-270 1128,-270"/>
<text text-anchor="middle" x="1110" y="-248.9" font-family="Helvetica,sans-Serif" font-size="12.00" fill="#1a365d">Object</text>
</g>
<!-- https://w3id.org/sdata/core/Object&#45;&gt;https://w3id.org/sdata/core/Hardware -->
<g id="edge15" class="edge">
<title>https://w3id.org/sdata/core/Object&#45;&gt;https://w3id.org/sdata/core/Hardware</title>
<path fill="none" stroke="#4a5568" stroke-width="1.6" d="M1085.1,-233.81C1058.43,-215.4 1016.04,-186.14 986.94,-166.05"/>
<polygon fill="#4a5568" stroke="#4a5568" stroke-width="1.6" points="988.53,-163.53 979.84,-161.15 985.15,-168.43 988.53,-163.53"/>
</g>
<!-- https://w3id.org/sdata/core/Object&#45;&gt;https://w3id.org/sdata/core/Material -->
<g id="edge16" class="edge">
<title>https://w3id.org/sdata/core/Object&#45;&gt;https://w3id.org/sdata/core/Material</title>
<path fill="none" stroke="#4a5568" stroke-width="1.6" d="M1103.41,-233.81C1096.72,-216.34 1086.28,-189.08 1078.65,-169.18"/>
<polygon fill="#4a5568" stroke="#4a5568" stroke-width="1.6" points="1081.39,-168.02 1075.57,-161.15 1075.83,-170.15 1081.39,-168.02"/>
</g>
<!-- https://w3id.org/sdata/core/Product -->
<g id="node24" class="node">
<title>https://w3id.org/sdata/core/Product</title>
<path fill="#e8f1ff" stroke="#2b6cb0" stroke-width="1.6" d="M1198,-161C1198,-161 1156,-161 1156,-161 1150,-161 1144,-155 1144,-149 1144,-149 1144,-137 1144,-137 1144,-131 1150,-125 1156,-125 1156,-125 1198,-125 1198,-125 1204,-125 1210,-131 1210,-137 1210,-137 1210,-149 1210,-149 1210,-155 1204,-161 1198,-161"/>
<text text-anchor="middle" x="1177" y="-139.9" font-family="Helvetica,sans-Serif" font-size="12.00" fill="#1a365d">Product</text>
</g>
<!-- https://w3id.org/sdata/core/Object&#45;&gt;https://w3id.org/sdata/core/Product -->
<g id="edge17" class="edge">
<title>https://w3id.org/sdata/core/Object&#45;&gt;https://w3id.org/sdata/core/Product</title>
<path fill="none" stroke="#4a5568" stroke-width="1.6" d="M1120.76,-233.81C1131.85,-216.1 1149.23,-188.35 1161.73,-168.38"/>
<polygon fill="#4a5568" stroke="#4a5568" stroke-width="1.6" points="1164.27,-169.93 1166.26,-161.15 1159.23,-166.77 1164.27,-169.93"/>
</g>
<!-- https://w3id.org/sdata/core/Software -->
<g id="node27" class="node">
<title>https://w3id.org/sdata/core/Software</title>
<path fill="#e8f1ff" stroke="#2b6cb0" stroke-width="1.6" d="M1311.5,-161C1311.5,-161 1262.5,-161 1262.5,-161 1256.5,-161 1250.5,-155 1250.5,-149 1250.5,-149 1250.5,-137 1250.5,-137 1250.5,-131 1256.5,-125 1262.5,-125 1262.5,-125 1311.5,-125 1311.5,-125 1317.5,-125 1323.5,-131 1323.5,-137 1323.5,-137 1323.5,-149 1323.5,-149 1323.5,-155 1317.5,-161 1311.5,-161"/>
<text text-anchor="middle" x="1287" y="-139.9" font-family="Helvetica,sans-Serif" font-size="12.00" fill="#1a365d">Software</text>
</g>
<!-- https://w3id.org/sdata/core/Object&#45;&gt;https://w3id.org/sdata/core/Software -->
<g id="edge18" class="edge">
<title>https://w3id.org/sdata/core/Object&#45;&gt;https://w3id.org/sdata/core/Software</title>
<path fill="none" stroke="#4a5568" stroke-width="1.6" d="M1138.44,-233.81C1169.02,-215.32 1217.71,-185.89 1250.95,-165.79"/>
<polygon fill="#4a5568" stroke="#4a5568" stroke-width="1.6" points="1252.9,-168.09 1258.63,-161.15 1249.82,-163 1252.9,-168.09"/>
</g>
<!-- https://w3id.org/sdata/core/Process -->
<g id="node23" class="node">
<title>https://w3id.org/sdata/core/Process</title>
<path fill="#e8f1ff" stroke="#2b6cb0" stroke-width="1.6" d="M479,-270C479,-270 437,-270 437,-270 431,-270 425,-264 425,-258 425,-258 425,-246 425,-246 425,-240 431,-234 437,-234 437,-234 479,-234 479,-234 485,-234 491,-240 491,-246 491,-246 491,-258 491,-258 491,-264 485,-270 479,-270"/>
<text text-anchor="middle" x="458" y="-248.9" font-family="Helvetica,sans-Serif" font-size="12.00" fill="#1a365d">Process</text>
</g>
<!-- https://w3id.org/sdata/core/Process&#45;&gt;https://w3id.org/sdata/core/AssemblyProcess -->
<g id="edge19" class="edge">
<title>https://w3id.org/sdata/core/Process&#45;&gt;https://w3id.org/sdata/core/AssemblyProcess</title>
<path fill="none" stroke="#4a5568" stroke-width="1.6" d="M424.7,-241.6C362.97,-224.17 229.62,-186.52 147.77,-163.41"/>
<polygon fill="#4a5568" stroke="#4a5568" stroke-width="1.6" points="148.51,-160.53 139.52,-161.09 146.89,-166.26 148.51,-160.53"/>
</g>
<!-- https://w3id.org/sdata/core/Process&#45;&gt;https://w3id.org/sdata/core/Experiment -->
<g id="edge20" class="edge">
<title>https://w3id.org/sdata/core/Process&#45;&gt;https://w3id.org/sdata/core/Experiment</title>
<path fill="none" stroke="#4a5568" stroke-width="1.6" d="M424.9,-235.67C384.65,-217.03 316.55,-185.48 271.67,-164.69"/>
<polygon fill="#4a5568" stroke="#4a5568" stroke-width="1.6" points="272.82,-161.94 263.85,-161.07 270.32,-167.34 272.82,-161.94"/>
</g>
<!-- https://w3id.org/sdata/core/Process&#45;&gt;https://w3id.org/sdata/core/ManufacturingProcess -->
<g id="edge21" class="edge">
<title>https://w3id.org/sdata/core/Process&#45;&gt;https://w3id.org/sdata/core/ManufacturingProcess</title>
<path fill="none" stroke="#4a5568" stroke-width="1.6" d="M447.07,-233.81C435.82,-216.1 418.19,-188.35 405.5,-168.38"/>
<polygon fill="#4a5568" stroke="#4a5568" stroke-width="1.6" points="407.97,-166.73 400.9,-161.15 402.95,-169.92 407.97,-166.73"/>
</g>
<!-- https://w3id.org/sdata/core/RecyclingProcess -->
<g id="node25" class="node">
<title>https://w3id.org/sdata/core/RecyclingProcess</title>
<path fill="#e8f1ff" stroke="#2b6cb0" stroke-width="1.6" d="M622,-161C622,-161 520,-161 520,-161 514,-161 508,-155 508,-149 508,-149 508,-137 508,-137 508,-131 514,-125 520,-125 520,-125 622,-125 622,-125 628,-125 634,-131 634,-137 634,-137 634,-149 634,-149 634,-155 628,-161 622,-161"/>
<text text-anchor="middle" x="571" y="-139.9" font-family="Helvetica,sans-Serif" font-size="12.00" fill="#1a365d">Recycling Process</text>
</g>
<!-- https://w3id.org/sdata/core/Process&#45;&gt;https://w3id.org/sdata/core/RecyclingProcess -->
<g id="edge22" class="edge">
<title>https://w3id.org/sdata/core/Process&#45;&gt;https://w3id.org/sdata/core/RecyclingProcess</title>
<path fill="none" stroke="#4a5568" stroke-width="1.6" d="M476.16,-233.81C495.27,-215.71 525.46,-187.12 546.63,-167.08"/>
<polygon fill="#4a5568" stroke="#4a5568" stroke-width="1.6" points="548.76,-169.15 552.89,-161.15 544.67,-164.83 548.76,-169.15"/>
</g>
<!-- https://w3id.org/sdata/core/Simulation -->
<g id="node26" class="node">
<title>https://w3id.org/sdata/core/Simulation</title>
<path fill="#e8f1ff" stroke="#2b6cb0" stroke-width="1.6" d="M746,-161C746,-161 686,-161 686,-161 680,-161 674,-155 674,-149 674,-149 674,-137 674,-137 674,-131 680,-125 686,-125 686,-125 746,-125 746,-125 752,-125 758,-131 758,-137 758,-137 758,-149 758,-149 758,-155 752,-161 746,-161"/>
<text text-anchor="middle" x="716" y="-139.9" font-family="Helvetica,sans-Serif" font-size="12.00" fill="#1a365d">Simulation</text>
</g>
<!-- https://w3id.org/sdata/core/Process&#45;&gt;https://w3id.org/sdata/core/Simulation -->
<g id="edge23" class="edge">
<title>https://w3id.org/sdata/core/Process&#45;&gt;https://w3id.org/sdata/core/Simulation</title>
<path fill="none" stroke="#4a5568" stroke-width="1.6" d="M491.2,-237.23C535.77,-218.75 615.29,-185.77 666.82,-164.4"/>
<polygon fill="#4a5568" stroke="#4a5568" stroke-width="1.6" points="668.13,-167.07 674.84,-161.07 665.85,-161.58 668.13,-167.07"/>
</g>
<!-- https://w3id.org/sdata/core/Transport -->
<g id="node29" class="node">
<title>https://w3id.org/sdata/core/Transport</title>
<path fill="#e8f1ff" stroke="#2b6cb0" stroke-width="1.6" d="M863.5,-161C863.5,-161 810.5,-161 810.5,-161 804.5,-161 798.5,-155 798.5,-149 798.5,-149 798.5,-137 798.5,-137 798.5,-131 804.5,-125 810.5,-125 810.5,-125 863.5,-125 863.5,-125 869.5,-125 875.5,-131 875.5,-137 875.5,-137 875.5,-149 875.5,-149 875.5,-155 869.5,-161 863.5,-161"/>
<text text-anchor="middle" x="837" y="-139.9" font-family="Helvetica,sans-Serif" font-size="12.00" fill="#1a365d">Transport</text>
</g>
<!-- https://w3id.org/sdata/core/Process&#45;&gt;https://w3id.org/sdata/core/Transport -->
<g id="edge24" class="edge">
<title>https://w3id.org/sdata/core/Process&#45;&gt;https://w3id.org/sdata/core/Transport</title>
<path fill="none" stroke="#4a5568" stroke-width="1.6" d="M491.19,-241.74C549.33,-225.5 673.37,-190.79 778,-161 781.9,-159.89 785.94,-158.74 789.99,-157.57"/>
<polygon fill="#4a5568" stroke="#4a5568" stroke-width="1.6" points="790.94,-160.4 798.29,-155.19 789.3,-154.68 790.94,-160.4"/>
</g>
<!-- https://w3id.org/sdata/core/Simulation&#45;&gt;https://w3id.org/sdata/core/CrashSimulation -->
<g id="edge25" class="edge">
<title>https://w3id.org/sdata/core/Simulation&#45;&gt;https://w3id.org/sdata/core/CrashSimulation</title>
<path fill="none" stroke="#4a5568" stroke-width="1.6" d="M758.25,-130.12C765.16,-128.32 772.26,-126.54 779,-125 948.75,-86.06 993.21,-86.11 1164,-52 1167.75,-51.25 1171.59,-50.48 1175.47,-49.68"/>
<polygon fill="#4a5568" stroke="#4a5568" stroke-width="1.6" points="1176.26,-52.56 1183.99,-47.94 1175.07,-46.73 1176.26,-52.56"/>
</g>
<!-- https://w3id.org/sdata/core/ValueDomain -->
<g id="node30" class="node">
<title>https://w3id.org/sdata/core/ValueDomain</title>
<path fill="#e8f1ff" stroke="#2b6cb0" stroke-width="1.6" d="M275,-270C275,-270 195,-270 195,-270 189,-270 183,-264 183,-258 183,-258 183,-246 183,-246 183,-240 189,-234 195,-234 195,-234 275,-234 275,-234 281,-234 287,-240 287,-246 287,-246 287,-258 287,-258 287,-264 281,-270 275,-270"/>
<text text-anchor="middle" x="235" y="-248.9" font-family="Helvetica,sans-Serif" font-size="12.00" fill="#1a365d">Value Domain</text>
</g>
<!-- legend_sdata -->
<g id="node31" class="node">
<title>legend_sdata</title>
<path fill="#e8f1ff" stroke="#2b6cb0" stroke-width="1.6" d="M2263.5,-270C2263.5,-270 2200.5,-270 2200.5,-270 2194.5,-270 2188.5,-264 2188.5,-258 2188.5,-258 2188.5,-246 2188.5,-246 2188.5,-240 2194.5,-234 2200.5,-234 2200.5,-234 2263.5,-234 2263.5,-234 2269.5,-234 2275.5,-240 2275.5,-246 2275.5,-246 2275.5,-258 2275.5,-258 2275.5,-264 2269.5,-270 2263.5,-270"/>
<text text-anchor="middle" x="2232" y="-248.9" font-family="Helvetica,sans-Serif" font-size="12.00" fill="#1a365d">sdata class</text>
</g>
<!-- legend_sdata&#45;&gt;legend_sdata -->
<g id="edge1" class="edge">
<title>legend_sdata&#45;&gt;legend_sdata</title>
<path fill="none" stroke="#4a5568" stroke-width="1.6" d="M2275.82,-261.88C2296.89,-263.1 2315.5,-259.8 2315.5,-252 2315.5,-245.29 2301.76,-241.92 2284.52,-241.88"/>
<polygon fill="#4a5568" stroke="#4a5568" stroke-width="1.6" points="2284.23,-238.91 2275.82,-242.12 2284.4,-244.85 2284.23,-238.91"/>
<text text-anchor="middle" x="2395.5" y="-248.3" font-family="Helvetica,sans-Serif" font-size="14.00">superclass &#45;&gt; subclass</text>
</g>
</g>
</svg>
