<?xml version="1.0" encoding="UTF-8" standalone="no"?>
<!DOCTYPE svg PUBLIC "-//W3C//DTD SVG 1.1//EN"
 "http://www.w3.org/Graphics/SVG/1.1/DTD/svg11.dtd">
<!-- Generated by graphviz version 2.43.0 (0)
 -->
<!-- Pages: 1 -->
<svg width="1602pt" height="287pt"
 viewBox="0.00 0.00 1601.90 287.40" xmlns="http://www.w3.org/2000/svg" xmlns:xlink="http://www.w3.org/1999/xlink">
<g id="graph0" class="graph" transform="scale(1 1) rotate(0) translate(25.2 262.2)">
<polygon fill="#fafbfc" stroke="transparent" points="-25.2,25.2 -25.2,-262.2 1576.7,-262.2 1576.7,25.2 -25.2,25.2"/>
<text text-anchor="middle" x="775.75" y="-217" font-family="Helvetica,sans-Serif" font-size="20.00">sdata Class Hierarchy (core v0.10.0 / MIN+OPA based)</text>
<g id="clust1" class="cluster">
<title>cluster_sdata</title>
<path fill="#fafbfc" stroke="#90b5e8" d="M20,-8C20,-8 1236,-8 1236,-8 1242,-8 1248,-14 1248,-20 1248,-20 1248,-187 1248,-187 1248,-193 1242,-199 1236,-199 1236,-199 20,-199 20,-199 14,-199 8,-193 8,-187 8,-187 8,-20 8,-20 8,-14 14,-8 20,-8"/>
<text text-anchor="middle" x="628" y="-179" font-family="Helvetica,sans-Serif" font-size="20.00">sdata classes</text>
</g>
<g id="clust2" class="cluster">
<title>cluster_legend</title>
<path fill="#fafbfc" stroke="#cbd5e0" d="M1268,-117C1268,-117 1526,-117 1526,-117 1532,-117 1538,-123 1538,-129 1538,-129 1538,-187 1538,-187 1538,-193 1532,-199 1526,-199 1526,-199 1268,-199 1268,-199 1262,-199 1256,-193 1256,-187 1256,-187 1256,-129 1256,-129 1256,-123 1262,-117 1268,-117"/>
<text text-anchor="middle" x="1397" y="-179" font-family="Helvetica,sans-Serif" font-size="20.00">Legend</text>
</g>
<!-- https://w3id.org/sdata/core/Agent -->
<g id="node1" class="node">
<title>https://w3id.org/sdata/core/Agent</title>
<path fill="#e8f1ff" stroke="#2b6cb0" stroke-width="1.6" d="M954,-161C954,-161 922,-161 922,-161 916,-161 910,-155 910,-149 910,-149 910,-137 910,-137 910,-131 916,-125 922,-125 922,-125 954,-125 954,-125 960,-125 966,-131 966,-137 966,-137 966,-149 966,-149 966,-155 960,-161 954,-161"/>
<text text-anchor="middle" x="938" y="-139.9" font-family="Helvetica,sans-Serif" font-size="12.00" fill="#1a365d">Agent</text>
</g>
<!-- https://w3id.org/sdata/core/EnvironmentAgent -->
<g id="node4" class="node">
<title>https://w3id.org/sdata/core/EnvironmentAgent</title>
<path fill="#e8f1ff" stroke="#2b6cb0" stroke-width="1.6" d="M680.5,-52C680.5,-52 569.5,-52 569.5,-52 563.5,-52 557.5,-46 557.5,-40 557.5,-40 557.5,-28 557.5,-28 557.5,-22 563.5,-16 569.5,-16 569.5,-16 680.5,-16 680.5,-16 686.5,-16 692.5,-22 692.5,-28 692.5,-28 692.5,-40 692.5,-40 692.5,-46 686.5,-52 680.5,-52"/>
<text text-anchor="middle" x="625" y="-30.9" font-family="Helvetica,sans-Serif" font-size="12.00" fill="#1a365d">Environment Agent</text>
</g>
<!-- https://w3id.org/sdata/core/Agent&#45;&gt;https://w3id.org/sdata/core/EnvironmentAgent -->
<g id="edge2" class="edge">
<title>https://w3id.org/sdata/core/Agent&#45;&gt;https://w3id.org/sdata/core/EnvironmentAgent</title>
<path fill="none" stroke="#4a5568" stroke-width="1.6" d="M909.95,-132.41C859.08,-115.02 750.65,-77.96 683.19,-54.89"/>
<polygon fill="#4a5568" stroke="#4a5568" stroke-width="1.6" points="683.77,-51.95 674.77,-52.01 681.85,-57.58 683.77,-51.95"/>
</g>
<!-- https://w3id.org/sdata/core/HardwareAgent -->
<g id="node6" class="node">
<title>https://w3id.org/sdata/core/HardwareAgent</title>
<path fill="#e8f1ff" stroke="#2b6cb0" stroke-width="1.6" d="M837.5,-52C837.5,-52 744.5,-52 744.5,-52 738.5,-52 732.5,-46 732.5,-40 732.5,-40 732.5,-28 732.5,-28 732.5,-22 738.5,-16 744.5,-16 744.5,-16 837.5,-16 837.5,-16 843.5,-16 849.5,-22 849.5,-28 849.5,-28 849.5,-40 849.5,-40 849.5,-46 843.5,-52 837.5,-52"/>
<text text-anchor="middle" x="791" y="-30.9" font-family="Helvetica,sans-Serif" font-size="12.00" fill="#1a365d">Hardware Agent</text>
</g>
<!-- https://w3id.org/sdata/core/Agent&#45;&gt;https://w3id.org/sdata/core/HardwareAgent -->
<g id="edge3" class="edge">
<title>https://w3id.org/sdata/core/Agent&#45;&gt;https://w3id.org/sdata/core/HardwareAgent</title>
<path fill="none" stroke="#4a5568" stroke-width="1.6" d="M914.38,-124.81C889.2,-106.48 849.23,-77.38 821.64,-57.3"/>
<polygon fill="#4a5568" stroke="#4a5568" stroke-width="1.6" points="823.18,-54.75 814.56,-52.15 819.68,-59.56 823.18,-54.75"/>
</g>
<!-- https://w3id.org/sdata/core/Organization -->
<g id="node9" class="node">
<title>https://w3id.org/sdata/core/Organization</title>
<path fill="#e8f1ff" stroke="#2b6cb0" stroke-width="1.6" d="M974,-52C974,-52 902,-52 902,-52 896,-52 890,-46 890,-40 890,-40 890,-28 890,-28 890,-22 896,-16 902,-16 902,-16 974,-16 974,-16 980,-16 986,-22 986,-28 986,-28 986,-40 986,-40 986,-46 980,-52 974,-52"/>
<text text-anchor="middle" x="938" y="-30.9" font-family="Helvetica,sans-Serif" font-size="12.00" fill="#1a365d">Organization</text>
</g>
<!-- https://w3id.org/sdata/core/Agent&#45;&gt;https://w3id.org/sdata/core/Organization -->
<g id="edge4" class="edge">
<title>https://w3id.org/sdata/core/Agent&#45;&gt;https://w3id.org/sdata/core/Organization</title>
<path fill="none" stroke="#4a5568" stroke-width="1.6" d="M938,-124.81C938,-107.49 938,-80.57 938,-60.71"/>
<polygon fill="#4a5568" stroke="#4a5568" stroke-width="1.6" points="940.98,-60.65 938,-52.15 935.03,-60.65 940.98,-60.65"/>
</g>
<!-- https://w3id.org/sdata/core/Person -->
<g id="node10" class="node">
<title>https://w3id.org/sdata/core/Person</title>
<path fill="#e8f1ff" stroke="#2b6cb0" stroke-width="1.6" d="M1075.5,-52C1075.5,-52 1038.5,-52 1038.5,-52 1032.5,-52 1026.5,-46 1026.5,-40 1026.5,-40 1026.5,-28 1026.5,-28 1026.5,-22 1032.5,-16 1038.5,-16 1038.5,-16 1075.5,-16 1075.5,-16 1081.5,-16 1087.5,-22 1087.5,-28 1087.5,-28 1087.5,-40 1087.5,-40 1087.5,-46 1081.5,-52 1075.5,-52"/>
<text text-anchor="middle" x="1057" y="-30.9" font-family="Helvetica,sans-Serif" font-size="12.00" fill="#1a365d">Person</text>
</g>
<!-- https://w3id.org/sdata/core/Agent&#45;&gt;https://w3id.org/sdata/core/Person -->
<g id="edge5" class="edge">
<title>https://w3id.org/sdata/core/Agent&#45;&gt;https://w3id.org/sdata/core/Person</title>
<path fill="none" stroke="#4a5568" stroke-width="1.6" d="M957.12,-124.81C977.24,-106.71 1009.04,-78.12 1031.34,-58.08"/>
<polygon fill="#4a5568" stroke="#4a5568" stroke-width="1.6" points="1033.6,-60.04 1037.93,-52.15 1029.62,-55.62 1033.6,-60.04"/>
</g>
<!-- https://w3id.org/sdata/core/SoftwareAgent -->
<g id="node14" class="node">
<title>https://w3id.org/sdata/core/SoftwareAgent</title>
<path fill="#e8f1ff" stroke="#2b6cb0" stroke-width="1.6" d="M1228,-52C1228,-52 1140,-52 1140,-52 1134,-52 1128,-46 1128,-40 1128,-40 1128,-28 1128,-28 1128,-22 1134,-16 1140,-16 1140,-16 1228,-16 1228,-16 1234,-16 1240,-22 1240,-28 1240,-28 1240,-40 1240,-40 1240,-46 1234,-52 1228,-52"/>
<text text-anchor="middle" x="1184" y="-30.9" font-family="Helvetica,sans-Serif" font-size="12.00" fill="#1a365d">Software Agent</text>
</g>
<!-- https://w3id.org/sdata/core/Agent&#45;&gt;https://w3id.org/sdata/core/SoftwareAgent -->
<g id="edge6" class="edge">
<title>https://w3id.org/sdata/core/Agent&#45;&gt;https://w3id.org/sdata/core/SoftwareAgent</title>
<path fill="none" stroke="#4a5568" stroke-width="1.6" d="M966.22,-129.73C1007.91,-111.59 1086.45,-77.43 1136.95,-55.47"/>
<polygon fill="#4a5568" stroke="#4a5568" stroke-width="1.6" points="1138.19,-58.17 1144.8,-52.05 1135.82,-52.71 1138.19,-58.17"/>
</g>
<!-- https://w3id.org/sdata/core/AttributeQuantityValue -->
<g id="node2" class="node">
<title>https://w3id.org/sdata/core/AttributeQuantityValue</title>
<path fill="#e8f1ff" stroke="#2b6cb0" stroke-width="1.6" d="M688.5,-161C688.5,-161 547.5,-161 547.5,-161 541.5,-161 535.5,-155 535.5,-149 535.5,-149 535.5,-137 535.5,-137 535.5,-131 541.5,-125 547.5,-125 547.5,-125 688.5,-125 688.5,-125 694.5,-125 700.5,-131 700.5,-137 700.5,-137 700.5,-149 700.5,-149 700.5,-155 694.5,-161 688.5,-161"/>
<text text-anchor="middle" x="618" y="-139.9" font-family="Helvetica,sans-Serif" font-size="12.00" fill="#1a365d">Attribute Quantity Value</text>
</g>
<!-- https://w3id.org/sdata/core/Data -->
<g id="node3" class="node">
<title>https://w3id.org/sdata/core/Data</title>
<path fill="#e8f1ff" stroke="#2b6cb0" stroke-width="1.6" d="M58,-52C58,-52 28,-52 28,-52 22,-52 16,-46 16,-40 16,-40 16,-28 16,-28 16,-22 22,-16 28,-16 28,-16 58,-16 58,-16 64,-16 70,-22 70,-28 70,-28 70,-40 70,-40 70,-46 64,-52 58,-52"/>
<text text-anchor="middle" x="43" y="-30.9" font-family="Helvetica,sans-Serif" font-size="12.00" fill="#1a365d">Data</text>
</g>
<!-- https://w3id.org/sdata/core/Hardware -->
<g id="node5" class="node">
<title>https://w3id.org/sdata/core/Hardware</title>
<path fill="#e8f1ff" stroke="#2b6cb0" stroke-width="1.6" d="M176,-52C176,-52 122,-52 122,-52 116,-52 110,-46 110,-40 110,-40 110,-28 110,-28 110,-22 116,-16 122,-16 122,-16 176,-16 176,-16 182,-16 188,-22 188,-28 188,-28 188,-40 188,-40 188,-46 182,-52 176,-52"/>
<text text-anchor="middle" x="149" y="-30.9" font-family="Helvetica,sans-Serif" font-size="12.00" fill="#1a365d">Hardware</text>
</g>
<!-- https://w3id.org/sdata/core/Material -->
<g id="node7" class="node">
<title>https://w3id.org/sdata/core/Material</title>
<path fill="#e8f1ff" stroke="#2b6cb0" stroke-width="1.6" d="M285.5,-52C285.5,-52 240.5,-52 240.5,-52 234.5,-52 228.5,-46 228.5,-40 228.5,-40 228.5,-28 228.5,-28 228.5,-22 234.5,-16 240.5,-16 240.5,-16 285.5,-16 285.5,-16 291.5,-16 297.5,-22 297.5,-28 297.5,-28 297.5,-40 297.5,-40 297.5,-46 291.5,-52 285.5,-52"/>
<text text-anchor="middle" x="263" y="-30.9" font-family="Helvetica,sans-Serif" font-size="12.00" fill="#1a365d">Material</text>
</g>
<!-- https://w3id.org/sdata/core/Object -->
<g id="node8" class="node">
<title>https://w3id.org/sdata/core/Object</title>
<path fill="#e8f1ff" stroke="#2b6cb0" stroke-width="1.6" d="M314,-161C314,-161 278,-161 278,-161 272,-161 266,-155 266,-149 266,-149 266,-137 266,-137 266,-131 272,-125 278,-125 278,-125 314,-125 314,-125 320,-125 326,-131 326,-137 326,-137 326,-149 326,-149 326,-155 320,-161 314,-161"/>
<text text-anchor="middle" x="296" y="-139.9" font-family="Helvetica,sans-Serif" font-size="12.00" fill="#1a365d">Object</text>
</g>
<!-- https://w3id.org/sdata/core/Object&#45;&gt;https://w3id.org/sdata/core/Data -->
<g id="edge7" class="edge">
<title>https://w3id.org/sdata/core/Object&#45;&gt;https://w3id.org/sdata/core/Data</title>
<path fill="none" stroke="#4a5568" stroke-width="1.6" d="M265.78,-126.41C259.3,-123.2 252.46,-119.91 246,-117 187.98,-90.83 119,-63.81 78.23,-48.25"/>
<polygon fill="#4a5568" stroke="#4a5568" stroke-width="1.6" points="79.22,-45.44 70.22,-45.2 77.1,-51 79.22,-45.44"/>
</g>
<!-- https://w3id.org/sdata/core/Object&#45;&gt;https://w3id.org/sdata/core/Hardware -->
<g id="edge8" class="edge">
<title>https://w3id.org/sdata/core/Object&#45;&gt;https://w3id.org/sdata/core/Hardware</title>
<path fill="none" stroke="#4a5568" stroke-width="1.6" d="M272.38,-124.81C247.2,-106.48 207.23,-77.38 179.64,-57.3"/>
<polygon fill="#4a5568" stroke="#4a5568" stroke-width="1.6" points="181.18,-54.75 172.56,-52.15 177.68,-59.56 181.18,-54.75"/>
</g>
<!-- https://w3id.org/sdata/core/Object&#45;&gt;https://w3id.org/sdata/core/Material -->
<g id="edge9" class="edge">
<title>https://w3id.org/sdata/core/Object&#45;&gt;https://w3id.org/sdata/core/Material</title>
<path fill="none" stroke="#4a5568" stroke-width="1.6" d="M290.7,-124.81C285.33,-107.42 276.98,-80.33 270.85,-60.45"/>
<polygon fill="#4a5568" stroke="#4a5568" stroke-width="1.6" points="273.64,-59.39 268.29,-52.15 267.95,-61.15 273.64,-59.39"/>
</g>
<!-- https://w3id.org/sdata/core/Product -->
<g id="node12" class="node">
<title>https://w3id.org/sdata/core/Product</title>
<path fill="#e8f1ff" stroke="#2b6cb0" stroke-width="1.6" d="M392,-52C392,-52 350,-52 350,-52 344,-52 338,-46 338,-40 338,-40 338,-28 338,-28 338,-22 344,-16 350,-16 350,-16 392,-16 392,-16 398,-16 404,-22 404,-28 404,-28 404,-40 404,-40 404,-46 398,-52 392,-52"/>
<text text-anchor="middle" x="371" y="-30.9" font-family="Helvetica,sans-Serif" font-size="12.00" fill="#1a365d">Product</text>
</g>
<!-- https://w3id.org/sdata/core/Object&#45;&gt;https://w3id.org/sdata/core/Product -->
<g id="edge10" class="edge">
<title>https://w3id.org/sdata/core/Object&#45;&gt;https://w3id.org/sdata/core/Product</title>
<path fill="none" stroke="#4a5568" stroke-width="1.6" d="M308.05,-124.81C320.52,-107.03 340.08,-79.11 354.09,-59.12"/>
<polygon fill="#4a5568" stroke="#4a5568" stroke-width="1.6" points="356.54,-60.82 358.98,-52.15 351.66,-57.4 356.54,-60.82"/>
</g>
<!-- https://w3id.org/sdata/core/Software -->
<g id="node13" class="node">
<title>https://w3id.org/sdata/core/Software</title>
<path fill="#e8f1ff" stroke="#2b6cb0" stroke-width="1.6" d="M505.5,-52C505.5,-52 456.5,-52 456.5,-52 450.5,-52 444.5,-46 444.5,-40 444.5,-40 444.5,-28 444.5,-28 444.5,-22 450.5,-16 456.5,-16 456.5,-16 505.5,-16 505.5,-16 511.5,-16 517.5,-22 517.5,-28 517.5,-28 517.5,-40 517.5,-40 517.5,-46 511.5,-52 505.5,-52"/>
<text text-anchor="middle" x="481" y="-30.9" font-family="Helvetica,sans-Serif" font-size="12.00" fill="#1a365d">Software</text>
</g>
<!-- https://w3id.org/sdata/core/Object&#45;&gt;https://w3id.org/sdata/core/Software -->
<g id="edge11" class="edge">
<title>https://w3id.org/sdata/core/Object&#45;&gt;https://w3id.org/sdata/core/Software</title>
<path fill="none" stroke="#4a5568" stroke-width="1.6" d="M325.72,-124.81C357.82,-106.25 409.01,-76.64 443.76,-56.54"/>
<polygon fill="#4a5568" stroke="#4a5568" stroke-width="1.6" points="445.48,-58.98 451.35,-52.15 442.5,-53.83 445.48,-58.98"/>
</g>
<!-- https://w3id.org/sdata/core/Process -->
<g id="node11" class="node">
<title>https://w3id.org/sdata/core/Process</title>
<path fill="#e8f1ff" stroke="#2b6cb0" stroke-width="1.6" d="M214,-161C214,-161 172,-161 172,-161 166,-161 160,-155 160,-149 160,-149 160,-137 160,-137 160,-131 166,-125 172,-125 172,-125 214,-125 214,-125 220,-125 226,-131 226,-137 226,-137 226,-149 226,-149 226,-155 220,-161 214,-161"/>
<text text-anchor="middle" x="193" y="-139.9" font-family="Helvetica,sans-Serif" font-size="12.00" fill="#1a365d">Process</text>
</g>
<!-- https://w3id.org/sdata/core/ValueDomain -->
<g id="node15" class="node">
<title>https://w3id.org/sdata/core/ValueDomain</title>
<path fill="#e8f1ff" stroke="#2b6cb0" stroke-width="1.6" d="M108,-161C108,-161 28,-161 28,-161 22,-161 16,-155 16,-149 16,-149 16,-137 16,-137 16,-131 22,-125 28,-125 28,-125 108,-125 108,-125 114,-125 120,-131 120,-137 120,-137 120,-149 120,-149 120,-155 114,-161 108,-161"/>
<text text-anchor="middle" x="68" y="-139.9" font-family="Helvetica,sans-Serif" font-size="12.00" fill="#1a365d">Value Domain</text>
</g>
<!-- legend_sdata -->
<g id="node16" class="node">
<title>legend_sdata</title>
<path fill="#e8f1ff" stroke="#2b6cb0" stroke-width="1.6" d="M1339.5,-161C1339.5,-161 1276.5,-161 1276.5,-161 1270.5,-161 1264.5,-155 1264.5,-149 1264.5,-149 1264.5,-137 1264.5,-137 1264.5,-131 1270.5,-125 1276.5,-125 1276.5,-125 1339.5,-125 1339.5,-125 1345.5,-125 1351.5,-131 1351.5,-137 1351.5,-137 1351.5,-149 1351.5,-149 1351.5,-155 1345.5,-161 1339.5,-161"/>
<text text-anchor="middle" x="1308" y="-139.9" font-family="Helvetica,sans-Serif" font-size="12.00" fill="#1a365d">sdata class</text>
</g>
<!-- legend_sdata&#45;&gt;legend_sdata -->
<g id="edge1" class="edge">
<title>legend_sdata&#45;&gt;legend_sdata</title>
<path fill="none" stroke="#4a5568" stroke-width="1.6" d="M1351.82,-152.88C1372.89,-154.1 1391.5,-150.8 1391.5,-143 1391.5,-136.29 1377.76,-132.92 1360.52,-132.88"/>
<polygon fill="#4a5568" stroke="#4a5568" stroke-width="1.6" points="1360.23,-129.91 1351.82,-133.12 1360.4,-135.85 1360.23,-129.91"/>
<text text-anchor="middle" x="1471.5" y="-139.3" font-family="Helvetica,sans-Serif" font-size="14.00">superclass &#45;&gt; subclass</text>
</g>
</g>
</svg>
