<?xml version="1.0" encoding="UTF-8" standalone="no"?>
<!DOCTYPE svg PUBLIC "-//W3C//DTD SVG 1.1//EN"
 "http://www.w3.org/Graphics/SVG/1.1/DTD/svg11.dtd">
<!-- Generated by graphviz version 2.43.0 (0)
 -->
<!-- Pages: 1 -->
<svg width="1778pt" height="757pt"
 viewBox="0.00 0.00 1778.40 757.40" xmlns="http://www.w3.org/2000/svg" xmlns:xlink="http://www.w3.org/1999/xlink">
<g id="graph0" class="graph" transform="scale(1 1) rotate(0) translate(25.2 732.2)">
<polygon fill="#fafbfc" stroke="transparent" points="-25.2,25.2 -25.2,-732.2 1753.2,-732.2 1753.2,25.2 -25.2,25.2"/>
<text text-anchor="middle" x="864" y="-687" font-family="Helvetica,sans-Serif" font-size="20.00">sdata Class Hierarchy (BFO/PROV base hierarchy &#45;&gt; sdata classes)</text>
<g id="clust1" class="cluster">
<title>cluster_legend</title>
<path fill="#fafbfc" stroke="#cbd5e0" d="M20,-464C20,-464 236,-464 236,-464 242,-464 248,-470 248,-476 248,-476 248,-657 248,-657 248,-663 242,-669 236,-669 236,-669 20,-669 20,-669 14,-669 8,-663 8,-657 8,-657 8,-476 8,-476 8,-470 14,-464 20,-464"/>
<text text-anchor="middle" x="128" y="-649" font-family="Helvetica,sans-Serif" font-size="20.00">Legend</text>
</g>
<g id="clust2" class="cluster">
<title>cluster_sdata</title>
<path fill="#fafbfc" stroke="#90b5e8" d="M154,-8C154,-8 1708,-8 1708,-8 1714,-8 1720,-14 1720,-20 1720,-20 1720,-78 1720,-78 1720,-84 1714,-90 1708,-90 1708,-90 154,-90 154,-90 148,-90 142,-84 142,-78 142,-78 142,-20 142,-20 142,-14 148,-8 154,-8"/>
<text text-anchor="middle" x="931" y="-70" font-family="Helvetica,sans-Serif" font-size="20.00">sdata classes</text>
</g>
<g id="clust3" class="cluster">
<title>cluster_bfo_context</title>
<path fill="#fafbfc" stroke="#f3c887" d="M268,-127C268,-127 1054,-127 1054,-127 1060,-127 1066,-133 1066,-139 1066,-139 1066,-657 1066,-657 1066,-663 1060,-669 1054,-669 1054,-669 268,-669 268,-669 262,-669 256,-663 256,-657 256,-657 256,-139 256,-139 256,-133 262,-127 268,-127"/>
<text text-anchor="middle" x="661" y="-649" font-family="Helvetica,sans-Serif" font-size="20.00">BFO hierarchy</text>
</g>
<g id="clust4" class="cluster">
<title>cluster_prov_context</title>
<path fill="#fafbfc" stroke="#9ad9bf" d="M1553,-127C1553,-127 1701,-127 1701,-127 1707,-127 1713,-133 1713,-139 1713,-139 1713,-197 1713,-197 1713,-203 1707,-209 1701,-209 1701,-209 1553,-209 1553,-209 1547,-209 1541,-203 1541,-197 1541,-197 1541,-139 1541,-139 1541,-133 1547,-127 1553,-127"/>
<text text-anchor="middle" x="1627" y="-189" font-family="Helvetica,sans-Serif" font-size="20.00">PROV hierarchy</text>
</g>
<!-- legend_sdata -->
<g id="node1" class="node">
<title>legend_sdata</title>
<path fill="#e8f1ff" stroke="#2b6cb0" stroke-width="1.6" d="M103.5,-508C103.5,-508 40.5,-508 40.5,-508 34.5,-508 28.5,-502 28.5,-496 28.5,-496 28.5,-484 28.5,-484 28.5,-478 34.5,-472 40.5,-472 40.5,-472 103.5,-472 103.5,-472 109.5,-472 115.5,-478 115.5,-484 115.5,-484 115.5,-496 115.5,-496 115.5,-502 109.5,-508 103.5,-508"/>
<text text-anchor="middle" x="72" y="-486.9" font-family="Helvetica,sans-Serif" font-size="12.00" fill="#1a365d">sdata class</text>
</g>
<!-- legend_bfo -->
<g id="node2" class="node">
<title>legend_bfo</title>
<path fill="#fff4e5" stroke="#b7791f" stroke-width="1.6" d="M228,-631C228,-631 164,-631 164,-631 158,-631 152,-625 152,-619 152,-619 152,-607 152,-607 152,-601 158,-595 164,-595 164,-595 228,-595 228,-595 234,-595 240,-601 240,-607 240,-607 240,-619 240,-619 240,-625 234,-631 228,-631"/>
<text text-anchor="middle" x="196" y="-609.9" font-family="Helvetica,sans-Serif" font-size="12.00" fill="#7b341e">BFO parent</text>
</g>
<!-- legend_bfo&#45;&gt;legend_sdata -->
<g id="edge1" class="edge">
<title>legend_bfo&#45;&gt;legend_sdata</title>
<path fill="none" stroke="#4a5568" stroke-width="1.6" d="M151.76,-599.05C130.6,-590.76 106.56,-577.93 91,-559 81.23,-547.11 76.48,-530.54 74.16,-516.73"/>
<polygon fill="#4a5568" stroke="#4a5568" stroke-width="1.6" points="77.09,-516.14 72.97,-508.13 71.19,-516.96 77.09,-516.14"/>
<text text-anchor="middle" x="168.5" y="-547.8" font-family="Helvetica,sans-Serif" font-size="14.00">superclass → subclass</text>
</g>
<!-- legend_prov -->
<g id="node3" class="node">
<title>legend_prov</title>
<path fill="#e7fff6" stroke="#2f855a" stroke-width="1.6" d="M100,-631C100,-631 28,-631 28,-631 22,-631 16,-625 16,-619 16,-619 16,-607 16,-607 16,-601 22,-595 28,-595 28,-595 100,-595 100,-595 106,-595 112,-601 112,-607 112,-607 112,-619 112,-619 112,-625 106,-631 100,-631"/>
<text text-anchor="middle" x="64" y="-609.9" font-family="Helvetica,sans-Serif" font-size="12.00" fill="#1c4532">PROV parent</text>
</g>
<!-- legend_prov&#45;&gt;legend_sdata -->
<g id="edge2" class="edge">
<title>legend_prov&#45;&gt;legend_sdata</title>
<path fill="none" stroke="#4a5568" stroke-width="1.6" d="M53.7,-594.78C46.79,-581.1 39.68,-561.44 44,-544 46.42,-534.26 50.99,-524.33 55.75,-515.74"/>
<polygon fill="#4a5568" stroke="#4a5568" stroke-width="1.6" points="58.39,-517.11 60.11,-508.28 53.25,-514.11 58.39,-517.11"/>
</g>
<!-- https://w3id.org/sdata/core#Identifier -->
<g id="node4" class="node">
<title>https://w3id.org/sdata/core#Identifier</title>
<path fill="#e8f1ff" stroke="#2b6cb0" stroke-width="1.6" d="M866.5,-52C866.5,-52 815.5,-52 815.5,-52 809.5,-52 803.5,-46 803.5,-40 803.5,-40 803.5,-28 803.5,-28 803.5,-22 809.5,-16 815.5,-16 815.5,-16 866.5,-16 866.5,-16 872.5,-16 878.5,-22 878.5,-28 878.5,-28 878.5,-40 878.5,-40 878.5,-46 872.5,-52 866.5,-52"/>
<text text-anchor="middle" x="841" y="-30.9" font-family="Helvetica,sans-Serif" font-size="12.00" fill="#1a365d">Identifier</text>
</g>
<!-- https://w3id.org/sdata/core#InformationAgent -->
<g id="node5" class="node">
<title>https://w3id.org/sdata/core#InformationAgent</title>
<path fill="#e8f1ff" stroke="#2b6cb0" stroke-width="1.6" d="M1541.5,-52C1541.5,-52 1436.5,-52 1436.5,-52 1430.5,-52 1424.5,-46 1424.5,-40 1424.5,-40 1424.5,-28 1424.5,-28 1424.5,-22 1430.5,-16 1436.5,-16 1436.5,-16 1541.5,-16 1541.5,-16 1547.5,-16 1553.5,-22 1553.5,-28 1553.5,-28 1553.5,-40 1553.5,-40 1553.5,-46 1547.5,-52 1541.5,-52"/>
<text text-anchor="middle" x="1489" y="-30.9" font-family="Helvetica,sans-Serif" font-size="12.00" fill="#1a365d">Information Agent</text>
</g>
<!-- https://w3id.org/sdata/core#InformationArtifact -->
<g id="node6" class="node">
<title>https://w3id.org/sdata/core#InformationArtifact</title>
<path fill="#e8f1ff" stroke="#2b6cb0" stroke-width="1.6" d="M1193,-52C1193,-52 1079,-52 1079,-52 1073,-52 1067,-46 1067,-40 1067,-40 1067,-28 1067,-28 1067,-22 1073,-16 1079,-16 1079,-16 1193,-16 1193,-16 1199,-16 1205,-22 1205,-28 1205,-28 1205,-40 1205,-40 1205,-46 1199,-52 1193,-52"/>
<text text-anchor="middle" x="1136" y="-30.9" font-family="Helvetica,sans-Serif" font-size="12.00" fill="#1a365d">Information Artifact</text>
</g>
<!-- https://w3id.org/sdata/core#InformationProcess -->
<g id="node7" class="node">
<title>https://w3id.org/sdata/core#InformationProcess</title>
<path fill="#e8f1ff" stroke="#2b6cb0" stroke-width="1.6" d="M1372.5,-52C1372.5,-52 1257.5,-52 1257.5,-52 1251.5,-52 1245.5,-46 1245.5,-40 1245.5,-40 1245.5,-28 1245.5,-28 1245.5,-22 1251.5,-16 1257.5,-16 1257.5,-16 1372.5,-16 1372.5,-16 1378.5,-16 1384.5,-22 1384.5,-28 1384.5,-28 1384.5,-40 1384.5,-40 1384.5,-46 1378.5,-52 1372.5,-52"/>
<text text-anchor="middle" x="1315" y="-30.9" font-family="Helvetica,sans-Serif" font-size="12.00" fill="#1a365d">Information Process</text>
</g>
<!-- https://w3id.org/sdata/core#InformationSite -->
<g id="node8" class="node">
<title>https://w3id.org/sdata/core#InformationSite</title>
<path fill="#e8f1ff" stroke="#2b6cb0" stroke-width="1.6" d="M751.5,-52C751.5,-52 658.5,-52 658.5,-52 652.5,-52 646.5,-46 646.5,-40 646.5,-40 646.5,-28 646.5,-28 646.5,-22 652.5,-16 658.5,-16 658.5,-16 751.5,-16 751.5,-16 757.5,-16 763.5,-22 763.5,-28 763.5,-28 763.5,-40 763.5,-40 763.5,-46 757.5,-52 751.5,-52"/>
<text text-anchor="middle" x="705" y="-30.9" font-family="Helvetica,sans-Serif" font-size="12.00" fill="#1a365d">Information Site</text>
</g>
<!-- https://w3id.org/sdata/core#Material -->
<g id="node9" class="node">
<title>https://w3id.org/sdata/core#Material</title>
<path fill="#e8f1ff" stroke="#2b6cb0" stroke-width="1.6" d="M437.5,-52C437.5,-52 392.5,-52 392.5,-52 386.5,-52 380.5,-46 380.5,-40 380.5,-40 380.5,-28 380.5,-28 380.5,-22 386.5,-16 392.5,-16 392.5,-16 437.5,-16 437.5,-16 443.5,-16 449.5,-22 449.5,-28 449.5,-28 449.5,-40 449.5,-40 449.5,-46 443.5,-52 437.5,-52"/>
<text text-anchor="middle" x="415" y="-30.9" font-family="Helvetica,sans-Serif" font-size="12.00" fill="#1a365d">Material</text>
</g>
<!-- https://w3id.org/sdata/core#MaterialAgent -->
<g id="node10" class="node">
<title>https://w3id.org/sdata/core#MaterialAgent</title>
<path fill="#e8f1ff" stroke="#2b6cb0" stroke-width="1.6" d="M1015,-52C1015,-52 931,-52 931,-52 925,-52 919,-46 919,-40 919,-40 919,-28 919,-28 919,-22 925,-16 931,-16 931,-16 1015,-16 1015,-16 1021,-16 1027,-22 1027,-28 1027,-28 1027,-40 1027,-40 1027,-46 1021,-52 1015,-52"/>
<text text-anchor="middle" x="973" y="-30.9" font-family="Helvetica,sans-Serif" font-size="12.00" fill="#1a365d">Material Agent</text>
</g>
<!-- https://w3id.org/sdata/core#MaterialArtifact -->
<g id="node11" class="node">
<title>https://w3id.org/sdata/core#MaterialArtifact</title>
<path fill="#e8f1ff" stroke="#2b6cb0" stroke-width="1.6" d="M594.5,-52C594.5,-52 501.5,-52 501.5,-52 495.5,-52 489.5,-46 489.5,-40 489.5,-40 489.5,-28 489.5,-28 489.5,-22 495.5,-16 501.5,-16 501.5,-16 594.5,-16 594.5,-16 600.5,-16 606.5,-22 606.5,-28 606.5,-28 606.5,-40 606.5,-40 606.5,-46 600.5,-52 594.5,-52"/>
<text text-anchor="middle" x="548" y="-30.9" font-family="Helvetica,sans-Serif" font-size="12.00" fill="#1a365d">Material Artifact</text>
</g>
<!-- https://w3id.org/sdata/core#MaterialProcess -->
<g id="node12" class="node">
<title>https://w3id.org/sdata/core#MaterialProcess</title>
<path fill="#e8f1ff" stroke="#2b6cb0" stroke-width="1.6" d="M1700,-52C1700,-52 1606,-52 1606,-52 1600,-52 1594,-46 1594,-40 1594,-40 1594,-28 1594,-28 1594,-22 1600,-16 1606,-16 1606,-16 1700,-16 1700,-16 1706,-16 1712,-22 1712,-28 1712,-28 1712,-40 1712,-40 1712,-46 1706,-52 1700,-52"/>
<text text-anchor="middle" x="1653" y="-30.9" font-family="Helvetica,sans-Serif" font-size="12.00" fill="#1a365d">Material Process</text>
</g>
<!-- https://w3id.org/sdata/core#MaterialSite -->
<g id="node13" class="node">
<title>https://w3id.org/sdata/core#MaterialSite</title>
<path fill="#e8f1ff" stroke="#2b6cb0" stroke-width="1.6" d="M328,-52C328,-52 256,-52 256,-52 250,-52 244,-46 244,-40 244,-40 244,-28 244,-28 244,-22 250,-16 256,-16 256,-16 328,-16 328,-16 334,-16 340,-22 340,-28 340,-28 340,-40 340,-40 340,-46 334,-52 328,-52"/>
<text text-anchor="middle" x="292" y="-30.9" font-family="Helvetica,sans-Serif" font-size="12.00" fill="#1a365d">Material Site</text>
</g>
<!-- https://w3id.org/sdata/core#Role -->
<g id="node14" class="node">
<title>https://w3id.org/sdata/core#Role</title>
<path fill="#e8f1ff" stroke="#2b6cb0" stroke-width="1.6" d="M192,-52C192,-52 162,-52 162,-52 156,-52 150,-46 150,-40 150,-40 150,-28 150,-28 150,-22 156,-16 162,-16 162,-16 192,-16 192,-16 198,-16 204,-22 204,-28 204,-28 204,-40 204,-40 204,-46 198,-52 192,-52"/>
<text text-anchor="middle" x="177" y="-30.9" font-family="Helvetica,sans-Serif" font-size="12.00" fill="#1a365d">Role</text>
</g>
<!-- http://purl.obolibrary.org/obo/BFO_0000001 -->
<g id="node15" class="node">
<title>http://purl.obolibrary.org/obo/BFO_0000001</title>
<path fill="#fff4e5" stroke="#b7791f" stroke-width="1.6" d="M802,-631C802,-631 772,-631 772,-631 766,-631 760,-625 760,-619 760,-619 760,-607 760,-607 760,-601 766,-595 772,-595 772,-595 802,-595 802,-595 808,-595 814,-601 814,-607 814,-607 814,-619 814,-619 814,-625 808,-631 802,-631"/>
<text text-anchor="middle" x="787" y="-609.9" font-family="Helvetica,sans-Serif" font-size="12.00" fill="#7b341e">entity</text>
</g>
<!-- http://purl.obolibrary.org/obo/BFO_0000002 -->
<g id="node16" class="node">
<title>http://purl.obolibrary.org/obo/BFO_0000002</title>
<path fill="#fff4e5" stroke="#b7791f" stroke-width="1.6" d="M727,-508C727,-508 667,-508 667,-508 661,-508 655,-502 655,-496 655,-496 655,-484 655,-484 655,-478 661,-472 667,-472 667,-472 727,-472 727,-472 733,-472 739,-478 739,-484 739,-484 739,-496 739,-496 739,-502 733,-508 727,-508"/>
<text text-anchor="middle" x="697" y="-486.9" font-family="Helvetica,sans-Serif" font-size="12.00" fill="#7b341e">continuant</text>
</g>
<!-- http://purl.obolibrary.org/obo/BFO_0000001&#45;&gt;http://purl.obolibrary.org/obo/BFO_0000002 -->
<g id="edge3" class="edge">
<title>http://purl.obolibrary.org/obo/BFO_0000001&#45;&gt;http://purl.obolibrary.org/obo/BFO_0000002</title>
<path fill="none" stroke="#4a5568" stroke-width="1.6" d="M774.3,-594.92C758.84,-574.14 732.64,-538.91 715.08,-515.31"/>
<polygon fill="#4a5568" stroke="#4a5568" stroke-width="1.6" points="717.39,-513.43 709.93,-508.38 712.62,-516.98 717.39,-513.43"/>
</g>
<!-- http://purl.obolibrary.org/obo/BFO_0000003 -->
<g id="node17" class="node">
<title>http://purl.obolibrary.org/obo/BFO_0000003</title>
<path fill="#fff4e5" stroke="#b7791f" stroke-width="1.6" d="M904,-508C904,-508 850,-508 850,-508 844,-508 838,-502 838,-496 838,-496 838,-484 838,-484 838,-478 844,-472 850,-472 850,-472 904,-472 904,-472 910,-472 916,-478 916,-484 916,-484 916,-496 916,-496 916,-502 910,-508 904,-508"/>
<text text-anchor="middle" x="877" y="-486.9" font-family="Helvetica,sans-Serif" font-size="12.00" fill="#7b341e">occurrent</text>
</g>
<!-- http://purl.obolibrary.org/obo/BFO_0000001&#45;&gt;http://purl.obolibrary.org/obo/BFO_0000003 -->
<g id="edge4" class="edge">
<title>http://purl.obolibrary.org/obo/BFO_0000001&#45;&gt;http://purl.obolibrary.org/obo/BFO_0000003</title>
<path fill="none" stroke="#4a5568" stroke-width="1.6" d="M799.7,-594.92C815.16,-574.14 841.36,-538.91 858.92,-515.31"/>
<polygon fill="#4a5568" stroke="#4a5568" stroke-width="1.6" points="861.38,-516.98 864.07,-508.38 856.61,-513.43 861.38,-516.98"/>
</g>
<!-- http://purl.obolibrary.org/obo/BFO_0000004 -->
<g id="node18" class="node">
<title>http://purl.obolibrary.org/obo/BFO_0000004</title>
<path fill="#fff4e5" stroke="#b7791f" stroke-width="1.6" d="M677.5,-399C677.5,-399 538.5,-399 538.5,-399 532.5,-399 526.5,-393 526.5,-387 526.5,-387 526.5,-375 526.5,-375 526.5,-369 532.5,-363 538.5,-363 538.5,-363 677.5,-363 677.5,-363 683.5,-363 689.5,-369 689.5,-375 689.5,-375 689.5,-387 689.5,-387 689.5,-393 683.5,-399 677.5,-399"/>
<text text-anchor="middle" x="608" y="-377.9" font-family="Helvetica,sans-Serif" font-size="12.00" fill="#7b341e">independent continuant</text>
</g>
<!-- http://purl.obolibrary.org/obo/BFO_0000002&#45;&gt;http://purl.obolibrary.org/obo/BFO_0000004 -->
<g id="edge5" class="edge">
<title>http://purl.obolibrary.org/obo/BFO_0000002&#45;&gt;http://purl.obolibrary.org/obo/BFO_0000004</title>
<path fill="none" stroke="#4a5568" stroke-width="1.6" d="M682.7,-471.81C667.84,-453.95 644.48,-425.86 627.84,-405.86"/>
<polygon fill="#4a5568" stroke="#4a5568" stroke-width="1.6" points="629.99,-403.78 622.26,-399.15 625.41,-407.59 629.99,-403.78"/>
</g>
<!-- http://purl.obolibrary.org/obo/BFO_0000020 -->
<g id="node21" class="node">
<title>http://purl.obolibrary.org/obo/BFO_0000020</title>
<path fill="#fff4e5" stroke="#b7791f" stroke-width="1.6" d="M474,-399C474,-399 276,-399 276,-399 270,-399 264,-393 264,-387 264,-387 264,-375 264,-375 264,-369 270,-363 276,-363 276,-363 474,-363 474,-363 480,-363 486,-369 486,-375 486,-375 486,-387 486,-387 486,-393 480,-399 474,-399"/>
<text text-anchor="middle" x="375" y="-377.9" font-family="Helvetica,sans-Serif" font-size="12.00" fill="#7b341e">specifically dependent continuant</text>
</g>
<!-- http://purl.obolibrary.org/obo/BFO_0000002&#45;&gt;http://purl.obolibrary.org/obo/BFO_0000020 -->
<g id="edge6" class="edge">
<title>http://purl.obolibrary.org/obo/BFO_0000002&#45;&gt;http://purl.obolibrary.org/obo/BFO_0000020</title>
<path fill="none" stroke="#4a5568" stroke-width="1.6" d="M654.9,-475.01C598.7,-456.34 498.82,-423.14 434.81,-401.88"/>
<polygon fill="#4a5568" stroke="#4a5568" stroke-width="1.6" points="435.42,-398.94 426.41,-399.08 433.54,-404.59 435.42,-398.94"/>
</g>
<!-- http://purl.obolibrary.org/obo/BFO_0000031 -->
<g id="node24" class="node">
<title>http://purl.obolibrary.org/obo/BFO_0000031</title>
<path fill="#fff4e5" stroke="#b7791f" stroke-width="1.6" d="M940,-399C940,-399 742,-399 742,-399 736,-399 730,-393 730,-387 730,-387 730,-375 730,-375 730,-369 736,-363 742,-363 742,-363 940,-363 940,-363 946,-363 952,-369 952,-375 952,-375 952,-387 952,-387 952,-393 946,-399 940,-399"/>
<text text-anchor="middle" x="841" y="-377.9" font-family="Helvetica,sans-Serif" font-size="12.00" fill="#7b341e">generically dependent continuant</text>
</g>
<!-- http://purl.obolibrary.org/obo/BFO_0000002&#45;&gt;http://purl.obolibrary.org/obo/BFO_0000031 -->
<g id="edge7" class="edge">
<title>http://purl.obolibrary.org/obo/BFO_0000002&#45;&gt;http://purl.obolibrary.org/obo/BFO_0000031</title>
<path fill="none" stroke="#4a5568" stroke-width="1.6" d="M720.14,-471.81C744.8,-453.48 783.96,-424.38 810.99,-404.3"/>
<polygon fill="#4a5568" stroke="#4a5568" stroke-width="1.6" points="812.87,-406.61 817.92,-399.15 809.32,-401.83 812.87,-406.61"/>
</g>
<!-- http://purl.obolibrary.org/obo/BFO_0000015 -->
<g id="node19" class="node">
<title>http://purl.obolibrary.org/obo/BFO_0000015</title>
<path fill="#fff4e5" stroke="#b7791f" stroke-width="1.6" d="M1046,-399C1046,-399 1004,-399 1004,-399 998,-399 992,-393 992,-387 992,-387 992,-375 992,-375 992,-369 998,-363 1004,-363 1004,-363 1046,-363 1046,-363 1052,-363 1058,-369 1058,-375 1058,-375 1058,-387 1058,-387 1058,-393 1052,-399 1046,-399"/>
<text text-anchor="middle" x="1025" y="-377.9" font-family="Helvetica,sans-Serif" font-size="12.00" fill="#7b341e">process</text>
</g>
<!-- http://purl.obolibrary.org/obo/BFO_0000003&#45;&gt;http://purl.obolibrary.org/obo/BFO_0000015 -->
<g id="edge8" class="edge">
<title>http://purl.obolibrary.org/obo/BFO_0000003&#45;&gt;http://purl.obolibrary.org/obo/BFO_0000015</title>
<path fill="none" stroke="#4a5568" stroke-width="1.6" d="M900.78,-471.81C926.13,-453.48 966.38,-424.38 994.15,-404.3"/>
<polygon fill="#4a5568" stroke="#4a5568" stroke-width="1.6" points="996.13,-406.54 1001.28,-399.15 992.65,-401.72 996.13,-406.54"/>
</g>
<!-- http://purl.obolibrary.org/obo/BFO_0000040 -->
<g id="node25" class="node">
<title>http://purl.obolibrary.org/obo/BFO_0000040</title>
<path fill="#fff4e5" stroke="#b7791f" stroke-width="1.6" d="M679,-290C679,-290 595,-290 595,-290 589,-290 583,-284 583,-278 583,-278 583,-266 583,-266 583,-260 589,-254 595,-254 595,-254 679,-254 679,-254 685,-254 691,-260 691,-266 691,-266 691,-278 691,-278 691,-284 685,-290 679,-290"/>
<text text-anchor="middle" x="637" y="-268.9" font-family="Helvetica,sans-Serif" font-size="12.00" fill="#7b341e">material entity</text>
</g>
<!-- http://purl.obolibrary.org/obo/BFO_0000004&#45;&gt;http://purl.obolibrary.org/obo/BFO_0000040 -->
<g id="edge9" class="edge">
<title>http://purl.obolibrary.org/obo/BFO_0000004&#45;&gt;http://purl.obolibrary.org/obo/BFO_0000040</title>
<path fill="none" stroke="#4a5568" stroke-width="1.6" d="M612.66,-362.81C617.37,-345.42 624.72,-318.33 630.1,-298.45"/>
<polygon fill="#4a5568" stroke="#4a5568" stroke-width="1.6" points="633,-299.13 632.35,-290.15 627.26,-297.57 633,-299.13"/>
</g>
<!-- http://purl.obolibrary.org/obo/BFO_0000141 -->
<g id="node26" class="node">
<title>http://purl.obolibrary.org/obo/BFO_0000141</title>
<path fill="#fff4e5" stroke="#b7791f" stroke-width="1.6" d="M530.5,-290C530.5,-290 431.5,-290 431.5,-290 425.5,-290 419.5,-284 419.5,-278 419.5,-278 419.5,-266 419.5,-266 419.5,-260 425.5,-254 431.5,-254 431.5,-254 530.5,-254 530.5,-254 536.5,-254 542.5,-260 542.5,-266 542.5,-266 542.5,-278 542.5,-278 542.5,-284 536.5,-290 530.5,-290"/>
<text text-anchor="middle" x="481" y="-268.9" font-family="Helvetica,sans-Serif" font-size="12.00" fill="#7b341e">immaterial entity</text>
</g>
<!-- http://purl.obolibrary.org/obo/BFO_0000004&#45;&gt;http://purl.obolibrary.org/obo/BFO_0000141 -->
<g id="edge10" class="edge">
<title>http://purl.obolibrary.org/obo/BFO_0000004&#45;&gt;http://purl.obolibrary.org/obo/BFO_0000141</title>
<path fill="none" stroke="#4a5568" stroke-width="1.6" d="M587.6,-362.81C566.02,-344.64 531.89,-315.88 508.08,-295.82"/>
<polygon fill="#4a5568" stroke="#4a5568" stroke-width="1.6" points="509.77,-293.35 501.35,-290.15 505.94,-297.9 509.77,-293.35"/>
</g>
<!-- http://purl.obolibrary.org/obo/BFO_0000015&#45;&gt;https://w3id.org/sdata/core#InformationProcess -->
<g id="edge11" class="edge">
<title>http://purl.obolibrary.org/obo/BFO_0000015&#45;&gt;https://w3id.org/sdata/core#InformationProcess</title>
<path fill="none" stroke="#4a5568" stroke-width="1.6" d="M1046.79,-362.79C1058.85,-352.85 1073.82,-339.81 1086,-327 1173.8,-234.67 1262.62,-110.72 1298.48,-59.12"/>
<polygon fill="#4a5568" stroke="#4a5568" stroke-width="1.6" points="1300.98,-60.72 1303.38,-52.04 1296.09,-57.33 1300.98,-60.72"/>
</g>
<!-- http://purl.obolibrary.org/obo/BFO_0000015&#45;&gt;https://w3id.org/sdata/core#MaterialProcess -->
<g id="edge12" class="edge">
<title>http://purl.obolibrary.org/obo/BFO_0000015&#45;&gt;https://w3id.org/sdata/core#MaterialProcess</title>
<path fill="none" stroke="#4a5568" stroke-width="1.6" d="M1058.16,-379.38C1142.74,-377.22 1363.98,-367.73 1423,-327 1506.15,-269.62 1465.16,-203.62 1531,-127 1544.89,-110.84 1589.37,-78.74 1620.6,-57.07"/>
<polygon fill="#4a5568" stroke="#4a5568" stroke-width="1.6" points="1622.53,-59.35 1627.83,-52.07 1619.14,-54.45 1622.53,-59.35"/>
</g>
<!-- http://purl.obolibrary.org/obo/BFO_0000017 -->
<g id="node20" class="node">
<title>http://purl.obolibrary.org/obo/BFO_0000017</title>
<path fill="#fff4e5" stroke="#b7791f" stroke-width="1.6" d="M367.5,-290C367.5,-290 276.5,-290 276.5,-290 270.5,-290 264.5,-284 264.5,-278 264.5,-278 264.5,-266 264.5,-266 264.5,-260 270.5,-254 276.5,-254 276.5,-254 367.5,-254 367.5,-254 373.5,-254 379.5,-260 379.5,-266 379.5,-266 379.5,-278 379.5,-278 379.5,-284 373.5,-290 367.5,-290"/>
<text text-anchor="middle" x="322" y="-268.9" font-family="Helvetica,sans-Serif" font-size="12.00" fill="#7b341e">realizable entity</text>
</g>
<!-- http://purl.obolibrary.org/obo/BFO_0000023 -->
<g id="node22" class="node">
<title>http://purl.obolibrary.org/obo/BFO_0000023</title>
<path fill="#fff4e5" stroke="#b7791f" stroke-width="1.6" d="M314,-171C314,-171 284,-171 284,-171 278,-171 272,-165 272,-159 272,-159 272,-147 272,-147 272,-141 278,-135 284,-135 284,-135 314,-135 314,-135 320,-135 326,-141 326,-147 326,-147 326,-159 326,-159 326,-165 320,-171 314,-171"/>
<text text-anchor="middle" x="299" y="-149.9" font-family="Helvetica,sans-Serif" font-size="12.00" fill="#7b341e">role</text>
</g>
<!-- http://purl.obolibrary.org/obo/BFO_0000017&#45;&gt;http://purl.obolibrary.org/obo/BFO_0000023 -->
<g id="edge13" class="edge">
<title>http://purl.obolibrary.org/obo/BFO_0000017&#45;&gt;http://purl.obolibrary.org/obo/BFO_0000023</title>
<path fill="none" stroke="#4a5568" stroke-width="1.6" d="M318.66,-253.99C314.81,-234.4 308.44,-202.04 304,-179.46"/>
<polygon fill="#4a5568" stroke="#4a5568" stroke-width="1.6" points="306.91,-178.8 302.35,-171.03 301.07,-179.95 306.91,-178.8"/>
</g>
<!-- http://purl.obolibrary.org/obo/BFO_0000020&#45;&gt;http://purl.obolibrary.org/obo/BFO_0000017 -->
<g id="edge14" class="edge">
<title>http://purl.obolibrary.org/obo/BFO_0000020&#45;&gt;http://purl.obolibrary.org/obo/BFO_0000017</title>
<path fill="none" stroke="#4a5568" stroke-width="1.6" d="M366.48,-362.81C357.79,-345.26 344.21,-317.84 334.34,-297.91"/>
<polygon fill="#4a5568" stroke="#4a5568" stroke-width="1.6" points="336.93,-296.45 330.49,-290.15 331.6,-299.09 336.93,-296.45"/>
</g>
<!-- http://purl.obolibrary.org/obo/BFO_0000023&#45;&gt;https://w3id.org/sdata/core#Role -->
<g id="edge15" class="edge">
<title>http://purl.obolibrary.org/obo/BFO_0000023&#45;&gt;https://w3id.org/sdata/core#Role</title>
<path fill="none" stroke="#4a5568" stroke-width="1.6" d="M276.14,-134.79C260.82,-122.85 240.5,-106.23 224,-90 214.11,-80.27 204,-68.69 195.7,-58.67"/>
<polygon fill="#4a5568" stroke="#4a5568" stroke-width="1.6" points="197.96,-56.73 190.27,-52.03 193.35,-60.49 197.96,-56.73"/>
</g>
<!-- http://purl.obolibrary.org/obo/BFO_0000029 -->
<g id="node23" class="node">
<title>http://purl.obolibrary.org/obo/BFO_0000029</title>
<path fill="#fff4e5" stroke="#b7791f" stroke-width="1.6" d="M425,-171C425,-171 395,-171 395,-171 389,-171 383,-165 383,-159 383,-159 383,-147 383,-147 383,-141 389,-135 395,-135 395,-135 425,-135 425,-135 431,-135 437,-141 437,-147 437,-147 437,-159 437,-159 437,-165 431,-171 425,-171"/>
<text text-anchor="middle" x="410" y="-149.9" font-family="Helvetica,sans-Serif" font-size="12.00" fill="#7b341e">site</text>
</g>
<!-- http://purl.obolibrary.org/obo/BFO_0000029&#45;&gt;https://w3id.org/sdata/core#MaterialSite -->
<g id="edge16" class="edge">
<title>http://purl.obolibrary.org/obo/BFO_0000029&#45;&gt;https://w3id.org/sdata/core#MaterialSite</title>
<path fill="none" stroke="#4a5568" stroke-width="1.6" d="M392.84,-134.99C372.39,-114.71 338.13,-80.74 315.29,-58.1"/>
<polygon fill="#4a5568" stroke="#4a5568" stroke-width="1.6" points="317.31,-55.91 309.18,-52.03 313.12,-60.13 317.31,-55.91"/>
</g>
<!-- http://purl.obolibrary.org/obo/BFO_0000031&#45;&gt;https://w3id.org/sdata/core#Identifier -->
<g id="edge17" class="edge">
<title>http://purl.obolibrary.org/obo/BFO_0000031&#45;&gt;https://w3id.org/sdata/core#Identifier</title>
<path fill="none" stroke="#4a5568" stroke-width="1.6" d="M841,-362.89C841,-306.79 841,-128.18 841,-60.94"/>
<polygon fill="#4a5568" stroke="#4a5568" stroke-width="1.6" points="843.98,-60.71 841,-52.21 838.03,-60.71 843.98,-60.71"/>
</g>
<!-- http://purl.obolibrary.org/obo/BFO_0000031&#45;&gt;https://w3id.org/sdata/core#InformationAgent -->
<g id="edge18" class="edge">
<title>http://purl.obolibrary.org/obo/BFO_0000031&#45;&gt;https://w3id.org/sdata/core#InformationAgent</title>
<path fill="none" stroke="#4a5568" stroke-width="1.6" d="M892.04,-362.9C971.06,-335.5 1126.65,-277.78 1249,-209 1331.44,-162.66 1419.2,-93.18 1462.15,-57.67"/>
<polygon fill="#4a5568" stroke="#4a5568" stroke-width="1.6" points="1464.26,-59.79 1468.9,-52.07 1460.46,-55.21 1464.26,-59.79"/>
</g>
<!-- http://purl.obolibrary.org/obo/BFO_0000031&#45;&gt;https://w3id.org/sdata/core#InformationArtifact -->
<g id="edge19" class="edge">
<title>http://purl.obolibrary.org/obo/BFO_0000031&#45;&gt;https://w3id.org/sdata/core#InformationArtifact</title>
<path fill="none" stroke="#4a5568" stroke-width="1.6" d="M855.63,-362.89C904.09,-306.22 1059.46,-124.51 1115.56,-58.91"/>
<polygon fill="#4a5568" stroke="#4a5568" stroke-width="1.6" points="1118.02,-60.61 1121.28,-52.21 1113.5,-56.74 1118.02,-60.61"/>
</g>
<!-- http://purl.obolibrary.org/obo/BFO_0000031&#45;&gt;https://w3id.org/sdata/core#InformationSite -->
<g id="edge20" class="edge">
<title>http://purl.obolibrary.org/obo/BFO_0000031&#45;&gt;https://w3id.org/sdata/core#InformationSite</title>
<path fill="none" stroke="#4a5568" stroke-width="1.6" d="M834.26,-362.89C812.1,-306.68 741.44,-127.45 715.06,-60.53"/>
<polygon fill="#4a5568" stroke="#4a5568" stroke-width="1.6" points="717.67,-59.03 711.78,-52.21 712.13,-61.21 717.67,-59.03"/>
</g>
<!-- http://purl.obolibrary.org/obo/BFO_0000040&#45;&gt;https://w3id.org/sdata/core#Material -->
<g id="edge21" class="edge">
<title>http://purl.obolibrary.org/obo/BFO_0000040&#45;&gt;https://w3id.org/sdata/core#Material</title>
<path fill="none" stroke="#4a5568" stroke-width="1.6" d="M618.43,-253.99C605.24,-241.73 587.22,-224.65 572,-209 521.41,-156.99 465.13,-93.01 435.62,-58.98"/>
<polygon fill="#4a5568" stroke="#4a5568" stroke-width="1.6" points="437.56,-56.66 429.75,-52.18 433.06,-60.56 437.56,-56.66"/>
</g>
<!-- http://purl.obolibrary.org/obo/BFO_0000040&#45;&gt;https://w3id.org/sdata/core#MaterialAgent -->
<g id="edge22" class="edge">
<title>http://purl.obolibrary.org/obo/BFO_0000040&#45;&gt;https://w3id.org/sdata/core#MaterialAgent</title>
<path fill="none" stroke="#4a5568" stroke-width="1.6" d="M662.5,-253.82C709.57,-221.99 813.17,-151.51 899,-90 913.71,-79.46 929.86,-67.5 943.31,-57.43"/>
<polygon fill="#4a5568" stroke="#4a5568" stroke-width="1.6" points="945.46,-59.53 950.48,-52.05 941.89,-54.78 945.46,-59.53"/>
</g>
<!-- http://purl.obolibrary.org/obo/BFO_0000040&#45;&gt;https://w3id.org/sdata/core#MaterialArtifact -->
<g id="edge23" class="edge">
<title>http://purl.obolibrary.org/obo/BFO_0000040&#45;&gt;https://w3id.org/sdata/core#MaterialArtifact</title>
<path fill="none" stroke="#4a5568" stroke-width="1.6" d="M630.46,-253.65C614.89,-212.37 575.62,-108.23 557.47,-60.1"/>
<polygon fill="#4a5568" stroke="#4a5568" stroke-width="1.6" points="560.22,-58.96 554.43,-52.06 554.65,-61.06 560.22,-58.96"/>
</g>
<!-- http://purl.obolibrary.org/obo/BFO_0000141&#45;&gt;http://purl.obolibrary.org/obo/BFO_0000029 -->
<g id="edge24" class="edge">
<title>http://purl.obolibrary.org/obo/BFO_0000141&#45;&gt;http://purl.obolibrary.org/obo/BFO_0000029</title>
<path fill="none" stroke="#4a5568" stroke-width="1.6" d="M470.68,-253.99C458.63,-234.14 438.63,-201.18 424.91,-178.56"/>
<polygon fill="#4a5568" stroke="#4a5568" stroke-width="1.6" points="427.29,-176.76 420.34,-171.03 422.2,-179.84 427.29,-176.76"/>
</g>
<!-- http://www.w3.org/ns/prov#Agent -->
<g id="node27" class="node">
<title>http://www.w3.org/ns/prov#Agent</title>
<path fill="#e7fff6" stroke="#2f855a" stroke-width="1.6" d="M1605,-171C1605,-171 1573,-171 1573,-171 1567,-171 1561,-165 1561,-159 1561,-159 1561,-147 1561,-147 1561,-141 1567,-135 1573,-135 1573,-135 1605,-135 1605,-135 1611,-135 1617,-141 1617,-147 1617,-147 1617,-159 1617,-159 1617,-165 1611,-171 1605,-171"/>
<text text-anchor="middle" x="1589" y="-149.9" font-family="Helvetica,sans-Serif" font-size="12.00" fill="#1c4532">Agent</text>
</g>
<!-- http://www.w3.org/ns/prov#Agent&#45;&gt;https://w3id.org/sdata/core#InformationAgent -->
<g id="edge25" class="edge">
<title>http://www.w3.org/ns/prov#Agent&#45;&gt;https://w3id.org/sdata/core#InformationAgent</title>
<path fill="none" stroke="#4a5568" stroke-width="1.6" d="M1574.46,-134.99C1557.28,-114.88 1528.59,-81.32 1509.24,-58.68"/>
<polygon fill="#4a5568" stroke="#4a5568" stroke-width="1.6" points="1511.34,-56.56 1503.56,-52.03 1506.82,-60.43 1511.34,-56.56"/>
</g>
<!-- http://www.w3.org/ns/prov#Agent&#45;&gt;https://w3id.org/sdata/core#MaterialAgent -->
<g id="edge26" class="edge">
<title>http://www.w3.org/ns/prov#Agent&#45;&gt;https://w3id.org/sdata/core#MaterialAgent</title>
<path fill="none" stroke="#4a5568" stroke-width="1.6" d="M1560.74,-150.7C1463.33,-145.93 1142.23,-127.65 1047,-90 1028.62,-82.73 1010.75,-69.68 997.18,-58.11"/>
<polygon fill="#4a5568" stroke="#4a5568" stroke-width="1.6" points="998.85,-55.62 990.5,-52.24 994.92,-60.09 998.85,-55.62"/>
</g>
</g>
</svg>
