<?xml version="1.0" encoding="UTF-8" standalone="no"?>
<!DOCTYPE svg PUBLIC "-//W3C//DTD SVG 1.1//EN"
 "http://www.w3.org/Graphics/SVG/1.1/DTD/svg11.dtd">
<!-- Generated by graphviz version 2.43.0 (0)
 -->
<!-- Pages: 1 -->
<svg width="1530pt" height="301pt"
 viewBox="0.00 0.00 1529.90 301.40" xmlns="http://www.w3.org/2000/svg" xmlns:xlink="http://www.w3.org/1999/xlink">
<g id="graph0" class="graph" transform="scale(1 1) rotate(0) translate(25.2 276.2)">
<polygon fill="#fafbfc" stroke="transparent" points="-25.2,25.2 -25.2,-276.2 1504.7,-276.2 1504.7,25.2 -25.2,25.2"/>
<text text-anchor="middle" x="739.75" y="-231" font-family="Helvetica,sans-Serif" font-size="20.00">sdata Class Hierarchy (core v0.11.0 / MIN v2 based)</text>
<g id="clust2" class="cluster">
<title>cluster_legend</title>
<path fill="#fafbfc" stroke="#cbd5e0" d="M1267.5,-8C1267.5,-8 1459.5,-8 1459.5,-8 1465.5,-8 1471.5,-14 1471.5,-20 1471.5,-20 1471.5,-201 1471.5,-201 1471.5,-207 1465.5,-213 1459.5,-213 1459.5,-213 1267.5,-213 1267.5,-213 1261.5,-213 1255.5,-207 1255.5,-201 1255.5,-201 1255.5,-20 1255.5,-20 1255.5,-14 1261.5,-8 1267.5,-8"/>
<text text-anchor="middle" x="1363.5" y="-193" font-family="Helvetica,sans-Serif" font-size="20.00">Legend</text>
</g>
<!-- https://w3id.org/min#Agent -->
<g id="node1" class="node">
<title>https://w3id.org/min#Agent</title>
<path fill="#e7f0ff" stroke="#2b6cb0" stroke-width="1.6" d="M396.5,-175C396.5,-175 364.5,-175 364.5,-175 358.5,-175 352.5,-169 352.5,-163 352.5,-163 352.5,-151 352.5,-151 352.5,-145 358.5,-139 364.5,-139 364.5,-139 396.5,-139 396.5,-139 402.5,-139 408.5,-145 408.5,-151 408.5,-151 408.5,-163 408.5,-163 408.5,-169 402.5,-175 396.5,-175"/>
<text text-anchor="middle" x="380.5" y="-153.9" font-family="Helvetica,sans-Serif" font-size="12.00" fill="#1a365d">Agent</text>
</g>
<!-- https://w3id.org/sdata/core/EnvironmentAgent -->
<g id="node6" class="node">
<title>https://w3id.org/sdata/core/EnvironmentAgent</title>
<path fill="#f8eeff" stroke="#6b46c1" stroke-width="1.6" d="M123,-52C123,-52 12,-52 12,-52 6,-52 0,-46 0,-40 0,-40 0,-28 0,-28 0,-22 6,-16 12,-16 12,-16 123,-16 123,-16 129,-16 135,-22 135,-28 135,-28 135,-40 135,-40 135,-46 129,-52 123,-52"/>
<text text-anchor="middle" x="67.5" y="-30.9" font-family="Helvetica,sans-Serif" font-size="12.00" fill="#44337a">Environment Agent</text>
</g>
<!-- https://w3id.org/min#Agent&#45;&gt;https://w3id.org/sdata/core/EnvironmentAgent -->
<g id="edge2" class="edge">
<title>https://w3id.org/min#Agent&#45;&gt;https://w3id.org/sdata/core/EnvironmentAgent</title>
<path fill="none" stroke="#4a5568" stroke-width="1.6" d="M352.45,-145.16C300.14,-124.93 186.97,-81.19 120.06,-55.32"/>
<polygon fill="#4a5568" stroke="#4a5568" stroke-width="1.6" points="120.74,-52.39 111.74,-52.1 118.6,-57.94 120.74,-52.39"/>
</g>
<!-- https://w3id.org/sdata/core/HardwareAgent -->
<g id="node7" class="node">
<title>https://w3id.org/sdata/core/HardwareAgent</title>
<path fill="#f8eeff" stroke="#6b46c1" stroke-width="1.6" d="M280,-52C280,-52 187,-52 187,-52 181,-52 175,-46 175,-40 175,-40 175,-28 175,-28 175,-22 181,-16 187,-16 187,-16 280,-16 280,-16 286,-16 292,-22 292,-28 292,-28 292,-40 292,-40 292,-46 286,-52 280,-52"/>
<text text-anchor="middle" x="233.5" y="-30.9" font-family="Helvetica,sans-Serif" font-size="12.00" fill="#44337a">Hardware Agent</text>
</g>
<!-- https://w3id.org/min#Agent&#45;&gt;https://w3id.org/sdata/core/HardwareAgent -->
<g id="edge3" class="edge">
<title>https://w3id.org/min#Agent&#45;&gt;https://w3id.org/sdata/core/HardwareAgent</title>
<path fill="none" stroke="#4a5568" stroke-width="1.6" d="M359.75,-138.92C333.96,-117.69 289.86,-81.39 261.2,-57.8"/>
<polygon fill="#4a5568" stroke="#4a5568" stroke-width="1.6" points="263.07,-55.49 254.62,-52.38 259.29,-60.08 263.07,-55.49"/>
</g>
<!-- https://w3id.org/sdata/core/Organization -->
<g id="node8" class="node">
<title>https://w3id.org/sdata/core/Organization</title>
<path fill="#f8eeff" stroke="#6b46c1" stroke-width="1.6" d="M416.5,-52C416.5,-52 344.5,-52 344.5,-52 338.5,-52 332.5,-46 332.5,-40 332.5,-40 332.5,-28 332.5,-28 332.5,-22 338.5,-16 344.5,-16 344.5,-16 416.5,-16 416.5,-16 422.5,-16 428.5,-22 428.5,-28 428.5,-28 428.5,-40 428.5,-40 428.5,-46 422.5,-52 416.5,-52"/>
<text text-anchor="middle" x="380.5" y="-30.9" font-family="Helvetica,sans-Serif" font-size="12.00" fill="#44337a">Organization</text>
</g>
<!-- https://w3id.org/min#Agent&#45;&gt;https://w3id.org/sdata/core/Organization -->
<g id="edge4" class="edge">
<title>https://w3id.org/min#Agent&#45;&gt;https://w3id.org/sdata/core/Organization</title>
<path fill="none" stroke="#4a5568" stroke-width="1.6" d="M380.5,-138.92C380.5,-118.68 380.5,-84.73 380.5,-61.16"/>
<polygon fill="#4a5568" stroke="#4a5568" stroke-width="1.6" points="383.48,-60.88 380.5,-52.38 377.53,-60.88 383.48,-60.88"/>
</g>
<!-- https://w3id.org/sdata/core/Person -->
<g id="node9" class="node">
<title>https://w3id.org/sdata/core/Person</title>
<path fill="#f8eeff" stroke="#6b46c1" stroke-width="1.6" d="M518,-52C518,-52 481,-52 481,-52 475,-52 469,-46 469,-40 469,-40 469,-28 469,-28 469,-22 475,-16 481,-16 481,-16 518,-16 518,-16 524,-16 530,-22 530,-28 530,-28 530,-40 530,-40 530,-46 524,-52 518,-52"/>
<text text-anchor="middle" x="499.5" y="-30.9" font-family="Helvetica,sans-Serif" font-size="12.00" fill="#44337a">Person</text>
</g>
<!-- https://w3id.org/min#Agent&#45;&gt;https://w3id.org/sdata/core/Person -->
<g id="edge5" class="edge">
<title>https://w3id.org/min#Agent&#45;&gt;https://w3id.org/sdata/core/Person</title>
<path fill="none" stroke="#4a5568" stroke-width="1.6" d="M397.3,-138.92C417.91,-117.96 452.98,-82.3 476.19,-58.7"/>
<polygon fill="#4a5568" stroke="#4a5568" stroke-width="1.6" points="478.56,-60.53 482.4,-52.38 474.32,-56.36 478.56,-60.53"/>
</g>
<!-- https://w3id.org/sdata/core/SoftwareAgent -->
<g id="node10" class="node">
<title>https://w3id.org/sdata/core/SoftwareAgent</title>
<path fill="#f8eeff" stroke="#6b46c1" stroke-width="1.6" d="M670.5,-52C670.5,-52 582.5,-52 582.5,-52 576.5,-52 570.5,-46 570.5,-40 570.5,-40 570.5,-28 570.5,-28 570.5,-22 576.5,-16 582.5,-16 582.5,-16 670.5,-16 670.5,-16 676.5,-16 682.5,-22 682.5,-28 682.5,-28 682.5,-40 682.5,-40 682.5,-46 676.5,-52 670.5,-52"/>
<text text-anchor="middle" x="626.5" y="-30.9" font-family="Helvetica,sans-Serif" font-size="12.00" fill="#44337a">Software Agent</text>
</g>
<!-- https://w3id.org/min#Agent&#45;&gt;https://w3id.org/sdata/core/SoftwareAgent -->
<g id="edge6" class="edge">
<title>https://w3id.org/min#Agent&#45;&gt;https://w3id.org/sdata/core/SoftwareAgent</title>
<path fill="none" stroke="#4a5568" stroke-width="1.6" d="M408.72,-142.12C451.73,-120.97 533.96,-80.52 584.15,-55.83"/>
<polygon fill="#4a5568" stroke="#4a5568" stroke-width="1.6" points="585.6,-58.43 591.92,-52.01 582.98,-53.09 585.6,-58.43"/>
</g>
<!-- https://w3id.org/min#Data -->
<g id="node2" class="node">
<title>https://w3id.org/min#Data</title>
<path fill="#e7f0ff" stroke="#2b6cb0" stroke-width="1.6" d="M764.5,-175C764.5,-175 734.5,-175 734.5,-175 728.5,-175 722.5,-169 722.5,-163 722.5,-163 722.5,-151 722.5,-151 722.5,-145 728.5,-139 734.5,-139 734.5,-139 764.5,-139 764.5,-139 770.5,-139 776.5,-145 776.5,-151 776.5,-151 776.5,-163 776.5,-163 776.5,-169 770.5,-175 764.5,-175"/>
<text text-anchor="middle" x="749.5" y="-153.9" font-family="Helvetica,sans-Serif" font-size="12.00" fill="#1a365d">Data</text>
</g>
<!-- https://w3id.org/sdata/core/Data -->
<g id="node11" class="node">
<title>https://w3id.org/sdata/core/Data</title>
<path fill="#f8eeff" stroke="#6b46c1" stroke-width="1.6" d="M764.5,-52C764.5,-52 734.5,-52 734.5,-52 728.5,-52 722.5,-46 722.5,-40 722.5,-40 722.5,-28 722.5,-28 722.5,-22 728.5,-16 734.5,-16 734.5,-16 764.5,-16 764.5,-16 770.5,-16 776.5,-22 776.5,-28 776.5,-28 776.5,-40 776.5,-40 776.5,-46 770.5,-52 764.5,-52"/>
<text text-anchor="middle" x="749.5" y="-30.9" font-family="Helvetica,sans-Serif" font-size="12.00" fill="#44337a">Data</text>
</g>
<!-- https://w3id.org/min#Data&#45;&gt;https://w3id.org/sdata/core/Data -->
<g id="edge7" class="edge">
<title>https://w3id.org/min#Data&#45;&gt;https://w3id.org/sdata/core/Data</title>
<path fill="none" stroke="#4a5568" stroke-width="1.6" d="M749.5,-138.92C749.5,-118.68 749.5,-84.73 749.5,-61.16"/>
<polygon fill="#4a5568" stroke="#4a5568" stroke-width="1.6" points="752.48,-60.88 749.5,-52.38 746.53,-60.88 752.48,-60.88"/>
</g>
<!-- https://w3id.org/min#Object -->
<g id="node3" class="node">
<title>https://w3id.org/min#Object</title>
<path fill="#e7f0ff" stroke="#2b6cb0" stroke-width="1.6" d="M1041.5,-175C1041.5,-175 1005.5,-175 1005.5,-175 999.5,-175 993.5,-169 993.5,-163 993.5,-163 993.5,-151 993.5,-151 993.5,-145 999.5,-139 1005.5,-139 1005.5,-139 1041.5,-139 1041.5,-139 1047.5,-139 1053.5,-145 1053.5,-151 1053.5,-151 1053.5,-163 1053.5,-163 1053.5,-169 1047.5,-175 1041.5,-175"/>
<text text-anchor="middle" x="1023.5" y="-153.9" font-family="Helvetica,sans-Serif" font-size="12.00" fill="#1a365d">Object</text>
</g>
<!-- https://w3id.org/sdata/core/Hardware -->
<g id="node12" class="node">
<title>https://w3id.org/sdata/core/Hardware</title>
<path fill="#f8eeff" stroke="#6b46c1" stroke-width="1.6" d="M882.5,-52C882.5,-52 828.5,-52 828.5,-52 822.5,-52 816.5,-46 816.5,-40 816.5,-40 816.5,-28 816.5,-28 816.5,-22 822.5,-16 828.5,-16 828.5,-16 882.5,-16 882.5,-16 888.5,-16 894.5,-22 894.5,-28 894.5,-28 894.5,-40 894.5,-40 894.5,-46 888.5,-52 882.5,-52"/>
<text text-anchor="middle" x="855.5" y="-30.9" font-family="Helvetica,sans-Serif" font-size="12.00" fill="#44337a">Hardware</text>
</g>
<!-- https://w3id.org/min#Object&#45;&gt;https://w3id.org/sdata/core/Hardware -->
<g id="edge8" class="edge">
<title>https://w3id.org/min#Object&#45;&gt;https://w3id.org/sdata/core/Hardware</title>
<path fill="none" stroke="#4a5568" stroke-width="1.6" d="M999.79,-138.92C970.1,-117.54 919.19,-80.87 886.46,-57.3"/>
<polygon fill="#4a5568" stroke="#4a5568" stroke-width="1.6" points="888,-54.74 879.36,-52.19 884.52,-59.57 888,-54.74"/>
</g>
<!-- https://w3id.org/sdata/core/Material -->
<g id="node13" class="node">
<title>https://w3id.org/sdata/core/Material</title>
<path fill="#f8eeff" stroke="#6b46c1" stroke-width="1.6" d="M992,-52C992,-52 947,-52 947,-52 941,-52 935,-46 935,-40 935,-40 935,-28 935,-28 935,-22 941,-16 947,-16 947,-16 992,-16 992,-16 998,-16 1004,-22 1004,-28 1004,-28 1004,-40 1004,-40 1004,-46 998,-52 992,-52"/>
<text text-anchor="middle" x="969.5" y="-30.9" font-family="Helvetica,sans-Serif" font-size="12.00" fill="#44337a">Material</text>
</g>
<!-- https://w3id.org/min#Object&#45;&gt;https://w3id.org/sdata/core/Material -->
<g id="edge9" class="edge">
<title>https://w3id.org/min#Object&#45;&gt;https://w3id.org/sdata/core/Material</title>
<path fill="none" stroke="#4a5568" stroke-width="1.6" d="M1015.88,-138.92C1006.72,-118.41 991.29,-83.82 980.76,-60.23"/>
<polygon fill="#4a5568" stroke="#4a5568" stroke-width="1.6" points="983.44,-58.93 977.26,-52.38 978.01,-61.36 983.44,-58.93"/>
</g>
<!-- https://w3id.org/sdata/core/Product -->
<g id="node14" class="node">
<title>https://w3id.org/sdata/core/Product</title>
<path fill="#f8eeff" stroke="#6b46c1" stroke-width="1.6" d="M1098.5,-52C1098.5,-52 1056.5,-52 1056.5,-52 1050.5,-52 1044.5,-46 1044.5,-40 1044.5,-40 1044.5,-28 1044.5,-28 1044.5,-22 1050.5,-16 1056.5,-16 1056.5,-16 1098.5,-16 1098.5,-16 1104.5,-16 1110.5,-22 1110.5,-28 1110.5,-28 1110.5,-40 1110.5,-40 1110.5,-46 1104.5,-52 1098.5,-52"/>
<text text-anchor="middle" x="1077.5" y="-30.9" font-family="Helvetica,sans-Serif" font-size="12.00" fill="#44337a">Product</text>
</g>
<!-- https://w3id.org/min#Object&#45;&gt;https://w3id.org/sdata/core/Product -->
<g id="edge10" class="edge">
<title>https://w3id.org/min#Object&#45;&gt;https://w3id.org/sdata/core/Product</title>
<path fill="none" stroke="#4a5568" stroke-width="1.6" d="M1031.12,-138.92C1040.28,-118.41 1055.71,-83.82 1066.24,-60.23"/>
<polygon fill="#4a5568" stroke="#4a5568" stroke-width="1.6" points="1068.99,-61.36 1069.74,-52.38 1063.56,-58.93 1068.99,-61.36"/>
</g>
<!-- https://w3id.org/sdata/core/Software -->
<g id="node15" class="node">
<title>https://w3id.org/sdata/core/Software</title>
<path fill="#f8eeff" stroke="#6b46c1" stroke-width="1.6" d="M1212,-52C1212,-52 1163,-52 1163,-52 1157,-52 1151,-46 1151,-40 1151,-40 1151,-28 1151,-28 1151,-22 1157,-16 1163,-16 1163,-16 1212,-16 1212,-16 1218,-16 1224,-22 1224,-28 1224,-28 1224,-40 1224,-40 1224,-46 1218,-52 1212,-52"/>
<text text-anchor="middle" x="1187.5" y="-30.9" font-family="Helvetica,sans-Serif" font-size="12.00" fill="#44337a">Software</text>
</g>
<!-- https://w3id.org/min#Object&#45;&gt;https://w3id.org/sdata/core/Software -->
<g id="edge11" class="edge">
<title>https://w3id.org/min#Object&#45;&gt;https://w3id.org/sdata/core/Software</title>
<path fill="none" stroke="#4a5568" stroke-width="1.6" d="M1046.65,-138.92C1075.63,-117.54 1125.32,-80.87 1157.28,-57.3"/>
<polygon fill="#4a5568" stroke="#4a5568" stroke-width="1.6" points="1159.13,-59.63 1164.2,-52.19 1155.6,-54.84 1159.13,-59.63"/>
</g>
<!-- legend_min -->
<g id="node4" class="node">
<title>legend_min</title>
<path fill="#e7f0ff" stroke="#2b6cb0" stroke-width="1.6" d="M1330,-175C1330,-175 1277,-175 1277,-175 1271,-175 1265,-169 1265,-163 1265,-163 1265,-151 1265,-151 1265,-145 1271,-139 1277,-139 1277,-139 1330,-139 1330,-139 1336,-139 1342,-145 1342,-151 1342,-151 1342,-163 1342,-163 1342,-169 1336,-175 1330,-175"/>
<text text-anchor="middle" x="1303.5" y="-153.9" font-family="Helvetica,sans-Serif" font-size="12.00" fill="#1a365d">MIN class</text>
</g>
<!-- legend_sdata -->
<g id="node5" class="node">
<title>legend_sdata</title>
<path fill="#e8f1ff" stroke="#6b46c1" stroke-width="1.6" d="M1339,-52C1339,-52 1276,-52 1276,-52 1270,-52 1264,-46 1264,-40 1264,-40 1264,-28 1264,-28 1264,-22 1270,-16 1276,-16 1276,-16 1339,-16 1339,-16 1345,-16 1351,-22 1351,-28 1351,-28 1351,-40 1351,-40 1351,-46 1345,-52 1339,-52"/>
<text text-anchor="middle" x="1307.5" y="-30.9" font-family="Helvetica,sans-Serif" font-size="12.00" fill="#44337a">sdata class</text>
</g>
<!-- legend_min&#45;&gt;legend_sdata -->
<g id="edge1" class="edge">
<title>legend_min&#45;&gt;legend_sdata</title>
<path fill="none" stroke="#4a5568" stroke-width="1.6" d="M1304.06,-138.92C1304.73,-118.68 1305.86,-84.73 1306.64,-61.16"/>
<polygon fill="#4a5568" stroke="#4a5568" stroke-width="1.6" points="1309.62,-60.98 1306.93,-52.38 1303.67,-60.78 1309.62,-60.98"/>
<text text-anchor="middle" x="1385.5" y="-91.8" font-family="Helvetica,sans-Serif" font-size="14.00">superclass &#45;&gt; subclass</text>
</g>
</g>
</svg>
