<?xml version="1.0" encoding="UTF-8" standalone="no"?>
<!DOCTYPE svg PUBLIC "-//W3C//DTD SVG 1.1//EN"
 "http://www.w3.org/Graphics/SVG/1.1/DTD/svg11.dtd">
<!-- Generated by graphviz version 2.43.0 (0)
 -->
<!-- Pages: 1 -->
<svg width="824pt" height="178pt"
 viewBox="0.00 0.00 824.40 178.40" xmlns="http://www.w3.org/2000/svg" xmlns:xlink="http://www.w3.org/1999/xlink">
<g id="graph0" class="graph" transform="scale(1 1) rotate(0) translate(25.2 153.2)">
<polygon fill="#fafbfc" stroke="transparent" points="-25.2,25.2 -25.2,-153.2 799.2,-153.2 799.2,25.2 -25.2,25.2"/>
<text text-anchor="middle" x="387" y="-108" font-family="Helvetica,sans-Serif" font-size="20.00">sdata Process Hierarchy (MaterialProcess/InformationProcess branches only)</text>
<g id="clust1" class="cluster">
<title>cluster_process_roots</title>
<path fill="#fafbfc" stroke="#d6d6d6" d="M222.5,-8C222.5,-8 551.5,-8 551.5,-8 557.5,-8 563.5,-14 563.5,-20 563.5,-20 563.5,-78 563.5,-78 563.5,-84 557.5,-90 551.5,-90 551.5,-90 222.5,-90 222.5,-90 216.5,-90 210.5,-84 210.5,-78 210.5,-78 210.5,-20 210.5,-20 210.5,-14 216.5,-8 222.5,-8"/>
<text text-anchor="middle" x="387" y="-70" font-family="Helvetica,sans-Serif" font-size="20.00">Process roots</text>
</g>
<!-- https://w3id.org/sdata/core/InformationProcess -->
<g id="node1" class="node">
<title>https://w3id.org/sdata/core/InformationProcess</title>
<path fill="#e8f1ff" stroke="#2b6cb0" stroke-width="1.6" d="M543,-52C543,-52 428,-52 428,-52 422,-52 416,-46 416,-40 416,-40 416,-28 416,-28 416,-22 422,-16 428,-16 428,-16 543,-16 543,-16 549,-16 555,-22 555,-28 555,-28 555,-40 555,-40 555,-46 549,-52 543,-52"/>
<text text-anchor="middle" x="485.5" y="-30.9" font-family="Helvetica,sans-Serif" font-size="12.00" fill="#1a365d">Information Process</text>
</g>
<!-- https://w3id.org/sdata/core/MaterialProcess -->
<g id="node2" class="node">
<title>https://w3id.org/sdata/core/MaterialProcess</title>
<path fill="#e8f1ff" stroke="#2b6cb0" stroke-width="1.6" d="M324.5,-52C324.5,-52 230.5,-52 230.5,-52 224.5,-52 218.5,-46 218.5,-40 218.5,-40 218.5,-28 218.5,-28 218.5,-22 224.5,-16 230.5,-16 230.5,-16 324.5,-16 324.5,-16 330.5,-16 336.5,-22 336.5,-28 336.5,-28 336.5,-40 336.5,-40 336.5,-46 330.5,-52 324.5,-52"/>
<text text-anchor="middle" x="277.5" y="-30.9" font-family="Helvetica,sans-Serif" font-size="12.00" fill="#1a365d">Material Process</text>
</g>
<!-- https://w3id.org/sdata/core/MaterialProcess&#45;&gt;https://w3id.org/sdata/core/InformationProcess -->
<g id="edge1" class="edge">
<title>https://w3id.org/sdata/core/MaterialProcess&#45;&gt;https://w3id.org/sdata/core/InformationProcess</title>
<path fill="none" stroke="#6b7280" stroke-width="1.6" stroke-dasharray="5,2" d="M336.55,-34C361.29,-34 390.23,-34 416,-34"/>
<text text-anchor="middle" x="376.25" y="-40.8" font-family="Helvetica,sans-Serif" font-size="14.00" fill="#6b7280">dual</text>
</g>
</g>
</svg>
