<?xml version="1.0" encoding="UTF-8" standalone="no"?>
<!DOCTYPE svg PUBLIC "-//W3C//DTD SVG 1.1//EN"
 "http://www.w3.org/Graphics/SVG/1.1/DTD/svg11.dtd">
<!-- Generated by graphviz version 2.43.0 (0)
 -->
<!-- Pages: 1 -->
<svg width="1824pt" height="610pt"
 viewBox="0.00 0.00 1824.40 610.40" xmlns="http://www.w3.org/2000/svg" xmlns:xlink="http://www.w3.org/1999/xlink">
<g id="graph0" class="graph" transform="scale(1 1) rotate(0) translate(25.2 585.2)">
<polygon fill="#fafbfc" stroke="transparent" points="-25.2,25.2 -25.2,-585.2 1799.2,-585.2 1799.2,25.2 -25.2,25.2"/>
<text text-anchor="middle" x="887" y="-540" font-family="Helvetica,sans-Serif" font-size="20.00">Class Hierarchy: MIN &#45;&gt; OPA &#45;&gt; sdata&#45;core</text>
<g id="clust1" class="cluster">
<title>cluster_sdata</title>
<path fill="#fafbfc" stroke="#d9b8f7" d="M20,-8C20,-8 1754,-8 1754,-8 1760,-8 1766,-14 1766,-20 1766,-20 1766,-78 1766,-78 1766,-84 1760,-90 1754,-90 1754,-90 20,-90 20,-90 14,-90 8,-84 8,-78 8,-78 8,-20 8,-20 8,-14 14,-8 20,-8"/>
<text text-anchor="middle" x="887" y="-70" font-family="Helvetica,sans-Serif" font-size="20.00">sdata&#45;core classes</text>
</g>
<g id="clust2" class="cluster">
<title>cluster_opa</title>
<path fill="#fafbfc" stroke="#97d5ba" d="M806,-116C806,-116 1007,-116 1007,-116 1013,-116 1019,-122 1019,-128 1019,-128 1019,-402 1019,-402 1019,-408 1013,-414 1007,-414 1007,-414 806,-414 806,-414 800,-414 794,-408 794,-402 794,-402 794,-128 794,-128 794,-122 800,-116 806,-116"/>
<text text-anchor="middle" x="906.5" y="-394" font-family="Helvetica,sans-Serif" font-size="20.00">OPA classes</text>
</g>
<g id="clust3" class="cluster">
<title>cluster_min</title>
<path fill="#fafbfc" stroke="#8fb7ea" d="M806,-440C806,-440 1246,-440 1246,-440 1252,-440 1258,-446 1258,-452 1258,-452 1258,-510 1258,-510 1258,-516 1252,-522 1246,-522 1246,-522 806,-522 806,-522 800,-522 794,-516 794,-510 794,-510 794,-452 794,-452 794,-446 800,-440 806,-440"/>
<text text-anchor="middle" x="1026" y="-502" font-family="Helvetica,sans-Serif" font-size="20.00">MIN classes</text>
</g>
<!-- https://w3id.org/sdata/core/Agent -->
<g id="node1" class="node">
<title>https://w3id.org/sdata/core/Agent</title>
<path fill="#f8eeff" stroke="#6b46c1" stroke-width="1.6" d="M886,-52C886,-52 854,-52 854,-52 848,-52 842,-46 842,-40 842,-40 842,-28 842,-28 842,-22 848,-16 854,-16 854,-16 886,-16 886,-16 892,-16 898,-22 898,-28 898,-28 898,-40 898,-40 898,-46 892,-52 886,-52"/>
<text text-anchor="middle" x="870" y="-30.9" font-family="Helvetica,sans-Serif" font-size="12.00" fill="#44337a">Agent</text>
</g>
<!-- https://w3id.org/sdata/core/HardwareAgent -->
<g id="node5" class="node">
<title>https://w3id.org/sdata/core/HardwareAgent</title>
<path fill="#f8eeff" stroke="#6b46c1" stroke-width="1.6" d="M1639.5,-52C1639.5,-52 1546.5,-52 1546.5,-52 1540.5,-52 1534.5,-46 1534.5,-40 1534.5,-40 1534.5,-28 1534.5,-28 1534.5,-22 1540.5,-16 1546.5,-16 1546.5,-16 1639.5,-16 1639.5,-16 1645.5,-16 1651.5,-22 1651.5,-28 1651.5,-28 1651.5,-40 1651.5,-40 1651.5,-46 1645.5,-52 1639.5,-52"/>
<text text-anchor="middle" x="1593" y="-30.9" font-family="Helvetica,sans-Serif" font-size="12.00" fill="#44337a">Hardware Agent</text>
</g>
<!-- https://w3id.org/sdata/core/Agent&#45;&gt;https://w3id.org/sdata/core/HardwareAgent -->
<g id="edge7" class="edge">
<title>https://w3id.org/sdata/core/Agent&#45;&gt;https://w3id.org/sdata/core/HardwareAgent</title>
<path fill="none" stroke="#4a5568" stroke-width="1.6" d="M880.65,-52.25C892.3,-69.96 912.85,-95.25 939,-103 968.56,-111.76 1464.44,-111.76 1494,-103 1522.44,-94.57 1549.71,-74.35 1568.4,-57.97"/>
<polygon fill="#4a5568" stroke="#4a5568" stroke-width="1.6" points="1570.56,-60.03 1574.89,-52.13 1566.58,-55.61 1570.56,-60.03"/>
</g>
<!-- https://w3id.org/sdata/core/Organization -->
<g id="node8" class="node">
<title>https://w3id.org/sdata/core/Organization</title>
<path fill="#f8eeff" stroke="#6b46c1" stroke-width="1.6" d="M1482,-52C1482,-52 1410,-52 1410,-52 1404,-52 1398,-46 1398,-40 1398,-40 1398,-28 1398,-28 1398,-22 1404,-16 1410,-16 1410,-16 1482,-16 1482,-16 1488,-16 1494,-22 1494,-28 1494,-28 1494,-40 1494,-40 1494,-46 1488,-52 1482,-52"/>
<text text-anchor="middle" x="1446" y="-30.9" font-family="Helvetica,sans-Serif" font-size="12.00" fill="#44337a">Organization</text>
</g>
<!-- https://w3id.org/sdata/core/Agent&#45;&gt;https://w3id.org/sdata/core/Organization -->
<g id="edge8" class="edge">
<title>https://w3id.org/sdata/core/Agent&#45;&gt;https://w3id.org/sdata/core/Organization</title>
<path fill="none" stroke="#4a5568" stroke-width="1.6" d="M880.65,-52.25C892.3,-69.96 912.85,-95.25 939,-103 983.64,-116.23 1313.36,-116.23 1358,-103 1384.29,-95.21 1408.36,-75.01 1424.66,-58.46"/>
<polygon fill="#4a5568" stroke="#4a5568" stroke-width="1.6" points="1427.01,-60.31 1430.72,-52.11 1422.7,-56.2 1427.01,-60.31"/>
</g>
<!-- https://w3id.org/sdata/core/Person -->
<g id="node9" class="node">
<title>https://w3id.org/sdata/core/Person</title>
<path fill="#f8eeff" stroke="#6b46c1" stroke-width="1.6" d="M1345.5,-52C1345.5,-52 1308.5,-52 1308.5,-52 1302.5,-52 1296.5,-46 1296.5,-40 1296.5,-40 1296.5,-28 1296.5,-28 1296.5,-22 1302.5,-16 1308.5,-16 1308.5,-16 1345.5,-16 1345.5,-16 1351.5,-16 1357.5,-22 1357.5,-28 1357.5,-28 1357.5,-40 1357.5,-40 1357.5,-46 1351.5,-52 1345.5,-52"/>
<text text-anchor="middle" x="1327" y="-30.9" font-family="Helvetica,sans-Serif" font-size="12.00" fill="#44337a">Person</text>
</g>
<!-- https://w3id.org/sdata/core/Agent&#45;&gt;https://w3id.org/sdata/core/Person -->
<g id="edge9" class="edge">
<title>https://w3id.org/sdata/core/Agent&#45;&gt;https://w3id.org/sdata/core/Person</title>
<path fill="none" stroke="#4a5568" stroke-width="1.6" d="M880.65,-52.25C892.3,-69.96 912.85,-95.25 939,-103 972.77,-113.01 1222.23,-113.01 1256,-103 1279.22,-96.12 1298.38,-75.92 1310.92,-59.14"/>
<polygon fill="#4a5568" stroke="#4a5568" stroke-width="1.6" points="1313.36,-60.85 1315.89,-52.2 1308.52,-57.38 1313.36,-60.85"/>
</g>
<!-- https://w3id.org/sdata/core/SoftwareAgent -->
<g id="node13" class="node">
<title>https://w3id.org/sdata/core/SoftwareAgent</title>
<path fill="#f8eeff" stroke="#6b46c1" stroke-width="1.6" d="M1244,-52C1244,-52 1156,-52 1156,-52 1150,-52 1144,-46 1144,-40 1144,-40 1144,-28 1144,-28 1144,-22 1150,-16 1156,-16 1156,-16 1244,-16 1244,-16 1250,-16 1256,-22 1256,-28 1256,-28 1256,-40 1256,-40 1256,-46 1250,-52 1244,-52"/>
<text text-anchor="middle" x="1200" y="-30.9" font-family="Helvetica,sans-Serif" font-size="12.00" fill="#44337a">Software Agent</text>
</g>
<!-- https://w3id.org/sdata/core/Agent&#45;&gt;https://w3id.org/sdata/core/SoftwareAgent -->
<g id="edge10" class="edge">
<title>https://w3id.org/sdata/core/Agent&#45;&gt;https://w3id.org/sdata/core/SoftwareAgent</title>
<path fill="none" stroke="#4a5568" stroke-width="1.6" d="M880.65,-52.25C892.3,-69.96 912.85,-95.25 939,-103 974.15,-113.42 1068.85,-113.42 1104,-103 1131.87,-94.74 1158.28,-74.5 1176.32,-58.07"/>
<polygon fill="#4a5568" stroke="#4a5568" stroke-width="1.6" points="1178.4,-60.2 1182.57,-52.22 1174.33,-55.85 1178.4,-60.2"/>
</g>
<!-- https://w3id.org/sdata/core/AttributeQuantityValue -->
<g id="node2" class="node">
<title>https://w3id.org/sdata/core/AttributeQuantityValue</title>
<path fill="#f8eeff" stroke="#6b46c1" stroke-width="1.6" d="M1091.5,-52C1091.5,-52 950.5,-52 950.5,-52 944.5,-52 938.5,-46 938.5,-40 938.5,-40 938.5,-28 938.5,-28 938.5,-22 944.5,-16 950.5,-16 950.5,-16 1091.5,-16 1091.5,-16 1097.5,-16 1103.5,-22 1103.5,-28 1103.5,-28 1103.5,-40 1103.5,-40 1103.5,-46 1097.5,-52 1091.5,-52"/>
<text text-anchor="middle" x="1021" y="-30.9" font-family="Helvetica,sans-Serif" font-size="12.00" fill="#44337a">Attribute Quantity Value</text>
</g>
<!-- https://w3id.org/sdata/core/Data -->
<g id="node3" class="node">
<title>https://w3id.org/sdata/core/Data</title>
<path fill="#f8eeff" stroke="#6b46c1" stroke-width="1.6" d="M420,-52C420,-52 390,-52 390,-52 384,-52 378,-46 378,-40 378,-40 378,-28 378,-28 378,-22 384,-16 390,-16 390,-16 420,-16 420,-16 426,-16 432,-22 432,-28 432,-28 432,-40 432,-40 432,-46 426,-52 420,-52"/>
<text text-anchor="middle" x="405" y="-30.9" font-family="Helvetica,sans-Serif" font-size="12.00" fill="#44337a">Data</text>
</g>
<!-- https://w3id.org/sdata/core/Hardware -->
<g id="node4" class="node">
<title>https://w3id.org/sdata/core/Hardware</title>
<path fill="#f8eeff" stroke="#6b46c1" stroke-width="1.6" d="M326,-52C326,-52 272,-52 272,-52 266,-52 260,-46 260,-40 260,-40 260,-28 260,-28 260,-22 266,-16 272,-16 272,-16 326,-16 326,-16 332,-16 338,-22 338,-28 338,-28 338,-40 338,-40 338,-46 332,-52 326,-52"/>
<text text-anchor="middle" x="299" y="-30.9" font-family="Helvetica,sans-Serif" font-size="12.00" fill="#44337a">Hardware</text>
</g>
<!-- https://w3id.org/sdata/core/Material -->
<g id="node6" class="node">
<title>https://w3id.org/sdata/core/Material</title>
<path fill="#f8eeff" stroke="#6b46c1" stroke-width="1.6" d="M749.5,-52C749.5,-52 704.5,-52 704.5,-52 698.5,-52 692.5,-46 692.5,-40 692.5,-40 692.5,-28 692.5,-28 692.5,-22 698.5,-16 704.5,-16 704.5,-16 749.5,-16 749.5,-16 755.5,-16 761.5,-22 761.5,-28 761.5,-28 761.5,-40 761.5,-40 761.5,-46 755.5,-52 749.5,-52"/>
<text text-anchor="middle" x="727" y="-30.9" font-family="Helvetica,sans-Serif" font-size="12.00" fill="#44337a">Material</text>
</g>
<!-- https://w3id.org/sdata/core/Object -->
<g id="node7" class="node">
<title>https://w3id.org/sdata/core/Object</title>
<path fill="#f8eeff" stroke="#6b46c1" stroke-width="1.6" d="M64,-52C64,-52 28,-52 28,-52 22,-52 16,-46 16,-40 16,-40 16,-28 16,-28 16,-22 22,-16 28,-16 28,-16 64,-16 64,-16 70,-16 76,-22 76,-28 76,-28 76,-40 76,-40 76,-46 70,-52 64,-52"/>
<text text-anchor="middle" x="46" y="-30.9" font-family="Helvetica,sans-Serif" font-size="12.00" fill="#44337a">Object</text>
</g>
<!-- https://w3id.org/sdata/core/Object&#45;&gt;https://w3id.org/sdata/core/Data -->
<g id="edge11" class="edge">
<title>https://w3id.org/sdata/core/Object&#45;&gt;https://w3id.org/sdata/core/Data</title>
<path fill="none" stroke="#4a5568" stroke-width="1.6" d="M56.88,-52.23C68.76,-69.91 89.66,-95.19 116,-103 163.3,-117.02 290.7,-117.02 338,-103 360.35,-96.37 378.25,-76.45 389.91,-59.71"/>
<polygon fill="#4a5568" stroke="#4a5568" stroke-width="1.6" points="392.6,-61.03 394.82,-52.3 387.64,-57.74 392.6,-61.03"/>
</g>
<!-- https://w3id.org/sdata/core/Object&#45;&gt;https://w3id.org/sdata/core/Hardware -->
<g id="edge12" class="edge">
<title>https://w3id.org/sdata/core/Object&#45;&gt;https://w3id.org/sdata/core/Hardware</title>
<path fill="none" stroke="#4a5568" stroke-width="1.6" d="M56.88,-52.23C68.76,-69.91 89.66,-95.19 116,-103 160.32,-116.14 175.68,-116.14 220,-103 244.6,-95.71 266.04,-75.55 280.36,-58.89"/>
<polygon fill="#4a5568" stroke="#4a5568" stroke-width="1.6" points="282.93,-60.46 286.05,-52.01 278.34,-56.67 282.93,-60.46"/>
</g>
<!-- https://w3id.org/sdata/core/Object&#45;&gt;https://w3id.org/sdata/core/Material -->
<g id="edge13" class="edge">
<title>https://w3id.org/sdata/core/Object&#45;&gt;https://w3id.org/sdata/core/Material</title>
<path fill="none" stroke="#4a5568" stroke-width="1.6" d="M56.88,-52.23C68.76,-69.91 89.66,-95.19 116,-103 173.1,-119.93 594.9,-119.93 652,-103 675.9,-95.92 696.21,-75.73 709.64,-59.01"/>
<polygon fill="#4a5568" stroke="#4a5568" stroke-width="1.6" points="712.13,-60.66 714.96,-52.11 707.42,-57.02 712.13,-60.66"/>
</g>
<!-- https://w3id.org/sdata/core/Product -->
<g id="node11" class="node">
<title>https://w3id.org/sdata/core/Product</title>
<path fill="#f8eeff" stroke="#6b46c1" stroke-width="1.6" d="M640,-52C640,-52 598,-52 598,-52 592,-52 586,-46 586,-40 586,-40 586,-28 586,-28 586,-22 592,-16 598,-16 598,-16 640,-16 640,-16 646,-16 652,-22 652,-28 652,-28 652,-40 652,-40 652,-46 646,-52 640,-52"/>
<text text-anchor="middle" x="619" y="-30.9" font-family="Helvetica,sans-Serif" font-size="12.00" fill="#44337a">Product</text>
</g>
<!-- https://w3id.org/sdata/core/Object&#45;&gt;https://w3id.org/sdata/core/Product -->
<g id="edge14" class="edge">
<title>https://w3id.org/sdata/core/Object&#45;&gt;https://w3id.org/sdata/core/Product</title>
<path fill="none" stroke="#4a5568" stroke-width="1.6" d="M56.88,-52.23C68.76,-69.91 89.66,-95.19 116,-103 161.81,-116.58 500.19,-116.58 546,-103 569.55,-96.02 589.29,-75.83 602.28,-59.08"/>
<polygon fill="#4a5568" stroke="#4a5568" stroke-width="1.6" points="604.74,-60.75 607.42,-52.16 599.96,-57.2 604.74,-60.75"/>
</g>
<!-- https://w3id.org/sdata/core/Software -->
<g id="node12" class="node">
<title>https://w3id.org/sdata/core/Software</title>
<path fill="#f8eeff" stroke="#6b46c1" stroke-width="1.6" d="M533.5,-52C533.5,-52 484.5,-52 484.5,-52 478.5,-52 472.5,-46 472.5,-40 472.5,-40 472.5,-28 472.5,-28 472.5,-22 478.5,-16 484.5,-16 484.5,-16 533.5,-16 533.5,-16 539.5,-16 545.5,-22 545.5,-28 545.5,-28 545.5,-40 545.5,-40 545.5,-46 539.5,-52 533.5,-52"/>
<text text-anchor="middle" x="509" y="-30.9" font-family="Helvetica,sans-Serif" font-size="12.00" fill="#44337a">Software</text>
</g>
<!-- https://w3id.org/sdata/core/Object&#45;&gt;https://w3id.org/sdata/core/Software -->
<g id="edge15" class="edge">
<title>https://w3id.org/sdata/core/Object&#45;&gt;https://w3id.org/sdata/core/Software</title>
<path fill="none" stroke="#4a5568" stroke-width="1.6" d="M56.88,-52.23C68.76,-69.91 89.66,-95.19 116,-103 149.66,-112.98 398.34,-112.98 432,-103 456.24,-95.81 477.12,-75.64 491,-58.95"/>
<polygon fill="#4a5568" stroke="#4a5568" stroke-width="1.6" points="493.52,-60.56 496.51,-52.06 488.88,-56.84 493.52,-60.56"/>
</g>
<!-- https://w3id.org/sdata/core/Process -->
<g id="node10" class="node">
<title>https://w3id.org/sdata/core/Process</title>
<path fill="#f8eeff" stroke="#6b46c1" stroke-width="1.6" d="M1746,-52C1746,-52 1704,-52 1704,-52 1698,-52 1692,-46 1692,-40 1692,-40 1692,-28 1692,-28 1692,-22 1698,-16 1704,-16 1704,-16 1746,-16 1746,-16 1752,-16 1758,-22 1758,-28 1758,-28 1758,-40 1758,-40 1758,-46 1752,-52 1746,-52"/>
<text text-anchor="middle" x="1725" y="-30.9" font-family="Helvetica,sans-Serif" font-size="12.00" fill="#44337a">Process</text>
</g>
<!-- https://w3id.org/sdata/core/ValueDomain -->
<g id="node14" class="node">
<title>https://w3id.org/sdata/core/ValueDomain</title>
<path fill="#f8eeff" stroke="#6b46c1" stroke-width="1.6" d="M208,-52C208,-52 128,-52 128,-52 122,-52 116,-46 116,-40 116,-40 116,-28 116,-28 116,-22 122,-16 128,-16 128,-16 208,-16 208,-16 214,-16 220,-22 220,-28 220,-28 220,-40 220,-40 220,-46 214,-52 208,-52"/>
<text text-anchor="middle" x="168" y="-30.9" font-family="Helvetica,sans-Serif" font-size="12.00" fill="#44337a">Value Domain</text>
</g>
<!-- __rank_anchor_sdata -->
<!-- https://w3id.org/opa#Agent -->
<g id="node16" class="node">
<title>https://w3id.org/opa#Agent</title>
<path fill="#e8fff4" stroke="#2f855a" stroke-width="1.6" d="M989,-160C989,-160 957,-160 957,-160 951,-160 945,-154 945,-148 945,-148 945,-136 945,-136 945,-130 951,-124 957,-124 957,-124 989,-124 989,-124 995,-124 1001,-130 1001,-136 1001,-136 1001,-148 1001,-148 1001,-154 995,-160 989,-160"/>
<text text-anchor="middle" x="973" y="-138.9" font-family="Helvetica,sans-Serif" font-size="12.00" fill="#1c4532">Agent</text>
</g>
<!-- https://w3id.org/opa#Agent&#45;&gt;https://w3id.org/sdata/core/Agent -->
<g id="edge4" class="edge">
<title>https://w3id.org/opa#Agent&#45;&gt;https://w3id.org/sdata/core/Agent</title>
<path fill="none" stroke="#4a5568" stroke-width="1.6" d="M954.13,-123.92C943.58,-114.19 930.32,-101.65 919,-90 909.3,-80.01 898.99,-68.57 890.34,-58.72"/>
<polygon fill="#4a5568" stroke="#4a5568" stroke-width="1.6" points="892.47,-56.64 884.64,-52.19 887.99,-60.55 892.47,-56.64"/>
</g>
<!-- https://w3id.org/opa#Object -->
<g id="node17" class="node">
<title>https://w3id.org/opa#Object</title>
<path fill="#e8fff4" stroke="#2f855a" stroke-width="1.6" d="M902,-268C902,-268 866,-268 866,-268 860,-268 854,-262 854,-256 854,-256 854,-244 854,-244 854,-238 860,-232 866,-232 866,-232 902,-232 902,-232 908,-232 914,-238 914,-244 914,-244 914,-256 914,-256 914,-262 908,-268 902,-268"/>
<text text-anchor="middle" x="884" y="-246.9" font-family="Helvetica,sans-Serif" font-size="12.00" fill="#1c4532">Object</text>
</g>
<!-- https://w3id.org/opa#Object&#45;&gt;https://w3id.org/sdata/core/Object -->
<g id="edge5" class="edge">
<title>https://w3id.org/opa#Object&#45;&gt;https://w3id.org/sdata/core/Object</title>
<path fill="none" stroke="#4a5568" stroke-width="1.6" d="M853.84,-240.25C843.76,-237.45 832.43,-234.45 822,-232 501.91,-156.92 382.45,-251.38 96,-90 82.72,-82.52 71.05,-70.23 62.33,-59.17"/>
<polygon fill="#4a5568" stroke="#4a5568" stroke-width="1.6" points="64.53,-57.14 57.04,-52.13 59.77,-60.71 64.53,-57.14"/>
</g>
<!-- https://w3id.org/opa#Process -->
<g id="node18" class="node">
<title>https://w3id.org/opa#Process</title>
<path fill="#e8fff4" stroke="#2f855a" stroke-width="1.6" d="M999,-376C999,-376 957,-376 957,-376 951,-376 945,-370 945,-364 945,-364 945,-352 945,-352 945,-346 951,-340 957,-340 957,-340 999,-340 999,-340 1005,-340 1011,-346 1011,-352 1011,-352 1011,-364 1011,-364 1011,-370 1005,-376 999,-376"/>
<text text-anchor="middle" x="978" y="-354.9" font-family="Helvetica,sans-Serif" font-size="12.00" fill="#1c4532">Process</text>
</g>
<!-- https://w3id.org/opa#Process&#45;&gt;https://w3id.org/sdata/core/Process -->
<g id="edge6" class="edge">
<title>https://w3id.org/opa#Process&#45;&gt;https://w3id.org/sdata/core/Process</title>
<path fill="none" stroke="#4a5568" stroke-width="1.6" d="M1011.13,-349.71C1115.35,-325.69 1443.11,-241.8 1672,-90 1684.78,-81.52 1696.83,-69.48 1706.2,-58.82"/>
<polygon fill="#4a5568" stroke="#4a5568" stroke-width="1.6" points="1708.71,-60.47 1711.96,-52.07 1704.18,-56.61 1708.71,-60.47"/>
</g>
<!-- __rank_anchor_opa -->
<!-- __rank_anchor_opa&#45;&gt;__rank_anchor_sdata -->
<!-- https://w3id.org/min#Information -->
<g id="node20" class="node">
<title>https://w3id.org/min#Information</title>
<path fill="#e7f0ff" stroke="#2b6cb0" stroke-width="1.6" d="M1238,-484C1238,-484 1172,-484 1172,-484 1166,-484 1160,-478 1160,-472 1160,-472 1160,-460 1160,-460 1160,-454 1166,-448 1172,-448 1172,-448 1238,-448 1238,-448 1244,-448 1250,-454 1250,-460 1250,-460 1250,-472 1250,-472 1250,-478 1244,-484 1238,-484"/>
<text text-anchor="middle" x="1205" y="-462.9" font-family="Helvetica,sans-Serif" font-size="12.00" fill="#1a365d">Information</text>
</g>
<!-- https://w3id.org/min#Material -->
<g id="node21" class="node">
<title>https://w3id.org/min#Material</title>
<path fill="#e7f0ff" stroke="#2b6cb0" stroke-width="1.6" d="M1107.5,-484C1107.5,-484 1062.5,-484 1062.5,-484 1056.5,-484 1050.5,-478 1050.5,-472 1050.5,-472 1050.5,-460 1050.5,-460 1050.5,-454 1056.5,-448 1062.5,-448 1062.5,-448 1107.5,-448 1107.5,-448 1113.5,-448 1119.5,-454 1119.5,-460 1119.5,-460 1119.5,-472 1119.5,-472 1119.5,-478 1113.5,-484 1107.5,-484"/>
<text text-anchor="middle" x="1085" y="-462.9" font-family="Helvetica,sans-Serif" font-size="12.00" fill="#1a365d">Material</text>
</g>
<!-- https://w3id.org/min#Modality -->
<g id="node22" class="node">
<title>https://w3id.org/min#Modality</title>
<path fill="#e7f0ff" stroke="#2b6cb0" stroke-width="1.6" d="M998.5,-484C998.5,-484 951.5,-484 951.5,-484 945.5,-484 939.5,-478 939.5,-472 939.5,-472 939.5,-460 939.5,-460 939.5,-454 945.5,-448 951.5,-448 951.5,-448 998.5,-448 998.5,-448 1004.5,-448 1010.5,-454 1010.5,-460 1010.5,-460 1010.5,-472 1010.5,-472 1010.5,-478 1004.5,-484 998.5,-484"/>
<text text-anchor="middle" x="975" y="-462.9" font-family="Helvetica,sans-Serif" font-size="12.00" fill="#1a365d">Modality</text>
</g>
<!-- https://w3id.org/min#Nexus -->
<g id="node23" class="node">
<title>https://w3id.org/min#Nexus</title>
<path fill="#e7f0ff" stroke="#2b6cb0" stroke-width="1.6" d="M887.5,-484C887.5,-484 854.5,-484 854.5,-484 848.5,-484 842.5,-478 842.5,-472 842.5,-472 842.5,-460 842.5,-460 842.5,-454 848.5,-448 854.5,-448 854.5,-448 887.5,-448 887.5,-448 893.5,-448 899.5,-454 899.5,-460 899.5,-460 899.5,-472 899.5,-472 899.5,-478 893.5,-484 887.5,-484"/>
<text text-anchor="middle" x="871" y="-462.9" font-family="Helvetica,sans-Serif" font-size="12.00" fill="#1a365d">Nexus</text>
</g>
<!-- https://w3id.org/min#Nexus&#45;&gt;https://w3id.org/opa#Agent -->
<g id="edge1" class="edge">
<title>https://w3id.org/min#Nexus&#45;&gt;https://w3id.org/opa#Agent</title>
<path fill="none" stroke="#4a5568" stroke-width="1.6" d="M899.76,-448.87C906.28,-445.63 913.27,-442.46 920,-440 967.58,-422.58 999.52,-453.7 1031,-414 1090,-339.59 1023.55,-218.83 990.02,-167.42"/>
<polygon fill="#4a5568" stroke="#4a5568" stroke-width="1.6" points="992.32,-165.51 985.14,-160.07 987.36,-168.8 992.32,-165.51"/>
</g>
<!-- https://w3id.org/min#Nexus&#45;&gt;https://w3id.org/opa#Object -->
<g id="edge2" class="edge">
<title>https://w3id.org/min#Nexus&#45;&gt;https://w3id.org/opa#Object</title>
<path fill="none" stroke="#4a5568" stroke-width="1.6" d="M872.04,-447.85C874.31,-410.44 879.73,-321.32 882.42,-276.98"/>
<polygon fill="#4a5568" stroke="#4a5568" stroke-width="1.6" points="885.41,-276.9 882.95,-268.23 879.47,-276.54 885.41,-276.9"/>
</g>
<!-- https://w3id.org/min#Nexus&#45;&gt;https://w3id.org/opa#Process -->
<g id="edge3" class="edge">
<title>https://w3id.org/min#Nexus&#45;&gt;https://w3id.org/opa#Process</title>
<path fill="none" stroke="#4a5568" stroke-width="1.6" d="M888.19,-447.97C906.1,-430.23 934.29,-402.3 954.31,-382.47"/>
<polygon fill="#4a5568" stroke="#4a5568" stroke-width="1.6" points="956.55,-384.44 960.5,-376.34 952.36,-380.21 956.55,-384.44"/>
</g>
<!-- __rank_anchor_min -->
<!-- __rank_anchor_min&#45;&gt;__rank_anchor_opa -->
</g>
</svg>
