<?xml version="1.0" encoding="UTF-8" standalone="no"?>
<!DOCTYPE svg PUBLIC "-//W3C//DTD SVG 1.1//EN"
 "http://www.w3.org/Graphics/SVG/1.1/DTD/svg11.dtd">
<!-- Generated by graphviz version 2.43.0 (0)
 -->
<!-- Pages: 1 -->
<svg width="1135pt" height="299pt"
 viewBox="0.00 0.00 1135.40 299.40" xmlns="http://www.w3.org/2000/svg" xmlns:xlink="http://www.w3.org/1999/xlink">
<g id="graph0" class="graph" transform="scale(1 1) rotate(0) translate(25.2 274.2)">
<polygon fill="#fafbfc" stroke="transparent" points="-25.2,25.2 -25.2,-274.2 1110.2,-274.2 1110.2,25.2 -25.2,25.2"/>
<text text-anchor="middle" x="542.5" y="-233" font-family="Helvetica,sans-Serif" font-size="20.00">sdata Class Hierarchy (with direct BFO parents)</text>
<g id="clust1" class="cluster">
<title>cluster_legend</title>
<path fill="#fafbfc" stroke="#cbd5e0" d="M930,0C930,0 1073,0 1073,0 1079,0 1085,-6 1085,-12 1085,-12 1085,-203 1085,-203 1085,-209 1079,-215 1073,-215 1073,-215 930,-215 930,-215 924,-215 918,-209 918,-203 918,-203 918,-12 918,-12 918,-6 924,0 930,0"/>
<text text-anchor="middle" x="1001.5" y="-195" font-family="Helvetica,sans-Serif" font-size="20.00">Legend</text>
</g>
<g id="clust2" class="cluster">
<title>cluster_bfo_context</title>
<path fill="#fafbfc" stroke="#f3c887" d="M125,0C125,0 781,0 781,0 787,0 793,-6 793,-12 793,-12 793,-70 793,-70 793,-76 787,-82 781,-82 781,-82 125,-82 125,-82 119,-82 113,-76 113,-70 113,-70 113,-12 113,-12 113,-6 119,0 125,0"/>
<text text-anchor="middle" x="453" y="-62" font-family="Helvetica,sans-Serif" font-size="20.00">BFO context</text>
</g>
<g id="clust3" class="cluster">
<title>cluster_sdata</title>
<path fill="#fafbfc" stroke="#90b5e8" d="M12,-133C12,-133 882,-133 882,-133 888,-133 894,-139 894,-145 894,-145 894,-203 894,-203 894,-209 888,-215 882,-215 882,-215 12,-215 12,-215 6,-215 0,-209 0,-203 0,-203 0,-145 0,-145 0,-139 6,-133 12,-133"/>
<text text-anchor="middle" x="447" y="-195" font-family="Helvetica,sans-Serif" font-size="20.00">sdata classes</text>
</g>
<!-- legend_sdata -->
<g id="node1" class="node">
<title>legend_sdata</title>
<path fill="#e8f1ff" stroke="#2b6cb0" stroke-width="1.6" d="M1001.5,-177C1001.5,-177 938.5,-177 938.5,-177 932.5,-177 926.5,-171 926.5,-165 926.5,-165 926.5,-153 926.5,-153 926.5,-147 932.5,-141 938.5,-141 938.5,-141 1001.5,-141 1001.5,-141 1007.5,-141 1013.5,-147 1013.5,-153 1013.5,-153 1013.5,-165 1013.5,-165 1013.5,-171 1007.5,-177 1001.5,-177"/>
<text text-anchor="middle" x="970" y="-155.9" font-family="Helvetica,sans-Serif" font-size="12.00" fill="#1a365d">sdata class</text>
</g>
<!-- legend_bfo -->
<g id="node2" class="node">
<title>legend_bfo</title>
<path fill="#fff4e5" stroke="#b7791f" stroke-width="1.6" d="M1002,-44C1002,-44 938,-44 938,-44 932,-44 926,-38 926,-32 926,-32 926,-20 926,-20 926,-14 932,-8 938,-8 938,-8 1002,-8 1002,-8 1008,-8 1014,-14 1014,-20 1014,-20 1014,-32 1014,-32 1014,-38 1008,-44 1002,-44"/>
<text text-anchor="middle" x="970" y="-22.9" font-family="Helvetica,sans-Serif" font-size="12.00" fill="#7b341e">BFO parent</text>
</g>
<!-- legend_sdata&#45;&gt;legend_bfo -->
<g id="edge1" class="edge">
<title>legend_sdata&#45;&gt;legend_bfo</title>
<path fill="none" stroke="#4a5568" stroke-width="1.6" d="M970,-140.87C970,-118.42 970,-78.81 970,-52.74"/>
<polygon fill="#4a5568" stroke="#4a5568" stroke-width="1.6" points="972.98,-52.63 970,-44.13 967.03,-52.63 972.98,-52.63"/>
<text text-anchor="middle" x="1025.5" y="-93.8" font-family="Helvetica,sans-Serif" font-size="14.00">rdfs:subClassOf</text>
</g>
<!-- http://purl.obolibrary.org/obo/BFO_0000015 -->
<g id="node3" class="node">
<title>http://purl.obolibrary.org/obo/BFO_0000015</title>
<path fill="#fff4e5" stroke="#b7791f" stroke-width="1.6" d="M585,-44C585,-44 543,-44 543,-44 537,-44 531,-38 531,-32 531,-32 531,-20 531,-20 531,-14 537,-8 543,-8 543,-8 585,-8 585,-8 591,-8 597,-14 597,-20 597,-20 597,-32 597,-32 597,-38 591,-44 585,-44"/>
<text text-anchor="middle" x="564" y="-22.9" font-family="Helvetica,sans-Serif" font-size="12.00" fill="#7b341e">process</text>
</g>
<!-- http://purl.obolibrary.org/obo/BFO_0000023 -->
<g id="node4" class="node">
<title>http://purl.obolibrary.org/obo/BFO_0000023</title>
<path fill="#fff4e5" stroke="#b7791f" stroke-width="1.6" d="M679,-44C679,-44 649,-44 649,-44 643,-44 637,-38 637,-32 637,-32 637,-20 637,-20 637,-14 643,-8 649,-8 649,-8 679,-8 679,-8 685,-8 691,-14 691,-20 691,-20 691,-32 691,-32 691,-38 685,-44 679,-44"/>
<text text-anchor="middle" x="664" y="-22.9" font-family="Helvetica,sans-Serif" font-size="12.00" fill="#7b341e">role</text>
</g>
<!-- http://purl.obolibrary.org/obo/BFO_0000029 -->
<g id="node5" class="node">
<title>http://purl.obolibrary.org/obo/BFO_0000029</title>
<path fill="#fff4e5" stroke="#b7791f" stroke-width="1.6" d="M773,-44C773,-44 743,-44 743,-44 737,-44 731,-38 731,-32 731,-32 731,-20 731,-20 731,-14 737,-8 743,-8 743,-8 773,-8 773,-8 779,-8 785,-14 785,-20 785,-20 785,-32 785,-32 785,-38 779,-44 773,-44"/>
<text text-anchor="middle" x="758" y="-22.9" font-family="Helvetica,sans-Serif" font-size="12.00" fill="#7b341e">site</text>
</g>
<!-- http://purl.obolibrary.org/obo/BFO_0000031 -->
<g id="node6" class="node">
<title>http://purl.obolibrary.org/obo/BFO_0000031</title>
<path fill="#fff4e5" stroke="#b7791f" stroke-width="1.6" d="M331,-44C331,-44 133,-44 133,-44 127,-44 121,-38 121,-32 121,-32 121,-20 121,-20 121,-14 127,-8 133,-8 133,-8 331,-8 331,-8 337,-8 343,-14 343,-20 343,-20 343,-32 343,-32 343,-38 337,-44 331,-44"/>
<text text-anchor="middle" x="232" y="-22.9" font-family="Helvetica,sans-Serif" font-size="12.00" fill="#7b341e">generically dependent continuant</text>
</g>
<!-- http://purl.obolibrary.org/obo/BFO_0000040 -->
<g id="node7" class="node">
<title>http://purl.obolibrary.org/obo/BFO_0000040</title>
<path fill="#fff4e5" stroke="#b7791f" stroke-width="1.6" d="M479,-44C479,-44 395,-44 395,-44 389,-44 383,-38 383,-32 383,-32 383,-20 383,-20 383,-14 389,-8 395,-8 395,-8 479,-8 479,-8 485,-8 491,-14 491,-20 491,-20 491,-32 491,-32 491,-38 485,-44 479,-44"/>
<text text-anchor="middle" x="437" y="-22.9" font-family="Helvetica,sans-Serif" font-size="12.00" fill="#7b341e">material entity</text>
</g>
<!-- https://w3id.org/sdata/core#Agent -->
<g id="node8" class="node">
<title>https://w3id.org/sdata/core#Agent</title>
<path fill="#e8f1ff" stroke="#2b6cb0" stroke-width="1.6" d="M874,-177C874,-177 842,-177 842,-177 836,-177 830,-171 830,-165 830,-165 830,-153 830,-153 830,-147 836,-141 842,-141 842,-141 874,-141 874,-141 880,-141 886,-147 886,-153 886,-153 886,-165 886,-165 886,-171 880,-177 874,-177"/>
<text text-anchor="middle" x="858" y="-155.9" font-family="Helvetica,sans-Serif" font-size="12.00" fill="#1a365d">Agent</text>
</g>
<!-- https://w3id.org/sdata/core#DigitalArtifact -->
<g id="node9" class="node">
<title>https://w3id.org/sdata/core#DigitalArtifact</title>
<path fill="#e8f1ff" stroke="#2b6cb0" stroke-width="1.6" d="M102,-177C102,-177 20,-177 20,-177 14,-177 8,-171 8,-165 8,-165 8,-153 8,-153 8,-147 14,-141 20,-141 20,-141 102,-141 102,-141 108,-141 114,-147 114,-153 114,-153 114,-165 114,-165 114,-171 108,-177 102,-177"/>
<text text-anchor="middle" x="61" y="-155.9" font-family="Helvetica,sans-Serif" font-size="12.00" fill="#1a365d">Digital Artifact</text>
</g>
<!-- https://w3id.org/sdata/core#DigitalArtifact&#45;&gt;http://purl.obolibrary.org/obo/BFO_0000031 -->
<g id="edge2" class="edge">
<title>https://w3id.org/sdata/core#DigitalArtifact&#45;&gt;http://purl.obolibrary.org/obo/BFO_0000031</title>
<path fill="none" stroke="#4a5568" stroke-width="1.6" d="M83.36,-140.87C113.95,-117.44 168.92,-75.32 202.76,-49.4"/>
<polygon fill="#4a5568" stroke="#4a5568" stroke-width="1.6" points="204.7,-51.66 209.64,-44.13 201.08,-46.94 204.7,-51.66"/>
</g>
<!-- https://w3id.org/sdata/core#Identifier -->
<g id="node10" class="node">
<title>https://w3id.org/sdata/core#Identifier</title>
<path fill="#e8f1ff" stroke="#2b6cb0" stroke-width="1.6" d="M217.5,-177C217.5,-177 166.5,-177 166.5,-177 160.5,-177 154.5,-171 154.5,-165 154.5,-165 154.5,-153 154.5,-153 154.5,-147 160.5,-141 166.5,-141 166.5,-141 217.5,-141 217.5,-141 223.5,-141 229.5,-147 229.5,-153 229.5,-153 229.5,-165 229.5,-165 229.5,-171 223.5,-177 217.5,-177"/>
<text text-anchor="middle" x="192" y="-155.9" font-family="Helvetica,sans-Serif" font-size="12.00" fill="#1a365d">Identifier</text>
</g>
<!-- https://w3id.org/sdata/core#Identifier&#45;&gt;http://purl.obolibrary.org/obo/BFO_0000031 -->
<g id="edge3" class="edge">
<title>https://w3id.org/sdata/core#Identifier&#45;&gt;http://purl.obolibrary.org/obo/BFO_0000031</title>
<path fill="none" stroke="#4a5568" stroke-width="1.6" d="M197.23,-140.87C204.12,-118.32 216.28,-78.47 224.24,-52.4"/>
<polygon fill="#4a5568" stroke="#4a5568" stroke-width="1.6" points="227.13,-53.13 226.77,-44.13 221.44,-51.39 227.13,-53.13"/>
</g>
<!-- https://w3id.org/sdata/core#Material -->
<g id="node11" class="node">
<title>https://w3id.org/sdata/core#Material</title>
<path fill="#e8f1ff" stroke="#2b6cb0" stroke-width="1.6" d="M326.5,-177C326.5,-177 281.5,-177 281.5,-177 275.5,-177 269.5,-171 269.5,-165 269.5,-165 269.5,-153 269.5,-153 269.5,-147 275.5,-141 281.5,-141 281.5,-141 326.5,-141 326.5,-141 332.5,-141 338.5,-147 338.5,-153 338.5,-153 338.5,-165 338.5,-165 338.5,-171 332.5,-177 326.5,-177"/>
<text text-anchor="middle" x="304" y="-155.9" font-family="Helvetica,sans-Serif" font-size="12.00" fill="#1a365d">Material</text>
</g>
<!-- https://w3id.org/sdata/core#Material&#45;&gt;http://purl.obolibrary.org/obo/BFO_0000040 -->
<g id="edge4" class="edge">
<title>https://w3id.org/sdata/core#Material&#45;&gt;http://purl.obolibrary.org/obo/BFO_0000040</title>
<path fill="none" stroke="#4a5568" stroke-width="1.6" d="M321.39,-140.87C344.89,-117.73 386.87,-76.38 413.26,-50.39"/>
<polygon fill="#4a5568" stroke="#4a5568" stroke-width="1.6" points="415.64,-52.22 419.61,-44.13 411.47,-47.98 415.64,-52.22"/>
</g>
<!-- https://w3id.org/sdata/core#PhysicalArtifact -->
<g id="node12" class="node">
<title>https://w3id.org/sdata/core#PhysicalArtifact</title>
<path fill="#e8f1ff" stroke="#2b6cb0" stroke-width="1.6" d="M483.5,-177C483.5,-177 390.5,-177 390.5,-177 384.5,-177 378.5,-171 378.5,-165 378.5,-165 378.5,-153 378.5,-153 378.5,-147 384.5,-141 390.5,-141 390.5,-141 483.5,-141 483.5,-141 489.5,-141 495.5,-147 495.5,-153 495.5,-153 495.5,-165 495.5,-165 495.5,-171 489.5,-177 483.5,-177"/>
<text text-anchor="middle" x="437" y="-155.9" font-family="Helvetica,sans-Serif" font-size="12.00" fill="#1a365d">Physical Artifact</text>
</g>
<!-- https://w3id.org/sdata/core#PhysicalArtifact&#45;&gt;http://purl.obolibrary.org/obo/BFO_0000040 -->
<g id="edge5" class="edge">
<title>https://w3id.org/sdata/core#PhysicalArtifact&#45;&gt;http://purl.obolibrary.org/obo/BFO_0000040</title>
<path fill="none" stroke="#4a5568" stroke-width="1.6" d="M437,-140.87C437,-118.42 437,-78.81 437,-52.74"/>
<polygon fill="#4a5568" stroke="#4a5568" stroke-width="1.6" points="439.98,-52.63 437,-44.13 434.03,-52.63 439.98,-52.63"/>
</g>
<!-- https://w3id.org/sdata/core#Process -->
<g id="node13" class="node">
<title>https://w3id.org/sdata/core#Process</title>
<path fill="#e8f1ff" stroke="#2b6cb0" stroke-width="1.6" d="M590,-177C590,-177 548,-177 548,-177 542,-177 536,-171 536,-165 536,-165 536,-153 536,-153 536,-147 542,-141 548,-141 548,-141 590,-141 590,-141 596,-141 602,-147 602,-153 602,-153 602,-165 602,-165 602,-171 596,-177 590,-177"/>
<text text-anchor="middle" x="569" y="-155.9" font-family="Helvetica,sans-Serif" font-size="12.00" fill="#1a365d">Process</text>
</g>
<!-- https://w3id.org/sdata/core#Process&#45;&gt;http://purl.obolibrary.org/obo/BFO_0000015 -->
<g id="edge6" class="edge">
<title>https://w3id.org/sdata/core#Process&#45;&gt;http://purl.obolibrary.org/obo/BFO_0000015</title>
<path fill="none" stroke="#4a5568" stroke-width="1.6" d="M568.35,-140.87C567.49,-118.42 565.98,-78.81 564.98,-52.74"/>
<polygon fill="#4a5568" stroke="#4a5568" stroke-width="1.6" points="567.95,-52.51 564.65,-44.13 562,-52.74 567.95,-52.51"/>
</g>
<!-- https://w3id.org/sdata/core#Role -->
<g id="node14" class="node">
<title>https://w3id.org/sdata/core#Role</title>
<path fill="#e8f1ff" stroke="#2b6cb0" stroke-width="1.6" d="M684,-177C684,-177 654,-177 654,-177 648,-177 642,-171 642,-165 642,-165 642,-153 642,-153 642,-147 648,-141 654,-141 654,-141 684,-141 684,-141 690,-141 696,-147 696,-153 696,-153 696,-165 696,-165 696,-171 690,-177 684,-177"/>
<text text-anchor="middle" x="669" y="-155.9" font-family="Helvetica,sans-Serif" font-size="12.00" fill="#1a365d">Role</text>
</g>
<!-- https://w3id.org/sdata/core#Role&#45;&gt;http://purl.obolibrary.org/obo/BFO_0000023 -->
<g id="edge7" class="edge">
<title>https://w3id.org/sdata/core#Role&#45;&gt;http://purl.obolibrary.org/obo/BFO_0000023</title>
<path fill="none" stroke="#4a5568" stroke-width="1.6" d="M668.35,-140.87C667.49,-118.42 665.98,-78.81 664.98,-52.74"/>
<polygon fill="#4a5568" stroke="#4a5568" stroke-width="1.6" points="667.95,-52.51 664.65,-44.13 662,-52.74 667.95,-52.51"/>
</g>
<!-- https://w3id.org/sdata/core#Site -->
<g id="node15" class="node">
<title>https://w3id.org/sdata/core#Site</title>
<path fill="#e8f1ff" stroke="#2b6cb0" stroke-width="1.6" d="M778,-177C778,-177 748,-177 748,-177 742,-177 736,-171 736,-165 736,-165 736,-153 736,-153 736,-147 742,-141 748,-141 748,-141 778,-141 778,-141 784,-141 790,-147 790,-153 790,-153 790,-165 790,-165 790,-171 784,-177 778,-177"/>
<text text-anchor="middle" x="763" y="-155.9" font-family="Helvetica,sans-Serif" font-size="12.00" fill="#1a365d">Site</text>
</g>
<!-- https://w3id.org/sdata/core#Site&#45;&gt;http://purl.obolibrary.org/obo/BFO_0000029 -->
<g id="edge8" class="edge">
<title>https://w3id.org/sdata/core#Site&#45;&gt;http://purl.obolibrary.org/obo/BFO_0000029</title>
<path fill="none" stroke="#4a5568" stroke-width="1.6" d="M762.35,-140.87C761.49,-118.42 759.98,-78.81 758.98,-52.74"/>
<polygon fill="#4a5568" stroke="#4a5568" stroke-width="1.6" points="761.95,-52.51 758.65,-44.13 756,-52.74 761.95,-52.51"/>
</g>
</g>
</svg>
