<?xml version="1.0" encoding="UTF-8" standalone="no"?>
<!DOCTYPE svg PUBLIC "-//W3C//DTD SVG 1.1//EN"
 "http://www.w3.org/Graphics/SVG/1.1/DTD/svg11.dtd">
<!-- Generated by graphviz version 2.43.0 (0)
 -->
<!-- Pages: 1 -->
<svg width="2649pt" height="664pt"
 viewBox="0.00 0.00 2649.40 664.40" xmlns="http://www.w3.org/2000/svg" xmlns:xlink="http://www.w3.org/1999/xlink">
<g id="graph0" class="graph" transform="scale(1 1) rotate(0) translate(25.2 639.2)">
<polygon fill="#fafbfc" stroke="transparent" points="-25.2,25.2 -25.2,-639.2 2624.2,-639.2 2624.2,25.2 -25.2,25.2"/>
<text text-anchor="middle" x="1299.5" y="-594" font-family="Helvetica,sans-Serif" font-size="20.00">sdata Combined Hierarchy (autark core + processtypes + agents)</text>
<g id="clust1" class="cluster">
<title>cluster_core</title>
<path fill="#fafbfc" stroke="#90b5e8" d="M20,-367C20,-367 1708,-367 1708,-367 1714,-367 1720,-373 1720,-379 1720,-379 1720,-564 1720,-564 1720,-570 1714,-576 1708,-576 1708,-576 20,-576 20,-576 14,-576 8,-570 8,-564 8,-564 8,-379 8,-379 8,-373 14,-367 20,-367"/>
<text text-anchor="middle" x="864" y="-556" font-family="Helvetica,sans-Serif" font-size="20.00">sdata&#45;core classes</text>
</g>
<g id="clust2" class="cluster">
<title>cluster_combined_dual_rank_MaterialArtifact</title>
</g>
<g id="clust3" class="cluster">
<title>cluster_combined_dual_rank_Material</title>
</g>
<g id="clust4" class="cluster">
<title>cluster_combined_dual_rank_MaterialAgent</title>
</g>
<g id="clust5" class="cluster">
<title>cluster_combined_dual_rank_MaterialProcess</title>
</g>
<g id="clust6" class="cluster">
<title>cluster_combined_dual_rank_MaterialSite</title>
</g>
<g id="clust7" class="cluster">
<title>cluster_proc</title>
<path fill="#fafbfc" stroke="#b6d7a8" d="M1740,-494C1740,-494 2579,-494 2579,-494 2585,-494 2591,-500 2591,-506 2591,-506 2591,-564 2591,-564 2591,-570 2585,-576 2579,-576 2579,-576 1740,-576 1740,-576 1734,-576 1728,-570 1728,-564 1728,-564 1728,-506 1728,-506 1728,-500 1734,-494 1740,-494"/>
<text text-anchor="middle" x="2159.5" y="-556" font-family="Helvetica,sans-Serif" font-size="20.00">sdata&#45;processtypes verb classes</text>
</g>
<g id="clust8" class="cluster">
<title>cluster_agents</title>
<path fill="#fafbfc" stroke="#9ad9bf" d="M607,-8C607,-8 1222,-8 1222,-8 1228,-8 1234,-14 1234,-20 1234,-20 1234,-316 1234,-316 1234,-322 1228,-328 1222,-328 1222,-328 607,-328 607,-328 601,-328 595,-322 595,-316 595,-316 595,-20 595,-20 595,-14 601,-8 607,-8"/>
<text text-anchor="middle" x="914.5" y="-308" font-family="Helvetica,sans-Serif" font-size="20.00">sdata&#45;agents vocabulary</text>
</g>
<!-- https://w3id.org/sdata/core/InformationArtifact -->
<g id="node1" class="node">
<title>https://w3id.org/sdata/core/InformationArtifact</title>
<path fill="#e8f1ff" stroke="#2b6cb0" stroke-width="1.6" d="M347,-419C347,-419 233,-419 233,-419 227,-419 221,-413 221,-407 221,-407 221,-395 221,-395 221,-389 227,-383 233,-383 233,-383 347,-383 347,-383 353,-383 359,-389 359,-395 359,-395 359,-407 359,-407 359,-413 353,-419 347,-419"/>
<text text-anchor="middle" x="290" y="-397.9" font-family="Helvetica,sans-Serif" font-size="12.00" fill="#1a365d">Information Artifact</text>
</g>
<!-- https://w3id.org/sdata/core/MaterialArtifact -->
<g id="node2" class="node">
<title>https://w3id.org/sdata/core/MaterialArtifact</title>
<path fill="#e8f1ff" stroke="#2b6cb0" stroke-width="1.6" d="M129.5,-419C129.5,-419 36.5,-419 36.5,-419 30.5,-419 24.5,-413 24.5,-407 24.5,-407 24.5,-395 24.5,-395 24.5,-389 30.5,-383 36.5,-383 36.5,-383 129.5,-383 129.5,-383 135.5,-383 141.5,-389 141.5,-395 141.5,-395 141.5,-407 141.5,-407 141.5,-413 135.5,-419 129.5,-419"/>
<text text-anchor="middle" x="83" y="-397.9" font-family="Helvetica,sans-Serif" font-size="12.00" fill="#1a365d">Material Artifact</text>
</g>
<!-- https://w3id.org/sdata/core/MaterialArtifact&#45;&gt;https://w3id.org/sdata/core/InformationArtifact -->
<g id="edge20" class="edge">
<title>https://w3id.org/sdata/core/MaterialArtifact&#45;&gt;https://w3id.org/sdata/core/InformationArtifact</title>
<path fill="none" stroke="#6b7280" stroke-width="1.5" stroke-dasharray="5,2" d="M141.76,-401C166.39,-401 195.19,-401 220.83,-401"/>
<text text-anchor="middle" x="181.25" y="-407" font-family="Helvetica,sans-Serif" font-size="10.00" fill="#6b7280">dual</text>
</g>
<!-- https://w3id.org/sdata/core/Information -->
<g id="node3" class="node">
<title>https://w3id.org/sdata/core/Information</title>
<path fill="#e8f1ff" stroke="#2b6cb0" stroke-width="1.6" d="M1359,-419C1359,-419 1293,-419 1293,-419 1287,-419 1281,-413 1281,-407 1281,-407 1281,-395 1281,-395 1281,-389 1287,-383 1293,-383 1293,-383 1359,-383 1359,-383 1365,-383 1371,-389 1371,-395 1371,-395 1371,-407 1371,-407 1371,-413 1365,-419 1359,-419"/>
<text text-anchor="middle" x="1326" y="-397.9" font-family="Helvetica,sans-Serif" font-size="12.00" fill="#1a365d">Information</text>
</g>
<!-- https://w3id.org/sdata/core/Material -->
<g id="node4" class="node">
<title>https://w3id.org/sdata/core/Material</title>
<path fill="#e8f1ff" stroke="#2b6cb0" stroke-width="1.6" d="M1189.5,-419C1189.5,-419 1144.5,-419 1144.5,-419 1138.5,-419 1132.5,-413 1132.5,-407 1132.5,-407 1132.5,-395 1132.5,-395 1132.5,-389 1138.5,-383 1144.5,-383 1144.5,-383 1189.5,-383 1189.5,-383 1195.5,-383 1201.5,-389 1201.5,-395 1201.5,-395 1201.5,-407 1201.5,-407 1201.5,-413 1195.5,-419 1189.5,-419"/>
<text text-anchor="middle" x="1167" y="-397.9" font-family="Helvetica,sans-Serif" font-size="12.00" fill="#1a365d">Material</text>
</g>
<!-- https://w3id.org/sdata/core/Material&#45;&gt;https://w3id.org/sdata/core/Information -->
<g id="edge17" class="edge">
<title>https://w3id.org/sdata/core/Material&#45;&gt;https://w3id.org/sdata/core/Information</title>
<path fill="none" stroke="#6b7280" stroke-width="1.5" stroke-dasharray="5,2" d="M1201.5,-401C1224.79,-401 1255.76,-401 1280.99,-401"/>
<text text-anchor="middle" x="1241.25" y="-407" font-family="Helvetica,sans-Serif" font-size="10.00" fill="#6b7280">dual</text>
</g>
<!-- https://w3id.org/sdata/core/InformationAgent -->
<g id="node5" class="node">
<title>https://w3id.org/sdata/core/InformationAgent</title>
<path fill="#e8f1ff" stroke="#2b6cb0" stroke-width="1.6" d="M1080.5,-419C1080.5,-419 975.5,-419 975.5,-419 969.5,-419 963.5,-413 963.5,-407 963.5,-407 963.5,-395 963.5,-395 963.5,-389 969.5,-383 975.5,-383 975.5,-383 1080.5,-383 1080.5,-383 1086.5,-383 1092.5,-389 1092.5,-395 1092.5,-395 1092.5,-407 1092.5,-407 1092.5,-413 1086.5,-419 1080.5,-419"/>
<text text-anchor="middle" x="1028" y="-397.9" font-family="Helvetica,sans-Serif" font-size="12.00" fill="#1a365d">Information Agent</text>
</g>
<!-- https://w3id.org/sdata/vocab/agents/AgentTypeScheme -->
<g id="node37" class="node">
<title>https://w3id.org/sdata/vocab/agents/AgentTypeScheme</title>
<path fill="#e7fff6" stroke="#2f855a" stroke-width="1.6" d="M965,-290C965,-290 897,-290 897,-290 891,-290 885,-284 885,-278 885,-278 885,-266 885,-266 885,-260 891,-254 897,-254 897,-254 965,-254 965,-254 971,-254 977,-260 977,-266 977,-266 977,-278 977,-278 977,-284 971,-290 965,-290"/>
<text text-anchor="middle" x="931" y="-268.9" font-family="Helvetica,sans-Serif" font-size="12.00" fill="#1c4532">Agent types</text>
</g>
<!-- https://w3id.org/sdata/core/InformationAgent&#45;&gt;https://w3id.org/sdata/vocab/agents/AgentTypeScheme -->
<g id="edge11" class="edge">
<title>https://w3id.org/sdata/core/InformationAgent&#45;&gt;https://w3id.org/sdata/vocab/agents/AgentTypeScheme</title>
<path fill="none" stroke="#2f855a" stroke-width="1.5" stroke-dasharray="5,2" d="M1014.92,-382.87C997.92,-360.62 968.17,-321.67 949.04,-296.62"/>
<polygon fill="#2f855a" stroke="#2f855a" stroke-width="1.5" points="951.27,-294.92 944.18,-290.26 946.82,-298.32 951.27,-294.92"/>
<text text-anchor="middle" x="1050" y="-339" font-family="Helvetica,sans-Serif" font-size="10.00">typed via sdata:agentType</text>
</g>
<!-- https://w3id.org/sdata/core/MaterialAgent -->
<g id="node6" class="node">
<title>https://w3id.org/sdata/core/MaterialAgent</title>
<path fill="#e8f1ff" stroke="#2b6cb0" stroke-width="1.6" d="M872,-419C872,-419 788,-419 788,-419 782,-419 776,-413 776,-407 776,-407 776,-395 776,-395 776,-389 782,-383 788,-383 788,-383 872,-383 872,-383 878,-383 884,-389 884,-395 884,-395 884,-407 884,-407 884,-413 878,-419 872,-419"/>
<text text-anchor="middle" x="830" y="-397.9" font-family="Helvetica,sans-Serif" font-size="12.00" fill="#1a365d">Material Agent</text>
</g>
<!-- https://w3id.org/sdata/core/MaterialAgent&#45;&gt;https://w3id.org/sdata/core/InformationAgent -->
<g id="edge19" class="edge">
<title>https://w3id.org/sdata/core/MaterialAgent&#45;&gt;https://w3id.org/sdata/core/InformationAgent</title>
<path fill="none" stroke="#6b7280" stroke-width="1.5" stroke-dasharray="5,2" d="M884.1,-401C908.61,-401 937.77,-401 963.41,-401"/>
<text text-anchor="middle" x="923.75" y="-407" font-family="Helvetica,sans-Serif" font-size="10.00" fill="#6b7280">dual</text>
</g>
<!-- https://w3id.org/sdata/core/MaterialAgent&#45;&gt;https://w3id.org/sdata/vocab/agents/AgentTypeScheme -->
<g id="edge18" class="edge">
<title>https://w3id.org/sdata/core/MaterialAgent&#45;&gt;https://w3id.org/sdata/vocab/agents/AgentTypeScheme</title>
<path fill="none" stroke="#2f855a" stroke-width="1.5" stroke-dasharray="5,2" d="M828.78,-382.97C828.61,-369.3 830.25,-350.11 839,-336 849.89,-318.44 867.69,-304.57 884.75,-294.36"/>
<polygon fill="#2f855a" stroke="#2f855a" stroke-width="1.5" points="886.45,-296.62 892,-290.22 883.66,-291.76 886.45,-296.62"/>
<text text-anchor="middle" x="904" y="-339" font-family="Helvetica,sans-Serif" font-size="10.00">typed via sdata:agentType</text>
</g>
<!-- https://w3id.org/sdata/core/InformationProcess -->
<g id="node7" class="node">
<title>https://w3id.org/sdata/core/InformationProcess</title>
<path fill="#e8f1ff" stroke="#2b6cb0" stroke-width="1.6" d="M723.5,-419C723.5,-419 608.5,-419 608.5,-419 602.5,-419 596.5,-413 596.5,-407 596.5,-407 596.5,-395 596.5,-395 596.5,-389 602.5,-383 608.5,-383 608.5,-383 723.5,-383 723.5,-383 729.5,-383 735.5,-389 735.5,-395 735.5,-395 735.5,-407 735.5,-407 735.5,-413 729.5,-419 723.5,-419"/>
<text text-anchor="middle" x="666" y="-397.9" font-family="Helvetica,sans-Serif" font-size="12.00" fill="#1a365d">Information Process</text>
</g>
<!-- https://w3id.org/sdata/core/MaterialProcess -->
<g id="node8" class="node">
<title>https://w3id.org/sdata/core/MaterialProcess</title>
<path fill="#e8f1ff" stroke="#2b6cb0" stroke-width="1.6" d="M505,-419C505,-419 411,-419 411,-419 405,-419 399,-413 399,-407 399,-407 399,-395 399,-395 399,-389 405,-383 411,-383 411,-383 505,-383 505,-383 511,-383 517,-389 517,-395 517,-395 517,-407 517,-407 517,-413 511,-419 505,-419"/>
<text text-anchor="middle" x="458" y="-397.9" font-family="Helvetica,sans-Serif" font-size="12.00" fill="#1a365d">Material Process</text>
</g>
<!-- https://w3id.org/sdata/core/MaterialProcess&#45;&gt;https://w3id.org/sdata/core/InformationProcess -->
<g id="edge21" class="edge">
<title>https://w3id.org/sdata/core/MaterialProcess&#45;&gt;https://w3id.org/sdata/core/InformationProcess</title>
<path fill="none" stroke="#6b7280" stroke-width="1.5" stroke-dasharray="5,2" d="M517.05,-401C541.79,-401 570.73,-401 596.5,-401"/>
<text text-anchor="middle" x="556.75" y="-407" font-family="Helvetica,sans-Serif" font-size="10.00" fill="#6b7280">dual</text>
</g>
<!-- https://w3id.org/sdata/core/InformationSite -->
<g id="node9" class="node">
<title>https://w3id.org/sdata/core/InformationSite</title>
<path fill="#e8f1ff" stroke="#2b6cb0" stroke-width="1.6" d="M1691.5,-419C1691.5,-419 1598.5,-419 1598.5,-419 1592.5,-419 1586.5,-413 1586.5,-407 1586.5,-407 1586.5,-395 1586.5,-395 1586.5,-389 1592.5,-383 1598.5,-383 1598.5,-383 1691.5,-383 1691.5,-383 1697.5,-383 1703.5,-389 1703.5,-395 1703.5,-395 1703.5,-407 1703.5,-407 1703.5,-413 1697.5,-419 1691.5,-419"/>
<text text-anchor="middle" x="1645" y="-397.9" font-family="Helvetica,sans-Serif" font-size="12.00" fill="#1a365d">Information Site</text>
</g>
<!-- https://w3id.org/sdata/core/MaterialSite -->
<g id="node10" class="node">
<title>https://w3id.org/sdata/core/MaterialSite</title>
<path fill="#e8f1ff" stroke="#2b6cb0" stroke-width="1.6" d="M1495,-419C1495,-419 1423,-419 1423,-419 1417,-419 1411,-413 1411,-407 1411,-407 1411,-395 1411,-395 1411,-389 1417,-383 1423,-383 1423,-383 1495,-383 1495,-383 1501,-383 1507,-389 1507,-395 1507,-395 1507,-407 1507,-407 1507,-413 1501,-419 1495,-419"/>
<text text-anchor="middle" x="1459" y="-397.9" font-family="Helvetica,sans-Serif" font-size="12.00" fill="#1a365d">Material Site</text>
</g>
<!-- https://w3id.org/sdata/core/MaterialSite&#45;&gt;https://w3id.org/sdata/core/InformationSite -->
<g id="edge22" class="edge">
<title>https://w3id.org/sdata/core/MaterialSite&#45;&gt;https://w3id.org/sdata/core/InformationSite</title>
<path fill="none" stroke="#6b7280" stroke-width="1.5" stroke-dasharray="5,2" d="M1507.38,-401C1531.49,-401 1560.85,-401 1586.24,-401"/>
<text text-anchor="middle" x="1546.75" y="-407" font-family="Helvetica,sans-Serif" font-size="10.00" fill="#6b7280">dual</text>
</g>
<!-- https://w3id.org/sdata/core/Agent -->
<g id="node11" class="node">
<title>https://w3id.org/sdata/core/Agent</title>
<path fill="#e8f1ff" stroke="#2b6cb0" stroke-width="1.6" d="M1661,-538C1661,-538 1629,-538 1629,-538 1623,-538 1617,-532 1617,-526 1617,-526 1617,-514 1617,-514 1617,-508 1623,-502 1629,-502 1629,-502 1661,-502 1661,-502 1667,-502 1673,-508 1673,-514 1673,-514 1673,-526 1673,-526 1673,-532 1667,-538 1661,-538"/>
<text text-anchor="middle" x="1645" y="-516.9" font-family="Helvetica,sans-Serif" font-size="12.00" fill="#1a365d">Agent</text>
</g>
<!-- https://w3id.org/sdata/core/Artifact -->
<g id="node12" class="node">
<title>https://w3id.org/sdata/core/Artifact</title>
<path fill="#e8f1ff" stroke="#2b6cb0" stroke-width="1.6" d="M1526.5,-538C1526.5,-538 1485.5,-538 1485.5,-538 1479.5,-538 1473.5,-532 1473.5,-526 1473.5,-526 1473.5,-514 1473.5,-514 1473.5,-508 1479.5,-502 1485.5,-502 1485.5,-502 1526.5,-502 1526.5,-502 1532.5,-502 1538.5,-508 1538.5,-514 1538.5,-514 1538.5,-526 1538.5,-526 1538.5,-532 1532.5,-538 1526.5,-538"/>
<text text-anchor="middle" x="1506" y="-516.9" font-family="Helvetica,sans-Serif" font-size="12.00" fill="#1a365d">Artifact</text>
</g>
<!-- https://w3id.org/sdata/core/Identifier -->
<g id="node13" class="node">
<title>https://w3id.org/sdata/core/Identifier</title>
<path fill="#e8f1ff" stroke="#2b6cb0" stroke-width="1.6" d="M1345.5,-538C1345.5,-538 1294.5,-538 1294.5,-538 1288.5,-538 1282.5,-532 1282.5,-526 1282.5,-526 1282.5,-514 1282.5,-514 1282.5,-508 1288.5,-502 1294.5,-502 1294.5,-502 1345.5,-502 1345.5,-502 1351.5,-502 1357.5,-508 1357.5,-514 1357.5,-514 1357.5,-526 1357.5,-526 1357.5,-532 1351.5,-538 1345.5,-538"/>
<text text-anchor="middle" x="1320" y="-516.9" font-family="Helvetica,sans-Serif" font-size="12.00" fill="#1a365d">Identifier</text>
</g>
<!-- https://w3id.org/sdata/core/Intangible -->
<g id="node14" class="node">
<title>https://w3id.org/sdata/core/Intangible</title>
<path fill="#e8f1ff" stroke="#2b6cb0" stroke-width="1.6" d="M1079,-538C1079,-538 1023,-538 1023,-538 1017,-538 1011,-532 1011,-526 1011,-526 1011,-514 1011,-514 1011,-508 1017,-502 1023,-502 1023,-502 1079,-502 1079,-502 1085,-502 1091,-508 1091,-514 1091,-514 1091,-526 1091,-526 1091,-532 1085,-538 1079,-538"/>
<text text-anchor="middle" x="1051" y="-516.9" font-family="Helvetica,sans-Serif" font-size="12.00" fill="#1a365d">Intangible</text>
</g>
<!-- https://w3id.org/sdata/core/Intangible&#45;&gt;https://w3id.org/sdata/core/InformationArtifact -->
<g id="edge14" class="edge">
<title>https://w3id.org/sdata/core/Intangible&#45;&gt;https://w3id.org/sdata/core/InformationArtifact</title>
<path fill="none" stroke="#4a5568" stroke-width="1.5" d="M1015.48,-501.92C1007.58,-498.77 999.14,-495.88 991,-494 726.4,-432.69 640.31,-537.81 381,-457 358.13,-449.87 335.06,-435.84 317.87,-423.73"/>
<polygon fill="#4a5568" stroke="#4a5568" stroke-width="1.5" points="319.48,-421.44 311.35,-419.03 316.21,-425.98 319.48,-421.44"/>
</g>
<!-- https://w3id.org/sdata/core/Intangible&#45;&gt;https://w3id.org/sdata/core/Information -->
<g id="edge12" class="edge">
<title>https://w3id.org/sdata/core/Intangible&#45;&gt;https://w3id.org/sdata/core/Information</title>
<path fill="none" stroke="#4a5568" stroke-width="1.5" d="M1091.01,-506.25C1126.06,-494.66 1178.12,-476.45 1222,-457 1244.95,-446.83 1269.84,-433.75 1289.51,-422.89"/>
<polygon fill="#4a5568" stroke="#4a5568" stroke-width="1.5" points="1290.87,-425.34 1296.51,-419.01 1288.15,-420.44 1290.87,-425.34"/>
</g>
<!-- https://w3id.org/sdata/core/Intangible&#45;&gt;https://w3id.org/sdata/core/InformationAgent -->
<g id="edge13" class="edge">
<title>https://w3id.org/sdata/core/Intangible&#45;&gt;https://w3id.org/sdata/core/InformationAgent</title>
<path fill="none" stroke="#4a5568" stroke-width="1.5" d="M1047.66,-501.99C1043.79,-482.32 1037.39,-449.76 1032.95,-427.16"/>
<polygon fill="#4a5568" stroke="#4a5568" stroke-width="1.5" points="1035.64,-426.34 1031.35,-419.03 1030.14,-427.42 1035.64,-426.34"/>
</g>
<!-- https://w3id.org/sdata/core/Intangible&#45;&gt;https://w3id.org/sdata/core/InformationProcess -->
<g id="edge15" class="edge">
<title>https://w3id.org/sdata/core/Intangible&#45;&gt;https://w3id.org/sdata/core/InformationProcess</title>
<path fill="none" stroke="#4a5568" stroke-width="1.5" d="M1014.04,-502C1006.53,-499 998.6,-496.15 991,-494 890.12,-465.41 856.56,-492.77 758,-457 735.76,-448.93 712.92,-435.31 695.56,-423.65"/>
<polygon fill="#4a5568" stroke="#4a5568" stroke-width="1.5" points="697.14,-421.33 688.96,-419.12 693.98,-425.95 697.14,-421.33"/>
</g>
<!-- https://w3id.org/sdata/core/Intangible&#45;&gt;https://w3id.org/sdata/core/InformationSite -->
<g id="edge16" class="edge">
<title>https://w3id.org/sdata/core/Intangible&#45;&gt;https://w3id.org/sdata/core/InformationSite</title>
<path fill="none" stroke="#4a5568" stroke-width="1.5" d="M1091.13,-514.11C1202.06,-500.56 1506.09,-463.08 1527,-457 1555.2,-448.8 1585.17,-434.76 1607.86,-422.91"/>
<polygon fill="#4a5568" stroke="#4a5568" stroke-width="1.5" points="1609.19,-425.37 1614.95,-419.15 1606.57,-420.42 1609.19,-425.37"/>
</g>
<!-- https://w3id.org/sdata/core/Process -->
<g id="node15" class="node">
<title>https://w3id.org/sdata/core/Process</title>
<path fill="#e8f1ff" stroke="#2b6cb0" stroke-width="1.6" d="M959,-538C959,-538 917,-538 917,-538 911,-538 905,-532 905,-526 905,-526 905,-514 905,-514 905,-508 911,-502 917,-502 917,-502 959,-502 959,-502 965,-502 971,-508 971,-514 971,-514 971,-526 971,-526 971,-532 965,-538 959,-538"/>
<text text-anchor="middle" x="938" y="-516.9" font-family="Helvetica,sans-Serif" font-size="12.00" fill="#1a365d">Process</text>
</g>
<!-- https://w3id.org/sdata/core/Role -->
<g id="node16" class="node">
<title>https://w3id.org/sdata/core/Role</title>
<path fill="#e8f1ff" stroke="#2b6cb0" stroke-width="1.6" d="M853,-538C853,-538 823,-538 823,-538 817,-538 811,-532 811,-526 811,-526 811,-514 811,-514 811,-508 817,-502 823,-502 823,-502 853,-502 853,-502 859,-502 865,-508 865,-514 865,-514 865,-526 865,-526 865,-532 859,-538 853,-538"/>
<text text-anchor="middle" x="838" y="-516.9" font-family="Helvetica,sans-Serif" font-size="12.00" fill="#1a365d">Role</text>
</g>
<!-- https://w3id.org/sdata/core/Site -->
<g id="node17" class="node">
<title>https://w3id.org/sdata/core/Site</title>
<path fill="#e8f1ff" stroke="#2b6cb0" stroke-width="1.6" d="M759,-538C759,-538 729,-538 729,-538 723,-538 717,-532 717,-526 717,-526 717,-514 717,-514 717,-508 723,-502 729,-502 729,-502 759,-502 759,-502 765,-502 771,-508 771,-514 771,-514 771,-526 771,-526 771,-532 765,-538 759,-538"/>
<text text-anchor="middle" x="744" y="-516.9" font-family="Helvetica,sans-Serif" font-size="12.00" fill="#1a365d">Site</text>
</g>
<!-- https://w3id.org/sdata/core/Substance -->
<g id="node18" class="node">
<title>https://w3id.org/sdata/core/Substance</title>
<path fill="#e8f1ff" stroke="#2b6cb0" stroke-width="1.6" d="M664.5,-538C664.5,-538 605.5,-538 605.5,-538 599.5,-538 593.5,-532 593.5,-526 593.5,-526 593.5,-514 593.5,-514 593.5,-508 599.5,-502 605.5,-502 605.5,-502 664.5,-502 664.5,-502 670.5,-502 676.5,-508 676.5,-514 676.5,-514 676.5,-526 676.5,-526 676.5,-532 670.5,-538 664.5,-538"/>
<text text-anchor="middle" x="635" y="-516.9" font-family="Helvetica,sans-Serif" font-size="12.00" fill="#1a365d">Substance</text>
</g>
<!-- https://w3id.org/sdata/core/Tangible -->
<g id="node19" class="node">
<title>https://w3id.org/sdata/core/Tangible</title>
<path fill="#e8f1ff" stroke="#2b6cb0" stroke-width="1.6" d="M541.5,-538C541.5,-538 496.5,-538 496.5,-538 490.5,-538 484.5,-532 484.5,-526 484.5,-526 484.5,-514 484.5,-514 484.5,-508 490.5,-502 496.5,-502 496.5,-502 541.5,-502 541.5,-502 547.5,-502 553.5,-508 553.5,-514 553.5,-514 553.5,-526 553.5,-526 553.5,-532 547.5,-538 541.5,-538"/>
<text text-anchor="middle" x="519" y="-516.9" font-family="Helvetica,sans-Serif" font-size="12.00" fill="#1a365d">Tangible</text>
</g>
<!-- https://w3id.org/sdata/core/Tangible&#45;&gt;https://w3id.org/sdata/core/MaterialArtifact -->
<g id="edge25" class="edge">
<title>https://w3id.org/sdata/core/Tangible&#45;&gt;https://w3id.org/sdata/core/MaterialArtifact</title>
<path fill="none" stroke="#4a5568" stroke-width="1.5" d="M484.42,-515.06C425.26,-507.71 301.3,-489.61 201,-457 173.58,-448.08 144.18,-434.4 121.59,-422.9"/>
<polygon fill="#4a5568" stroke="#4a5568" stroke-width="1.5" points="122.6,-420.27 114.2,-419.1 120.03,-425.25 122.6,-420.27"/>
</g>
<!-- https://w3id.org/sdata/core/Tangible&#45;&gt;https://w3id.org/sdata/core/Material -->
<g id="edge23" class="edge">
<title>https://w3id.org/sdata/core/Tangible&#45;&gt;https://w3id.org/sdata/core/Material</title>
<path fill="none" stroke="#4a5568" stroke-width="1.5" d="M540.58,-501.97C558.34,-489.06 584.79,-472.35 611,-465 637.75,-457.5 1085.37,-467.72 1111,-457 1126.59,-450.48 1140.22,-437.36 1150.13,-425.58"/>
<polygon fill="#4a5568" stroke="#4a5568" stroke-width="1.5" points="1152.41,-427.21 1155.24,-419.22 1148.05,-423.7 1152.41,-427.21"/>
</g>
<!-- https://w3id.org/sdata/core/Tangible&#45;&gt;https://w3id.org/sdata/core/MaterialAgent -->
<g id="edge24" class="edge">
<title>https://w3id.org/sdata/core/Tangible&#45;&gt;https://w3id.org/sdata/core/MaterialAgent</title>
<path fill="none" stroke="#4a5568" stroke-width="1.5" d="M534.74,-501.95C547.67,-489.22 567.18,-472.74 588,-465 622.61,-452.12 719.15,-469.22 754,-457 773.59,-450.13 792.52,-436.46 806.58,-424.47"/>
<polygon fill="#4a5568" stroke="#4a5568" stroke-width="1.5" points="808.52,-426.5 812.69,-419.11 804.83,-422.29 808.52,-426.5"/>
</g>
<!-- https://w3id.org/sdata/core/Tangible&#45;&gt;https://w3id.org/sdata/core/MaterialProcess -->
<g id="edge26" class="edge">
<title>https://w3id.org/sdata/core/Tangible&#45;&gt;https://w3id.org/sdata/core/MaterialProcess</title>
<path fill="none" stroke="#4a5568" stroke-width="1.5" d="M510.13,-501.99C499.74,-482.06 482.45,-448.89 470.65,-426.27"/>
<polygon fill="#4a5568" stroke="#4a5568" stroke-width="1.5" points="473.06,-424.83 466.88,-419.03 468.1,-427.42 473.06,-424.83"/>
</g>
<!-- https://w3id.org/sdata/core/Tangible&#45;&gt;https://w3id.org/sdata/core/MaterialSite -->
<g id="edge27" class="edge">
<title>https://w3id.org/sdata/core/Tangible&#45;&gt;https://w3id.org/sdata/core/MaterialSite</title>
<path fill="none" stroke="#4a5568" stroke-width="1.5" d="M551.13,-501.94C558.46,-498.75 566.35,-495.84 574,-494 750.27,-451.61 1219.05,-520.13 1389,-457 1407.3,-450.2 1424.59,-436.72 1437.4,-424.81"/>
<polygon fill="#4a5568" stroke="#4a5568" stroke-width="1.5" points="1439.49,-426.68 1443.32,-419.12 1435.61,-422.64 1439.49,-426.68"/>
</g>
<!-- https://w3id.org/sdata/core/Creation -->
<g id="node20" class="node">
<title>https://w3id.org/sdata/core/Creation</title>
<path fill="#eef8e7" stroke="#4f8a10" stroke-width="1.6" d="M2570.5,-538C2570.5,-538 2523.5,-538 2523.5,-538 2517.5,-538 2511.5,-532 2511.5,-526 2511.5,-526 2511.5,-514 2511.5,-514 2511.5,-508 2517.5,-502 2523.5,-502 2523.5,-502 2570.5,-502 2570.5,-502 2576.5,-502 2582.5,-508 2582.5,-514 2582.5,-514 2582.5,-526 2582.5,-526 2582.5,-532 2576.5,-538 2570.5,-538"/>
<text text-anchor="middle" x="2547" y="-516.9" font-family="Helvetica,sans-Serif" font-size="12.00" fill="#2f5d08">Creation</text>
</g>
<!-- https://w3id.org/sdata/core/Destruction -->
<g id="node21" class="node">
<title>https://w3id.org/sdata/core/Destruction</title>
<path fill="#eef8e7" stroke="#4f8a10" stroke-width="1.6" d="M2459,-538C2459,-538 2393,-538 2393,-538 2387,-538 2381,-532 2381,-526 2381,-526 2381,-514 2381,-514 2381,-508 2387,-502 2393,-502 2393,-502 2459,-502 2459,-502 2465,-502 2471,-508 2471,-514 2471,-514 2471,-526 2471,-526 2471,-532 2465,-538 2459,-538"/>
<text text-anchor="middle" x="2426" y="-516.9" font-family="Helvetica,sans-Serif" font-size="12.00" fill="#2f5d08">Destruction</text>
</g>
<!-- https://w3id.org/sdata/core/Observation -->
<g id="node22" class="node">
<title>https://w3id.org/sdata/core/Observation</title>
<path fill="#eef8e7" stroke="#4f8a10" stroke-width="1.6" d="M2328.5,-538C2328.5,-538 2259.5,-538 2259.5,-538 2253.5,-538 2247.5,-532 2247.5,-526 2247.5,-526 2247.5,-514 2247.5,-514 2247.5,-508 2253.5,-502 2259.5,-502 2259.5,-502 2328.5,-502 2328.5,-502 2334.5,-502 2340.5,-508 2340.5,-514 2340.5,-514 2340.5,-526 2340.5,-526 2340.5,-532 2334.5,-538 2328.5,-538"/>
<text text-anchor="middle" x="2294" y="-516.9" font-family="Helvetica,sans-Serif" font-size="12.00" fill="#2f5d08">Observation</text>
</g>
<!-- https://w3id.org/sdata/core/Preservation -->
<g id="node23" class="node">
<title>https://w3id.org/sdata/core/Preservation</title>
<path fill="#eef8e7" stroke="#4f8a10" stroke-width="1.6" d="M2195.5,-538C2195.5,-538 2124.5,-538 2124.5,-538 2118.5,-538 2112.5,-532 2112.5,-526 2112.5,-526 2112.5,-514 2112.5,-514 2112.5,-508 2118.5,-502 2124.5,-502 2124.5,-502 2195.5,-502 2195.5,-502 2201.5,-502 2207.5,-508 2207.5,-514 2207.5,-514 2207.5,-526 2207.5,-526 2207.5,-532 2201.5,-538 2195.5,-538"/>
<text text-anchor="middle" x="2160" y="-516.9" font-family="Helvetica,sans-Serif" font-size="12.00" fill="#2f5d08">Preservation</text>
</g>
<!-- https://w3id.org/sdata/core/Recovery -->
<g id="node24" class="node">
<title>https://w3id.org/sdata/core/Recovery</title>
<path fill="#eef8e7" stroke="#4f8a10" stroke-width="1.6" d="M2060,-538C2060,-538 2008,-538 2008,-538 2002,-538 1996,-532 1996,-526 1996,-526 1996,-514 1996,-514 1996,-508 2002,-502 2008,-502 2008,-502 2060,-502 2060,-502 2066,-502 2072,-508 2072,-514 2072,-514 2072,-526 2072,-526 2072,-532 2066,-538 2060,-538"/>
<text text-anchor="middle" x="2034" y="-516.9" font-family="Helvetica,sans-Serif" font-size="12.00" fill="#2f5d08">Recovery</text>
</g>
<!-- https://w3id.org/sdata/core/Transfer -->
<g id="node25" class="node">
<title>https://w3id.org/sdata/core/Transfer</title>
<path fill="#eef8e7" stroke="#4f8a10" stroke-width="1.6" d="M1943.5,-538C1943.5,-538 1898.5,-538 1898.5,-538 1892.5,-538 1886.5,-532 1886.5,-526 1886.5,-526 1886.5,-514 1886.5,-514 1886.5,-508 1892.5,-502 1898.5,-502 1898.5,-502 1943.5,-502 1943.5,-502 1949.5,-502 1955.5,-508 1955.5,-514 1955.5,-514 1955.5,-526 1955.5,-526 1955.5,-532 1949.5,-538 1943.5,-538"/>
<text text-anchor="middle" x="1921" y="-516.9" font-family="Helvetica,sans-Serif" font-size="12.00" fill="#2f5d08">Transfer</text>
</g>
<!-- https://w3id.org/sdata/core/Transformation -->
<g id="node26" class="node">
<title>https://w3id.org/sdata/core/Transformation</title>
<path fill="#eef8e7" stroke="#4f8a10" stroke-width="1.6" d="M1834.5,-538C1834.5,-538 1747.5,-538 1747.5,-538 1741.5,-538 1735.5,-532 1735.5,-526 1735.5,-526 1735.5,-514 1735.5,-514 1735.5,-508 1741.5,-502 1747.5,-502 1747.5,-502 1834.5,-502 1834.5,-502 1840.5,-502 1846.5,-508 1846.5,-514 1846.5,-514 1846.5,-526 1846.5,-526 1846.5,-532 1840.5,-538 1834.5,-538"/>
<text text-anchor="middle" x="1791" y="-516.9" font-family="Helvetica,sans-Serif" font-size="12.00" fill="#2f5d08">Transformation</text>
</g>
<!-- https://w3id.org/sdata/vocab/agents/Actuator -->
<g id="node27" class="node">
<title>https://w3id.org/sdata/vocab/agents/Actuator</title>
<path fill="#f0fff9" stroke="#2f855a" stroke-width="1.6" d="M663,-52C663,-52 615,-52 615,-52 609,-52 603,-46 603,-40 603,-40 603,-28 603,-28 603,-22 609,-16 615,-16 615,-16 663,-16 663,-16 669,-16 675,-22 675,-28 675,-28 675,-40 675,-40 675,-46 669,-52 663,-52"/>
<text text-anchor="middle" x="639" y="-30.9" font-family="Helvetica,sans-Serif" font-size="12.00" fill="#1c4532">Actuator</text>
</g>
<!-- https://w3id.org/sdata/vocab/agents/DigitalTwin -->
<g id="node28" class="node">
<title>https://w3id.org/sdata/vocab/agents/DigitalTwin</title>
<path fill="#f0fff9" stroke="#2f855a" stroke-width="1.6" d="M1010.5,-52C1010.5,-52 947.5,-52 947.5,-52 941.5,-52 935.5,-46 935.5,-40 935.5,-40 935.5,-28 935.5,-28 935.5,-22 941.5,-16 947.5,-16 947.5,-16 1010.5,-16 1010.5,-16 1016.5,-16 1022.5,-22 1022.5,-28 1022.5,-28 1022.5,-40 1022.5,-40 1022.5,-46 1016.5,-52 1010.5,-52"/>
<text text-anchor="middle" x="979" y="-30.9" font-family="Helvetica,sans-Serif" font-size="12.00" fill="#1c4532">Digital Twin</text>
</g>
<!-- https://w3id.org/sdata/vocab/agents/Hardware -->
<g id="node29" class="node">
<title>https://w3id.org/sdata/vocab/agents/Hardware</title>
<path fill="#f0fff9" stroke="#2f855a" stroke-width="1.6" d="M773,-171C773,-171 719,-171 719,-171 713,-171 707,-165 707,-159 707,-159 707,-147 707,-147 707,-141 713,-135 719,-135 719,-135 773,-135 773,-135 779,-135 785,-141 785,-147 785,-147 785,-159 785,-159 785,-165 779,-171 773,-171"/>
<text text-anchor="middle" x="746" y="-149.9" font-family="Helvetica,sans-Serif" font-size="12.00" fill="#1c4532">Hardware</text>
</g>
<!-- https://w3id.org/sdata/vocab/agents/Hardware&#45;&gt;https://w3id.org/sdata/vocab/agents/Actuator -->
<g id="edge1" class="edge">
<title>https://w3id.org/sdata/vocab/agents/Hardware&#45;&gt;https://w3id.org/sdata/vocab/agents/Actuator</title>
<path fill="none" stroke="#2f855a" stroke-width="1.5" stroke-dasharray="1,5" d="M730.44,-134.99C711.9,-114.71 680.83,-80.74 660.12,-58.1"/>
<polygon fill="#2f855a" stroke="#2f855a" stroke-width="1.5" points="662.04,-56.05 654.58,-52.03 657.91,-59.83 662.04,-56.05"/>
<text text-anchor="middle" x="714" y="-91" font-family="Helvetica,sans-Serif" font-size="10.00">broader</text>
</g>
<!-- https://w3id.org/sdata/vocab/agents/Processor -->
<g id="node32" class="node">
<title>https://w3id.org/sdata/vocab/agents/Processor</title>
<path fill="#f0fff9" stroke="#2f855a" stroke-width="1.6" d="M781,-52C781,-52 727,-52 727,-52 721,-52 715,-46 715,-40 715,-40 715,-28 715,-28 715,-22 721,-16 727,-16 727,-16 781,-16 781,-16 787,-16 793,-22 793,-28 793,-28 793,-40 793,-40 793,-46 787,-52 781,-52"/>
<text text-anchor="middle" x="754" y="-30.9" font-family="Helvetica,sans-Serif" font-size="12.00" fill="#1c4532">Processor</text>
</g>
<!-- https://w3id.org/sdata/vocab/agents/Hardware&#45;&gt;https://w3id.org/sdata/vocab/agents/Processor -->
<g id="edge2" class="edge">
<title>https://w3id.org/sdata/vocab/agents/Hardware&#45;&gt;https://w3id.org/sdata/vocab/agents/Processor</title>
<path fill="none" stroke="#2f855a" stroke-width="1.5" stroke-dasharray="1,5" d="M747.16,-134.99C748.51,-115.32 750.73,-82.76 752.28,-60.16"/>
<polygon fill="#2f855a" stroke="#2f855a" stroke-width="1.5" points="755.08,-60.21 752.84,-52.03 749.5,-59.82 755.08,-60.21"/>
<text text-anchor="middle" x="769" y="-91" font-family="Helvetica,sans-Serif" font-size="10.00">broader</text>
</g>
<!-- https://w3id.org/sdata/vocab/agents/Sensor -->
<g id="node33" class="node">
<title>https://w3id.org/sdata/vocab/agents/Sensor</title>
<path fill="#f0fff9" stroke="#2f855a" stroke-width="1.6" d="M883,-52C883,-52 845,-52 845,-52 839,-52 833,-46 833,-40 833,-40 833,-28 833,-28 833,-22 839,-16 845,-16 845,-16 883,-16 883,-16 889,-16 895,-22 895,-28 895,-28 895,-40 895,-40 895,-46 889,-52 883,-52"/>
<text text-anchor="middle" x="864" y="-30.9" font-family="Helvetica,sans-Serif" font-size="12.00" fill="#1c4532">Sensor</text>
</g>
<!-- https://w3id.org/sdata/vocab/agents/Hardware&#45;&gt;https://w3id.org/sdata/vocab/agents/Sensor -->
<g id="edge3" class="edge">
<title>https://w3id.org/sdata/vocab/agents/Hardware&#45;&gt;https://w3id.org/sdata/vocab/agents/Sensor</title>
<path fill="none" stroke="#2f855a" stroke-width="1.5" stroke-dasharray="1,5" d="M763.16,-134.99C783.69,-114.62 818.17,-80.44 841,-57.81"/>
<polygon fill="#2f855a" stroke="#2f855a" stroke-width="1.5" points="843.11,-59.65 846.82,-52.03 839.17,-55.68 843.11,-59.65"/>
<text text-anchor="middle" x="827" y="-91" font-family="Helvetica,sans-Serif" font-size="10.00">broader</text>
</g>
<!-- https://w3id.org/sdata/vocab/agents/Organization -->
<g id="node30" class="node">
<title>https://w3id.org/sdata/vocab/agents/Organization</title>
<path fill="#f0fff9" stroke="#2f855a" stroke-width="1.6" d="M909,-171C909,-171 837,-171 837,-171 831,-171 825,-165 825,-159 825,-159 825,-147 825,-147 825,-141 831,-135 837,-135 837,-135 909,-135 909,-135 915,-135 921,-141 921,-147 921,-147 921,-159 921,-159 921,-165 915,-171 909,-171"/>
<text text-anchor="middle" x="873" y="-149.9" font-family="Helvetica,sans-Serif" font-size="12.00" fill="#1c4532">Organization</text>
</g>
<!-- https://w3id.org/sdata/vocab/agents/Person -->
<g id="node31" class="node">
<title>https://w3id.org/sdata/vocab/agents/Person</title>
<path fill="#f0fff9" stroke="#2f855a" stroke-width="1.6" d="M1010.5,-171C1010.5,-171 973.5,-171 973.5,-171 967.5,-171 961.5,-165 961.5,-159 961.5,-159 961.5,-147 961.5,-147 961.5,-141 967.5,-135 973.5,-135 973.5,-135 1010.5,-135 1010.5,-135 1016.5,-135 1022.5,-141 1022.5,-147 1022.5,-147 1022.5,-159 1022.5,-159 1022.5,-165 1016.5,-171 1010.5,-171"/>
<text text-anchor="middle" x="992" y="-149.9" font-family="Helvetica,sans-Serif" font-size="12.00" fill="#1c4532">Person</text>
</g>
<!-- https://w3id.org/sdata/vocab/agents/Service -->
<g id="node34" class="node">
<title>https://w3id.org/sdata/vocab/agents/Service</title>
<path fill="#f0fff9" stroke="#2f855a" stroke-width="1.6" d="M1115.5,-52C1115.5,-52 1074.5,-52 1074.5,-52 1068.5,-52 1062.5,-46 1062.5,-40 1062.5,-40 1062.5,-28 1062.5,-28 1062.5,-22 1068.5,-16 1074.5,-16 1074.5,-16 1115.5,-16 1115.5,-16 1121.5,-16 1127.5,-22 1127.5,-28 1127.5,-28 1127.5,-40 1127.5,-40 1127.5,-46 1121.5,-52 1115.5,-52"/>
<text text-anchor="middle" x="1095" y="-30.9" font-family="Helvetica,sans-Serif" font-size="12.00" fill="#1c4532">Service</text>
</g>
<!-- https://w3id.org/sdata/vocab/agents/Software -->
<g id="node35" class="node">
<title>https://w3id.org/sdata/vocab/agents/Software</title>
<path fill="#f0fff9" stroke="#2f855a" stroke-width="1.6" d="M1123.5,-171C1123.5,-171 1074.5,-171 1074.5,-171 1068.5,-171 1062.5,-165 1062.5,-159 1062.5,-159 1062.5,-147 1062.5,-147 1062.5,-141 1068.5,-135 1074.5,-135 1074.5,-135 1123.5,-135 1123.5,-135 1129.5,-135 1135.5,-141 1135.5,-147 1135.5,-147 1135.5,-159 1135.5,-159 1135.5,-165 1129.5,-171 1123.5,-171"/>
<text text-anchor="middle" x="1099" y="-149.9" font-family="Helvetica,sans-Serif" font-size="12.00" fill="#1c4532">Software</text>
</g>
<!-- https://w3id.org/sdata/vocab/agents/Software&#45;&gt;https://w3id.org/sdata/vocab/agents/DigitalTwin -->
<g id="edge4" class="edge">
<title>https://w3id.org/sdata/vocab/agents/Software&#45;&gt;https://w3id.org/sdata/vocab/agents/DigitalTwin</title>
<path fill="none" stroke="#2f855a" stroke-width="1.5" stroke-dasharray="1,5" d="M1081.55,-134.99C1060.67,-114.62 1025.61,-80.44 1002.39,-57.81"/>
<polygon fill="#2f855a" stroke="#2f855a" stroke-width="1.5" points="1004.15,-55.61 996.47,-52.03 1000.24,-59.62 1004.15,-55.61"/>
<text text-anchor="middle" x="1061" y="-91" font-family="Helvetica,sans-Serif" font-size="10.00">broader</text>
</g>
<!-- https://w3id.org/sdata/vocab/agents/Software&#45;&gt;https://w3id.org/sdata/vocab/agents/Service -->
<g id="edge5" class="edge">
<title>https://w3id.org/sdata/vocab/agents/Software&#45;&gt;https://w3id.org/sdata/vocab/agents/Service</title>
<path fill="none" stroke="#2f855a" stroke-width="1.5" stroke-dasharray="1,5" d="M1097.85,-134.82C1097.2,-124.45 1096.43,-110.97 1096,-99 1095.54,-86.22 1095.29,-72 1095.16,-60.21"/>
<polygon fill="#2f855a" stroke="#2f855a" stroke-width="1.5" points="1097.96,-60.09 1095.08,-52.12 1092.36,-60.15 1097.96,-60.09"/>
<text text-anchor="middle" x="1115" y="-91" font-family="Helvetica,sans-Serif" font-size="10.00">broader</text>
</g>
<!-- https://w3id.org/sdata/vocab/agents/Solver -->
<g id="node36" class="node">
<title>https://w3id.org/sdata/vocab/agents/Solver</title>
<path fill="#f0fff9" stroke="#2f855a" stroke-width="1.6" d="M1214,-52C1214,-52 1180,-52 1180,-52 1174,-52 1168,-46 1168,-40 1168,-40 1168,-28 1168,-28 1168,-22 1174,-16 1180,-16 1180,-16 1214,-16 1214,-16 1220,-16 1226,-22 1226,-28 1226,-28 1226,-40 1226,-40 1226,-46 1220,-52 1214,-52"/>
<text text-anchor="middle" x="1197" y="-30.9" font-family="Helvetica,sans-Serif" font-size="12.00" fill="#1c4532">Solver</text>
</g>
<!-- https://w3id.org/sdata/vocab/agents/Software&#45;&gt;https://w3id.org/sdata/vocab/agents/Solver -->
<g id="edge6" class="edge">
<title>https://w3id.org/sdata/vocab/agents/Software&#45;&gt;https://w3id.org/sdata/vocab/agents/Solver</title>
<path fill="none" stroke="#2f855a" stroke-width="1.5" stroke-dasharray="1,5" d="M1113.25,-134.99C1130.16,-114.8 1158.45,-81.03 1177.41,-58.39"/>
<polygon fill="#2f855a" stroke="#2f855a" stroke-width="1.5" points="1179.74,-59.96 1182.73,-52.03 1175.45,-56.37 1179.74,-59.96"/>
<text text-anchor="middle" x="1169" y="-91" font-family="Helvetica,sans-Serif" font-size="10.00">broader</text>
</g>
<!-- https://w3id.org/sdata/vocab/agents/AgentTypeScheme&#45;&gt;https://w3id.org/sdata/vocab/agents/Hardware -->
<g id="edge7" class="edge">
<title>https://w3id.org/sdata/vocab/agents/AgentTypeScheme&#45;&gt;https://w3id.org/sdata/vocab/agents/Hardware</title>
<path fill="none" stroke="#2f855a" stroke-width="1.5" stroke-dasharray="1,5" d="M884.82,-256.35C860.45,-247.4 830.75,-234.48 807,-218 790.74,-206.72 775.39,-190.57 764.16,-177.32"/>
<polygon fill="#2f855a" stroke="#2f855a" stroke-width="1.5" points="766.25,-175.45 758.98,-171.08 761.93,-179.03 766.25,-175.45"/>
<text text-anchor="middle" x="836" y="-210" font-family="Helvetica,sans-Serif" font-size="10.00">top concept</text>
</g>
<!-- https://w3id.org/sdata/vocab/agents/AgentTypeScheme&#45;&gt;https://w3id.org/sdata/vocab/agents/Organization -->
<g id="edge8" class="edge">
<title>https://w3id.org/sdata/vocab/agents/AgentTypeScheme&#45;&gt;https://w3id.org/sdata/vocab/agents/Organization</title>
<path fill="none" stroke="#2f855a" stroke-width="1.5" stroke-dasharray="1,5" d="M908.08,-253.9C897.35,-244.55 885.51,-232.03 879,-218 873.43,-205.99 871.73,-191.37 871.51,-179.14"/>
<polygon fill="#2f855a" stroke="#2f855a" stroke-width="1.5" points="874.31,-179.13 871.57,-171.11 868.71,-179.09 874.31,-179.13"/>
<text text-anchor="middle" x="908" y="-210" font-family="Helvetica,sans-Serif" font-size="10.00">top concept</text>
</g>
<!-- https://w3id.org/sdata/vocab/agents/AgentTypeScheme&#45;&gt;https://w3id.org/sdata/vocab/agents/Person -->
<g id="edge9" class="edge">
<title>https://w3id.org/sdata/vocab/agents/AgentTypeScheme&#45;&gt;https://w3id.org/sdata/vocab/agents/Person</title>
<path fill="none" stroke="#2f855a" stroke-width="1.5" stroke-dasharray="1,5" d="M939.87,-253.99C950.26,-234.06 967.55,-200.89 979.35,-178.27"/>
<polygon fill="#2f855a" stroke="#2f855a" stroke-width="1.5" points="981.9,-179.42 983.12,-171.03 976.94,-176.83 981.9,-179.42"/>
<text text-anchor="middle" x="992" y="-210" font-family="Helvetica,sans-Serif" font-size="10.00">top concept</text>
</g>
<!-- https://w3id.org/sdata/vocab/agents/AgentTypeScheme&#45;&gt;https://w3id.org/sdata/vocab/agents/Software -->
<g id="edge10" class="edge">
<title>https://w3id.org/sdata/vocab/agents/AgentTypeScheme&#45;&gt;https://w3id.org/sdata/vocab/agents/Software</title>
<path fill="none" stroke="#2f855a" stroke-width="1.5" stroke-dasharray="1,5" d="M968.97,-253.87C988.27,-244.44 1011.67,-231.84 1031,-218 1047.77,-206 1064.66,-190.12 1077.41,-177.19"/>
<polygon fill="#2f855a" stroke="#2f855a" stroke-width="1.5" points="1079.76,-178.79 1083.32,-171.1 1075.74,-174.89 1079.76,-178.79"/>
<text text-anchor="middle" x="1074" y="-210" font-family="Helvetica,sans-Serif" font-size="10.00">top concept</text>
</g>
</g>
</svg>
