<?xml version="1.0" encoding="UTF-8" standalone="no"?>
<!DOCTYPE svg PUBLIC "-//W3C//DTD SVG 1.1//EN"
 "http://www.w3.org/Graphics/SVG/1.1/DTD/svg11.dtd">
<!-- Generated by graphviz version 2.43.0 (0)
 -->
<!-- Pages: 1 -->
<svg width="2572pt" height="406pt"
 viewBox="0.00 0.00 2571.79 406.40" xmlns="http://www.w3.org/2000/svg" xmlns:xlink="http://www.w3.org/1999/xlink">
<g id="graph0" class="graph" transform="scale(1 1) rotate(0) translate(25.2 381.2)">
<polygon fill="#fafbfc" stroke="transparent" points="-25.2,25.2 -25.2,-381.2 2546.59,-381.2 2546.59,25.2 -25.2,25.2"/>
<text text-anchor="middle" x="1260.69" y="-336" font-family="Helvetica,sans-Serif" font-size="20.00">sdata Core + Processtypes Hierarchy (autark core)</text>
<g id="clust1" class="cluster">
<title>cluster_proc</title>
<path fill="#fafbfc" stroke="#b6d7a8" d="M20,-8C20,-8 747,-8 747,-8 753,-8 759,-14 759,-20 759,-20 759,-306 759,-306 759,-312 753,-318 747,-318 747,-318 20,-318 20,-318 14,-318 8,-312 8,-306 8,-306 8,-20 8,-20 8,-14 14,-8 20,-8"/>
<text text-anchor="middle" x="383.5" y="-298" font-family="Helvetica,sans-Serif" font-size="20.00">sdata&#45;processtypes classes</text>
</g>
<g id="clust2" class="cluster">
<title>cluster_core</title>
<path fill="#fafbfc" stroke="#90b5e8" d="M779,-109C779,-109 2467,-109 2467,-109 2473,-109 2479,-115 2479,-121 2479,-121 2479,-306 2479,-306 2479,-312 2473,-318 2467,-318 2467,-318 779,-318 779,-318 773,-318 767,-312 767,-306 767,-306 767,-121 767,-121 767,-115 773,-109 779,-109"/>
<text text-anchor="middle" x="1623" y="-298" font-family="Helvetica,sans-Serif" font-size="20.00">sdata&#45;core classes</text>
</g>
<g id="clust3" class="cluster">
<title>cluster_core_dual_rank_MaterialArtifact</title>
</g>
<g id="clust4" class="cluster">
<title>cluster_core_dual_rank_MaterialAgent</title>
</g>
<g id="clust5" class="cluster">
<title>cluster_core_dual_rank_MaterialSite</title>
</g>
<g id="clust6" class="cluster">
<title>cluster_core_dual_rank_MaterialProcess</title>
</g>
<g id="clust7" class="cluster">
<title>cluster_core_dual_rank_Material</title>
</g>
<!-- https://w3id.org/sdata/core/Creation -->
<g id="node1" class="node">
<title>https://w3id.org/sdata/core/Creation</title>
<path fill="#eef8e7" stroke="#4f8a10" stroke-width="1.6" d="M738.5,-52C738.5,-52 691.5,-52 691.5,-52 685.5,-52 679.5,-46 679.5,-40 679.5,-40 679.5,-28 679.5,-28 679.5,-22 685.5,-16 691.5,-16 691.5,-16 738.5,-16 738.5,-16 744.5,-16 750.5,-22 750.5,-28 750.5,-28 750.5,-40 750.5,-40 750.5,-46 744.5,-52 738.5,-52"/>
<text text-anchor="middle" x="715" y="-30.9" font-family="Helvetica,sans-Serif" font-size="12.00" fill="#2f5d08">Creation</text>
</g>
<!-- https://w3id.org/sdata/core/Destruction -->
<g id="node2" class="node">
<title>https://w3id.org/sdata/core/Destruction</title>
<path fill="#eef8e7" stroke="#4f8a10" stroke-width="1.6" d="M739,-280C739,-280 673,-280 673,-280 667,-280 661,-274 661,-268 661,-268 661,-256 661,-256 661,-250 667,-244 673,-244 673,-244 739,-244 739,-244 745,-244 751,-250 751,-256 751,-256 751,-268 751,-268 751,-274 745,-280 739,-280"/>
<text text-anchor="middle" x="706" y="-258.9" font-family="Helvetica,sans-Serif" font-size="12.00" fill="#2f5d08">Destruction</text>
</g>
<!-- https://w3id.org/sdata/core/Observation -->
<g id="node3" class="node">
<title>https://w3id.org/sdata/core/Observation</title>
<path fill="#eef8e7" stroke="#4f8a10" stroke-width="1.6" d="M608.5,-280C608.5,-280 539.5,-280 539.5,-280 533.5,-280 527.5,-274 527.5,-268 527.5,-268 527.5,-256 527.5,-256 527.5,-250 533.5,-244 539.5,-244 539.5,-244 608.5,-244 608.5,-244 614.5,-244 620.5,-250 620.5,-256 620.5,-256 620.5,-268 620.5,-268 620.5,-274 614.5,-280 608.5,-280"/>
<text text-anchor="middle" x="574" y="-258.9" font-family="Helvetica,sans-Serif" font-size="12.00" fill="#2f5d08">Observation</text>
</g>
<!-- https://w3id.org/sdata/core/Preservation -->
<g id="node4" class="node">
<title>https://w3id.org/sdata/core/Preservation</title>
<path fill="#eef8e7" stroke="#4f8a10" stroke-width="1.6" d="M475.5,-280C475.5,-280 404.5,-280 404.5,-280 398.5,-280 392.5,-274 392.5,-268 392.5,-268 392.5,-256 392.5,-256 392.5,-250 398.5,-244 404.5,-244 404.5,-244 475.5,-244 475.5,-244 481.5,-244 487.5,-250 487.5,-256 487.5,-256 487.5,-268 487.5,-268 487.5,-274 481.5,-280 475.5,-280"/>
<text text-anchor="middle" x="440" y="-258.9" font-family="Helvetica,sans-Serif" font-size="12.00" fill="#2f5d08">Preservation</text>
</g>
<!-- https://w3id.org/sdata/core/Recovery -->
<g id="node5" class="node">
<title>https://w3id.org/sdata/core/Recovery</title>
<path fill="#eef8e7" stroke="#4f8a10" stroke-width="1.6" d="M340,-280C340,-280 288,-280 288,-280 282,-280 276,-274 276,-268 276,-268 276,-256 276,-256 276,-250 282,-244 288,-244 288,-244 340,-244 340,-244 346,-244 352,-250 352,-256 352,-256 352,-268 352,-268 352,-274 346,-280 340,-280"/>
<text text-anchor="middle" x="314" y="-258.9" font-family="Helvetica,sans-Serif" font-size="12.00" fill="#2f5d08">Recovery</text>
</g>
<!-- https://w3id.org/sdata/core/Transfer -->
<g id="node6" class="node">
<title>https://w3id.org/sdata/core/Transfer</title>
<path fill="#eef8e7" stroke="#4f8a10" stroke-width="1.6" d="M223.5,-280C223.5,-280 178.5,-280 178.5,-280 172.5,-280 166.5,-274 166.5,-268 166.5,-268 166.5,-256 166.5,-256 166.5,-250 172.5,-244 178.5,-244 178.5,-244 223.5,-244 223.5,-244 229.5,-244 235.5,-250 235.5,-256 235.5,-256 235.5,-268 235.5,-268 235.5,-274 229.5,-280 223.5,-280"/>
<text text-anchor="middle" x="201" y="-258.9" font-family="Helvetica,sans-Serif" font-size="12.00" fill="#2f5d08">Transfer</text>
</g>
<!-- https://w3id.org/sdata/core/Transformation -->
<g id="node7" class="node">
<title>https://w3id.org/sdata/core/Transformation</title>
<path fill="#eef8e7" stroke="#4f8a10" stroke-width="1.6" d="M114.5,-280C114.5,-280 27.5,-280 27.5,-280 21.5,-280 15.5,-274 15.5,-268 15.5,-268 15.5,-256 15.5,-256 15.5,-250 21.5,-244 27.5,-244 27.5,-244 114.5,-244 114.5,-244 120.5,-244 126.5,-250 126.5,-256 126.5,-256 126.5,-268 126.5,-268 126.5,-274 120.5,-280 114.5,-280"/>
<text text-anchor="middle" x="71" y="-258.9" font-family="Helvetica,sans-Serif" font-size="12.00" fill="#2f5d08">Transformation</text>
</g>
<!-- https://w3id.org/sdata/core/InformationArtifact -->
<g id="node8" class="node">
<title>https://w3id.org/sdata/core/InformationArtifact</title>
<path fill="#e8f1ff" stroke="#2b6cb0" stroke-width="1.6" d="M1106,-161C1106,-161 992,-161 992,-161 986,-161 980,-155 980,-149 980,-149 980,-137 980,-137 980,-131 986,-125 992,-125 992,-125 1106,-125 1106,-125 1112,-125 1118,-131 1118,-137 1118,-137 1118,-149 1118,-149 1118,-155 1112,-161 1106,-161"/>
<text text-anchor="middle" x="1049" y="-139.9" font-family="Helvetica,sans-Serif" font-size="12.00" fill="#1a365d">Information Artifact</text>
</g>
<!-- https://w3id.org/sdata/core/MaterialArtifact -->
<g id="node9" class="node">
<title>https://w3id.org/sdata/core/MaterialArtifact</title>
<path fill="#e8f1ff" stroke="#2b6cb0" stroke-width="1.6" d="M888.5,-161C888.5,-161 795.5,-161 795.5,-161 789.5,-161 783.5,-155 783.5,-149 783.5,-149 783.5,-137 783.5,-137 783.5,-131 789.5,-125 795.5,-125 795.5,-125 888.5,-125 888.5,-125 894.5,-125 900.5,-131 900.5,-137 900.5,-137 900.5,-149 900.5,-149 900.5,-155 894.5,-161 888.5,-161"/>
<text text-anchor="middle" x="842" y="-139.9" font-family="Helvetica,sans-Serif" font-size="12.00" fill="#1a365d">Material Artifact</text>
</g>
<!-- https://w3id.org/sdata/core/MaterialArtifact&#45;&gt;https://w3id.org/sdata/core/InformationArtifact -->
<g id="edge9" class="edge">
<title>https://w3id.org/sdata/core/MaterialArtifact&#45;&gt;https://w3id.org/sdata/core/InformationArtifact</title>
<path fill="none" stroke="#6b7280" stroke-width="1.6" stroke-dasharray="5,2" d="M900.76,-143C925.39,-143 954.19,-143 979.83,-143"/>
<text text-anchor="middle" x="940.25" y="-149.8" font-family="Helvetica,sans-Serif" font-size="14.00" fill="#6b7280">dual</text>
</g>
<!-- https://w3id.org/sdata/core/InformationAgent -->
<g id="node10" class="node">
<title>https://w3id.org/sdata/core/InformationAgent</title>
<path fill="#e8f1ff" stroke="#2b6cb0" stroke-width="1.6" d="M2172.5,-161C2172.5,-161 2067.5,-161 2067.5,-161 2061.5,-161 2055.5,-155 2055.5,-149 2055.5,-149 2055.5,-137 2055.5,-137 2055.5,-131 2061.5,-125 2067.5,-125 2067.5,-125 2172.5,-125 2172.5,-125 2178.5,-125 2184.5,-131 2184.5,-137 2184.5,-137 2184.5,-149 2184.5,-149 2184.5,-155 2178.5,-161 2172.5,-161"/>
<text text-anchor="middle" x="2120" y="-139.9" font-family="Helvetica,sans-Serif" font-size="12.00" fill="#1a365d">Information Agent</text>
</g>
<!-- https://w3id.org/sdata/core/MaterialAgent -->
<g id="node11" class="node">
<title>https://w3id.org/sdata/core/MaterialAgent</title>
<path fill="#e8f1ff" stroke="#2b6cb0" stroke-width="1.6" d="M1964,-161C1964,-161 1880,-161 1880,-161 1874,-161 1868,-155 1868,-149 1868,-149 1868,-137 1868,-137 1868,-131 1874,-125 1880,-125 1880,-125 1964,-125 1964,-125 1970,-125 1976,-131 1976,-137 1976,-137 1976,-149 1976,-149 1976,-155 1970,-161 1964,-161"/>
<text text-anchor="middle" x="1922" y="-139.9" font-family="Helvetica,sans-Serif" font-size="12.00" fill="#1a365d">Material Agent</text>
</g>
<!-- https://w3id.org/sdata/core/MaterialAgent&#45;&gt;https://w3id.org/sdata/core/InformationAgent -->
<g id="edge8" class="edge">
<title>https://w3id.org/sdata/core/MaterialAgent&#45;&gt;https://w3id.org/sdata/core/InformationAgent</title>
<path fill="none" stroke="#6b7280" stroke-width="1.6" stroke-dasharray="5,2" d="M1976.1,-143C2000.61,-143 2029.77,-143 2055.41,-143"/>
<text text-anchor="middle" x="2015.75" y="-149.8" font-family="Helvetica,sans-Serif" font-size="14.00" fill="#6b7280">dual</text>
</g>
<!-- https://w3id.org/sdata/core/InformationSite -->
<g id="node12" class="node">
<title>https://w3id.org/sdata/core/InformationSite</title>
<path fill="#e8f1ff" stroke="#2b6cb0" stroke-width="1.6" d="M1815.5,-161C1815.5,-161 1722.5,-161 1722.5,-161 1716.5,-161 1710.5,-155 1710.5,-149 1710.5,-149 1710.5,-137 1710.5,-137 1710.5,-131 1716.5,-125 1722.5,-125 1722.5,-125 1815.5,-125 1815.5,-125 1821.5,-125 1827.5,-131 1827.5,-137 1827.5,-137 1827.5,-149 1827.5,-149 1827.5,-155 1821.5,-161 1815.5,-161"/>
<text text-anchor="middle" x="1769" y="-139.9" font-family="Helvetica,sans-Serif" font-size="12.00" fill="#1a365d">Information Site</text>
</g>
<!-- https://w3id.org/sdata/core/MaterialSite -->
<g id="node13" class="node">
<title>https://w3id.org/sdata/core/MaterialSite</title>
<path fill="#e8f1ff" stroke="#2b6cb0" stroke-width="1.6" d="M1619,-161C1619,-161 1547,-161 1547,-161 1541,-161 1535,-155 1535,-149 1535,-149 1535,-137 1535,-137 1535,-131 1541,-125 1547,-125 1547,-125 1619,-125 1619,-125 1625,-125 1631,-131 1631,-137 1631,-137 1631,-149 1631,-149 1631,-155 1625,-161 1619,-161"/>
<text text-anchor="middle" x="1583" y="-139.9" font-family="Helvetica,sans-Serif" font-size="12.00" fill="#1a365d">Material Site</text>
</g>
<!-- https://w3id.org/sdata/core/MaterialSite&#45;&gt;https://w3id.org/sdata/core/InformationSite -->
<g id="edge11" class="edge">
<title>https://w3id.org/sdata/core/MaterialSite&#45;&gt;https://w3id.org/sdata/core/InformationSite</title>
<path fill="none" stroke="#6b7280" stroke-width="1.6" stroke-dasharray="5,2" d="M1631.38,-143C1655.49,-143 1684.85,-143 1710.24,-143"/>
<text text-anchor="middle" x="1670.75" y="-149.8" font-family="Helvetica,sans-Serif" font-size="14.00" fill="#6b7280">dual</text>
</g>
<!-- https://w3id.org/sdata/core/InformationProcess -->
<g id="node14" class="node">
<title>https://w3id.org/sdata/core/InformationProcess</title>
<path fill="#e8f1ff" stroke="#2b6cb0" stroke-width="1.6" d="M1482.5,-161C1482.5,-161 1367.5,-161 1367.5,-161 1361.5,-161 1355.5,-155 1355.5,-149 1355.5,-149 1355.5,-137 1355.5,-137 1355.5,-131 1361.5,-125 1367.5,-125 1367.5,-125 1482.5,-125 1482.5,-125 1488.5,-125 1494.5,-131 1494.5,-137 1494.5,-137 1494.5,-149 1494.5,-149 1494.5,-155 1488.5,-161 1482.5,-161"/>
<text text-anchor="middle" x="1425" y="-139.9" font-family="Helvetica,sans-Serif" font-size="12.00" fill="#1a365d">Information Process</text>
</g>
<!-- https://w3id.org/sdata/core/MaterialProcess -->
<g id="node15" class="node">
<title>https://w3id.org/sdata/core/MaterialProcess</title>
<path fill="#e8f1ff" stroke="#2b6cb0" stroke-width="1.6" d="M1264,-161C1264,-161 1170,-161 1170,-161 1164,-161 1158,-155 1158,-149 1158,-149 1158,-137 1158,-137 1158,-131 1164,-125 1170,-125 1170,-125 1264,-125 1264,-125 1270,-125 1276,-131 1276,-137 1276,-137 1276,-149 1276,-149 1276,-155 1270,-161 1264,-161"/>
<text text-anchor="middle" x="1217" y="-139.9" font-family="Helvetica,sans-Serif" font-size="12.00" fill="#1a365d">Material Process</text>
</g>
<!-- https://w3id.org/sdata/core/MaterialProcess&#45;&gt;https://w3id.org/sdata/core/InformationProcess -->
<g id="edge10" class="edge">
<title>https://w3id.org/sdata/core/MaterialProcess&#45;&gt;https://w3id.org/sdata/core/InformationProcess</title>
<path fill="none" stroke="#6b7280" stroke-width="1.6" stroke-dasharray="5,2" d="M1276.05,-143C1300.79,-143 1329.73,-143 1355.5,-143"/>
<text text-anchor="middle" x="1315.75" y="-149.8" font-family="Helvetica,sans-Serif" font-size="14.00" fill="#6b7280">dual</text>
</g>
<!-- https://w3id.org/sdata/core/Information -->
<g id="node16" class="node">
<title>https://w3id.org/sdata/core/Information</title>
<path fill="#e8f1ff" stroke="#2b6cb0" stroke-width="1.6" d="M2451,-161C2451,-161 2385,-161 2385,-161 2379,-161 2373,-155 2373,-149 2373,-149 2373,-137 2373,-137 2373,-131 2379,-125 2385,-125 2385,-125 2451,-125 2451,-125 2457,-125 2463,-131 2463,-137 2463,-137 2463,-149 2463,-149 2463,-155 2457,-161 2451,-161"/>
<text text-anchor="middle" x="2418" y="-139.9" font-family="Helvetica,sans-Serif" font-size="12.00" fill="#1a365d">Information</text>
</g>
<!-- https://w3id.org/sdata/core/Material -->
<g id="node17" class="node">
<title>https://w3id.org/sdata/core/Material</title>
<path fill="#e8f1ff" stroke="#2b6cb0" stroke-width="1.6" d="M2281.5,-161C2281.5,-161 2236.5,-161 2236.5,-161 2230.5,-161 2224.5,-155 2224.5,-149 2224.5,-149 2224.5,-137 2224.5,-137 2224.5,-131 2230.5,-125 2236.5,-125 2236.5,-125 2281.5,-125 2281.5,-125 2287.5,-125 2293.5,-131 2293.5,-137 2293.5,-137 2293.5,-149 2293.5,-149 2293.5,-155 2287.5,-161 2281.5,-161"/>
<text text-anchor="middle" x="2259" y="-139.9" font-family="Helvetica,sans-Serif" font-size="12.00" fill="#1a365d">Material</text>
</g>
<!-- https://w3id.org/sdata/core/Material&#45;&gt;https://w3id.org/sdata/core/Information -->
<g id="edge7" class="edge">
<title>https://w3id.org/sdata/core/Material&#45;&gt;https://w3id.org/sdata/core/Information</title>
<path fill="none" stroke="#6b7280" stroke-width="1.6" stroke-dasharray="5,2" d="M2293.5,-143C2316.79,-143 2347.76,-143 2372.99,-143"/>
<text text-anchor="middle" x="2333.25" y="-149.8" font-family="Helvetica,sans-Serif" font-size="14.00" fill="#6b7280">dual</text>
</g>
<!-- https://w3id.org/sdata/core/Agent -->
<g id="node18" class="node">
<title>https://w3id.org/sdata/core/Agent</title>
<path fill="#e8f1ff" stroke="#2b6cb0" stroke-width="1.6" d="M2459,-280C2459,-280 2427,-280 2427,-280 2421,-280 2415,-274 2415,-268 2415,-268 2415,-256 2415,-256 2415,-250 2421,-244 2427,-244 2427,-244 2459,-244 2459,-244 2465,-244 2471,-250 2471,-256 2471,-256 2471,-268 2471,-268 2471,-274 2465,-280 2459,-280"/>
<text text-anchor="middle" x="2443" y="-258.9" font-family="Helvetica,sans-Serif" font-size="12.00" fill="#1a365d">Agent</text>
</g>
<!-- https://w3id.org/sdata/core/Agent&#45;&gt;https://w3id.org/sdata/core/Creation -->
<!-- https://w3id.org/sdata/core/Artifact -->
<g id="node19" class="node">
<title>https://w3id.org/sdata/core/Artifact</title>
<path fill="#e8f1ff" stroke="#2b6cb0" stroke-width="1.6" d="M2276.5,-280C2276.5,-280 2235.5,-280 2235.5,-280 2229.5,-280 2223.5,-274 2223.5,-268 2223.5,-268 2223.5,-256 2223.5,-256 2223.5,-250 2229.5,-244 2235.5,-244 2235.5,-244 2276.5,-244 2276.5,-244 2282.5,-244 2288.5,-250 2288.5,-256 2288.5,-256 2288.5,-268 2288.5,-268 2288.5,-274 2282.5,-280 2276.5,-280"/>
<text text-anchor="middle" x="2256" y="-258.9" font-family="Helvetica,sans-Serif" font-size="12.00" fill="#1a365d">Artifact</text>
</g>
<!-- https://w3id.org/sdata/core/Identifier -->
<g id="node20" class="node">
<title>https://w3id.org/sdata/core/Identifier</title>
<path fill="#e8f1ff" stroke="#2b6cb0" stroke-width="1.6" d="M1999.5,-280C1999.5,-280 1948.5,-280 1948.5,-280 1942.5,-280 1936.5,-274 1936.5,-268 1936.5,-268 1936.5,-256 1936.5,-256 1936.5,-250 1942.5,-244 1948.5,-244 1948.5,-244 1999.5,-244 1999.5,-244 2005.5,-244 2011.5,-250 2011.5,-256 2011.5,-256 2011.5,-268 2011.5,-268 2011.5,-274 2005.5,-280 1999.5,-280"/>
<text text-anchor="middle" x="1974" y="-258.9" font-family="Helvetica,sans-Serif" font-size="12.00" fill="#1a365d">Identifier</text>
</g>
<!-- https://w3id.org/sdata/core/Intangible -->
<g id="node21" class="node">
<title>https://w3id.org/sdata/core/Intangible</title>
<path fill="#e8f1ff" stroke="#2b6cb0" stroke-width="1.6" d="M1861,-280C1861,-280 1805,-280 1805,-280 1799,-280 1793,-274 1793,-268 1793,-268 1793,-256 1793,-256 1793,-250 1799,-244 1805,-244 1805,-244 1861,-244 1861,-244 1867,-244 1873,-250 1873,-256 1873,-256 1873,-268 1873,-268 1873,-274 1867,-280 1861,-280"/>
<text text-anchor="middle" x="1833" y="-258.9" font-family="Helvetica,sans-Serif" font-size="12.00" fill="#1a365d">Intangible</text>
</g>
<!-- https://w3id.org/sdata/core/Intangible&#45;&gt;https://w3id.org/sdata/core/InformationArtifact -->
<g id="edge4" class="edge">
<title>https://w3id.org/sdata/core/Intangible&#45;&gt;https://w3id.org/sdata/core/InformationArtifact</title>
<path fill="none" stroke="#4a5568" stroke-width="1.6" d="M1792.88,-248.62C1786.28,-246.88 1779.48,-245.26 1773,-244 1621.17,-214.59 1581.31,-217.38 1427,-207 1395.17,-204.86 1170.61,-207.99 1140,-199 1117.22,-192.31 1094.36,-178.45 1077.25,-166.33"/>
<polygon fill="#4a5568" stroke="#4a5568" stroke-width="1.6" points="1078.91,-163.86 1070.28,-161.26 1075.41,-168.67 1078.91,-163.86"/>
</g>
<!-- https://w3id.org/sdata/core/Intangible&#45;&gt;https://w3id.org/sdata/core/InformationAgent -->
<g id="edge3" class="edge">
<title>https://w3id.org/sdata/core/Intangible&#45;&gt;https://w3id.org/sdata/core/InformationAgent</title>
<path fill="none" stroke="#4a5568" stroke-width="1.6" d="M1873.36,-251.64C1927.62,-238.7 2020.86,-215.13 2052,-199 2068.15,-190.63 2084.08,-178.05 2096.46,-167.03"/>
<polygon fill="#4a5568" stroke="#4a5568" stroke-width="1.6" points="2098.67,-169.03 2102.95,-161.11 2094.66,-164.64 2098.67,-169.03"/>
</g>
<!-- https://w3id.org/sdata/core/Intangible&#45;&gt;https://w3id.org/sdata/core/InformationSite -->
<g id="edge6" class="edge">
<title>https://w3id.org/sdata/core/Intangible&#45;&gt;https://w3id.org/sdata/core/InformationSite</title>
<path fill="none" stroke="#4a5568" stroke-width="1.6" d="M1824.78,-243.82C1819.57,-233.14 1812.6,-219.16 1806,-207 1799.07,-194.23 1790.93,-180.27 1784.05,-168.75"/>
<polygon fill="#4a5568" stroke="#4a5568" stroke-width="1.6" points="1786.45,-166.96 1779.53,-161.2 1781.35,-170.02 1786.45,-166.96"/>
</g>
<!-- https://w3id.org/sdata/core/Intangible&#45;&gt;https://w3id.org/sdata/core/InformationProcess -->
<g id="edge5" class="edge">
<title>https://w3id.org/sdata/core/Intangible&#45;&gt;https://w3id.org/sdata/core/InformationProcess</title>
<path fill="none" stroke="#4a5568" stroke-width="1.6" d="M1792.72,-249.33C1786.14,-247.5 1779.39,-245.66 1773,-244 1704.04,-226.06 1687.39,-218.1 1617,-207 1572.96,-200.06 1559.47,-212.57 1517,-199 1494.36,-191.76 1471.4,-178.05 1454.08,-166.13"/>
<polygon fill="#4a5568" stroke="#4a5568" stroke-width="1.6" points="1455.69,-163.62 1447.03,-161.16 1452.26,-168.49 1455.69,-163.62"/>
</g>
<!-- https://w3id.org/sdata/core/Intangible&#45;&gt;https://w3id.org/sdata/core/Information -->
<g id="edge2" class="edge">
<title>https://w3id.org/sdata/core/Intangible&#45;&gt;https://w3id.org/sdata/core/Information</title>
<path fill="none" stroke="#4a5568" stroke-width="1.6" d="M1873.02,-252.05C1886.89,-249.17 1902.58,-246.17 1917,-244 2016.82,-228.97 2279.06,-244.82 2369,-199 2382.65,-192.05 2394.25,-179.56 2402.73,-168.24"/>
<polygon fill="#4a5568" stroke="#4a5568" stroke-width="1.6" points="2405.35,-169.7 2407.85,-161.04 2400.5,-166.25 2405.35,-169.7"/>
</g>
<!-- https://w3id.org/sdata/core/Process -->
<g id="node22" class="node">
<title>https://w3id.org/sdata/core/Process</title>
<path fill="#e8f1ff" stroke="#2b6cb0" stroke-width="1.6" d="M1741,-280C1741,-280 1699,-280 1699,-280 1693,-280 1687,-274 1687,-268 1687,-268 1687,-256 1687,-256 1687,-250 1693,-244 1699,-244 1699,-244 1741,-244 1741,-244 1747,-244 1753,-250 1753,-256 1753,-256 1753,-268 1753,-268 1753,-274 1747,-280 1741,-280"/>
<text text-anchor="middle" x="1720" y="-258.9" font-family="Helvetica,sans-Serif" font-size="12.00" fill="#1a365d">Process</text>
</g>
<!-- https://w3id.org/sdata/core/Role -->
<g id="node23" class="node">
<title>https://w3id.org/sdata/core/Role</title>
<path fill="#e8f1ff" stroke="#2b6cb0" stroke-width="1.6" d="M1635,-280C1635,-280 1605,-280 1605,-280 1599,-280 1593,-274 1593,-268 1593,-268 1593,-256 1593,-256 1593,-250 1599,-244 1605,-244 1605,-244 1635,-244 1635,-244 1641,-244 1647,-250 1647,-256 1647,-256 1647,-268 1647,-268 1647,-274 1641,-280 1635,-280"/>
<text text-anchor="middle" x="1620" y="-258.9" font-family="Helvetica,sans-Serif" font-size="12.00" fill="#1a365d">Role</text>
</g>
<!-- https://w3id.org/sdata/core/Site -->
<g id="node24" class="node">
<title>https://w3id.org/sdata/core/Site</title>
<path fill="#e8f1ff" stroke="#2b6cb0" stroke-width="1.6" d="M1541,-280C1541,-280 1511,-280 1511,-280 1505,-280 1499,-274 1499,-268 1499,-268 1499,-256 1499,-256 1499,-250 1505,-244 1511,-244 1511,-244 1541,-244 1541,-244 1547,-244 1553,-250 1553,-256 1553,-256 1553,-268 1553,-268 1553,-274 1547,-280 1541,-280"/>
<text text-anchor="middle" x="1526" y="-258.9" font-family="Helvetica,sans-Serif" font-size="12.00" fill="#1a365d">Site</text>
</g>
<!-- https://w3id.org/sdata/core/Substance -->
<g id="node25" class="node">
<title>https://w3id.org/sdata/core/Substance</title>
<path fill="#e8f1ff" stroke="#2b6cb0" stroke-width="1.6" d="M1446.5,-280C1446.5,-280 1387.5,-280 1387.5,-280 1381.5,-280 1375.5,-274 1375.5,-268 1375.5,-268 1375.5,-256 1375.5,-256 1375.5,-250 1381.5,-244 1387.5,-244 1387.5,-244 1446.5,-244 1446.5,-244 1452.5,-244 1458.5,-250 1458.5,-256 1458.5,-256 1458.5,-268 1458.5,-268 1458.5,-274 1452.5,-280 1446.5,-280"/>
<text text-anchor="middle" x="1417" y="-258.9" font-family="Helvetica,sans-Serif" font-size="12.00" fill="#1a365d">Substance</text>
</g>
<!-- https://w3id.org/sdata/core/Tangible -->
<g id="node26" class="node">
<title>https://w3id.org/sdata/core/Tangible</title>
<path fill="#e8f1ff" stroke="#2b6cb0" stroke-width="1.6" d="M1323.5,-280C1323.5,-280 1278.5,-280 1278.5,-280 1272.5,-280 1266.5,-274 1266.5,-268 1266.5,-268 1266.5,-256 1266.5,-256 1266.5,-250 1272.5,-244 1278.5,-244 1278.5,-244 1323.5,-244 1323.5,-244 1329.5,-244 1335.5,-250 1335.5,-256 1335.5,-256 1335.5,-268 1335.5,-268 1335.5,-274 1329.5,-280 1323.5,-280"/>
<text text-anchor="middle" x="1301" y="-258.9" font-family="Helvetica,sans-Serif" font-size="12.00" fill="#1a365d">Tangible</text>
</g>
<!-- https://w3id.org/sdata/core/Tangible&#45;&gt;https://w3id.org/sdata/core/MaterialArtifact -->
<g id="edge14" class="edge">
<title>https://w3id.org/sdata/core/Tangible&#45;&gt;https://w3id.org/sdata/core/MaterialArtifact</title>
<path fill="none" stroke="#4a5568" stroke-width="1.6" d="M1266.12,-252.11C1190.1,-232.73 1008.33,-186.4 909.22,-161.14"/>
<polygon fill="#4a5568" stroke="#4a5568" stroke-width="1.6" points="909.74,-158.2 900.77,-158.98 908.27,-163.96 909.74,-158.2"/>
</g>
<!-- https://w3id.org/sdata/core/Tangible&#45;&gt;https://w3id.org/sdata/core/MaterialAgent -->
<g id="edge13" class="edge">
<title>https://w3id.org/sdata/core/Tangible&#45;&gt;https://w3id.org/sdata/core/MaterialAgent</title>
<path fill="none" stroke="#4a5568" stroke-width="1.6" d="M1335.63,-249.08C1342.32,-247.12 1349.33,-245.31 1356,-244 1578.41,-200.29 1657.37,-292.17 1864,-199 1879.44,-192.04 1893.34,-179.21 1903.66,-167.7"/>
<polygon fill="#4a5568" stroke="#4a5568" stroke-width="1.6" points="1906.03,-169.51 1909.31,-161.12 1901.51,-165.63 1906.03,-169.51"/>
</g>
<!-- https://w3id.org/sdata/core/Tangible&#45;&gt;https://w3id.org/sdata/core/MaterialSite -->
<g id="edge16" class="edge">
<title>https://w3id.org/sdata/core/Tangible&#45;&gt;https://w3id.org/sdata/core/MaterialSite</title>
<path fill="none" stroke="#4a5568" stroke-width="1.6" d="M1335.5,-249.88C1342.27,-247.83 1349.34,-245.78 1356,-244 1426.43,-225.22 1448.33,-235.09 1516,-208 1536.15,-199.93 1553.67,-182.59 1565.74,-167.99"/>
<polygon fill="#4a5568" stroke="#4a5568" stroke-width="1.6" points="1568.25,-169.61 1571.21,-161.1 1563.59,-165.91 1568.25,-169.61"/>
</g>
<!-- https://w3id.org/sdata/core/Tangible&#45;&gt;https://w3id.org/sdata/core/MaterialProcess -->
<g id="edge15" class="edge">
<title>https://w3id.org/sdata/core/Tangible&#45;&gt;https://w3id.org/sdata/core/MaterialProcess</title>
<path fill="none" stroke="#4a5568" stroke-width="1.6" d="M1288.79,-243.99C1274.42,-223.97 1250.46,-190.6 1234.21,-167.97"/>
<polygon fill="#4a5568" stroke="#4a5568" stroke-width="1.6" points="1236.6,-166.2 1229.23,-161.03 1231.77,-169.67 1236.6,-166.2"/>
</g>
<!-- https://w3id.org/sdata/core/Tangible&#45;&gt;https://w3id.org/sdata/core/Material -->
<g id="edge12" class="edge">
<title>https://w3id.org/sdata/core/Tangible&#45;&gt;https://w3id.org/sdata/core/Material</title>
<path fill="none" stroke="#4a5568" stroke-width="1.6" d="M1335.59,-248.89C1342.29,-246.95 1349.31,-245.19 1356,-244 1450.76,-227.16 2136.96,-245.91 2221,-199 2232.91,-192.35 2241.89,-180.22 2248.12,-169.04"/>
<polygon fill="#4a5568" stroke="#4a5568" stroke-width="1.6" points="2250.93,-170.08 2252.18,-161.16 2245.64,-167.36 2250.93,-170.08"/>
</g>
</g>
</svg>
