<?xml version="1.0" encoding="UTF-8" standalone="no"?>
<!DOCTYPE svg PUBLIC "-//W3C//DTD SVG 1.1//EN"
 "http://www.w3.org/Graphics/SVG/1.1/DTD/svg11.dtd">
<!-- Generated by graphviz version 2.43.0 (0)
 -->
<!-- Pages: 1 -->
<svg width="3247pt" height="299pt"
 viewBox="0.00 0.00 3247.40 299.40" xmlns="http://www.w3.org/2000/svg" xmlns:xlink="http://www.w3.org/1999/xlink">
<g id="graph0" class="graph" transform="scale(1 1) rotate(0) translate(25.2 274.2)">
<polygon fill="#fafbfc" stroke="transparent" points="-25.2,25.2 -25.2,-274.2 3222.2,-274.2 3222.2,25.2 -25.2,25.2"/>
<text text-anchor="middle" x="1598.5" y="-229" font-family="Helvetica,sans-Serif" font-size="20.00">sdata Core + Processtypes Hierarchy (sdata&#45;only)</text>
<!-- https://w3id.org/sdata/core/Agent -->
<g id="node1" class="node">
<title>https://w3id.org/sdata/core/Agent</title>
<path fill="#e8f1ff" stroke="#2b6cb0" stroke-width="1.6" d="M51.5,-219C51.5,-219 19.5,-219 19.5,-219 13.5,-219 7.5,-213 7.5,-207 7.5,-207 7.5,-195 7.5,-195 7.5,-189 13.5,-183 19.5,-183 19.5,-183 51.5,-183 51.5,-183 57.5,-183 63.5,-189 63.5,-195 63.5,-195 63.5,-207 63.5,-207 63.5,-213 57.5,-219 51.5,-219"/>
<text text-anchor="middle" x="35.5" y="-197.9" font-family="Helvetica,sans-Serif" font-size="12.00" fill="#1a365d">Agent</text>
</g>
<!-- https://w3id.org/sdata/core/Creation -->
<g id="node2" class="node">
<title>https://w3id.org/sdata/core/Creation</title>
<path fill="#eef8e7" stroke="#4f8a10" stroke-width="1.6" d="M59,-36C59,-36 12,-36 12,-36 6,-36 0,-30 0,-24 0,-24 0,-12 0,-12 0,-6 6,0 12,0 12,0 59,0 59,0 65,0 71,-6 71,-12 71,-12 71,-24 71,-24 71,-30 65,-36 59,-36"/>
<text text-anchor="middle" x="35.5" y="-14.9" font-family="Helvetica,sans-Serif" font-size="12.00" fill="#2f5d08">Creation</text>
</g>
<!-- https://w3id.org/sdata/core/Agent&#45;&gt;https://w3id.org/sdata/core/Creation -->
<!-- https://w3id.org/sdata/core/Artifact -->
<g id="node3" class="node">
<title>https://w3id.org/sdata/core/Artifact</title>
<path fill="#e8f1ff" stroke="#2b6cb0" stroke-width="1.6" d="M157,-219C157,-219 116,-219 116,-219 110,-219 104,-213 104,-207 104,-207 104,-195 104,-195 104,-189 110,-183 116,-183 116,-183 157,-183 157,-183 163,-183 169,-189 169,-195 169,-195 169,-207 169,-207 169,-213 163,-219 157,-219"/>
<text text-anchor="middle" x="136.5" y="-197.9" font-family="Helvetica,sans-Serif" font-size="12.00" fill="#1a365d">Artifact</text>
</g>
<!-- https://w3id.org/sdata/core/Identifier -->
<g id="node4" class="node">
<title>https://w3id.org/sdata/core/Identifier</title>
<path fill="#e8f1ff" stroke="#2b6cb0" stroke-width="1.6" d="M272,-219C272,-219 221,-219 221,-219 215,-219 209,-213 209,-207 209,-207 209,-195 209,-195 209,-189 215,-183 221,-183 221,-183 272,-183 272,-183 278,-183 284,-189 284,-195 284,-195 284,-207 284,-207 284,-213 278,-219 272,-219"/>
<text text-anchor="middle" x="246.5" y="-197.9" font-family="Helvetica,sans-Serif" font-size="12.00" fill="#1a365d">Identifier</text>
</g>
<!-- https://w3id.org/sdata/core/Information -->
<g id="node5" class="node">
<title>https://w3id.org/sdata/core/Information</title>
<path fill="#e8f1ff" stroke="#2b6cb0" stroke-width="1.6" d="M402.5,-219C402.5,-219 336.5,-219 336.5,-219 330.5,-219 324.5,-213 324.5,-207 324.5,-207 324.5,-195 324.5,-195 324.5,-189 330.5,-183 336.5,-183 336.5,-183 402.5,-183 402.5,-183 408.5,-183 414.5,-189 414.5,-195 414.5,-195 414.5,-207 414.5,-207 414.5,-213 408.5,-219 402.5,-219"/>
<text text-anchor="middle" x="369.5" y="-197.9" font-family="Helvetica,sans-Serif" font-size="12.00" fill="#1a365d">Information</text>
</g>
<!-- https://w3id.org/sdata/core/InformationAgent -->
<g id="node6" class="node">
<title>https://w3id.org/sdata/core/InformationAgent</title>
<path fill="#e8f1ff" stroke="#2b6cb0" stroke-width="1.6" d="M720,-219C720,-219 615,-219 615,-219 609,-219 603,-213 603,-207 603,-207 603,-195 603,-195 603,-189 609,-183 615,-183 615,-183 720,-183 720,-183 726,-183 732,-189 732,-195 732,-195 732,-207 732,-207 732,-213 726,-219 720,-219"/>
<text text-anchor="middle" x="667.5" y="-197.9" font-family="Helvetica,sans-Serif" font-size="12.00" fill="#1a365d">Information Agent</text>
</g>
<!-- https://w3id.org/sdata/core/InformationArtifact -->
<g id="node7" class="node">
<title>https://w3id.org/sdata/core/InformationArtifact</title>
<path fill="#e8f1ff" stroke="#2b6cb0" stroke-width="1.6" d="M1085.5,-219C1085.5,-219 971.5,-219 971.5,-219 965.5,-219 959.5,-213 959.5,-207 959.5,-207 959.5,-195 959.5,-195 959.5,-189 965.5,-183 971.5,-183 971.5,-183 1085.5,-183 1085.5,-183 1091.5,-183 1097.5,-189 1097.5,-195 1097.5,-195 1097.5,-207 1097.5,-207 1097.5,-213 1091.5,-219 1085.5,-219"/>
<text text-anchor="middle" x="1028.5" y="-197.9" font-family="Helvetica,sans-Serif" font-size="12.00" fill="#1a365d">Information Artifact</text>
</g>
<!-- https://w3id.org/sdata/core/InformationProcess -->
<g id="node8" class="node">
<title>https://w3id.org/sdata/core/InformationProcess</title>
<path fill="#e8f1ff" stroke="#2b6cb0" stroke-width="1.6" d="M1461,-219C1461,-219 1346,-219 1346,-219 1340,-219 1334,-213 1334,-207 1334,-207 1334,-195 1334,-195 1334,-189 1340,-183 1346,-183 1346,-183 1461,-183 1461,-183 1467,-183 1473,-189 1473,-195 1473,-195 1473,-207 1473,-207 1473,-213 1467,-219 1461,-219"/>
<text text-anchor="middle" x="1403.5" y="-197.9" font-family="Helvetica,sans-Serif" font-size="12.00" fill="#1a365d">Information Process</text>
</g>
<!-- https://w3id.org/sdata/core/InformationSite -->
<g id="node9" class="node">
<title>https://w3id.org/sdata/core/InformationSite</title>
<path fill="#e8f1ff" stroke="#2b6cb0" stroke-width="1.6" d="M1816,-219C1816,-219 1723,-219 1723,-219 1717,-219 1711,-213 1711,-207 1711,-207 1711,-195 1711,-195 1711,-189 1717,-183 1723,-183 1723,-183 1816,-183 1816,-183 1822,-183 1828,-189 1828,-195 1828,-195 1828,-207 1828,-207 1828,-213 1822,-219 1816,-219"/>
<text text-anchor="middle" x="1769.5" y="-197.9" font-family="Helvetica,sans-Serif" font-size="12.00" fill="#1a365d">Information Site</text>
</g>
<!-- https://w3id.org/sdata/core/Material -->
<g id="node10" class="node">
<title>https://w3id.org/sdata/core/Material</title>
<path fill="#e8f1ff" stroke="#2b6cb0" stroke-width="1.6" d="M551,-219C551,-219 506,-219 506,-219 500,-219 494,-213 494,-207 494,-207 494,-195 494,-195 494,-189 500,-183 506,-183 506,-183 551,-183 551,-183 557,-183 563,-189 563,-195 563,-195 563,-207 563,-207 563,-213 557,-219 551,-219"/>
<text text-anchor="middle" x="528.5" y="-197.9" font-family="Helvetica,sans-Serif" font-size="12.00" fill="#1a365d">Material</text>
</g>
<!-- https://w3id.org/sdata/core/Material&#45;&gt;https://w3id.org/sdata/core/Information -->
<g id="edge2" class="edge">
<title>https://w3id.org/sdata/core/Material&#45;&gt;https://w3id.org/sdata/core/Information</title>
<path fill="none" stroke="#6b7280" stroke-width="1.6" stroke-dasharray="5,2" d="M493.87,-201C470.63,-201 439.79,-201 414.64,-201"/>
<text text-anchor="middle" x="454.25" y="-207.8" font-family="Helvetica,sans-Serif" font-size="14.00" fill="#6b7280">dual</text>
</g>
<!-- https://w3id.org/sdata/core/MaterialAgent -->
<g id="node11" class="node">
<title>https://w3id.org/sdata/core/MaterialAgent</title>
<path fill="#e8f1ff" stroke="#2b6cb0" stroke-width="1.6" d="M907.5,-219C907.5,-219 823.5,-219 823.5,-219 817.5,-219 811.5,-213 811.5,-207 811.5,-207 811.5,-195 811.5,-195 811.5,-189 817.5,-183 823.5,-183 823.5,-183 907.5,-183 907.5,-183 913.5,-183 919.5,-189 919.5,-195 919.5,-195 919.5,-207 919.5,-207 919.5,-213 913.5,-219 907.5,-219"/>
<text text-anchor="middle" x="865.5" y="-197.9" font-family="Helvetica,sans-Serif" font-size="12.00" fill="#1a365d">Material Agent</text>
</g>
<!-- https://w3id.org/sdata/core/MaterialAgent&#45;&gt;https://w3id.org/sdata/core/InformationAgent -->
<g id="edge3" class="edge">
<title>https://w3id.org/sdata/core/MaterialAgent&#45;&gt;https://w3id.org/sdata/core/InformationAgent</title>
<path fill="none" stroke="#6b7280" stroke-width="1.6" stroke-dasharray="5,2" d="M811.3,-201C786.81,-201 757.68,-201 732.06,-201"/>
<text text-anchor="middle" x="771.75" y="-207.8" font-family="Helvetica,sans-Serif" font-size="14.00" fill="#6b7280">dual</text>
</g>
<!-- https://w3id.org/sdata/core/MaterialArtifact -->
<g id="node12" class="node">
<title>https://w3id.org/sdata/core/MaterialArtifact</title>
<path fill="#e8f1ff" stroke="#2b6cb0" stroke-width="1.6" d="M1282,-219C1282,-219 1189,-219 1189,-219 1183,-219 1177,-213 1177,-207 1177,-207 1177,-195 1177,-195 1177,-189 1183,-183 1189,-183 1189,-183 1282,-183 1282,-183 1288,-183 1294,-189 1294,-195 1294,-195 1294,-207 1294,-207 1294,-213 1288,-219 1282,-219"/>
<text text-anchor="middle" x="1235.5" y="-197.9" font-family="Helvetica,sans-Serif" font-size="12.00" fill="#1a365d">Material Artifact</text>
</g>
<!-- https://w3id.org/sdata/core/MaterialArtifact&#45;&gt;https://w3id.org/sdata/core/InformationArtifact -->
<g id="edge4" class="edge">
<title>https://w3id.org/sdata/core/MaterialArtifact&#45;&gt;https://w3id.org/sdata/core/InformationArtifact</title>
<path fill="none" stroke="#6b7280" stroke-width="1.6" stroke-dasharray="5,2" d="M1176.73,-201C1152.12,-201 1123.34,-201 1097.72,-201"/>
<text text-anchor="middle" x="1137.25" y="-207.8" font-family="Helvetica,sans-Serif" font-size="14.00" fill="#6b7280">dual</text>
</g>
<!-- https://w3id.org/sdata/core/MaterialProcess -->
<g id="node13" class="node">
<title>https://w3id.org/sdata/core/MaterialProcess</title>
<path fill="#e8f1ff" stroke="#2b6cb0" stroke-width="1.6" d="M1658.5,-219C1658.5,-219 1564.5,-219 1564.5,-219 1558.5,-219 1552.5,-213 1552.5,-207 1552.5,-207 1552.5,-195 1552.5,-195 1552.5,-189 1558.5,-183 1564.5,-183 1564.5,-183 1658.5,-183 1658.5,-183 1664.5,-183 1670.5,-189 1670.5,-195 1670.5,-195 1670.5,-207 1670.5,-207 1670.5,-213 1664.5,-219 1658.5,-219"/>
<text text-anchor="middle" x="1611.5" y="-197.9" font-family="Helvetica,sans-Serif" font-size="12.00" fill="#1a365d">Material Process</text>
</g>
<!-- https://w3id.org/sdata/core/MaterialProcess&#45;&gt;https://w3id.org/sdata/core/InformationProcess -->
<g id="edge5" class="edge">
<title>https://w3id.org/sdata/core/MaterialProcess&#45;&gt;https://w3id.org/sdata/core/InformationProcess</title>
<path fill="none" stroke="#6b7280" stroke-width="1.6" stroke-dasharray="5,2" d="M1552.44,-201C1527.72,-201 1498.8,-201 1473.05,-201"/>
<text text-anchor="middle" x="1512.75" y="-207.8" font-family="Helvetica,sans-Serif" font-size="14.00" fill="#6b7280">dual</text>
</g>
<!-- https://w3id.org/sdata/core/MaterialSite -->
<g id="node14" class="node">
<title>https://w3id.org/sdata/core/MaterialSite</title>
<path fill="#e8f1ff" stroke="#2b6cb0" stroke-width="1.6" d="M1991.5,-219C1991.5,-219 1919.5,-219 1919.5,-219 1913.5,-219 1907.5,-213 1907.5,-207 1907.5,-207 1907.5,-195 1907.5,-195 1907.5,-189 1913.5,-183 1919.5,-183 1919.5,-183 1991.5,-183 1991.5,-183 1997.5,-183 2003.5,-189 2003.5,-195 2003.5,-195 2003.5,-207 2003.5,-207 2003.5,-213 1997.5,-219 1991.5,-219"/>
<text text-anchor="middle" x="1955.5" y="-197.9" font-family="Helvetica,sans-Serif" font-size="12.00" fill="#1a365d">Material Site</text>
</g>
<!-- https://w3id.org/sdata/core/MaterialSite&#45;&gt;https://w3id.org/sdata/core/InformationSite -->
<g id="edge6" class="edge">
<title>https://w3id.org/sdata/core/MaterialSite&#45;&gt;https://w3id.org/sdata/core/InformationSite</title>
<path fill="none" stroke="#6b7280" stroke-width="1.6" stroke-dasharray="5,2" d="M1907.47,-201C1883.24,-201 1853.65,-201 1828.1,-201"/>
<text text-anchor="middle" x="1867.75" y="-207.8" font-family="Helvetica,sans-Serif" font-size="14.00" fill="#6b7280">dual</text>
</g>
<!-- https://w3id.org/sdata/core/Process -->
<g id="node15" class="node">
<title>https://w3id.org/sdata/core/Process</title>
<path fill="#e8f1ff" stroke="#2b6cb0" stroke-width="1.6" d="M2097.5,-219C2097.5,-219 2055.5,-219 2055.5,-219 2049.5,-219 2043.5,-213 2043.5,-207 2043.5,-207 2043.5,-195 2043.5,-195 2043.5,-189 2049.5,-183 2055.5,-183 2055.5,-183 2097.5,-183 2097.5,-183 2103.5,-183 2109.5,-189 2109.5,-195 2109.5,-195 2109.5,-207 2109.5,-207 2109.5,-213 2103.5,-219 2097.5,-219"/>
<text text-anchor="middle" x="2076.5" y="-197.9" font-family="Helvetica,sans-Serif" font-size="12.00" fill="#1a365d">Process</text>
</g>
<!-- https://w3id.org/sdata/core/Role -->
<g id="node16" class="node">
<title>https://w3id.org/sdata/core/Role</title>
<path fill="#e8f1ff" stroke="#2b6cb0" stroke-width="1.6" d="M2191.5,-219C2191.5,-219 2161.5,-219 2161.5,-219 2155.5,-219 2149.5,-213 2149.5,-207 2149.5,-207 2149.5,-195 2149.5,-195 2149.5,-189 2155.5,-183 2161.5,-183 2161.5,-183 2191.5,-183 2191.5,-183 2197.5,-183 2203.5,-189 2203.5,-195 2203.5,-195 2203.5,-207 2203.5,-207 2203.5,-213 2197.5,-219 2191.5,-219"/>
<text text-anchor="middle" x="2176.5" y="-197.9" font-family="Helvetica,sans-Serif" font-size="12.00" fill="#1a365d">Role</text>
</g>
<!-- https://w3id.org/sdata/core/Site -->
<g id="node17" class="node">
<title>https://w3id.org/sdata/core/Site</title>
<path fill="#e8f1ff" stroke="#2b6cb0" stroke-width="1.6" d="M2285.5,-219C2285.5,-219 2255.5,-219 2255.5,-219 2249.5,-219 2243.5,-213 2243.5,-207 2243.5,-207 2243.5,-195 2243.5,-195 2243.5,-189 2249.5,-183 2255.5,-183 2255.5,-183 2285.5,-183 2285.5,-183 2291.5,-183 2297.5,-189 2297.5,-195 2297.5,-195 2297.5,-207 2297.5,-207 2297.5,-213 2291.5,-219 2285.5,-219"/>
<text text-anchor="middle" x="2270.5" y="-197.9" font-family="Helvetica,sans-Serif" font-size="12.00" fill="#1a365d">Site</text>
</g>
<!-- https://w3id.org/sdata/core/Substance -->
<g id="node18" class="node">
<title>https://w3id.org/sdata/core/Substance</title>
<path fill="#e8f1ff" stroke="#2b6cb0" stroke-width="1.6" d="M2409,-219C2409,-219 2350,-219 2350,-219 2344,-219 2338,-213 2338,-207 2338,-207 2338,-195 2338,-195 2338,-189 2344,-183 2350,-183 2350,-183 2409,-183 2409,-183 2415,-183 2421,-189 2421,-195 2421,-195 2421,-207 2421,-207 2421,-213 2415,-219 2409,-219"/>
<text text-anchor="middle" x="2379.5" y="-197.9" font-family="Helvetica,sans-Serif" font-size="12.00" fill="#1a365d">Substance</text>
</g>
<!-- https://w3id.org/sdata/core/Destruction -->
<g id="node19" class="node">
<title>https://w3id.org/sdata/core/Destruction</title>
<path fill="#eef8e7" stroke="#4f8a10" stroke-width="1.6" d="M2539.5,-219C2539.5,-219 2473.5,-219 2473.5,-219 2467.5,-219 2461.5,-213 2461.5,-207 2461.5,-207 2461.5,-195 2461.5,-195 2461.5,-189 2467.5,-183 2473.5,-183 2473.5,-183 2539.5,-183 2539.5,-183 2545.5,-183 2551.5,-189 2551.5,-195 2551.5,-195 2551.5,-207 2551.5,-207 2551.5,-213 2545.5,-219 2539.5,-219"/>
<text text-anchor="middle" x="2506.5" y="-197.9" font-family="Helvetica,sans-Serif" font-size="12.00" fill="#2f5d08">Destruction</text>
</g>
<!-- https://w3id.org/sdata/core/Observation -->
<g id="node20" class="node">
<title>https://w3id.org/sdata/core/Observation</title>
<path fill="#eef8e7" stroke="#4f8a10" stroke-width="1.6" d="M2673,-219C2673,-219 2604,-219 2604,-219 2598,-219 2592,-213 2592,-207 2592,-207 2592,-195 2592,-195 2592,-189 2598,-183 2604,-183 2604,-183 2673,-183 2673,-183 2679,-183 2685,-189 2685,-195 2685,-195 2685,-207 2685,-207 2685,-213 2679,-219 2673,-219"/>
<text text-anchor="middle" x="2638.5" y="-197.9" font-family="Helvetica,sans-Serif" font-size="12.00" fill="#2f5d08">Observation</text>
</g>
<!-- https://w3id.org/sdata/core/Preservation -->
<g id="node21" class="node">
<title>https://w3id.org/sdata/core/Preservation</title>
<path fill="#eef8e7" stroke="#4f8a10" stroke-width="1.6" d="M2808,-219C2808,-219 2737,-219 2737,-219 2731,-219 2725,-213 2725,-207 2725,-207 2725,-195 2725,-195 2725,-189 2731,-183 2737,-183 2737,-183 2808,-183 2808,-183 2814,-183 2820,-189 2820,-195 2820,-195 2820,-207 2820,-207 2820,-213 2814,-219 2808,-219"/>
<text text-anchor="middle" x="2772.5" y="-197.9" font-family="Helvetica,sans-Serif" font-size="12.00" fill="#2f5d08">Preservation</text>
</g>
<!-- https://w3id.org/sdata/core/Recovery -->
<g id="node22" class="node">
<title>https://w3id.org/sdata/core/Recovery</title>
<path fill="#eef8e7" stroke="#4f8a10" stroke-width="1.6" d="M2924.5,-219C2924.5,-219 2872.5,-219 2872.5,-219 2866.5,-219 2860.5,-213 2860.5,-207 2860.5,-207 2860.5,-195 2860.5,-195 2860.5,-189 2866.5,-183 2872.5,-183 2872.5,-183 2924.5,-183 2924.5,-183 2930.5,-183 2936.5,-189 2936.5,-195 2936.5,-195 2936.5,-207 2936.5,-207 2936.5,-213 2930.5,-219 2924.5,-219"/>
<text text-anchor="middle" x="2898.5" y="-197.9" font-family="Helvetica,sans-Serif" font-size="12.00" fill="#2f5d08">Recovery</text>
</g>
<!-- https://w3id.org/sdata/core/Transfer -->
<g id="node23" class="node">
<title>https://w3id.org/sdata/core/Transfer</title>
<path fill="#eef8e7" stroke="#4f8a10" stroke-width="1.6" d="M3034,-219C3034,-219 2989,-219 2989,-219 2983,-219 2977,-213 2977,-207 2977,-207 2977,-195 2977,-195 2977,-189 2983,-183 2989,-183 2989,-183 3034,-183 3034,-183 3040,-183 3046,-189 3046,-195 3046,-195 3046,-207 3046,-207 3046,-213 3040,-219 3034,-219"/>
<text text-anchor="middle" x="3011.5" y="-197.9" font-family="Helvetica,sans-Serif" font-size="12.00" fill="#2f5d08">Transfer</text>
</g>
<!-- https://w3id.org/sdata/core/Transformation -->
<g id="node24" class="node">
<title>https://w3id.org/sdata/core/Transformation</title>
<path fill="#eef8e7" stroke="#4f8a10" stroke-width="1.6" d="M3185,-219C3185,-219 3098,-219 3098,-219 3092,-219 3086,-213 3086,-207 3086,-207 3086,-195 3086,-195 3086,-189 3092,-183 3098,-183 3098,-183 3185,-183 3185,-183 3191,-183 3197,-189 3197,-195 3197,-195 3197,-207 3197,-207 3197,-213 3191,-219 3185,-219"/>
<text text-anchor="middle" x="3141.5" y="-197.9" font-family="Helvetica,sans-Serif" font-size="12.00" fill="#2f5d08">Transformation</text>
</g>
</g>
</svg>
