<?xml version="1.0" encoding="UTF-8" standalone="no"?>
<!DOCTYPE svg PUBLIC "-//W3C//DTD SVG 1.1//EN"
 "http://www.w3.org/Graphics/SVG/1.1/DTD/svg11.dtd">
<!-- Generated by graphviz version 2.43.0 (0)
 -->
<!-- Pages: 1 -->
<svg width="864pt" height="1016pt"
 viewBox="0.00 0.00 864.40 1016.42" xmlns="http://www.w3.org/2000/svg" xmlns:xlink="http://www.w3.org/1999/xlink">
<g id="graph0" class="graph" transform="scale(1 1) rotate(0) translate(25.2 991.22)">
<polygon fill="#fafbfc" stroke="transparent" points="-25.2,25.2 -25.2,-991.22 839.2,-991.22 839.2,25.2 -25.2,25.2"/>
<text text-anchor="middle" x="407" y="-946.02" font-family="Helvetica,sans-Serif" font-size="20.00">sdata R&#45;Strategies Map</text>
<g id="clust1" class="cluster">
<title>cluster_groups</title>
<path fill="#fafbfc" stroke="#9ad9bf" d="M32,-396.02C32,-396.02 197,-396.02 197,-396.02 203,-396.02 209,-402.02 209,-408.02 209,-408.02 209,-754.02 209,-754.02 209,-760.02 203,-766.02 197,-766.02 197,-766.02 32,-766.02 32,-766.02 26,-766.02 20,-760.02 20,-754.02 20,-754.02 20,-408.02 20,-408.02 20,-402.02 26,-396.02 32,-396.02"/>
<text text-anchor="middle" x="114.5" y="-746.02" font-family="Helvetica,sans-Serif" font-size="20.00">Level Groups</text>
</g>
<g id="clust2" class="cluster">
<title>cluster_scheme</title>
<path fill="#fafbfc" stroke="#90b5e8" d="M20,-306.02C20,-306.02 209,-306.02 209,-306.02 215,-306.02 221,-312.02 221,-318.02 221,-318.02 221,-376.02 221,-376.02 221,-382.02 215,-388.02 209,-388.02 209,-388.02 20,-388.02 20,-388.02 14,-388.02 8,-382.02 8,-376.02 8,-376.02 8,-318.02 8,-318.02 8,-312.02 14,-306.02 20,-306.02"/>
<text text-anchor="middle" x="114.5" y="-368.02" font-family="Helvetica,sans-Serif" font-size="20.00">R&#45;Strategy Scheme</text>
</g>
<g id="clust3" class="cluster">
<title>cluster_concepts</title>
<path fill="#fafbfc" stroke="#f3c887" d="M347,-135.02C347,-135.02 521,-135.02 521,-135.02 527,-135.02 533,-141.02 533,-147.02 533,-147.02 533,-853.02 533,-853.02 533,-859.02 527,-865.02 521,-865.02 521,-865.02 347,-865.02 347,-865.02 341,-865.02 335,-859.02 335,-853.02 335,-853.02 335,-147.02 335,-147.02 335,-141.02 341,-135.02 347,-135.02"/>
<text text-anchor="middle" x="434" y="-845.02" font-family="Helvetica,sans-Serif" font-size="20.00">R&#45;Concepts</text>
</g>
<g id="clust4" class="cluster">
<title>cluster_verbs</title>
<path fill="#fafbfc" stroke="#c3a7f2" d="M661,-207.02C661,-207.02 802,-207.02 802,-207.02 808,-207.02 814,-213.02 814,-219.02 814,-219.02 814,-637.02 814,-637.02 814,-643.02 808,-649.02 802,-649.02 802,-649.02 661,-649.02 661,-649.02 655,-649.02 649,-643.02 649,-637.02 649,-637.02 649,-219.02 649,-219.02 649,-213.02 655,-207.02 661,-207.02"/>
<text text-anchor="middle" x="731.5" y="-629.02" font-family="Helvetica,sans-Serif" font-size="20.00">Lifecycle Verbs</text>
</g>
<!-- https://w3id.org/sdata/r&#45;strategies/ComponentLevel -->
<g id="node1" class="node">
<title>https://w3id.org/sdata/r&#45;strategies/ComponentLevel</title>
<path fill="#f0fff9" stroke="#2f855a" stroke-width="1.4" d="M189,-656.02C189,-656.02 40,-656.02 40,-656.02 34,-656.02 28,-650.02 28,-644.02 28,-644.02 28,-632.02 28,-632.02 28,-626.02 34,-620.02 40,-620.02 40,-620.02 189,-620.02 189,-620.02 195,-620.02 201,-626.02 201,-632.02 201,-632.02 201,-644.02 201,-644.02 201,-650.02 195,-656.02 189,-656.02"/>
<text text-anchor="middle" x="114.5" y="-635.22" font-family="Helvetica,sans-Serif" font-size="11.00" fill="#1c4532">Component&#45;level strategies</text>
</g>
<!-- https://w3id.org/sdata/r&#45;strategies/R6_Remanufacture -->
<g id="node13" class="node">
<title>https://w3id.org/sdata/r&#45;strategies/R6_Remanufacture</title>
<path fill="#fff4e5" stroke="#b7791f" stroke-width="1.4" d="M507,-611.02C507,-611.02 361,-611.02 361,-611.02 355,-611.02 349,-605.02 349,-599.02 349,-599.02 349,-587.02 349,-587.02 349,-581.02 355,-575.02 361,-575.02 361,-575.02 507,-575.02 507,-575.02 513,-575.02 519,-581.02 519,-587.02 519,-587.02 519,-599.02 519,-599.02 519,-605.02 513,-611.02 507,-611.02"/>
<text text-anchor="middle" x="434" y="-590.22" font-family="Helvetica,sans-Serif" font-size="11.00" fill="#7b341e">R6 Remanufacture [rank 6]</text>
</g>
<!-- https://w3id.org/sdata/r&#45;strategies/ComponentLevel&#45;&gt;https://w3id.org/sdata/r&#45;strategies/R6_Remanufacture -->
<g id="edge1" class="edge">
<title>https://w3id.org/sdata/r&#45;strategies/ComponentLevel&#45;&gt;https://w3id.org/sdata/r&#45;strategies/R6_Remanufacture</title>
<path fill="none" stroke="#2f855a" stroke-width="1.4" stroke-dasharray="1,5" d="M163.94,-656.02C212.43,-672.71 283.17,-692.99 307,-679.02 328.97,-666.14 315.62,-645.55 335,-629.02 341.6,-623.39 349.16,-618.61 357.08,-614.56"/>
<polygon fill="#2f855a" stroke="#2f855a" stroke-width="1.4" points="358.44,-617.01 364.44,-611.03 356.02,-611.96 358.44,-617.01"/>
<text text-anchor="middle" x="278" y="-686.02" font-family="Helvetica,sans-Serif" font-size="10.00">member</text>
</g>
<!-- https://w3id.org/sdata/r&#45;strategies/R7_Repurpose -->
<g id="node14" class="node">
<title>https://w3id.org/sdata/r&#45;strategies/R7_Repurpose</title>
<path fill="#fff4e5" stroke="#b7791f" stroke-width="1.4" d="M494,-539.02C494,-539.02 374,-539.02 374,-539.02 368,-539.02 362,-533.02 362,-527.02 362,-527.02 362,-515.02 362,-515.02 362,-509.02 368,-503.02 374,-503.02 374,-503.02 494,-503.02 494,-503.02 500,-503.02 506,-509.02 506,-515.02 506,-515.02 506,-527.02 506,-527.02 506,-533.02 500,-539.02 494,-539.02"/>
<text text-anchor="middle" x="434" y="-518.22" font-family="Helvetica,sans-Serif" font-size="11.00" fill="#7b341e">R7 Repurpose [rank 7]</text>
</g>
<!-- https://w3id.org/sdata/r&#45;strategies/ComponentLevel&#45;&gt;https://w3id.org/sdata/r&#45;strategies/R7_Repurpose -->
<g id="edge2" class="edge">
<title>https://w3id.org/sdata/r&#45;strategies/ComponentLevel&#45;&gt;https://w3id.org/sdata/r&#45;strategies/R7_Repurpose</title>
<path fill="none" stroke="#2f855a" stroke-width="1.4" stroke-dasharray="1,5" d="M184.49,-619.93C221.67,-609.05 267.82,-593.69 307,-575.02 320.36,-568.66 321.75,-563.61 335,-557.02 345.98,-551.56 358.01,-546.47 369.76,-541.93"/>
<polygon fill="#2f855a" stroke="#2f855a" stroke-width="1.4" points="370.93,-544.48 377.42,-539.04 368.95,-539.24 370.93,-544.48"/>
<text text-anchor="middle" x="278" y="-601.02" font-family="Helvetica,sans-Serif" font-size="10.00">member</text>
</g>
<!-- https://w3id.org/sdata/r&#45;strategies/DesignLevel -->
<g id="node2" class="node">
<title>https://w3id.org/sdata/r&#45;strategies/DesignLevel</title>
<path fill="#f0fff9" stroke="#2f855a" stroke-width="1.4" d="M176,-728.02C176,-728.02 53,-728.02 53,-728.02 47,-728.02 41,-722.02 41,-716.02 41,-716.02 41,-704.02 41,-704.02 41,-698.02 47,-692.02 53,-692.02 53,-692.02 176,-692.02 176,-692.02 182,-692.02 188,-698.02 188,-704.02 188,-704.02 188,-716.02 188,-716.02 188,-722.02 182,-728.02 176,-728.02"/>
<text text-anchor="middle" x="114.5" y="-707.22" font-family="Helvetica,sans-Serif" font-size="11.00" fill="#1c4532">Design&#45;level strategies</text>
</g>
<!-- https://w3id.org/sdata/r&#45;strategies/R0_Refuse -->
<g id="node7" class="node">
<title>https://w3id.org/sdata/r&#45;strategies/R0_Refuse</title>
<path fill="#fff4e5" stroke="#b7791f" stroke-width="1.4" d="M483.5,-755.02C483.5,-755.02 384.5,-755.02 384.5,-755.02 378.5,-755.02 372.5,-749.02 372.5,-743.02 372.5,-743.02 372.5,-731.02 372.5,-731.02 372.5,-725.02 378.5,-719.02 384.5,-719.02 384.5,-719.02 483.5,-719.02 483.5,-719.02 489.5,-719.02 495.5,-725.02 495.5,-731.02 495.5,-731.02 495.5,-743.02 495.5,-743.02 495.5,-749.02 489.5,-755.02 483.5,-755.02"/>
<text text-anchor="middle" x="434" y="-734.22" font-family="Helvetica,sans-Serif" font-size="11.00" fill="#7b341e">R0 Refuse [rank 0]</text>
</g>
<!-- https://w3id.org/sdata/r&#45;strategies/DesignLevel&#45;&gt;https://w3id.org/sdata/r&#45;strategies/R0_Refuse -->
<g id="edge3" class="edge">
<title>https://w3id.org/sdata/r&#45;strategies/DesignLevel&#45;&gt;https://w3id.org/sdata/r&#45;strategies/R0_Refuse</title>
<path fill="none" stroke="#2f855a" stroke-width="1.4" stroke-dasharray="1,5" d="M122.57,-728.21C138.45,-766.18 180.96,-853.12 249,-887.02 272.07,-898.52 286.71,-902.93 307,-887.02 348.06,-854.83 300.22,-811.91 335,-773.02 343.13,-763.94 353.75,-757.14 365,-752.05"/>
<polygon fill="#2f855a" stroke="#2f855a" stroke-width="1.4" points="366.14,-754.61 372.46,-748.95 363.99,-749.44 366.14,-754.61"/>
<text text-anchor="middle" x="278" y="-900.02" font-family="Helvetica,sans-Serif" font-size="10.00">member</text>
</g>
<!-- https://w3id.org/sdata/r&#45;strategies/R1_Rethink -->
<g id="node8" class="node">
<title>https://w3id.org/sdata/r&#45;strategies/R1_Rethink</title>
<path fill="#fff4e5" stroke="#b7791f" stroke-width="1.4" d="M485.5,-827.02C485.5,-827.02 382.5,-827.02 382.5,-827.02 376.5,-827.02 370.5,-821.02 370.5,-815.02 370.5,-815.02 370.5,-803.02 370.5,-803.02 370.5,-797.02 376.5,-791.02 382.5,-791.02 382.5,-791.02 485.5,-791.02 485.5,-791.02 491.5,-791.02 497.5,-797.02 497.5,-803.02 497.5,-803.02 497.5,-815.02 497.5,-815.02 497.5,-821.02 491.5,-827.02 485.5,-827.02"/>
<text text-anchor="middle" x="434" y="-806.22" font-family="Helvetica,sans-Serif" font-size="11.00" fill="#7b341e">R1 Rethink [rank 1]</text>
</g>
<!-- https://w3id.org/sdata/r&#45;strategies/DesignLevel&#45;&gt;https://w3id.org/sdata/r&#45;strategies/R1_Rethink -->
<g id="edge4" class="edge">
<title>https://w3id.org/sdata/r&#45;strategies/DesignLevel&#45;&gt;https://w3id.org/sdata/r&#45;strategies/R1_Rethink</title>
<path fill="none" stroke="#2f855a" stroke-width="1.4" stroke-dasharray="1,5" d="M120.69,-728.25C133.88,-770.7 173.15,-875.68 249,-917.02 310.77,-950.69 382.16,-874.96 414.9,-833.62"/>
<polygon fill="#2f855a" stroke="#2f855a" stroke-width="1.4" points="417.3,-835.09 420,-827.06 412.88,-831.66 417.3,-835.09"/>
<text text-anchor="middle" x="278" y="-928.02" font-family="Helvetica,sans-Serif" font-size="10.00">member</text>
</g>
<!-- https://w3id.org/sdata/r&#45;strategies/R2_Reduce -->
<g id="node9" class="node">
<title>https://w3id.org/sdata/r&#45;strategies/R2_Reduce</title>
<path fill="#fff4e5" stroke="#b7791f" stroke-width="1.4" d="M485,-683.02C485,-683.02 383,-683.02 383,-683.02 377,-683.02 371,-677.02 371,-671.02 371,-671.02 371,-659.02 371,-659.02 371,-653.02 377,-647.02 383,-647.02 383,-647.02 485,-647.02 485,-647.02 491,-647.02 497,-653.02 497,-659.02 497,-659.02 497,-671.02 497,-671.02 497,-677.02 491,-683.02 485,-683.02"/>
<text text-anchor="middle" x="434" y="-662.22" font-family="Helvetica,sans-Serif" font-size="11.00" fill="#7b341e">R2 Reduce [rank 2]</text>
</g>
<!-- https://w3id.org/sdata/r&#45;strategies/DesignLevel&#45;&gt;https://w3id.org/sdata/r&#45;strategies/R2_Reduce -->
<g id="edge5" class="edge">
<title>https://w3id.org/sdata/r&#45;strategies/DesignLevel&#45;&gt;https://w3id.org/sdata/r&#45;strategies/R2_Reduce</title>
<path fill="none" stroke="#2f855a" stroke-width="1.4" stroke-dasharray="1,5" d="M134.16,-728.11C170.25,-760.87 251,-823.07 307,-783.02 338.32,-760.62 308.08,-728.56 335,-701.02 342.98,-692.86 352.96,-686.53 363.48,-681.64"/>
<polygon fill="#2f855a" stroke="#2f855a" stroke-width="1.4" points="364.59,-684.21 370.83,-678.47 362.37,-679.06 364.59,-684.21"/>
<text text-anchor="middle" x="278" y="-798.02" font-family="Helvetica,sans-Serif" font-size="10.00">member</text>
</g>
<!-- https://w3id.org/sdata/r&#45;strategies/EnergyLevel -->
<g id="node3" class="node">
<title>https://w3id.org/sdata/r&#45;strategies/EnergyLevel</title>
<path fill="#f0fff9" stroke="#2f855a" stroke-width="1.4" d="M176,-512.02C176,-512.02 53,-512.02 53,-512.02 47,-512.02 41,-506.02 41,-500.02 41,-500.02 41,-488.02 41,-488.02 41,-482.02 47,-476.02 53,-476.02 53,-476.02 176,-476.02 176,-476.02 182,-476.02 188,-482.02 188,-488.02 188,-488.02 188,-500.02 188,-500.02 188,-506.02 182,-512.02 176,-512.02"/>
<text text-anchor="middle" x="114.5" y="-491.22" font-family="Helvetica,sans-Serif" font-size="11.00" fill="#1c4532">Energy&#45;level strategies</text>
</g>
<!-- https://w3id.org/sdata/r&#45;strategies/R9_Recover -->
<g id="node16" class="node">
<title>https://w3id.org/sdata/r&#45;strategies/R9_Recover</title>
<path fill="#fff4e5" stroke="#b7791f" stroke-width="1.4" d="M513,-251.02C513,-251.02 355,-251.02 355,-251.02 349,-251.02 343,-245.02 343,-239.02 343,-239.02 343,-227.02 343,-227.02 343,-221.02 349,-215.02 355,-215.02 355,-215.02 513,-215.02 513,-215.02 519,-215.02 525,-221.02 525,-227.02 525,-227.02 525,-239.02 525,-239.02 525,-245.02 519,-251.02 513,-251.02"/>
<text text-anchor="middle" x="434" y="-230.22" font-family="Helvetica,sans-Serif" font-size="11.00" fill="#7b341e">R9 Recover (Energy) [rank 9]</text>
</g>
<!-- https://w3id.org/sdata/r&#45;strategies/EnergyLevel&#45;&gt;https://w3id.org/sdata/r&#45;strategies/R9_Recover -->
<g id="edge6" class="edge">
<title>https://w3id.org/sdata/r&#45;strategies/EnergyLevel&#45;&gt;https://w3id.org/sdata/r&#45;strategies/R9_Recover</title>
<path fill="none" stroke="#2f855a" stroke-width="1.4" stroke-dasharray="1,5" d="M188.18,-481.33C200.76,-476.04 212.5,-468.57 221,-458.02 254.98,-415.88 208.58,-252.04 249,-216.02 286.32,-182.77 346.37,-196.29 387.65,-211.97"/>
<polygon fill="#2f855a" stroke="#2f855a" stroke-width="1.4" points="386.67,-214.59 395.14,-214.91 388.71,-209.38 386.67,-214.59"/>
<text text-anchor="middle" x="278" y="-219.02" font-family="Helvetica,sans-Serif" font-size="10.00">member</text>
</g>
<!-- https://w3id.org/sdata/r&#45;strategies/MaterialLevel -->
<g id="node4" class="node">
<title>https://w3id.org/sdata/r&#45;strategies/MaterialLevel</title>
<path fill="#f0fff9" stroke="#2f855a" stroke-width="1.4" d="M180,-440.02C180,-440.02 49,-440.02 49,-440.02 43,-440.02 37,-434.02 37,-428.02 37,-428.02 37,-416.02 37,-416.02 37,-410.02 43,-404.02 49,-404.02 49,-404.02 180,-404.02 180,-404.02 186,-404.02 192,-410.02 192,-416.02 192,-416.02 192,-428.02 192,-428.02 192,-434.02 186,-440.02 180,-440.02"/>
<text text-anchor="middle" x="114.5" y="-419.22" font-family="Helvetica,sans-Serif" font-size="11.00" fill="#1c4532">Material&#45;level strategies</text>
</g>
<!-- https://w3id.org/sdata/r&#45;strategies/R8_Recycle -->
<g id="node15" class="node">
<title>https://w3id.org/sdata/r&#45;strategies/R8_Recycle</title>
<path fill="#fff4e5" stroke="#b7791f" stroke-width="1.4" d="M486.5,-179.02C486.5,-179.02 381.5,-179.02 381.5,-179.02 375.5,-179.02 369.5,-173.02 369.5,-167.02 369.5,-167.02 369.5,-155.02 369.5,-155.02 369.5,-149.02 375.5,-143.02 381.5,-143.02 381.5,-143.02 486.5,-143.02 486.5,-143.02 492.5,-143.02 498.5,-149.02 498.5,-155.02 498.5,-155.02 498.5,-167.02 498.5,-167.02 498.5,-173.02 492.5,-179.02 486.5,-179.02"/>
<text text-anchor="middle" x="434" y="-158.22" font-family="Helvetica,sans-Serif" font-size="11.00" fill="#7b341e">R8 Recycle [rank 8]</text>
</g>
<!-- https://w3id.org/sdata/r&#45;strategies/MaterialLevel&#45;&gt;https://w3id.org/sdata/r&#45;strategies/R8_Recycle -->
<g id="edge7" class="edge">
<title>https://w3id.org/sdata/r&#45;strategies/MaterialLevel&#45;&gt;https://w3id.org/sdata/r&#45;strategies/R8_Recycle</title>
<path fill="none" stroke="#2f855a" stroke-width="1.4" stroke-dasharray="1,5" d="M192.19,-415.84C203.17,-411.8 213.32,-405.81 221,-397.02 262.32,-349.79 202.48,-158.14 249,-116.02 291.52,-77.53 361.51,-112.37 401.8,-138.49"/>
<polygon fill="#2f855a" stroke="#2f855a" stroke-width="1.4" points="400.27,-140.84 408.48,-142.92 403.36,-136.17 400.27,-140.84"/>
<text text-anchor="middle" x="278" y="-119.02" font-family="Helvetica,sans-Serif" font-size="10.00">member</text>
</g>
<!-- https://w3id.org/sdata/r&#45;strategies/ProductLevel -->
<g id="node5" class="node">
<title>https://w3id.org/sdata/r&#45;strategies/ProductLevel</title>
<path fill="#f0fff9" stroke="#2f855a" stroke-width="1.4" d="M178.5,-584.02C178.5,-584.02 50.5,-584.02 50.5,-584.02 44.5,-584.02 38.5,-578.02 38.5,-572.02 38.5,-572.02 38.5,-560.02 38.5,-560.02 38.5,-554.02 44.5,-548.02 50.5,-548.02 50.5,-548.02 178.5,-548.02 178.5,-548.02 184.5,-548.02 190.5,-554.02 190.5,-560.02 190.5,-560.02 190.5,-572.02 190.5,-572.02 190.5,-578.02 184.5,-584.02 178.5,-584.02"/>
<text text-anchor="middle" x="114.5" y="-563.22" font-family="Helvetica,sans-Serif" font-size="11.00" fill="#1c4532">Product&#45;level strategies</text>
</g>
<!-- https://w3id.org/sdata/r&#45;strategies/R3_Reuse -->
<g id="node10" class="node">
<title>https://w3id.org/sdata/r&#45;strategies/R3_Reuse</title>
<path fill="#fff4e5" stroke="#b7791f" stroke-width="1.4" d="M482,-467.02C482,-467.02 386,-467.02 386,-467.02 380,-467.02 374,-461.02 374,-455.02 374,-455.02 374,-443.02 374,-443.02 374,-437.02 380,-431.02 386,-431.02 386,-431.02 482,-431.02 482,-431.02 488,-431.02 494,-437.02 494,-443.02 494,-443.02 494,-455.02 494,-455.02 494,-461.02 488,-467.02 482,-467.02"/>
<text text-anchor="middle" x="434" y="-446.22" font-family="Helvetica,sans-Serif" font-size="11.00" fill="#7b341e">R3 Reuse [rank 3]</text>
</g>
<!-- https://w3id.org/sdata/r&#45;strategies/ProductLevel&#45;&gt;https://w3id.org/sdata/r&#45;strategies/R3_Reuse -->
<g id="edge8" class="edge">
<title>https://w3id.org/sdata/r&#45;strategies/ProductLevel&#45;&gt;https://w3id.org/sdata/r&#45;strategies/R3_Reuse</title>
<path fill="none" stroke="#2f855a" stroke-width="1.4" stroke-dasharray="1,5" d="M178.11,-548.02C192.53,-542.96 207.57,-536.92 221,-530.02 234.6,-523.03 235.37,-516.95 249,-510.02 285.96,-491.24 329.95,-476.41 365.65,-466.08"/>
<polygon fill="#2f855a" stroke="#2f855a" stroke-width="1.4" points="366.68,-468.7 373.6,-463.81 365.14,-463.31 366.68,-468.7"/>
<text text-anchor="middle" x="278" y="-513.02" font-family="Helvetica,sans-Serif" font-size="10.00">member</text>
</g>
<!-- https://w3id.org/sdata/r&#45;strategies/R4_Repair -->
<g id="node11" class="node">
<title>https://w3id.org/sdata/r&#45;strategies/R4_Repair</title>
<path fill="#fff4e5" stroke="#b7791f" stroke-width="1.4" d="M482.5,-323.02C482.5,-323.02 385.5,-323.02 385.5,-323.02 379.5,-323.02 373.5,-317.02 373.5,-311.02 373.5,-311.02 373.5,-299.02 373.5,-299.02 373.5,-293.02 379.5,-287.02 385.5,-287.02 385.5,-287.02 482.5,-287.02 482.5,-287.02 488.5,-287.02 494.5,-293.02 494.5,-299.02 494.5,-299.02 494.5,-311.02 494.5,-311.02 494.5,-317.02 488.5,-323.02 482.5,-323.02"/>
<text text-anchor="middle" x="434" y="-302.22" font-family="Helvetica,sans-Serif" font-size="11.00" fill="#7b341e">R4 Repair [rank 4]</text>
</g>
<!-- https://w3id.org/sdata/r&#45;strategies/ProductLevel&#45;&gt;https://w3id.org/sdata/r&#45;strategies/R4_Repair -->
<g id="edge9" class="edge">
<title>https://w3id.org/sdata/r&#45;strategies/ProductLevel&#45;&gt;https://w3id.org/sdata/r&#45;strategies/R4_Repair</title>
<path fill="none" stroke="#2f855a" stroke-width="1.4" stroke-dasharray="1,5" d="M190.5,-552.2C202.17,-547 212.99,-539.84 221,-530.02 283.3,-453.64 175.93,-376.17 249,-310.02 279.74,-282.19 326.6,-281.29 365.33,-287.17"/>
<polygon fill="#2f855a" stroke="#2f855a" stroke-width="1.4" points="365.12,-289.97 373.47,-288.52 366.03,-284.45 365.12,-289.97"/>
<text text-anchor="middle" x="278" y="-313.02" font-family="Helvetica,sans-Serif" font-size="10.00">member</text>
</g>
<!-- https://w3id.org/sdata/r&#45;strategies/R5_Refurbish -->
<g id="node12" class="node">
<title>https://w3id.org/sdata/r&#45;strategies/R5_Refurbish</title>
<path fill="#fff4e5" stroke="#b7791f" stroke-width="1.4" d="M491,-395.02C491,-395.02 377,-395.02 377,-395.02 371,-395.02 365,-389.02 365,-383.02 365,-383.02 365,-371.02 365,-371.02 365,-365.02 371,-359.02 377,-359.02 377,-359.02 491,-359.02 491,-359.02 497,-359.02 503,-365.02 503,-371.02 503,-371.02 503,-383.02 503,-383.02 503,-389.02 497,-395.02 491,-395.02"/>
<text text-anchor="middle" x="434" y="-374.22" font-family="Helvetica,sans-Serif" font-size="11.00" fill="#7b341e">R5 Refurbish [rank 5]</text>
</g>
<!-- https://w3id.org/sdata/r&#45;strategies/ProductLevel&#45;&gt;https://w3id.org/sdata/r&#45;strategies/R5_Refurbish -->
<g id="edge10" class="edge">
<title>https://w3id.org/sdata/r&#45;strategies/ProductLevel&#45;&gt;https://w3id.org/sdata/r&#45;strategies/R5_Refurbish</title>
<path fill="none" stroke="#2f855a" stroke-width="1.4" stroke-dasharray="1,5" d="M190.55,-551.19C201.99,-546.09 212.72,-539.23 221,-530.02 258.76,-488 207.76,-444.64 249,-406.02 277.31,-379.51 319.48,-371.48 356.31,-370.42"/>
<polygon fill="#2f855a" stroke="#2f855a" stroke-width="1.4" points="356.6,-373.22 364.56,-370.3 356.52,-367.62 356.6,-373.22"/>
<text text-anchor="middle" x="278" y="-409.02" font-family="Helvetica,sans-Serif" font-size="10.00">member</text>
</g>
<!-- https://w3id.org/sdata/r&#45;strategies/RStrategyScheme -->
<g id="node6" class="node">
<title>https://w3id.org/sdata/r&#45;strategies/RStrategyScheme</title>
<path fill="#e8f1ff" stroke="#2b6cb0" stroke-width="1.4" d="M201,-350.02C201,-350.02 28,-350.02 28,-350.02 22,-350.02 16,-344.02 16,-338.02 16,-338.02 16,-326.02 16,-326.02 16,-320.02 22,-314.02 28,-314.02 28,-314.02 201,-314.02 201,-314.02 207,-314.02 213,-320.02 213,-326.02 213,-326.02 213,-338.02 213,-338.02 213,-344.02 207,-350.02 201,-350.02"/>
<text text-anchor="middle" x="114.5" y="-329.22" font-family="Helvetica,sans-Serif" font-size="11.00" fill="#1a365d">R&#45;Strategies (Circular Economy)</text>
</g>
<!-- https://w3id.org/sdata/r&#45;strategies/RStrategyScheme&#45;&gt;https://w3id.org/sdata/r&#45;strategies/R0_Refuse -->
<g id="edge20" class="edge">
<title>https://w3id.org/sdata/r&#45;strategies/RStrategyScheme&#45;&gt;https://w3id.org/sdata/r&#45;strategies/R0_Refuse</title>
<path fill="none" stroke="#2b6cb0" stroke-width="1.4" d="M174.15,-350.04C192.02,-358.44 209.86,-370.37 221,-387.02 260.18,-445.63 201.56,-650.88 249,-703.02 277.47,-734.32 324.6,-742.57 364.03,-743.12"/>
<polygon fill="#2b6cb0" stroke="#2b6cb0" stroke-width="1.4" points="364.31,-745.92 372.31,-743.13 364.32,-740.32 364.31,-745.92"/>
<text text-anchor="middle" x="278" y="-737.02" font-family="Helvetica,sans-Serif" font-size="10.00">top concept</text>
</g>
<!-- https://w3id.org/sdata/r&#45;strategies/RStrategyScheme&#45;&gt;https://w3id.org/sdata/r&#45;strategies/R1_Rethink -->
<g id="edge21" class="edge">
<title>https://w3id.org/sdata/r&#45;strategies/RStrategyScheme&#45;&gt;https://w3id.org/sdata/r&#45;strategies/R1_Rethink</title>
<path fill="none" stroke="#2b6cb0" stroke-width="1.4" d="M174.65,-350.02C192.44,-358.4 210.11,-370.32 221,-387.02 273.06,-466.86 179.44,-749.86 249,-815.02 282.86,-846.74 337.47,-840.56 378.42,-829.26"/>
<polygon fill="#2b6cb0" stroke="#2b6cb0" stroke-width="1.4" points="379.25,-831.94 386.16,-827.02 377.69,-826.56 379.25,-831.94"/>
<text text-anchor="middle" x="278" y="-840.02" font-family="Helvetica,sans-Serif" font-size="10.00">top concept</text>
</g>
<!-- https://w3id.org/sdata/r&#45;strategies/RStrategyScheme&#45;&gt;https://w3id.org/sdata/r&#45;strategies/R2_Reduce -->
<g id="edge22" class="edge">
<title>https://w3id.org/sdata/r&#45;strategies/RStrategyScheme&#45;&gt;https://w3id.org/sdata/r&#45;strategies/R2_Reduce</title>
<path fill="none" stroke="#2b6cb0" stroke-width="1.4" d="M173.57,-350.12C191.5,-358.54 209.54,-370.46 221,-387.02 279.86,-472.06 180.76,-540.32 249,-618.02 277.03,-649.94 323.45,-661.63 362.65,-665.38"/>
<polygon fill="#2b6cb0" stroke="#2b6cb0" stroke-width="1.4" points="362.69,-668.19 370.9,-666.06 363.15,-662.61 362.69,-668.19"/>
<text text-anchor="middle" x="278" y="-655.02" font-family="Helvetica,sans-Serif" font-size="10.00">top concept</text>
</g>
<!-- https://w3id.org/sdata/r&#45;strategies/RStrategyScheme&#45;&gt;https://w3id.org/sdata/r&#45;strategies/R3_Reuse -->
<g id="edge23" class="edge">
<title>https://w3id.org/sdata/r&#45;strategies/RStrategyScheme&#45;&gt;https://w3id.org/sdata/r&#45;strategies/R3_Reuse</title>
<path fill="none" stroke="#2b6cb0" stroke-width="1.4" d="M213.32,-324.98C245.66,-327.16 280.19,-334.84 307,-354.02 330.61,-370.91 313.56,-393.45 335,-413.02 344,-421.24 355.04,-427.63 366.43,-432.58"/>
<polygon fill="#2b6cb0" stroke="#2b6cb0" stroke-width="1.4" points="365.47,-435.21 373.94,-435.62 367.58,-430.02 365.47,-435.21"/>
<text text-anchor="middle" x="278" y="-357.02" font-family="Helvetica,sans-Serif" font-size="10.00">top concept</text>
</g>
<!-- https://w3id.org/sdata/r&#45;strategies/RStrategyScheme&#45;&gt;https://w3id.org/sdata/r&#45;strategies/R4_Repair -->
<g id="edge24" class="edge">
<title>https://w3id.org/sdata/r&#45;strategies/RStrategyScheme&#45;&gt;https://w3id.org/sdata/r&#45;strategies/R4_Repair</title>
<path fill="none" stroke="#2b6cb0" stroke-width="1.4" d="M121.94,-313.84C136.99,-274.5 178.63,-182.14 249,-146.02 271.93,-134.25 286.85,-129.94 307,-146.02 350.82,-180.99 297.98,-226.92 335,-269.02 343.25,-278.4 354.16,-285.34 365.69,-290.47"/>
<polygon fill="#2b6cb0" stroke="#2b6cb0" stroke-width="1.4" points="364.88,-293.16 373.35,-293.59 366.99,-287.98 364.88,-293.16"/>
<text text-anchor="middle" x="278" y="-149.02" font-family="Helvetica,sans-Serif" font-size="10.00">top concept</text>
</g>
<!-- https://w3id.org/sdata/r&#45;strategies/RStrategyScheme&#45;&gt;https://w3id.org/sdata/r&#45;strategies/R5_Refurbish -->
<g id="edge25" class="edge">
<title>https://w3id.org/sdata/r&#45;strategies/RStrategyScheme&#45;&gt;https://w3id.org/sdata/r&#45;strategies/R5_Refurbish</title>
<path fill="none" stroke="#2b6cb0" stroke-width="1.4" d="M132.46,-313.95C167.6,-278.71 249.83,-207.8 307,-250.02 341.04,-275.16 305.89,-310.31 335,-341.02 341.37,-347.74 349.09,-353.21 357.37,-357.66"/>
<polygon fill="#2b6cb0" stroke="#2b6cb0" stroke-width="1.4" points="356.37,-360.28 364.78,-361.31 358.85,-355.26 356.37,-360.28"/>
<text text-anchor="middle" x="278" y="-253.02" font-family="Helvetica,sans-Serif" font-size="10.00">top concept</text>
</g>
<!-- https://w3id.org/sdata/r&#45;strategies/RStrategyScheme&#45;&gt;https://w3id.org/sdata/r&#45;strategies/R6_Remanufacture -->
<g id="edge26" class="edge">
<title>https://w3id.org/sdata/r&#45;strategies/RStrategyScheme&#45;&gt;https://w3id.org/sdata/r&#45;strategies/R6_Remanufacture</title>
<path fill="none" stroke="#2b6cb0" stroke-width="1.4" d="M171.42,-350.04C189.73,-358.54 208.55,-370.54 221,-387.02 258.18,-436.28 209.31,-475.77 249,-523.02 263.78,-540.61 313.77,-559.03 357.92,-572.56"/>
<polygon fill="#2b6cb0" stroke="#2b6cb0" stroke-width="1.4" points="357.33,-575.3 365.8,-574.94 358.96,-569.94 357.33,-575.3"/>
<text text-anchor="middle" x="278" y="-557.02" font-family="Helvetica,sans-Serif" font-size="10.00">top concept</text>
</g>
<!-- https://w3id.org/sdata/r&#45;strategies/RStrategyScheme&#45;&gt;https://w3id.org/sdata/r&#45;strategies/R7_Repurpose -->
<g id="edge27" class="edge">
<title>https://w3id.org/sdata/r&#45;strategies/RStrategyScheme&#45;&gt;https://w3id.org/sdata/r&#45;strategies/R7_Repurpose</title>
<path fill="none" stroke="#2b6cb0" stroke-width="1.4" d="M158.75,-350.09C178.74,-359.53 202.16,-372.21 221,-387.02 235.86,-398.7 235.21,-406.1 249,-419.02 257.79,-427.26 324.45,-479.21 335,-485.02 345.13,-490.6 356.29,-495.63 367.35,-500.04"/>
<polygon fill="#2b6cb0" stroke="#2b6cb0" stroke-width="1.4" points="366.5,-502.72 374.97,-503 368.52,-497.5 366.5,-502.72"/>
<text text-anchor="middle" x="278" y="-466.02" font-family="Helvetica,sans-Serif" font-size="10.00">top concept</text>
</g>
<!-- https://w3id.org/sdata/r&#45;strategies/RStrategyScheme&#45;&gt;https://w3id.org/sdata/r&#45;strategies/R8_Recycle -->
<g id="edge28" class="edge">
<title>https://w3id.org/sdata/r&#45;strategies/RStrategyScheme&#45;&gt;https://w3id.org/sdata/r&#45;strategies/R8_Recycle</title>
<path fill="none" stroke="#2b6cb0" stroke-width="1.4" d="M116.48,-313.93C120.65,-257.21 142.06,-82.37 249,-11.02 317.44,34.63 391.02,-82.11 420.11,-135.75"/>
<polygon fill="#2b6cb0" stroke="#2b6cb0" stroke-width="1.4" points="417.68,-137.14 423.92,-142.88 422.62,-134.5 417.68,-137.14"/>
<text text-anchor="middle" x="278" y="-14.02" font-family="Helvetica,sans-Serif" font-size="10.00">top concept</text>
</g>
<!-- https://w3id.org/sdata/r&#45;strategies/RStrategyScheme&#45;&gt;https://w3id.org/sdata/r&#45;strategies/R9_Recover -->
<g id="edge29" class="edge">
<title>https://w3id.org/sdata/r&#45;strategies/RStrategyScheme&#45;&gt;https://w3id.org/sdata/r&#45;strategies/R9_Recover</title>
<path fill="none" stroke="#2b6cb0" stroke-width="1.4" d="M117.34,-313.76C123.81,-260.47 150.75,-104.95 249,-42.02 270.71,-28.12 287.22,-25.49 307,-42.02 360.72,-86.91 289.97,-143.42 335,-197.02 339.44,-202.31 344.73,-206.82 350.52,-210.67"/>
<polygon fill="#2b6cb0" stroke="#2b6cb0" stroke-width="1.4" points="349.22,-213.16 357.52,-214.89 352.11,-208.36 349.22,-213.16"/>
<text text-anchor="middle" x="278" y="-45.02" font-family="Helvetica,sans-Serif" font-size="10.00">top concept</text>
</g>
<!-- https://w3id.org/sdata/core/Creation -->
<g id="node17" class="node">
<title>https://w3id.org/sdata/core/Creation</title>
<path fill="#f3e8ff" stroke="#805ad5" stroke-width="1.4" d="M753,-611.02C753,-611.02 710,-611.02 710,-611.02 704,-611.02 698,-605.02 698,-599.02 698,-599.02 698,-587.02 698,-587.02 698,-581.02 704,-575.02 710,-575.02 710,-575.02 753,-575.02 753,-575.02 759,-575.02 765,-581.02 765,-587.02 765,-587.02 765,-599.02 765,-599.02 765,-605.02 759,-611.02 753,-611.02"/>
<text text-anchor="middle" x="731.5" y="-590.22" font-family="Helvetica,sans-Serif" font-size="11.00" fill="#44337a">Creation</text>
</g>
<!-- https://w3id.org/sdata/r&#45;strategies/R1_Rethink&#45;&gt;https://w3id.org/sdata/core/Creation -->
<g id="edge11" class="edge">
<title>https://w3id.org/sdata/r&#45;strategies/R1_Rethink&#45;&gt;https://w3id.org/sdata/core/Creation</title>
<path fill="none" stroke="#805ad5" stroke-width="1.4" stroke-dasharray="5,2" d="M495.52,-790.96C508.33,-786.01 521.46,-780.03 533,-773.02 605.92,-728.76 675.97,-655.23 709.66,-617.3"/>
<polygon fill="#805ad5" stroke="#805ad5" stroke-width="1.4" points="711.95,-618.94 715.14,-611.09 707.75,-615.24 711.95,-618.94"/>
<text text-anchor="middle" x="591" y="-755.02" font-family="Helvetica,sans-Serif" font-size="10.00">mapsToVerb</text>
</g>
<!-- https://w3id.org/sdata/r&#45;strategies/R2_Reduce&#45;&gt;https://w3id.org/sdata/core/Creation -->
<g id="edge12" class="edge">
<title>https://w3id.org/sdata/r&#45;strategies/R2_Reduce&#45;&gt;https://w3id.org/sdata/core/Creation</title>
<path fill="none" stroke="#805ad5" stroke-width="1.4" stroke-dasharray="5,2" d="M497.31,-649.84C555.37,-635.69 640.26,-615.01 690,-602.89"/>
<polygon fill="#805ad5" stroke="#805ad5" stroke-width="1.4" points="690.86,-605.56 697.97,-600.95 689.53,-600.12 690.86,-605.56"/>
<text text-anchor="middle" x="591" y="-636.02" font-family="Helvetica,sans-Serif" font-size="10.00">mapsToVerb</text>
</g>
<!-- https://w3id.org/sdata/core/Transfer -->
<g id="node21" class="node">
<title>https://w3id.org/sdata/core/Transfer</title>
<path fill="#f3e8ff" stroke="#805ad5" stroke-width="1.4" d="M752,-467.02C752,-467.02 711,-467.02 711,-467.02 705,-467.02 699,-461.02 699,-455.02 699,-455.02 699,-443.02 699,-443.02 699,-437.02 705,-431.02 711,-431.02 711,-431.02 752,-431.02 752,-431.02 758,-431.02 764,-437.02 764,-443.02 764,-443.02 764,-455.02 764,-455.02 764,-461.02 758,-467.02 752,-467.02"/>
<text text-anchor="middle" x="731.5" y="-446.22" font-family="Helvetica,sans-Serif" font-size="11.00" fill="#44337a">Transfer</text>
</g>
<!-- https://w3id.org/sdata/r&#45;strategies/R3_Reuse&#45;&gt;https://w3id.org/sdata/core/Transfer -->
<g id="edge13" class="edge">
<title>https://w3id.org/sdata/r&#45;strategies/R3_Reuse&#45;&gt;https://w3id.org/sdata/core/Transfer</title>
<path fill="none" stroke="#805ad5" stroke-width="1.4" stroke-dasharray="5,2" d="M494.09,-449.02C552.48,-449.02 640.19,-449.02 690.74,-449.02"/>
<polygon fill="#805ad5" stroke="#805ad5" stroke-width="1.4" points="690.83,-451.82 698.83,-449.02 690.83,-446.22 690.83,-451.82"/>
<text text-anchor="middle" x="591" y="-452.02" font-family="Helvetica,sans-Serif" font-size="10.00">mapsToVerb</text>
</g>
<!-- https://w3id.org/sdata/core/Preservation -->
<g id="node19" class="node">
<title>https://w3id.org/sdata/core/Preservation</title>
<path fill="#f3e8ff" stroke="#805ad5" stroke-width="1.4" d="M764.5,-395.02C764.5,-395.02 698.5,-395.02 698.5,-395.02 692.5,-395.02 686.5,-389.02 686.5,-383.02 686.5,-383.02 686.5,-371.02 686.5,-371.02 686.5,-365.02 692.5,-359.02 698.5,-359.02 698.5,-359.02 764.5,-359.02 764.5,-359.02 770.5,-359.02 776.5,-365.02 776.5,-371.02 776.5,-371.02 776.5,-383.02 776.5,-383.02 776.5,-389.02 770.5,-395.02 764.5,-395.02"/>
<text text-anchor="middle" x="731.5" y="-374.22" font-family="Helvetica,sans-Serif" font-size="11.00" fill="#44337a">Preservation</text>
</g>
<!-- https://w3id.org/sdata/r&#45;strategies/R4_Repair&#45;&gt;https://w3id.org/sdata/core/Preservation -->
<g id="edge14" class="edge">
<title>https://w3id.org/sdata/r&#45;strategies/R4_Repair&#45;&gt;https://w3id.org/sdata/core/Preservation</title>
<path fill="none" stroke="#805ad5" stroke-width="1.4" stroke-dasharray="5,2" d="M494.8,-319.59C548.59,-332.7 626.82,-351.76 678.18,-364.27"/>
<polygon fill="#805ad5" stroke="#805ad5" stroke-width="1.4" points="677.75,-367.05 686.18,-366.22 679.07,-361.61 677.75,-367.05"/>
<text text-anchor="middle" x="591" y="-352.02" font-family="Helvetica,sans-Serif" font-size="10.00">mapsToVerb</text>
</g>
<!-- https://w3id.org/sdata/r&#45;strategies/R5_Refurbish&#45;&gt;https://w3id.org/sdata/core/Preservation -->
<g id="edge15" class="edge">
<title>https://w3id.org/sdata/r&#45;strategies/R5_Refurbish&#45;&gt;https://w3id.org/sdata/core/Preservation</title>
<path fill="none" stroke="#805ad5" stroke-width="1.4" stroke-dasharray="5,2" d="M503.16,-377.02C556.34,-377.02 629.11,-377.02 677.86,-377.02"/>
<polygon fill="#805ad5" stroke="#805ad5" stroke-width="1.4" points="678.07,-379.82 686.07,-377.02 678.07,-374.22 678.07,-379.82"/>
<text text-anchor="middle" x="591" y="-380.02" font-family="Helvetica,sans-Serif" font-size="10.00">mapsToVerb</text>
</g>
<!-- https://w3id.org/sdata/core/Transformation -->
<g id="node22" class="node">
<title>https://w3id.org/sdata/core/Transformation</title>
<path fill="#f3e8ff" stroke="#805ad5" stroke-width="1.4" d="M771,-539.02C771,-539.02 692,-539.02 692,-539.02 686,-539.02 680,-533.02 680,-527.02 680,-527.02 680,-515.02 680,-515.02 680,-509.02 686,-503.02 692,-503.02 692,-503.02 771,-503.02 771,-503.02 777,-503.02 783,-509.02 783,-515.02 783,-515.02 783,-527.02 783,-527.02 783,-533.02 777,-539.02 771,-539.02"/>
<text text-anchor="middle" x="731.5" y="-518.22" font-family="Helvetica,sans-Serif" font-size="11.00" fill="#44337a">Transformation</text>
</g>
<!-- https://w3id.org/sdata/r&#45;strategies/R6_Remanufacture&#45;&gt;https://w3id.org/sdata/core/Transformation -->
<g id="edge16" class="edge">
<title>https://w3id.org/sdata/r&#45;strategies/R6_Remanufacture&#45;&gt;https://w3id.org/sdata/core/Transformation</title>
<path fill="none" stroke="#805ad5" stroke-width="1.4" stroke-dasharray="5,2" d="M509.19,-574.95C559.61,-562.66 625.38,-546.64 672.08,-535.26"/>
<polygon fill="#805ad5" stroke="#805ad5" stroke-width="1.4" points="672.88,-537.94 679.99,-533.33 671.55,-532.5 672.88,-537.94"/>
<text text-anchor="middle" x="591" y="-564.02" font-family="Helvetica,sans-Serif" font-size="10.00">mapsToVerb</text>
</g>
<!-- https://w3id.org/sdata/r&#45;strategies/R7_Repurpose&#45;&gt;https://w3id.org/sdata/core/Transformation -->
<g id="edge17" class="edge">
<title>https://w3id.org/sdata/r&#45;strategies/R7_Repurpose&#45;&gt;https://w3id.org/sdata/core/Transformation</title>
<path fill="none" stroke="#805ad5" stroke-width="1.4" stroke-dasharray="5,2" d="M506.16,-521.02C556.85,-521.02 624.17,-521.02 671.79,-521.02"/>
<polygon fill="#805ad5" stroke="#805ad5" stroke-width="1.4" points="671.86,-523.82 679.86,-521.02 671.86,-518.22 671.86,-523.82"/>
<text text-anchor="middle" x="591" y="-524.02" font-family="Helvetica,sans-Serif" font-size="10.00">mapsToVerb</text>
</g>
<!-- https://w3id.org/sdata/core/Recovery -->
<g id="node20" class="node">
<title>https://w3id.org/sdata/core/Recovery</title>
<path fill="#f3e8ff" stroke="#805ad5" stroke-width="1.4" d="M755.5,-251.02C755.5,-251.02 707.5,-251.02 707.5,-251.02 701.5,-251.02 695.5,-245.02 695.5,-239.02 695.5,-239.02 695.5,-227.02 695.5,-227.02 695.5,-221.02 701.5,-215.02 707.5,-215.02 707.5,-215.02 755.5,-215.02 755.5,-215.02 761.5,-215.02 767.5,-221.02 767.5,-227.02 767.5,-227.02 767.5,-239.02 767.5,-239.02 767.5,-245.02 761.5,-251.02 755.5,-251.02"/>
<text text-anchor="middle" x="731.5" y="-230.22" font-family="Helvetica,sans-Serif" font-size="11.00" fill="#44337a">Recovery</text>
</g>
<!-- https://w3id.org/sdata/r&#45;strategies/R8_Recycle&#45;&gt;https://w3id.org/sdata/core/Recovery -->
<g id="edge18" class="edge">
<title>https://w3id.org/sdata/r&#45;strategies/R8_Recycle&#45;&gt;https://w3id.org/sdata/core/Recovery</title>
<path fill="none" stroke="#805ad5" stroke-width="1.4" stroke-dasharray="5,2" d="M498.93,-168.57C535.11,-173.61 581,-181.31 621,-192.02 643.43,-198.03 667.68,-206.85 687.64,-214.78"/>
<polygon fill="#805ad5" stroke="#805ad5" stroke-width="1.4" points="686.6,-217.38 695.07,-217.76 688.69,-212.18 686.6,-217.38"/>
<text text-anchor="middle" x="591" y="-195.02" font-family="Helvetica,sans-Serif" font-size="10.00">mapsToVerb</text>
</g>
<!-- https://w3id.org/sdata/core/Destruction -->
<g id="node18" class="node">
<title>https://w3id.org/sdata/core/Destruction</title>
<path fill="#f3e8ff" stroke="#805ad5" stroke-width="1.4" d="M761.5,-323.02C761.5,-323.02 701.5,-323.02 701.5,-323.02 695.5,-323.02 689.5,-317.02 689.5,-311.02 689.5,-311.02 689.5,-299.02 689.5,-299.02 689.5,-293.02 695.5,-287.02 701.5,-287.02 701.5,-287.02 761.5,-287.02 761.5,-287.02 767.5,-287.02 773.5,-293.02 773.5,-299.02 773.5,-299.02 773.5,-311.02 773.5,-311.02 773.5,-317.02 767.5,-323.02 761.5,-323.02"/>
<text text-anchor="middle" x="731.5" y="-302.22" font-family="Helvetica,sans-Serif" font-size="11.00" fill="#44337a">Destruction</text>
</g>
<!-- https://w3id.org/sdata/r&#45;strategies/R9_Recover&#45;&gt;https://w3id.org/sdata/core/Destruction -->
<g id="edge19" class="edge">
<title>https://w3id.org/sdata/r&#45;strategies/R9_Recover&#45;&gt;https://w3id.org/sdata/core/Destruction</title>
<path fill="none" stroke="#805ad5" stroke-width="1.4" stroke-dasharray="5,2" d="M509.19,-251.1C563,-264.21 634.3,-281.58 681.24,-293.02"/>
<polygon fill="#805ad5" stroke="#805ad5" stroke-width="1.4" points="680.7,-295.77 689.14,-294.94 682.03,-290.33 680.7,-295.77"/>
<text text-anchor="middle" x="591" y="-280.02" font-family="Helvetica,sans-Serif" font-size="10.00">mapsToVerb</text>
</g>
</g>
</svg>
