<?xml version="1.0" encoding="UTF-8" standalone="no"?>
<!DOCTYPE svg PUBLIC "-//W3C//DTD SVG 1.1//EN"
 "http://www.w3.org/Graphics/SVG/1.1/DTD/svg11.dtd">
<!-- Generated by graphviz version 2.43.0 (0)
 -->
<!-- Pages: 1 -->
<svg width="1724pt" height="1035pt"
 viewBox="0.00 0.00 1724.12 1035.40" xmlns="http://www.w3.org/2000/svg" xmlns:xlink="http://www.w3.org/1999/xlink">
<g id="graph0" class="graph" transform="scale(1 1) rotate(0) translate(25.2 1010.2)">
<polygon fill="#fafbfc" stroke="transparent" points="-25.2,25.2 -25.2,-1010.2 1698.92,-1010.2 1698.92,25.2 -25.2,25.2"/>
<text text-anchor="middle" x="836.86" y="-965" font-family="Helvetica,sans-Serif" font-size="20.00">sdata Process Hierarchy (MaterialProcess/InformationProcess branches only)</text>
<g id="clust1" class="cluster">
<title>cluster_material_branch</title>
<path fill="#fafbfc" stroke="#9dc3e6" d="M739,-8C739,-8 969,-8 969,-8 975,-8 981,-14 981,-20 981,-20 981,-816 981,-816 981,-822 975,-828 969,-828 969,-828 739,-828 739,-828 733,-828 727,-822 727,-816 727,-816 727,-20 727,-20 727,-14 733,-8 739,-8"/>
<text text-anchor="middle" x="854" y="-808" font-family="Helvetica,sans-Serif" font-size="20.00">Material process branch</text>
</g>
<g id="clust2" class="cluster">
<title>cluster_process_roots</title>
<path fill="#fafbfc" stroke="#d6d6d6" d="M120,-865C120,-865 449,-865 449,-865 455,-865 461,-871 461,-877 461,-877 461,-935 461,-935 461,-941 455,-947 449,-947 449,-947 120,-947 120,-947 114,-947 108,-941 108,-935 108,-935 108,-877 108,-877 108,-871 114,-865 120,-865"/>
<text text-anchor="middle" x="284.5" y="-927" font-family="Helvetica,sans-Serif" font-size="20.00">Process roots</text>
</g>
<g id="clust3" class="cluster">
<title>cluster_information_branch</title>
<path fill="#fafbfc" stroke="#a9d18e" d="M20,-8C20,-8 285,-8 285,-8 291,-8 297,-14 297,-20 297,-20 297,-816 297,-816 297,-822 291,-828 285,-828 285,-828 20,-828 20,-828 14,-828 8,-822 8,-816 8,-816 8,-20 8,-20 8,-14 14,-8 20,-8"/>
<text text-anchor="middle" x="152.5" y="-808" font-family="Helvetica,sans-Serif" font-size="20.00">Information process branch</text>
</g>
<!-- https://w3id.org/sdata/core/MaterialCreation -->
<g id="node1" class="node">
<title>https://w3id.org/sdata/core/MaterialCreation</title>
<path fill="#eef8e7" stroke="#4f8a10" stroke-width="1.6" d="M867.5,-790C867.5,-790 768.5,-790 768.5,-790 762.5,-790 756.5,-784 756.5,-778 756.5,-778 756.5,-766 756.5,-766 756.5,-760 762.5,-754 768.5,-754 768.5,-754 867.5,-754 867.5,-754 873.5,-754 879.5,-760 879.5,-766 879.5,-766 879.5,-778 879.5,-778 879.5,-784 873.5,-790 867.5,-790"/>
<text text-anchor="middle" x="818" y="-768.9" font-family="Helvetica,sans-Serif" font-size="12.00" fill="#2f5d08">Material Creation</text>
</g>
<!-- https://w3id.org/sdata/core/MaterialTransformation -->
<g id="node7" class="node">
<title>https://w3id.org/sdata/core/MaterialTransformation</title>
<path fill="#eef8e7" stroke="#4f8a10" stroke-width="1.6" d="M887.5,-667C887.5,-667 748.5,-667 748.5,-667 742.5,-667 736.5,-661 736.5,-655 736.5,-655 736.5,-643 736.5,-643 736.5,-637 742.5,-631 748.5,-631 748.5,-631 887.5,-631 887.5,-631 893.5,-631 899.5,-637 899.5,-643 899.5,-643 899.5,-655 899.5,-655 899.5,-661 893.5,-667 887.5,-667"/>
<text text-anchor="middle" x="818" y="-645.9" font-family="Helvetica,sans-Serif" font-size="12.00" fill="#2f5d08">Material Transformation</text>
</g>
<!-- https://w3id.org/sdata/core/MaterialCreation&#45;&gt;https://w3id.org/sdata/core/MaterialTransformation -->
<g id="edge16" class="edge">
<title>https://w3id.org/sdata/core/MaterialCreation&#45;&gt;https://w3id.org/sdata/core/MaterialTransformation</title>
<path fill="none" stroke="#2b6cb0" stroke-width="2" d="M818,-753.92C818,-733.68 818,-699.73 818,-676.16"/>
<polygon fill="#2b6cb0" stroke="#2b6cb0" stroke-width="2" points="820.98,-675.88 818,-667.38 815.03,-675.88 820.98,-675.88"/>
<text text-anchor="middle" x="833.5" y="-706.8" font-family="Helvetica,sans-Serif" font-size="14.00" fill="#2b6cb0">next</text>
</g>
<!-- https://w3id.org/sdata/core/InformationCreation -->
<g id="node10" class="node">
<title>https://w3id.org/sdata/core/InformationCreation</title>
<path fill="#eef8e7" stroke="#4f8a10" stroke-width="1.6" d="M212,-790C212,-790 92,-790 92,-790 86,-790 80,-784 80,-778 80,-778 80,-766 80,-766 80,-760 86,-754 92,-754 92,-754 212,-754 212,-754 218,-754 224,-760 224,-766 224,-766 224,-778 224,-778 224,-784 218,-790 212,-790"/>
<text text-anchor="middle" x="152" y="-768.9" font-family="Helvetica,sans-Serif" font-size="12.00" fill="#2f5d08">Information Creation</text>
</g>
<!-- https://w3id.org/sdata/core/MaterialCreation&#45;&gt;https://w3id.org/sdata/core/InformationCreation -->
<g id="edge15" class="edge">
<title>https://w3id.org/sdata/core/MaterialCreation&#45;&gt;https://w3id.org/sdata/core/InformationCreation</title>
<path fill="none" stroke="#6b7280" stroke-width="1.6" stroke-dasharray="5,2" d="M756.25,-772C632.74,-772 355.89,-772 224.22,-772"/>
<text text-anchor="middle" x="490.25" y="-778.8" font-family="Helvetica,sans-Serif" font-size="14.00" fill="#6b7280">dual</text>
</g>
<!-- https://w3id.org/sdata/core/MaterialDestruction -->
<g id="node2" class="node">
<title>https://w3id.org/sdata/core/MaterialDestruction</title>
<path fill="#eef8e7" stroke="#4f8a10" stroke-width="1.6" d="M877,-52C877,-52 759,-52 759,-52 753,-52 747,-46 747,-40 747,-40 747,-28 747,-28 747,-22 753,-16 759,-16 759,-16 877,-16 877,-16 883,-16 889,-22 889,-28 889,-28 889,-40 889,-40 889,-46 883,-52 877,-52"/>
<text text-anchor="middle" x="818" y="-30.9" font-family="Helvetica,sans-Serif" font-size="12.00" fill="#2f5d08">Material Destruction</text>
</g>
<!-- https://w3id.org/sdata/core/InformationDestruction -->
<g id="node11" class="node">
<title>https://w3id.org/sdata/core/InformationDestruction</title>
<path fill="#eef8e7" stroke="#4f8a10" stroke-width="1.6" d="M221.5,-52C221.5,-52 82.5,-52 82.5,-52 76.5,-52 70.5,-46 70.5,-40 70.5,-40 70.5,-28 70.5,-28 70.5,-22 76.5,-16 82.5,-16 82.5,-16 221.5,-16 221.5,-16 227.5,-16 233.5,-22 233.5,-28 233.5,-28 233.5,-40 233.5,-40 233.5,-46 227.5,-52 221.5,-52"/>
<text text-anchor="middle" x="152" y="-30.9" font-family="Helvetica,sans-Serif" font-size="12.00" fill="#2f5d08">Information Destruction</text>
</g>
<!-- https://w3id.org/sdata/core/MaterialDestruction&#45;&gt;https://w3id.org/sdata/core/InformationDestruction -->
<g id="edge17" class="edge">
<title>https://w3id.org/sdata/core/MaterialDestruction&#45;&gt;https://w3id.org/sdata/core/InformationDestruction</title>
<path fill="none" stroke="#6b7280" stroke-width="1.6" stroke-dasharray="5,2" d="M746.84,-34C622.24,-34 365.31,-34 233.66,-34"/>
<text text-anchor="middle" x="490.25" y="-40.8" font-family="Helvetica,sans-Serif" font-size="14.00" fill="#6b7280">dual</text>
</g>
<!-- https://w3id.org/sdata/core/MaterialObservation -->
<g id="node3" class="node">
<title>https://w3id.org/sdata/core/MaterialObservation</title>
<path fill="#eef8e7" stroke="#4f8a10" stroke-width="1.6" d="M879,-421C879,-421 757,-421 757,-421 751,-421 745,-415 745,-409 745,-409 745,-397 745,-397 745,-391 751,-385 757,-385 757,-385 879,-385 879,-385 885,-385 891,-391 891,-397 891,-397 891,-409 891,-409 891,-415 885,-421 879,-421"/>
<text text-anchor="middle" x="818" y="-399.9" font-family="Helvetica,sans-Serif" font-size="12.00" fill="#2f5d08">Material Observation</text>
</g>
<!-- https://w3id.org/sdata/core/MaterialPreservation -->
<g id="node4" class="node">
<title>https://w3id.org/sdata/core/MaterialPreservation</title>
<path fill="#eef8e7" stroke="#4f8a10" stroke-width="1.6" d="M879.5,-298C879.5,-298 756.5,-298 756.5,-298 750.5,-298 744.5,-292 744.5,-286 744.5,-286 744.5,-274 744.5,-274 744.5,-268 750.5,-262 756.5,-262 756.5,-262 879.5,-262 879.5,-262 885.5,-262 891.5,-268 891.5,-274 891.5,-274 891.5,-286 891.5,-286 891.5,-292 885.5,-298 879.5,-298"/>
<text text-anchor="middle" x="818" y="-276.9" font-family="Helvetica,sans-Serif" font-size="12.00" fill="#2f5d08">Material Preservation</text>
</g>
<!-- https://w3id.org/sdata/core/MaterialObservation&#45;&gt;https://w3id.org/sdata/core/MaterialPreservation -->
<g id="edge19" class="edge">
<title>https://w3id.org/sdata/core/MaterialObservation&#45;&gt;https://w3id.org/sdata/core/MaterialPreservation</title>
<path fill="none" stroke="#2b6cb0" stroke-width="2" d="M818,-384.92C818,-364.68 818,-330.73 818,-307.16"/>
<polygon fill="#2b6cb0" stroke="#2b6cb0" stroke-width="2" points="820.98,-306.88 818,-298.38 815.03,-306.88 820.98,-306.88"/>
<text text-anchor="middle" x="833.5" y="-337.8" font-family="Helvetica,sans-Serif" font-size="14.00" fill="#2b6cb0">next</text>
</g>
<!-- https://w3id.org/sdata/core/InformationObservation -->
<g id="node12" class="node">
<title>https://w3id.org/sdata/core/InformationObservation</title>
<path fill="#eef8e7" stroke="#4f8a10" stroke-width="1.6" d="M223.5,-421C223.5,-421 80.5,-421 80.5,-421 74.5,-421 68.5,-415 68.5,-409 68.5,-409 68.5,-397 68.5,-397 68.5,-391 74.5,-385 80.5,-385 80.5,-385 223.5,-385 223.5,-385 229.5,-385 235.5,-391 235.5,-397 235.5,-397 235.5,-409 235.5,-409 235.5,-415 229.5,-421 223.5,-421"/>
<text text-anchor="middle" x="152" y="-399.9" font-family="Helvetica,sans-Serif" font-size="12.00" fill="#2f5d08">Information Observation</text>
</g>
<!-- https://w3id.org/sdata/core/MaterialObservation&#45;&gt;https://w3id.org/sdata/core/InformationObservation -->
<g id="edge18" class="edge">
<title>https://w3id.org/sdata/core/MaterialObservation&#45;&gt;https://w3id.org/sdata/core/InformationObservation</title>
<path fill="none" stroke="#6b7280" stroke-width="1.6" stroke-dasharray="5,2" d="M744.87,-403C620.18,-403 367.21,-403 235.67,-403"/>
<text text-anchor="middle" x="490.25" y="-409.8" font-family="Helvetica,sans-Serif" font-size="14.00" fill="#6b7280">dual</text>
</g>
<!-- https://w3id.org/sdata/core/MaterialRecovery -->
<g id="node5" class="node">
<title>https://w3id.org/sdata/core/MaterialRecovery</title>
<path fill="#eef8e7" stroke="#4f8a10" stroke-width="1.6" d="M870.5,-175C870.5,-175 765.5,-175 765.5,-175 759.5,-175 753.5,-169 753.5,-163 753.5,-163 753.5,-151 753.5,-151 753.5,-145 759.5,-139 765.5,-139 765.5,-139 870.5,-139 870.5,-139 876.5,-139 882.5,-145 882.5,-151 882.5,-151 882.5,-163 882.5,-163 882.5,-169 876.5,-175 870.5,-175"/>
<text text-anchor="middle" x="818" y="-153.9" font-family="Helvetica,sans-Serif" font-size="12.00" fill="#2f5d08">Material Recovery</text>
</g>
<!-- https://w3id.org/sdata/core/MaterialPreservation&#45;&gt;https://w3id.org/sdata/core/MaterialRecovery -->
<g id="edge21" class="edge">
<title>https://w3id.org/sdata/core/MaterialPreservation&#45;&gt;https://w3id.org/sdata/core/MaterialRecovery</title>
<path fill="none" stroke="#2b6cb0" stroke-width="2" d="M818,-261.92C818,-241.68 818,-207.73 818,-184.16"/>
<polygon fill="#2b6cb0" stroke="#2b6cb0" stroke-width="2" points="820.98,-183.88 818,-175.38 815.03,-183.88 820.98,-183.88"/>
<text text-anchor="middle" x="833.5" y="-214.8" font-family="Helvetica,sans-Serif" font-size="14.00" fill="#2b6cb0">next</text>
</g>
<!-- https://w3id.org/sdata/core/InformationPreservation -->
<g id="node13" class="node">
<title>https://w3id.org/sdata/core/InformationPreservation</title>
<path fill="#eef8e7" stroke="#4f8a10" stroke-width="1.6" d="M224,-298C224,-298 80,-298 80,-298 74,-298 68,-292 68,-286 68,-286 68,-274 68,-274 68,-268 74,-262 80,-262 80,-262 224,-262 224,-262 230,-262 236,-268 236,-274 236,-274 236,-286 236,-286 236,-292 230,-298 224,-298"/>
<text text-anchor="middle" x="152" y="-276.9" font-family="Helvetica,sans-Serif" font-size="12.00" fill="#2f5d08">Information Preservation</text>
</g>
<!-- https://w3id.org/sdata/core/MaterialPreservation&#45;&gt;https://w3id.org/sdata/core/InformationPreservation -->
<g id="edge20" class="edge">
<title>https://w3id.org/sdata/core/MaterialPreservation&#45;&gt;https://w3id.org/sdata/core/InformationPreservation</title>
<path fill="none" stroke="#6b7280" stroke-width="1.6" stroke-dasharray="5,2" d="M744.46,-280C619.73,-280 367.5,-280 236.01,-280"/>
<text text-anchor="middle" x="490.25" y="-286.8" font-family="Helvetica,sans-Serif" font-size="14.00" fill="#6b7280">dual</text>
</g>
<!-- https://w3id.org/sdata/core/MaterialRecovery&#45;&gt;https://w3id.org/sdata/core/MaterialDestruction -->
<g id="edge32" class="edge">
<title>https://w3id.org/sdata/core/MaterialRecovery&#45;&gt;https://w3id.org/sdata/core/MaterialDestruction</title>
<path fill="none" stroke="#2b6cb0" stroke-width="2" d="M818,-138.92C818,-118.68 818,-84.73 818,-61.16"/>
<polygon fill="#2b6cb0" stroke="#2b6cb0" stroke-width="2" points="820.98,-60.88 818,-52.38 815.03,-60.88 820.98,-60.88"/>
<text text-anchor="middle" x="833.5" y="-91.8" font-family="Helvetica,sans-Serif" font-size="14.00" fill="#2b6cb0">next</text>
</g>
<!-- https://w3id.org/sdata/core/InformationRecovery -->
<g id="node14" class="node">
<title>https://w3id.org/sdata/core/InformationRecovery</title>
<path fill="#eef8e7" stroke="#4f8a10" stroke-width="1.6" d="M215,-175C215,-175 89,-175 89,-175 83,-175 77,-169 77,-163 77,-163 77,-151 77,-151 77,-145 83,-139 89,-139 89,-139 215,-139 215,-139 221,-139 227,-145 227,-151 227,-151 227,-163 227,-163 227,-169 221,-175 215,-175"/>
<text text-anchor="middle" x="152" y="-153.9" font-family="Helvetica,sans-Serif" font-size="12.00" fill="#2f5d08">Information Recovery</text>
</g>
<!-- https://w3id.org/sdata/core/MaterialRecovery&#45;&gt;https://w3id.org/sdata/core/InformationRecovery -->
<g id="edge31" class="edge">
<title>https://w3id.org/sdata/core/MaterialRecovery&#45;&gt;https://w3id.org/sdata/core/InformationRecovery</title>
<path fill="none" stroke="#6b7280" stroke-width="1.6" stroke-dasharray="5,2" d="M753.08,-157C628.98,-157 358.76,-157 227.1,-157"/>
<text text-anchor="middle" x="490.25" y="-163.8" font-family="Helvetica,sans-Serif" font-size="14.00" fill="#6b7280">dual</text>
</g>
<!-- https://w3id.org/sdata/core/MaterialTransfer -->
<g id="node6" class="node">
<title>https://w3id.org/sdata/core/MaterialTransfer</title>
<path fill="#eef8e7" stroke="#4f8a10" stroke-width="1.6" d="M867,-544C867,-544 769,-544 769,-544 763,-544 757,-538 757,-532 757,-532 757,-520 757,-520 757,-514 763,-508 769,-508 769,-508 867,-508 867,-508 873,-508 879,-514 879,-520 879,-520 879,-532 879,-532 879,-538 873,-544 867,-544"/>
<text text-anchor="middle" x="818" y="-522.9" font-family="Helvetica,sans-Serif" font-size="12.00" fill="#2f5d08">Material Transfer</text>
</g>
<!-- https://w3id.org/sdata/core/MaterialTransfer&#45;&gt;https://w3id.org/sdata/core/MaterialObservation -->
<g id="edge34" class="edge">
<title>https://w3id.org/sdata/core/MaterialTransfer&#45;&gt;https://w3id.org/sdata/core/MaterialObservation</title>
<path fill="none" stroke="#2b6cb0" stroke-width="2" d="M818,-507.92C818,-487.68 818,-453.73 818,-430.16"/>
<polygon fill="#2b6cb0" stroke="#2b6cb0" stroke-width="2" points="820.98,-429.88 818,-421.38 815.03,-429.88 820.98,-429.88"/>
<text text-anchor="middle" x="833.5" y="-460.8" font-family="Helvetica,sans-Serif" font-size="14.00" fill="#2b6cb0">next</text>
</g>
<!-- https://w3id.org/sdata/core/InformationTransfer -->
<g id="node15" class="node">
<title>https://w3id.org/sdata/core/InformationTransfer</title>
<path fill="#eef8e7" stroke="#4f8a10" stroke-width="1.6" d="M211.5,-544C211.5,-544 92.5,-544 92.5,-544 86.5,-544 80.5,-538 80.5,-532 80.5,-532 80.5,-520 80.5,-520 80.5,-514 86.5,-508 92.5,-508 92.5,-508 211.5,-508 211.5,-508 217.5,-508 223.5,-514 223.5,-520 223.5,-520 223.5,-532 223.5,-532 223.5,-538 217.5,-544 211.5,-544"/>
<text text-anchor="middle" x="152" y="-522.9" font-family="Helvetica,sans-Serif" font-size="12.00" fill="#2f5d08">Information Transfer</text>
</g>
<!-- https://w3id.org/sdata/core/MaterialTransfer&#45;&gt;https://w3id.org/sdata/core/InformationTransfer -->
<g id="edge33" class="edge">
<title>https://w3id.org/sdata/core/MaterialTransfer&#45;&gt;https://w3id.org/sdata/core/InformationTransfer</title>
<path fill="none" stroke="#6b7280" stroke-width="1.6" stroke-dasharray="5,2" d="M756.58,-526C633.04,-526 355.12,-526 223.59,-526"/>
<text text-anchor="middle" x="490.25" y="-532.8" font-family="Helvetica,sans-Serif" font-size="14.00" fill="#6b7280">dual</text>
</g>
<!-- https://w3id.org/sdata/core/MaterialTransformation&#45;&gt;https://w3id.org/sdata/core/MaterialTransfer -->
<g id="edge36" class="edge">
<title>https://w3id.org/sdata/core/MaterialTransformation&#45;&gt;https://w3id.org/sdata/core/MaterialTransfer</title>
<path fill="none" stroke="#2b6cb0" stroke-width="2" d="M818,-630.92C818,-610.68 818,-576.73 818,-553.16"/>
<polygon fill="#2b6cb0" stroke="#2b6cb0" stroke-width="2" points="820.98,-552.88 818,-544.38 815.03,-552.88 820.98,-552.88"/>
<text text-anchor="middle" x="833.5" y="-583.8" font-family="Helvetica,sans-Serif" font-size="14.00" fill="#2b6cb0">next</text>
</g>
<!-- https://w3id.org/sdata/core/InformationTransformation -->
<g id="node16" class="node">
<title>https://w3id.org/sdata/core/InformationTransformation</title>
<path fill="#eef8e7" stroke="#4f8a10" stroke-width="1.6" d="M232,-667C232,-667 72,-667 72,-667 66,-667 60,-661 60,-655 60,-655 60,-643 60,-643 60,-637 66,-631 72,-631 72,-631 232,-631 232,-631 238,-631 244,-637 244,-643 244,-643 244,-655 244,-655 244,-661 238,-667 232,-667"/>
<text text-anchor="middle" x="152" y="-645.9" font-family="Helvetica,sans-Serif" font-size="12.00" fill="#2f5d08">Information Transformation</text>
</g>
<!-- https://w3id.org/sdata/core/MaterialTransformation&#45;&gt;https://w3id.org/sdata/core/InformationTransformation -->
<g id="edge35" class="edge">
<title>https://w3id.org/sdata/core/MaterialTransformation&#45;&gt;https://w3id.org/sdata/core/InformationTransformation</title>
<path fill="none" stroke="#6b7280" stroke-width="1.6" stroke-dasharray="5,2" d="M736.28,-649C611.66,-649 374.87,-649 244.25,-649"/>
<text text-anchor="middle" x="490.25" y="-655.8" font-family="Helvetica,sans-Serif" font-size="14.00" fill="#6b7280">dual</text>
</g>
<!-- https://w3id.org/sdata/core/InformationProcess -->
<g id="node8" class="node">
<title>https://w3id.org/sdata/core/InformationProcess</title>
<path fill="#e8f1ff" stroke="#2b6cb0" stroke-width="1.6" d="M243.5,-909C243.5,-909 128.5,-909 128.5,-909 122.5,-909 116.5,-903 116.5,-897 116.5,-897 116.5,-885 116.5,-885 116.5,-879 122.5,-873 128.5,-873 128.5,-873 243.5,-873 243.5,-873 249.5,-873 255.5,-879 255.5,-885 255.5,-885 255.5,-897 255.5,-897 255.5,-903 249.5,-909 243.5,-909"/>
<text text-anchor="middle" x="186" y="-887.9" font-family="Helvetica,sans-Serif" font-size="12.00" fill="#1a365d">Information Process</text>
</g>
<!-- https://w3id.org/sdata/core/InformationProcess&#45;&gt;https://w3id.org/sdata/core/InformationCreation -->
<g id="edge4" class="edge">
<title>https://w3id.org/sdata/core/InformationProcess&#45;&gt;https://w3id.org/sdata/core/InformationCreation</title>
<path fill="none" stroke="#4a5568" stroke-width="1.6" d="M170.1,-872.99C159.7,-853.49 149.77,-821.33 146.81,-798.76"/>
<polygon fill="#4a5568" stroke="#4a5568" stroke-width="1.6" points="149.74,-798.22 145.99,-790.03 143.82,-798.77 149.74,-798.22"/>
</g>
<!-- https://w3id.org/sdata/core/InformationProcess&#45;&gt;https://w3id.org/sdata/core/InformationCreation -->
<!-- https://w3id.org/sdata/core/InformationProcess&#45;&gt;https://w3id.org/sdata/core/InformationDestruction -->
<g id="edge6" class="edge">
<title>https://w3id.org/sdata/core/InformationProcess&#45;&gt;https://w3id.org/sdata/core/InformationDestruction</title>
<path fill="none" stroke="#4a5568" stroke-width="1.6" d="M202.11,-873C213.81,-860.59 229.98,-843.34 244,-828 273.72,-795.46 270.28,-773.08 310,-754 445.4,-688.95 864.15,-807.21 985,-718 1010.91,-698.88 1010,-682.2 1010,-650 1010,-650 1010,-650 1010,-217.5 1010,-159.33 1033.8,-127.4 991,-88 963.8,-62.95 453.71,-44.34 242.46,-37.68"/>
<polygon fill="#4a5568" stroke="#4a5568" stroke-width="1.6" points="242.43,-34.7 233.85,-37.41 242.25,-40.65 242.43,-34.7"/>
</g>
<!-- https://w3id.org/sdata/core/InformationProcess&#45;&gt;https://w3id.org/sdata/core/InformationObservation -->
<g id="edge7" class="edge">
<title>https://w3id.org/sdata/core/InformationProcess&#45;&gt;https://w3id.org/sdata/core/InformationObservation</title>
<path fill="none" stroke="#4a5568" stroke-width="1.6" d="M224.62,-872.94C246.86,-862.89 275.24,-849.7 300,-837 307.26,-833.28 309.13,-832.4 316,-828 363.15,-797.78 365.25,-772.82 418,-754 483.31,-730.7 993.41,-768.42 1041,-718 1083.1,-673.4 1052.77,-640.19 1041,-580 1029.68,-522.09 1038.89,-491.47 991,-457 961.1,-435.48 456.25,-414.93 244.41,-407.21"/>
<polygon fill="#4a5568" stroke="#4a5568" stroke-width="1.6" points="244.37,-404.23 235.77,-406.9 244.15,-410.18 244.37,-404.23"/>
</g>
<!-- https://w3id.org/sdata/core/InformationProcess&#45;&gt;https://w3id.org/sdata/core/InformationPreservation -->
<g id="edge8" class="edge">
<title>https://w3id.org/sdata/core/InformationProcess&#45;&gt;https://w3id.org/sdata/core/InformationPreservation</title>
<path fill="none" stroke="#4a5568" stroke-width="1.6" d="M255.53,-876.03C298.03,-865.96 352.73,-850.21 398,-828 448.28,-803.33 447.29,-772.94 500,-754 560.45,-732.28 1027.91,-759.43 1077,-718 1106.83,-692.82 1093.06,-669.82 1089,-631 1074.55,-492.75 1104.07,-414.85 991,-334 961.05,-312.58 456.84,-291.99 244.79,-284.24"/>
<polygon fill="#4a5568" stroke="#4a5568" stroke-width="1.6" points="244.74,-281.26 236.14,-283.92 244.52,-287.21 244.74,-281.26"/>
</g>
<!-- https://w3id.org/sdata/core/InformationProcess&#45;&gt;https://w3id.org/sdata/core/InformationRecovery -->
<g id="edge9" class="edge">
<title>https://w3id.org/sdata/core/InformationProcess&#45;&gt;https://w3id.org/sdata/core/InformationRecovery</title>
<path fill="none" stroke="#4a5568" stroke-width="1.6" d="M255.86,-876.21C339.59,-859.54 469.95,-833.08 480,-828 524.11,-805.71 517.42,-773.09 563,-754 676.18,-706.59 1023.4,-800.76 1114,-718 1130.94,-702.53 1120.22,-689.87 1122,-667 1138.39,-456.77 1168.86,-324.27 991,-211 959.5,-190.94 442.02,-169.08 235.82,-161.12"/>
<polygon fill="#4a5568" stroke="#4a5568" stroke-width="1.6" points="235.74,-158.14 227.13,-160.78 235.51,-164.08 235.74,-158.14"/>
</g>
<!-- https://w3id.org/sdata/core/InformationProcess&#45;&gt;https://w3id.org/sdata/core/InformationTransfer -->
<g id="edge10" class="edge">
<title>https://w3id.org/sdata/core/InformationProcess&#45;&gt;https://w3id.org/sdata/core/InformationTransfer</title>
<path fill="none" stroke="#4a5568" stroke-width="1.6" d="M255.8,-875.54C274.95,-871.83 295.73,-868.04 315,-865 416.72,-848.97 446.19,-865.99 545,-837 626.45,-813.11 634.93,-775.67 717,-754 775.03,-738.68 1215,-761.83 1256,-718 1260.55,-713.13 1259.59,-708.62 1256,-703 1186.14,-593.55 1116.85,-611.98 991,-580 848.95,-543.91 413.41,-531.83 232.3,-528.29"/>
<polygon fill="#4a5568" stroke="#4a5568" stroke-width="1.6" points="232.16,-525.32 223.61,-528.13 232.05,-531.27 232.16,-525.32"/>
</g>
<!-- https://w3id.org/sdata/core/InformationProcess&#45;&gt;https://w3id.org/sdata/core/InformationTransformation -->
<g id="edge11" class="edge">
<title>https://w3id.org/sdata/core/InformationProcess&#45;&gt;https://w3id.org/sdata/core/InformationTransformation</title>
<path fill="none" stroke="#4a5568" stroke-width="1.6" d="M255.74,-875.14C274.89,-871.43 295.69,-867.73 315,-865 383.93,-855.25 563.13,-864.69 627,-837 677.83,-814.96 669.65,-777.11 720,-754 831.38,-702.87 1074.89,-792.35 991,-703 966.08,-676.45 470.06,-659.09 252.65,-652.72"/>
<polygon fill="#4a5568" stroke="#4a5568" stroke-width="1.6" points="252.67,-649.74 244.09,-652.47 252.5,-655.69 252.67,-649.74"/>
</g>
<!-- https://w3id.org/sdata/core/MaterialProcess -->
<g id="node9" class="node">
<title>https://w3id.org/sdata/core/MaterialProcess</title>
<path fill="#e8f1ff" stroke="#2b6cb0" stroke-width="1.6" d="M441,-909C441,-909 347,-909 347,-909 341,-909 335,-903 335,-897 335,-897 335,-885 335,-885 335,-879 341,-873 347,-873 347,-873 441,-873 441,-873 447,-873 453,-879 453,-885 453,-885 453,-897 453,-897 453,-903 447,-909 441,-909"/>
<text text-anchor="middle" x="394" y="-887.9" font-family="Helvetica,sans-Serif" font-size="12.00" fill="#1a365d">Material Process</text>
</g>
<!-- https://w3id.org/sdata/core/MaterialProcess&#45;&gt;https://w3id.org/sdata/core/MaterialCreation -->
<g id="edge23" class="edge">
<title>https://w3id.org/sdata/core/MaterialProcess&#45;&gt;https://w3id.org/sdata/core/MaterialCreation</title>
<path fill="none" stroke="#4a5568" stroke-width="1.6" d="M453.28,-889.34C520.22,-886.24 630,-874.92 717,-837 739.34,-827.27 760.79,-809.82 779,-795.6"/>
<polygon fill="#4a5568" stroke="#4a5568" stroke-width="1.6" points="781.17,-797.68 786.07,-790.13 777.53,-792.98 781.17,-797.68"/>
</g>
<!-- https://w3id.org/sdata/core/MaterialProcess&#45;&gt;https://w3id.org/sdata/core/MaterialCreation -->
<!-- https://w3id.org/sdata/core/MaterialProcess&#45;&gt;https://w3id.org/sdata/core/MaterialDestruction -->
<g id="edge25" class="edge">
<title>https://w3id.org/sdata/core/MaterialProcess&#45;&gt;https://w3id.org/sdata/core/MaterialDestruction</title>
<path fill="none" stroke="#4a5568" stroke-width="1.6" d="M453.3,-888.95C549.12,-885.88 743.08,-873.96 900,-828 972.87,-806.65 985.42,-786.6 1054,-754 1136.06,-714.99 1190.31,-743.71 1239,-667 1312.39,-551.38 1132.63,-176.36 1028,-88 991.91,-57.52 940.67,-44.19 897.84,-38.52"/>
<polygon fill="#4a5568" stroke="#4a5568" stroke-width="1.6" points="898.19,-35.57 889.39,-37.49 897.47,-41.47 898.19,-35.57"/>
</g>
<!-- https://w3id.org/sdata/core/MaterialProcess&#45;&gt;https://w3id.org/sdata/core/MaterialObservation -->
<g id="edge26" class="edge">
<title>https://w3id.org/sdata/core/MaterialProcess&#45;&gt;https://w3id.org/sdata/core/MaterialObservation</title>
<path fill="none" stroke="#4a5568" stroke-width="1.6" d="M453.21,-887.17C594.18,-879.99 946.39,-859.4 1060,-828 1138.64,-806.27 1149.82,-777.33 1228,-754 1321.26,-726.17 1376.18,-787.8 1444,-718 1471.03,-690.18 1470.45,-664.56 1451,-631 1409.55,-559.47 1282.34,-535.03 1030,-457 987.36,-443.82 939.15,-431.56 899.48,-422.16"/>
<polygon fill="#4a5568" stroke="#4a5568" stroke-width="1.6" points="900.11,-419.25 891.15,-420.2 898.75,-425.04 900.11,-419.25"/>
</g>
<!-- https://w3id.org/sdata/core/MaterialProcess&#45;&gt;https://w3id.org/sdata/core/MaterialPreservation -->
<g id="edge27" class="edge">
<title>https://w3id.org/sdata/core/MaterialProcess&#45;&gt;https://w3id.org/sdata/core/MaterialPreservation</title>
<path fill="none" stroke="#4a5568" stroke-width="1.6" d="M453.13,-888.27C610.94,-883.19 1039.23,-866.18 1175,-828 1245.03,-808.3 1252.56,-778.66 1321,-754 1389.16,-729.44 1430.51,-770.92 1480,-718 1506.52,-689.64 1502.68,-666.95 1488,-631 1476,-601.61 1462.89,-599.7 1438,-580 1272.26,-448.83 1226.19,-415.09 1031,-334 989.28,-316.67 940.51,-304.02 900.18,-295.44"/>
<polygon fill="#4a5568" stroke="#4a5568" stroke-width="1.6" points="900.63,-292.49 891.7,-293.67 899.42,-298.32 900.63,-292.49"/>
</g>
<!-- https://w3id.org/sdata/core/MaterialProcess&#45;&gt;https://w3id.org/sdata/core/MaterialRecovery -->
<g id="edge28" class="edge">
<title>https://w3id.org/sdata/core/MaterialProcess&#45;&gt;https://w3id.org/sdata/core/MaterialRecovery</title>
<path fill="none" stroke="#4a5568" stroke-width="1.6" d="M453.27,-890.3C626.2,-890.47 1127.46,-885.83 1279,-828 1329.99,-808.54 1327.86,-777.74 1377,-754 1434.46,-726.24 1473.14,-765.28 1516,-718 1725.25,-487.21 1314.35,-342.62 1032,-211 987.54,-190.27 933.95,-177.02 891.53,-168.94"/>
<polygon fill="#4a5568" stroke="#4a5568" stroke-width="1.6" points="891.82,-165.97 882.92,-167.35 890.74,-171.82 891.82,-165.97"/>
</g>
<!-- https://w3id.org/sdata/core/MaterialProcess&#45;&gt;https://w3id.org/sdata/core/MaterialTransfer -->
<g id="edge29" class="edge">
<title>https://w3id.org/sdata/core/MaterialProcess&#45;&gt;https://w3id.org/sdata/core/MaterialTransfer</title>
<path fill="none" stroke="#4a5568" stroke-width="1.6" d="M453.04,-889.39C638.26,-887.01 1206.04,-875.88 1383,-828 1512.86,-792.86 1589.1,-829.08 1665,-718 1755.8,-585.13 1105.89,-541.03 887.72,-530.06"/>
<polygon fill="#4a5568" stroke="#4a5568" stroke-width="1.6" points="887.85,-527.08 879.21,-529.63 887.55,-533.03 887.85,-527.08"/>
</g>
<!-- https://w3id.org/sdata/core/MaterialProcess&#45;&gt;https://w3id.org/sdata/core/MaterialTransformation -->
<g id="edge30" class="edge">
<title>https://w3id.org/sdata/core/MaterialProcess&#45;&gt;https://w3id.org/sdata/core/MaterialTransformation</title>
<path fill="none" stroke="#4a5568" stroke-width="1.6" d="M453.01,-889.18C666.58,-885.92 1388.46,-872.31 1422,-837 1574.59,-676.34 1111.05,-652.78 908.12,-650"/>
<polygon fill="#4a5568" stroke="#4a5568" stroke-width="1.6" points="908.08,-647.02 899.54,-649.89 908,-652.97 908.08,-647.02"/>
</g>
<!-- https://w3id.org/sdata/core/MaterialProcess&#45;&gt;https://w3id.org/sdata/core/InformationProcess -->
<g id="edge22" class="edge">
<title>https://w3id.org/sdata/core/MaterialProcess&#45;&gt;https://w3id.org/sdata/core/InformationProcess</title>
<path fill="none" stroke="#6b7280" stroke-width="1.6" stroke-dasharray="5,2" d="M334.94,-891C310.22,-891 281.3,-891 255.55,-891"/>
<text text-anchor="middle" x="295.25" y="-897.8" font-family="Helvetica,sans-Serif" font-size="14.00" fill="#6b7280">dual</text>
</g>
<!-- https://w3id.org/sdata/core/InformationCreation&#45;&gt;https://w3id.org/sdata/core/InformationTransformation -->
<g id="edge1" class="edge">
<title>https://w3id.org/sdata/core/InformationCreation&#45;&gt;https://w3id.org/sdata/core/InformationTransformation</title>
<path fill="none" stroke="#4f8a10" stroke-width="2" d="M152,-753.92C152,-733.68 152,-699.73 152,-676.16"/>
<polygon fill="#4f8a10" stroke="#4f8a10" stroke-width="2" points="154.98,-675.88 152,-667.38 149.03,-675.88 154.98,-675.88"/>
<text text-anchor="middle" x="167.5" y="-706.8" font-family="Helvetica,sans-Serif" font-size="14.00" fill="#4f8a10">next</text>
</g>
<!-- https://w3id.org/sdata/core/InformationObservation&#45;&gt;https://w3id.org/sdata/core/InformationPreservation -->
<g id="edge2" class="edge">
<title>https://w3id.org/sdata/core/InformationObservation&#45;&gt;https://w3id.org/sdata/core/InformationPreservation</title>
<path fill="none" stroke="#4f8a10" stroke-width="2" d="M152,-384.92C152,-364.68 152,-330.73 152,-307.16"/>
<polygon fill="#4f8a10" stroke="#4f8a10" stroke-width="2" points="154.98,-306.88 152,-298.38 149.03,-306.88 154.98,-306.88"/>
<text text-anchor="middle" x="167.5" y="-337.8" font-family="Helvetica,sans-Serif" font-size="14.00" fill="#4f8a10">next</text>
</g>
<!-- https://w3id.org/sdata/core/InformationPreservation&#45;&gt;https://w3id.org/sdata/core/InformationRecovery -->
<g id="edge3" class="edge">
<title>https://w3id.org/sdata/core/InformationPreservation&#45;&gt;https://w3id.org/sdata/core/InformationRecovery</title>
<path fill="none" stroke="#4f8a10" stroke-width="2" d="M152,-261.92C152,-241.68 152,-207.73 152,-184.16"/>
<polygon fill="#4f8a10" stroke="#4f8a10" stroke-width="2" points="154.98,-183.88 152,-175.38 149.03,-183.88 154.98,-183.88"/>
<text text-anchor="middle" x="167.5" y="-214.8" font-family="Helvetica,sans-Serif" font-size="14.00" fill="#4f8a10">next</text>
</g>
<!-- https://w3id.org/sdata/core/InformationRecovery&#45;&gt;https://w3id.org/sdata/core/InformationDestruction -->
<g id="edge12" class="edge">
<title>https://w3id.org/sdata/core/InformationRecovery&#45;&gt;https://w3id.org/sdata/core/InformationDestruction</title>
<path fill="none" stroke="#4f8a10" stroke-width="2" d="M152,-138.92C152,-118.68 152,-84.73 152,-61.16"/>
<polygon fill="#4f8a10" stroke="#4f8a10" stroke-width="2" points="154.98,-60.88 152,-52.38 149.03,-60.88 154.98,-60.88"/>
<text text-anchor="middle" x="167.5" y="-91.8" font-family="Helvetica,sans-Serif" font-size="14.00" fill="#4f8a10">next</text>
</g>
<!-- https://w3id.org/sdata/core/InformationTransfer&#45;&gt;https://w3id.org/sdata/core/InformationObservation -->
<g id="edge13" class="edge">
<title>https://w3id.org/sdata/core/InformationTransfer&#45;&gt;https://w3id.org/sdata/core/InformationObservation</title>
<path fill="none" stroke="#4f8a10" stroke-width="2" d="M152,-507.92C152,-487.68 152,-453.73 152,-430.16"/>
<polygon fill="#4f8a10" stroke="#4f8a10" stroke-width="2" points="154.98,-429.88 152,-421.38 149.03,-429.88 154.98,-429.88"/>
<text text-anchor="middle" x="167.5" y="-460.8" font-family="Helvetica,sans-Serif" font-size="14.00" fill="#4f8a10">next</text>
</g>
<!-- https://w3id.org/sdata/core/InformationTransformation&#45;&gt;https://w3id.org/sdata/core/InformationTransfer -->
<g id="edge14" class="edge">
<title>https://w3id.org/sdata/core/InformationTransformation&#45;&gt;https://w3id.org/sdata/core/InformationTransfer</title>
<path fill="none" stroke="#4f8a10" stroke-width="2" d="M152,-630.92C152,-610.68 152,-576.73 152,-553.16"/>
<polygon fill="#4f8a10" stroke="#4f8a10" stroke-width="2" points="154.98,-552.88 152,-544.38 149.03,-552.88 154.98,-552.88"/>
<text text-anchor="middle" x="167.5" y="-583.8" font-family="Helvetica,sans-Serif" font-size="14.00" fill="#4f8a10">next</text>
</g>
</g>
</svg>
