<?xml version="1.0" encoding="UTF-8" standalone="no"?>
<!DOCTYPE svg PUBLIC "-//W3C//DTD SVG 1.1//EN"
 "http://www.w3.org/Graphics/SVG/1.1/DTD/svg11.dtd">
<!-- Generated by graphviz version 2.43.0 (0)
 -->
<!-- Pages: 1 -->
<svg width="1221pt" height="747pt"
 viewBox="0.00 0.00 1221.40 747.40" xmlns="http://www.w3.org/2000/svg" xmlns:xlink="http://www.w3.org/1999/xlink">
<g id="graph0" class="graph" transform="scale(1 1) rotate(0) translate(25.2 722.2)">
<polygon fill="#fafbfc" stroke="transparent" points="-25.2,25.2 -25.2,-722.2 1196.2,-722.2 1196.2,25.2 -25.2,25.2"/>
<text text-anchor="middle" x="585.5" y="-677" font-family="Helvetica,sans-Serif" font-size="20.00">sdata Class Hierarchy (BFO entity &#45;&gt; BFO hierarchy &#45;&gt; sdata classes)</text>
<g id="clust1" class="cluster">
<title>cluster_legend</title>
<path fill="#fafbfc" stroke="#cbd5e0" d="M20,-454C20,-454 207,-454 207,-454 213,-454 219,-460 219,-466 219,-466 219,-647 219,-647 219,-653 213,-659 207,-659 207,-659 20,-659 20,-659 14,-659 8,-653 8,-647 8,-647 8,-466 8,-466 8,-460 14,-454 20,-454"/>
<text text-anchor="middle" x="113.5" y="-639" font-family="Helvetica,sans-Serif" font-size="20.00">Legend</text>
</g>
<g id="clust2" class="cluster">
<title>cluster_bfo_context</title>
<path fill="#fafbfc" stroke="#f3c887" d="M239,-127C239,-127 1025,-127 1025,-127 1031,-127 1037,-133 1037,-139 1037,-139 1037,-647 1037,-647 1037,-653 1031,-659 1025,-659 1025,-659 239,-659 239,-659 233,-659 227,-653 227,-647 227,-647 227,-139 227,-139 227,-133 233,-127 239,-127"/>
<text text-anchor="middle" x="632" y="-639" font-family="Helvetica,sans-Serif" font-size="20.00">BFO hierarchy</text>
</g>
<g id="clust3" class="cluster">
<title>cluster_sdata</title>
<path fill="#fafbfc" stroke="#90b5e8" d="M280,-8C280,-8 1151,-8 1151,-8 1157,-8 1163,-14 1163,-20 1163,-20 1163,-78 1163,-78 1163,-84 1157,-90 1151,-90 1151,-90 280,-90 280,-90 274,-90 268,-84 268,-78 268,-78 268,-20 268,-20 268,-14 274,-8 280,-8"/>
<text text-anchor="middle" x="715.5" y="-70" font-family="Helvetica,sans-Serif" font-size="20.00">sdata classes</text>
</g>
<!-- legend_sdata -->
<g id="node1" class="node">
<title>legend_sdata</title>
<path fill="#e8f1ff" stroke="#2b6cb0" stroke-width="1.6" d="M91.5,-498C91.5,-498 28.5,-498 28.5,-498 22.5,-498 16.5,-492 16.5,-486 16.5,-486 16.5,-474 16.5,-474 16.5,-468 22.5,-462 28.5,-462 28.5,-462 91.5,-462 91.5,-462 97.5,-462 103.5,-468 103.5,-474 103.5,-474 103.5,-486 103.5,-486 103.5,-492 97.5,-498 91.5,-498"/>
<text text-anchor="middle" x="60" y="-476.9" font-family="Helvetica,sans-Serif" font-size="12.00" fill="#1a365d">sdata class</text>
</g>
<!-- legend_bfo -->
<g id="node2" class="node">
<title>legend_bfo</title>
<path fill="#fff4e5" stroke="#b7791f" stroke-width="1.6" d="M92,-621C92,-621 28,-621 28,-621 22,-621 16,-615 16,-609 16,-609 16,-597 16,-597 16,-591 22,-585 28,-585 28,-585 92,-585 92,-585 98,-585 104,-591 104,-597 104,-597 104,-609 104,-609 104,-615 98,-621 92,-621"/>
<text text-anchor="middle" x="60" y="-599.9" font-family="Helvetica,sans-Serif" font-size="12.00" fill="#7b341e">BFO parent</text>
</g>
<!-- legend_bfo&#45;&gt;legend_sdata -->
<g id="edge1" class="edge">
<title>legend_bfo&#45;&gt;legend_sdata</title>
<path fill="none" stroke="#4a5568" stroke-width="1.6" d="M60,-584.92C60,-564.68 60,-530.73 60,-507.16"/>
<polygon fill="#4a5568" stroke="#4a5568" stroke-width="1.6" points="62.98,-506.88 60,-498.38 57.03,-506.88 62.98,-506.88"/>
<text text-anchor="middle" x="137.5" y="-537.8" font-family="Helvetica,sans-Serif" font-size="14.00">superclass → subclass</text>
</g>
<!-- http://purl.obolibrary.org/obo/BFO_0000001 -->
<g id="node3" class="node">
<title>http://purl.obolibrary.org/obo/BFO_0000001</title>
<path fill="#fff4e5" stroke="#b7791f" stroke-width="1.6" d="M773,-621C773,-621 743,-621 743,-621 737,-621 731,-615 731,-609 731,-609 731,-597 731,-597 731,-591 737,-585 743,-585 743,-585 773,-585 773,-585 779,-585 785,-591 785,-597 785,-597 785,-609 785,-609 785,-615 779,-621 773,-621"/>
<text text-anchor="middle" x="758" y="-599.9" font-family="Helvetica,sans-Serif" font-size="12.00" fill="#7b341e">entity</text>
</g>
<!-- http://purl.obolibrary.org/obo/BFO_0000002 -->
<g id="node4" class="node">
<title>http://purl.obolibrary.org/obo/BFO_0000002</title>
<path fill="#fff4e5" stroke="#b7791f" stroke-width="1.6" d="M698,-498C698,-498 638,-498 638,-498 632,-498 626,-492 626,-486 626,-486 626,-474 626,-474 626,-468 632,-462 638,-462 638,-462 698,-462 698,-462 704,-462 710,-468 710,-474 710,-474 710,-486 710,-486 710,-492 704,-498 698,-498"/>
<text text-anchor="middle" x="668" y="-476.9" font-family="Helvetica,sans-Serif" font-size="12.00" fill="#7b341e">continuant</text>
</g>
<!-- http://purl.obolibrary.org/obo/BFO_0000001&#45;&gt;http://purl.obolibrary.org/obo/BFO_0000002 -->
<g id="edge2" class="edge">
<title>http://purl.obolibrary.org/obo/BFO_0000001&#45;&gt;http://purl.obolibrary.org/obo/BFO_0000002</title>
<path fill="none" stroke="#4a5568" stroke-width="1.6" d="M745.3,-584.92C729.84,-564.14 703.64,-528.91 686.08,-505.31"/>
<polygon fill="#4a5568" stroke="#4a5568" stroke-width="1.6" points="688.39,-503.43 680.93,-498.38 683.62,-506.98 688.39,-503.43"/>
</g>
<!-- http://purl.obolibrary.org/obo/BFO_0000003 -->
<g id="node5" class="node">
<title>http://purl.obolibrary.org/obo/BFO_0000003</title>
<path fill="#fff4e5" stroke="#b7791f" stroke-width="1.6" d="M875,-498C875,-498 821,-498 821,-498 815,-498 809,-492 809,-486 809,-486 809,-474 809,-474 809,-468 815,-462 821,-462 821,-462 875,-462 875,-462 881,-462 887,-468 887,-474 887,-474 887,-486 887,-486 887,-492 881,-498 875,-498"/>
<text text-anchor="middle" x="848" y="-476.9" font-family="Helvetica,sans-Serif" font-size="12.00" fill="#7b341e">occurrent</text>
</g>
<!-- http://purl.obolibrary.org/obo/BFO_0000001&#45;&gt;http://purl.obolibrary.org/obo/BFO_0000003 -->
<g id="edge3" class="edge">
<title>http://purl.obolibrary.org/obo/BFO_0000001&#45;&gt;http://purl.obolibrary.org/obo/BFO_0000003</title>
<path fill="none" stroke="#4a5568" stroke-width="1.6" d="M770.7,-584.92C786.16,-564.14 812.36,-528.91 829.92,-505.31"/>
<polygon fill="#4a5568" stroke="#4a5568" stroke-width="1.6" points="832.38,-506.98 835.07,-498.38 827.61,-503.43 832.38,-506.98"/>
</g>
<!-- http://purl.obolibrary.org/obo/BFO_0000004 -->
<g id="node6" class="node">
<title>http://purl.obolibrary.org/obo/BFO_0000004</title>
<path fill="#fff4e5" stroke="#b7791f" stroke-width="1.6" d="M648.5,-389C648.5,-389 509.5,-389 509.5,-389 503.5,-389 497.5,-383 497.5,-377 497.5,-377 497.5,-365 497.5,-365 497.5,-359 503.5,-353 509.5,-353 509.5,-353 648.5,-353 648.5,-353 654.5,-353 660.5,-359 660.5,-365 660.5,-365 660.5,-377 660.5,-377 660.5,-383 654.5,-389 648.5,-389"/>
<text text-anchor="middle" x="579" y="-367.9" font-family="Helvetica,sans-Serif" font-size="12.00" fill="#7b341e">independent continuant</text>
</g>
<!-- http://purl.obolibrary.org/obo/BFO_0000002&#45;&gt;http://purl.obolibrary.org/obo/BFO_0000004 -->
<g id="edge4" class="edge">
<title>http://purl.obolibrary.org/obo/BFO_0000002&#45;&gt;http://purl.obolibrary.org/obo/BFO_0000004</title>
<path fill="none" stroke="#4a5568" stroke-width="1.6" d="M653.7,-461.81C638.84,-443.95 615.48,-415.86 598.84,-395.86"/>
<polygon fill="#4a5568" stroke="#4a5568" stroke-width="1.6" points="600.99,-393.78 593.26,-389.15 596.41,-397.59 600.99,-393.78"/>
</g>
<!-- http://purl.obolibrary.org/obo/BFO_0000020 -->
<g id="node9" class="node">
<title>http://purl.obolibrary.org/obo/BFO_0000020</title>
<path fill="#fff4e5" stroke="#b7791f" stroke-width="1.6" d="M445,-389C445,-389 247,-389 247,-389 241,-389 235,-383 235,-377 235,-377 235,-365 235,-365 235,-359 241,-353 247,-353 247,-353 445,-353 445,-353 451,-353 457,-359 457,-365 457,-365 457,-377 457,-377 457,-383 451,-389 445,-389"/>
<text text-anchor="middle" x="346" y="-367.9" font-family="Helvetica,sans-Serif" font-size="12.00" fill="#7b341e">specifically dependent continuant</text>
</g>
<!-- http://purl.obolibrary.org/obo/BFO_0000002&#45;&gt;http://purl.obolibrary.org/obo/BFO_0000020 -->
<g id="edge5" class="edge">
<title>http://purl.obolibrary.org/obo/BFO_0000002&#45;&gt;http://purl.obolibrary.org/obo/BFO_0000020</title>
<path fill="none" stroke="#4a5568" stroke-width="1.6" d="M625.9,-465.01C569.7,-446.34 469.82,-413.14 405.81,-391.88"/>
<polygon fill="#4a5568" stroke="#4a5568" stroke-width="1.6" points="406.42,-388.94 397.41,-389.08 404.54,-394.59 406.42,-388.94"/>
</g>
<!-- http://purl.obolibrary.org/obo/BFO_0000031 -->
<g id="node12" class="node">
<title>http://purl.obolibrary.org/obo/BFO_0000031</title>
<path fill="#fff4e5" stroke="#b7791f" stroke-width="1.6" d="M911,-389C911,-389 713,-389 713,-389 707,-389 701,-383 701,-377 701,-377 701,-365 701,-365 701,-359 707,-353 713,-353 713,-353 911,-353 911,-353 917,-353 923,-359 923,-365 923,-365 923,-377 923,-377 923,-383 917,-389 911,-389"/>
<text text-anchor="middle" x="812" y="-367.9" font-family="Helvetica,sans-Serif" font-size="12.00" fill="#7b341e">generically dependent continuant</text>
</g>
<!-- http://purl.obolibrary.org/obo/BFO_0000002&#45;&gt;http://purl.obolibrary.org/obo/BFO_0000031 -->
<g id="edge6" class="edge">
<title>http://purl.obolibrary.org/obo/BFO_0000002&#45;&gt;http://purl.obolibrary.org/obo/BFO_0000031</title>
<path fill="none" stroke="#4a5568" stroke-width="1.6" d="M691.14,-461.81C715.8,-443.48 754.96,-414.38 781.99,-394.3"/>
<polygon fill="#4a5568" stroke="#4a5568" stroke-width="1.6" points="783.87,-396.61 788.92,-389.15 780.32,-391.83 783.87,-396.61"/>
</g>
<!-- http://purl.obolibrary.org/obo/BFO_0000015 -->
<g id="node7" class="node">
<title>http://purl.obolibrary.org/obo/BFO_0000015</title>
<path fill="#fff4e5" stroke="#b7791f" stroke-width="1.6" d="M1017,-389C1017,-389 975,-389 975,-389 969,-389 963,-383 963,-377 963,-377 963,-365 963,-365 963,-359 969,-353 975,-353 975,-353 1017,-353 1017,-353 1023,-353 1029,-359 1029,-365 1029,-365 1029,-377 1029,-377 1029,-383 1023,-389 1017,-389"/>
<text text-anchor="middle" x="996" y="-367.9" font-family="Helvetica,sans-Serif" font-size="12.00" fill="#7b341e">process</text>
</g>
<!-- http://purl.obolibrary.org/obo/BFO_0000003&#45;&gt;http://purl.obolibrary.org/obo/BFO_0000015 -->
<g id="edge7" class="edge">
<title>http://purl.obolibrary.org/obo/BFO_0000003&#45;&gt;http://purl.obolibrary.org/obo/BFO_0000015</title>
<path fill="none" stroke="#4a5568" stroke-width="1.6" d="M871.78,-461.81C897.13,-443.48 937.38,-414.38 965.15,-394.3"/>
<polygon fill="#4a5568" stroke="#4a5568" stroke-width="1.6" points="967.13,-396.54 972.28,-389.15 963.65,-391.72 967.13,-396.54"/>
</g>
<!-- http://purl.obolibrary.org/obo/BFO_0000040 -->
<g id="node13" class="node">
<title>http://purl.obolibrary.org/obo/BFO_0000040</title>
<path fill="#fff4e5" stroke="#b7791f" stroke-width="1.6" d="M660,-280C660,-280 576,-280 576,-280 570,-280 564,-274 564,-268 564,-268 564,-256 564,-256 564,-250 570,-244 576,-244 576,-244 660,-244 660,-244 666,-244 672,-250 672,-256 672,-256 672,-268 672,-268 672,-274 666,-280 660,-280"/>
<text text-anchor="middle" x="618" y="-258.9" font-family="Helvetica,sans-Serif" font-size="12.00" fill="#7b341e">material entity</text>
</g>
<!-- http://purl.obolibrary.org/obo/BFO_0000004&#45;&gt;http://purl.obolibrary.org/obo/BFO_0000040 -->
<g id="edge8" class="edge">
<title>http://purl.obolibrary.org/obo/BFO_0000004&#45;&gt;http://purl.obolibrary.org/obo/BFO_0000040</title>
<path fill="none" stroke="#4a5568" stroke-width="1.6" d="M585.27,-352.81C591.63,-335.34 601.57,-308.08 608.82,-288.18"/>
<polygon fill="#4a5568" stroke="#4a5568" stroke-width="1.6" points="611.63,-289.15 611.75,-280.15 606.04,-287.12 611.63,-289.15"/>
</g>
<!-- http://purl.obolibrary.org/obo/BFO_0000141 -->
<g id="node14" class="node">
<title>http://purl.obolibrary.org/obo/BFO_0000141</title>
<path fill="#fff4e5" stroke="#b7791f" stroke-width="1.6" d="M511.5,-280C511.5,-280 412.5,-280 412.5,-280 406.5,-280 400.5,-274 400.5,-268 400.5,-268 400.5,-256 400.5,-256 400.5,-250 406.5,-244 412.5,-244 412.5,-244 511.5,-244 511.5,-244 517.5,-244 523.5,-250 523.5,-256 523.5,-256 523.5,-268 523.5,-268 523.5,-274 517.5,-280 511.5,-280"/>
<text text-anchor="middle" x="462" y="-258.9" font-family="Helvetica,sans-Serif" font-size="12.00" fill="#7b341e">immaterial entity</text>
</g>
<!-- http://purl.obolibrary.org/obo/BFO_0000004&#45;&gt;http://purl.obolibrary.org/obo/BFO_0000141 -->
<g id="edge9" class="edge">
<title>http://purl.obolibrary.org/obo/BFO_0000004&#45;&gt;http://purl.obolibrary.org/obo/BFO_0000141</title>
<path fill="none" stroke="#4a5568" stroke-width="1.6" d="M560.2,-352.81C540.42,-334.71 509.16,-306.12 487.23,-286.08"/>
<polygon fill="#4a5568" stroke="#4a5568" stroke-width="1.6" points="489.03,-283.69 480.75,-280.15 485.02,-288.08 489.03,-283.69"/>
</g>
<!-- https://w3id.org/sdata/core#Process -->
<g id="node20" class="node">
<title>https://w3id.org/sdata/core#Process</title>
<path fill="#e8f1ff" stroke="#2b6cb0" stroke-width="1.6" d="M1047,-52C1047,-52 1005,-52 1005,-52 999,-52 993,-46 993,-40 993,-40 993,-28 993,-28 993,-22 999,-16 1005,-16 1005,-16 1047,-16 1047,-16 1053,-16 1059,-22 1059,-28 1059,-28 1059,-40 1059,-40 1059,-46 1053,-52 1047,-52"/>
<text text-anchor="middle" x="1026" y="-30.9" font-family="Helvetica,sans-Serif" font-size="12.00" fill="#1a365d">Process</text>
</g>
<!-- http://purl.obolibrary.org/obo/BFO_0000015&#45;&gt;https://w3id.org/sdata/core#Process -->
<g id="edge10" class="edge">
<title>http://purl.obolibrary.org/obo/BFO_0000015&#45;&gt;https://w3id.org/sdata/core#Process</title>
<path fill="none" stroke="#4a5568" stroke-width="1.6" d="M997.53,-352.93C1002.44,-298.04 1017.86,-125.91 1023.71,-60.53"/>
<polygon fill="#4a5568" stroke="#4a5568" stroke-width="1.6" points="1026.68,-60.77 1024.47,-52.04 1020.75,-60.24 1026.68,-60.77"/>
</g>
<!-- http://purl.obolibrary.org/obo/BFO_0000017 -->
<g id="node8" class="node">
<title>http://purl.obolibrary.org/obo/BFO_0000017</title>
<path fill="#fff4e5" stroke="#b7791f" stroke-width="1.6" d="M348.5,-280C348.5,-280 257.5,-280 257.5,-280 251.5,-280 245.5,-274 245.5,-268 245.5,-268 245.5,-256 245.5,-256 245.5,-250 251.5,-244 257.5,-244 257.5,-244 348.5,-244 348.5,-244 354.5,-244 360.5,-250 360.5,-256 360.5,-256 360.5,-268 360.5,-268 360.5,-274 354.5,-280 348.5,-280"/>
<text text-anchor="middle" x="303" y="-258.9" font-family="Helvetica,sans-Serif" font-size="12.00" fill="#7b341e">realizable entity</text>
</g>
<!-- http://purl.obolibrary.org/obo/BFO_0000023 -->
<g id="node10" class="node">
<title>http://purl.obolibrary.org/obo/BFO_0000023</title>
<path fill="#fff4e5" stroke="#b7791f" stroke-width="1.6" d="M318,-171C318,-171 288,-171 288,-171 282,-171 276,-165 276,-159 276,-159 276,-147 276,-147 276,-141 282,-135 288,-135 288,-135 318,-135 318,-135 324,-135 330,-141 330,-147 330,-147 330,-159 330,-159 330,-165 324,-171 318,-171"/>
<text text-anchor="middle" x="303" y="-149.9" font-family="Helvetica,sans-Serif" font-size="12.00" fill="#7b341e">role</text>
</g>
<!-- http://purl.obolibrary.org/obo/BFO_0000017&#45;&gt;http://purl.obolibrary.org/obo/BFO_0000023 -->
<g id="edge11" class="edge">
<title>http://purl.obolibrary.org/obo/BFO_0000017&#45;&gt;http://purl.obolibrary.org/obo/BFO_0000023</title>
<path fill="none" stroke="#4a5568" stroke-width="1.6" d="M303,-243.81C303,-226.49 303,-199.57 303,-179.71"/>
<polygon fill="#4a5568" stroke="#4a5568" stroke-width="1.6" points="305.98,-179.65 303,-171.15 300.03,-179.65 305.98,-179.65"/>
</g>
<!-- http://purl.obolibrary.org/obo/BFO_0000020&#45;&gt;http://purl.obolibrary.org/obo/BFO_0000017 -->
<g id="edge12" class="edge">
<title>http://purl.obolibrary.org/obo/BFO_0000020&#45;&gt;http://purl.obolibrary.org/obo/BFO_0000017</title>
<path fill="none" stroke="#4a5568" stroke-width="1.6" d="M339.09,-352.81C332.07,-335.34 321.12,-308.08 313.12,-288.18"/>
<polygon fill="#4a5568" stroke="#4a5568" stroke-width="1.6" points="315.82,-286.93 309.89,-280.15 310.3,-289.15 315.82,-286.93"/>
</g>
<!-- https://w3id.org/sdata/core#Role -->
<g id="node21" class="node">
<title>https://w3id.org/sdata/core#Role</title>
<path fill="#e8f1ff" stroke="#2b6cb0" stroke-width="1.6" d="M318,-52C318,-52 288,-52 288,-52 282,-52 276,-46 276,-40 276,-40 276,-28 276,-28 276,-22 282,-16 288,-16 288,-16 318,-16 318,-16 324,-16 330,-22 330,-28 330,-28 330,-40 330,-40 330,-46 324,-52 318,-52"/>
<text text-anchor="middle" x="303" y="-30.9" font-family="Helvetica,sans-Serif" font-size="12.00" fill="#1a365d">Role</text>
</g>
<!-- http://purl.obolibrary.org/obo/BFO_0000023&#45;&gt;https://w3id.org/sdata/core#Role -->
<g id="edge13" class="edge">
<title>http://purl.obolibrary.org/obo/BFO_0000023&#45;&gt;https://w3id.org/sdata/core#Role</title>
<path fill="none" stroke="#4a5568" stroke-width="1.6" d="M303,-134.99C303,-115.49 303,-83.33 303,-60.76"/>
<polygon fill="#4a5568" stroke="#4a5568" stroke-width="1.6" points="305.98,-60.53 303,-52.03 300.03,-60.53 305.98,-60.53"/>
</g>
<!-- http://purl.obolibrary.org/obo/BFO_0000029 -->
<g id="node11" class="node">
<title>http://purl.obolibrary.org/obo/BFO_0000029</title>
<path fill="#fff4e5" stroke="#b7791f" stroke-width="1.6" d="M429,-171C429,-171 399,-171 399,-171 393,-171 387,-165 387,-159 387,-159 387,-147 387,-147 387,-141 393,-135 399,-135 399,-135 429,-135 429,-135 435,-135 441,-141 441,-147 441,-147 441,-159 441,-159 441,-165 435,-171 429,-171"/>
<text text-anchor="middle" x="414" y="-149.9" font-family="Helvetica,sans-Serif" font-size="12.00" fill="#7b341e">site</text>
</g>
<!-- https://w3id.org/sdata/core#Site -->
<g id="node22" class="node">
<title>https://w3id.org/sdata/core#Site</title>
<path fill="#e8f1ff" stroke="#2b6cb0" stroke-width="1.6" d="M412,-52C412,-52 382,-52 382,-52 376,-52 370,-46 370,-40 370,-40 370,-28 370,-28 370,-22 376,-16 382,-16 382,-16 412,-16 412,-16 418,-16 424,-22 424,-28 424,-28 424,-40 424,-40 424,-46 418,-52 412,-52"/>
<text text-anchor="middle" x="397" y="-30.9" font-family="Helvetica,sans-Serif" font-size="12.00" fill="#1a365d">Site</text>
</g>
<!-- http://purl.obolibrary.org/obo/BFO_0000029&#45;&gt;https://w3id.org/sdata/core#Site -->
<g id="edge14" class="edge">
<title>http://purl.obolibrary.org/obo/BFO_0000029&#45;&gt;https://w3id.org/sdata/core#Site</title>
<path fill="none" stroke="#4a5568" stroke-width="1.6" d="M411.53,-134.99C408.68,-115.4 403.98,-83.04 400.7,-60.46"/>
<polygon fill="#4a5568" stroke="#4a5568" stroke-width="1.6" points="403.64,-60.02 399.47,-52.03 397.75,-60.87 403.64,-60.02"/>
</g>
<!-- https://w3id.org/sdata/core#DigitalArtifact -->
<g id="node16" class="node">
<title>https://w3id.org/sdata/core#DigitalArtifact</title>
<path fill="#e8f1ff" stroke="#2b6cb0" stroke-width="1.6" d="M825,-52C825,-52 743,-52 743,-52 737,-52 731,-46 731,-40 731,-40 731,-28 731,-28 731,-22 737,-16 743,-16 743,-16 825,-16 825,-16 831,-16 837,-22 837,-28 837,-28 837,-40 837,-40 837,-46 831,-52 825,-52"/>
<text text-anchor="middle" x="784" y="-30.9" font-family="Helvetica,sans-Serif" font-size="12.00" fill="#1a365d">Digital Artifact</text>
</g>
<!-- http://purl.obolibrary.org/obo/BFO_0000031&#45;&gt;https://w3id.org/sdata/core#DigitalArtifact -->
<g id="edge15" class="edge">
<title>http://purl.obolibrary.org/obo/BFO_0000031&#45;&gt;https://w3id.org/sdata/core#DigitalArtifact</title>
<path fill="none" stroke="#4a5568" stroke-width="1.6" d="M810.57,-352.93C805.99,-298.04 791.6,-125.91 786.13,-60.53"/>
<polygon fill="#4a5568" stroke="#4a5568" stroke-width="1.6" points="789.1,-60.26 785.42,-52.04 783.17,-60.76 789.1,-60.26"/>
</g>
<!-- https://w3id.org/sdata/core#Identifier -->
<g id="node17" class="node">
<title>https://w3id.org/sdata/core#Identifier</title>
<path fill="#e8f1ff" stroke="#2b6cb0" stroke-width="1.6" d="M940.5,-52C940.5,-52 889.5,-52 889.5,-52 883.5,-52 877.5,-46 877.5,-40 877.5,-40 877.5,-28 877.5,-28 877.5,-22 883.5,-16 889.5,-16 889.5,-16 940.5,-16 940.5,-16 946.5,-16 952.5,-22 952.5,-28 952.5,-28 952.5,-40 952.5,-40 952.5,-46 946.5,-52 940.5,-52"/>
<text text-anchor="middle" x="915" y="-30.9" font-family="Helvetica,sans-Serif" font-size="12.00" fill="#1a365d">Identifier</text>
</g>
<!-- http://purl.obolibrary.org/obo/BFO_0000031&#45;&gt;https://w3id.org/sdata/core#Identifier -->
<g id="edge16" class="edge">
<title>http://purl.obolibrary.org/obo/BFO_0000031&#45;&gt;https://w3id.org/sdata/core#Identifier</title>
<path fill="none" stroke="#4a5568" stroke-width="1.6" d="M821.52,-352.7C826.86,-342.52 833.36,-329.27 838,-317 872.71,-225.16 898.93,-111.08 909.67,-60.82"/>
<polygon fill="#4a5568" stroke="#4a5568" stroke-width="1.6" points="912.65,-61.13 911.5,-52.2 906.83,-59.9 912.65,-61.13"/>
</g>
<!-- https://w3id.org/sdata/core#Material -->
<g id="node18" class="node">
<title>https://w3id.org/sdata/core#Material</title>
<path fill="#e8f1ff" stroke="#2b6cb0" stroke-width="1.6" d="M678.5,-52C678.5,-52 633.5,-52 633.5,-52 627.5,-52 621.5,-46 621.5,-40 621.5,-40 621.5,-28 621.5,-28 621.5,-22 627.5,-16 633.5,-16 633.5,-16 678.5,-16 678.5,-16 684.5,-16 690.5,-22 690.5,-28 690.5,-28 690.5,-40 690.5,-40 690.5,-46 684.5,-52 678.5,-52"/>
<text text-anchor="middle" x="656" y="-30.9" font-family="Helvetica,sans-Serif" font-size="12.00" fill="#1a365d">Material</text>
</g>
<!-- http://purl.obolibrary.org/obo/BFO_0000040&#45;&gt;https://w3id.org/sdata/core#Material -->
<g id="edge17" class="edge">
<title>http://purl.obolibrary.org/obo/BFO_0000040&#45;&gt;https://w3id.org/sdata/core#Material</title>
<path fill="none" stroke="#4a5568" stroke-width="1.6" d="M620.92,-243.64C627.57,-204.11 643.86,-107.2 651.68,-60.7"/>
<polygon fill="#4a5568" stroke="#4a5568" stroke-width="1.6" points="654.65,-60.98 653.12,-52.11 648.78,-60 654.65,-60.98"/>
</g>
<!-- https://w3id.org/sdata/core#PhysicalArtifact -->
<g id="node19" class="node">
<title>https://w3id.org/sdata/core#PhysicalArtifact</title>
<path fill="#e8f1ff" stroke="#2b6cb0" stroke-width="1.6" d="M569.5,-52C569.5,-52 476.5,-52 476.5,-52 470.5,-52 464.5,-46 464.5,-40 464.5,-40 464.5,-28 464.5,-28 464.5,-22 470.5,-16 476.5,-16 476.5,-16 569.5,-16 569.5,-16 575.5,-16 581.5,-22 581.5,-28 581.5,-28 581.5,-40 581.5,-40 581.5,-46 575.5,-52 569.5,-52"/>
<text text-anchor="middle" x="523" y="-30.9" font-family="Helvetica,sans-Serif" font-size="12.00" fill="#1a365d">Physical Artifact</text>
</g>
<!-- http://purl.obolibrary.org/obo/BFO_0000040&#45;&gt;https://w3id.org/sdata/core#PhysicalArtifact -->
<g id="edge18" class="edge">
<title>http://purl.obolibrary.org/obo/BFO_0000040&#45;&gt;https://w3id.org/sdata/core#PhysicalArtifact</title>
<path fill="none" stroke="#4a5568" stroke-width="1.6" d="M610.7,-243.64C594.02,-203.94 553.01,-106.39 533.56,-60.12"/>
<polygon fill="#4a5568" stroke="#4a5568" stroke-width="1.6" points="536.23,-58.79 530.19,-52.11 530.74,-61.1 536.23,-58.79"/>
</g>
<!-- http://purl.obolibrary.org/obo/BFO_0000141&#45;&gt;http://purl.obolibrary.org/obo/BFO_0000029 -->
<g id="edge19" class="edge">
<title>http://purl.obolibrary.org/obo/BFO_0000141&#45;&gt;http://purl.obolibrary.org/obo/BFO_0000029</title>
<path fill="none" stroke="#4a5568" stroke-width="1.6" d="M454.29,-243.81C446.42,-226.26 434.12,-198.84 425.18,-178.91"/>
<polygon fill="#4a5568" stroke="#4a5568" stroke-width="1.6" points="427.89,-177.69 421.69,-171.15 422.46,-180.12 427.89,-177.69"/>
</g>
<!-- https://w3id.org/sdata/core#Agent -->
<g id="node15" class="node">
<title>https://w3id.org/sdata/core#Agent</title>
<path fill="#e8f1ff" stroke="#2b6cb0" stroke-width="1.6" d="M1143,-52C1143,-52 1111,-52 1111,-52 1105,-52 1099,-46 1099,-40 1099,-40 1099,-28 1099,-28 1099,-22 1105,-16 1111,-16 1111,-16 1143,-16 1143,-16 1149,-16 1155,-22 1155,-28 1155,-28 1155,-40 1155,-40 1155,-46 1149,-52 1143,-52"/>
<text text-anchor="middle" x="1127" y="-30.9" font-family="Helvetica,sans-Serif" font-size="12.00" fill="#1a365d">Agent</text>
</g>
</g>
</svg>
