<?xml version="1.0" encoding="UTF-8" standalone="no"?>
<!DOCTYPE svg PUBLIC "-//W3C//DTD SVG 1.1//EN"
 "http://www.w3.org/Graphics/SVG/1.1/DTD/svg11.dtd">
<!-- Generated by graphviz version 2.43.0 (0)
 -->
<!-- Pages: 1 -->
<svg width="4163pt" height="476pt"
 viewBox="0.00 0.00 4162.90 475.86" xmlns="http://www.w3.org/2000/svg" xmlns:xlink="http://www.w3.org/1999/xlink">
<g id="graph0" class="graph" transform="scale(1 1) rotate(0) translate(25.2 450.66)">
<polygon fill="#fafbfc" stroke="transparent" points="-25.2,25.2 -25.2,-450.66 4137.7,-450.66 4137.7,25.2 -25.2,25.2"/>
<text text-anchor="middle" x="2056.25" y="-405.46" font-family="Helvetica,sans-Serif" font-size="20.00">Class Hierarchy: MIN &#45;&gt; sdata&#45;core</text>
<g id="clust2" class="cluster">
<title>cluster_min</title>
<path fill="#fafbfc" stroke="#8fb7ea" d="M1900.5,-200C1900.5,-200 3242.5,-200 3242.5,-200 3248.5,-200 3254.5,-206 3254.5,-212 3254.5,-212 3254.5,-316 3254.5,-316 3254.5,-322 3248.5,-328 3242.5,-328 3242.5,-328 1900.5,-328 1900.5,-328 1894.5,-328 1888.5,-322 1888.5,-316 1888.5,-316 1888.5,-212 1888.5,-212 1888.5,-206 1894.5,-200 1900.5,-200"/>
<text text-anchor="middle" x="2571.5" y="-308" font-family="Helvetica,sans-Serif" font-size="20.00">MIN classes</text>
</g>
<g id="clust3" class="cluster">
<title>cluster_min_rank</title>
</g>
<!-- https://w3id.org/sdata/core/Hardware -->
<g id="node1" class="node">
<title>https://w3id.org/sdata/core/Hardware</title>
<path fill="#f8eeff" stroke="#6b46c1" stroke-width="1.6" d="M882.5,-144C882.5,-144 828.5,-144 828.5,-144 822.5,-144 816.5,-138 816.5,-132 816.5,-132 816.5,-120 816.5,-120 816.5,-114 822.5,-108 828.5,-108 828.5,-108 882.5,-108 882.5,-108 888.5,-108 894.5,-114 894.5,-120 894.5,-120 894.5,-132 894.5,-132 894.5,-138 888.5,-144 882.5,-144"/>
<text text-anchor="middle" x="855.5" y="-122.9" font-family="Helvetica,sans-Serif" font-size="12.00" fill="#44337a">Hardware</text>
</g>
<!-- https://w3id.org/sdata/core/Material -->
<g id="node2" class="node">
<title>https://w3id.org/sdata/core/Material</title>
<path fill="#f8eeff" stroke="#6b46c1" stroke-width="1.6" d="M992,-144C992,-144 947,-144 947,-144 941,-144 935,-138 935,-132 935,-132 935,-120 935,-120 935,-114 941,-108 947,-108 947,-108 992,-108 992,-108 998,-108 1004,-114 1004,-120 1004,-120 1004,-132 1004,-132 1004,-138 998,-144 992,-144"/>
<text text-anchor="middle" x="969.5" y="-122.9" font-family="Helvetica,sans-Serif" font-size="12.00" fill="#44337a">Material</text>
</g>
<!-- https://w3id.org/sdata/core/Product -->
<g id="node3" class="node">
<title>https://w3id.org/sdata/core/Product</title>
<path fill="#f8eeff" stroke="#6b46c1" stroke-width="1.6" d="M1098.5,-144C1098.5,-144 1056.5,-144 1056.5,-144 1050.5,-144 1044.5,-138 1044.5,-132 1044.5,-132 1044.5,-120 1044.5,-120 1044.5,-114 1050.5,-108 1056.5,-108 1056.5,-108 1098.5,-108 1098.5,-108 1104.5,-108 1110.5,-114 1110.5,-120 1110.5,-120 1110.5,-132 1110.5,-132 1110.5,-138 1104.5,-144 1098.5,-144"/>
<text text-anchor="middle" x="1077.5" y="-122.9" font-family="Helvetica,sans-Serif" font-size="12.00" fill="#44337a">Product</text>
</g>
<!-- https://w3id.org/sdata/core/Software -->
<g id="node4" class="node">
<title>https://w3id.org/sdata/core/Software</title>
<path fill="#f8eeff" stroke="#6b46c1" stroke-width="1.6" d="M1212,-144C1212,-144 1163,-144 1163,-144 1157,-144 1151,-138 1151,-132 1151,-132 1151,-120 1151,-120 1151,-114 1157,-108 1163,-108 1163,-108 1212,-108 1212,-108 1218,-108 1224,-114 1224,-120 1224,-120 1224,-132 1224,-132 1224,-138 1218,-144 1212,-144"/>
<text text-anchor="middle" x="1187.5" y="-122.9" font-family="Helvetica,sans-Serif" font-size="12.00" fill="#44337a">Software</text>
</g>
<!-- https://w3id.org/min#Agent -->
<g id="node5" class="node">
<title>https://w3id.org/min#Agent</title>
<path fill="#e7f0ff" stroke="#2b6cb0" stroke-width="1.6" d="M1948.5,-252C1948.5,-252 1916.5,-252 1916.5,-252 1910.5,-252 1904.5,-246 1904.5,-240 1904.5,-240 1904.5,-228 1904.5,-228 1904.5,-222 1910.5,-216 1916.5,-216 1916.5,-216 1948.5,-216 1948.5,-216 1954.5,-216 1960.5,-222 1960.5,-228 1960.5,-228 1960.5,-240 1960.5,-240 1960.5,-246 1954.5,-252 1948.5,-252"/>
<text text-anchor="middle" x="1932.5" y="-230.9" font-family="Helvetica,sans-Serif" font-size="12.00" fill="#1a365d">Agent</text>
</g>
<!-- https://w3id.org/sdata/core/EnvironmentAgent -->
<g id="node19" class="node">
<title>https://w3id.org/sdata/core/EnvironmentAgent</title>
<path fill="#f8eeff" stroke="#6b46c1" stroke-width="1.6" d="M123,-144C123,-144 12,-144 12,-144 6,-144 0,-138 0,-132 0,-132 0,-120 0,-120 0,-114 6,-108 12,-108 12,-108 123,-108 123,-108 129,-108 135,-114 135,-120 135,-120 135,-132 135,-132 135,-138 129,-144 123,-144"/>
<text text-anchor="middle" x="67.5" y="-122.9" font-family="Helvetica,sans-Serif" font-size="12.00" fill="#44337a">Environment Agent</text>
</g>
<!-- https://w3id.org/min#Agent&#45;&gt;https://w3id.org/sdata/core/EnvironmentAgent -->
<g id="edge1" class="edge">
<title>https://w3id.org/min#Agent&#45;&gt;https://w3id.org/sdata/core/EnvironmentAgent</title>
<path fill="none" stroke="#4a5568" stroke-width="1.6" d="M1904.41,-233.1C1737.76,-233.36 862.03,-230.39 154.5,-144 150.98,-143.57 147.38,-143.08 143.76,-142.54"/>
<polygon fill="#4a5568" stroke="#4a5568" stroke-width="1.6" points="144.12,-139.59 135.27,-141.21 143.2,-145.47 144.12,-139.59"/>
</g>
<!-- https://w3id.org/sdata/core/HardwareAgent -->
<g id="node20" class="node">
<title>https://w3id.org/sdata/core/HardwareAgent</title>
<path fill="#f8eeff" stroke="#6b46c1" stroke-width="1.6" d="M280,-144C280,-144 187,-144 187,-144 181,-144 175,-138 175,-132 175,-132 175,-120 175,-120 175,-114 181,-108 187,-108 187,-108 280,-108 280,-108 286,-108 292,-114 292,-120 292,-120 292,-132 292,-132 292,-138 286,-144 280,-144"/>
<text text-anchor="middle" x="233.5" y="-122.9" font-family="Helvetica,sans-Serif" font-size="12.00" fill="#44337a">Hardware Agent</text>
</g>
<!-- https://w3id.org/min#Agent&#45;&gt;https://w3id.org/sdata/core/HardwareAgent -->
<g id="edge2" class="edge">
<title>https://w3id.org/min#Agent&#45;&gt;https://w3id.org/sdata/core/HardwareAgent</title>
<path fill="none" stroke="#4a5568" stroke-width="1.6" d="M1904.35,-233.1C1746.25,-233.33 952.85,-229.95 312.5,-144 308.72,-143.49 304.86,-142.9 300.96,-142.25"/>
<polygon fill="#4a5568" stroke="#4a5568" stroke-width="1.6" points="301.31,-139.29 292.42,-140.74 300.27,-145.15 301.31,-139.29"/>
</g>
<!-- https://w3id.org/sdata/core/Organization -->
<g id="node21" class="node">
<title>https://w3id.org/sdata/core/Organization</title>
<path fill="#f8eeff" stroke="#6b46c1" stroke-width="1.6" d="M416.5,-144C416.5,-144 344.5,-144 344.5,-144 338.5,-144 332.5,-138 332.5,-132 332.5,-132 332.5,-120 332.5,-120 332.5,-114 338.5,-108 344.5,-108 344.5,-108 416.5,-108 416.5,-108 422.5,-108 428.5,-114 428.5,-120 428.5,-120 428.5,-132 428.5,-132 428.5,-138 422.5,-144 416.5,-144"/>
<text text-anchor="middle" x="380.5" y="-122.9" font-family="Helvetica,sans-Serif" font-size="12.00" fill="#44337a">Organization</text>
</g>
<!-- https://w3id.org/min#Agent&#45;&gt;https://w3id.org/sdata/core/Organization -->
<g id="edge3" class="edge">
<title>https://w3id.org/min#Agent&#45;&gt;https://w3id.org/sdata/core/Organization</title>
<path fill="none" stroke="#4a5568" stroke-width="1.6" d="M1904.49,-233.24C1754.45,-234.14 1030.79,-233.46 448.5,-144 444.75,-143.42 440.89,-142.73 437.03,-141.97"/>
<polygon fill="#4a5568" stroke="#4a5568" stroke-width="1.6" points="437.5,-139.03 428.57,-140.19 436.27,-144.85 437.5,-139.03"/>
</g>
<!-- https://w3id.org/sdata/core/Person -->
<g id="node22" class="node">
<title>https://w3id.org/sdata/core/Person</title>
<path fill="#f8eeff" stroke="#6b46c1" stroke-width="1.6" d="M518,-144C518,-144 481,-144 481,-144 475,-144 469,-138 469,-132 469,-132 469,-120 469,-120 469,-114 475,-108 481,-108 481,-108 518,-108 518,-108 524,-108 530,-114 530,-120 530,-120 530,-132 530,-132 530,-138 524,-144 518,-144"/>
<text text-anchor="middle" x="499.5" y="-122.9" font-family="Helvetica,sans-Serif" font-size="12.00" fill="#44337a">Person</text>
</g>
<!-- https://w3id.org/min#Agent&#45;&gt;https://w3id.org/sdata/core/Person -->
<g id="edge4" class="edge">
<title>https://w3id.org/min#Agent&#45;&gt;https://w3id.org/sdata/core/Person</title>
<path fill="none" stroke="#4a5568" stroke-width="1.6" d="M1904.45,-232.18C1732.91,-227 823.63,-197.39 550.5,-144 546.53,-143.22 542.44,-142.22 538.39,-141.1"/>
<polygon fill="#4a5568" stroke="#4a5568" stroke-width="1.6" points="539.17,-138.22 530.17,-138.64 537.46,-143.92 539.17,-138.22"/>
</g>
<!-- https://w3id.org/sdata/core/SoftwareAgent -->
<g id="node23" class="node">
<title>https://w3id.org/sdata/core/SoftwareAgent</title>
<path fill="#f8eeff" stroke="#6b46c1" stroke-width="1.6" d="M670.5,-144C670.5,-144 582.5,-144 582.5,-144 576.5,-144 570.5,-138 570.5,-132 570.5,-132 570.5,-120 570.5,-120 570.5,-114 576.5,-108 582.5,-108 582.5,-108 670.5,-108 670.5,-108 676.5,-108 682.5,-114 682.5,-120 682.5,-120 682.5,-132 682.5,-132 682.5,-138 676.5,-144 670.5,-144"/>
<text text-anchor="middle" x="626.5" y="-122.9" font-family="Helvetica,sans-Serif" font-size="12.00" fill="#44337a">Software Agent</text>
</g>
<!-- https://w3id.org/min#Agent&#45;&gt;https://w3id.org/sdata/core/SoftwareAgent -->
<g id="edge5" class="edge">
<title>https://w3id.org/min#Agent&#45;&gt;https://w3id.org/sdata/core/SoftwareAgent</title>
<path fill="none" stroke="#4a5568" stroke-width="1.6" d="M1904.18,-232.5C1769.38,-229.77 1179.62,-214.23 702.5,-144 698.79,-143.45 694.99,-142.83 691.16,-142.14"/>
<polygon fill="#4a5568" stroke="#4a5568" stroke-width="1.6" points="691.67,-139.21 682.77,-140.56 690.57,-145.06 691.67,-139.21"/>
</g>
<!-- https://w3id.org/min#Data -->
<g id="node6" class="node">
<title>https://w3id.org/min#Data</title>
<path fill="#e7f0ff" stroke="#2b6cb0" stroke-width="1.6" d="M2042.5,-252C2042.5,-252 2012.5,-252 2012.5,-252 2006.5,-252 2000.5,-246 2000.5,-240 2000.5,-240 2000.5,-228 2000.5,-228 2000.5,-222 2006.5,-216 2012.5,-216 2012.5,-216 2042.5,-216 2042.5,-216 2048.5,-216 2054.5,-222 2054.5,-228 2054.5,-228 2054.5,-240 2054.5,-240 2054.5,-246 2048.5,-252 2042.5,-252"/>
<text text-anchor="middle" x="2027.5" y="-230.9" font-family="Helvetica,sans-Serif" font-size="12.00" fill="#1a365d">Data</text>
</g>
<!-- https://w3id.org/sdata/core/Data -->
<g id="node25" class="node">
<title>https://w3id.org/sdata/core/Data</title>
<path fill="#f8eeff" stroke="#6b46c1" stroke-width="1.6" d="M764.5,-144C764.5,-144 734.5,-144 734.5,-144 728.5,-144 722.5,-138 722.5,-132 722.5,-132 722.5,-120 722.5,-120 722.5,-114 728.5,-108 734.5,-108 734.5,-108 764.5,-108 764.5,-108 770.5,-108 776.5,-114 776.5,-120 776.5,-120 776.5,-132 776.5,-132 776.5,-138 770.5,-144 764.5,-144"/>
<text text-anchor="middle" x="749.5" y="-122.9" font-family="Helvetica,sans-Serif" font-size="12.00" fill="#44337a">Data</text>
</g>
<!-- https://w3id.org/min#Data&#45;&gt;https://w3id.org/sdata/core/Data -->
<g id="edge7" class="edge">
<title>https://w3id.org/min#Data&#45;&gt;https://w3id.org/sdata/core/Data</title>
<path fill="none" stroke="#4a5568" stroke-width="1.6" d="M2008.3,-215.81C2000.28,-209.67 1990.5,-203.42 1980.5,-200 1731.28,-114.72 1054.8,-195.6 796.5,-144 792.76,-143.25 788.92,-142.26 785.13,-141.13"/>
<polygon fill="#4a5568" stroke="#4a5568" stroke-width="1.6" points="785.94,-138.27 776.94,-138.48 784.11,-143.93 785.94,-138.27"/>
</g>
<!-- https://w3id.org/min#Object -->
<g id="node7" class="node">
<title>https://w3id.org/min#Object</title>
<path fill="#e7f0ff" stroke="#2b6cb0" stroke-width="1.6" d="M2142.5,-252C2142.5,-252 2106.5,-252 2106.5,-252 2100.5,-252 2094.5,-246 2094.5,-240 2094.5,-240 2094.5,-228 2094.5,-228 2094.5,-222 2100.5,-216 2106.5,-216 2106.5,-216 2142.5,-216 2142.5,-216 2148.5,-216 2154.5,-222 2154.5,-228 2154.5,-228 2154.5,-240 2154.5,-240 2154.5,-246 2148.5,-252 2142.5,-252"/>
<text text-anchor="middle" x="2124.5" y="-230.9" font-family="Helvetica,sans-Serif" font-size="12.00" fill="#1a365d">Object</text>
</g>
<!-- https://w3id.org/min#Object&#45;&gt;https://w3id.org/sdata/core/Hardware -->
<g id="edge29" class="edge">
<title>https://w3id.org/min#Object&#45;&gt;https://w3id.org/sdata/core/Hardware</title>
<path fill="none" stroke="#4a5568" stroke-width="1.6" d="M2103.91,-215.81C2095.35,-209.67 2084.98,-203.42 2074.5,-200 1829.18,-119.85 1169.1,-186.23 914.5,-144 910.73,-143.37 906.86,-142.59 902.99,-141.71"/>
<polygon fill="#4a5568" stroke="#4a5568" stroke-width="1.6" points="903.53,-138.77 894.56,-139.63 902.1,-144.55 903.53,-138.77"/>
</g>
<!-- https://w3id.org/min#Object&#45;&gt;https://w3id.org/sdata/core/Material -->
<g id="edge30" class="edge">
<title>https://w3id.org/min#Object&#45;&gt;https://w3id.org/sdata/core/Material</title>
<path fill="none" stroke="#4a5568" stroke-width="1.6" d="M2103.9,-215.84C2095.34,-209.7 2084.97,-203.45 2074.5,-200 1852.57,-126.87 1254.53,-185.03 1024.5,-144 1020.53,-143.29 1016.44,-142.38 1012.37,-141.36"/>
<polygon fill="#4a5568" stroke="#4a5568" stroke-width="1.6" points="1013.08,-138.47 1004.09,-139.11 1011.52,-144.21 1013.08,-138.47"/>
</g>
<!-- https://w3id.org/min#Object&#45;&gt;https://w3id.org/sdata/core/Product -->
<g id="edge31" class="edge">
<title>https://w3id.org/min#Object&#45;&gt;https://w3id.org/sdata/core/Product</title>
<path fill="none" stroke="#4a5568" stroke-width="1.6" d="M2103.89,-215.87C2095.33,-209.74 2084.96,-203.48 2074.5,-200 1875.11,-133.63 1337.07,-182.62 1130.5,-144 1126.71,-143.29 1122.82,-142.39 1118.94,-141.38"/>
<polygon fill="#4a5568" stroke="#4a5568" stroke-width="1.6" points="1119.52,-138.45 1110.53,-139 1117.9,-144.17 1119.52,-138.45"/>
</g>
<!-- https://w3id.org/min#Object&#45;&gt;https://w3id.org/sdata/core/Software -->
<g id="edge33" class="edge">
<title>https://w3id.org/min#Object&#45;&gt;https://w3id.org/sdata/core/Software</title>
<path fill="none" stroke="#4a5568" stroke-width="1.6" d="M2103.88,-215.92C2095.31,-209.79 2084.95,-203.52 2074.5,-200 1724.17,-81.81 1608.35,-209.69 1244.5,-144 1240.52,-143.28 1236.42,-142.38 1232.33,-141.38"/>
<polygon fill="#4a5568" stroke="#4a5568" stroke-width="1.6" points="1232.98,-138.47 1224,-139.19 1231.47,-144.23 1232.98,-138.47"/>
</g>
<!-- https://w3id.org/sdata/core/Site -->
<g id="node35" class="node">
<title>https://w3id.org/sdata/core/Site</title>
<path fill="#f8eeff" stroke="#6b46c1" stroke-width="1.6" d="M1306.5,-144C1306.5,-144 1276.5,-144 1276.5,-144 1270.5,-144 1264.5,-138 1264.5,-132 1264.5,-132 1264.5,-120 1264.5,-120 1264.5,-114 1270.5,-108 1276.5,-108 1276.5,-108 1306.5,-108 1306.5,-108 1312.5,-108 1318.5,-114 1318.5,-120 1318.5,-120 1318.5,-132 1318.5,-132 1318.5,-138 1312.5,-144 1306.5,-144"/>
<text text-anchor="middle" x="1291.5" y="-122.9" font-family="Helvetica,sans-Serif" font-size="12.00" fill="#44337a">Site</text>
</g>
<!-- https://w3id.org/min#Object&#45;&gt;https://w3id.org/sdata/core/Site -->
<g id="edge32" class="edge">
<title>https://w3id.org/min#Object&#45;&gt;https://w3id.org/sdata/core/Site</title>
<path fill="none" stroke="#4a5568" stroke-width="1.6" d="M2103.86,-215.96C2095.3,-209.84 2084.93,-203.57 2074.5,-200 1764.11,-93.8 1659.25,-212.87 1338.5,-144 1334.77,-143.2 1330.94,-142.17 1327.15,-141.02"/>
<polygon fill="#4a5568" stroke="#4a5568" stroke-width="1.6" points="1327.97,-138.16 1318.97,-138.34 1326.12,-143.82 1327.97,-138.16"/>
</g>
<!-- https://w3id.org/sdata/core/Specimen -->
<g id="node36" class="node">
<title>https://w3id.org/sdata/core/Specimen</title>
<path fill="#f8eeff" stroke="#6b46c1" stroke-width="1.6" d="M1426.5,-144C1426.5,-144 1370.5,-144 1370.5,-144 1364.5,-144 1358.5,-138 1358.5,-132 1358.5,-132 1358.5,-120 1358.5,-120 1358.5,-114 1364.5,-108 1370.5,-108 1370.5,-108 1426.5,-108 1426.5,-108 1432.5,-108 1438.5,-114 1438.5,-120 1438.5,-120 1438.5,-132 1438.5,-132 1438.5,-138 1432.5,-144 1426.5,-144"/>
<text text-anchor="middle" x="1398.5" y="-122.9" font-family="Helvetica,sans-Serif" font-size="12.00" fill="#44337a">Specimen</text>
</g>
<!-- https://w3id.org/min#Object&#45;&gt;https://w3id.org/sdata/core/Specimen -->
<g id="edge34" class="edge">
<title>https://w3id.org/min#Object&#45;&gt;https://w3id.org/sdata/core/Specimen</title>
<path fill="none" stroke="#4a5568" stroke-width="1.6" d="M2103.35,-215.7C2094.87,-209.69 2084.71,-203.58 2074.5,-200 1815.06,-109.1 1728.8,-194.13 1458.5,-144 1454.75,-143.3 1450.89,-142.48 1447.02,-141.57"/>
<polygon fill="#4a5568" stroke="#4a5568" stroke-width="1.6" points="1447.57,-138.64 1438.6,-139.47 1446.13,-144.41 1447.57,-138.64"/>
</g>
<!-- https://w3id.org/sdata/core/Substance -->
<g id="node37" class="node">
<title>https://w3id.org/sdata/core/Substance</title>
<path fill="#f8eeff" stroke="#6b46c1" stroke-width="1.6" d="M1550,-144C1550,-144 1491,-144 1491,-144 1485,-144 1479,-138 1479,-132 1479,-132 1479,-120 1479,-120 1479,-114 1485,-108 1491,-108 1491,-108 1550,-108 1550,-108 1556,-108 1562,-114 1562,-120 1562,-120 1562,-132 1562,-132 1562,-138 1556,-144 1550,-144"/>
<text text-anchor="middle" x="1520.5" y="-122.9" font-family="Helvetica,sans-Serif" font-size="12.00" fill="#44337a">Substance</text>
</g>
<!-- https://w3id.org/min#Object&#45;&gt;https://w3id.org/sdata/core/Substance -->
<g id="edge35" class="edge">
<title>https://w3id.org/min#Object&#45;&gt;https://w3id.org/sdata/core/Substance</title>
<path fill="none" stroke="#4a5568" stroke-width="1.6" d="M2103.3,-215.82C2094.83,-209.83 2084.67,-203.69 2074.5,-200 1867.64,-124.88 1798.6,-185.67 1582.5,-144 1578.7,-143.27 1574.79,-142.42 1570.87,-141.5"/>
<polygon fill="#4a5568" stroke="#4a5568" stroke-width="1.6" points="1571.28,-138.54 1562.32,-139.41 1569.86,-144.32 1571.28,-138.54"/>
</g>
<!-- https://w3id.org/min#Process -->
<g id="node8" class="node">
<title>https://w3id.org/min#Process</title>
<path fill="#e7f0ff" stroke="#2b6cb0" stroke-width="1.6" d="M2248.5,-252C2248.5,-252 2206.5,-252 2206.5,-252 2200.5,-252 2194.5,-246 2194.5,-240 2194.5,-240 2194.5,-228 2194.5,-228 2194.5,-222 2200.5,-216 2206.5,-216 2206.5,-216 2248.5,-216 2248.5,-216 2254.5,-216 2260.5,-222 2260.5,-228 2260.5,-228 2260.5,-240 2260.5,-240 2260.5,-246 2254.5,-252 2248.5,-252"/>
<text text-anchor="middle" x="2227.5" y="-230.9" font-family="Helvetica,sans-Serif" font-size="12.00" fill="#1a365d">Process</text>
</g>
<!-- https://w3id.org/sdata/core/Process -->
<g id="node39" class="node">
<title>https://w3id.org/sdata/core/Process</title>
<path fill="#f8eeff" stroke="#6b46c1" stroke-width="1.6" d="M1656.5,-144C1656.5,-144 1614.5,-144 1614.5,-144 1608.5,-144 1602.5,-138 1602.5,-132 1602.5,-132 1602.5,-120 1602.5,-120 1602.5,-114 1608.5,-108 1614.5,-108 1614.5,-108 1656.5,-108 1656.5,-108 1662.5,-108 1668.5,-114 1668.5,-120 1668.5,-120 1668.5,-132 1668.5,-132 1668.5,-138 1662.5,-144 1656.5,-144"/>
<text text-anchor="middle" x="1635.5" y="-122.9" font-family="Helvetica,sans-Serif" font-size="12.00" fill="#44337a">Process</text>
</g>
<!-- https://w3id.org/min#Process&#45;&gt;https://w3id.org/sdata/core/Process -->
<g id="edge37" class="edge">
<title>https://w3id.org/min#Process&#45;&gt;https://w3id.org/sdata/core/Process</title>
<path fill="none" stroke="#4a5568" stroke-width="1.6" d="M2204.89,-215.84C2195.89,-209.86 2185.14,-203.71 2174.5,-200 1969.22,-128.35 1901.04,-189.87 1688.5,-144 1684.73,-143.19 1680.85,-142.21 1676.98,-141.15"/>
<polygon fill="#4a5568" stroke="#4a5568" stroke-width="1.6" points="1677.58,-138.23 1668.59,-138.71 1675.92,-143.94 1677.58,-138.23"/>
</g>
<!-- https://w3id.org/min#Boundary -->
<g id="node9" class="node">
<title>https://w3id.org/min#Boundary</title>
<path fill="#e7f0ff" stroke="#2b6cb0" stroke-width="1.6" d="M2558.5,-252C2558.5,-252 2504.5,-252 2504.5,-252 2498.5,-252 2492.5,-246 2492.5,-240 2492.5,-240 2492.5,-228 2492.5,-228 2492.5,-222 2498.5,-216 2504.5,-216 2504.5,-216 2558.5,-216 2558.5,-216 2564.5,-216 2570.5,-222 2570.5,-228 2570.5,-228 2570.5,-240 2570.5,-240 2570.5,-246 2564.5,-252 2558.5,-252"/>
<text text-anchor="middle" x="2531.5" y="-230.9" font-family="Helvetica,sans-Serif" font-size="12.00" fill="#1a365d">Boundary</text>
</g>
<!-- https://w3id.org/sdata/core/Boundary -->
<g id="node24" class="node">
<title>https://w3id.org/sdata/core/Boundary</title>
<path fill="#f8eeff" stroke="#6b46c1" stroke-width="1.6" d="M1774.5,-144C1774.5,-144 1720.5,-144 1720.5,-144 1714.5,-144 1708.5,-138 1708.5,-132 1708.5,-132 1708.5,-120 1708.5,-120 1708.5,-114 1714.5,-108 1720.5,-108 1720.5,-108 1774.5,-108 1774.5,-108 1780.5,-108 1786.5,-114 1786.5,-120 1786.5,-120 1786.5,-132 1786.5,-132 1786.5,-138 1780.5,-144 1774.5,-144"/>
<text text-anchor="middle" x="1747.5" y="-122.9" font-family="Helvetica,sans-Serif" font-size="12.00" fill="#44337a">Boundary</text>
</g>
<!-- https://w3id.org/min#Boundary&#45;&gt;https://w3id.org/sdata/core/Boundary -->
<g id="edge6" class="edge">
<title>https://w3id.org/min#Boundary&#45;&gt;https://w3id.org/sdata/core/Boundary</title>
<path fill="none" stroke="#4a5568" stroke-width="1.6" d="M2505.97,-215.87C2495.69,-209.81 2483.45,-203.61 2471.5,-200 2187.58,-114.21 2098.19,-197.76 1806.5,-144 1802.74,-143.31 1798.88,-142.48 1795.02,-141.56"/>
<polygon fill="#4a5568" stroke="#4a5568" stroke-width="1.6" points="1795.57,-138.63 1786.6,-139.43 1794.11,-144.4 1795.57,-138.63"/>
</g>
<!-- https://w3id.org/min#Entity -->
<g id="node10" class="node">
<title>https://w3id.org/min#Entity</title>
<path fill="#e7f0ff" stroke="#2b6cb0" stroke-width="1.6" d="M2342.5,-252C2342.5,-252 2312.5,-252 2312.5,-252 2306.5,-252 2300.5,-246 2300.5,-240 2300.5,-240 2300.5,-228 2300.5,-228 2300.5,-222 2306.5,-216 2312.5,-216 2312.5,-216 2342.5,-216 2342.5,-216 2348.5,-216 2354.5,-222 2354.5,-228 2354.5,-228 2354.5,-240 2354.5,-240 2354.5,-246 2348.5,-252 2342.5,-252"/>
<text text-anchor="middle" x="2327.5" y="-230.9" font-family="Helvetica,sans-Serif" font-size="12.00" fill="#1a365d">Entity</text>
</g>
<!-- https://w3id.org/min#Forma -->
<g id="node11" class="node">
<title>https://w3id.org/min#Forma</title>
<path fill="#e7f0ff" stroke="#2b6cb0" stroke-width="1.6" d="M2658,-252C2658,-252 2623,-252 2623,-252 2617,-252 2611,-246 2611,-240 2611,-240 2611,-228 2611,-228 2611,-222 2617,-216 2623,-216 2623,-216 2658,-216 2658,-216 2664,-216 2670,-222 2670,-228 2670,-228 2670,-240 2670,-240 2670,-246 2664,-252 2658,-252"/>
<text text-anchor="middle" x="2640.5" y="-230.9" font-family="Helvetica,sans-Serif" font-size="12.00" fill="#1a365d">Forma</text>
</g>
<!-- https://w3id.org/min#Entity&#45;&gt;https://w3id.org/min#Forma -->
<g id="edge8" class="edge">
<title>https://w3id.org/min#Entity&#45;&gt;https://w3id.org/min#Forma</title>
<path fill="none" stroke="#4a5568" stroke-width="1.6" d="M2330.66,-252.47C2336.87,-282.28 2353.8,-340.05 2394.5,-364 2461.92,-403.67 2503.08,-403.67 2570.5,-364 2607.9,-341.99 2626.45,-292.24 2634.72,-261.07"/>
<polygon fill="#4a5568" stroke="#4a5568" stroke-width="1.6" points="2637.71,-261.39 2636.88,-252.42 2631.93,-259.95 2637.71,-261.39"/>
</g>
<!-- https://w3id.org/min#Nexus -->
<g id="node14" class="node">
<title>https://w3id.org/min#Nexus</title>
<path fill="#e7f0ff" stroke="#2b6cb0" stroke-width="1.6" d="M2440,-252C2440,-252 2407,-252 2407,-252 2401,-252 2395,-246 2395,-240 2395,-240 2395,-228 2395,-228 2395,-222 2401,-216 2407,-216 2407,-216 2440,-216 2440,-216 2446,-216 2452,-222 2452,-228 2452,-228 2452,-240 2452,-240 2452,-246 2446,-252 2440,-252"/>
<text text-anchor="middle" x="2423.5" y="-230.9" font-family="Helvetica,sans-Serif" font-size="12.00" fill="#1a365d">Nexus</text>
</g>
<!-- https://w3id.org/min#Entity&#45;&gt;https://w3id.org/min#Nexus -->
<g id="edge9" class="edge">
<title>https://w3id.org/min#Entity&#45;&gt;https://w3id.org/min#Nexus</title>
<path fill="none" stroke="#4a5568" stroke-width="1.6" d="M2354.88,-234C2365.28,-234 2375.68,-234 2386.08,-234"/>
<polygon fill="#4a5568" stroke="#4a5568" stroke-width="1.6" points="2386.32,-236.98 2394.82,-234 2386.32,-231.03 2386.32,-236.98"/>
</g>
<!-- https://w3id.org/min#Institutio -->
<g id="node12" class="node">
<title>https://w3id.org/min#Institutio</title>
<path fill="#e7f0ff" stroke="#2b6cb0" stroke-width="1.6" d="M2770.5,-252C2770.5,-252 2722.5,-252 2722.5,-252 2716.5,-252 2710.5,-246 2710.5,-240 2710.5,-240 2710.5,-228 2710.5,-228 2710.5,-222 2716.5,-216 2722.5,-216 2722.5,-216 2770.5,-216 2770.5,-216 2776.5,-216 2782.5,-222 2782.5,-228 2782.5,-228 2782.5,-240 2782.5,-240 2782.5,-246 2776.5,-252 2770.5,-252"/>
<text text-anchor="middle" x="2746.5" y="-230.9" font-family="Helvetica,sans-Serif" font-size="12.00" fill="#1a365d">Institutio</text>
</g>
<!-- https://w3id.org/min#Forma&#45;&gt;https://w3id.org/min#Institutio -->
<g id="edge10" class="edge">
<title>https://w3id.org/min#Forma&#45;&gt;https://w3id.org/min#Institutio</title>
<path fill="none" stroke="#4a5568" stroke-width="1.6" d="M2670.31,-234C2680.78,-234 2691.24,-234 2701.7,-234"/>
<polygon fill="#4a5568" stroke="#4a5568" stroke-width="1.6" points="2701.99,-236.98 2710.49,-234 2701.99,-231.03 2701.99,-236.98"/>
</g>
<!-- https://w3id.org/min#Lex -->
<g id="node13" class="node">
<title>https://w3id.org/min#Lex</title>
<path fill="#e7f0ff" stroke="#2b6cb0" stroke-width="1.6" d="M2864.5,-252C2864.5,-252 2834.5,-252 2834.5,-252 2828.5,-252 2822.5,-246 2822.5,-240 2822.5,-240 2822.5,-228 2822.5,-228 2822.5,-222 2828.5,-216 2834.5,-216 2834.5,-216 2864.5,-216 2864.5,-216 2870.5,-216 2876.5,-222 2876.5,-228 2876.5,-228 2876.5,-240 2876.5,-240 2876.5,-246 2870.5,-252 2864.5,-252"/>
<text text-anchor="middle" x="2849.5" y="-230.9" font-family="Helvetica,sans-Serif" font-size="12.00" fill="#1a365d">Lex</text>
</g>
<!-- https://w3id.org/min#Forma&#45;&gt;https://w3id.org/min#Lex -->
<g id="edge11" class="edge">
<title>https://w3id.org/min#Forma&#45;&gt;https://w3id.org/min#Lex</title>
<path fill="none" stroke="#4a5568" stroke-width="1.6" d="M2644.12,-252.42C2651.08,-282.15 2669.41,-339.82 2710.5,-364 2738.08,-380.23 2754.92,-380.23 2782.5,-364 2819.55,-342.2 2836.9,-292.38 2844.4,-261.14"/>
<polygon fill="#4a5568" stroke="#4a5568" stroke-width="1.6" points="2847.38,-261.42 2846.34,-252.47 2841.58,-260.11 2847.38,-261.42"/>
</g>
<!-- https://w3id.org/min#Norma -->
<g id="node15" class="node">
<title>https://w3id.org/min#Norma</title>
<path fill="#e7f0ff" stroke="#2b6cb0" stroke-width="1.6" d="M2966,-252C2966,-252 2929,-252 2929,-252 2923,-252 2917,-246 2917,-240 2917,-240 2917,-228 2917,-228 2917,-222 2923,-216 2929,-216 2929,-216 2966,-216 2966,-216 2972,-216 2978,-222 2978,-228 2978,-228 2978,-240 2978,-240 2978,-246 2972,-252 2966,-252"/>
<text text-anchor="middle" x="2947.5" y="-230.9" font-family="Helvetica,sans-Serif" font-size="12.00" fill="#1a365d">Norma</text>
</g>
<!-- https://w3id.org/min#Forma&#45;&gt;https://w3id.org/min#Norma -->
<g id="edge12" class="edge">
<title>https://w3id.org/min#Forma&#45;&gt;https://w3id.org/min#Norma</title>
<path fill="none" stroke="#4a5568" stroke-width="1.6" d="M2644.12,-252.42C2651.08,-282.15 2669.41,-339.82 2710.5,-364 2774.09,-401.41 2812.91,-401.41 2876.5,-364 2914.18,-341.83 2933.13,-291.77 2941.6,-260.64"/>
<polygon fill="#4a5568" stroke="#4a5568" stroke-width="1.6" points="2944.49,-261.38 2943.72,-252.4 2938.72,-259.89 2944.49,-261.38"/>
</g>
<!-- https://w3id.org/min#Possibile -->
<g id="node16" class="node">
<title>https://w3id.org/min#Possibile</title>
<path fill="#e7f0ff" stroke="#2b6cb0" stroke-width="1.6" d="M3077,-252C3077,-252 3030,-252 3030,-252 3024,-252 3018,-246 3018,-240 3018,-240 3018,-228 3018,-228 3018,-222 3024,-216 3030,-216 3030,-216 3077,-216 3077,-216 3083,-216 3089,-222 3089,-228 3089,-228 3089,-240 3089,-240 3089,-246 3083,-252 3077,-252"/>
<text text-anchor="middle" x="3053.5" y="-230.9" font-family="Helvetica,sans-Serif" font-size="12.00" fill="#1a365d">Possibile</text>
</g>
<!-- https://w3id.org/min#Forma&#45;&gt;https://w3id.org/min#Possibile -->
<g id="edge13" class="edge">
<title>https://w3id.org/min#Forma&#45;&gt;https://w3id.org/min#Possibile</title>
<path fill="none" stroke="#4a5568" stroke-width="1.6" d="M2644.12,-252.42C2651.08,-282.15 2669.41,-339.82 2710.5,-364 2761.64,-394.09 2926.04,-393.53 2977.5,-364 3016.05,-341.88 3036.92,-291.8 3046.59,-260.66"/>
<polygon fill="#4a5568" stroke="#4a5568" stroke-width="1.6" points="3049.47,-261.41 3049.02,-252.42 3043.76,-259.73 3049.47,-261.41"/>
</g>
<!-- https://w3id.org/min#Structura -->
<g id="node17" class="node">
<title>https://w3id.org/min#Structura</title>
<path fill="#e7f0ff" stroke="#2b6cb0" stroke-width="1.6" d="M3194,-252C3194,-252 3141,-252 3141,-252 3135,-252 3129,-246 3129,-240 3129,-240 3129,-228 3129,-228 3129,-222 3135,-216 3141,-216 3141,-216 3194,-216 3194,-216 3200,-216 3206,-222 3206,-228 3206,-228 3206,-240 3206,-240 3206,-246 3200,-252 3194,-252"/>
<text text-anchor="middle" x="3167.5" y="-230.9" font-family="Helvetica,sans-Serif" font-size="12.00" fill="#1a365d">Structura</text>
</g>
<!-- https://w3id.org/min#Forma&#45;&gt;https://w3id.org/min#Structura -->
<g id="edge14" class="edge">
<title>https://w3id.org/min#Forma&#45;&gt;https://w3id.org/min#Structura</title>
<path fill="none" stroke="#4a5568" stroke-width="1.6" d="M2644.12,-252.42C2651.08,-282.15 2669.41,-339.82 2710.5,-364 2782.9,-406.6 3015.29,-405.18 3088.5,-364 3127.64,-341.99 3149.63,-291.88 3160,-260.7"/>
<polygon fill="#4a5568" stroke="#4a5568" stroke-width="1.6" points="3162.88,-261.44 3162.61,-252.44 3157.21,-259.64 3162.88,-261.44"/>
</g>
<!-- https://w3id.org/sdata/core/Accreditation -->
<g id="node26" class="node">
<title>https://w3id.org/sdata/core/Accreditation</title>
<path fill="#f8eeff" stroke="#6b46c1" stroke-width="1.6" d="M1914,-144C1914,-144 1839,-144 1839,-144 1833,-144 1827,-138 1827,-132 1827,-132 1827,-120 1827,-120 1827,-114 1833,-108 1839,-108 1839,-108 1914,-108 1914,-108 1920,-108 1926,-114 1926,-120 1926,-120 1926,-132 1926,-132 1926,-138 1920,-144 1914,-144"/>
<text text-anchor="middle" x="1876.5" y="-122.9" font-family="Helvetica,sans-Serif" font-size="12.00" fill="#44337a">Accreditation</text>
</g>
<!-- https://w3id.org/min#Institutio&#45;&gt;https://w3id.org/sdata/core/Accreditation -->
<g id="edge15" class="edge">
<title>https://w3id.org/min#Institutio&#45;&gt;https://w3id.org/sdata/core/Accreditation</title>
<path fill="none" stroke="#4a5568" stroke-width="1.6" d="M2722.65,-215.98C2712.84,-209.85 2701.08,-203.58 2689.5,-200 2372.7,-102.02 2272.95,-196.29 1945.5,-144 1941.94,-143.43 1938.29,-142.77 1934.62,-142.05"/>
<polygon fill="#4a5568" stroke="#4a5568" stroke-width="1.6" points="1934.98,-139.08 1926.05,-140.25 1933.76,-144.91 1934.98,-139.08"/>
</g>
<!-- https://w3id.org/sdata/core/Certification -->
<g id="node27" class="node">
<title>https://w3id.org/sdata/core/Certification</title>
<path fill="#f8eeff" stroke="#6b46c1" stroke-width="1.6" d="M2047,-144C2047,-144 1978,-144 1978,-144 1972,-144 1966,-138 1966,-132 1966,-132 1966,-120 1966,-120 1966,-114 1972,-108 1978,-108 1978,-108 2047,-108 2047,-108 2053,-108 2059,-114 2059,-120 2059,-120 2059,-132 2059,-132 2059,-138 2053,-144 2047,-144"/>
<text text-anchor="middle" x="2012.5" y="-122.9" font-family="Helvetica,sans-Serif" font-size="12.00" fill="#44337a">Certification</text>
</g>
<!-- https://w3id.org/min#Institutio&#45;&gt;https://w3id.org/sdata/core/Certification -->
<g id="edge16" class="edge">
<title>https://w3id.org/min#Institutio&#45;&gt;https://w3id.org/sdata/core/Certification</title>
<path fill="none" stroke="#4a5568" stroke-width="1.6" d="M2722.34,-215.9C2712.59,-209.85 2700.94,-203.64 2689.5,-200 2429.65,-117.31 2347.18,-190.6 2078.5,-144 2074.96,-143.39 2071.33,-142.68 2067.68,-141.91"/>
<polygon fill="#4a5568" stroke="#4a5568" stroke-width="1.6" points="2068.11,-138.96 2059.17,-140.01 2066.82,-144.76 2068.11,-138.96"/>
</g>
<!-- https://w3id.org/sdata/core/Registry -->
<g id="node28" class="node">
<title>https://w3id.org/sdata/core/Registry</title>
<path fill="#f8eeff" stroke="#6b46c1" stroke-width="1.6" d="M2156,-144C2156,-144 2111,-144 2111,-144 2105,-144 2099,-138 2099,-132 2099,-132 2099,-120 2099,-120 2099,-114 2105,-108 2111,-108 2111,-108 2156,-108 2156,-108 2162,-108 2168,-114 2168,-120 2168,-120 2168,-132 2168,-132 2168,-138 2162,-144 2156,-144"/>
<text text-anchor="middle" x="2133.5" y="-122.9" font-family="Helvetica,sans-Serif" font-size="12.00" fill="#44337a">Registry</text>
</g>
<!-- https://w3id.org/min#Institutio&#45;&gt;https://w3id.org/sdata/core/Registry -->
<g id="edge17" class="edge">
<title>https://w3id.org/min#Institutio&#45;&gt;https://w3id.org/sdata/core/Registry</title>
<path fill="none" stroke="#4a5568" stroke-width="1.6" d="M2722.02,-215.85C2712.32,-209.86 2700.8,-203.72 2689.5,-200 2476.68,-129.93 2407.84,-189.73 2188.5,-144 2184.55,-143.18 2180.48,-142.19 2176.42,-141.11"/>
<polygon fill="#4a5568" stroke="#4a5568" stroke-width="1.6" points="2177.14,-138.23 2168.16,-138.79 2175.54,-143.95 2177.14,-138.23"/>
</g>
<!-- https://w3id.org/sdata/core/TrustFramework -->
<g id="node29" class="node">
<title>https://w3id.org/sdata/core/TrustFramework</title>
<path fill="#f8eeff" stroke="#6b46c1" stroke-width="1.6" d="M2316.5,-144C2316.5,-144 2220.5,-144 2220.5,-144 2214.5,-144 2208.5,-138 2208.5,-132 2208.5,-132 2208.5,-120 2208.5,-120 2208.5,-114 2214.5,-108 2220.5,-108 2220.5,-108 2316.5,-108 2316.5,-108 2322.5,-108 2328.5,-114 2328.5,-120 2328.5,-120 2328.5,-132 2328.5,-132 2328.5,-138 2322.5,-144 2316.5,-144"/>
<text text-anchor="middle" x="2268.5" y="-122.9" font-family="Helvetica,sans-Serif" font-size="12.00" fill="#44337a">Trust Framework</text>
</g>
<!-- https://w3id.org/min#Institutio&#45;&gt;https://w3id.org/sdata/core/TrustFramework -->
<g id="edge18" class="edge">
<title>https://w3id.org/min#Institutio&#45;&gt;https://w3id.org/sdata/core/TrustFramework</title>
<path fill="none" stroke="#4a5568" stroke-width="1.6" d="M2721.64,-215.98C2711.98,-210.09 2700.59,-203.97 2689.5,-200 2544.9,-148.23 2499.43,-172.41 2348.5,-144 2344.79,-143.3 2340.99,-142.56 2337.15,-141.8"/>
<polygon fill="#4a5568" stroke="#4a5568" stroke-width="1.6" points="2337.64,-138.87 2328.72,-140.11 2336.47,-144.7 2337.64,-138.87"/>
</g>
<!-- https://w3id.org/sdata/core/Law -->
<g id="node30" class="node">
<title>https://w3id.org/sdata/core/Law</title>
<path fill="#f8eeff" stroke="#6b46c1" stroke-width="1.6" d="M2410.5,-144C2410.5,-144 2380.5,-144 2380.5,-144 2374.5,-144 2368.5,-138 2368.5,-132 2368.5,-132 2368.5,-120 2368.5,-120 2368.5,-114 2374.5,-108 2380.5,-108 2380.5,-108 2410.5,-108 2410.5,-108 2416.5,-108 2422.5,-114 2422.5,-120 2422.5,-120 2422.5,-132 2422.5,-132 2422.5,-138 2416.5,-144 2410.5,-144"/>
<text text-anchor="middle" x="2395.5" y="-122.9" font-family="Helvetica,sans-Serif" font-size="12.00" fill="#44337a">Law</text>
</g>
<!-- https://w3id.org/min#Lex&#45;&gt;https://w3id.org/sdata/core/Law -->
<g id="edge19" class="edge">
<title>https://w3id.org/min#Lex&#45;&gt;https://w3id.org/sdata/core/Law</title>
<path fill="none" stroke="#4a5568" stroke-width="1.6" d="M2829.18,-215.67C2821.31,-209.81 2811.93,-203.8 2802.5,-200 2652.32,-139.45 2599.36,-184.17 2442.5,-144 2438.71,-143.03 2434.8,-141.87 2430.92,-140.63"/>
<polygon fill="#4a5568" stroke="#4a5568" stroke-width="1.6" points="2431.56,-137.7 2422.56,-137.79 2429.65,-143.34 2431.56,-137.7"/>
</g>
<!-- https://w3id.org/min#Nexus&#45;&gt;https://w3id.org/min#Agent -->
<g id="edge20" class="edge">
<title>https://w3id.org/min#Nexus&#45;&gt;https://w3id.org/min#Agent</title>
<path fill="none" stroke="#4a5568" stroke-width="1.6" d="M2420.03,-252.44C2413.33,-282.19 2395.46,-339.9 2354.5,-364 2286.7,-403.89 2068.3,-403.89 2000.5,-364 1963.34,-342.13 1945.59,-292.34 1937.83,-261.11"/>
<polygon fill="#4a5568" stroke="#4a5568" stroke-width="1.6" points="1940.64,-260.06 1935.81,-252.46 1934.84,-261.41 1940.64,-260.06"/>
</g>
<!-- https://w3id.org/min#Nexus&#45;&gt;https://w3id.org/min#Data -->
<g id="edge22" class="edge">
<title>https://w3id.org/min#Nexus&#45;&gt;https://w3id.org/min#Data</title>
<path fill="none" stroke="#4a5568" stroke-width="1.6" d="M2420.03,-252.44C2413.33,-282.19 2395.46,-339.9 2354.5,-364 2304.7,-393.3 2144.3,-393.3 2094.5,-364 2057.45,-342.2 2040.1,-292.38 2032.6,-261.14"/>
<polygon fill="#4a5568" stroke="#4a5568" stroke-width="1.6" points="2035.42,-260.11 2030.66,-252.47 2029.62,-261.42 2035.42,-260.11"/>
</g>
<!-- https://w3id.org/min#Nexus&#45;&gt;https://w3id.org/min#Object -->
<g id="edge23" class="edge">
<title>https://w3id.org/min#Nexus&#45;&gt;https://w3id.org/min#Object</title>
<path fill="none" stroke="#4a5568" stroke-width="1.6" d="M2420.03,-252.44C2413.33,-282.19 2395.46,-339.9 2354.5,-364 2293.21,-400.06 2255.79,-400.06 2194.5,-364 2157.1,-341.99 2138.55,-292.24 2130.28,-261.07"/>
<polygon fill="#4a5568" stroke="#4a5568" stroke-width="1.6" points="2133.07,-259.95 2128.12,-252.42 2127.29,-261.39 2133.07,-259.95"/>
</g>
<!-- https://w3id.org/min#Nexus&#45;&gt;https://w3id.org/min#Process -->
<g id="edge24" class="edge">
<title>https://w3id.org/min#Nexus&#45;&gt;https://w3id.org/min#Process</title>
<path fill="none" stroke="#4a5568" stroke-width="1.6" d="M2420.03,-252.44C2413.33,-282.19 2395.46,-339.9 2354.5,-364 2327.69,-379.78 2311.31,-379.78 2284.5,-364 2248.35,-342.73 2235.07,-292.28 2230.23,-260.85"/>
<polygon fill="#4a5568" stroke="#4a5568" stroke-width="1.6" points="2233.14,-260.16 2229.03,-252.15 2227.25,-260.97 2233.14,-260.16"/>
</g>
<!-- https://w3id.org/min#Nexus&#45;&gt;https://w3id.org/min#Boundary -->
<g id="edge21" class="edge">
<title>https://w3id.org/min#Nexus&#45;&gt;https://w3id.org/min#Boundary</title>
<path fill="none" stroke="#4a5568" stroke-width="1.6" d="M2452.19,-234C2462.68,-234 2473.16,-234 2483.65,-234"/>
<polygon fill="#4a5568" stroke="#4a5568" stroke-width="1.6" points="2483.96,-236.98 2492.46,-234 2483.96,-231.03 2483.96,-236.98"/>
</g>
<!-- https://w3id.org/sdata/core/LifecyclePhase -->
<g id="node31" class="node">
<title>https://w3id.org/sdata/core/LifecyclePhase</title>
<path fill="#f8eeff" stroke="#6b46c1" stroke-width="1.6" d="M2564,-144C2564,-144 2475,-144 2475,-144 2469,-144 2463,-138 2463,-132 2463,-132 2463,-120 2463,-120 2463,-114 2469,-108 2475,-108 2475,-108 2564,-108 2564,-108 2570,-108 2576,-114 2576,-120 2576,-120 2576,-132 2576,-132 2576,-138 2570,-144 2564,-144"/>
<text text-anchor="middle" x="2519.5" y="-122.9" font-family="Helvetica,sans-Serif" font-size="12.00" fill="#44337a">Lifecycle Phase</text>
</g>
<!-- https://w3id.org/min#Norma&#45;&gt;https://w3id.org/sdata/core/LifecyclePhase -->
<g id="edge25" class="edge">
<title>https://w3id.org/min#Norma&#45;&gt;https://w3id.org/sdata/core/LifecyclePhase</title>
<path fill="none" stroke="#4a5568" stroke-width="1.6" d="M2925.18,-215.87C2916.62,-210.03 2906.49,-203.98 2896.5,-200 2770.51,-149.76 2729.41,-171.07 2596.5,-144 2592.6,-143.21 2588.59,-142.37 2584.54,-141.52"/>
<polygon fill="#4a5568" stroke="#4a5568" stroke-width="1.6" points="2585.16,-138.61 2576.22,-139.74 2583.92,-144.43 2585.16,-138.61"/>
</g>
<!-- https://w3id.org/sdata/core/Regulation -->
<g id="node32" class="node">
<title>https://w3id.org/sdata/core/Regulation</title>
<path fill="#f8eeff" stroke="#6b46c1" stroke-width="1.6" d="M2688.5,-144C2688.5,-144 2628.5,-144 2628.5,-144 2622.5,-144 2616.5,-138 2616.5,-132 2616.5,-132 2616.5,-120 2616.5,-120 2616.5,-114 2622.5,-108 2628.5,-108 2628.5,-108 2688.5,-108 2688.5,-108 2694.5,-108 2700.5,-114 2700.5,-120 2700.5,-120 2700.5,-132 2700.5,-132 2700.5,-138 2694.5,-144 2688.5,-144"/>
<text text-anchor="middle" x="2658.5" y="-122.9" font-family="Helvetica,sans-Serif" font-size="12.00" fill="#44337a">Regulation</text>
</g>
<!-- https://w3id.org/min#Norma&#45;&gt;https://w3id.org/sdata/core/Regulation -->
<g id="edge26" class="edge">
<title>https://w3id.org/min#Norma&#45;&gt;https://w3id.org/sdata/core/Regulation</title>
<path fill="none" stroke="#4a5568" stroke-width="1.6" d="M2924.16,-215.96C2915.74,-210.34 2905.96,-204.41 2896.5,-200 2879.3,-191.99 2773.7,-160.61 2709.07,-141.7"/>
<polygon fill="#4a5568" stroke="#4a5568" stroke-width="1.6" points="2709.62,-138.76 2700.63,-139.23 2707.95,-144.47 2709.62,-138.76"/>
</g>
<!-- https://w3id.org/sdata/core/Requirement -->
<g id="node33" class="node">
<title>https://w3id.org/sdata/core/Requirement</title>
<path fill="#f8eeff" stroke="#6b46c1" stroke-width="1.6" d="M2826,-144C2826,-144 2753,-144 2753,-144 2747,-144 2741,-138 2741,-132 2741,-132 2741,-120 2741,-120 2741,-114 2747,-108 2753,-108 2753,-108 2826,-108 2826,-108 2832,-108 2838,-114 2838,-120 2838,-120 2838,-132 2838,-132 2838,-138 2832,-144 2826,-144"/>
<text text-anchor="middle" x="2789.5" y="-122.9" font-family="Helvetica,sans-Serif" font-size="12.00" fill="#44337a">Requirement</text>
</g>
<!-- https://w3id.org/min#Norma&#45;&gt;https://w3id.org/sdata/core/Requirement -->
<g id="edge27" class="edge">
<title>https://w3id.org/min#Norma&#45;&gt;https://w3id.org/sdata/core/Requirement</title>
<path fill="none" stroke="#4a5568" stroke-width="1.6" d="M2922.11,-215.97C2895.01,-197.79 2851.98,-168.91 2822.32,-149.02"/>
<polygon fill="#4a5568" stroke="#4a5568" stroke-width="1.6" points="2823.8,-146.43 2815.08,-144.16 2820.49,-151.37 2823.8,-146.43"/>
</g>
<!-- https://w3id.org/sdata/core/Specification -->
<g id="node34" class="node">
<title>https://w3id.org/sdata/core/Specification</title>
<path fill="#f8eeff" stroke="#6b46c1" stroke-width="1.6" d="M2963,-144C2963,-144 2890,-144 2890,-144 2884,-144 2878,-138 2878,-132 2878,-132 2878,-120 2878,-120 2878,-114 2884,-108 2890,-108 2890,-108 2963,-108 2963,-108 2969,-108 2975,-114 2975,-120 2975,-120 2975,-132 2975,-132 2975,-138 2969,-144 2963,-144"/>
<text text-anchor="middle" x="2926.5" y="-122.9" font-family="Helvetica,sans-Serif" font-size="12.00" fill="#44337a">Specification</text>
</g>
<!-- https://w3id.org/min#Norma&#45;&gt;https://w3id.org/sdata/core/Specification -->
<g id="edge28" class="edge">
<title>https://w3id.org/min#Norma&#45;&gt;https://w3id.org/sdata/core/Specification</title>
<path fill="none" stroke="#4a5568" stroke-width="1.6" d="M2944.13,-215.97C2940.75,-198.92 2935.51,-172.46 2931.62,-152.82"/>
<polygon fill="#4a5568" stroke="#4a5568" stroke-width="1.6" points="2934.51,-152.1 2929.94,-144.34 2928.67,-153.26 2934.51,-152.1"/>
</g>
<!-- https://w3id.org/sdata/core/Scenario -->
<g id="node38" class="node">
<title>https://w3id.org/sdata/core/Scenario</title>
<path fill="#f8eeff" stroke="#6b46c1" stroke-width="1.6" d="M3076,-144C3076,-144 3027,-144 3027,-144 3021,-144 3015,-138 3015,-132 3015,-132 3015,-120 3015,-120 3015,-114 3021,-108 3027,-108 3027,-108 3076,-108 3076,-108 3082,-108 3088,-114 3088,-120 3088,-120 3088,-132 3088,-132 3088,-138 3082,-144 3076,-144"/>
<text text-anchor="middle" x="3051.5" y="-122.9" font-family="Helvetica,sans-Serif" font-size="12.00" fill="#44337a">Scenario</text>
</g>
<!-- https://w3id.org/min#Possibile&#45;&gt;https://w3id.org/sdata/core/Scenario -->
<g id="edge36" class="edge">
<title>https://w3id.org/min#Possibile&#45;&gt;https://w3id.org/sdata/core/Scenario</title>
<path fill="none" stroke="#4a5568" stroke-width="1.6" d="M3053.18,-215.97C3052.86,-198.99 3052.36,-172.7 3051.99,-153.09"/>
<polygon fill="#4a5568" stroke="#4a5568" stroke-width="1.6" points="3054.96,-152.78 3051.83,-144.34 3049.01,-152.9 3054.96,-152.78"/>
</g>
<!-- https://w3id.org/sdata/core/Model -->
<g id="node40" class="node">
<title>https://w3id.org/sdata/core/Model</title>
<path fill="#f8eeff" stroke="#6b46c1" stroke-width="1.6" d="M3173,-144C3173,-144 3140,-144 3140,-144 3134,-144 3128,-138 3128,-132 3128,-132 3128,-120 3128,-120 3128,-114 3134,-108 3140,-108 3140,-108 3173,-108 3173,-108 3179,-108 3185,-114 3185,-120 3185,-120 3185,-132 3185,-132 3185,-138 3179,-144 3173,-144"/>
<text text-anchor="middle" x="3156.5" y="-122.9" font-family="Helvetica,sans-Serif" font-size="12.00" fill="#44337a">Model</text>
</g>
<!-- https://w3id.org/min#Structura&#45;&gt;https://w3id.org/sdata/core/Model -->
<g id="edge38" class="edge">
<title>https://w3id.org/min#Structura&#45;&gt;https://w3id.org/sdata/core/Model</title>
<path fill="none" stroke="#4a5568" stroke-width="1.6" d="M3165.73,-215.97C3163.96,-198.92 3161.22,-172.46 3159.18,-152.82"/>
<polygon fill="#4a5568" stroke="#4a5568" stroke-width="1.6" points="3162.14,-152.49 3158.3,-144.34 3156.22,-153.1 3162.14,-152.49"/>
</g>
<!-- __rank_anchor_min -->
<!-- __rank_anchor_sdata -->
<!-- __rank_anchor_min&#45;&gt;__rank_anchor_sdata -->
<!-- https://w3id.org/sdata/core/BillOfMaterials -->
<g id="node41" class="node">
<title>https://w3id.org/sdata/core/BillOfMaterials</title>
<path fill="#f8eeff" stroke="#6b46c1" stroke-width="1.6" d="M160.5,-36C160.5,-36 72.5,-36 72.5,-36 66.5,-36 60.5,-30 60.5,-24 60.5,-24 60.5,-12 60.5,-12 60.5,-6 66.5,0 72.5,0 72.5,0 160.5,0 160.5,0 166.5,0 172.5,-6 172.5,-12 172.5,-12 172.5,-24 172.5,-24 172.5,-30 166.5,-36 160.5,-36"/>
<text text-anchor="middle" x="116.5" y="-14.9" font-family="Helvetica,sans-Serif" font-size="12.00" fill="#44337a">Bill of Materials</text>
</g>
<!-- https://w3id.org/sdata/core/Data&#45;&gt;https://w3id.org/sdata/core/BillOfMaterials -->
<g id="edge39" class="edge">
<title>https://w3id.org/sdata/core/Data&#45;&gt;https://w3id.org/sdata/core/BillOfMaterials</title>
<path fill="none" stroke="#4a5568" stroke-width="1.6" d="M722.46,-114.14C716,-111.85 709.07,-109.63 702.5,-108 480.35,-52.77 417.71,-77.02 192.5,-36 188.81,-35.33 185.02,-34.6 181.21,-33.84"/>
<polygon fill="#4a5568" stroke="#4a5568" stroke-width="1.6" points="181.77,-30.92 172.84,-32.13 180.57,-36.75 181.77,-30.92"/>
</g>
<!-- https://w3id.org/sdata/core/CryptographicKey -->
<g id="node43" class="node">
<title>https://w3id.org/sdata/core/CryptographicKey</title>
<path fill="#f8eeff" stroke="#6b46c1" stroke-width="1.6" d="M332,-36C332,-36 225,-36 225,-36 219,-36 213,-30 213,-24 213,-24 213,-12 213,-12 213,-6 219,0 225,0 225,0 332,0 332,0 338,0 344,-6 344,-12 344,-12 344,-24 344,-24 344,-30 338,-36 332,-36"/>
<text text-anchor="middle" x="278.5" y="-14.9" font-family="Helvetica,sans-Serif" font-size="12.00" fill="#44337a">Cryptographic Key</text>
</g>
<!-- https://w3id.org/sdata/core/Data&#45;&gt;https://w3id.org/sdata/core/CryptographicKey -->
<g id="edge40" class="edge">
<title>https://w3id.org/sdata/core/Data&#45;&gt;https://w3id.org/sdata/core/CryptographicKey</title>
<path fill="none" stroke="#4a5568" stroke-width="1.6" d="M722.37,-114.46C715.92,-112.15 709.01,-109.85 702.5,-108 669.27,-98.55 465.38,-56.83 352.88,-34.02"/>
<polygon fill="#4a5568" stroke="#4a5568" stroke-width="1.6" points="353.2,-31.05 344.28,-32.28 352.02,-36.88 353.2,-31.05"/>
</g>
<!-- https://w3id.org/sdata/core/DigitalTwin -->
<g id="node44" class="node">
<title>https://w3id.org/sdata/core/DigitalTwin</title>
<path fill="#f8eeff" stroke="#6b46c1" stroke-width="1.6" d="M459,-36C459,-36 396,-36 396,-36 390,-36 384,-30 384,-24 384,-24 384,-12 384,-12 384,-6 390,0 396,0 396,0 459,0 459,0 465,0 471,-6 471,-12 471,-12 471,-24 471,-24 471,-30 465,-36 459,-36"/>
<text text-anchor="middle" x="427.5" y="-14.9" font-family="Helvetica,sans-Serif" font-size="12.00" fill="#44337a">Digital Twin</text>
</g>
<!-- https://w3id.org/sdata/core/Data&#45;&gt;https://w3id.org/sdata/core/DigitalTwin -->
<g id="edge41" class="edge">
<title>https://w3id.org/sdata/core/Data&#45;&gt;https://w3id.org/sdata/core/DigitalTwin</title>
<path fill="none" stroke="#4a5568" stroke-width="1.6" d="M722.22,-114.95C715.77,-112.63 708.9,-110.19 702.5,-108 625.29,-81.55 535.18,-52.78 479.73,-35.32"/>
<polygon fill="#4a5568" stroke="#4a5568" stroke-width="1.6" points="480.47,-32.44 471.47,-32.72 478.69,-38.11 480.47,-32.44"/>
</g>
<!-- https://w3id.org/sdata/core/Identifier -->
<g id="node45" class="node">
<title>https://w3id.org/sdata/core/Identifier</title>
<path fill="#f8eeff" stroke="#6b46c1" stroke-width="1.6" d="M574,-36C574,-36 523,-36 523,-36 517,-36 511,-30 511,-24 511,-24 511,-12 511,-12 511,-6 517,0 523,0 523,0 574,0 574,0 580,0 586,-6 586,-12 586,-12 586,-24 586,-24 586,-30 580,-36 574,-36"/>
<text text-anchor="middle" x="548.5" y="-14.9" font-family="Helvetica,sans-Serif" font-size="12.00" fill="#44337a">Identifier</text>
</g>
<!-- https://w3id.org/sdata/core/Data&#45;&gt;https://w3id.org/sdata/core/Identifier -->
<g id="edge42" class="edge">
<title>https://w3id.org/sdata/core/Data&#45;&gt;https://w3id.org/sdata/core/Identifier</title>
<path fill="none" stroke="#4a5568" stroke-width="1.6" d="M722.39,-110.7C687.93,-92.53 628.17,-61.01 588.47,-40.08"/>
<polygon fill="#4a5568" stroke="#4a5568" stroke-width="1.6" points="589.72,-37.38 580.82,-36.04 586.95,-42.64 589.72,-37.38"/>
</g>
<!-- https://w3id.org/sdata/core/ProductPassport -->
<g id="node46" class="node">
<title>https://w3id.org/sdata/core/ProductPassport</title>
<path fill="#f8eeff" stroke="#6b46c1" stroke-width="1.6" d="M734.5,-36C734.5,-36 638.5,-36 638.5,-36 632.5,-36 626.5,-30 626.5,-24 626.5,-24 626.5,-12 626.5,-12 626.5,-6 632.5,0 638.5,0 638.5,0 734.5,0 734.5,0 740.5,0 746.5,-6 746.5,-12 746.5,-12 746.5,-24 746.5,-24 746.5,-30 740.5,-36 734.5,-36"/>
<text text-anchor="middle" x="686.5" y="-14.9" font-family="Helvetica,sans-Serif" font-size="12.00" fill="#44337a">Product Passport</text>
</g>
<!-- https://w3id.org/sdata/core/Data&#45;&gt;https://w3id.org/sdata/core/ProductPassport -->
<g id="edge43" class="edge">
<title>https://w3id.org/sdata/core/Data&#45;&gt;https://w3id.org/sdata/core/ProductPassport</title>
<path fill="none" stroke="#4a5568" stroke-width="1.6" d="M739.38,-107.97C729.06,-90.61 712.95,-63.5 701.22,-43.77"/>
<polygon fill="#4a5568" stroke="#4a5568" stroke-width="1.6" points="703.71,-42.13 696.81,-36.34 698.59,-45.17 703.71,-42.13"/>
</g>
<!-- https://w3id.org/sdata/core/Proof -->
<g id="node47" class="node">
<title>https://w3id.org/sdata/core/Proof</title>
<path fill="#f8eeff" stroke="#6b46c1" stroke-width="1.6" d="M828.5,-36C828.5,-36 798.5,-36 798.5,-36 792.5,-36 786.5,-30 786.5,-24 786.5,-24 786.5,-12 786.5,-12 786.5,-6 792.5,0 798.5,0 798.5,0 828.5,0 828.5,0 834.5,0 840.5,-6 840.5,-12 840.5,-12 840.5,-24 840.5,-24 840.5,-30 834.5,-36 828.5,-36"/>
<text text-anchor="middle" x="813.5" y="-14.9" font-family="Helvetica,sans-Serif" font-size="12.00" fill="#44337a">Proof</text>
</g>
<!-- https://w3id.org/sdata/core/Data&#45;&gt;https://w3id.org/sdata/core/Proof -->
<g id="edge44" class="edge">
<title>https://w3id.org/sdata/core/Data&#45;&gt;https://w3id.org/sdata/core/Proof</title>
<path fill="none" stroke="#4a5568" stroke-width="1.6" d="M759.78,-107.97C770.26,-90.61 786.63,-63.5 798.54,-43.77"/>
<polygon fill="#4a5568" stroke="#4a5568" stroke-width="1.6" points="801.18,-45.15 803.03,-36.34 796.09,-42.08 801.18,-45.15"/>
</g>
<!-- https://w3id.org/sdata/core/Result -->
<g id="node48" class="node">
<title>https://w3id.org/sdata/core/Result</title>
<path fill="#f8eeff" stroke="#6b46c1" stroke-width="1.6" d="M926,-36C926,-36 893,-36 893,-36 887,-36 881,-30 881,-24 881,-24 881,-12 881,-12 881,-6 887,0 893,0 893,0 926,0 926,0 932,0 938,-6 938,-12 938,-12 938,-24 938,-24 938,-30 932,-36 926,-36"/>
<text text-anchor="middle" x="909.5" y="-14.9" font-family="Helvetica,sans-Serif" font-size="12.00" fill="#44337a">Result</text>
</g>
<!-- https://w3id.org/sdata/core/Data&#45;&gt;https://w3id.org/sdata/core/Result -->
<g id="edge45" class="edge">
<title>https://w3id.org/sdata/core/Data&#45;&gt;https://w3id.org/sdata/core/Result</title>
<path fill="none" stroke="#4a5568" stroke-width="1.6" d="M775.21,-107.97C802.65,-89.79 846.23,-60.91 876.27,-41.02"/>
<polygon fill="#4a5568" stroke="#4a5568" stroke-width="1.6" points="878.15,-43.34 883.59,-36.16 874.86,-38.38 878.15,-43.34"/>
</g>
<!-- https://w3id.org/sdata/core/ResultFile -->
<g id="node49" class="node">
<title>https://w3id.org/sdata/core/ResultFile</title>
<path fill="#f8eeff" stroke="#6b46c1" stroke-width="1.6" d="M1046.5,-36C1046.5,-36 990.5,-36 990.5,-36 984.5,-36 978.5,-30 978.5,-24 978.5,-24 978.5,-12 978.5,-12 978.5,-6 984.5,0 990.5,0 990.5,0 1046.5,0 1046.5,0 1052.5,0 1058.5,-6 1058.5,-12 1058.5,-12 1058.5,-24 1058.5,-24 1058.5,-30 1052.5,-36 1046.5,-36"/>
<text text-anchor="middle" x="1018.5" y="-14.9" font-family="Helvetica,sans-Serif" font-size="12.00" fill="#44337a">Result File</text>
</g>
<!-- https://w3id.org/sdata/core/Data&#45;&gt;https://w3id.org/sdata/core/ResultFile -->
<g id="edge46" class="edge">
<title>https://w3id.org/sdata/core/Data&#45;&gt;https://w3id.org/sdata/core/ResultFile</title>
<path fill="none" stroke="#4a5568" stroke-width="1.6" d="M776.52,-114.35C821.86,-96.49 913.81,-60.25 970.39,-37.96"/>
<polygon fill="#4a5568" stroke="#4a5568" stroke-width="1.6" points="971.66,-40.66 978.47,-34.77 969.48,-35.12 971.66,-40.66"/>
</g>
<!-- https://w3id.org/sdata/core/VerifiableCredential -->
<g id="node50" class="node">
<title>https://w3id.org/sdata/core/VerifiableCredential</title>
<path fill="#f8eeff" stroke="#6b46c1" stroke-width="1.6" d="M1228,-36C1228,-36 1111,-36 1111,-36 1105,-36 1099,-30 1099,-24 1099,-24 1099,-12 1099,-12 1099,-6 1105,0 1111,0 1111,0 1228,0 1228,0 1234,0 1240,-6 1240,-12 1240,-12 1240,-24 1240,-24 1240,-30 1234,-36 1228,-36"/>
<text text-anchor="middle" x="1169.5" y="-14.9" font-family="Helvetica,sans-Serif" font-size="12.00" fill="#44337a">Verifiable Credential</text>
</g>
<!-- https://w3id.org/sdata/core/Data&#45;&gt;https://w3id.org/sdata/core/VerifiableCredential -->
<g id="edge47" class="edge">
<title>https://w3id.org/sdata/core/Data&#45;&gt;https://w3id.org/sdata/core/VerifiableCredential</title>
<path fill="none" stroke="#4a5568" stroke-width="1.6" d="M776.66,-114.59C783.12,-112.28 790.02,-109.94 796.5,-108 896.61,-78.06 1014.17,-51.38 1090.15,-35.21"/>
<polygon fill="#4a5568" stroke="#4a5568" stroke-width="1.6" points="1091.05,-38.06 1098.75,-33.39 1089.82,-32.24 1091.05,-38.06"/>
</g>
<!-- https://w3id.org/sdata/core/VerifiablePresentation -->
<g id="node51" class="node">
<title>https://w3id.org/sdata/core/VerifiablePresentation</title>
<path fill="#f8eeff" stroke="#6b46c1" stroke-width="1.6" d="M1423,-36C1423,-36 1292,-36 1292,-36 1286,-36 1280,-30 1280,-24 1280,-24 1280,-12 1280,-12 1280,-6 1286,0 1292,0 1292,0 1423,0 1423,0 1429,0 1435,-6 1435,-12 1435,-12 1435,-24 1435,-24 1435,-30 1429,-36 1423,-36"/>
<text text-anchor="middle" x="1357.5" y="-14.9" font-family="Helvetica,sans-Serif" font-size="12.00" fill="#44337a">Verifiable Presentation</text>
</g>
<!-- https://w3id.org/sdata/core/Data&#45;&gt;https://w3id.org/sdata/core/VerifiablePresentation -->
<g id="edge48" class="edge">
<title>https://w3id.org/sdata/core/Data&#45;&gt;https://w3id.org/sdata/core/VerifiablePresentation</title>
<path fill="none" stroke="#4a5568" stroke-width="1.6" d="M776.56,-114.21C783.02,-111.91 789.94,-109.68 796.5,-108 998.24,-56.34 1054.01,-69.8 1259.5,-36 1263.45,-35.35 1267.48,-34.68 1271.55,-34"/>
<polygon fill="#4a5568" stroke="#4a5568" stroke-width="1.6" points="1272.07,-36.93 1279.95,-32.58 1271.08,-31.06 1272.07,-36.93"/>
</g>
<!-- https://w3id.org/sdata/core/BoundaryType -->
<g id="node42" class="node">
<title>https://w3id.org/sdata/core/BoundaryType</title>
<path fill="#f8eeff" stroke="#6b46c1" stroke-width="1.6" d="M3384,-252C3384,-252 3299,-252 3299,-252 3293,-252 3287,-246 3287,-240 3287,-240 3287,-228 3287,-228 3287,-222 3293,-216 3299,-216 3299,-216 3384,-216 3384,-216 3390,-216 3396,-222 3396,-228 3396,-228 3396,-240 3396,-240 3396,-246 3390,-252 3384,-252"/>
<text text-anchor="middle" x="3341.5" y="-230.9" font-family="Helvetica,sans-Serif" font-size="12.00" fill="#44337a">Boundary Type</text>
</g>
<!-- https://w3id.org/sdata/core/DataFormat -->
<g id="node52" class="node">
<title>https://w3id.org/sdata/core/DataFormat</title>
<path fill="#f8eeff" stroke="#6b46c1" stroke-width="1.6" d="M3520.5,-252C3520.5,-252 3448.5,-252 3448.5,-252 3442.5,-252 3436.5,-246 3436.5,-240 3436.5,-240 3436.5,-228 3436.5,-228 3436.5,-222 3442.5,-216 3448.5,-216 3448.5,-216 3520.5,-216 3520.5,-216 3526.5,-216 3532.5,-222 3532.5,-228 3532.5,-228 3532.5,-240 3532.5,-240 3532.5,-246 3526.5,-252 3520.5,-252"/>
<text text-anchor="middle" x="3484.5" y="-230.9" font-family="Helvetica,sans-Serif" font-size="12.00" fill="#44337a">Data Format</text>
</g>
<!-- https://w3id.org/sdata/core/HardwareType -->
<g id="node53" class="node">
<title>https://w3id.org/sdata/core/HardwareType</title>
<path fill="#f8eeff" stroke="#6b46c1" stroke-width="1.6" d="M3670,-252C3670,-252 3585,-252 3585,-252 3579,-252 3573,-246 3573,-240 3573,-240 3573,-228 3573,-228 3573,-222 3579,-216 3585,-216 3585,-216 3670,-216 3670,-216 3676,-216 3682,-222 3682,-228 3682,-228 3682,-240 3682,-240 3682,-246 3676,-252 3670,-252"/>
<text text-anchor="middle" x="3627.5" y="-230.9" font-family="Helvetica,sans-Serif" font-size="12.00" fill="#44337a">Hardware Type</text>
</g>
<!-- https://w3id.org/sdata/core/MaterialGrade -->
<g id="node54" class="node">
<title>https://w3id.org/sdata/core/MaterialGrade</title>
<path fill="#f8eeff" stroke="#6b46c1" stroke-width="1.6" d="M3820.5,-252C3820.5,-252 3734.5,-252 3734.5,-252 3728.5,-252 3722.5,-246 3722.5,-240 3722.5,-240 3722.5,-228 3722.5,-228 3722.5,-222 3728.5,-216 3734.5,-216 3734.5,-216 3820.5,-216 3820.5,-216 3826.5,-216 3832.5,-222 3832.5,-228 3832.5,-228 3832.5,-240 3832.5,-240 3832.5,-246 3826.5,-252 3820.5,-252"/>
<text text-anchor="middle" x="3777.5" y="-230.9" font-family="Helvetica,sans-Serif" font-size="12.00" fill="#44337a">Material Grade</text>
</g>
<!-- https://w3id.org/sdata/core/ProcessType -->
<g id="node55" class="node">
<title>https://w3id.org/sdata/core/ProcessType</title>
<path fill="#f8eeff" stroke="#6b46c1" stroke-width="1.6" d="M3956.5,-252C3956.5,-252 3884.5,-252 3884.5,-252 3878.5,-252 3872.5,-246 3872.5,-240 3872.5,-240 3872.5,-228 3872.5,-228 3872.5,-222 3878.5,-216 3884.5,-216 3884.5,-216 3956.5,-216 3956.5,-216 3962.5,-216 3968.5,-222 3968.5,-228 3968.5,-228 3968.5,-240 3968.5,-240 3968.5,-246 3962.5,-252 3956.5,-252"/>
<text text-anchor="middle" x="3920.5" y="-230.9" font-family="Helvetica,sans-Serif" font-size="12.00" fill="#44337a">Process Type</text>
</g>
<!-- https://w3id.org/sdata/core/SoftwareType -->
<g id="node56" class="node">
<title>https://w3id.org/sdata/core/SoftwareType</title>
<path fill="#f8eeff" stroke="#6b46c1" stroke-width="1.6" d="M4100.5,-252C4100.5,-252 4020.5,-252 4020.5,-252 4014.5,-252 4008.5,-246 4008.5,-240 4008.5,-240 4008.5,-228 4008.5,-228 4008.5,-222 4014.5,-216 4020.5,-216 4020.5,-216 4100.5,-216 4100.5,-216 4106.5,-216 4112.5,-222 4112.5,-228 4112.5,-228 4112.5,-240 4112.5,-240 4112.5,-246 4106.5,-252 4100.5,-252"/>
<text text-anchor="middle" x="4060.5" y="-230.9" font-family="Helvetica,sans-Serif" font-size="12.00" fill="#44337a">Software Type</text>
</g>
</g>
</svg>
