<?xml version="1.0" encoding="UTF-8" standalone="no"?>
<!DOCTYPE svg PUBLIC "-//W3C//DTD SVG 1.1//EN"
 "http://www.w3.org/Graphics/SVG/1.1/DTD/svg11.dtd">
<!-- Generated by graphviz version 2.43.0 (0)
 -->
<!-- Pages: 1 -->
<svg width="4546pt" height="1104pt"
 viewBox="0.00 0.00 4546.40 1104.40" xmlns="http://www.w3.org/2000/svg" xmlns:xlink="http://www.w3.org/1999/xlink">
<g id="graph0" class="graph" transform="scale(1 1) rotate(0) translate(25.2 1079.2)">
<polygon fill="#fafbfc" stroke="transparent" points="-25.2,25.2 -25.2,-1079.2 4521.2,-1079.2 4521.2,25.2 -25.2,25.2"/>
<text text-anchor="middle" x="2248" y="-1034" font-family="Helvetica,sans-Serif" font-size="20.00">Class Hierarchy: MIN &#45;&gt; sdata&#45;core</text>
<g id="clust1" class="cluster">
<title>cluster_boundary</title>
<path fill="#f2f8ff" stroke="#7aa2d6" stroke-width="1.2" stroke-dasharray="5,2" d="M2497,-224C2497,-224 2754,-224 2754,-224 2760,-224 2766,-230 2766,-236 2766,-236 2766,-402 2766,-402 2766,-408 2760,-414 2754,-414 2754,-414 2497,-414 2497,-414 2491,-414 2485,-408 2485,-402 2485,-402 2485,-236 2485,-236 2485,-230 2491,-224 2497,-224"/>
<text text-anchor="middle" x="2625.5" y="-394" font-family="Helvetica,sans-Serif" font-size="20.00">Boundary + sdata children</text>
</g>
<g id="clust2" class="cluster">
<title>cluster_agent</title>
<path fill="#f2f8ff" stroke="#7aa2d6" stroke-width="1.2" stroke-dasharray="5,2" d="M1790,-332C1790,-332 2465,-332 2465,-332 2471,-332 2477,-338 2477,-344 2477,-344 2477,-510 2477,-510 2477,-516 2471,-522 2465,-522 2465,-522 1790,-522 1790,-522 1784,-522 1778,-516 1778,-510 1778,-510 1778,-344 1778,-344 1778,-338 1784,-332 1790,-332"/>
<text text-anchor="middle" x="2127.5" y="-502" font-family="Helvetica,sans-Serif" font-size="20.00">Agent + sdata children</text>
</g>
<g id="clust3" class="cluster">
<title>cluster_data</title>
<path fill="#f2f8ff" stroke="#7aa2d6" stroke-width="1.2" stroke-dasharray="5,2" d="M375,-332C375,-332 1742,-332 1742,-332 1748,-332 1754,-338 1754,-344 1754,-344 1754,-618 1754,-618 1754,-624 1748,-630 1742,-630 1742,-630 375,-630 375,-630 369,-630 363,-624 363,-618 363,-618 363,-344 363,-344 363,-338 369,-332 375,-332"/>
<text text-anchor="middle" x="1058.5" y="-610" font-family="Helvetica,sans-Serif" font-size="20.00">Data + sdata children</text>
</g>
<g id="clust4" class="cluster">
<title>cluster_institutio</title>
<path fill="#faf5ff" stroke="#a48bc9" stroke-width="1.2" stroke-dasharray="5,2" d="M3045,-8C3045,-8 4178,-8 4178,-8 4184,-8 4190,-14 4190,-20 4190,-20 4190,-294 4190,-294 4190,-300 4184,-306 4178,-306 4178,-306 3045,-306 3045,-306 3039,-306 3033,-300 3033,-294 3033,-294 3033,-20 3033,-20 3033,-14 3039,-8 3045,-8"/>
<text text-anchor="middle" x="3611.5" y="-286" font-family="Helvetica,sans-Serif" font-size="20.00">Institutio + sdata children</text>
</g>
<g id="clust5" class="cluster">
<title>cluster_lex</title>
<path fill="#faf5ff" stroke="#a48bc9" stroke-width="1.2" stroke-dasharray="5,2" d="M3659,-548C3659,-548 3855,-548 3855,-548 3861,-548 3867,-554 3867,-560 3867,-560 3867,-726 3867,-726 3867,-732 3861,-738 3855,-738 3855,-738 3659,-738 3659,-738 3653,-738 3647,-732 3647,-726 3647,-726 3647,-560 3647,-560 3647,-554 3653,-548 3659,-548"/>
<text text-anchor="middle" x="3757" y="-718" font-family="Helvetica,sans-Serif" font-size="20.00">Lex + sdata children</text>
</g>
<g id="clust6" class="cluster">
<title>cluster_metaterm</title>
<path fill="#faf5ff" stroke="#a48bc9" stroke-width="1.2" stroke-dasharray="5,2" d="M4218,-116C4218,-116 4476,-116 4476,-116 4482,-116 4488,-122 4488,-128 4488,-128 4488,-186 4488,-186 4488,-192 4482,-198 4476,-198 4476,-198 4218,-198 4218,-198 4212,-198 4206,-192 4206,-186 4206,-186 4206,-128 4206,-128 4206,-122 4212,-116 4218,-116"/>
<text text-anchor="middle" x="4347" y="-178" font-family="Helvetica,sans-Serif" font-size="20.00">MetaTerm + sdata children</text>
</g>
<g id="clust7" class="cluster">
<title>cluster_norma</title>
<path fill="#faf5ff" stroke="#a48bc9" stroke-width="1.2" stroke-dasharray="5,2" d="M2786,-224C2786,-224 3013,-224 3013,-224 3019,-224 3025,-230 3025,-236 3025,-236 3025,-402 3025,-402 3025,-408 3019,-414 3013,-414 3013,-414 2786,-414 2786,-414 2780,-414 2774,-408 2774,-402 2774,-402 2774,-236 2774,-236 2774,-230 2780,-224 2786,-224"/>
<text text-anchor="middle" x="2899.5" y="-394" font-family="Helvetica,sans-Serif" font-size="20.00">Norma + sdata children</text>
</g>
<g id="clust8" class="cluster">
<title>cluster_object</title>
<path fill="#f2f8ff" stroke="#7aa2d6" stroke-width="1.2" stroke-dasharray="5,2" d="M1223,-656C1223,-656 1961,-656 1961,-656 1967,-656 1973,-662 1973,-668 1973,-668 1973,-834 1973,-834 1973,-840 1967,-846 1961,-846 1961,-846 1223,-846 1223,-846 1217,-846 1211,-840 1211,-834 1211,-834 1211,-668 1211,-668 1211,-662 1217,-656 1223,-656"/>
<text text-anchor="middle" x="1592" y="-826" font-family="Helvetica,sans-Serif" font-size="20.00">Object + sdata children</text>
</g>
<g id="clust9" class="cluster">
<title>cluster_ontologyartifact</title>
<path fill="#f2f8ff" stroke="#7aa2d6" stroke-width="1.2" stroke-dasharray="5,2" d="M20,-440C20,-440 343,-440 343,-440 349,-440 355,-446 355,-452 355,-452 355,-510 355,-510 355,-516 349,-522 343,-522 343,-522 20,-522 20,-522 14,-522 8,-516 8,-510 8,-510 8,-452 8,-452 8,-446 14,-440 20,-440"/>
<text text-anchor="middle" x="181.5" y="-502" font-family="Helvetica,sans-Serif" font-size="20.00">OntologyArtifact + sdata children</text>
</g>
<g id="clust10" class="cluster">
<title>cluster_possibile</title>
<path fill="#faf5ff" stroke="#a48bc9" stroke-width="1.2" stroke-dasharray="5,2" d="M3045,-332C3045,-332 3291,-332 3291,-332 3297,-332 3303,-338 3303,-344 3303,-344 3303,-510 3303,-510 3303,-516 3297,-522 3291,-522 3291,-522 3045,-522 3045,-522 3039,-522 3033,-516 3033,-510 3033,-510 3033,-344 3033,-344 3033,-338 3039,-332 3045,-332"/>
<text text-anchor="middle" x="3168" y="-502" font-family="Helvetica,sans-Serif" font-size="20.00">Possibile + sdata children</text>
</g>
<g id="clust11" class="cluster">
<title>cluster_process</title>
<path fill="#f2f8ff" stroke="#7aa2d6" stroke-width="1.2" stroke-dasharray="5,2" d="M106,-548C106,-548 343,-548 343,-548 349,-548 355,-554 355,-560 355,-560 355,-726 355,-726 355,-732 349,-738 343,-738 343,-738 106,-738 106,-738 100,-738 94,-732 94,-726 94,-726 94,-560 94,-560 94,-554 100,-548 106,-548"/>
<text text-anchor="middle" x="224.5" y="-718" font-family="Helvetica,sans-Serif" font-size="20.00">Process + sdata children</text>
</g>
<g id="clust12" class="cluster">
<title>cluster_structura</title>
<path fill="#faf5ff" stroke="#a48bc9" stroke-width="1.2" stroke-dasharray="5,2" d="M3373,-440C3373,-440 3627,-440 3627,-440 3633,-440 3639,-446 3639,-452 3639,-452 3639,-618 3639,-618 3639,-624 3633,-630 3627,-630 3627,-630 3373,-630 3373,-630 3367,-630 3361,-624 3361,-618 3361,-618 3361,-452 3361,-452 3361,-446 3367,-440 3373,-440"/>
<text text-anchor="middle" x="3500" y="-610" font-family="Helvetica,sans-Serif" font-size="20.00">Structura + sdata children</text>
</g>
<!-- https://w3id.org/min#Boundary -->
<g id="node1" class="node">
<title>https://w3id.org/min#Boundary</title>
<path fill="#e7f0ff" stroke="#2b6cb0" stroke-width="1.6" d="M2575,-376C2575,-376 2521,-376 2521,-376 2515,-376 2509,-370 2509,-364 2509,-364 2509,-352 2509,-352 2509,-346 2515,-340 2521,-340 2521,-340 2575,-340 2575,-340 2581,-340 2587,-346 2587,-352 2587,-352 2587,-364 2587,-364 2587,-370 2581,-376 2575,-376"/>
<text text-anchor="middle" x="2548" y="-354.9" font-family="Helvetica,sans-Serif" font-size="12.00" fill="#1a365d">Boundary</text>
</g>
<!-- https://w3id.org/sdata/core/Boundary -->
<g id="node2" class="node">
<title>https://w3id.org/sdata/core/Boundary</title>
<path fill="#f8eeff" stroke="#6b46c1" stroke-width="1.6" d="M2575,-268C2575,-268 2521,-268 2521,-268 2515,-268 2509,-262 2509,-256 2509,-256 2509,-244 2509,-244 2509,-238 2515,-232 2521,-232 2521,-232 2575,-232 2575,-232 2581,-232 2587,-238 2587,-244 2587,-244 2587,-256 2587,-256 2587,-262 2581,-268 2575,-268"/>
<text text-anchor="middle" x="2548" y="-246.9" font-family="Helvetica,sans-Serif" font-size="12.00" fill="#44337a">Boundary</text>
</g>
<!-- https://w3id.org/min#Boundary&#45;&gt;https://w3id.org/sdata/core/Boundary -->
<g id="edge7" class="edge">
<title>https://w3id.org/min#Boundary&#45;&gt;https://w3id.org/sdata/core/Boundary</title>
<path fill="none" stroke="#4a5568" stroke-width="1.6" d="M2548,-339.97C2548,-322.99 2548,-296.7 2548,-277.09"/>
<polygon fill="#4a5568" stroke="#4a5568" stroke-width="1.6" points="2550.98,-276.84 2548,-268.34 2545.03,-276.84 2550.98,-276.84"/>
</g>
<!-- https://w3id.org/min#Agent -->
<g id="node3" class="node">
<title>https://w3id.org/min#Agent</title>
<path fill="#e7f0ff" stroke="#2b6cb0" stroke-width="1.6" d="M2124,-484C2124,-484 2092,-484 2092,-484 2086,-484 2080,-478 2080,-472 2080,-472 2080,-460 2080,-460 2080,-454 2086,-448 2092,-448 2092,-448 2124,-448 2124,-448 2130,-448 2136,-454 2136,-460 2136,-460 2136,-472 2136,-472 2136,-478 2130,-484 2124,-484"/>
<text text-anchor="middle" x="2108" y="-462.9" font-family="Helvetica,sans-Serif" font-size="12.00" fill="#1a365d">Agent</text>
</g>
<!-- https://w3id.org/min#Agent&#45;&gt;https://w3id.org/min#Boundary -->
<!-- https://w3id.org/sdata/core/EnvironmentAgent -->
<g id="node4" class="node">
<title>https://w3id.org/sdata/core/EnvironmentAgent</title>
<path fill="#f8eeff" stroke="#6b46c1" stroke-width="1.6" d="M2163.5,-376C2163.5,-376 2052.5,-376 2052.5,-376 2046.5,-376 2040.5,-370 2040.5,-364 2040.5,-364 2040.5,-352 2040.5,-352 2040.5,-346 2046.5,-340 2052.5,-340 2052.5,-340 2163.5,-340 2163.5,-340 2169.5,-340 2175.5,-346 2175.5,-352 2175.5,-352 2175.5,-364 2175.5,-364 2175.5,-370 2169.5,-376 2163.5,-376"/>
<text text-anchor="middle" x="2108" y="-354.9" font-family="Helvetica,sans-Serif" font-size="12.00" fill="#44337a">Environment Agent</text>
</g>
<!-- https://w3id.org/min#Agent&#45;&gt;https://w3id.org/sdata/core/EnvironmentAgent -->
<g id="edge2" class="edge">
<title>https://w3id.org/min#Agent&#45;&gt;https://w3id.org/sdata/core/EnvironmentAgent</title>
<path fill="none" stroke="#4a5568" stroke-width="1.6" d="M2108,-447.97C2108,-430.99 2108,-404.7 2108,-385.09"/>
<polygon fill="#4a5568" stroke="#4a5568" stroke-width="1.6" points="2110.98,-384.84 2108,-376.34 2105.03,-384.84 2110.98,-384.84"/>
</g>
<!-- https://w3id.org/sdata/core/HardwareAgent -->
<g id="node5" class="node">
<title>https://w3id.org/sdata/core/HardwareAgent</title>
<path fill="#f8eeff" stroke="#6b46c1" stroke-width="1.6" d="M2320.5,-376C2320.5,-376 2227.5,-376 2227.5,-376 2221.5,-376 2215.5,-370 2215.5,-364 2215.5,-364 2215.5,-352 2215.5,-352 2215.5,-346 2221.5,-340 2227.5,-340 2227.5,-340 2320.5,-340 2320.5,-340 2326.5,-340 2332.5,-346 2332.5,-352 2332.5,-352 2332.5,-364 2332.5,-364 2332.5,-370 2326.5,-376 2320.5,-376"/>
<text text-anchor="middle" x="2274" y="-354.9" font-family="Helvetica,sans-Serif" font-size="12.00" fill="#44337a">Hardware Agent</text>
</g>
<!-- https://w3id.org/min#Agent&#45;&gt;https://w3id.org/sdata/core/HardwareAgent -->
<g id="edge3" class="edge">
<title>https://w3id.org/min#Agent&#45;&gt;https://w3id.org/sdata/core/HardwareAgent</title>
<path fill="none" stroke="#4a5568" stroke-width="1.6" d="M2136.12,-449.54C2153.59,-439.74 2176.37,-426.57 2196,-414 2212.04,-403.73 2229.4,-391.59 2243.67,-381.33"/>
<polygon fill="#4a5568" stroke="#4a5568" stroke-width="1.6" points="2245.68,-383.55 2250.82,-376.16 2242.19,-378.73 2245.68,-383.55"/>
</g>
<!-- https://w3id.org/sdata/core/Organization -->
<g id="node6" class="node">
<title>https://w3id.org/sdata/core/Organization</title>
<path fill="#f8eeff" stroke="#6b46c1" stroke-width="1.6" d="M2457,-376C2457,-376 2385,-376 2385,-376 2379,-376 2373,-370 2373,-364 2373,-364 2373,-352 2373,-352 2373,-346 2379,-340 2385,-340 2385,-340 2457,-340 2457,-340 2463,-340 2469,-346 2469,-352 2469,-352 2469,-364 2469,-364 2469,-370 2463,-376 2457,-376"/>
<text text-anchor="middle" x="2421" y="-354.9" font-family="Helvetica,sans-Serif" font-size="12.00" fill="#44337a">Organization</text>
</g>
<!-- https://w3id.org/min#Agent&#45;&gt;https://w3id.org/sdata/core/Organization -->
<g id="edge4" class="edge">
<title>https://w3id.org/min#Agent&#45;&gt;https://w3id.org/sdata/core/Organization</title>
<path fill="none" stroke="#4a5568" stroke-width="1.6" d="M2136.18,-463.44C2183.21,-459.91 2279.78,-448.71 2353,-414 2369.55,-406.15 2385.61,-393.48 2397.96,-382.28"/>
<polygon fill="#4a5568" stroke="#4a5568" stroke-width="1.6" points="2400.24,-384.23 2404.42,-376.25 2396.17,-379.88 2400.24,-384.23"/>
</g>
<!-- https://w3id.org/sdata/core/Person -->
<g id="node7" class="node">
<title>https://w3id.org/sdata/core/Person</title>
<path fill="#f8eeff" stroke="#6b46c1" stroke-width="1.6" d="M1835.5,-376C1835.5,-376 1798.5,-376 1798.5,-376 1792.5,-376 1786.5,-370 1786.5,-364 1786.5,-364 1786.5,-352 1786.5,-352 1786.5,-346 1792.5,-340 1798.5,-340 1798.5,-340 1835.5,-340 1835.5,-340 1841.5,-340 1847.5,-346 1847.5,-352 1847.5,-352 1847.5,-364 1847.5,-364 1847.5,-370 1841.5,-376 1835.5,-376"/>
<text text-anchor="middle" x="1817" y="-354.9" font-family="Helvetica,sans-Serif" font-size="12.00" fill="#44337a">Person</text>
</g>
<!-- https://w3id.org/min#Agent&#45;&gt;https://w3id.org/sdata/core/Person -->
<g id="edge5" class="edge">
<title>https://w3id.org/min#Agent&#45;&gt;https://w3id.org/sdata/core/Person</title>
<path fill="none" stroke="#4a5568" stroke-width="1.6" d="M2079.81,-464.44C2032.89,-462.36 1937.09,-453.22 1868,-414 1854.62,-406.41 1842.73,-394.11 1833.8,-383.07"/>
<polygon fill="#4a5568" stroke="#4a5568" stroke-width="1.6" points="1835.93,-380.96 1828.38,-376.06 1831.23,-384.6 1835.93,-380.96"/>
</g>
<!-- https://w3id.org/sdata/core/SoftwareAgent -->
<g id="node8" class="node">
<title>https://w3id.org/sdata/core/SoftwareAgent</title>
<path fill="#f8eeff" stroke="#6b46c1" stroke-width="1.6" d="M1988,-376C1988,-376 1900,-376 1900,-376 1894,-376 1888,-370 1888,-364 1888,-364 1888,-352 1888,-352 1888,-346 1894,-340 1900,-340 1900,-340 1988,-340 1988,-340 1994,-340 2000,-346 2000,-352 2000,-352 2000,-364 2000,-364 2000,-370 1994,-376 1988,-376"/>
<text text-anchor="middle" x="1944" y="-354.9" font-family="Helvetica,sans-Serif" font-size="12.00" fill="#44337a">Software Agent</text>
</g>
<!-- https://w3id.org/min#Agent&#45;&gt;https://w3id.org/sdata/core/SoftwareAgent -->
<g id="edge6" class="edge">
<title>https://w3id.org/min#Agent&#45;&gt;https://w3id.org/sdata/core/SoftwareAgent</title>
<path fill="none" stroke="#4a5568" stroke-width="1.6" d="M2079.79,-449.32C2062.57,-439.54 2040.24,-426.48 2021,-414 2005.15,-403.73 1988.01,-391.59 1973.93,-381.33"/>
<polygon fill="#4a5568" stroke="#4a5568" stroke-width="1.6" points="1975.49,-378.78 1966.87,-376.16 1971.97,-383.58 1975.49,-378.78"/>
</g>
<!-- https://w3id.org/min#Data -->
<g id="node9" class="node">
<title>https://w3id.org/min#Data</title>
<path fill="#e7f0ff" stroke="#2b6cb0" stroke-width="1.6" d="M1190,-592C1190,-592 1160,-592 1160,-592 1154,-592 1148,-586 1148,-580 1148,-580 1148,-568 1148,-568 1148,-562 1154,-556 1160,-556 1160,-556 1190,-556 1190,-556 1196,-556 1202,-562 1202,-568 1202,-568 1202,-580 1202,-580 1202,-586 1196,-592 1190,-592"/>
<text text-anchor="middle" x="1175" y="-570.9" font-family="Helvetica,sans-Serif" font-size="12.00" fill="#1a365d">Data</text>
</g>
<!-- https://w3id.org/min#Data&#45;&gt;https://w3id.org/min#Agent -->
<!-- https://w3id.org/sdata/core/Data -->
<g id="node12" class="node">
<title>https://w3id.org/sdata/core/Data</title>
<path fill="#f8eeff" stroke="#6b46c1" stroke-width="1.6" d="M1190,-484C1190,-484 1160,-484 1160,-484 1154,-484 1148,-478 1148,-472 1148,-472 1148,-460 1148,-460 1148,-454 1154,-448 1160,-448 1160,-448 1190,-448 1190,-448 1196,-448 1202,-454 1202,-460 1202,-460 1202,-472 1202,-472 1202,-478 1196,-484 1190,-484"/>
<text text-anchor="middle" x="1175" y="-462.9" font-family="Helvetica,sans-Serif" font-size="12.00" fill="#44337a">Data</text>
</g>
<!-- https://w3id.org/min#Data&#45;&gt;https://w3id.org/sdata/core/Data -->
<g id="edge10" class="edge">
<title>https://w3id.org/min#Data&#45;&gt;https://w3id.org/sdata/core/Data</title>
<path fill="none" stroke="#4a5568" stroke-width="1.6" d="M1175,-555.97C1175,-538.99 1175,-512.7 1175,-493.09"/>
<polygon fill="#4a5568" stroke="#4a5568" stroke-width="1.6" points="1177.98,-492.84 1175,-484.34 1172.03,-492.84 1177.98,-492.84"/>
</g>
<!-- https://w3id.org/min#OntologyArtifact -->
<g id="node52" class="node">
<title>https://w3id.org/min#OntologyArtifact</title>
<path fill="#e7f0ff" stroke="#2b6cb0" stroke-width="1.6" d="M334.5,-484C334.5,-484 235.5,-484 235.5,-484 229.5,-484 223.5,-478 223.5,-472 223.5,-472 223.5,-460 223.5,-460 223.5,-454 229.5,-448 235.5,-448 235.5,-448 334.5,-448 334.5,-448 340.5,-448 346.5,-454 346.5,-460 346.5,-460 346.5,-472 346.5,-472 346.5,-478 340.5,-484 334.5,-484"/>
<text text-anchor="middle" x="285" y="-462.9" font-family="Helvetica,sans-Serif" font-size="12.00" fill="#1a365d">Ontology Artifact</text>
</g>
<!-- https://w3id.org/min#Data&#45;&gt;https://w3id.org/min#OntologyArtifact -->
<g id="edge9" class="edge">
<title>https://w3id.org/min#Data&#45;&gt;https://w3id.org/min#OntologyArtifact</title>
<path fill="none" stroke="#4a5568" stroke-width="1.6" d="M1147.78,-572.29C1013.86,-568.69 428.45,-551.36 353,-522 335.29,-515.11 318.64,-501.81 306.25,-490.01"/>
<polygon fill="#4a5568" stroke="#4a5568" stroke-width="1.6" points="308.31,-487.87 300.17,-484.02 304.14,-492.11 308.31,-487.87"/>
</g>
<!-- https://w3id.org/sdata/core/BillOfMaterials -->
<g id="node10" class="node">
<title>https://w3id.org/sdata/core/BillOfMaterials</title>
<path fill="#f8eeff" stroke="#6b46c1" stroke-width="1.6" d="M848,-376C848,-376 760,-376 760,-376 754,-376 748,-370 748,-364 748,-364 748,-352 748,-352 748,-346 754,-340 760,-340 760,-340 848,-340 848,-340 854,-340 860,-346 860,-352 860,-352 860,-364 860,-364 860,-370 854,-376 848,-376"/>
<text text-anchor="middle" x="804" y="-354.9" font-family="Helvetica,sans-Serif" font-size="12.00" fill="#44337a">Bill of Materials</text>
</g>
<!-- https://w3id.org/sdata/core/CryptographicKey -->
<g id="node11" class="node">
<title>https://w3id.org/sdata/core/CryptographicKey</title>
<path fill="#f8eeff" stroke="#6b46c1" stroke-width="1.6" d="M1019.5,-376C1019.5,-376 912.5,-376 912.5,-376 906.5,-376 900.5,-370 900.5,-364 900.5,-364 900.5,-352 900.5,-352 900.5,-346 906.5,-340 912.5,-340 912.5,-340 1019.5,-340 1019.5,-340 1025.5,-340 1031.5,-346 1031.5,-352 1031.5,-352 1031.5,-364 1031.5,-364 1031.5,-370 1025.5,-376 1019.5,-376"/>
<text text-anchor="middle" x="966" y="-354.9" font-family="Helvetica,sans-Serif" font-size="12.00" fill="#44337a">Cryptographic Key</text>
</g>
<!-- https://w3id.org/sdata/core/Data&#45;&gt;https://w3id.org/sdata/core/BillOfMaterials -->
<g id="edge54" class="edge">
<title>https://w3id.org/sdata/core/Data&#45;&gt;https://w3id.org/sdata/core/BillOfMaterials</title>
<path fill="none" stroke="#4a5568" stroke-width="1.6" d="M1147.94,-464.3C1094.75,-462.07 973.72,-452.77 881,-414 862.24,-406.16 843.63,-393.05 829.4,-381.59"/>
<polygon fill="#4a5568" stroke="#4a5568" stroke-width="1.6" points="831.24,-379.25 822.79,-376.13 827.45,-383.84 831.24,-379.25"/>
</g>
<!-- https://w3id.org/sdata/core/Data&#45;&gt;https://w3id.org/sdata/core/CryptographicKey -->
<g id="edge55" class="edge">
<title>https://w3id.org/sdata/core/Data&#45;&gt;https://w3id.org/sdata/core/CryptographicKey</title>
<path fill="none" stroke="#4a5568" stroke-width="1.6" d="M1147.99,-455.37C1122.65,-445.97 1083.97,-430.69 1052,-414 1033.2,-404.19 1013.18,-391.53 997.19,-380.83"/>
<polygon fill="#4a5568" stroke="#4a5568" stroke-width="1.6" points="998.86,-378.37 990.15,-376.07 995.53,-383.3 998.86,-378.37"/>
</g>
<!-- https://w3id.org/sdata/core/DigitalTwin -->
<g id="node13" class="node">
<title>https://w3id.org/sdata/core/DigitalTwin</title>
<path fill="#f8eeff" stroke="#6b46c1" stroke-width="1.6" d="M1146.5,-376C1146.5,-376 1083.5,-376 1083.5,-376 1077.5,-376 1071.5,-370 1071.5,-364 1071.5,-364 1071.5,-352 1071.5,-352 1071.5,-346 1077.5,-340 1083.5,-340 1083.5,-340 1146.5,-340 1146.5,-340 1152.5,-340 1158.5,-346 1158.5,-352 1158.5,-352 1158.5,-364 1158.5,-364 1158.5,-370 1152.5,-376 1146.5,-376"/>
<text text-anchor="middle" x="1115" y="-354.9" font-family="Helvetica,sans-Serif" font-size="12.00" fill="#44337a">Digital Twin</text>
</g>
<!-- https://w3id.org/sdata/core/Data&#45;&gt;https://w3id.org/sdata/core/DigitalTwin -->
<g id="edge56" class="edge">
<title>https://w3id.org/sdata/core/Data&#45;&gt;https://w3id.org/sdata/core/DigitalTwin</title>
<path fill="none" stroke="#4a5568" stroke-width="1.6" d="M1165.36,-447.97C1155.53,-430.61 1140.19,-403.5 1129.02,-383.77"/>
<polygon fill="#4a5568" stroke="#4a5568" stroke-width="1.6" points="1131.59,-382.27 1124.82,-376.34 1126.41,-385.2 1131.59,-382.27"/>
</g>
<!-- https://w3id.org/sdata/core/Identifier -->
<g id="node14" class="node">
<title>https://w3id.org/sdata/core/Identifier</title>
<path fill="#f8eeff" stroke="#6b46c1" stroke-width="1.6" d="M1261.5,-376C1261.5,-376 1210.5,-376 1210.5,-376 1204.5,-376 1198.5,-370 1198.5,-364 1198.5,-364 1198.5,-352 1198.5,-352 1198.5,-346 1204.5,-340 1210.5,-340 1210.5,-340 1261.5,-340 1261.5,-340 1267.5,-340 1273.5,-346 1273.5,-352 1273.5,-352 1273.5,-364 1273.5,-364 1273.5,-370 1267.5,-376 1261.5,-376"/>
<text text-anchor="middle" x="1236" y="-354.9" font-family="Helvetica,sans-Serif" font-size="12.00" fill="#44337a">Identifier</text>
</g>
<!-- https://w3id.org/sdata/core/Data&#45;&gt;https://w3id.org/sdata/core/Identifier -->
<g id="edge57" class="edge">
<title>https://w3id.org/sdata/core/Data&#45;&gt;https://w3id.org/sdata/core/Identifier</title>
<path fill="none" stroke="#4a5568" stroke-width="1.6" d="M1184.8,-447.97C1194.79,-430.61 1210.39,-403.5 1221.75,-383.77"/>
<polygon fill="#4a5568" stroke="#4a5568" stroke-width="1.6" points="1224.36,-385.19 1226.02,-376.34 1219.2,-382.22 1224.36,-385.19"/>
</g>
<!-- https://w3id.org/sdata/core/ProductPassport -->
<g id="node15" class="node">
<title>https://w3id.org/sdata/core/ProductPassport</title>
<path fill="#f8eeff" stroke="#6b46c1" stroke-width="1.6" d="M1422,-376C1422,-376 1326,-376 1326,-376 1320,-376 1314,-370 1314,-364 1314,-364 1314,-352 1314,-352 1314,-346 1320,-340 1326,-340 1326,-340 1422,-340 1422,-340 1428,-340 1434,-346 1434,-352 1434,-352 1434,-364 1434,-364 1434,-370 1428,-376 1422,-376"/>
<text text-anchor="middle" x="1374" y="-354.9" font-family="Helvetica,sans-Serif" font-size="12.00" fill="#44337a">Product Passport</text>
</g>
<!-- https://w3id.org/sdata/core/Data&#45;&gt;https://w3id.org/sdata/core/ProductPassport -->
<g id="edge58" class="edge">
<title>https://w3id.org/sdata/core/Data&#45;&gt;https://w3id.org/sdata/core/ProductPassport</title>
<path fill="none" stroke="#4a5568" stroke-width="1.6" d="M1202.18,-455.12C1226.78,-445.77 1263.68,-430.7 1294,-414 1311.51,-404.35 1329.96,-391.84 1344.73,-381.19"/>
<polygon fill="#4a5568" stroke="#4a5568" stroke-width="1.6" points="1346.55,-383.54 1351.66,-376.13 1343.04,-378.74 1346.55,-383.54"/>
</g>
<!-- https://w3id.org/sdata/core/Proof -->
<g id="node16" class="node">
<title>https://w3id.org/sdata/core/Proof</title>
<path fill="#f8eeff" stroke="#6b46c1" stroke-width="1.6" d="M1516,-376C1516,-376 1486,-376 1486,-376 1480,-376 1474,-370 1474,-364 1474,-364 1474,-352 1474,-352 1474,-346 1480,-340 1486,-340 1486,-340 1516,-340 1516,-340 1522,-340 1528,-346 1528,-352 1528,-352 1528,-364 1528,-364 1528,-370 1522,-376 1516,-376"/>
<text text-anchor="middle" x="1501" y="-354.9" font-family="Helvetica,sans-Serif" font-size="12.00" fill="#44337a">Proof</text>
</g>
<!-- https://w3id.org/sdata/core/Data&#45;&gt;https://w3id.org/sdata/core/Proof -->
<g id="edge59" class="edge">
<title>https://w3id.org/sdata/core/Data&#45;&gt;https://w3id.org/sdata/core/Proof</title>
<path fill="none" stroke="#4a5568" stroke-width="1.6" d="M1202,-465.86C1254.28,-466.34 1371.42,-461.53 1454,-414 1466.86,-406.6 1477.86,-394.32 1485.98,-383.24"/>
<polygon fill="#4a5568" stroke="#4a5568" stroke-width="1.6" points="1488.47,-384.86 1490.88,-376.19 1483.58,-381.46 1488.47,-384.86"/>
</g>
<!-- https://w3id.org/sdata/core/Result -->
<g id="node17" class="node">
<title>https://w3id.org/sdata/core/Result</title>
<path fill="#f8eeff" stroke="#6b46c1" stroke-width="1.6" d="M1613.5,-376C1613.5,-376 1580.5,-376 1580.5,-376 1574.5,-376 1568.5,-370 1568.5,-364 1568.5,-364 1568.5,-352 1568.5,-352 1568.5,-346 1574.5,-340 1580.5,-340 1580.5,-340 1613.5,-340 1613.5,-340 1619.5,-340 1625.5,-346 1625.5,-352 1625.5,-352 1625.5,-364 1625.5,-364 1625.5,-370 1619.5,-376 1613.5,-376"/>
<text text-anchor="middle" x="1597" y="-354.9" font-family="Helvetica,sans-Serif" font-size="12.00" fill="#44337a">Result</text>
</g>
<!-- https://w3id.org/sdata/core/Data&#45;&gt;https://w3id.org/sdata/core/Result -->
<g id="edge60" class="edge">
<title>https://w3id.org/sdata/core/Data&#45;&gt;https://w3id.org/sdata/core/Result</title>
<path fill="none" stroke="#4a5568" stroke-width="1.6" d="M1202.01,-463.72C1277.25,-459.78 1487.72,-446.11 1548,-414 1561.43,-406.85 1572.95,-394.47 1581.45,-383.26"/>
<polygon fill="#4a5568" stroke="#4a5568" stroke-width="1.6" points="1584.03,-384.77 1586.58,-376.14 1579.2,-381.29 1584.03,-384.77"/>
</g>
<!-- https://w3id.org/sdata/core/ResultFile -->
<g id="node18" class="node">
<title>https://w3id.org/sdata/core/ResultFile</title>
<path fill="#f8eeff" stroke="#6b46c1" stroke-width="1.6" d="M1734,-376C1734,-376 1678,-376 1678,-376 1672,-376 1666,-370 1666,-364 1666,-364 1666,-352 1666,-352 1666,-346 1672,-340 1678,-340 1678,-340 1734,-340 1734,-340 1740,-340 1746,-346 1746,-352 1746,-352 1746,-364 1746,-364 1746,-370 1740,-376 1734,-376"/>
<text text-anchor="middle" x="1706" y="-354.9" font-family="Helvetica,sans-Serif" font-size="12.00" fill="#44337a">Result File</text>
</g>
<!-- https://w3id.org/sdata/core/Data&#45;&gt;https://w3id.org/sdata/core/ResultFile -->
<g id="edge61" class="edge">
<title>https://w3id.org/sdata/core/Data&#45;&gt;https://w3id.org/sdata/core/ResultFile</title>
<path fill="none" stroke="#4a5568" stroke-width="1.6" d="M1202.09,-464.27C1289.92,-461.57 1565.73,-450.32 1646,-414 1661.71,-406.89 1676.08,-394.06 1686.81,-382.58"/>
<polygon fill="#4a5568" stroke="#4a5568" stroke-width="1.6" points="1689.23,-384.34 1692.7,-376.03 1684.8,-380.36 1689.23,-384.34"/>
</g>
<!-- https://w3id.org/sdata/core/VerifiableCredential -->
<g id="node19" class="node">
<title>https://w3id.org/sdata/core/VerifiableCredential</title>
<path fill="#f8eeff" stroke="#6b46c1" stroke-width="1.6" d="M500.5,-376C500.5,-376 383.5,-376 383.5,-376 377.5,-376 371.5,-370 371.5,-364 371.5,-364 371.5,-352 371.5,-352 371.5,-346 377.5,-340 383.5,-340 383.5,-340 500.5,-340 500.5,-340 506.5,-340 512.5,-346 512.5,-352 512.5,-352 512.5,-364 512.5,-364 512.5,-370 506.5,-376 500.5,-376"/>
<text text-anchor="middle" x="442" y="-354.9" font-family="Helvetica,sans-Serif" font-size="12.00" fill="#44337a">Verifiable Credential</text>
</g>
<!-- https://w3id.org/sdata/core/Data&#45;&gt;https://w3id.org/sdata/core/VerifiableCredential -->
<g id="edge62" class="edge">
<title>https://w3id.org/sdata/core/Data&#45;&gt;https://w3id.org/sdata/core/VerifiableCredential</title>
<path fill="none" stroke="#4a5568" stroke-width="1.6" d="M1147.79,-464.5C1040.95,-462.29 650.21,-451.73 533,-414 510.55,-406.77 487.85,-393.06 470.73,-381.14"/>
<polygon fill="#4a5568" stroke="#4a5568" stroke-width="1.6" points="472.4,-378.68 463.76,-376.16 468.95,-383.52 472.4,-378.68"/>
</g>
<!-- https://w3id.org/sdata/core/VerifiablePresentation -->
<g id="node20" class="node">
<title>https://w3id.org/sdata/core/VerifiablePresentation</title>
<path fill="#f8eeff" stroke="#6b46c1" stroke-width="1.6" d="M695.5,-376C695.5,-376 564.5,-376 564.5,-376 558.5,-376 552.5,-370 552.5,-364 552.5,-364 552.5,-352 552.5,-352 552.5,-346 558.5,-340 564.5,-340 564.5,-340 695.5,-340 695.5,-340 701.5,-340 707.5,-346 707.5,-352 707.5,-352 707.5,-364 707.5,-364 707.5,-370 701.5,-376 695.5,-376"/>
<text text-anchor="middle" x="630" y="-354.9" font-family="Helvetica,sans-Serif" font-size="12.00" fill="#44337a">Verifiable Presentation</text>
</g>
<!-- https://w3id.org/sdata/core/Data&#45;&gt;https://w3id.org/sdata/core/VerifiablePresentation -->
<g id="edge63" class="edge">
<title>https://w3id.org/sdata/core/Data&#45;&gt;https://w3id.org/sdata/core/VerifiablePresentation</title>
<path fill="none" stroke="#4a5568" stroke-width="1.6" d="M1147.77,-465.59C1076.77,-466.34 880.92,-463.41 728,-414 704.45,-406.39 680.17,-392.81 661.67,-381.05"/>
<polygon fill="#4a5568" stroke="#4a5568" stroke-width="1.6" points="662.86,-378.28 654.11,-376.15 659.62,-383.27 662.86,-378.28"/>
</g>
<!-- https://w3id.org/min#Institutio -->
<g id="node21" class="node">
<title>https://w3id.org/min#Institutio</title>
<path fill="#e7f0ff" stroke="#2b6cb0" stroke-width="1.6" d="M3101,-268C3101,-268 3053,-268 3053,-268 3047,-268 3041,-262 3041,-256 3041,-256 3041,-244 3041,-244 3041,-238 3047,-232 3053,-232 3053,-232 3101,-232 3101,-232 3107,-232 3113,-238 3113,-244 3113,-244 3113,-256 3113,-256 3113,-262 3107,-268 3101,-268"/>
<text text-anchor="middle" x="3077" y="-246.9" font-family="Helvetica,sans-Serif" font-size="12.00" fill="#1a365d">Institutio</text>
</g>
<!-- https://w3id.org/sdata/core/Accreditation -->
<g id="node22" class="node">
<title>https://w3id.org/sdata/core/Accreditation</title>
<path fill="#f8eeff" stroke="#6b46c1" stroke-width="1.6" d="M4037.5,-160C4037.5,-160 3962.5,-160 3962.5,-160 3956.5,-160 3950.5,-154 3950.5,-148 3950.5,-148 3950.5,-136 3950.5,-136 3950.5,-130 3956.5,-124 3962.5,-124 3962.5,-124 4037.5,-124 4037.5,-124 4043.5,-124 4049.5,-130 4049.5,-136 4049.5,-136 4049.5,-148 4049.5,-148 4049.5,-154 4043.5,-160 4037.5,-160"/>
<text text-anchor="middle" x="4000" y="-138.9" font-family="Helvetica,sans-Serif" font-size="12.00" fill="#44337a">Accreditation</text>
</g>
<!-- https://w3id.org/min#Institutio&#45;&gt;https://w3id.org/sdata/core/Accreditation -->
<g id="edge20" class="edge">
<title>https://w3id.org/min#Institutio&#45;&gt;https://w3id.org/sdata/core/Accreditation</title>
<path fill="none" stroke="#4a5568" stroke-width="1.6" d="M3113.03,-248.11C3265.45,-244.19 3852.85,-227.29 3930,-198 3948.09,-191.13 3965.22,-177.83 3978.01,-166.03"/>
<polygon fill="#4a5568" stroke="#4a5568" stroke-width="1.6" points="3980.2,-168.06 3984.29,-160.04 3976.09,-163.76 3980.2,-168.06"/>
</g>
<!-- https://w3id.org/sdata/core/Certification -->
<g id="node24" class="node">
<title>https://w3id.org/sdata/core/Certification</title>
<path fill="#f8eeff" stroke="#6b46c1" stroke-width="1.6" d="M4170.5,-160C4170.5,-160 4101.5,-160 4101.5,-160 4095.5,-160 4089.5,-154 4089.5,-148 4089.5,-148 4089.5,-136 4089.5,-136 4089.5,-130 4095.5,-124 4101.5,-124 4101.5,-124 4170.5,-124 4170.5,-124 4176.5,-124 4182.5,-130 4182.5,-136 4182.5,-136 4182.5,-148 4182.5,-148 4182.5,-154 4176.5,-160 4170.5,-160"/>
<text text-anchor="middle" x="4136" y="-138.9" font-family="Helvetica,sans-Serif" font-size="12.00" fill="#44337a">Certification</text>
</g>
<!-- https://w3id.org/min#Institutio&#45;&gt;https://w3id.org/sdata/core/Certification -->
<g id="edge21" class="edge">
<title>https://w3id.org/min#Institutio&#45;&gt;https://w3id.org/sdata/core/Certification</title>
<path fill="none" stroke="#4a5568" stroke-width="1.6" d="M3113.18,-248.49C3281.03,-245.97 3979.58,-233.39 4070,-198 4087.23,-191.26 4103.25,-178.14 4115.2,-166.4"/>
<polygon fill="#4a5568" stroke="#4a5568" stroke-width="1.6" points="4117.58,-168.23 4121.4,-160.08 4113.32,-164.07 4117.58,-168.23"/>
</g>
<!-- https://w3id.org/sdata/core/LegalEntity -->
<g id="node27" class="node">
<title>https://w3id.org/sdata/core/LegalEntity</title>
<path fill="#f8eeff" stroke="#6b46c1" stroke-width="1.6" d="M3119,-160C3119,-160 3053,-160 3053,-160 3047,-160 3041,-154 3041,-148 3041,-148 3041,-136 3041,-136 3041,-130 3047,-124 3053,-124 3053,-124 3119,-124 3119,-124 3125,-124 3131,-130 3131,-136 3131,-136 3131,-148 3131,-148 3131,-154 3125,-160 3119,-160"/>
<text text-anchor="middle" x="3086" y="-138.9" font-family="Helvetica,sans-Serif" font-size="12.00" fill="#44337a">Legal Entity</text>
</g>
<!-- https://w3id.org/min#Institutio&#45;&gt;https://w3id.org/sdata/core/LegalEntity -->
<g id="edge22" class="edge">
<title>https://w3id.org/min#Institutio&#45;&gt;https://w3id.org/sdata/core/LegalEntity</title>
<path fill="none" stroke="#4a5568" stroke-width="1.6" d="M3078.45,-231.97C3079.89,-214.92 3082.14,-188.46 3083.81,-168.82"/>
<polygon fill="#4a5568" stroke="#4a5568" stroke-width="1.6" points="3086.77,-169.06 3084.53,-160.34 3080.84,-168.56 3086.77,-169.06"/>
</g>
<!-- https://w3id.org/sdata/core/LifecyclePhase -->
<g id="node28" class="node">
<title>https://w3id.org/sdata/core/LifecyclePhase</title>
<path fill="#f8eeff" stroke="#6b46c1" stroke-width="1.6" d="M3272.5,-160C3272.5,-160 3183.5,-160 3183.5,-160 3177.5,-160 3171.5,-154 3171.5,-148 3171.5,-148 3171.5,-136 3171.5,-136 3171.5,-130 3177.5,-124 3183.5,-124 3183.5,-124 3272.5,-124 3272.5,-124 3278.5,-124 3284.5,-130 3284.5,-136 3284.5,-136 3284.5,-148 3284.5,-148 3284.5,-154 3278.5,-160 3272.5,-160"/>
<text text-anchor="middle" x="3228" y="-138.9" font-family="Helvetica,sans-Serif" font-size="12.00" fill="#44337a">Lifecycle Phase</text>
</g>
<!-- https://w3id.org/min#Institutio&#45;&gt;https://w3id.org/sdata/core/LifecyclePhase -->
<g id="edge23" class="edge">
<title>https://w3id.org/min#Institutio&#45;&gt;https://w3id.org/sdata/core/LifecyclePhase</title>
<path fill="none" stroke="#4a5568" stroke-width="1.6" d="M3102.08,-231.87C3116.44,-222.02 3134.78,-209.38 3151,-198 3166.23,-187.31 3183.06,-175.32 3197.08,-165.26"/>
<polygon fill="#4a5568" stroke="#4a5568" stroke-width="1.6" points="3198.97,-167.57 3204.14,-160.2 3195.5,-162.74 3198.97,-167.57"/>
</g>
<!-- https://w3id.org/sdata/core/Registry -->
<g id="node33" class="node">
<title>https://w3id.org/sdata/core/Registry</title>
<path fill="#f8eeff" stroke="#6b46c1" stroke-width="1.6" d="M3381.5,-160C3381.5,-160 3336.5,-160 3336.5,-160 3330.5,-160 3324.5,-154 3324.5,-148 3324.5,-148 3324.5,-136 3324.5,-136 3324.5,-130 3330.5,-124 3336.5,-124 3336.5,-124 3381.5,-124 3381.5,-124 3387.5,-124 3393.5,-130 3393.5,-136 3393.5,-136 3393.5,-148 3393.5,-148 3393.5,-154 3387.5,-160 3381.5,-160"/>
<text text-anchor="middle" x="3359" y="-138.9" font-family="Helvetica,sans-Serif" font-size="12.00" fill="#44337a">Registry</text>
</g>
<!-- https://w3id.org/min#Institutio&#45;&gt;https://w3id.org/sdata/core/Registry -->
<g id="edge24" class="edge">
<title>https://w3id.org/min#Institutio&#45;&gt;https://w3id.org/sdata/core/Registry</title>
<path fill="none" stroke="#4a5568" stroke-width="1.6" d="M3113.2,-247.21C3160.15,-243.53 3243.31,-232.29 3305,-198 3318.85,-190.3 3331.44,-177.96 3340.98,-166.91"/>
<polygon fill="#4a5568" stroke="#4a5568" stroke-width="1.6" points="3343.36,-168.69 3346.5,-160.25 3338.78,-164.89 3343.36,-168.69"/>
</g>
<!-- https://w3id.org/sdata/core/Regulation -->
<g id="node34" class="node">
<title>https://w3id.org/sdata/core/Regulation</title>
<path fill="#f8eeff" stroke="#6b46c1" stroke-width="1.6" d="M3506,-160C3506,-160 3446,-160 3446,-160 3440,-160 3434,-154 3434,-148 3434,-148 3434,-136 3434,-136 3434,-130 3440,-124 3446,-124 3446,-124 3506,-124 3506,-124 3512,-124 3518,-130 3518,-136 3518,-136 3518,-148 3518,-148 3518,-154 3512,-160 3506,-160"/>
<text text-anchor="middle" x="3476" y="-138.9" font-family="Helvetica,sans-Serif" font-size="12.00" fill="#44337a">Regulation</text>
</g>
<!-- https://w3id.org/min#Institutio&#45;&gt;https://w3id.org/sdata/core/Regulation -->
<g id="edge25" class="edge">
<title>https://w3id.org/min#Institutio&#45;&gt;https://w3id.org/sdata/core/Regulation</title>
<path fill="none" stroke="#4a5568" stroke-width="1.6" d="M3113.17,-246.13C3188.8,-239.72 3361.01,-222.81 3414,-198 3429.8,-190.6 3444.53,-177.88 3455.67,-166.53"/>
<polygon fill="#4a5568" stroke="#4a5568" stroke-width="1.6" points="3458.11,-168.28 3461.8,-160.06 3453.79,-164.19 3458.11,-168.28"/>
</g>
<!-- https://w3id.org/sdata/core/Specification -->
<g id="node36" class="node">
<title>https://w3id.org/sdata/core/Specification</title>
<path fill="#f8eeff" stroke="#6b46c1" stroke-width="1.6" d="M3643.5,-160C3643.5,-160 3570.5,-160 3570.5,-160 3564.5,-160 3558.5,-154 3558.5,-148 3558.5,-148 3558.5,-136 3558.5,-136 3558.5,-130 3564.5,-124 3570.5,-124 3570.5,-124 3643.5,-124 3643.5,-124 3649.5,-124 3655.5,-130 3655.5,-136 3655.5,-136 3655.5,-148 3655.5,-148 3655.5,-154 3649.5,-160 3643.5,-160"/>
<text text-anchor="middle" x="3607" y="-138.9" font-family="Helvetica,sans-Serif" font-size="12.00" fill="#44337a">Specification</text>
</g>
<!-- https://w3id.org/min#Institutio&#45;&gt;https://w3id.org/sdata/core/Specification -->
<g id="edge26" class="edge">
<title>https://w3id.org/min#Institutio&#45;&gt;https://w3id.org/sdata/core/Specification</title>
<path fill="none" stroke="#4a5568" stroke-width="1.6" d="M3113.08,-247.59C3207.71,-243.49 3461.06,-229.77 3538,-198 3555.6,-190.73 3572.38,-177.55 3584.99,-165.91"/>
<polygon fill="#4a5568" stroke="#4a5568" stroke-width="1.6" points="3587.08,-168.03 3591.18,-160.01 3582.98,-163.72 3587.08,-168.03"/>
</g>
<!-- https://w3id.org/sdata/core/TrustFramework -->
<g id="node37" class="node">
<title>https://w3id.org/sdata/core/TrustFramework</title>
<path fill="#f8eeff" stroke="#6b46c1" stroke-width="1.6" d="M3804,-160C3804,-160 3708,-160 3708,-160 3702,-160 3696,-154 3696,-148 3696,-148 3696,-136 3696,-136 3696,-130 3702,-124 3708,-124 3708,-124 3804,-124 3804,-124 3810,-124 3816,-130 3816,-136 3816,-136 3816,-148 3816,-148 3816,-154 3810,-160 3804,-160"/>
<text text-anchor="middle" x="3756" y="-138.9" font-family="Helvetica,sans-Serif" font-size="12.00" fill="#44337a">Trust Framework</text>
</g>
<!-- https://w3id.org/min#Institutio&#45;&gt;https://w3id.org/sdata/core/TrustFramework -->
<g id="edge27" class="edge">
<title>https://w3id.org/min#Institutio&#45;&gt;https://w3id.org/sdata/core/TrustFramework</title>
<path fill="none" stroke="#4a5568" stroke-width="1.6" d="M3113.16,-248.34C3226.17,-245.89 3571.34,-235.45 3676,-198 3695.91,-190.88 3715.52,-177.52 3730.34,-165.76"/>
<polygon fill="#4a5568" stroke="#4a5568" stroke-width="1.6" points="3732.51,-167.83 3737.22,-160.15 3728.75,-163.22 3732.51,-167.83"/>
</g>
<!-- https://w3id.org/sdata/core/Typus -->
<g id="node38" class="node">
<title>https://w3id.org/sdata/core/Typus</title>
<path fill="#f8eeff" stroke="#6b46c1" stroke-width="1.6" d="M3898,-160C3898,-160 3868,-160 3868,-160 3862,-160 3856,-154 3856,-148 3856,-148 3856,-136 3856,-136 3856,-130 3862,-124 3868,-124 3868,-124 3898,-124 3898,-124 3904,-124 3910,-130 3910,-136 3910,-136 3910,-148 3910,-148 3910,-154 3904,-160 3898,-160"/>
<text text-anchor="middle" x="3883" y="-138.9" font-family="Helvetica,sans-Serif" font-size="12.00" fill="#44337a">Typus</text>
</g>
<!-- https://w3id.org/min#Institutio&#45;&gt;https://w3id.org/sdata/core/Typus -->
<g id="edge28" class="edge">
<title>https://w3id.org/min#Institutio&#45;&gt;https://w3id.org/sdata/core/Typus</title>
<path fill="none" stroke="#4a5568" stroke-width="1.6" d="M3113.47,-248.2C3256.03,-244.87 3771.01,-230.63 3836,-198 3849.44,-191.25 3860.59,-178.78 3868.66,-167.41"/>
<polygon fill="#4a5568" stroke="#4a5568" stroke-width="1.6" points="3871.24,-168.9 3873.5,-160.18 3866.3,-165.59 3871.24,-168.9"/>
</g>
<!-- https://w3id.org/min#MetaTerm -->
<g id="node41" class="node">
<title>https://w3id.org/min#MetaTerm</title>
<path fill="#e7f0ff" stroke="#2b6cb0" stroke-width="1.6" d="M4295,-160C4295,-160 4235,-160 4235,-160 4229,-160 4223,-154 4223,-148 4223,-148 4223,-136 4223,-136 4223,-130 4229,-124 4235,-124 4235,-124 4295,-124 4295,-124 4301,-124 4307,-130 4307,-136 4307,-136 4307,-148 4307,-148 4307,-154 4301,-160 4295,-160"/>
<text text-anchor="middle" x="4265" y="-138.9" font-family="Helvetica,sans-Serif" font-size="12.00" fill="#1a365d">Meta Term</text>
</g>
<!-- https://w3id.org/min#Institutio&#45;&gt;https://w3id.org/min#MetaTerm -->
<g id="edge19" class="edge">
<title>https://w3id.org/min#Institutio&#45;&gt;https://w3id.org/min#MetaTerm</title>
<path fill="none" stroke="#4a5568" stroke-width="1.6" d="M3113.3,-248.74C3294.54,-247.25 4096.95,-238.42 4200,-198 4217.07,-191.3 4232.86,-178.19 4244.6,-166.44"/>
<polygon fill="#4a5568" stroke="#4a5568" stroke-width="1.6" points="4246.94,-168.3 4250.69,-160.11 4242.65,-164.17 4246.94,-168.3"/>
</g>
<!-- https://w3id.org/sdata/core/BoundaryType -->
<g id="node23" class="node">
<title>https://w3id.org/sdata/core/BoundaryType</title>
<path fill="#f8eeff" stroke="#6b46c1" stroke-width="1.6" d="M3189.5,-52C3189.5,-52 3104.5,-52 3104.5,-52 3098.5,-52 3092.5,-46 3092.5,-40 3092.5,-40 3092.5,-28 3092.5,-28 3092.5,-22 3098.5,-16 3104.5,-16 3104.5,-16 3189.5,-16 3189.5,-16 3195.5,-16 3201.5,-22 3201.5,-28 3201.5,-28 3201.5,-40 3201.5,-40 3201.5,-46 3195.5,-52 3189.5,-52"/>
<text text-anchor="middle" x="3147" y="-30.9" font-family="Helvetica,sans-Serif" font-size="12.00" fill="#44337a">Boundary Type</text>
</g>
<!-- https://w3id.org/sdata/core/DataFormat -->
<g id="node25" class="node">
<title>https://w3id.org/sdata/core/DataFormat</title>
<path fill="#f8eeff" stroke="#6b46c1" stroke-width="1.6" d="M3326,-52C3326,-52 3254,-52 3254,-52 3248,-52 3242,-46 3242,-40 3242,-40 3242,-28 3242,-28 3242,-22 3248,-16 3254,-16 3254,-16 3326,-16 3326,-16 3332,-16 3338,-22 3338,-28 3338,-28 3338,-40 3338,-40 3338,-46 3332,-52 3326,-52"/>
<text text-anchor="middle" x="3290" y="-30.9" font-family="Helvetica,sans-Serif" font-size="12.00" fill="#44337a">Data Format</text>
</g>
<!-- https://w3id.org/sdata/core/HardwareType -->
<g id="node26" class="node">
<title>https://w3id.org/sdata/core/HardwareType</title>
<path fill="#f8eeff" stroke="#6b46c1" stroke-width="1.6" d="M3475.5,-52C3475.5,-52 3390.5,-52 3390.5,-52 3384.5,-52 3378.5,-46 3378.5,-40 3378.5,-40 3378.5,-28 3378.5,-28 3378.5,-22 3384.5,-16 3390.5,-16 3390.5,-16 3475.5,-16 3475.5,-16 3481.5,-16 3487.5,-22 3487.5,-28 3487.5,-28 3487.5,-40 3487.5,-40 3487.5,-46 3481.5,-52 3475.5,-52"/>
<text text-anchor="middle" x="3433" y="-30.9" font-family="Helvetica,sans-Serif" font-size="12.00" fill="#44337a">Hardware Type</text>
</g>
<!-- https://w3id.org/sdata/core/MaterialGrade -->
<g id="node29" class="node">
<title>https://w3id.org/sdata/core/MaterialGrade</title>
<path fill="#f8eeff" stroke="#6b46c1" stroke-width="1.6" d="M3626,-52C3626,-52 3540,-52 3540,-52 3534,-52 3528,-46 3528,-40 3528,-40 3528,-28 3528,-28 3528,-22 3534,-16 3540,-16 3540,-16 3626,-16 3626,-16 3632,-16 3638,-22 3638,-28 3638,-28 3638,-40 3638,-40 3638,-46 3632,-52 3626,-52"/>
<text text-anchor="middle" x="3583" y="-30.9" font-family="Helvetica,sans-Serif" font-size="12.00" fill="#44337a">Material Grade</text>
</g>
<!-- https://w3id.org/sdata/core/ModelType -->
<g id="node30" class="node">
<title>https://w3id.org/sdata/core/ModelType</title>
<path fill="#f8eeff" stroke="#6b46c1" stroke-width="1.6" d="M3753.5,-52C3753.5,-52 3690.5,-52 3690.5,-52 3684.5,-52 3678.5,-46 3678.5,-40 3678.5,-40 3678.5,-28 3678.5,-28 3678.5,-22 3684.5,-16 3690.5,-16 3690.5,-16 3753.5,-16 3753.5,-16 3759.5,-16 3765.5,-22 3765.5,-28 3765.5,-28 3765.5,-40 3765.5,-40 3765.5,-46 3759.5,-52 3753.5,-52"/>
<text text-anchor="middle" x="3722" y="-30.9" font-family="Helvetica,sans-Serif" font-size="12.00" fill="#44337a">Model Type</text>
</g>
<!-- https://w3id.org/sdata/core/ProcessType -->
<g id="node31" class="node">
<title>https://w3id.org/sdata/core/ProcessType</title>
<path fill="#f8eeff" stroke="#6b46c1" stroke-width="1.6" d="M3890,-52C3890,-52 3818,-52 3818,-52 3812,-52 3806,-46 3806,-40 3806,-40 3806,-28 3806,-28 3806,-22 3812,-16 3818,-16 3818,-16 3890,-16 3890,-16 3896,-16 3902,-22 3902,-28 3902,-28 3902,-40 3902,-40 3902,-46 3896,-52 3890,-52"/>
<text text-anchor="middle" x="3854" y="-30.9" font-family="Helvetica,sans-Serif" font-size="12.00" fill="#44337a">Process Type</text>
</g>
<!-- https://w3id.org/sdata/core/ProductType -->
<g id="node32" class="node">
<title>https://w3id.org/sdata/core/ProductType</title>
<path fill="#f8eeff" stroke="#6b46c1" stroke-width="1.6" d="M4026,-52C4026,-52 3954,-52 3954,-52 3948,-52 3942,-46 3942,-40 3942,-40 3942,-28 3942,-28 3942,-22 3948,-16 3954,-16 3954,-16 4026,-16 4026,-16 4032,-16 4038,-22 4038,-28 4038,-28 4038,-40 4038,-40 4038,-46 4032,-52 4026,-52"/>
<text text-anchor="middle" x="3990" y="-30.9" font-family="Helvetica,sans-Serif" font-size="12.00" fill="#44337a">Product Type</text>
</g>
<!-- https://w3id.org/sdata/core/SoftwareType -->
<g id="node35" class="node">
<title>https://w3id.org/sdata/core/SoftwareType</title>
<path fill="#f8eeff" stroke="#6b46c1" stroke-width="1.6" d="M4170,-52C4170,-52 4090,-52 4090,-52 4084,-52 4078,-46 4078,-40 4078,-40 4078,-28 4078,-28 4078,-22 4084,-16 4090,-16 4090,-16 4170,-16 4170,-16 4176,-16 4182,-22 4182,-28 4182,-28 4182,-40 4182,-40 4182,-46 4176,-52 4170,-52"/>
<text text-anchor="middle" x="4130" y="-30.9" font-family="Helvetica,sans-Serif" font-size="12.00" fill="#44337a">Software Type</text>
</g>
<!-- https://w3id.org/sdata/core/Typus&#45;&gt;https://w3id.org/sdata/core/BoundaryType -->
<g id="edge64" class="edge">
<title>https://w3id.org/sdata/core/Typus&#45;&gt;https://w3id.org/sdata/core/BoundaryType</title>
<path fill="none" stroke="#4a5568" stroke-width="1.6" d="M3855.93,-124.34C3849.59,-121.09 3842.72,-118.05 3836,-116 3573.59,-35.87 3492.71,-96.63 3222,-52 3218.19,-51.37 3214.29,-50.67 3210.36,-49.92"/>
<polygon fill="#4a5568" stroke="#4a5568" stroke-width="1.6" points="3210.66,-46.94 3201.74,-48.2 3209.49,-52.78 3210.66,-46.94"/>
</g>
<!-- https://w3id.org/sdata/core/Typus&#45;&gt;https://w3id.org/sdata/core/DataFormat -->
<g id="edge65" class="edge">
<title>https://w3id.org/sdata/core/Typus&#45;&gt;https://w3id.org/sdata/core/DataFormat</title>
<path fill="none" stroke="#4a5568" stroke-width="1.6" d="M3855.89,-124.49C3849.55,-121.23 3842.69,-118.15 3836,-116 3632.37,-50.52 3569.15,-91.87 3359,-52 3354.97,-51.24 3350.82,-50.38 3346.66,-49.48"/>
<polygon fill="#4a5568" stroke="#4a5568" stroke-width="1.6" points="3347.06,-46.52 3338.11,-47.56 3345.75,-52.32 3347.06,-46.52"/>
</g>
<!-- https://w3id.org/sdata/core/Typus&#45;&gt;https://w3id.org/sdata/core/HardwareType -->
<g id="edge66" class="edge">
<title>https://w3id.org/sdata/core/Typus&#45;&gt;https://w3id.org/sdata/core/HardwareType</title>
<path fill="none" stroke="#4a5568" stroke-width="1.6" d="M3855.79,-124.78C3849.45,-121.5 3842.62,-118.35 3836,-116 3696.01,-66.36 3653.33,-82.64 3508,-52 3504.22,-51.2 3500.34,-50.37 3496.43,-49.52"/>
<polygon fill="#4a5568" stroke="#4a5568" stroke-width="1.6" points="3496.79,-46.55 3487.85,-47.63 3495.51,-52.36 3496.79,-46.55"/>
</g>
<!-- https://w3id.org/sdata/core/Typus&#45;&gt;https://w3id.org/sdata/core/MaterialGrade -->
<g id="edge67" class="edge">
<title>https://w3id.org/sdata/core/Typus&#45;&gt;https://w3id.org/sdata/core/MaterialGrade</title>
<path fill="none" stroke="#4a5568" stroke-width="1.6" d="M3855.57,-125.35C3849.24,-122.04 3842.47,-118.73 3836,-116 3773.21,-89.5 3698.61,-66.6 3646.75,-51.98"/>
<polygon fill="#4a5568" stroke="#4a5568" stroke-width="1.6" points="3647.3,-49.04 3638.31,-49.62 3645.69,-54.77 3647.3,-49.04"/>
</g>
<!-- https://w3id.org/sdata/core/Typus&#45;&gt;https://w3id.org/sdata/core/ModelType -->
<g id="edge68" class="edge">
<title>https://w3id.org/sdata/core/Typus&#45;&gt;https://w3id.org/sdata/core/ModelType</title>
<path fill="none" stroke="#4a5568" stroke-width="1.6" d="M3857.13,-123.97C3829.52,-105.79 3785.66,-76.91 3755.44,-57.02"/>
<polygon fill="#4a5568" stroke="#4a5568" stroke-width="1.6" points="3756.81,-54.35 3748.07,-52.16 3753.53,-59.32 3756.81,-54.35"/>
</g>
<!-- https://w3id.org/sdata/core/Typus&#45;&gt;https://w3id.org/sdata/core/ProcessType -->
<g id="edge69" class="edge">
<title>https://w3id.org/sdata/core/Typus&#45;&gt;https://w3id.org/sdata/core/ProcessType</title>
<path fill="none" stroke="#4a5568" stroke-width="1.6" d="M3878.34,-123.97C3873.65,-106.84 3866.37,-80.22 3860.99,-60.56"/>
<polygon fill="#4a5568" stroke="#4a5568" stroke-width="1.6" points="3863.86,-59.75 3858.74,-52.34 3858.12,-61.32 3863.86,-59.75"/>
</g>
<!-- https://w3id.org/sdata/core/Typus&#45;&gt;https://w3id.org/sdata/core/ProductType -->
<g id="edge70" class="edge">
<title>https://w3id.org/sdata/core/Typus&#45;&gt;https://w3id.org/sdata/core/ProductType</title>
<path fill="none" stroke="#4a5568" stroke-width="1.6" d="M3900.19,-123.97C3918.1,-106.23 3946.29,-78.3 3966.31,-58.47"/>
<polygon fill="#4a5568" stroke="#4a5568" stroke-width="1.6" points="3968.55,-60.44 3972.5,-52.34 3964.36,-56.21 3968.55,-60.44"/>
</g>
<!-- https://w3id.org/sdata/core/Typus&#45;&gt;https://w3id.org/sdata/core/SoftwareType -->
<g id="edge71" class="edge">
<title>https://w3id.org/sdata/core/Typus&#45;&gt;https://w3id.org/sdata/core/SoftwareType</title>
<path fill="none" stroke="#4a5568" stroke-width="1.6" d="M3910.19,-126.27C3916.93,-122.78 3924.18,-119.16 3931,-116 3979.46,-93.58 4035.94,-70.91 4076.32,-55.28"/>
<polygon fill="#4a5568" stroke="#4a5568" stroke-width="1.6" points="4077.57,-57.98 4084.43,-52.15 4075.43,-52.43 4077.57,-57.98"/>
</g>
<!-- https://w3id.org/min#Lex -->
<g id="node39" class="node">
<title>https://w3id.org/min#Lex</title>
<path fill="#e7f0ff" stroke="#2b6cb0" stroke-width="1.6" d="M3697,-700C3697,-700 3667,-700 3667,-700 3661,-700 3655,-694 3655,-688 3655,-688 3655,-676 3655,-676 3655,-670 3661,-664 3667,-664 3667,-664 3697,-664 3697,-664 3703,-664 3709,-670 3709,-676 3709,-676 3709,-688 3709,-688 3709,-694 3703,-700 3697,-700"/>
<text text-anchor="middle" x="3682" y="-678.9" font-family="Helvetica,sans-Serif" font-size="12.00" fill="#1a365d">Lex</text>
</g>
<!-- https://w3id.org/sdata/core/Law -->
<g id="node40" class="node">
<title>https://w3id.org/sdata/core/Law</title>
<path fill="#f8eeff" stroke="#6b46c1" stroke-width="1.6" d="M3697,-592C3697,-592 3667,-592 3667,-592 3661,-592 3655,-586 3655,-580 3655,-580 3655,-568 3655,-568 3655,-562 3661,-556 3667,-556 3667,-556 3697,-556 3697,-556 3703,-556 3709,-562 3709,-568 3709,-568 3709,-580 3709,-580 3709,-586 3703,-592 3697,-592"/>
<text text-anchor="middle" x="3682" y="-570.9" font-family="Helvetica,sans-Serif" font-size="12.00" fill="#44337a">Law</text>
</g>
<!-- https://w3id.org/min#Lex&#45;&gt;https://w3id.org/sdata/core/Law -->
<g id="edge30" class="edge">
<title>https://w3id.org/min#Lex&#45;&gt;https://w3id.org/sdata/core/Law</title>
<path fill="none" stroke="#4a5568" stroke-width="1.6" d="M3682,-663.97C3682,-646.99 3682,-620.7 3682,-601.09"/>
<polygon fill="#4a5568" stroke="#4a5568" stroke-width="1.6" points="3684.98,-600.84 3682,-592.34 3679.03,-600.84 3684.98,-600.84"/>
</g>
<!-- https://w3id.org/min#Structura -->
<g id="node57" class="node">
<title>https://w3id.org/min#Structura</title>
<path fill="#e7f0ff" stroke="#2b6cb0" stroke-width="1.6" d="M3458.5,-592C3458.5,-592 3405.5,-592 3405.5,-592 3399.5,-592 3393.5,-586 3393.5,-580 3393.5,-580 3393.5,-568 3393.5,-568 3393.5,-562 3399.5,-556 3405.5,-556 3405.5,-556 3458.5,-556 3458.5,-556 3464.5,-556 3470.5,-562 3470.5,-568 3470.5,-568 3470.5,-580 3470.5,-580 3470.5,-586 3464.5,-592 3458.5,-592"/>
<text text-anchor="middle" x="3432" y="-570.9" font-family="Helvetica,sans-Serif" font-size="12.00" fill="#1a365d">Structura</text>
</g>
<!-- https://w3id.org/min#Lex&#45;&gt;https://w3id.org/min#Structura -->
<!-- https://w3id.org/min#Norma -->
<g id="node42" class="node">
<title>https://w3id.org/min#Norma</title>
<path fill="#e7f0ff" stroke="#2b6cb0" stroke-width="1.6" d="M3004.5,-376C3004.5,-376 2967.5,-376 2967.5,-376 2961.5,-376 2955.5,-370 2955.5,-364 2955.5,-364 2955.5,-352 2955.5,-352 2955.5,-346 2961.5,-340 2967.5,-340 2967.5,-340 3004.5,-340 3004.5,-340 3010.5,-340 3016.5,-346 3016.5,-352 3016.5,-352 3016.5,-364 3016.5,-364 3016.5,-370 3010.5,-376 3004.5,-376"/>
<text text-anchor="middle" x="2986" y="-354.9" font-family="Helvetica,sans-Serif" font-size="12.00" fill="#1a365d">Norma</text>
</g>
<!-- https://w3id.org/min#Norma&#45;&gt;https://w3id.org/min#Institutio -->
<!-- https://w3id.org/sdata/core/Requirement -->
<g id="node43" class="node">
<title>https://w3id.org/sdata/core/Requirement</title>
<path fill="#f8eeff" stroke="#6b46c1" stroke-width="1.6" d="M2988.5,-268C2988.5,-268 2915.5,-268 2915.5,-268 2909.5,-268 2903.5,-262 2903.5,-256 2903.5,-256 2903.5,-244 2903.5,-244 2903.5,-238 2909.5,-232 2915.5,-232 2915.5,-232 2988.5,-232 2988.5,-232 2994.5,-232 3000.5,-238 3000.5,-244 3000.5,-244 3000.5,-256 3000.5,-256 3000.5,-262 2994.5,-268 2988.5,-268"/>
<text text-anchor="middle" x="2952" y="-246.9" font-family="Helvetica,sans-Serif" font-size="12.00" fill="#44337a">Requirement</text>
</g>
<!-- https://w3id.org/min#Norma&#45;&gt;https://w3id.org/sdata/core/Requirement -->
<g id="edge39" class="edge">
<title>https://w3id.org/min#Norma&#45;&gt;https://w3id.org/sdata/core/Requirement</title>
<path fill="none" stroke="#4a5568" stroke-width="1.6" d="M2980.54,-339.97C2975.04,-322.84 2966.5,-296.22 2960.2,-276.56"/>
<polygon fill="#4a5568" stroke="#4a5568" stroke-width="1.6" points="2962.99,-275.53 2957.56,-268.34 2957.33,-277.34 2962.99,-275.53"/>
</g>
<!-- https://w3id.org/min#Object -->
<g id="node44" class="node">
<title>https://w3id.org/min#Object</title>
<path fill="#e7f0ff" stroke="#2b6cb0" stroke-width="1.6" d="M1691,-808C1691,-808 1655,-808 1655,-808 1649,-808 1643,-802 1643,-796 1643,-796 1643,-784 1643,-784 1643,-778 1649,-772 1655,-772 1655,-772 1691,-772 1691,-772 1697,-772 1703,-778 1703,-784 1703,-784 1703,-796 1703,-796 1703,-802 1697,-808 1691,-808"/>
<text text-anchor="middle" x="1673" y="-786.9" font-family="Helvetica,sans-Serif" font-size="12.00" fill="#1a365d">Object</text>
</g>
<!-- https://w3id.org/sdata/core/Hardware -->
<g id="node45" class="node">
<title>https://w3id.org/sdata/core/Hardware</title>
<path fill="#f8eeff" stroke="#6b46c1" stroke-width="1.6" d="M1643,-700C1643,-700 1589,-700 1589,-700 1583,-700 1577,-694 1577,-688 1577,-688 1577,-676 1577,-676 1577,-670 1583,-664 1589,-664 1589,-664 1643,-664 1643,-664 1649,-664 1655,-670 1655,-676 1655,-676 1655,-688 1655,-688 1655,-694 1649,-700 1643,-700"/>
<text text-anchor="middle" x="1616" y="-678.9" font-family="Helvetica,sans-Serif" font-size="12.00" fill="#44337a">Hardware</text>
</g>
<!-- https://w3id.org/min#Object&#45;&gt;https://w3id.org/sdata/core/Hardware -->
<g id="edge41" class="edge">
<title>https://w3id.org/min#Object&#45;&gt;https://w3id.org/sdata/core/Hardware</title>
<path fill="none" stroke="#4a5568" stroke-width="1.6" d="M1663.84,-771.97C1654.55,-754.69 1640.06,-727.74 1629.46,-708.03"/>
<polygon fill="#4a5568" stroke="#4a5568" stroke-width="1.6" points="1631.97,-706.42 1625.32,-700.34 1626.73,-709.24 1631.97,-706.42"/>
</g>
<!-- https://w3id.org/sdata/core/Material -->
<g id="node46" class="node">
<title>https://w3id.org/sdata/core/Material</title>
<path fill="#f8eeff" stroke="#6b46c1" stroke-width="1.6" d="M1752.5,-700C1752.5,-700 1707.5,-700 1707.5,-700 1701.5,-700 1695.5,-694 1695.5,-688 1695.5,-688 1695.5,-676 1695.5,-676 1695.5,-670 1701.5,-664 1707.5,-664 1707.5,-664 1752.5,-664 1752.5,-664 1758.5,-664 1764.5,-670 1764.5,-676 1764.5,-676 1764.5,-688 1764.5,-688 1764.5,-694 1758.5,-700 1752.5,-700"/>
<text text-anchor="middle" x="1730" y="-678.9" font-family="Helvetica,sans-Serif" font-size="12.00" fill="#44337a">Material</text>
</g>
<!-- https://w3id.org/min#Object&#45;&gt;https://w3id.org/sdata/core/Material -->
<g id="edge42" class="edge">
<title>https://w3id.org/min#Object&#45;&gt;https://w3id.org/sdata/core/Material</title>
<path fill="none" stroke="#4a5568" stroke-width="1.6" d="M1682.16,-771.97C1691.45,-754.69 1705.94,-727.74 1716.54,-708.03"/>
<polygon fill="#4a5568" stroke="#4a5568" stroke-width="1.6" points="1719.27,-709.24 1720.68,-700.34 1714.03,-706.42 1719.27,-709.24"/>
</g>
<!-- https://w3id.org/sdata/core/Product -->
<g id="node47" class="node">
<title>https://w3id.org/sdata/core/Product</title>
<path fill="#f8eeff" stroke="#6b46c1" stroke-width="1.6" d="M1859,-700C1859,-700 1817,-700 1817,-700 1811,-700 1805,-694 1805,-688 1805,-688 1805,-676 1805,-676 1805,-670 1811,-664 1817,-664 1817,-664 1859,-664 1859,-664 1865,-664 1871,-670 1871,-676 1871,-676 1871,-688 1871,-688 1871,-694 1865,-700 1859,-700"/>
<text text-anchor="middle" x="1838" y="-678.9" font-family="Helvetica,sans-Serif" font-size="12.00" fill="#44337a">Product</text>
</g>
<!-- https://w3id.org/min#Object&#45;&gt;https://w3id.org/sdata/core/Product -->
<g id="edge43" class="edge">
<title>https://w3id.org/min#Object&#45;&gt;https://w3id.org/sdata/core/Product</title>
<path fill="none" stroke="#4a5568" stroke-width="1.6" d="M1703.16,-778.82C1726.69,-770.07 1759.53,-756.01 1785,-738 1797.43,-729.21 1809.38,-717.23 1818.77,-706.7"/>
<polygon fill="#4a5568" stroke="#4a5568" stroke-width="1.6" points="1821.23,-708.41 1824.55,-700.04 1816.73,-704.51 1821.23,-708.41"/>
</g>
<!-- https://w3id.org/sdata/core/Site -->
<g id="node48" class="node">
<title>https://w3id.org/sdata/core/Site</title>
<path fill="#f8eeff" stroke="#6b46c1" stroke-width="1.6" d="M1953,-700C1953,-700 1923,-700 1923,-700 1917,-700 1911,-694 1911,-688 1911,-688 1911,-676 1911,-676 1911,-670 1917,-664 1923,-664 1923,-664 1953,-664 1953,-664 1959,-664 1965,-670 1965,-676 1965,-676 1965,-688 1965,-688 1965,-694 1959,-700 1953,-700"/>
<text text-anchor="middle" x="1938" y="-678.9" font-family="Helvetica,sans-Serif" font-size="12.00" fill="#44337a">Site</text>
</g>
<!-- https://w3id.org/min#Object&#45;&gt;https://w3id.org/sdata/core/Site -->
<g id="edge44" class="edge">
<title>https://w3id.org/min#Object&#45;&gt;https://w3id.org/sdata/core/Site</title>
<path fill="none" stroke="#4a5568" stroke-width="1.6" d="M1703.06,-787.83C1747.27,-784.87 1831.07,-774.48 1891,-738 1903.59,-730.34 1914.51,-718.15 1922.64,-707.19"/>
<polygon fill="#4a5568" stroke="#4a5568" stroke-width="1.6" points="1925.09,-708.88 1927.58,-700.23 1920.24,-705.44 1925.09,-708.88"/>
</g>
<!-- https://w3id.org/sdata/core/Software -->
<g id="node49" class="node">
<title>https://w3id.org/sdata/core/Software</title>
<path fill="#f8eeff" stroke="#6b46c1" stroke-width="1.6" d="M1280.5,-700C1280.5,-700 1231.5,-700 1231.5,-700 1225.5,-700 1219.5,-694 1219.5,-688 1219.5,-688 1219.5,-676 1219.5,-676 1219.5,-670 1225.5,-664 1231.5,-664 1231.5,-664 1280.5,-664 1280.5,-664 1286.5,-664 1292.5,-670 1292.5,-676 1292.5,-676 1292.5,-688 1292.5,-688 1292.5,-694 1286.5,-700 1280.5,-700"/>
<text text-anchor="middle" x="1256" y="-678.9" font-family="Helvetica,sans-Serif" font-size="12.00" fill="#44337a">Software</text>
</g>
<!-- https://w3id.org/min#Object&#45;&gt;https://w3id.org/sdata/core/Software -->
<g id="edge45" class="edge">
<title>https://w3id.org/min#Object&#45;&gt;https://w3id.org/sdata/core/Software</title>
<path fill="none" stroke="#4a5568" stroke-width="1.6" d="M1642.75,-787.11C1567.02,-782.01 1371.14,-766.38 1313,-738 1298.02,-730.69 1284.45,-717.97 1274.31,-706.6"/>
<polygon fill="#4a5568" stroke="#4a5568" stroke-width="1.6" points="1276.54,-704.64 1268.75,-700.12 1272.02,-708.51 1276.54,-704.64"/>
</g>
<!-- https://w3id.org/sdata/core/Specimen -->
<g id="node50" class="node">
<title>https://w3id.org/sdata/core/Specimen</title>
<path fill="#f8eeff" stroke="#6b46c1" stroke-width="1.6" d="M1401,-700C1401,-700 1345,-700 1345,-700 1339,-700 1333,-694 1333,-688 1333,-688 1333,-676 1333,-676 1333,-670 1339,-664 1345,-664 1345,-664 1401,-664 1401,-664 1407,-664 1413,-670 1413,-676 1413,-676 1413,-688 1413,-688 1413,-694 1407,-700 1401,-700"/>
<text text-anchor="middle" x="1373" y="-678.9" font-family="Helvetica,sans-Serif" font-size="12.00" fill="#44337a">Specimen</text>
</g>
<!-- https://w3id.org/min#Object&#45;&gt;https://w3id.org/sdata/core/Specimen -->
<g id="edge46" class="edge">
<title>https://w3id.org/min#Object&#45;&gt;https://w3id.org/sdata/core/Specimen</title>
<path fill="none" stroke="#4a5568" stroke-width="1.6" d="M1642.65,-787.54C1595.57,-784.19 1503.15,-773.3 1434,-738 1418.71,-730.2 1404.31,-717.57 1393.35,-706.38"/>
<polygon fill="#4a5568" stroke="#4a5568" stroke-width="1.6" points="1395.32,-704.13 1387.31,-700.01 1391,-708.23 1395.32,-704.13"/>
</g>
<!-- https://w3id.org/sdata/core/Substance -->
<g id="node51" class="node">
<title>https://w3id.org/sdata/core/Substance</title>
<path fill="#f8eeff" stroke="#6b46c1" stroke-width="1.6" d="M1524.5,-700C1524.5,-700 1465.5,-700 1465.5,-700 1459.5,-700 1453.5,-694 1453.5,-688 1453.5,-688 1453.5,-676 1453.5,-676 1453.5,-670 1459.5,-664 1465.5,-664 1465.5,-664 1524.5,-664 1524.5,-664 1530.5,-664 1536.5,-670 1536.5,-676 1536.5,-676 1536.5,-688 1536.5,-688 1536.5,-694 1530.5,-700 1524.5,-700"/>
<text text-anchor="middle" x="1495" y="-678.9" font-family="Helvetica,sans-Serif" font-size="12.00" fill="#44337a">Substance</text>
</g>
<!-- https://w3id.org/min#Object&#45;&gt;https://w3id.org/sdata/core/Substance -->
<g id="edge47" class="edge">
<title>https://w3id.org/min#Object&#45;&gt;https://w3id.org/sdata/core/Substance</title>
<path fill="none" stroke="#4a5568" stroke-width="1.6" d="M1642.63,-778.63C1618.43,-769.68 1584.23,-755.45 1557,-738 1542.92,-728.98 1528.85,-716.82 1517.68,-706.22"/>
<polygon fill="#4a5568" stroke="#4a5568" stroke-width="1.6" points="1519.64,-703.98 1511.46,-700.2 1515.5,-708.25 1519.64,-703.98"/>
</g>
<!-- https://w3id.org/min#Process -->
<g id="node55" class="node">
<title>https://w3id.org/min#Process</title>
<path fill="#e7f0ff" stroke="#2b6cb0" stroke-width="1.6" d="M335,-700C335,-700 293,-700 293,-700 287,-700 281,-694 281,-688 281,-688 281,-676 281,-676 281,-670 287,-664 293,-664 293,-664 335,-664 335,-664 341,-664 347,-670 347,-676 347,-676 347,-688 347,-688 347,-694 341,-700 335,-700"/>
<text text-anchor="middle" x="314" y="-678.9" font-family="Helvetica,sans-Serif" font-size="12.00" fill="#1a365d">Process</text>
</g>
<!-- https://w3id.org/min#Object&#45;&gt;https://w3id.org/min#Process -->
<!-- https://w3id.org/min#Possibile -->
<g id="node53" class="node">
<title>https://w3id.org/min#Possibile</title>
<path fill="#e7f0ff" stroke="#2b6cb0" stroke-width="1.6" d="M3257.5,-484C3257.5,-484 3210.5,-484 3210.5,-484 3204.5,-484 3198.5,-478 3198.5,-472 3198.5,-472 3198.5,-460 3198.5,-460 3198.5,-454 3204.5,-448 3210.5,-448 3210.5,-448 3257.5,-448 3257.5,-448 3263.5,-448 3269.5,-454 3269.5,-460 3269.5,-460 3269.5,-472 3269.5,-472 3269.5,-478 3263.5,-484 3257.5,-484"/>
<text text-anchor="middle" x="3234" y="-462.9" font-family="Helvetica,sans-Serif" font-size="12.00" fill="#1a365d">Possibile</text>
</g>
<!-- https://w3id.org/min#Possibile&#45;&gt;https://w3id.org/min#Norma -->
<!-- https://w3id.org/sdata/core/Scenario -->
<g id="node54" class="node">
<title>https://w3id.org/sdata/core/Scenario</title>
<path fill="#f8eeff" stroke="#6b46c1" stroke-width="1.6" d="M3258.5,-376C3258.5,-376 3209.5,-376 3209.5,-376 3203.5,-376 3197.5,-370 3197.5,-364 3197.5,-364 3197.5,-352 3197.5,-352 3197.5,-346 3203.5,-340 3209.5,-340 3209.5,-340 3258.5,-340 3258.5,-340 3264.5,-340 3270.5,-346 3270.5,-352 3270.5,-352 3270.5,-364 3270.5,-364 3270.5,-370 3264.5,-376 3258.5,-376"/>
<text text-anchor="middle" x="3234" y="-354.9" font-family="Helvetica,sans-Serif" font-size="12.00" fill="#44337a">Scenario</text>
</g>
<!-- https://w3id.org/min#Possibile&#45;&gt;https://w3id.org/sdata/core/Scenario -->
<g id="edge49" class="edge">
<title>https://w3id.org/min#Possibile&#45;&gt;https://w3id.org/sdata/core/Scenario</title>
<path fill="none" stroke="#4a5568" stroke-width="1.6" d="M3234,-447.97C3234,-430.99 3234,-404.7 3234,-385.09"/>
<polygon fill="#4a5568" stroke="#4a5568" stroke-width="1.6" points="3236.98,-384.84 3234,-376.34 3231.03,-384.84 3236.98,-384.84"/>
</g>
<!-- https://w3id.org/min#Process&#45;&gt;https://w3id.org/min#Data -->
<!-- https://w3id.org/sdata/core/Process -->
<g id="node56" class="node">
<title>https://w3id.org/sdata/core/Process</title>
<path fill="#f8eeff" stroke="#6b46c1" stroke-width="1.6" d="M335,-592C335,-592 293,-592 293,-592 287,-592 281,-586 281,-580 281,-580 281,-568 281,-568 281,-562 287,-556 293,-556 293,-556 335,-556 335,-556 341,-556 347,-562 347,-568 347,-568 347,-580 347,-580 347,-586 341,-592 335,-592"/>
<text text-anchor="middle" x="314" y="-570.9" font-family="Helvetica,sans-Serif" font-size="12.00" fill="#44337a">Process</text>
</g>
<!-- https://w3id.org/min#Process&#45;&gt;https://w3id.org/sdata/core/Process -->
<g id="edge51" class="edge">
<title>https://w3id.org/min#Process&#45;&gt;https://w3id.org/sdata/core/Process</title>
<path fill="none" stroke="#4a5568" stroke-width="1.6" d="M314,-663.97C314,-646.99 314,-620.7 314,-601.09"/>
<polygon fill="#4a5568" stroke="#4a5568" stroke-width="1.6" points="316.98,-600.84 314,-592.34 311.03,-600.84 316.98,-600.84"/>
</g>
<!-- https://w3id.org/min#Structura&#45;&gt;https://w3id.org/min#Possibile -->
<!-- https://w3id.org/sdata/core/Model -->
<g id="node58" class="node">
<title>https://w3id.org/sdata/core/Model</title>
<path fill="#f8eeff" stroke="#6b46c1" stroke-width="1.6" d="M3448.5,-484C3448.5,-484 3415.5,-484 3415.5,-484 3409.5,-484 3403.5,-478 3403.5,-472 3403.5,-472 3403.5,-460 3403.5,-460 3403.5,-454 3409.5,-448 3415.5,-448 3415.5,-448 3448.5,-448 3448.5,-448 3454.5,-448 3460.5,-454 3460.5,-460 3460.5,-460 3460.5,-472 3460.5,-472 3460.5,-478 3454.5,-484 3448.5,-484"/>
<text text-anchor="middle" x="3432" y="-462.9" font-family="Helvetica,sans-Serif" font-size="12.00" fill="#44337a">Model</text>
</g>
<!-- https://w3id.org/min#Structura&#45;&gt;https://w3id.org/sdata/core/Model -->
<g id="edge53" class="edge">
<title>https://w3id.org/min#Structura&#45;&gt;https://w3id.org/sdata/core/Model</title>
<path fill="none" stroke="#4a5568" stroke-width="1.6" d="M3432,-555.97C3432,-538.99 3432,-512.7 3432,-493.09"/>
<polygon fill="#4a5568" stroke="#4a5568" stroke-width="1.6" points="3434.98,-492.84 3432,-484.34 3429.03,-492.84 3434.98,-492.84"/>
</g>
<!-- https://w3id.org/min#Entity -->
<g id="node59" class="node">
<title>https://w3id.org/min#Entity</title>
<path fill="#e7f0ff" stroke="#2b6cb0" stroke-width="1.6" d="M2127,-1024C2127,-1024 2097,-1024 2097,-1024 2091,-1024 2085,-1018 2085,-1012 2085,-1012 2085,-1000 2085,-1000 2085,-994 2091,-988 2097,-988 2097,-988 2127,-988 2127,-988 2133,-988 2139,-994 2139,-1000 2139,-1000 2139,-1012 2139,-1012 2139,-1018 2133,-1024 2127,-1024"/>
<text text-anchor="middle" x="2112" y="-1002.9" font-family="Helvetica,sans-Serif" font-size="12.00" fill="#1a365d">Entity</text>
</g>
<!-- https://w3id.org/min#Forma -->
<g id="node60" class="node">
<title>https://w3id.org/min#Forma</title>
<path fill="#e7f0ff" stroke="#2b6cb0" stroke-width="1.6" d="M3308.5,-808C3308.5,-808 3273.5,-808 3273.5,-808 3267.5,-808 3261.5,-802 3261.5,-796 3261.5,-796 3261.5,-784 3261.5,-784 3261.5,-778 3267.5,-772 3273.5,-772 3273.5,-772 3308.5,-772 3308.5,-772 3314.5,-772 3320.5,-778 3320.5,-784 3320.5,-784 3320.5,-796 3320.5,-796 3320.5,-802 3314.5,-808 3308.5,-808"/>
<text text-anchor="middle" x="3291" y="-786.9" font-family="Helvetica,sans-Serif" font-size="12.00" fill="#1a365d">Forma</text>
</g>
<!-- https://w3id.org/min#Entity&#45;&gt;https://w3id.org/min#Forma -->
<g id="edge11" class="edge">
<title>https://w3id.org/min#Entity&#45;&gt;https://w3id.org/min#Forma</title>
<path fill="none" stroke="#4a5568" stroke-width="1.6" d="M2139.12,-1000.08C2294.51,-971.87 3071.11,-830.91 3252.89,-797.92"/>
<polygon fill="#4a5568" stroke="#4a5568" stroke-width="1.6" points="3253.51,-800.83 3261.34,-796.38 3252.44,-794.97 3253.51,-800.83"/>
</g>
<!-- https://w3id.org/min#Nexus -->
<g id="node61" class="node">
<title>https://w3id.org/min#Nexus</title>
<path fill="#e7f0ff" stroke="#2b6cb0" stroke-width="1.6" d="M2083.5,-916C2083.5,-916 2050.5,-916 2050.5,-916 2044.5,-916 2038.5,-910 2038.5,-904 2038.5,-904 2038.5,-892 2038.5,-892 2038.5,-886 2044.5,-880 2050.5,-880 2050.5,-880 2083.5,-880 2083.5,-880 2089.5,-880 2095.5,-886 2095.5,-892 2095.5,-892 2095.5,-904 2095.5,-904 2095.5,-910 2089.5,-916 2083.5,-916"/>
<text text-anchor="middle" x="2067" y="-894.9" font-family="Helvetica,sans-Serif" font-size="12.00" fill="#1a365d">Nexus</text>
</g>
<!-- https://w3id.org/min#Entity&#45;&gt;https://w3id.org/min#Nexus -->
<g id="edge12" class="edge">
<title>https://w3id.org/min#Entity&#45;&gt;https://w3id.org/min#Nexus</title>
<path fill="none" stroke="#4a5568" stroke-width="1.6" d="M2104.77,-987.97C2097.47,-970.76 2086.1,-943.98 2077.74,-924.29"/>
<polygon fill="#4a5568" stroke="#4a5568" stroke-width="1.6" points="2080.42,-923 2074.36,-916.34 2074.94,-925.33 2080.42,-923"/>
</g>
<!-- https://w3id.org/min#Forma&#45;&gt;https://w3id.org/min#Institutio -->
<g id="edge13" class="edge">
<title>https://w3id.org/min#Forma&#45;&gt;https://w3id.org/min#Institutio</title>
<path fill="none" stroke="#4a5568" stroke-width="1.6" d="M3296.61,-771.74C3307.84,-735.64 3332,-649.33 3332,-575 3332,-575 3332,-575 3332,-465 3332,-404.85 3346.16,-377.65 3307,-332 3260.23,-277.48 3174.41,-259.65 3121.86,-253.82"/>
<polygon fill="#4a5568" stroke="#4a5568" stroke-width="1.6" points="3121.84,-250.83 3113.09,-252.92 3121.24,-256.75 3121.84,-250.83"/>
</g>
<!-- https://w3id.org/min#Forma&#45;&gt;https://w3id.org/min#Lex -->
<!-- https://w3id.org/min#Forma&#45;&gt;https://w3id.org/min#Lex -->
<g id="edge15" class="edge">
<title>https://w3id.org/min#Forma&#45;&gt;https://w3id.org/min#Lex</title>
<path fill="none" stroke="#4a5568" stroke-width="1.6" d="M3320.56,-783C3391.84,-766.15 3569.7,-718.17 3646.49,-695.35"/>
<polygon fill="#4a5568" stroke="#4a5568" stroke-width="1.6" points="3647.62,-698.12 3654.91,-692.83 3645.91,-692.42 3647.62,-698.12"/>
</g>
<!-- https://w3id.org/min#Forma&#45;&gt;https://w3id.org/min#Norma -->
<g id="edge16" class="edge">
<title>https://w3id.org/min#Forma&#45;&gt;https://w3id.org/min#Norma</title>
<path fill="none" stroke="#4a5568" stroke-width="1.6" d="M3266.06,-771.91C3212.48,-733.78 3086.1,-636.08 3023,-522 2998.61,-477.9 2990.28,-418.62 2987.45,-385.05"/>
<polygon fill="#4a5568" stroke="#4a5568" stroke-width="1.6" points="2990.4,-384.55 2986.79,-376.3 2984.46,-385 2990.4,-384.55"/>
</g>
<!-- https://w3id.org/min#Forma&#45;&gt;https://w3id.org/min#Possibile -->
<g id="edge17" class="edge">
<title>https://w3id.org/min#Forma&#45;&gt;https://w3id.org/min#Possibile</title>
<path fill="none" stroke="#4a5568" stroke-width="1.6" d="M3287.94,-771.69C3278.48,-718.27 3249.73,-555.85 3238.53,-492.6"/>
<polygon fill="#4a5568" stroke="#4a5568" stroke-width="1.6" points="3241.42,-491.86 3237.01,-484.01 3235.56,-492.9 3241.42,-491.86"/>
</g>
<!-- https://w3id.org/min#Forma&#45;&gt;https://w3id.org/min#Structura -->
<g id="edge18" class="edge">
<title>https://w3id.org/min#Forma&#45;&gt;https://w3id.org/min#Structura</title>
<path fill="none" stroke="#4a5568" stroke-width="1.6" d="M3320.62,-773.24C3334.94,-764.42 3351.48,-752.32 3363,-738 3396.86,-695.91 3416.75,-634.76 3425.9,-600.58"/>
<polygon fill="#4a5568" stroke="#4a5568" stroke-width="1.6" points="3428.84,-601.07 3428.09,-592.1 3423.08,-599.58 3428.84,-601.07"/>
</g>
<!-- https://w3id.org/min#Nexus&#45;&gt;https://w3id.org/min#Boundary -->
<g id="edge32" class="edge">
<title>https://w3id.org/min#Nexus&#45;&gt;https://w3id.org/min#Boundary</title>
<path fill="none" stroke="#4a5568" stroke-width="1.6" d="M2095.78,-896.92C2196.48,-895 2527,-874.13 2527,-683 2527,-683 2527,-683 2527,-573 2527,-504.77 2537.7,-424.89 2543.83,-384.77"/>
<polygon fill="#4a5568" stroke="#4a5568" stroke-width="1.6" points="2546.8,-385 2545.17,-376.14 2540.92,-384.08 2546.8,-385"/>
</g>
<!-- https://w3id.org/min#Nexus&#45;&gt;https://w3id.org/min#Agent -->
<g id="edge31" class="edge">
<title>https://w3id.org/min#Nexus&#45;&gt;https://w3id.org/min#Agent</title>
<path fill="none" stroke="#4a5568" stroke-width="1.6" d="M2073.52,-879.79C2076.94,-870.03 2080.85,-857.49 2083,-846 2107.51,-714.99 2108.9,-554.59 2108.4,-492.89"/>
<polygon fill="#4a5568" stroke="#4a5568" stroke-width="1.6" points="2111.37,-492.65 2108.31,-484.18 2105.42,-492.71 2111.37,-492.65"/>
</g>
<!-- https://w3id.org/min#Nexus&#45;&gt;https://w3id.org/min#Data -->
<g id="edge33" class="edge">
<title>https://w3id.org/min#Nexus&#45;&gt;https://w3id.org/min#Data</title>
<path fill="none" stroke="#4a5568" stroke-width="1.6" d="M2066.85,-879.81C2065.44,-834.72 2054.85,-712.65 1983,-656 1921.6,-607.59 1359.79,-582.25 1211.01,-576.35"/>
<polygon fill="#4a5568" stroke="#4a5568" stroke-width="1.6" points="1210.83,-573.37 1202.22,-576.01 1210.59,-579.32 1210.83,-573.37"/>
</g>
<!-- https://w3id.org/min#Nexus&#45;&gt;https://w3id.org/min#Object -->
<!-- https://w3id.org/min#Nexus&#45;&gt;https://w3id.org/min#Object -->
<g id="edge36" class="edge">
<title>https://w3id.org/min#Nexus&#45;&gt;https://w3id.org/min#Object</title>
<path fill="none" stroke="#4a5568" stroke-width="1.6" d="M2038.19,-886.74C1968.02,-865.75 1791.32,-818.29 1711.93,-799.19"/>
<polygon fill="#4a5568" stroke="#4a5568" stroke-width="1.6" points="1712.15,-796.19 1703.19,-797.11 1710.77,-801.97 1712.15,-796.19"/>
</g>
<!-- https://w3id.org/min#Nexus&#45;&gt;https://w3id.org/min#Process -->
<g id="edge37" class="edge">
<title>https://w3id.org/min#Nexus&#45;&gt;https://w3id.org/min#Process</title>
<path fill="none" stroke="#4a5568" stroke-width="1.6" d="M2038.48,-896.59C1929.41,-894.76 1528.45,-885.58 1201,-846 872.74,-806.32 482.45,-721.19 355.86,-692.59"/>
<polygon fill="#4a5568" stroke="#4a5568" stroke-width="1.6" points="356.15,-689.61 347.2,-690.63 354.84,-695.41 356.15,-689.61"/>
</g>
<!-- https://w3id.org/min#Nexus&#45;&gt;https://w3id.org/min#Forma -->
</g>
</svg>
