<?xml version="1.0" encoding="UTF-8" standalone="no"?>
<!DOCTYPE svg PUBLIC "-//W3C//DTD SVG 1.1//EN"
 "http://www.w3.org/Graphics/SVG/1.1/DTD/svg11.dtd">
<!-- Generated by graphviz version 2.43.0 (0)
 -->
<!-- Pages: 1 -->
<svg width="1563pt" height="502pt"
 viewBox="0.00 0.00 1563.40 502.40" xmlns="http://www.w3.org/2000/svg" xmlns:xlink="http://www.w3.org/1999/xlink">
<g id="graph0" class="graph" transform="scale(1 1) rotate(0) translate(25.2 477.2)">
<polygon fill="#fafbfc" stroke="transparent" points="-25.2,25.2 -25.2,-477.2 1538.2,-477.2 1538.2,25.2 -25.2,25.2"/>
<text text-anchor="middle" x="756.5" y="-432" font-family="Helvetica,sans-Serif" font-size="20.00">Class Hierarchy: MIN &#45;&gt; OPA &#45;&gt; sdata&#45;core</text>
<g id="clust1" class="cluster">
<title>cluster_opa</title>
<path fill="#fafbfc" stroke="#97d5ba" d="M1093,-224C1093,-224 1347,-224 1347,-224 1353,-224 1359,-230 1359,-236 1359,-236 1359,-294 1359,-294 1359,-300 1353,-306 1347,-306 1347,-306 1093,-306 1093,-306 1087,-306 1081,-300 1081,-294 1081,-294 1081,-236 1081,-236 1081,-230 1087,-224 1093,-224"/>
<text text-anchor="middle" x="1220" y="-286" font-family="Helvetica,sans-Serif" font-size="20.00">OPA classes</text>
</g>
<g id="clust2" class="cluster">
<title>cluster_min</title>
<path fill="#fafbfc" stroke="#8fb7ea" d="M1093,-332C1093,-332 1493,-332 1493,-332 1499,-332 1505,-338 1505,-344 1505,-344 1505,-402 1505,-402 1505,-408 1499,-414 1493,-414 1493,-414 1093,-414 1093,-414 1087,-414 1081,-408 1081,-402 1081,-402 1081,-344 1081,-344 1081,-338 1087,-332 1093,-332"/>
<text text-anchor="middle" x="1293" y="-394" font-family="Helvetica,sans-Serif" font-size="20.00">MIN classes</text>
</g>
<g id="clust3" class="cluster">
<title>cluster_sdata</title>
<path fill="#fafbfc" stroke="#d9b8f7" d="M20,-8C20,-8 1061,-8 1061,-8 1067,-8 1073,-14 1073,-20 1073,-20 1073,-402 1073,-402 1073,-408 1067,-414 1061,-414 1061,-414 20,-414 20,-414 14,-414 8,-408 8,-402 8,-402 8,-20 8,-20 8,-14 14,-8 20,-8"/>
<text text-anchor="middle" x="540.5" y="-394" font-family="Helvetica,sans-Serif" font-size="20.00">sdata&#45;core classes</text>
</g>
<!-- https://w3id.org/opa#Agent -->
<g id="node1" class="node">
<title>https://w3id.org/opa#Agent</title>
<path fill="#e8fff4" stroke="#2f855a" stroke-width="1.6" d="M1339,-268C1339,-268 1307,-268 1307,-268 1301,-268 1295,-262 1295,-256 1295,-256 1295,-244 1295,-244 1295,-238 1301,-232 1307,-232 1307,-232 1339,-232 1339,-232 1345,-232 1351,-238 1351,-244 1351,-244 1351,-256 1351,-256 1351,-262 1345,-268 1339,-268"/>
<text text-anchor="middle" x="1323" y="-246.9" font-family="Helvetica,sans-Serif" font-size="12.00" fill="#1c4532">Agent</text>
</g>
<!-- https://w3id.org/sdata/core/Agent -->
<g id="node8" class="node">
<title>https://w3id.org/sdata/core/Agent</title>
<path fill="#f8eeff" stroke="#6b46c1" stroke-width="1.6" d="M1053,-160C1053,-160 1021,-160 1021,-160 1015,-160 1009,-154 1009,-148 1009,-148 1009,-136 1009,-136 1009,-130 1015,-124 1021,-124 1021,-124 1053,-124 1053,-124 1059,-124 1065,-130 1065,-136 1065,-136 1065,-148 1065,-148 1065,-154 1059,-160 1053,-160"/>
<text text-anchor="middle" x="1037" y="-138.9" font-family="Helvetica,sans-Serif" font-size="12.00" fill="#44337a">Agent</text>
</g>
<!-- https://w3id.org/opa#Agent&#45;&gt;https://w3id.org/sdata/core/Agent -->
<g id="edge6" class="edge">
<title>https://w3id.org/opa#Agent&#45;&gt;https://w3id.org/sdata/core/Agent</title>
<path fill="none" stroke="#4a5568" stroke-width="1.6" d="M1295,-242.22C1281.64,-236.87 1267.7,-229.43 1255,-224 1192.42,-197.24 1117.76,-173.02 1073.49,-158.18"/>
<polygon fill="#4a5568" stroke="#4a5568" stroke-width="1.6" points="1074.32,-155.32 1065.32,-155.43 1072.42,-160.96 1074.32,-155.32"/>
</g>
<!-- https://w3id.org/opa#Agent&#45;&gt;https://w3id.org/sdata/core/Agent -->
<!-- https://w3id.org/opa#Object -->
<g id="node2" class="node">
<title>https://w3id.org/opa#Object</title>
<path fill="#e8fff4" stroke="#2f855a" stroke-width="1.6" d="M1243,-268C1243,-268 1207,-268 1207,-268 1201,-268 1195,-262 1195,-256 1195,-256 1195,-244 1195,-244 1195,-238 1201,-232 1207,-232 1207,-232 1243,-232 1243,-232 1249,-232 1255,-238 1255,-244 1255,-244 1255,-256 1255,-256 1255,-262 1249,-268 1243,-268"/>
<text text-anchor="middle" x="1225" y="-246.9" font-family="Helvetica,sans-Serif" font-size="12.00" fill="#1c4532">Object</text>
</g>
<!-- https://w3id.org/sdata/core/Object -->
<g id="node14" class="node">
<title>https://w3id.org/sdata/core/Object</title>
<path fill="#f8eeff" stroke="#6b46c1" stroke-width="1.6" d="M389,-160C389,-160 353,-160 353,-160 347,-160 341,-154 341,-148 341,-148 341,-136 341,-136 341,-130 347,-124 353,-124 353,-124 389,-124 389,-124 395,-124 401,-130 401,-136 401,-136 401,-148 401,-148 401,-154 395,-160 389,-160"/>
<text text-anchor="middle" x="371" y="-138.9" font-family="Helvetica,sans-Serif" font-size="12.00" fill="#44337a">Object</text>
</g>
<!-- https://w3id.org/opa#Object&#45;&gt;https://w3id.org/sdata/core/Object -->
<g id="edge8" class="edge">
<title>https://w3id.org/opa#Object&#45;&gt;https://w3id.org/sdata/core/Object</title>
<path fill="none" stroke="#4a5568" stroke-width="1.6" d="M1195.31,-231.96C1188.79,-228.85 1181.8,-225.97 1175,-224 1028.48,-181.55 550.68,-152.77 410.19,-145.07"/>
<polygon fill="#4a5568" stroke="#4a5568" stroke-width="1.6" points="410.08,-142.08 401.43,-144.59 409.76,-148.02 410.08,-142.08"/>
</g>
<!-- https://w3id.org/opa#Process -->
<g id="node3" class="node">
<title>https://w3id.org/opa#Process</title>
<path fill="#e8fff4" stroke="#2f855a" stroke-width="1.6" d="M1143,-268C1143,-268 1101,-268 1101,-268 1095,-268 1089,-262 1089,-256 1089,-256 1089,-244 1089,-244 1089,-238 1095,-232 1101,-232 1101,-232 1143,-232 1143,-232 1149,-232 1155,-238 1155,-244 1155,-244 1155,-256 1155,-256 1155,-262 1149,-268 1143,-268"/>
<text text-anchor="middle" x="1122" y="-246.9" font-family="Helvetica,sans-Serif" font-size="12.00" fill="#1c4532">Process</text>
</g>
<!-- https://w3id.org/sdata/core/Process -->
<g id="node17" class="node">
<title>https://w3id.org/sdata/core/Process</title>
<path fill="#f8eeff" stroke="#6b46c1" stroke-width="1.6" d="M289,-160C289,-160 247,-160 247,-160 241,-160 235,-154 235,-148 235,-148 235,-136 235,-136 235,-130 241,-124 247,-124 247,-124 289,-124 289,-124 295,-124 301,-130 301,-136 301,-136 301,-148 301,-148 301,-154 295,-160 289,-160"/>
<text text-anchor="middle" x="268" y="-138.9" font-family="Helvetica,sans-Serif" font-size="12.00" fill="#44337a">Process</text>
</g>
<!-- https://w3id.org/opa#Process&#45;&gt;https://w3id.org/sdata/core/Process -->
<g id="edge9" class="edge">
<title>https://w3id.org/opa#Process&#45;&gt;https://w3id.org/sdata/core/Process</title>
<path fill="none" stroke="#4a5568" stroke-width="1.6" d="M1099.44,-231.96C1094.27,-228.81 1088.64,-225.91 1083,-224 761.14,-114.86 654.28,-226.55 321,-160 317.22,-159.25 313.33,-158.31 309.46,-157.28"/>
<polygon fill="#4a5568" stroke="#4a5568" stroke-width="1.6" points="310.05,-154.35 301.06,-154.87 308.41,-160.07 310.05,-154.35"/>
</g>
<!-- https://w3id.org/min#Information -->
<g id="node4" class="node">
<title>https://w3id.org/min#Information</title>
<path fill="#e7f0ff" stroke="#2b6cb0" stroke-width="1.6" d="M1485,-376C1485,-376 1419,-376 1419,-376 1413,-376 1407,-370 1407,-364 1407,-364 1407,-352 1407,-352 1407,-346 1413,-340 1419,-340 1419,-340 1485,-340 1485,-340 1491,-340 1497,-346 1497,-352 1497,-352 1497,-364 1497,-364 1497,-370 1491,-376 1485,-376"/>
<text text-anchor="middle" x="1452" y="-354.9" font-family="Helvetica,sans-Serif" font-size="12.00" fill="#1a365d">Information</text>
</g>
<!-- https://w3id.org/min#Information&#45;&gt;https://w3id.org/opa#Agent -->
<!-- https://w3id.org/min#Material -->
<g id="node5" class="node">
<title>https://w3id.org/min#Material</title>
<path fill="#e7f0ff" stroke="#2b6cb0" stroke-width="1.6" d="M1354.5,-376C1354.5,-376 1309.5,-376 1309.5,-376 1303.5,-376 1297.5,-370 1297.5,-364 1297.5,-364 1297.5,-352 1297.5,-352 1297.5,-346 1303.5,-340 1309.5,-340 1309.5,-340 1354.5,-340 1354.5,-340 1360.5,-340 1366.5,-346 1366.5,-352 1366.5,-352 1366.5,-364 1366.5,-364 1366.5,-370 1360.5,-376 1354.5,-376"/>
<text text-anchor="middle" x="1332" y="-354.9" font-family="Helvetica,sans-Serif" font-size="12.00" fill="#1a365d">Material</text>
</g>
<!-- https://w3id.org/min#Modality -->
<g id="node6" class="node">
<title>https://w3id.org/min#Modality</title>
<path fill="#e7f0ff" stroke="#2b6cb0" stroke-width="1.6" d="M1245.5,-376C1245.5,-376 1198.5,-376 1198.5,-376 1192.5,-376 1186.5,-370 1186.5,-364 1186.5,-364 1186.5,-352 1186.5,-352 1186.5,-346 1192.5,-340 1198.5,-340 1198.5,-340 1245.5,-340 1245.5,-340 1251.5,-340 1257.5,-346 1257.5,-352 1257.5,-352 1257.5,-364 1257.5,-364 1257.5,-370 1251.5,-376 1245.5,-376"/>
<text text-anchor="middle" x="1222" y="-354.9" font-family="Helvetica,sans-Serif" font-size="12.00" fill="#1a365d">Modality</text>
</g>
<!-- https://w3id.org/min#Nexus -->
<g id="node7" class="node">
<title>https://w3id.org/min#Nexus</title>
<path fill="#e7f0ff" stroke="#2b6cb0" stroke-width="1.6" d="M1134.5,-376C1134.5,-376 1101.5,-376 1101.5,-376 1095.5,-376 1089.5,-370 1089.5,-364 1089.5,-364 1089.5,-352 1089.5,-352 1089.5,-346 1095.5,-340 1101.5,-340 1101.5,-340 1134.5,-340 1134.5,-340 1140.5,-340 1146.5,-346 1146.5,-352 1146.5,-352 1146.5,-364 1146.5,-364 1146.5,-370 1140.5,-376 1134.5,-376"/>
<text text-anchor="middle" x="1118" y="-354.9" font-family="Helvetica,sans-Serif" font-size="12.00" fill="#1a365d">Nexus</text>
</g>
<!-- https://w3id.org/min#Nexus&#45;&gt;https://w3id.org/opa#Agent -->
<g id="edge2" class="edge">
<title>https://w3id.org/min#Nexus&#45;&gt;https://w3id.org/opa#Agent</title>
<path fill="none" stroke="#4a5568" stroke-width="1.6" d="M1146.51,-341.03C1153.11,-337.74 1160.19,-334.52 1167,-332 1213.31,-314.88 1232.77,-331.58 1275,-306 1287.71,-298.3 1298.86,-286.1 1307.2,-275.15"/>
<polygon fill="#4a5568" stroke="#4a5568" stroke-width="1.6" points="1309.66,-276.82 1312.26,-268.2 1304.85,-273.32 1309.66,-276.82"/>
</g>
<!-- https://w3id.org/min#Nexus&#45;&gt;https://w3id.org/opa#Object -->
<g id="edge3" class="edge">
<title>https://w3id.org/min#Nexus&#45;&gt;https://w3id.org/opa#Object</title>
<path fill="none" stroke="#4a5568" stroke-width="1.6" d="M1138.25,-339.79C1149.35,-330.12 1163.22,-317.69 1175,-306 1184.97,-296.1 1195.51,-284.68 1204.32,-274.81"/>
<polygon fill="#4a5568" stroke="#4a5568" stroke-width="1.6" points="1206.71,-276.6 1210.12,-268.27 1202.26,-272.66 1206.71,-276.6"/>
</g>
<!-- https://w3id.org/min#Nexus&#45;&gt;https://w3id.org/opa#Process -->
<g id="edge4" class="edge">
<title>https://w3id.org/min#Nexus&#45;&gt;https://w3id.org/opa#Process</title>
<path fill="none" stroke="#4a5568" stroke-width="1.6" d="M1118.64,-339.97C1119.28,-322.99 1120.28,-296.7 1121.02,-277.09"/>
<polygon fill="#4a5568" stroke="#4a5568" stroke-width="1.6" points="1124,-276.95 1121.35,-268.34 1118.05,-276.72 1124,-276.95"/>
</g>
<!-- https://w3id.org/sdata/core/ValueDomain -->
<g id="node21" class="node">
<title>https://w3id.org/sdata/core/ValueDomain</title>
<path fill="#f8eeff" stroke="#6b46c1" stroke-width="1.6" d="M1037,-268C1037,-268 957,-268 957,-268 951,-268 945,-262 945,-256 945,-256 945,-244 945,-244 945,-238 951,-232 957,-232 957,-232 1037,-232 1037,-232 1043,-232 1049,-238 1049,-244 1049,-244 1049,-256 1049,-256 1049,-262 1043,-268 1037,-268"/>
<text text-anchor="middle" x="997" y="-246.9" font-family="Helvetica,sans-Serif" font-size="12.00" fill="#44337a">Value Domain</text>
</g>
<!-- https://w3id.org/min#Nexus&#45;&gt;https://w3id.org/sdata/core/ValueDomain -->
<g id="edge5" class="edge">
<title>https://w3id.org/min#Nexus&#45;&gt;https://w3id.org/sdata/core/ValueDomain</title>
<path fill="none" stroke="#4a5568" stroke-width="1.6" d="M1098.56,-339.97C1078.13,-322.07 1045.87,-293.81 1023.21,-273.96"/>
<polygon fill="#4a5568" stroke="#4a5568" stroke-width="1.6" points="1025.15,-271.7 1016.79,-268.34 1021.23,-276.18 1025.15,-271.7"/>
</g>
<!-- https://w3id.org/sdata/core/HardwareAgent -->
<g id="node12" class="node">
<title>https://w3id.org/sdata/core/HardwareAgent</title>
<path fill="#f8eeff" stroke="#6b46c1" stroke-width="1.6" d="M662.5,-52C662.5,-52 569.5,-52 569.5,-52 563.5,-52 557.5,-46 557.5,-40 557.5,-40 557.5,-28 557.5,-28 557.5,-22 563.5,-16 569.5,-16 569.5,-16 662.5,-16 662.5,-16 668.5,-16 674.5,-22 674.5,-28 674.5,-28 674.5,-40 674.5,-40 674.5,-46 668.5,-52 662.5,-52"/>
<text text-anchor="middle" x="616" y="-30.9" font-family="Helvetica,sans-Serif" font-size="12.00" fill="#44337a">Hardware Agent</text>
</g>
<!-- https://w3id.org/sdata/core/Agent&#45;&gt;https://w3id.org/sdata/core/HardwareAgent -->
<g id="edge10" class="edge">
<title>https://w3id.org/sdata/core/Agent&#45;&gt;https://w3id.org/sdata/core/HardwareAgent</title>
<path fill="none" stroke="#4a5568" stroke-width="1.6" d="M1008.72,-133.88C942.69,-117.25 776.84,-75.5 683.15,-51.91"/>
<polygon fill="#4a5568" stroke="#4a5568" stroke-width="1.6" points="683.84,-49.01 674.87,-49.82 682.39,-54.78 683.84,-49.01"/>
</g>
<!-- https://w3id.org/sdata/core/Organization -->
<g id="node15" class="node">
<title>https://w3id.org/sdata/core/Organization</title>
<path fill="#f8eeff" stroke="#6b46c1" stroke-width="1.6" d="M799,-52C799,-52 727,-52 727,-52 721,-52 715,-46 715,-40 715,-40 715,-28 715,-28 715,-22 721,-16 727,-16 727,-16 799,-16 799,-16 805,-16 811,-22 811,-28 811,-28 811,-40 811,-40 811,-46 805,-52 799,-52"/>
<text text-anchor="middle" x="763" y="-30.9" font-family="Helvetica,sans-Serif" font-size="12.00" fill="#44337a">Organization</text>
</g>
<!-- https://w3id.org/sdata/core/Agent&#45;&gt;https://w3id.org/sdata/core/Organization -->
<g id="edge11" class="edge">
<title>https://w3id.org/sdata/core/Agent&#45;&gt;https://w3id.org/sdata/core/Organization</title>
<path fill="none" stroke="#4a5568" stroke-width="1.6" d="M1008.96,-130.15C963.46,-112.55 872.84,-77.49 815.21,-55.2"/>
<polygon fill="#4a5568" stroke="#4a5568" stroke-width="1.6" points="815.95,-52.3 806.95,-52 813.81,-57.85 815.95,-52.3"/>
</g>
<!-- https://w3id.org/sdata/core/Person -->
<g id="node16" class="node">
<title>https://w3id.org/sdata/core/Person</title>
<path fill="#f8eeff" stroke="#6b46c1" stroke-width="1.6" d="M900.5,-52C900.5,-52 863.5,-52 863.5,-52 857.5,-52 851.5,-46 851.5,-40 851.5,-40 851.5,-28 851.5,-28 851.5,-22 857.5,-16 863.5,-16 863.5,-16 900.5,-16 900.5,-16 906.5,-16 912.5,-22 912.5,-28 912.5,-28 912.5,-40 912.5,-40 912.5,-46 906.5,-52 900.5,-52"/>
<text text-anchor="middle" x="882" y="-30.9" font-family="Helvetica,sans-Serif" font-size="12.00" fill="#44337a">Person</text>
</g>
<!-- https://w3id.org/sdata/core/Agent&#45;&gt;https://w3id.org/sdata/core/Person -->
<g id="edge12" class="edge">
<title>https://w3id.org/sdata/core/Agent&#45;&gt;https://w3id.org/sdata/core/Person</title>
<path fill="none" stroke="#4a5568" stroke-width="1.6" d="M1012.1,-123.97C985.51,-105.79 943.29,-76.91 914.2,-57.02"/>
<polygon fill="#4a5568" stroke="#4a5568" stroke-width="1.6" points="915.79,-54.51 907.1,-52.16 912.44,-59.42 915.79,-54.51"/>
</g>
<!-- https://w3id.org/sdata/core/SoftwareAgent -->
<g id="node20" class="node">
<title>https://w3id.org/sdata/core/SoftwareAgent</title>
<path fill="#f8eeff" stroke="#6b46c1" stroke-width="1.6" d="M1053,-52C1053,-52 965,-52 965,-52 959,-52 953,-46 953,-40 953,-40 953,-28 953,-28 953,-22 959,-16 965,-16 965,-16 1053,-16 1053,-16 1059,-16 1065,-22 1065,-28 1065,-28 1065,-40 1065,-40 1065,-46 1059,-52 1053,-52"/>
<text text-anchor="middle" x="1009" y="-30.9" font-family="Helvetica,sans-Serif" font-size="12.00" fill="#44337a">Software Agent</text>
</g>
<!-- https://w3id.org/sdata/core/Agent&#45;&gt;https://w3id.org/sdata/core/SoftwareAgent -->
<g id="edge13" class="edge">
<title>https://w3id.org/sdata/core/Agent&#45;&gt;https://w3id.org/sdata/core/SoftwareAgent</title>
<path fill="none" stroke="#4a5568" stroke-width="1.6" d="M1032.5,-123.97C1027.98,-106.84 1020.95,-80.22 1015.75,-60.56"/>
<polygon fill="#4a5568" stroke="#4a5568" stroke-width="1.6" points="1018.63,-59.8 1013.58,-52.34 1012.88,-61.32 1018.63,-59.8"/>
</g>
<!-- https://w3id.org/sdata/core/AttributeQuantityValue -->
<g id="node9" class="node">
<title>https://w3id.org/sdata/core/AttributeQuantityValue</title>
<path fill="#f8eeff" stroke="#6b46c1" stroke-width="1.6" d="M603.5,-376C603.5,-376 462.5,-376 462.5,-376 456.5,-376 450.5,-370 450.5,-364 450.5,-364 450.5,-352 450.5,-352 450.5,-346 456.5,-340 462.5,-340 462.5,-340 603.5,-340 603.5,-340 609.5,-340 615.5,-346 615.5,-352 615.5,-352 615.5,-364 615.5,-364 615.5,-370 609.5,-376 603.5,-376"/>
<text text-anchor="middle" x="533" y="-354.9" font-family="Helvetica,sans-Serif" font-size="12.00" fill="#44337a">Attribute Quantity Value</text>
</g>
<!-- https://w3id.org/sdata/core/Data -->
<g id="node10" class="node">
<title>https://w3id.org/sdata/core/Data</title>
<path fill="#f8eeff" stroke="#6b46c1" stroke-width="1.6" d="M58,-52C58,-52 28,-52 28,-52 22,-52 16,-46 16,-40 16,-40 16,-28 16,-28 16,-22 22,-16 28,-16 28,-16 58,-16 58,-16 64,-16 70,-22 70,-28 70,-28 70,-40 70,-40 70,-46 64,-52 58,-52"/>
<text text-anchor="middle" x="43" y="-30.9" font-family="Helvetica,sans-Serif" font-size="12.00" fill="#44337a">Data</text>
</g>
<!-- https://w3id.org/sdata/core/Hardware -->
<g id="node11" class="node">
<title>https://w3id.org/sdata/core/Hardware</title>
<path fill="#f8eeff" stroke="#6b46c1" stroke-width="1.6" d="M176,-52C176,-52 122,-52 122,-52 116,-52 110,-46 110,-40 110,-40 110,-28 110,-28 110,-22 116,-16 122,-16 122,-16 176,-16 176,-16 182,-16 188,-22 188,-28 188,-28 188,-40 188,-40 188,-46 182,-52 176,-52"/>
<text text-anchor="middle" x="149" y="-30.9" font-family="Helvetica,sans-Serif" font-size="12.00" fill="#44337a">Hardware</text>
</g>
<!-- https://w3id.org/sdata/core/Material -->
<g id="node13" class="node">
<title>https://w3id.org/sdata/core/Material</title>
<path fill="#f8eeff" stroke="#6b46c1" stroke-width="1.6" d="M285.5,-52C285.5,-52 240.5,-52 240.5,-52 234.5,-52 228.5,-46 228.5,-40 228.5,-40 228.5,-28 228.5,-28 228.5,-22 234.5,-16 240.5,-16 240.5,-16 285.5,-16 285.5,-16 291.5,-16 297.5,-22 297.5,-28 297.5,-28 297.5,-40 297.5,-40 297.5,-46 291.5,-52 285.5,-52"/>
<text text-anchor="middle" x="263" y="-30.9" font-family="Helvetica,sans-Serif" font-size="12.00" fill="#44337a">Material</text>
</g>
<!-- https://w3id.org/sdata/core/Object&#45;&gt;https://w3id.org/sdata/core/Data -->
<g id="edge14" class="edge">
<title>https://w3id.org/sdata/core/Object&#45;&gt;https://w3id.org/sdata/core/Data</title>
<path fill="none" stroke="#4a5568" stroke-width="1.6" d="M340.9,-130.63C334.35,-128.41 327.45,-126.1 321,-124 218.75,-90.69 191.92,-86.3 90,-52 86.19,-50.72 82.22,-49.34 78.28,-47.95"/>
<polygon fill="#4a5568" stroke="#4a5568" stroke-width="1.6" points="79.27,-45.15 70.27,-45.1 77.27,-50.75 79.27,-45.15"/>
</g>
<!-- https://w3id.org/sdata/core/Object&#45;&gt;https://w3id.org/sdata/core/Hardware -->
<g id="edge15" class="edge">
<title>https://w3id.org/sdata/core/Object&#45;&gt;https://w3id.org/sdata/core/Hardware</title>
<path fill="none" stroke="#4a5568" stroke-width="1.6" d="M340.6,-126.48C302.36,-108.23 236.45,-76.76 192.79,-55.91"/>
<polygon fill="#4a5568" stroke="#4a5568" stroke-width="1.6" points="193.86,-53.12 184.91,-52.15 191.3,-58.49 193.86,-53.12"/>
</g>
<!-- https://w3id.org/sdata/core/Object&#45;&gt;https://w3id.org/sdata/core/Material -->
<g id="edge16" class="edge">
<title>https://w3id.org/sdata/core/Object&#45;&gt;https://w3id.org/sdata/core/Material</title>
<path fill="none" stroke="#4a5568" stroke-width="1.6" d="M353.65,-123.97C335.57,-106.23 307.12,-78.3 286.91,-58.47"/>
<polygon fill="#4a5568" stroke="#4a5568" stroke-width="1.6" points="288.82,-56.17 280.67,-52.34 284.65,-60.42 288.82,-56.17"/>
</g>
<!-- https://w3id.org/sdata/core/Product -->
<g id="node18" class="node">
<title>https://w3id.org/sdata/core/Product</title>
<path fill="#f8eeff" stroke="#6b46c1" stroke-width="1.6" d="M392,-52C392,-52 350,-52 350,-52 344,-52 338,-46 338,-40 338,-40 338,-28 338,-28 338,-22 344,-16 350,-16 350,-16 392,-16 392,-16 398,-16 404,-22 404,-28 404,-28 404,-40 404,-40 404,-46 398,-52 392,-52"/>
<text text-anchor="middle" x="371" y="-30.9" font-family="Helvetica,sans-Serif" font-size="12.00" fill="#44337a">Product</text>
</g>
<!-- https://w3id.org/sdata/core/Object&#45;&gt;https://w3id.org/sdata/core/Product -->
<g id="edge17" class="edge">
<title>https://w3id.org/sdata/core/Object&#45;&gt;https://w3id.org/sdata/core/Product</title>
<path fill="none" stroke="#4a5568" stroke-width="1.6" d="M371,-123.97C371,-106.99 371,-80.7 371,-61.09"/>
<polygon fill="#4a5568" stroke="#4a5568" stroke-width="1.6" points="373.98,-60.84 371,-52.34 368.03,-60.84 373.98,-60.84"/>
</g>
<!-- https://w3id.org/sdata/core/Software -->
<g id="node19" class="node">
<title>https://w3id.org/sdata/core/Software</title>
<path fill="#f8eeff" stroke="#6b46c1" stroke-width="1.6" d="M505.5,-52C505.5,-52 456.5,-52 456.5,-52 450.5,-52 444.5,-46 444.5,-40 444.5,-40 444.5,-28 444.5,-28 444.5,-22 450.5,-16 456.5,-16 456.5,-16 505.5,-16 505.5,-16 511.5,-16 517.5,-22 517.5,-28 517.5,-28 517.5,-40 517.5,-40 517.5,-46 511.5,-52 505.5,-52"/>
<text text-anchor="middle" x="481" y="-30.9" font-family="Helvetica,sans-Serif" font-size="12.00" fill="#44337a">Software</text>
</g>
<!-- https://w3id.org/sdata/core/Object&#45;&gt;https://w3id.org/sdata/core/Software -->
<g id="edge18" class="edge">
<title>https://w3id.org/sdata/core/Object&#45;&gt;https://w3id.org/sdata/core/Software</title>
<path fill="none" stroke="#4a5568" stroke-width="1.6" d="M388.67,-123.97C407.09,-106.23 436.07,-78.3 456.64,-58.47"/>
<polygon fill="#4a5568" stroke="#4a5568" stroke-width="1.6" points="458.95,-60.38 463.01,-52.34 454.82,-56.1 458.95,-60.38"/>
</g>
</g>
</svg>
