<?xml version="1.0" encoding="UTF-8" standalone="no"?>
<!DOCTYPE svg PUBLIC "-//W3C//DTD SVG 1.1//EN"
 "http://www.w3.org/Graphics/SVG/1.1/DTD/svg11.dtd">
<!-- Generated by graphviz version 2.43.0 (0)
 -->
<!-- Pages: 1 -->
<svg width="2497pt" height="803pt"
 viewBox="0.00 0.00 2497.40 803.40" xmlns="http://www.w3.org/2000/svg" xmlns:xlink="http://www.w3.org/1999/xlink">
<g id="graph0" class="graph" transform="scale(1 1) rotate(0) translate(25.2 778.2)">
<polygon fill="#fafbfc" stroke="transparent" points="-25.2,25.2 -25.2,-778.2 2472.2,-778.2 2472.2,25.2 -25.2,25.2"/>
<text text-anchor="middle" x="1223.5" y="-733" font-family="Helvetica,sans-Serif" font-size="20.00">sdata Class Hierarchy (BFO/PROV base hierarchy &#45;&gt; sdata classes)</text>
<g id="clust1" class="cluster">
<title>cluster_bfo_context</title>
<path fill="#fafbfc" stroke="#f3c887" d="M589,-173C589,-173 1375,-173 1375,-173 1381,-173 1387,-179 1387,-185 1387,-185 1387,-703 1387,-703 1387,-709 1381,-715 1375,-715 1375,-715 589,-715 589,-715 583,-715 577,-709 577,-703 577,-703 577,-185 577,-185 577,-179 583,-173 589,-173"/>
<text text-anchor="middle" x="982" y="-695" font-family="Helvetica,sans-Serif" font-size="20.00">BFO hierarchy</text>
</g>
<g id="clust2" class="cluster">
<title>cluster_prov_context</title>
<path fill="#fafbfc" stroke="#9ad9bf" d="M2235,-173C2235,-173 2383,-173 2383,-173 2389,-173 2395,-179 2395,-185 2395,-185 2395,-243 2395,-243 2395,-249 2389,-255 2383,-255 2383,-255 2235,-255 2235,-255 2229,-255 2223,-249 2223,-243 2223,-243 2223,-185 2223,-185 2223,-179 2229,-173 2235,-173"/>
<text text-anchor="middle" x="2309" y="-235" font-family="Helvetica,sans-Serif" font-size="20.00">PROV hierarchy</text>
</g>
<g id="clust3" class="cluster">
<title>cluster_legend</title>
<path fill="#fafbfc" stroke="#cbd5e0" d="M1817,-510C1817,-510 2033,-510 2033,-510 2039,-510 2045,-516 2045,-522 2045,-522 2045,-703 2045,-703 2045,-709 2039,-715 2033,-715 2033,-715 1817,-715 1817,-715 1811,-715 1805,-709 1805,-703 1805,-703 1805,-522 1805,-522 1805,-516 1811,-510 1817,-510"/>
<text text-anchor="middle" x="1925" y="-695" font-family="Helvetica,sans-Serif" font-size="20.00">Legend</text>
</g>
<g id="clust4" class="cluster">
<title>cluster_sdata</title>
<path fill="#fafbfc" stroke="#90b5e8" d="M20,-8C20,-8 2427,-8 2427,-8 2433,-8 2439,-14 2439,-20 2439,-20 2439,-124 2439,-124 2439,-130 2433,-136 2427,-136 2427,-136 20,-136 20,-136 14,-136 8,-130 8,-124 8,-124 8,-20 8,-20 8,-14 14,-8 20,-8"/>
<text text-anchor="middle" x="1223.5" y="-116" font-family="Helvetica,sans-Serif" font-size="20.00">sdata classes</text>
</g>
<g id="clust5" class="cluster">
<title>cluster_dual_rank_MaterialProcess</title>
</g>
<g id="clust6" class="cluster">
<title>cluster_dual_rank_MaterialSite</title>
</g>
<g id="clust7" class="cluster">
<title>cluster_dual_rank_Material</title>
</g>
<g id="clust8" class="cluster">
<title>cluster_dual_rank_MaterialAgent</title>
</g>
<g id="clust9" class="cluster">
<title>cluster_dual_rank_MaterialArtifact</title>
</g>
<!-- http://purl.obolibrary.org/obo/BFO_0000001 -->
<g id="node1" class="node">
<title>http://purl.obolibrary.org/obo/BFO_0000001</title>
<path fill="#fff4e5" stroke="#b7791f" stroke-width="1.6" d="M1023,-677C1023,-677 993,-677 993,-677 987,-677 981,-671 981,-665 981,-665 981,-653 981,-653 981,-647 987,-641 993,-641 993,-641 1023,-641 1023,-641 1029,-641 1035,-647 1035,-653 1035,-653 1035,-665 1035,-665 1035,-671 1029,-677 1023,-677"/>
<text text-anchor="middle" x="1008" y="-655.9" font-family="Helvetica,sans-Serif" font-size="12.00" fill="#7b341e">entity</text>
</g>
<!-- http://purl.obolibrary.org/obo/BFO_0000002 -->
<g id="node2" class="node">
<title>http://purl.obolibrary.org/obo/BFO_0000002</title>
<path fill="#fff4e5" stroke="#b7791f" stroke-width="1.6" d="M969,-554C969,-554 909,-554 909,-554 903,-554 897,-548 897,-542 897,-542 897,-530 897,-530 897,-524 903,-518 909,-518 909,-518 969,-518 969,-518 975,-518 981,-524 981,-530 981,-530 981,-542 981,-542 981,-548 975,-554 969,-554"/>
<text text-anchor="middle" x="939" y="-532.9" font-family="Helvetica,sans-Serif" font-size="12.00" fill="#7b341e">continuant</text>
</g>
<!-- http://purl.obolibrary.org/obo/BFO_0000001&#45;&gt;http://purl.obolibrary.org/obo/BFO_0000002 -->
<g id="edge8" class="edge">
<title>http://purl.obolibrary.org/obo/BFO_0000001&#45;&gt;http://purl.obolibrary.org/obo/BFO_0000002</title>
<path fill="none" stroke="#4a5568" stroke-width="1.6" d="M998.26,-640.92C986.51,-620.32 966.67,-585.52 953.21,-561.92"/>
<polygon fill="#4a5568" stroke="#4a5568" stroke-width="1.6" points="955.71,-560.29 948.91,-554.38 950.54,-563.24 955.71,-560.29"/>
</g>
<!-- http://purl.obolibrary.org/obo/BFO_0000003 -->
<g id="node3" class="node">
<title>http://purl.obolibrary.org/obo/BFO_0000003</title>
<path fill="#fff4e5" stroke="#b7791f" stroke-width="1.6" d="M1104,-554C1104,-554 1050,-554 1050,-554 1044,-554 1038,-548 1038,-542 1038,-542 1038,-530 1038,-530 1038,-524 1044,-518 1050,-518 1050,-518 1104,-518 1104,-518 1110,-518 1116,-524 1116,-530 1116,-530 1116,-542 1116,-542 1116,-548 1110,-554 1104,-554"/>
<text text-anchor="middle" x="1077" y="-532.9" font-family="Helvetica,sans-Serif" font-size="12.00" fill="#7b341e">occurrent</text>
</g>
<!-- http://purl.obolibrary.org/obo/BFO_0000001&#45;&gt;http://purl.obolibrary.org/obo/BFO_0000003 -->
<g id="edge9" class="edge">
<title>http://purl.obolibrary.org/obo/BFO_0000001&#45;&gt;http://purl.obolibrary.org/obo/BFO_0000003</title>
<path fill="none" stroke="#4a5568" stroke-width="1.6" d="M1017.74,-640.92C1029.49,-620.32 1049.33,-585.52 1062.79,-561.92"/>
<polygon fill="#4a5568" stroke="#4a5568" stroke-width="1.6" points="1065.46,-563.24 1067.09,-554.38 1060.29,-560.29 1065.46,-563.24"/>
</g>
<!-- http://purl.obolibrary.org/obo/BFO_0000004 -->
<g id="node4" class="node">
<title>http://purl.obolibrary.org/obo/BFO_0000004</title>
<path fill="#fff4e5" stroke="#b7791f" stroke-width="1.6" d="M998.5,-445C998.5,-445 859.5,-445 859.5,-445 853.5,-445 847.5,-439 847.5,-433 847.5,-433 847.5,-421 847.5,-421 847.5,-415 853.5,-409 859.5,-409 859.5,-409 998.5,-409 998.5,-409 1004.5,-409 1010.5,-415 1010.5,-421 1010.5,-421 1010.5,-433 1010.5,-433 1010.5,-439 1004.5,-445 998.5,-445"/>
<text text-anchor="middle" x="929" y="-423.9" font-family="Helvetica,sans-Serif" font-size="12.00" fill="#7b341e">independent continuant</text>
</g>
<!-- http://purl.obolibrary.org/obo/BFO_0000002&#45;&gt;http://purl.obolibrary.org/obo/BFO_0000004 -->
<g id="edge10" class="edge">
<title>http://purl.obolibrary.org/obo/BFO_0000002&#45;&gt;http://purl.obolibrary.org/obo/BFO_0000004</title>
<path fill="none" stroke="#4a5568" stroke-width="1.6" d="M937.39,-517.81C935.78,-500.49 933.26,-473.57 931.4,-453.71"/>
<polygon fill="#4a5568" stroke="#4a5568" stroke-width="1.6" points="934.36,-453.33 930.6,-445.15 928.43,-453.89 934.36,-453.33"/>
</g>
<!-- http://purl.obolibrary.org/obo/BFO_0000020 -->
<g id="node7" class="node">
<title>http://purl.obolibrary.org/obo/BFO_0000020</title>
<path fill="#fff4e5" stroke="#b7791f" stroke-width="1.6" d="M795,-445C795,-445 597,-445 597,-445 591,-445 585,-439 585,-433 585,-433 585,-421 585,-421 585,-415 591,-409 597,-409 597,-409 795,-409 795,-409 801,-409 807,-415 807,-421 807,-421 807,-433 807,-433 807,-439 801,-445 795,-445"/>
<text text-anchor="middle" x="696" y="-423.9" font-family="Helvetica,sans-Serif" font-size="12.00" fill="#7b341e">specifically dependent continuant</text>
</g>
<!-- http://purl.obolibrary.org/obo/BFO_0000002&#45;&gt;http://purl.obolibrary.org/obo/BFO_0000020 -->
<g id="edge11" class="edge">
<title>http://purl.obolibrary.org/obo/BFO_0000002&#45;&gt;http://purl.obolibrary.org/obo/BFO_0000020</title>
<path fill="none" stroke="#4a5568" stroke-width="1.6" d="M900.23,-517.93C857.38,-499.06 788.38,-468.68 742.62,-448.53"/>
<polygon fill="#4a5568" stroke="#4a5568" stroke-width="1.6" points="743.61,-445.71 734.63,-445.01 741.21,-451.16 743.61,-445.71"/>
</g>
<!-- http://purl.obolibrary.org/obo/BFO_0000031 -->
<g id="node10" class="node">
<title>http://purl.obolibrary.org/obo/BFO_0000031</title>
<path fill="#fff4e5" stroke="#b7791f" stroke-width="1.6" d="M1367,-445C1367,-445 1169,-445 1169,-445 1163,-445 1157,-439 1157,-433 1157,-433 1157,-421 1157,-421 1157,-415 1163,-409 1169,-409 1169,-409 1367,-409 1367,-409 1373,-409 1379,-415 1379,-421 1379,-421 1379,-433 1379,-433 1379,-439 1373,-445 1367,-445"/>
<text text-anchor="middle" x="1268" y="-423.9" font-family="Helvetica,sans-Serif" font-size="12.00" fill="#7b341e">generically dependent continuant</text>
</g>
<!-- http://purl.obolibrary.org/obo/BFO_0000002&#45;&gt;http://purl.obolibrary.org/obo/BFO_0000031 -->
<g id="edge12" class="edge">
<title>http://purl.obolibrary.org/obo/BFO_0000002&#45;&gt;http://purl.obolibrary.org/obo/BFO_0000031</title>
<path fill="none" stroke="#4a5568" stroke-width="1.6" d="M981,-521.34C1038.4,-502.67 1141.7,-469.08 1207.45,-447.69"/>
<polygon fill="#4a5568" stroke="#4a5568" stroke-width="1.6" points="1208.51,-450.48 1215.68,-445.02 1206.67,-444.82 1208.51,-450.48"/>
</g>
<!-- http://purl.obolibrary.org/obo/BFO_0000015 -->
<g id="node5" class="node">
<title>http://purl.obolibrary.org/obo/BFO_0000015</title>
<path fill="#fff4e5" stroke="#b7791f" stroke-width="1.6" d="M1105,-445C1105,-445 1063,-445 1063,-445 1057,-445 1051,-439 1051,-433 1051,-433 1051,-421 1051,-421 1051,-415 1057,-409 1063,-409 1063,-409 1105,-409 1105,-409 1111,-409 1117,-415 1117,-421 1117,-421 1117,-433 1117,-433 1117,-439 1111,-445 1105,-445"/>
<text text-anchor="middle" x="1084" y="-423.9" font-family="Helvetica,sans-Serif" font-size="12.00" fill="#7b341e">process</text>
</g>
<!-- http://purl.obolibrary.org/obo/BFO_0000003&#45;&gt;http://purl.obolibrary.org/obo/BFO_0000015 -->
<g id="edge13" class="edge">
<title>http://purl.obolibrary.org/obo/BFO_0000003&#45;&gt;http://purl.obolibrary.org/obo/BFO_0000015</title>
<path fill="none" stroke="#4a5568" stroke-width="1.6" d="M1078.12,-517.81C1079.26,-500.49 1081.02,-473.57 1082.32,-453.71"/>
<polygon fill="#4a5568" stroke="#4a5568" stroke-width="1.6" points="1085.29,-453.82 1082.88,-445.15 1079.35,-453.44 1085.29,-453.82"/>
</g>
<!-- http://purl.obolibrary.org/obo/BFO_0000040 -->
<g id="node11" class="node">
<title>http://purl.obolibrary.org/obo/BFO_0000040</title>
<path fill="#fff4e5" stroke="#b7791f" stroke-width="1.6" d="M1000,-336C1000,-336 916,-336 916,-336 910,-336 904,-330 904,-324 904,-324 904,-312 904,-312 904,-306 910,-300 916,-300 916,-300 1000,-300 1000,-300 1006,-300 1012,-306 1012,-312 1012,-312 1012,-324 1012,-324 1012,-330 1006,-336 1000,-336"/>
<text text-anchor="middle" x="958" y="-314.9" font-family="Helvetica,sans-Serif" font-size="12.00" fill="#7b341e">material entity</text>
</g>
<!-- http://purl.obolibrary.org/obo/BFO_0000004&#45;&gt;http://purl.obolibrary.org/obo/BFO_0000040 -->
<g id="edge14" class="edge">
<title>http://purl.obolibrary.org/obo/BFO_0000004&#45;&gt;http://purl.obolibrary.org/obo/BFO_0000040</title>
<path fill="none" stroke="#4a5568" stroke-width="1.6" d="M933.66,-408.81C938.37,-391.42 945.72,-364.33 951.1,-344.45"/>
<polygon fill="#4a5568" stroke="#4a5568" stroke-width="1.6" points="954,-345.13 953.35,-336.15 948.26,-343.57 954,-345.13"/>
</g>
<!-- http://purl.obolibrary.org/obo/BFO_0000141 -->
<g id="node12" class="node">
<title>http://purl.obolibrary.org/obo/BFO_0000141</title>
<path fill="#fff4e5" stroke="#b7791f" stroke-width="1.6" d="M851.5,-336C851.5,-336 752.5,-336 752.5,-336 746.5,-336 740.5,-330 740.5,-324 740.5,-324 740.5,-312 740.5,-312 740.5,-306 746.5,-300 752.5,-300 752.5,-300 851.5,-300 851.5,-300 857.5,-300 863.5,-306 863.5,-312 863.5,-312 863.5,-324 863.5,-324 863.5,-330 857.5,-336 851.5,-336"/>
<text text-anchor="middle" x="802" y="-314.9" font-family="Helvetica,sans-Serif" font-size="12.00" fill="#7b341e">immaterial entity</text>
</g>
<!-- http://purl.obolibrary.org/obo/BFO_0000004&#45;&gt;http://purl.obolibrary.org/obo/BFO_0000141 -->
<g id="edge15" class="edge">
<title>http://purl.obolibrary.org/obo/BFO_0000004&#45;&gt;http://purl.obolibrary.org/obo/BFO_0000141</title>
<path fill="none" stroke="#4a5568" stroke-width="1.6" d="M908.6,-408.81C887.02,-390.64 852.89,-361.88 829.08,-341.82"/>
<polygon fill="#4a5568" stroke="#4a5568" stroke-width="1.6" points="830.77,-339.35 822.35,-336.15 826.94,-343.9 830.77,-339.35"/>
</g>
<!-- https://w3id.org/sdata/core/InformationProcess -->
<g id="node17" class="node">
<title>https://w3id.org/sdata/core/InformationProcess</title>
<path fill="#e8f1ff" stroke="#2b6cb0" stroke-width="1.6" d="M1277.5,-60C1277.5,-60 1162.5,-60 1162.5,-60 1156.5,-60 1150.5,-54 1150.5,-48 1150.5,-48 1150.5,-36 1150.5,-36 1150.5,-30 1156.5,-24 1162.5,-24 1162.5,-24 1277.5,-24 1277.5,-24 1283.5,-24 1289.5,-30 1289.5,-36 1289.5,-36 1289.5,-48 1289.5,-48 1289.5,-54 1283.5,-60 1277.5,-60"/>
<text text-anchor="middle" x="1220" y="-38.9" font-family="Helvetica,sans-Serif" font-size="12.00" fill="#1a365d">Information Process</text>
</g>
<!-- http://purl.obolibrary.org/obo/BFO_0000015&#45;&gt;https://w3id.org/sdata/core/InformationProcess -->
<g id="edge16" class="edge">
<title>http://purl.obolibrary.org/obo/BFO_0000015&#45;&gt;https://w3id.org/sdata/core/InformationProcess</title>
<path fill="none" stroke="#4a5568" stroke-width="1.6" d="M1098.22,-408.82C1120.8,-380.55 1164.5,-321.6 1186,-264 1211.17,-196.58 1217.72,-110.9 1219.41,-68.77"/>
<polygon fill="#4a5568" stroke="#4a5568" stroke-width="1.6" points="1222.39,-68.83 1219.71,-60.23 1216.44,-68.62 1222.39,-68.83"/>
</g>
<!-- https://w3id.org/sdata/core/MaterialProcess -->
<g id="node18" class="node">
<title>https://w3id.org/sdata/core/MaterialProcess</title>
<path fill="#e8f1ff" stroke="#2b6cb0" stroke-width="1.6" d="M1475,-60C1475,-60 1381,-60 1381,-60 1375,-60 1369,-54 1369,-48 1369,-48 1369,-36 1369,-36 1369,-30 1375,-24 1381,-24 1381,-24 1475,-24 1475,-24 1481,-24 1487,-30 1487,-36 1487,-36 1487,-48 1487,-48 1487,-54 1481,-60 1475,-60"/>
<text text-anchor="middle" x="1428" y="-38.9" font-family="Helvetica,sans-Serif" font-size="12.00" fill="#1a365d">Material Process</text>
</g>
<!-- http://purl.obolibrary.org/obo/BFO_0000015&#45;&gt;https://w3id.org/sdata/core/MaterialProcess -->
<g id="edge17" class="edge">
<title>http://purl.obolibrary.org/obo/BFO_0000015&#45;&gt;https://w3id.org/sdata/core/MaterialProcess</title>
<path fill="none" stroke="#4a5568" stroke-width="1.6" d="M1109.58,-408.98C1123.77,-399.1 1141.44,-386.06 1156,-373 1267.61,-272.9 1372.39,-125.39 1411.66,-67.55"/>
<polygon fill="#4a5568" stroke="#4a5568" stroke-width="1.6" points="1414.26,-69.02 1416.55,-60.31 1409.33,-65.69 1414.26,-69.02"/>
</g>
<!-- http://purl.obolibrary.org/obo/BFO_0000017 -->
<g id="node6" class="node">
<title>http://purl.obolibrary.org/obo/BFO_0000017</title>
<path fill="#fff4e5" stroke="#b7791f" stroke-width="1.6" d="M688.5,-336C688.5,-336 597.5,-336 597.5,-336 591.5,-336 585.5,-330 585.5,-324 585.5,-324 585.5,-312 585.5,-312 585.5,-306 591.5,-300 597.5,-300 597.5,-300 688.5,-300 688.5,-300 694.5,-300 700.5,-306 700.5,-312 700.5,-312 700.5,-324 700.5,-324 700.5,-330 694.5,-336 688.5,-336"/>
<text text-anchor="middle" x="643" y="-314.9" font-family="Helvetica,sans-Serif" font-size="12.00" fill="#7b341e">realizable entity</text>
</g>
<!-- http://purl.obolibrary.org/obo/BFO_0000023 -->
<g id="node8" class="node">
<title>http://purl.obolibrary.org/obo/BFO_0000023</title>
<path fill="#fff4e5" stroke="#b7791f" stroke-width="1.6" d="M642,-217C642,-217 612,-217 612,-217 606,-217 600,-211 600,-205 600,-205 600,-193 600,-193 600,-187 606,-181 612,-181 612,-181 642,-181 642,-181 648,-181 654,-187 654,-193 654,-193 654,-205 654,-205 654,-211 648,-217 642,-217"/>
<text text-anchor="middle" x="627" y="-195.9" font-family="Helvetica,sans-Serif" font-size="12.00" fill="#7b341e">role</text>
</g>
<!-- http://purl.obolibrary.org/obo/BFO_0000017&#45;&gt;http://purl.obolibrary.org/obo/BFO_0000023 -->
<g id="edge18" class="edge">
<title>http://purl.obolibrary.org/obo/BFO_0000017&#45;&gt;http://purl.obolibrary.org/obo/BFO_0000023</title>
<path fill="none" stroke="#4a5568" stroke-width="1.6" d="M640.67,-299.99C638,-280.4 633.57,-248.04 630.48,-225.46"/>
<polygon fill="#4a5568" stroke="#4a5568" stroke-width="1.6" points="633.43,-225.05 629.33,-217.03 627.53,-225.86 633.43,-225.05"/>
</g>
<!-- http://purl.obolibrary.org/obo/BFO_0000020&#45;&gt;http://purl.obolibrary.org/obo/BFO_0000017 -->
<g id="edge19" class="edge">
<title>http://purl.obolibrary.org/obo/BFO_0000020&#45;&gt;http://purl.obolibrary.org/obo/BFO_0000017</title>
<path fill="none" stroke="#4a5568" stroke-width="1.6" d="M687.48,-408.81C678.79,-391.26 665.21,-363.84 655.34,-343.91"/>
<polygon fill="#4a5568" stroke="#4a5568" stroke-width="1.6" points="657.93,-342.45 651.49,-336.15 652.6,-345.09 657.93,-342.45"/>
</g>
<!-- https://w3id.org/sdata/core/Role -->
<g id="node31" class="node">
<title>https://w3id.org/sdata/core/Role</title>
<path fill="#e8f1ff" stroke="#2b6cb0" stroke-width="1.6" d="M276,-60C276,-60 246,-60 246,-60 240,-60 234,-54 234,-48 234,-48 234,-36 234,-36 234,-30 240,-24 246,-24 246,-24 276,-24 276,-24 282,-24 288,-30 288,-36 288,-36 288,-48 288,-48 288,-54 282,-60 276,-60"/>
<text text-anchor="middle" x="261" y="-38.9" font-family="Helvetica,sans-Serif" font-size="12.00" fill="#1a365d">Role</text>
</g>
<!-- http://purl.obolibrary.org/obo/BFO_0000023&#45;&gt;https://w3id.org/sdata/core/Role -->
<g id="edge20" class="edge">
<title>http://purl.obolibrary.org/obo/BFO_0000023&#45;&gt;https://w3id.org/sdata/core/Role</title>
<path fill="none" stroke="#4a5568" stroke-width="1.6" d="M599.81,-195.77C531.37,-189.7 354.18,-170.92 308,-136 286.06,-119.41 273.6,-89.72 267.1,-68.34"/>
<polygon fill="#4a5568" stroke="#4a5568" stroke-width="1.6" points="269.93,-67.4 264.75,-60.04 264.2,-69.03 269.93,-67.4"/>
</g>
<!-- http://purl.obolibrary.org/obo/BFO_0000029 -->
<g id="node9" class="node">
<title>http://purl.obolibrary.org/obo/BFO_0000029</title>
<path fill="#fff4e5" stroke="#b7791f" stroke-width="1.6" d="M757,-217C757,-217 727,-217 727,-217 721,-217 715,-211 715,-205 715,-205 715,-193 715,-193 715,-187 721,-181 727,-181 727,-181 757,-181 757,-181 763,-181 769,-187 769,-193 769,-193 769,-205 769,-205 769,-211 763,-217 757,-217"/>
<text text-anchor="middle" x="742" y="-195.9" font-family="Helvetica,sans-Serif" font-size="12.00" fill="#7b341e">site</text>
</g>
<!-- https://w3id.org/sdata/core/MaterialSite -->
<g id="node20" class="node">
<title>https://w3id.org/sdata/core/MaterialSite</title>
<path fill="#e8f1ff" stroke="#2b6cb0" stroke-width="1.6" d="M518,-60C518,-60 446,-60 446,-60 440,-60 434,-54 434,-48 434,-48 434,-36 434,-36 434,-30 440,-24 446,-24 446,-24 518,-24 518,-24 524,-24 530,-30 530,-36 530,-36 530,-48 530,-48 530,-54 524,-60 518,-60"/>
<text text-anchor="middle" x="482" y="-38.9" font-family="Helvetica,sans-Serif" font-size="12.00" fill="#1a365d">Material Site</text>
</g>
<!-- http://purl.obolibrary.org/obo/BFO_0000029&#45;&gt;https://w3id.org/sdata/core/MaterialSite -->
<g id="edge21" class="edge">
<title>http://purl.obolibrary.org/obo/BFO_0000029&#45;&gt;https://w3id.org/sdata/core/MaterialSite</title>
<path fill="none" stroke="#4a5568" stroke-width="1.6" d="M714.74,-188.19C676.96,-174.38 610.86,-149.41 589,-136 556.82,-116.26 524.78,-86.78 504.28,-66.33"/>
<polygon fill="#4a5568" stroke="#4a5568" stroke-width="1.6" points="506.13,-63.97 498.04,-60.03 501.91,-68.16 506.13,-63.97"/>
</g>
<!-- https://w3id.org/sdata/core/InformationSite -->
<g id="node19" class="node">
<title>https://w3id.org/sdata/core/InformationSite</title>
<path fill="#e8f1ff" stroke="#2b6cb0" stroke-width="1.6" d="M714.5,-60C714.5,-60 621.5,-60 621.5,-60 615.5,-60 609.5,-54 609.5,-48 609.5,-48 609.5,-36 609.5,-36 609.5,-30 615.5,-24 621.5,-24 621.5,-24 714.5,-24 714.5,-24 720.5,-24 726.5,-30 726.5,-36 726.5,-36 726.5,-48 726.5,-48 726.5,-54 720.5,-60 714.5,-60"/>
<text text-anchor="middle" x="668" y="-38.9" font-family="Helvetica,sans-Serif" font-size="12.00" fill="#1a365d">Information Site</text>
</g>
<!-- http://purl.obolibrary.org/obo/BFO_0000031&#45;&gt;https://w3id.org/sdata/core/InformationSite -->
<g id="edge26" class="edge">
<title>http://purl.obolibrary.org/obo/BFO_0000031&#45;&gt;https://w3id.org/sdata/core/InformationSite</title>
<path fill="none" stroke="#4a5568" stroke-width="1.6" d="M1235.98,-408.84C1121.12,-347.26 736.35,-140.84 731,-136 709.42,-116.48 691.6,-88.13 680.48,-67.86"/>
<polygon fill="#4a5568" stroke="#4a5568" stroke-width="1.6" points="683.05,-66.35 676.41,-60.26 677.8,-69.16 683.05,-66.35"/>
</g>
<!-- https://w3id.org/sdata/core/Information -->
<g id="node21" class="node">
<title>https://w3id.org/sdata/core/Information</title>
<path fill="#e8f1ff" stroke="#2b6cb0" stroke-width="1.6" d="M1098,-60C1098,-60 1032,-60 1032,-60 1026,-60 1020,-54 1020,-48 1020,-48 1020,-36 1020,-36 1020,-30 1026,-24 1032,-24 1032,-24 1098,-24 1098,-24 1104,-24 1110,-30 1110,-36 1110,-36 1110,-48 1110,-48 1110,-54 1104,-60 1098,-60"/>
<text text-anchor="middle" x="1065" y="-38.9" font-family="Helvetica,sans-Serif" font-size="12.00" fill="#1a365d">Information</text>
</g>
<!-- http://purl.obolibrary.org/obo/BFO_0000031&#45;&gt;https://w3id.org/sdata/core/Information -->
<g id="edge23" class="edge">
<title>http://purl.obolibrary.org/obo/BFO_0000031&#45;&gt;https://w3id.org/sdata/core/Information</title>
<path fill="none" stroke="#4a5568" stroke-width="1.6" d="M1258.39,-408.55C1242.1,-378.93 1208.1,-316.85 1180,-264 1142.31,-193.11 1098.81,-108.83 1077.75,-67.85"/>
<polygon fill="#4a5568" stroke="#4a5568" stroke-width="1.6" points="1080.37,-66.45 1073.84,-60.25 1075.08,-69.17 1080.37,-66.45"/>
</g>
<!-- https://w3id.org/sdata/core/InformationAgent -->
<g id="node23" class="node">
<title>https://w3id.org/sdata/core/InformationAgent</title>
<path fill="#e8f1ff" stroke="#2b6cb0" stroke-width="1.6" d="M2322.5,-60C2322.5,-60 2217.5,-60 2217.5,-60 2211.5,-60 2205.5,-54 2205.5,-48 2205.5,-48 2205.5,-36 2205.5,-36 2205.5,-30 2211.5,-24 2217.5,-24 2217.5,-24 2322.5,-24 2322.5,-24 2328.5,-24 2334.5,-30 2334.5,-36 2334.5,-36 2334.5,-48 2334.5,-48 2334.5,-54 2328.5,-60 2322.5,-60"/>
<text text-anchor="middle" x="2270" y="-38.9" font-family="Helvetica,sans-Serif" font-size="12.00" fill="#1a365d">Information Agent</text>
</g>
<!-- http://purl.obolibrary.org/obo/BFO_0000031&#45;&gt;https://w3id.org/sdata/core/InformationAgent -->
<g id="edge24" class="edge">
<title>http://purl.obolibrary.org/obo/BFO_0000031&#45;&gt;https://w3id.org/sdata/core/InformationAgent</title>
<path fill="none" stroke="#4a5568" stroke-width="1.6" d="M1334.99,-408.91C1375.07,-398.63 1426.99,-385.21 1473,-373 1779.51,-291.69 1867.71,-288.04 2146,-136 2182.54,-116.04 2220.21,-86.23 2244.29,-65.78"/>
<polygon fill="#4a5568" stroke="#4a5568" stroke-width="1.6" points="2246.5,-67.8 2251.01,-60.01 2242.62,-63.29 2246.5,-67.8"/>
</g>
<!-- https://w3id.org/sdata/core/InformationArtifact -->
<g id="node25" class="node">
<title>https://w3id.org/sdata/core/InformationArtifact</title>
<path fill="#e8f1ff" stroke="#2b6cb0" stroke-width="1.6" d="M1850,-60C1850,-60 1736,-60 1736,-60 1730,-60 1724,-54 1724,-48 1724,-48 1724,-36 1724,-36 1724,-30 1730,-24 1736,-24 1736,-24 1850,-24 1850,-24 1856,-24 1862,-30 1862,-36 1862,-36 1862,-48 1862,-48 1862,-54 1856,-60 1850,-60"/>
<text text-anchor="middle" x="1793" y="-38.9" font-family="Helvetica,sans-Serif" font-size="12.00" fill="#1a365d">Information Artifact</text>
</g>
<!-- http://purl.obolibrary.org/obo/BFO_0000031&#45;&gt;https://w3id.org/sdata/core/InformationArtifact -->
<g id="edge25" class="edge">
<title>http://purl.obolibrary.org/obo/BFO_0000031&#45;&gt;https://w3id.org/sdata/core/InformationArtifact</title>
<path fill="none" stroke="#4a5568" stroke-width="1.6" d="M1291.58,-408.8C1376.56,-346.81 1667.12,-134.83 1762.44,-65.29"/>
<polygon fill="#4a5568" stroke="#4a5568" stroke-width="1.6" points="1764.37,-67.57 1769.49,-60.15 1760.87,-62.76 1764.37,-67.57"/>
</g>
<!-- https://w3id.org/sdata/core/Identifier -->
<g id="node29" class="node">
<title>https://w3id.org/sdata/core/Identifier</title>
<path fill="#e8f1ff" stroke="#2b6cb0" stroke-width="1.6" d="M1965.5,-60C1965.5,-60 1914.5,-60 1914.5,-60 1908.5,-60 1902.5,-54 1902.5,-48 1902.5,-48 1902.5,-36 1902.5,-36 1902.5,-30 1908.5,-24 1914.5,-24 1914.5,-24 1965.5,-24 1965.5,-24 1971.5,-24 1977.5,-30 1977.5,-36 1977.5,-36 1977.5,-48 1977.5,-48 1977.5,-54 1971.5,-60 1965.5,-60"/>
<text text-anchor="middle" x="1940" y="-38.9" font-family="Helvetica,sans-Serif" font-size="12.00" fill="#1a365d">Identifier</text>
</g>
<!-- http://purl.obolibrary.org/obo/BFO_0000031&#45;&gt;https://w3id.org/sdata/core/Identifier -->
<g id="edge22" class="edge">
<title>http://purl.obolibrary.org/obo/BFO_0000031&#45;&gt;https://w3id.org/sdata/core/Identifier</title>
<path fill="none" stroke="#4a5568" stroke-width="1.6" d="M1330.88,-408.88C1449.55,-374.03 1709.87,-285.27 1880,-136 1901.68,-116.98 1918.56,-88.3 1928.82,-67.82"/>
<polygon fill="#4a5568" stroke="#4a5568" stroke-width="1.6" points="1931.51,-69.09 1932.55,-60.14 1926.16,-66.49 1931.51,-69.09"/>
</g>
<!-- https://w3id.org/sdata/core/Material -->
<g id="node22" class="node">
<title>https://w3id.org/sdata/core/Material</title>
<path fill="#e8f1ff" stroke="#2b6cb0" stroke-width="1.6" d="M928.5,-60C928.5,-60 883.5,-60 883.5,-60 877.5,-60 871.5,-54 871.5,-48 871.5,-48 871.5,-36 871.5,-36 871.5,-30 877.5,-24 883.5,-24 883.5,-24 928.5,-24 928.5,-24 934.5,-24 940.5,-30 940.5,-36 940.5,-36 940.5,-48 940.5,-48 940.5,-54 934.5,-60 928.5,-60"/>
<text text-anchor="middle" x="906" y="-38.9" font-family="Helvetica,sans-Serif" font-size="12.00" fill="#1a365d">Material</text>
</g>
<!-- http://purl.obolibrary.org/obo/BFO_0000040&#45;&gt;https://w3id.org/sdata/core/Material -->
<g id="edge27" class="edge">
<title>http://purl.obolibrary.org/obo/BFO_0000040&#45;&gt;https://w3id.org/sdata/core/Material</title>
<path fill="none" stroke="#4a5568" stroke-width="1.6" d="M974.16,-299.92C1003.08,-267.25 1057.46,-194.62 1022,-144 1016.03,-135.48 1008.79,-141.57 1000,-136 970.2,-117.13 942.31,-87.42 924.78,-66.67"/>
<polygon fill="#4a5568" stroke="#4a5568" stroke-width="1.6" points="926.96,-64.64 919.24,-60 922.38,-68.44 926.96,-64.64"/>
</g>
<!-- https://w3id.org/sdata/core/MaterialAgent -->
<g id="node24" class="node">
<title>https://w3id.org/sdata/core/MaterialAgent</title>
<path fill="#e8f1ff" stroke="#2b6cb0" stroke-width="1.6" d="M2114,-60C2114,-60 2030,-60 2030,-60 2024,-60 2018,-54 2018,-48 2018,-48 2018,-36 2018,-36 2018,-30 2024,-24 2030,-24 2030,-24 2114,-24 2114,-24 2120,-24 2126,-30 2126,-36 2126,-36 2126,-48 2126,-48 2126,-54 2120,-60 2114,-60"/>
<text text-anchor="middle" x="2072" y="-38.9" font-family="Helvetica,sans-Serif" font-size="12.00" fill="#1a365d">Material Agent</text>
</g>
<!-- http://purl.obolibrary.org/obo/BFO_0000040&#45;&gt;https://w3id.org/sdata/core/MaterialAgent -->
<g id="edge28" class="edge">
<title>http://purl.obolibrary.org/obo/BFO_0000040&#45;&gt;https://w3id.org/sdata/core/MaterialAgent</title>
<path fill="none" stroke="#4a5568" stroke-width="1.6" d="M1012.21,-309.46C1091.24,-298.33 1242.64,-276.51 1371,-255 1657.64,-206.98 1773.82,-299.64 2014,-136 2038.02,-119.64 2054.02,-89.7 2063.02,-68.2"/>
<polygon fill="#4a5568" stroke="#4a5568" stroke-width="1.6" points="2065.85,-69.14 2066.24,-60.14 2060.33,-66.93 2065.85,-69.14"/>
</g>
<!-- https://w3id.org/sdata/core/MaterialArtifact -->
<g id="node26" class="node">
<title>https://w3id.org/sdata/core/MaterialArtifact</title>
<path fill="#e8f1ff" stroke="#2b6cb0" stroke-width="1.6" d="M1632.5,-60C1632.5,-60 1539.5,-60 1539.5,-60 1533.5,-60 1527.5,-54 1527.5,-48 1527.5,-48 1527.5,-36 1527.5,-36 1527.5,-30 1533.5,-24 1539.5,-24 1539.5,-24 1632.5,-24 1632.5,-24 1638.5,-24 1644.5,-30 1644.5,-36 1644.5,-36 1644.5,-48 1644.5,-48 1644.5,-54 1638.5,-60 1632.5,-60"/>
<text text-anchor="middle" x="1586" y="-38.9" font-family="Helvetica,sans-Serif" font-size="12.00" fill="#1a365d">Material Artifact</text>
</g>
<!-- http://purl.obolibrary.org/obo/BFO_0000040&#45;&gt;https://w3id.org/sdata/core/MaterialArtifact -->
<g id="edge29" class="edge">
<title>http://purl.obolibrary.org/obo/BFO_0000040&#45;&gt;https://w3id.org/sdata/core/MaterialArtifact</title>
<path fill="none" stroke="#4a5568" stroke-width="1.6" d="M1012.27,-308.87C1115.57,-291.37 1344.46,-242.77 1505,-136 1532.15,-117.94 1555.67,-88.46 1570.26,-67.53"/>
<polygon fill="#4a5568" stroke="#4a5568" stroke-width="1.6" points="1572.9,-68.94 1575.22,-60.24 1567.98,-65.59 1572.9,-68.94"/>
</g>
<!-- http://purl.obolibrary.org/obo/BFO_0000141&#45;&gt;http://purl.obolibrary.org/obo/BFO_0000029 -->
<g id="edge30" class="edge">
<title>http://purl.obolibrary.org/obo/BFO_0000141&#45;&gt;http://purl.obolibrary.org/obo/BFO_0000029</title>
<path fill="none" stroke="#4a5568" stroke-width="1.6" d="M793.28,-299.99C783.14,-280.23 766.34,-247.47 754.75,-224.86"/>
<polygon fill="#4a5568" stroke="#4a5568" stroke-width="1.6" points="757.26,-223.24 750.74,-217.03 751.97,-225.95 757.26,-223.24"/>
</g>
<!-- http://www.w3.org/ns/prov#Agent -->
<g id="node13" class="node">
<title>http://www.w3.org/ns/prov#Agent</title>
<path fill="#e7fff6" stroke="#2f855a" stroke-width="1.6" d="M2286,-217C2286,-217 2254,-217 2254,-217 2248,-217 2242,-211 2242,-205 2242,-205 2242,-193 2242,-193 2242,-187 2248,-181 2254,-181 2254,-181 2286,-181 2286,-181 2292,-181 2298,-187 2298,-193 2298,-193 2298,-205 2298,-205 2298,-211 2292,-217 2286,-217"/>
<text text-anchor="middle" x="2270" y="-195.9" font-family="Helvetica,sans-Serif" font-size="12.00" fill="#1c4532">Agent</text>
</g>
<!-- http://www.w3.org/ns/prov#Agent&#45;&gt;https://w3id.org/sdata/core/InformationAgent -->
<g id="edge32" class="edge">
<title>http://www.w3.org/ns/prov#Agent&#45;&gt;https://w3id.org/sdata/core/InformationAgent</title>
<path fill="none" stroke="#4a5568" stroke-width="1.6" d="M2270,-180.82C2270,-153.7 2270,-100.8 2270,-69.01"/>
<polygon fill="#4a5568" stroke="#4a5568" stroke-width="1.6" points="2272.98,-68.76 2270,-60.26 2267.03,-68.76 2272.98,-68.76"/>
</g>
<!-- http://www.w3.org/ns/prov#Agent&#45;&gt;https://w3id.org/sdata/core/MaterialAgent -->
<g id="edge33" class="edge">
<title>http://www.w3.org/ns/prov#Agent&#45;&gt;https://w3id.org/sdata/core/MaterialAgent</title>
<path fill="none" stroke="#4a5568" stroke-width="1.6" d="M2246.24,-180.93C2229.29,-168.64 2206.05,-151.56 2186,-136 2155.83,-112.58 2122.01,-84.79 2099.1,-65.73"/>
<polygon fill="#4a5568" stroke="#4a5568" stroke-width="1.6" points="2100.79,-63.26 2092.35,-60.1 2096.98,-67.83 2100.79,-63.26"/>
</g>
<!-- https://w3id.org/sdata/core/Agent -->
<g id="node27" class="node">
<title>https://w3id.org/sdata/core/Agent</title>
<path fill="#e8f1ff" stroke="#2b6cb0" stroke-width="1.6" d="M2419,-60C2419,-60 2387,-60 2387,-60 2381,-60 2375,-54 2375,-48 2375,-48 2375,-36 2375,-36 2375,-30 2381,-24 2387,-24 2387,-24 2419,-24 2419,-24 2425,-24 2431,-30 2431,-36 2431,-36 2431,-48 2431,-48 2431,-54 2425,-60 2419,-60"/>
<text text-anchor="middle" x="2403" y="-38.9" font-family="Helvetica,sans-Serif" font-size="12.00" fill="#1a365d">Agent</text>
</g>
<!-- http://www.w3.org/ns/prov#Agent&#45;&gt;https://w3id.org/sdata/core/Agent -->
<g id="edge31" class="edge">
<title>http://www.w3.org/ns/prov#Agent&#45;&gt;https://w3id.org/sdata/core/Agent</title>
<path fill="none" stroke="#4a5568" stroke-width="1.6" d="M2298.25,-181.37C2315.59,-170.15 2337.38,-154.12 2353,-136 2370.59,-115.59 2384.47,-87.95 2393.09,-68.12"/>
<polygon fill="#4a5568" stroke="#4a5568" stroke-width="1.6" points="2395.9,-69.13 2396.46,-60.14 2390.41,-66.81 2395.9,-69.13"/>
</g>
<!-- legend_sdata -->
<g id="node14" class="node">
<title>legend_sdata</title>
<path fill="#e8f1ff" stroke="#2b6cb0" stroke-width="1.6" d="M1900.5,-554C1900.5,-554 1837.5,-554 1837.5,-554 1831.5,-554 1825.5,-548 1825.5,-542 1825.5,-542 1825.5,-530 1825.5,-530 1825.5,-524 1831.5,-518 1837.5,-518 1837.5,-518 1900.5,-518 1900.5,-518 1906.5,-518 1912.5,-524 1912.5,-530 1912.5,-530 1912.5,-542 1912.5,-542 1912.5,-548 1906.5,-554 1900.5,-554"/>
<text text-anchor="middle" x="1869" y="-532.9" font-family="Helvetica,sans-Serif" font-size="12.00" fill="#1a365d">sdata class</text>
</g>
<!-- legend_bfo -->
<g id="node15" class="node">
<title>legend_bfo</title>
<path fill="#fff4e5" stroke="#b7791f" stroke-width="1.6" d="M2025,-677C2025,-677 1961,-677 1961,-677 1955,-677 1949,-671 1949,-665 1949,-665 1949,-653 1949,-653 1949,-647 1955,-641 1961,-641 1961,-641 2025,-641 2025,-641 2031,-641 2037,-647 2037,-653 2037,-653 2037,-665 2037,-665 2037,-671 2031,-677 2025,-677"/>
<text text-anchor="middle" x="1993" y="-655.9" font-family="Helvetica,sans-Serif" font-size="12.00" fill="#7b341e">BFO parent</text>
</g>
<!-- legend_bfo&#45;&gt;legend_sdata -->
<g id="edge1" class="edge">
<title>legend_bfo&#45;&gt;legend_sdata</title>
<path fill="none" stroke="#4a5568" stroke-width="1.6" d="M1975.5,-640.92C1953.93,-619.87 1917.16,-584 1892.98,-560.4"/>
<polygon fill="#4a5568" stroke="#4a5568" stroke-width="1.6" points="1894.98,-558.19 1886.82,-554.38 1890.82,-562.45 1894.98,-558.19"/>
<text text-anchor="middle" x="2015.5" y="-593.8" font-family="Helvetica,sans-Serif" font-size="14.00">superclass → subclass</text>
</g>
<!-- legend_prov -->
<g id="node16" class="node">
<title>legend_prov</title>
<path fill="#e7fff6" stroke="#2f855a" stroke-width="1.6" d="M1897,-677C1897,-677 1825,-677 1825,-677 1819,-677 1813,-671 1813,-665 1813,-665 1813,-653 1813,-653 1813,-647 1819,-641 1825,-641 1825,-641 1897,-641 1897,-641 1903,-641 1909,-647 1909,-653 1909,-653 1909,-665 1909,-665 1909,-671 1903,-677 1897,-677"/>
<text text-anchor="middle" x="1861" y="-655.9" font-family="Helvetica,sans-Serif" font-size="12.00" fill="#1c4532">PROV parent</text>
</g>
<!-- legend_prov&#45;&gt;legend_sdata -->
<g id="edge2" class="edge">
<title>legend_prov&#45;&gt;legend_sdata</title>
<path fill="none" stroke="#4a5568" stroke-width="1.6" d="M1850.7,-640.78C1843.79,-627.1 1836.68,-607.44 1841,-590 1843.42,-580.26 1847.99,-570.33 1852.75,-561.74"/>
<polygon fill="#4a5568" stroke="#4a5568" stroke-width="1.6" points="1855.39,-563.11 1857.11,-554.28 1850.25,-560.11 1855.39,-563.11"/>
</g>
<!-- https://w3id.org/sdata/core/MaterialProcess&#45;&gt;https://w3id.org/sdata/core/InformationProcess -->
<g id="edge6" class="edge">
<title>https://w3id.org/sdata/core/MaterialProcess&#45;&gt;https://w3id.org/sdata/core/InformationProcess</title>
<path fill="none" stroke="#6b7280" stroke-width="1.6" stroke-dasharray="5,2" d="M1368.94,-42C1344.22,-42 1315.3,-42 1289.55,-42"/>
<text text-anchor="middle" x="1329.25" y="-48.8" font-family="Helvetica,sans-Serif" font-size="14.00" fill="#6b7280">dual</text>
</g>
<!-- https://w3id.org/sdata/core/MaterialSite&#45;&gt;https://w3id.org/sdata/core/InformationSite -->
<g id="edge7" class="edge">
<title>https://w3id.org/sdata/core/MaterialSite&#45;&gt;https://w3id.org/sdata/core/InformationSite</title>
<path fill="none" stroke="#6b7280" stroke-width="1.6" stroke-dasharray="5,2" d="M530.38,-42C554.49,-42 583.85,-42 609.24,-42"/>
<text text-anchor="middle" x="569.75" y="-48.8" font-family="Helvetica,sans-Serif" font-size="14.00" fill="#6b7280">dual</text>
</g>
<!-- https://w3id.org/sdata/core/Material&#45;&gt;https://w3id.org/sdata/core/Information -->
<g id="edge3" class="edge">
<title>https://w3id.org/sdata/core/Material&#45;&gt;https://w3id.org/sdata/core/Information</title>
<path fill="none" stroke="#6b7280" stroke-width="1.6" stroke-dasharray="5,2" d="M940.5,-42C963.79,-42 994.76,-42 1019.99,-42"/>
<text text-anchor="middle" x="980.25" y="-48.8" font-family="Helvetica,sans-Serif" font-size="14.00" fill="#6b7280">dual</text>
</g>
<!-- https://w3id.org/sdata/core/MaterialAgent&#45;&gt;https://w3id.org/sdata/core/InformationAgent -->
<g id="edge4" class="edge">
<title>https://w3id.org/sdata/core/MaterialAgent&#45;&gt;https://w3id.org/sdata/core/InformationAgent</title>
<path fill="none" stroke="#6b7280" stroke-width="1.6" stroke-dasharray="5,2" d="M2126.1,-42C2150.61,-42 2179.77,-42 2205.41,-42"/>
<text text-anchor="middle" x="2165.75" y="-48.8" font-family="Helvetica,sans-Serif" font-size="14.00" fill="#6b7280">dual</text>
</g>
<!-- https://w3id.org/sdata/core/MaterialArtifact&#45;&gt;https://w3id.org/sdata/core/InformationArtifact -->
<g id="edge5" class="edge">
<title>https://w3id.org/sdata/core/MaterialArtifact&#45;&gt;https://w3id.org/sdata/core/InformationArtifact</title>
<path fill="none" stroke="#6b7280" stroke-width="1.6" stroke-dasharray="5,2" d="M1644.76,-42C1669.39,-42 1698.19,-42 1723.83,-42"/>
<text text-anchor="middle" x="1684.25" y="-48.8" font-family="Helvetica,sans-Serif" font-size="14.00" fill="#6b7280">dual</text>
</g>
<!-- https://w3id.org/sdata/core/Artifact -->
<g id="node28" class="node">
<title>https://w3id.org/sdata/core/Artifact</title>
<path fill="#e8f1ff" stroke="#2b6cb0" stroke-width="1.6" d="M819.5,-60C819.5,-60 778.5,-60 778.5,-60 772.5,-60 766.5,-54 766.5,-48 766.5,-48 766.5,-36 766.5,-36 766.5,-30 772.5,-24 778.5,-24 778.5,-24 819.5,-24 819.5,-24 825.5,-24 831.5,-30 831.5,-36 831.5,-36 831.5,-48 831.5,-48 831.5,-54 825.5,-60 819.5,-60"/>
<text text-anchor="middle" x="799" y="-38.9" font-family="Helvetica,sans-Serif" font-size="12.00" fill="#1a365d">Artifact</text>
</g>
<!-- https://w3id.org/sdata/core/Process -->
<g id="node30" class="node">
<title>https://w3id.org/sdata/core/Process</title>
<path fill="#e8f1ff" stroke="#2b6cb0" stroke-width="1.6" d="M382,-60C382,-60 340,-60 340,-60 334,-60 328,-54 328,-48 328,-48 328,-36 328,-36 328,-30 334,-24 340,-24 340,-24 382,-24 382,-24 388,-24 394,-30 394,-36 394,-36 394,-48 394,-48 394,-54 388,-60 382,-60"/>
<text text-anchor="middle" x="361" y="-38.9" font-family="Helvetica,sans-Serif" font-size="12.00" fill="#1a365d">Process</text>
</g>
<!-- https://w3id.org/sdata/core/Site -->
<g id="node32" class="node">
<title>https://w3id.org/sdata/core/Site</title>
<path fill="#e8f1ff" stroke="#2b6cb0" stroke-width="1.6" d="M182,-60C182,-60 152,-60 152,-60 146,-60 140,-54 140,-48 140,-48 140,-36 140,-36 140,-30 146,-24 152,-24 152,-24 182,-24 182,-24 188,-24 194,-30 194,-36 194,-36 194,-48 194,-48 194,-54 188,-60 182,-60"/>
<text text-anchor="middle" x="167" y="-38.9" font-family="Helvetica,sans-Serif" font-size="12.00" fill="#1a365d">Site</text>
</g>
<!-- https://w3id.org/sdata/core/Substance -->
<g id="node33" class="node">
<title>https://w3id.org/sdata/core/Substance</title>
<path fill="#e8f1ff" stroke="#2b6cb0" stroke-width="1.6" d="M87.5,-60C87.5,-60 28.5,-60 28.5,-60 22.5,-60 16.5,-54 16.5,-48 16.5,-48 16.5,-36 16.5,-36 16.5,-30 22.5,-24 28.5,-24 28.5,-24 87.5,-24 87.5,-24 93.5,-24 99.5,-30 99.5,-36 99.5,-36 99.5,-48 99.5,-48 99.5,-54 93.5,-60 87.5,-60"/>
<text text-anchor="middle" x="58" y="-38.9" font-family="Helvetica,sans-Serif" font-size="12.00" fill="#1a365d">Substance</text>
</g>
</g>
</svg>
