<?xml version="1.0" encoding="UTF-8" standalone="no"?>
<!DOCTYPE svg PUBLIC "-//W3C//DTD SVG 1.1//EN"
 "http://www.w3.org/Graphics/SVG/1.1/DTD/svg11.dtd">
<!-- Generated by graphviz version 2.43.0 (0)
 -->
<!-- Pages: 1 -->
<svg width="1352pt" height="435pt"
 viewBox="0.00 0.00 1351.90 434.81" xmlns="http://www.w3.org/2000/svg" xmlns:xlink="http://www.w3.org/1999/xlink">
<g id="graph0" class="graph" transform="scale(1 1) rotate(0) translate(25.2 409.61)">
<polygon fill="#fafbfc" stroke="transparent" points="-25.2,25.2 -25.2,-409.61 1326.7,-409.61 1326.7,25.2 -25.2,25.2"/>
<text text-anchor="middle" x="650.75" y="-364.41" font-family="Helvetica,sans-Serif" font-size="20.00">Class Hierarchy: MIN &#45;&gt; sdata&#45;core</text>
<g id="clust2" class="cluster">
<title>cluster_min</title>
<path fill="#fafbfc" stroke="#8fb7ea" d="M787.5,-164.72C787.5,-164.72 1281.5,-164.72 1281.5,-164.72 1287.5,-164.72 1293.5,-170.72 1293.5,-176.72 1293.5,-176.72 1293.5,-280.72 1293.5,-280.72 1293.5,-286.72 1287.5,-292.72 1281.5,-292.72 1281.5,-292.72 787.5,-292.72 787.5,-292.72 781.5,-292.72 775.5,-286.72 775.5,-280.72 775.5,-280.72 775.5,-176.72 775.5,-176.72 775.5,-170.72 781.5,-164.72 787.5,-164.72"/>
<text text-anchor="middle" x="1034.5" y="-272.72" font-family="Helvetica,sans-Serif" font-size="20.00">MIN classes</text>
</g>
<g id="clust3" class="cluster">
<title>cluster_min_rank</title>
</g>
<!-- https://w3id.org/sdata/core/Hardware -->
<g id="node1" class="node">
<title>https://w3id.org/sdata/core/Hardware</title>
<path fill="#f8eeff" stroke="#6b46c1" stroke-width="1.6" d="M882.5,-108.72C882.5,-108.72 828.5,-108.72 828.5,-108.72 822.5,-108.72 816.5,-102.72 816.5,-96.72 816.5,-96.72 816.5,-84.72 816.5,-84.72 816.5,-78.72 822.5,-72.72 828.5,-72.72 828.5,-72.72 882.5,-72.72 882.5,-72.72 888.5,-72.72 894.5,-78.72 894.5,-84.72 894.5,-84.72 894.5,-96.72 894.5,-96.72 894.5,-102.72 888.5,-108.72 882.5,-108.72"/>
<text text-anchor="middle" x="855.5" y="-87.62" font-family="Helvetica,sans-Serif" font-size="12.00" fill="#44337a">Hardware</text>
</g>
<!-- https://w3id.org/sdata/core/Material -->
<g id="node2" class="node">
<title>https://w3id.org/sdata/core/Material</title>
<path fill="#f8eeff" stroke="#6b46c1" stroke-width="1.6" d="M992,-108.72C992,-108.72 947,-108.72 947,-108.72 941,-108.72 935,-102.72 935,-96.72 935,-96.72 935,-84.72 935,-84.72 935,-78.72 941,-72.72 947,-72.72 947,-72.72 992,-72.72 992,-72.72 998,-72.72 1004,-78.72 1004,-84.72 1004,-84.72 1004,-96.72 1004,-96.72 1004,-102.72 998,-108.72 992,-108.72"/>
<text text-anchor="middle" x="969.5" y="-87.62" font-family="Helvetica,sans-Serif" font-size="12.00" fill="#44337a">Material</text>
</g>
<!-- https://w3id.org/sdata/core/Product -->
<g id="node3" class="node">
<title>https://w3id.org/sdata/core/Product</title>
<path fill="#f8eeff" stroke="#6b46c1" stroke-width="1.6" d="M1098.5,-108.72C1098.5,-108.72 1056.5,-108.72 1056.5,-108.72 1050.5,-108.72 1044.5,-102.72 1044.5,-96.72 1044.5,-96.72 1044.5,-84.72 1044.5,-84.72 1044.5,-78.72 1050.5,-72.72 1056.5,-72.72 1056.5,-72.72 1098.5,-72.72 1098.5,-72.72 1104.5,-72.72 1110.5,-78.72 1110.5,-84.72 1110.5,-84.72 1110.5,-96.72 1110.5,-96.72 1110.5,-102.72 1104.5,-108.72 1098.5,-108.72"/>
<text text-anchor="middle" x="1077.5" y="-87.62" font-family="Helvetica,sans-Serif" font-size="12.00" fill="#44337a">Product</text>
</g>
<!-- https://w3id.org/sdata/core/Software -->
<g id="node4" class="node">
<title>https://w3id.org/sdata/core/Software</title>
<path fill="#f8eeff" stroke="#6b46c1" stroke-width="1.6" d="M1212,-108.72C1212,-108.72 1163,-108.72 1163,-108.72 1157,-108.72 1151,-102.72 1151,-96.72 1151,-96.72 1151,-84.72 1151,-84.72 1151,-78.72 1157,-72.72 1163,-72.72 1163,-72.72 1212,-72.72 1212,-72.72 1218,-72.72 1224,-78.72 1224,-84.72 1224,-84.72 1224,-96.72 1224,-96.72 1224,-102.72 1218,-108.72 1212,-108.72"/>
<text text-anchor="middle" x="1187.5" y="-87.62" font-family="Helvetica,sans-Serif" font-size="12.00" fill="#44337a">Software</text>
</g>
<!-- https://w3id.org/min#Agent -->
<g id="node5" class="node">
<title>https://w3id.org/min#Agent</title>
<path fill="#e7f0ff" stroke="#2b6cb0" stroke-width="1.6" d="M941.5,-216.72C941.5,-216.72 909.5,-216.72 909.5,-216.72 903.5,-216.72 897.5,-210.72 897.5,-204.72 897.5,-204.72 897.5,-192.72 897.5,-192.72 897.5,-186.72 903.5,-180.72 909.5,-180.72 909.5,-180.72 941.5,-180.72 941.5,-180.72 947.5,-180.72 953.5,-186.72 953.5,-192.72 953.5,-192.72 953.5,-204.72 953.5,-204.72 953.5,-210.72 947.5,-216.72 941.5,-216.72"/>
<text text-anchor="middle" x="925.5" y="-195.62" font-family="Helvetica,sans-Serif" font-size="12.00" fill="#1a365d">Agent</text>
</g>
<!-- https://w3id.org/sdata/core/EnvironmentAgent -->
<g id="node11" class="node">
<title>https://w3id.org/sdata/core/EnvironmentAgent</title>
<path fill="#f8eeff" stroke="#6b46c1" stroke-width="1.6" d="M123,-108.72C123,-108.72 12,-108.72 12,-108.72 6,-108.72 0,-102.72 0,-96.72 0,-96.72 0,-84.72 0,-84.72 0,-78.72 6,-72.72 12,-72.72 12,-72.72 123,-72.72 123,-72.72 129,-72.72 135,-78.72 135,-84.72 135,-84.72 135,-96.72 135,-96.72 135,-102.72 129,-108.72 123,-108.72"/>
<text text-anchor="middle" x="67.5" y="-87.62" font-family="Helvetica,sans-Serif" font-size="12.00" fill="#44337a">Environment Agent</text>
</g>
<!-- https://w3id.org/min#Agent&#45;&gt;https://w3id.org/sdata/core/EnvironmentAgent -->
<g id="edge1" class="edge">
<title>https://w3id.org/min#Agent&#45;&gt;https://w3id.org/sdata/core/EnvironmentAgent</title>
<path fill="none" stroke="#4a5568" stroke-width="1.6" d="M905.78,-180.69C897.57,-174.56 887.61,-168.29 877.5,-164.72 573.63,-57.3 473.86,-152.14 154.5,-108.72 150.98,-108.24 147.39,-107.71 143.77,-107.14"/>
<polygon fill="#4a5568" stroke="#4a5568" stroke-width="1.6" points="144.16,-104.19 135.29,-105.75 143.2,-110.06 144.16,-104.19"/>
</g>
<!-- https://w3id.org/sdata/core/HardwareAgent -->
<g id="node12" class="node">
<title>https://w3id.org/sdata/core/HardwareAgent</title>
<path fill="#f8eeff" stroke="#6b46c1" stroke-width="1.6" d="M280,-108.72C280,-108.72 187,-108.72 187,-108.72 181,-108.72 175,-102.72 175,-96.72 175,-96.72 175,-84.72 175,-84.72 175,-78.72 181,-72.72 187,-72.72 187,-72.72 280,-72.72 280,-72.72 286,-72.72 292,-78.72 292,-84.72 292,-84.72 292,-96.72 292,-96.72 292,-102.72 286,-108.72 280,-108.72"/>
<text text-anchor="middle" x="233.5" y="-87.62" font-family="Helvetica,sans-Serif" font-size="12.00" fill="#44337a">Hardware Agent</text>
</g>
<!-- https://w3id.org/min#Agent&#45;&gt;https://w3id.org/sdata/core/HardwareAgent -->
<g id="edge2" class="edge">
<title>https://w3id.org/min#Agent&#45;&gt;https://w3id.org/sdata/core/HardwareAgent</title>
<path fill="none" stroke="#4a5568" stroke-width="1.6" d="M905.28,-180.45C897.15,-174.46 887.38,-168.33 877.5,-164.72 640.5,-78.06 561.8,-147.77 312.5,-108.72 308.55,-108.1 304.5,-107.41 300.42,-106.67"/>
<polygon fill="#4a5568" stroke="#4a5568" stroke-width="1.6" points="300.94,-103.74 292.03,-105.09 299.84,-109.59 300.94,-103.74"/>
</g>
<!-- https://w3id.org/sdata/core/Organization -->
<g id="node13" class="node">
<title>https://w3id.org/sdata/core/Organization</title>
<path fill="#f8eeff" stroke="#6b46c1" stroke-width="1.6" d="M416.5,-108.72C416.5,-108.72 344.5,-108.72 344.5,-108.72 338.5,-108.72 332.5,-102.72 332.5,-96.72 332.5,-96.72 332.5,-84.72 332.5,-84.72 332.5,-78.72 338.5,-72.72 344.5,-72.72 344.5,-72.72 416.5,-72.72 416.5,-72.72 422.5,-72.72 428.5,-78.72 428.5,-84.72 428.5,-84.72 428.5,-96.72 428.5,-96.72 428.5,-102.72 422.5,-108.72 416.5,-108.72"/>
<text text-anchor="middle" x="380.5" y="-87.62" font-family="Helvetica,sans-Serif" font-size="12.00" fill="#44337a">Organization</text>
</g>
<!-- https://w3id.org/min#Agent&#45;&gt;https://w3id.org/sdata/core/Organization -->
<g id="edge3" class="edge">
<title>https://w3id.org/min#Agent&#45;&gt;https://w3id.org/sdata/core/Organization</title>
<path fill="none" stroke="#4a5568" stroke-width="1.6" d="M905.22,-180.62C897.08,-174.64 887.32,-168.48 877.5,-164.72 697.95,-95.9 637.42,-144.54 448.5,-108.72 444.77,-108.01 440.93,-107.22 437.08,-106.39"/>
<polygon fill="#4a5568" stroke="#4a5568" stroke-width="1.6" points="437.59,-103.45 428.64,-104.48 436.28,-109.26 437.59,-103.45"/>
</g>
<!-- https://w3id.org/sdata/core/Person -->
<g id="node14" class="node">
<title>https://w3id.org/sdata/core/Person</title>
<path fill="#f8eeff" stroke="#6b46c1" stroke-width="1.6" d="M518,-108.72C518,-108.72 481,-108.72 481,-108.72 475,-108.72 469,-102.72 469,-96.72 469,-96.72 469,-84.72 469,-84.72 469,-78.72 475,-72.72 481,-72.72 481,-72.72 518,-72.72 518,-72.72 524,-72.72 530,-78.72 530,-84.72 530,-84.72 530,-96.72 530,-96.72 530,-102.72 524,-108.72 518,-108.72"/>
<text text-anchor="middle" x="499.5" y="-87.62" font-family="Helvetica,sans-Serif" font-size="12.00" fill="#44337a">Person</text>
</g>
<!-- https://w3id.org/min#Agent&#45;&gt;https://w3id.org/sdata/core/Person -->
<g id="edge4" class="edge">
<title>https://w3id.org/min#Agent&#45;&gt;https://w3id.org/sdata/core/Person</title>
<path fill="none" stroke="#4a5568" stroke-width="1.6" d="M904.66,-180.48C896.62,-174.63 887.06,-168.6 877.5,-164.72 740.9,-109.21 693.52,-144.58 550.5,-108.72 546.52,-107.72 542.41,-106.57 538.32,-105.34"/>
<polygon fill="#4a5568" stroke="#4a5568" stroke-width="1.6" points="539.02,-102.44 530.02,-102.73 537.24,-108.12 539.02,-102.44"/>
</g>
<!-- https://w3id.org/sdata/core/SoftwareAgent -->
<g id="node15" class="node">
<title>https://w3id.org/sdata/core/SoftwareAgent</title>
<path fill="#f8eeff" stroke="#6b46c1" stroke-width="1.6" d="M670.5,-108.72C670.5,-108.72 582.5,-108.72 582.5,-108.72 576.5,-108.72 570.5,-102.72 570.5,-96.72 570.5,-96.72 570.5,-84.72 570.5,-84.72 570.5,-78.72 576.5,-72.72 582.5,-72.72 582.5,-72.72 670.5,-72.72 670.5,-72.72 676.5,-72.72 682.5,-78.72 682.5,-84.72 682.5,-84.72 682.5,-96.72 682.5,-96.72 682.5,-102.72 676.5,-108.72 670.5,-108.72"/>
<text text-anchor="middle" x="626.5" y="-87.62" font-family="Helvetica,sans-Serif" font-size="12.00" fill="#44337a">Software Agent</text>
</g>
<!-- https://w3id.org/min#Agent&#45;&gt;https://w3id.org/sdata/core/SoftwareAgent -->
<g id="edge5" class="edge">
<title>https://w3id.org/min#Agent&#45;&gt;https://w3id.org/sdata/core/SoftwareAgent</title>
<path fill="none" stroke="#4a5568" stroke-width="1.6" d="M903.93,-180.72C895.96,-175.03 886.64,-169.05 877.5,-164.72 844.48,-149.07 753.7,-124.23 690.88,-107.95"/>
<polygon fill="#4a5568" stroke="#4a5568" stroke-width="1.6" points="691.57,-105.05 682.6,-105.81 690.08,-110.81 691.57,-105.05"/>
</g>
<!-- https://w3id.org/min#Data -->
<g id="node6" class="node">
<title>https://w3id.org/min#Data</title>
<path fill="#e7f0ff" stroke="#2b6cb0" stroke-width="1.6" d="M1035.5,-216.72C1035.5,-216.72 1005.5,-216.72 1005.5,-216.72 999.5,-216.72 993.5,-210.72 993.5,-204.72 993.5,-204.72 993.5,-192.72 993.5,-192.72 993.5,-186.72 999.5,-180.72 1005.5,-180.72 1005.5,-180.72 1035.5,-180.72 1035.5,-180.72 1041.5,-180.72 1047.5,-186.72 1047.5,-192.72 1047.5,-192.72 1047.5,-204.72 1047.5,-204.72 1047.5,-210.72 1041.5,-216.72 1035.5,-216.72"/>
<text text-anchor="middle" x="1020.5" y="-195.62" font-family="Helvetica,sans-Serif" font-size="12.00" fill="#1a365d">Data</text>
</g>
<!-- https://w3id.org/sdata/core/Data -->
<g id="node16" class="node">
<title>https://w3id.org/sdata/core/Data</title>
<path fill="#f8eeff" stroke="#6b46c1" stroke-width="1.6" d="M764.5,-108.72C764.5,-108.72 734.5,-108.72 734.5,-108.72 728.5,-108.72 722.5,-102.72 722.5,-96.72 722.5,-96.72 722.5,-84.72 722.5,-84.72 722.5,-78.72 728.5,-72.72 734.5,-72.72 734.5,-72.72 764.5,-72.72 764.5,-72.72 770.5,-72.72 776.5,-78.72 776.5,-84.72 776.5,-84.72 776.5,-96.72 776.5,-96.72 776.5,-102.72 770.5,-108.72 764.5,-108.72"/>
<text text-anchor="middle" x="749.5" y="-87.62" font-family="Helvetica,sans-Serif" font-size="12.00" fill="#44337a">Data</text>
</g>
<!-- https://w3id.org/min#Data&#45;&gt;https://w3id.org/sdata/core/Data -->
<g id="edge6" class="edge">
<title>https://w3id.org/min#Data&#45;&gt;https://w3id.org/sdata/core/Data</title>
<path fill="none" stroke="#4a5568" stroke-width="1.6" d="M998.9,-180.48C991.2,-174.9 982.26,-169.05 973.5,-164.72 899.54,-128.14 874.64,-135.2 796.5,-108.72 792.69,-107.43 788.73,-106.05 784.78,-104.66"/>
<polygon fill="#4a5568" stroke="#4a5568" stroke-width="1.6" points="785.78,-101.85 776.77,-101.8 783.78,-107.46 785.78,-101.85"/>
</g>
<!-- https://w3id.org/min#Object -->
<g id="node7" class="node">
<title>https://w3id.org/min#Object</title>
<path fill="#e7f0ff" stroke="#2b6cb0" stroke-width="1.6" d="M1135.5,-216.72C1135.5,-216.72 1099.5,-216.72 1099.5,-216.72 1093.5,-216.72 1087.5,-210.72 1087.5,-204.72 1087.5,-204.72 1087.5,-192.72 1087.5,-192.72 1087.5,-186.72 1093.5,-180.72 1099.5,-180.72 1099.5,-180.72 1135.5,-180.72 1135.5,-180.72 1141.5,-180.72 1147.5,-186.72 1147.5,-192.72 1147.5,-192.72 1147.5,-204.72 1147.5,-204.72 1147.5,-210.72 1141.5,-216.72 1135.5,-216.72"/>
<text text-anchor="middle" x="1117.5" y="-195.62" font-family="Helvetica,sans-Serif" font-size="12.00" fill="#1a365d">Object</text>
</g>
<!-- https://w3id.org/min#Object&#45;&gt;https://w3id.org/sdata/core/Hardware -->
<g id="edge11" class="edge">
<title>https://w3id.org/min#Object&#45;&gt;https://w3id.org/sdata/core/Hardware</title>
<path fill="none" stroke="#4a5568" stroke-width="1.6" d="M1094.32,-180.67C1086.12,-175.11 1076.64,-169.22 1067.5,-164.72 1038.16,-150.28 956.02,-123.35 903.02,-106.54"/>
<polygon fill="#4a5568" stroke="#4a5568" stroke-width="1.6" points="903.78,-103.66 894.78,-103.94 901.98,-109.34 903.78,-103.66"/>
</g>
<!-- https://w3id.org/min#Object&#45;&gt;https://w3id.org/sdata/core/Material -->
<g id="edge12" class="edge">
<title>https://w3id.org/min#Object&#45;&gt;https://w3id.org/sdata/core/Material</title>
<path fill="none" stroke="#4a5568" stroke-width="1.6" d="M1093.72,-180.69C1068.52,-162.64 1028.6,-134.05 1000.84,-114.17"/>
<polygon fill="#4a5568" stroke="#4a5568" stroke-width="1.6" points="1002.35,-111.59 993.71,-109.06 998.89,-116.43 1002.35,-111.59"/>
</g>
<!-- https://w3id.org/min#Object&#45;&gt;https://w3id.org/sdata/core/Product -->
<g id="edge13" class="edge">
<title>https://w3id.org/min#Object&#45;&gt;https://w3id.org/sdata/core/Product</title>
<path fill="none" stroke="#4a5568" stroke-width="1.6" d="M1111.07,-180.69C1104.58,-163.48 1094.47,-136.7 1087.05,-117.01"/>
<polygon fill="#4a5568" stroke="#4a5568" stroke-width="1.6" points="1089.83,-115.96 1084.04,-109.06 1084.26,-118.06 1089.83,-115.96"/>
</g>
<!-- https://w3id.org/min#Object&#45;&gt;https://w3id.org/sdata/core/Software -->
<g id="edge14" class="edge">
<title>https://w3id.org/min#Object&#45;&gt;https://w3id.org/sdata/core/Software</title>
<path fill="none" stroke="#4a5568" stroke-width="1.6" d="M1128.75,-180.69C1140.26,-163.25 1158.27,-135.98 1171.32,-116.23"/>
<polygon fill="#4a5568" stroke="#4a5568" stroke-width="1.6" points="1173.85,-117.79 1176.05,-109.06 1168.88,-114.51 1173.85,-117.79"/>
</g>
<!-- https://w3id.org/min#Process -->
<g id="node8" class="node">
<title>https://w3id.org/min#Process</title>
<path fill="#e7f0ff" stroke="#2b6cb0" stroke-width="1.6" d="M845.5,-216.72C845.5,-216.72 803.5,-216.72 803.5,-216.72 797.5,-216.72 791.5,-210.72 791.5,-204.72 791.5,-204.72 791.5,-192.72 791.5,-192.72 791.5,-186.72 797.5,-180.72 803.5,-180.72 803.5,-180.72 845.5,-180.72 845.5,-180.72 851.5,-180.72 857.5,-186.72 857.5,-192.72 857.5,-192.72 857.5,-204.72 857.5,-204.72 857.5,-210.72 851.5,-216.72 845.5,-216.72"/>
<text text-anchor="middle" x="824.5" y="-195.62" font-family="Helvetica,sans-Serif" font-size="12.00" fill="#1a365d">Process</text>
</g>
<!-- https://w3id.org/min#Nexus -->
<g id="node9" class="node">
<title>https://w3id.org/min#Nexus</title>
<path fill="#e7f0ff" stroke="#2b6cb0" stroke-width="1.6" d="M1233,-216.72C1233,-216.72 1200,-216.72 1200,-216.72 1194,-216.72 1188,-210.72 1188,-204.72 1188,-204.72 1188,-192.72 1188,-192.72 1188,-186.72 1194,-180.72 1200,-180.72 1200,-180.72 1233,-180.72 1233,-180.72 1239,-180.72 1245,-186.72 1245,-192.72 1245,-192.72 1245,-204.72 1245,-204.72 1245,-210.72 1239,-216.72 1233,-216.72"/>
<text text-anchor="middle" x="1216.5" y="-195.62" font-family="Helvetica,sans-Serif" font-size="12.00" fill="#1a365d">Nexus</text>
</g>
<!-- https://w3id.org/min#Nexus&#45;&gt;https://w3id.org/min#Agent -->
<g id="edge7" class="edge">
<title>https://w3id.org/min#Nexus&#45;&gt;https://w3id.org/min#Agent</title>
<path fill="none" stroke="#4a5568" stroke-width="1.6" d="M1212.72,-217.12C1205.53,-246.83 1186.73,-304.46 1145.5,-328.72 1087.28,-362.98 1051.72,-362.98 993.5,-328.72 956.34,-306.85 938.59,-257.06 930.83,-225.83"/>
<polygon fill="#4a5568" stroke="#4a5568" stroke-width="1.6" points="933.64,-224.78 928.81,-217.18 927.84,-226.13 933.64,-224.78"/>
</g>
<!-- https://w3id.org/min#Nexus&#45;&gt;https://w3id.org/min#Data -->
<g id="edge8" class="edge">
<title>https://w3id.org/min#Nexus&#45;&gt;https://w3id.org/min#Data</title>
<path fill="none" stroke="#4a5568" stroke-width="1.6" d="M1212.72,-217.12C1205.53,-246.83 1186.73,-304.46 1145.5,-328.72 1123.28,-341.79 1109.72,-341.79 1087.5,-328.72 1050.45,-306.92 1033.1,-257.1 1025.6,-225.86"/>
<polygon fill="#4a5568" stroke="#4a5568" stroke-width="1.6" points="1028.42,-224.83 1023.66,-217.19 1022.62,-226.14 1028.42,-224.83"/>
</g>
<!-- https://w3id.org/min#Nexus&#45;&gt;https://w3id.org/min#Object -->
<g id="edge9" class="edge">
<title>https://w3id.org/min#Nexus&#45;&gt;https://w3id.org/min#Object</title>
<path fill="none" stroke="#4a5568" stroke-width="1.6" d="M1188,-198.72C1177.39,-198.72 1166.78,-198.72 1156.17,-198.72"/>
<polygon fill="#4a5568" stroke="#4a5568" stroke-width="1.6" points="1156.16,-195.75 1147.66,-198.72 1156.16,-201.7 1156.16,-195.75"/>
</g>
<!-- https://w3id.org/min#Nexus&#45;&gt;https://w3id.org/min#Process -->
<g id="edge10" class="edge">
<title>https://w3id.org/min#Nexus&#45;&gt;https://w3id.org/min#Process</title>
<path fill="none" stroke="#4a5568" stroke-width="1.6" d="M1212.72,-217.12C1205.53,-246.83 1186.73,-304.46 1145.5,-328.72 1098,-356.67 945.06,-356.56 897.5,-328.72 859.52,-306.49 839.79,-256.45 830.82,-225.34"/>
<polygon fill="#4a5568" stroke="#4a5568" stroke-width="1.6" points="833.68,-224.52 828.57,-217.11 827.94,-226.09 833.68,-224.52"/>
</g>
<!-- __rank_anchor_min -->
<!-- __rank_anchor_sdata -->
<!-- __rank_anchor_min&#45;&gt;__rank_anchor_sdata -->
</g>
</svg>
