<?xml version="1.0" encoding="UTF-8" standalone="no"?>
<!DOCTYPE svg PUBLIC "-//W3C//DTD SVG 1.1//EN"
 "http://www.w3.org/Graphics/SVG/1.1/DTD/svg11.dtd">
<!-- Generated by graphviz version 2.43.0 (0)
 -->
<!-- Pages: 1 -->
<svg width="1253pt" height="967pt"
 viewBox="0.00 0.00 1253.40 967.40" xmlns="http://www.w3.org/2000/svg" xmlns:xlink="http://www.w3.org/1999/xlink">
<g id="graph0" class="graph" transform="scale(1 1) rotate(0) translate(25.2 942.2)">
<polygon fill="#fafbfc" stroke="transparent" points="-25.2,25.2 -25.2,-942.2 1228.2,-942.2 1228.2,25.2 -25.2,25.2"/>
<text text-anchor="middle" x="601.5" y="-898.6" font-family="Helvetica,sans-Serif" font-size="18.00">TTL Graph: tensiontest&#45;crashsimulation.ttl</text>
<!-- uri::https://example.org/simulation/MeasurementData_42 -->
<g id="node1" class="node">
<title>uri::https://example.org/simulation/MeasurementData_42</title>
<path fill="#e3f2fd" stroke="#1976d2" stroke-width="1.2" d="M130,-643C130,-643 12,-643 12,-643 6,-643 0,-637 0,-631 0,-631 0,-619 0,-619 0,-613 6,-607 12,-607 12,-607 130,-607 130,-607 136,-607 142,-613 142,-619 142,-619 142,-631 142,-631 142,-637 136,-643 130,-643"/>
<text text-anchor="middle" x="71" y="-622.5" font-family="Helvetica,sans-Serif" font-size="10.00" fill="#0d47a1">ex:MeasurementData_42</text>
</g>
<!-- lit::percent:::: -->
<g id="node2" class="node">
<title>lit::percent::::</title>
<polygon fill="#fff9db" stroke="#b08900" stroke-width="1.2" points="372.5,-801 323.5,-801 323.5,-765 378.5,-765 378.5,-795 372.5,-801"/>
<polyline fill="none" stroke="#b08900" stroke-width="1.2" points="372.5,-801 372.5,-795 "/>
<polyline fill="none" stroke="#b08900" stroke-width="1.2" points="378.5,-795 372.5,-795 "/>
<text text-anchor="middle" x="351" y="-780.5" font-family="Helvetica,sans-Serif" font-size="10.00" fill="#5c4500">percent</text>
</g>
<!-- uri::https://example.org/simulation/MeasurementData_42&#45;&gt;lit::percent:::: -->
<g id="edge1" class="edge">
<title>uri::https://example.org/simulation/MeasurementData_42&#45;&gt;lit::percent::::</title>
<path fill="none" stroke="#4a5568" stroke-width="1.2" d="M86.53,-643.22C104.96,-665.22 138.74,-702 175,-724 219.91,-751.25 279.02,-767.79 315.75,-776.16"/>
<polygon fill="#4a5568" stroke="#4a5568" stroke-width="1.2" points="315.35,-778.76 323.24,-777.83 316.49,-773.64 315.35,-778.76"/>
<text text-anchor="middle" x="220.5" y="-763.8" font-family="Helvetica,sans-Serif" font-size="9.00">sdata:hasUnit</text>
</g>
<!-- uri::https://example.org/simulation/TensileTest_42 -->
<g id="node3" class="node">
<title>uri::https://example.org/simulation/TensileTest_42</title>
<path fill="#e3f2fd" stroke="#1976d2" stroke-width="1.2" d="M391,-736C391,-736 311,-736 311,-736 305,-736 299,-730 299,-724 299,-724 299,-712 299,-712 299,-706 305,-700 311,-700 311,-700 391,-700 391,-700 397,-700 403,-706 403,-712 403,-712 403,-724 403,-724 403,-730 397,-736 391,-736"/>
<text text-anchor="middle" x="351" y="-715.5" font-family="Helvetica,sans-Serif" font-size="10.00" fill="#0d47a1">ex:TensileTest_42</text>
</g>
<!-- uri::https://example.org/simulation/MeasurementData_42&#45;&gt;uri::https://example.org/simulation/TensileTest_42 -->
<g id="edge2" class="edge">
<title>uri::https://example.org/simulation/MeasurementData_42&#45;&gt;uri::https://example.org/simulation/TensileTest_42</title>
<path fill="none" stroke="#4a5568" stroke-width="1.2" d="M142.36,-638.59C179.74,-646.84 226.09,-658.75 266,-674 281.86,-680.06 298.57,-688.38 312.88,-696.15"/>
<polygon fill="#4a5568" stroke="#4a5568" stroke-width="1.2" points="311.86,-698.59 319.69,-699.91 314.39,-693.99 311.86,-698.59"/>
<text text-anchor="middle" x="220.5" y="-676.8" font-family="Helvetica,sans-Serif" font-size="9.00">sdata:producedBy</text>
</g>
<!-- uri::https://example.org/simulation/Specimen_42 -->
<g id="node4" class="node">
<title>uri::https://example.org/simulation/Specimen_42</title>
<path fill="#e3f2fd" stroke="#1976d2" stroke-width="1.2" d="M663,-344C663,-344 588,-344 588,-344 582,-344 576,-338 576,-332 576,-332 576,-320 576,-320 576,-314 582,-308 588,-308 588,-308 663,-308 663,-308 669,-308 675,-314 675,-320 675,-320 675,-332 675,-332 675,-338 669,-344 663,-344"/>
<text text-anchor="middle" x="625.5" y="-323.5" font-family="Helvetica,sans-Serif" font-size="10.00" fill="#0d47a1">ex:Specimen_42</text>
</g>
<!-- uri::https://example.org/simulation/MeasurementData_42&#45;&gt;uri::https://example.org/simulation/Specimen_42 -->
<g id="edge3" class="edge">
<title>uri::https://example.org/simulation/MeasurementData_42&#45;&gt;uri::https://example.org/simulation/Specimen_42</title>
<path fill="none" stroke="#4a5568" stroke-width="1.2" d="M142.04,-630.65C212.52,-633.11 322.08,-627.85 403,-582 504.06,-524.75 581.09,-403.33 610.97,-350.93"/>
<polygon fill="#4a5568" stroke="#4a5568" stroke-width="1.2" points="613.31,-352.12 614.7,-344.3 608.73,-349.55 613.31,-352.12"/>
<text text-anchor="middle" x="351" y="-621.8" font-family="Helvetica,sans-Serif" font-size="9.00">sdata:describes</text>
</g>
<!-- uri::https://w3id.org/sdata/core/Data -->
<g id="node5" class="node">
<title>uri::https://w3id.org/sdata/core/Data</title>
<path fill="#f3e8ff" stroke="#7e57c2" stroke-width="1.2" d="M375,-437C375,-437 327,-437 327,-437 321,-437 315,-431 315,-425 315,-425 315,-413 315,-413 315,-407 321,-401 327,-401 327,-401 375,-401 375,-401 381,-401 387,-407 387,-413 387,-413 387,-425 387,-425 387,-431 381,-437 375,-437"/>
<text text-anchor="middle" x="351" y="-416.5" font-family="Helvetica,sans-Serif" font-size="10.00" fill="#4527a0">sdata:Data</text>
</g>
<!-- uri::https://example.org/simulation/MeasurementData_42&#45;&gt;uri::https://w3id.org/sdata/core/Data -->
<g id="edge4" class="edge">
<title>uri::https://example.org/simulation/MeasurementData_42&#45;&gt;uri::https://w3id.org/sdata/core/Data</title>
<path fill="none" stroke="#4a5568" stroke-width="1.2" d="M82.43,-606.7C98.92,-579.17 133.45,-526.93 175,-495 215.26,-464.06 270.04,-442.93 307.53,-430.95"/>
<polygon fill="#4a5568" stroke="#4a5568" stroke-width="1.2" points="308.42,-433.42 314.79,-428.67 306.85,-428.41 308.42,-433.42"/>
<text text-anchor="middle" x="220.5" y="-497.8" font-family="Helvetica,sans-Serif" font-size="9.00">rdf:type</text>
</g>
<!-- lit::18.5::http://www.w3.org/2001/XMLSchema#decimal:: -->
<g id="node6" class="node">
<title>lit::18.5::http://www.w3.org/2001/XMLSchema#decimal::</title>
<polygon fill="#fff9db" stroke="#b08900" stroke-width="1.2" points="372,-567 324,-567 324,-531 378,-531 378,-561 372,-567"/>
<polyline fill="none" stroke="#b08900" stroke-width="1.2" points="372,-567 372,-561 "/>
<polyline fill="none" stroke="#b08900" stroke-width="1.2" points="378,-561 372,-561 "/>
<text text-anchor="middle" x="351" y="-546.5" font-family="Helvetica,sans-Serif" font-size="10.00" fill="#5c4500">18.5</text>
</g>
<!-- uri::https://example.org/simulation/MeasurementData_42&#45;&gt;lit::18.5::http://www.w3.org/2001/XMLSchema#decimal:: -->
<g id="edge5" class="edge">
<title>uri::https://example.org/simulation/MeasurementData_42&#45;&gt;lit::18.5::http://www.w3.org/2001/XMLSchema#decimal::</title>
<path fill="none" stroke="#4a5568" stroke-width="1.2" d="M128.23,-606.92C143.37,-602.22 159.77,-597.28 175,-593 223.79,-579.3 280.8,-565.34 316.15,-556.93"/>
<polygon fill="#4a5568" stroke="#4a5568" stroke-width="1.2" points="317.1,-559.4 323.79,-555.11 315.89,-554.29 317.1,-559.4"/>
<text text-anchor="middle" x="220.5" y="-595.8" font-family="Helvetica,sans-Serif" font-size="9.00">sdata:hasValue</text>
</g>
<!-- lit::1.0.0:::: -->
<g id="node7" class="node">
<title>lit::1.0.0::::</title>
<polygon fill="#fff9db" stroke="#b08900" stroke-width="1.2" points="372,-502 324,-502 324,-466 378,-466 378,-496 372,-502"/>
<polyline fill="none" stroke="#b08900" stroke-width="1.2" points="372,-502 372,-496 "/>
<polyline fill="none" stroke="#b08900" stroke-width="1.2" points="378,-496 372,-496 "/>
<text text-anchor="middle" x="351" y="-481.5" font-family="Helvetica,sans-Serif" font-size="10.00" fill="#5c4500">1.0.0</text>
</g>
<!-- uri::https://example.org/simulation/MeasurementData_42&#45;&gt;lit::1.0.0:::: -->
<g id="edge6" class="edge">
<title>uri::https://example.org/simulation/MeasurementData_42&#45;&gt;lit::1.0.0::::</title>
<path fill="none" stroke="#4a5568" stroke-width="1.2" d="M94.26,-606.77C114.45,-590.86 145.47,-567.89 175,-552 222.03,-526.7 280.55,-505.93 316.58,-494.25"/>
<polygon fill="#4a5568" stroke="#4a5568" stroke-width="1.2" points="317.57,-496.69 323.91,-491.9 315.97,-491.69 317.57,-496.69"/>
<text text-anchor="middle" x="220.5" y="-554.8" font-family="Helvetica,sans-Serif" font-size="9.00">sdata:hasVersion</text>
</g>
<!-- uri::https://example.org/simulation/TensileTest_42&#45;&gt;uri::https://example.org/simulation/MeasurementData_42 -->
<g id="edge7" class="edge">
<title>uri::https://example.org/simulation/TensileTest_42&#45;&gt;uri::https://example.org/simulation/MeasurementData_42</title>
<path fill="none" stroke="#4a5568" stroke-width="1.2" d="M298.98,-713.03C263.4,-708.45 215.27,-700.02 175,-685 149.74,-675.58 123.52,-660.21 103.85,-647.38"/>
<polygon fill="#4a5568" stroke="#4a5568" stroke-width="1.2" points="105.15,-645.09 97.44,-643.15 102.25,-649.47 105.15,-645.09"/>
<text text-anchor="middle" x="220.5" y="-709.8" font-family="Helvetica,sans-Serif" font-size="9.00">sdata:producesData</text>
</g>
<!-- uri::https://example.org/simulation/TensileTest_42&#45;&gt;uri::https://example.org/simulation/Specimen_42 -->
<g id="edge9" class="edge">
<title>uri::https://example.org/simulation/TensileTest_42&#45;&gt;uri::https://example.org/simulation/Specimen_42</title>
<path fill="none" stroke="#4a5568" stroke-width="1.2" d="M403.21,-707.81C442.56,-697.42 495.5,-677.48 528,-641 604.32,-555.35 620.28,-410.56 623.62,-351.87"/>
<polygon fill="#4a5568" stroke="#4a5568" stroke-width="1.2" points="626.25,-351.79 624.01,-344.17 621.01,-351.53 626.25,-351.79"/>
<text text-anchor="middle" x="482" y="-699.8" font-family="Helvetica,sans-Serif" font-size="9.00">sdata:hasInput</text>
</g>
<!-- lit::DIN EN ISO 6892&#45;1:::: -->
<g id="node8" class="node">
<title>lit::DIN EN ISO 6892&#45;1::::</title>
<polygon fill="#fff9db" stroke="#b08900" stroke-width="1.2" points="674,-889 571,-889 571,-853 680,-853 680,-883 674,-889"/>
<polyline fill="none" stroke="#b08900" stroke-width="1.2" points="674,-889 674,-883 "/>
<polyline fill="none" stroke="#b08900" stroke-width="1.2" points="680,-883 674,-883 "/>
<text text-anchor="middle" x="625.5" y="-868.5" font-family="Helvetica,sans-Serif" font-size="10.00" fill="#5c4500">DIN EN ISO 6892&#45;1</text>
</g>
<!-- uri::https://example.org/simulation/TensileTest_42&#45;&gt;lit::DIN EN ISO 6892&#45;1:::: -->
<g id="edge8" class="edge">
<title>uri::https://example.org/simulation/TensileTest_42&#45;&gt;lit::DIN EN ISO 6892&#45;1::::</title>
<path fill="none" stroke="#4a5568" stroke-width="1.2" d="M383.36,-736.04C390.13,-740.54 397.05,-745.63 403,-751 420.37,-766.66 417.31,-777.94 436,-792 474.31,-820.82 524.68,-841.22 563.71,-854.06"/>
<polygon fill="#4a5568" stroke="#4a5568" stroke-width="1.2" points="562.92,-856.57 570.86,-856.37 564.53,-851.57 562.92,-856.57"/>
<text text-anchor="middle" x="482" y="-841.8" font-family="Helvetica,sans-Serif" font-size="9.00">sdata:hasStandard</text>
</g>
<!-- uri::https://w3id.org/sdata/core/MechanicalTest -->
<g id="node9" class="node">
<title>uri::https://w3id.org/sdata/core/MechanicalTest</title>
<path fill="#f3e8ff" stroke="#7e57c2" stroke-width="1.2" d="M675.5,-824C675.5,-824 575.5,-824 575.5,-824 569.5,-824 563.5,-818 563.5,-812 563.5,-812 563.5,-800 563.5,-800 563.5,-794 569.5,-788 575.5,-788 575.5,-788 675.5,-788 675.5,-788 681.5,-788 687.5,-794 687.5,-800 687.5,-800 687.5,-812 687.5,-812 687.5,-818 681.5,-824 675.5,-824"/>
<text text-anchor="middle" x="625.5" y="-803.5" font-family="Helvetica,sans-Serif" font-size="10.00" fill="#4527a0">sdata:MechanicalTest</text>
</g>
<!-- uri::https://example.org/simulation/TensileTest_42&#45;&gt;uri::https://w3id.org/sdata/core/MechanicalTest -->
<g id="edge10" class="edge">
<title>uri::https://example.org/simulation/TensileTest_42&#45;&gt;uri::https://w3id.org/sdata/core/MechanicalTest</title>
<path fill="none" stroke="#4a5568" stroke-width="1.2" d="M401.62,-736.13C412.89,-740.14 424.83,-744.29 436,-748 475.44,-761.1 519.85,-774.82 555.65,-785.62"/>
<polygon fill="#4a5568" stroke="#4a5568" stroke-width="1.2" points="555.22,-788.23 563.16,-787.88 556.73,-783.2 555.22,-788.23"/>
<text text-anchor="middle" x="482" y="-777.8" font-family="Helvetica,sans-Serif" font-size="9.00">rdf:type</text>
</g>
<!-- uri::https://example.org/simulation/ZwickZ100 -->
<g id="node10" class="node">
<title>uri::https://example.org/simulation/ZwickZ100</title>
<path fill="#e3f2fd" stroke="#1976d2" stroke-width="1.2" d="M657.5,-748C657.5,-748 593.5,-748 593.5,-748 587.5,-748 581.5,-742 581.5,-736 581.5,-736 581.5,-724 581.5,-724 581.5,-718 587.5,-712 593.5,-712 593.5,-712 657.5,-712 657.5,-712 663.5,-712 669.5,-718 669.5,-724 669.5,-724 669.5,-736 669.5,-736 669.5,-742 663.5,-748 657.5,-748"/>
<text text-anchor="middle" x="625.5" y="-727.5" font-family="Helvetica,sans-Serif" font-size="10.00" fill="#0d47a1">ex:ZwickZ100</text>
</g>
<!-- uri::https://example.org/simulation/TensileTest_42&#45;&gt;uri::https://example.org/simulation/ZwickZ100 -->
<g id="edge11" class="edge">
<title>uri::https://example.org/simulation/TensileTest_42&#45;&gt;uri::https://example.org/simulation/ZwickZ100</title>
<path fill="none" stroke="#4a5568" stroke-width="1.2" d="M403.27,-716.33C438.41,-715.6 486.07,-715.4 528,-718 542.92,-718.92 559.07,-720.65 573.81,-722.5"/>
<polygon fill="#4a5568" stroke="#4a5568" stroke-width="1.2" points="573.6,-725.12 581.37,-723.48 574.27,-719.91 573.6,-725.12"/>
<text text-anchor="middle" x="482" y="-720.8" font-family="Helvetica,sans-Serif" font-size="9.00">sdata:performedBy</text>
</g>
<!-- uri::https://example.org/simulation/TensileTest_42&#45;&gt;uri::https://example.org/simulation/ZwickZ100 -->
<g id="edge12" class="edge">
<title>uri::https://example.org/simulation/TensileTest_42&#45;&gt;uri::https://example.org/simulation/ZwickZ100</title>
<path fill="none" stroke="#4a5568" stroke-width="1.2" d="M403.43,-725.77C414.17,-727.1 425.43,-728.28 436,-729 482.49,-732.15 535.57,-732.11 573.53,-731.45"/>
<polygon fill="#4a5568" stroke="#4a5568" stroke-width="1.2" points="573.95,-734.07 581.4,-731.3 573.85,-728.82 573.95,-734.07"/>
<text text-anchor="middle" x="482" y="-733.8" font-family="Helvetica,sans-Serif" font-size="9.00">sdata:usesHardware</text>
</g>
<!-- uri::https://w3id.org/sdata/core/Product -->
<g id="node11" class="node">
<title>uri::https://w3id.org/sdata/core/Product</title>
<path fill="#f3e8ff" stroke="#7e57c2" stroke-width="1.2" d="M931.5,-409C931.5,-409 870.5,-409 870.5,-409 864.5,-409 858.5,-403 858.5,-397 858.5,-397 858.5,-385 858.5,-385 858.5,-379 864.5,-373 870.5,-373 870.5,-373 931.5,-373 931.5,-373 937.5,-373 943.5,-379 943.5,-385 943.5,-385 943.5,-397 943.5,-397 943.5,-403 937.5,-409 931.5,-409"/>
<text text-anchor="middle" x="901" y="-388.5" font-family="Helvetica,sans-Serif" font-size="10.00" fill="#4527a0">sdata:Product</text>
</g>
<!-- uri::https://example.org/simulation/Specimen_42&#45;&gt;uri::https://w3id.org/sdata/core/Product -->
<g id="edge13" class="edge">
<title>uri::https://example.org/simulation/Specimen_42&#45;&gt;uri::https://w3id.org/sdata/core/Product</title>
<path fill="none" stroke="#4a5568" stroke-width="1.2" d="M675.08,-337.55C724.58,-349.31 800.94,-367.46 850.69,-379.28"/>
<polygon fill="#4a5568" stroke="#4a5568" stroke-width="1.2" points="850.24,-381.87 858.14,-381.05 851.45,-376.76 850.24,-381.87"/>
<text text-anchor="middle" x="765.5" y="-370.8" font-family="Helvetica,sans-Serif" font-size="9.00">rdf:type</text>
</g>
<!-- uri::https://example.org/simulation/Steel_DC04 -->
<g id="node12" class="node">
<title>uri::https://example.org/simulation/Steel_DC04</title>
<path fill="#e3f2fd" stroke="#1976d2" stroke-width="1.2" d="M934,-344C934,-344 868,-344 868,-344 862,-344 856,-338 856,-332 856,-332 856,-320 856,-320 856,-314 862,-308 868,-308 868,-308 934,-308 934,-308 940,-308 946,-314 946,-320 946,-320 946,-332 946,-332 946,-338 940,-344 934,-344"/>
<text text-anchor="middle" x="901" y="-323.5" font-family="Helvetica,sans-Serif" font-size="10.00" fill="#0d47a1">ex:Steel_DC04</text>
</g>
<!-- uri::https://example.org/simulation/Specimen_42&#45;&gt;uri::https://example.org/simulation/Steel_DC04 -->
<g id="edge14" class="edge">
<title>uri::https://example.org/simulation/Specimen_42&#45;&gt;uri::https://example.org/simulation/Steel_DC04</title>
<path fill="none" stroke="#4a5568" stroke-width="1.2" d="M675.08,-326C723.75,-326 798.38,-326 848.17,-326"/>
<polygon fill="#4a5568" stroke="#4a5568" stroke-width="1.2" points="848.44,-328.63 855.94,-326 848.44,-323.38 848.44,-328.63"/>
<text text-anchor="middle" x="765.5" y="-328.8" font-family="Helvetica,sans-Serif" font-size="9.00">sdata:madeOf</text>
</g>
<!-- lit::SPEC&#45;42:::: -->
<g id="node13" class="node">
<title>lit::SPEC&#45;42::::</title>
<polygon fill="#fff9db" stroke="#b08900" stroke-width="1.2" points="924.5,-279 871.5,-279 871.5,-243 930.5,-243 930.5,-273 924.5,-279"/>
<polyline fill="none" stroke="#b08900" stroke-width="1.2" points="924.5,-279 924.5,-273 "/>
<polyline fill="none" stroke="#b08900" stroke-width="1.2" points="930.5,-273 924.5,-273 "/>
<text text-anchor="middle" x="901" y="-258.5" font-family="Helvetica,sans-Serif" font-size="10.00" fill="#5c4500">SPEC&#45;42</text>
</g>
<!-- uri::https://example.org/simulation/Specimen_42&#45;&gt;lit::SPEC&#45;42:::: -->
<g id="edge15" class="edge">
<title>uri::https://example.org/simulation/Specimen_42&#45;&gt;lit::SPEC&#45;42::::</title>
<path fill="none" stroke="#4a5568" stroke-width="1.2" d="M675.08,-314.45C729.14,-301.61 815.24,-281.14 863.73,-269.62"/>
<polygon fill="#4a5568" stroke="#4a5568" stroke-width="1.2" points="864.49,-272.14 871.18,-267.85 863.27,-267.03 864.49,-272.14"/>
<text text-anchor="middle" x="765.5" y="-303.8" font-family="Helvetica,sans-Serif" font-size="9.00">sdata:hasIdentifier</text>
</g>
<!-- uri::https://w3id.org/sdata/core/Hardware -->
<g id="node22" class="node">
<title>uri::https://w3id.org/sdata/core/Hardware</title>
<path fill="#f3e8ff" stroke="#7e57c2" stroke-width="1.2" d="M937,-813C937,-813 865,-813 865,-813 859,-813 853,-807 853,-801 853,-801 853,-789 853,-789 853,-783 859,-777 865,-777 865,-777 937,-777 937,-777 943,-777 949,-783 949,-789 949,-789 949,-801 949,-801 949,-807 943,-813 937,-813"/>
<text text-anchor="middle" x="901" y="-792.5" font-family="Helvetica,sans-Serif" font-size="10.00" fill="#4527a0">sdata:Hardware</text>
</g>
<!-- uri::https://example.org/simulation/ZwickZ100&#45;&gt;uri::https://w3id.org/sdata/core/Hardware -->
<g id="edge29" class="edge">
<title>uri::https://example.org/simulation/ZwickZ100&#45;&gt;uri::https://w3id.org/sdata/core/Hardware</title>
<path fill="none" stroke="#4a5568" stroke-width="1.2" d="M669.54,-740.23C716.99,-751.51 793.47,-769.68 845.18,-781.97"/>
<polygon fill="#4a5568" stroke="#4a5568" stroke-width="1.2" points="844.72,-784.56 852.63,-783.74 845.94,-779.45 844.72,-784.56"/>
<text text-anchor="middle" x="765.5" y="-774.8" font-family="Helvetica,sans-Serif" font-size="9.00">rdf:type</text>
</g>
<!-- uri::https://w3id.org/sdata/core/MachineAgent -->
<g id="node23" class="node">
<title>uri::https://w3id.org/sdata/core/MachineAgent</title>
<path fill="#f3e8ff" stroke="#7e57c2" stroke-width="1.2" d="M948,-748C948,-748 854,-748 854,-748 848,-748 842,-742 842,-736 842,-736 842,-724 842,-724 842,-718 848,-712 854,-712 854,-712 948,-712 948,-712 954,-712 960,-718 960,-724 960,-724 960,-736 960,-736 960,-742 954,-748 948,-748"/>
<text text-anchor="middle" x="901" y="-727.5" font-family="Helvetica,sans-Serif" font-size="10.00" fill="#4527a0">sdata:MachineAgent</text>
</g>
<!-- uri::https://example.org/simulation/ZwickZ100&#45;&gt;uri::https://w3id.org/sdata/core/MachineAgent -->
<g id="edge30" class="edge">
<title>uri::https://example.org/simulation/ZwickZ100&#45;&gt;uri::https://w3id.org/sdata/core/MachineAgent</title>
<path fill="none" stroke="#4a5568" stroke-width="1.2" d="M669.54,-730C713.75,-730 783.15,-730 834.24,-730"/>
<polygon fill="#4a5568" stroke="#4a5568" stroke-width="1.2" points="834.46,-732.63 841.96,-730 834.46,-727.38 834.46,-732.63"/>
<text text-anchor="middle" x="765.5" y="-732.8" font-family="Helvetica,sans-Serif" font-size="9.00">rdf:type</text>
</g>
<!-- lit::HW&#45;ZWICK&#45;Z100:::: -->
<g id="node24" class="node">
<title>lit::HW&#45;ZWICK&#45;Z100::::</title>
<polygon fill="#fff9db" stroke="#b08900" stroke-width="1.2" points="945,-683 851,-683 851,-647 951,-647 951,-677 945,-683"/>
<polyline fill="none" stroke="#b08900" stroke-width="1.2" points="945,-683 945,-677 "/>
<polyline fill="none" stroke="#b08900" stroke-width="1.2" points="951,-677 945,-677 "/>
<text text-anchor="middle" x="901" y="-662.5" font-family="Helvetica,sans-Serif" font-size="10.00" fill="#5c4500">HW&#45;ZWICK&#45;Z100</text>
</g>
<!-- uri::https://example.org/simulation/ZwickZ100&#45;&gt;lit::HW&#45;ZWICK&#45;Z100:::: -->
<g id="edge31" class="edge">
<title>uri::https://example.org/simulation/ZwickZ100&#45;&gt;lit::HW&#45;ZWICK&#45;Z100::::</title>
<path fill="none" stroke="#4a5568" stroke-width="1.2" d="M669.54,-719.77C716.42,-708.63 791.63,-690.76 843.3,-678.48"/>
<polygon fill="#4a5568" stroke="#4a5568" stroke-width="1.2" points="844.05,-680.99 850.74,-676.71 842.84,-675.89 844.05,-680.99"/>
<text text-anchor="middle" x="765.5" y="-707.8" font-family="Helvetica,sans-Serif" font-size="9.00">sdata:hasIdentifier</text>
</g>
<!-- lit::MAT&#45;DC04&#45;001:::: -->
<g id="node25" class="node">
<title>lit::MAT&#45;DC04&#45;001::::</title>
<polygon fill="#fff9db" stroke="#b08900" stroke-width="1.2" points="1197,-376 1112,-376 1112,-340 1203,-340 1203,-370 1197,-376"/>
<polyline fill="none" stroke="#b08900" stroke-width="1.2" points="1197,-376 1197,-370 "/>
<polyline fill="none" stroke="#b08900" stroke-width="1.2" points="1203,-370 1197,-370 "/>
<text text-anchor="middle" x="1157.5" y="-355.5" font-family="Helvetica,sans-Serif" font-size="10.00" fill="#5c4500">MAT&#45;DC04&#45;001</text>
</g>
<!-- uri::https://example.org/simulation/Steel_DC04&#45;&gt;lit::MAT&#45;DC04&#45;001:::: -->
<g id="edge32" class="edge">
<title>uri::https://example.org/simulation/Steel_DC04&#45;&gt;lit::MAT&#45;DC04&#45;001::::</title>
<path fill="none" stroke="#4a5568" stroke-width="1.2" d="M946.04,-331.54C989.97,-337.06 1057.47,-345.55 1104.13,-351.41"/>
<polygon fill="#4a5568" stroke="#4a5568" stroke-width="1.2" points="1103.95,-354.04 1111.72,-352.37 1104.6,-348.83 1103.95,-354.04"/>
<text text-anchor="middle" x="1036.5" y="-349.8" font-family="Helvetica,sans-Serif" font-size="9.00">sdata:hasIdentifier</text>
</g>
<!-- uri::https://w3id.org/sdata/core/Material -->
<g id="node26" class="node">
<title>uri::https://w3id.org/sdata/core/Material</title>
<path fill="#f3e8ff" stroke="#7e57c2" stroke-width="1.2" d="M1190,-311C1190,-311 1125,-311 1125,-311 1119,-311 1113,-305 1113,-299 1113,-299 1113,-287 1113,-287 1113,-281 1119,-275 1125,-275 1125,-275 1190,-275 1190,-275 1196,-275 1202,-281 1202,-287 1202,-287 1202,-299 1202,-299 1202,-305 1196,-311 1190,-311"/>
<text text-anchor="middle" x="1157.5" y="-290.5" font-family="Helvetica,sans-Serif" font-size="10.00" fill="#4527a0">sdata:Material</text>
</g>
<!-- uri::https://example.org/simulation/Steel_DC04&#45;&gt;uri::https://w3id.org/sdata/core/Material -->
<g id="edge33" class="edge">
<title>uri::https://example.org/simulation/Steel_DC04&#45;&gt;uri::https://w3id.org/sdata/core/Material</title>
<path fill="none" stroke="#4a5568" stroke-width="1.2" d="M946.04,-320.29C990.38,-314.54 1058.72,-305.68 1105.41,-299.62"/>
<polygon fill="#4a5568" stroke="#4a5568" stroke-width="1.2" points="1105.9,-302.21 1113,-298.64 1105.22,-297 1105.9,-302.21"/>
<text text-anchor="middle" x="1036.5" y="-315.8" font-family="Helvetica,sans-Serif" font-size="9.00">rdf:type</text>
</g>
<!-- uri::https://example.org/simulation/SimulationResult_v3 -->
<g id="node14" class="node">
<title>uri::https://example.org/simulation/SimulationResult_v3</title>
<path fill="#e3f2fd" stroke="#1976d2" stroke-width="1.2" d="M126,-216C126,-216 16,-216 16,-216 10,-216 4,-210 4,-204 4,-204 4,-192 4,-192 4,-186 10,-180 16,-180 16,-180 126,-180 126,-180 132,-180 138,-186 138,-192 138,-192 138,-204 138,-204 138,-210 132,-216 126,-216"/>
<text text-anchor="middle" x="71" y="-195.5" font-family="Helvetica,sans-Serif" font-size="10.00" fill="#0d47a1">ex:SimulationResult_v3</text>
</g>
<!-- uri::https://example.org/simulation/SimulationResult_v3&#45;&gt;uri::https://example.org/simulation/Specimen_42 -->
<g id="edge16" class="edge">
<title>uri::https://example.org/simulation/SimulationResult_v3&#45;&gt;uri::https://example.org/simulation/Specimen_42</title>
<path fill="none" stroke="#4a5568" stroke-width="1.2" d="M138.04,-204.04C175.58,-207.58 223.45,-212.28 266,-217 326.98,-223.77 343.68,-218.31 403,-234 467.96,-251.18 539.03,-283.26 582.7,-304.62"/>
<polygon fill="#4a5568" stroke="#4a5568" stroke-width="1.2" points="581.58,-307 589.47,-307.96 583.9,-302.29 581.58,-307"/>
<text text-anchor="middle" x="351" y="-236.8" font-family="Helvetica,sans-Serif" font-size="9.00">sdata:describes</text>
</g>
<!-- uri::https://example.org/simulation/SimulationResult_v3&#45;&gt;uri::https://w3id.org/sdata/core/Data -->
<g id="edge18" class="edge">
<title>uri::https://example.org/simulation/SimulationResult_v3&#45;&gt;uri::https://w3id.org/sdata/core/Data</title>
<path fill="none" stroke="#4a5568" stroke-width="1.2" d="M100.12,-216.23C120.41,-228.93 148.76,-245.72 175,-258 213.97,-276.23 235.41,-260.75 266,-291 295.7,-320.38 274.32,-345.3 299,-379 303.54,-385.2 309.28,-390.93 315.27,-396.01"/>
<polygon fill="#4a5568" stroke="#4a5568" stroke-width="1.2" points="313.8,-398.2 321.29,-400.86 317.1,-394.12 313.8,-398.2"/>
<text text-anchor="middle" x="220.5" y="-293.8" font-family="Helvetica,sans-Serif" font-size="9.00">rdf:type</text>
</g>
<!-- lit::3.0.0:::: -->
<g id="node15" class="node">
<title>lit::3.0.0::::</title>
<polygon fill="#fff9db" stroke="#b08900" stroke-width="1.2" points="372,-294 324,-294 324,-258 378,-258 378,-288 372,-294"/>
<polyline fill="none" stroke="#b08900" stroke-width="1.2" points="372,-294 372,-288 "/>
<polyline fill="none" stroke="#b08900" stroke-width="1.2" points="378,-288 372,-288 "/>
<text text-anchor="middle" x="351" y="-273.5" font-family="Helvetica,sans-Serif" font-size="10.00" fill="#5c4500">3.0.0</text>
</g>
<!-- uri::https://example.org/simulation/SimulationResult_v3&#45;&gt;lit::3.0.0:::: -->
<g id="edge17" class="edge">
<title>uri::https://example.org/simulation/SimulationResult_v3&#45;&gt;lit::3.0.0::::</title>
<path fill="none" stroke="#4a5568" stroke-width="1.2" d="M138.38,-213.29C176.03,-222.33 223.89,-234.44 266,-247 282.77,-252 301.17,-258.27 316.47,-263.69"/>
<polygon fill="#4a5568" stroke="#4a5568" stroke-width="1.2" points="315.76,-266.23 323.7,-266.28 317.52,-261.28 315.76,-266.23"/>
<text text-anchor="middle" x="220.5" y="-249.8" font-family="Helvetica,sans-Serif" font-size="9.00">sdata:hasVersion</text>
</g>
<!-- uri::https://example.org/simulation/CrashSim_v3 -->
<g id="node16" class="node">
<title>uri::https://example.org/simulation/CrashSim_v3</title>
<path fill="#e3f2fd" stroke="#1976d2" stroke-width="1.2" d="M387.5,-142C387.5,-142 314.5,-142 314.5,-142 308.5,-142 302.5,-136 302.5,-130 302.5,-130 302.5,-118 302.5,-118 302.5,-112 308.5,-106 314.5,-106 314.5,-106 387.5,-106 387.5,-106 393.5,-106 399.5,-112 399.5,-118 399.5,-118 399.5,-130 399.5,-130 399.5,-136 393.5,-142 387.5,-142"/>
<text text-anchor="middle" x="351" y="-121.5" font-family="Helvetica,sans-Serif" font-size="10.00" fill="#0d47a1">ex:CrashSim_v3</text>
</g>
<!-- uri::https://example.org/simulation/SimulationResult_v3&#45;&gt;uri::https://example.org/simulation/CrashSim_v3 -->
<g id="edge19" class="edge">
<title>uri::https://example.org/simulation/SimulationResult_v3&#45;&gt;uri::https://example.org/simulation/CrashSim_v3</title>
<path fill="none" stroke="#4a5568" stroke-width="1.2" d="M132.62,-179.94C146.52,-175.91 161.25,-171.73 175,-168 214.91,-157.17 260.2,-145.81 294.7,-137.35"/>
<polygon fill="#4a5568" stroke="#4a5568" stroke-width="1.2" points="295.68,-139.81 302.34,-135.48 294.43,-134.71 295.68,-139.81"/>
<text text-anchor="middle" x="220.5" y="-170.8" font-family="Helvetica,sans-Serif" font-size="9.00">sdata:producedBy</text>
</g>
<!-- uri::https://example.org/simulation/CrashSim_v3&#45;&gt;uri::https://example.org/simulation/Specimen_42 -->
<g id="edge23" class="edge">
<title>uri::https://example.org/simulation/CrashSim_v3&#45;&gt;uri::https://example.org/simulation/Specimen_42</title>
<path fill="none" stroke="#4a5568" stroke-width="1.2" d="M399.51,-120.04C437.52,-119.28 490.48,-123.89 528,-150 580.56,-186.57 607.38,-261.32 618.34,-300.6"/>
<polygon fill="#4a5568" stroke="#4a5568" stroke-width="1.2" points="615.84,-301.4 620.32,-307.96 620.9,-300.03 615.84,-301.4"/>
<text text-anchor="middle" x="482" y="-152.8" font-family="Helvetica,sans-Serif" font-size="9.00">sdata:hasOutput</text>
</g>
<!-- uri::https://example.org/simulation/CrashSim_v3&#45;&gt;uri::https://example.org/simulation/Specimen_42 -->
<g id="edge24" class="edge">
<title>uri::https://example.org/simulation/CrashSim_v3&#45;&gt;uri::https://example.org/simulation/Specimen_42</title>
<path fill="none" stroke="#4a5568" stroke-width="1.2" d="M391.5,-142.08C405.47,-148.3 421.35,-155.15 436,-161 476.35,-177.1 493.21,-167.99 528,-194 566.73,-222.95 596.64,-271.82 612.33,-301.28"/>
<polygon fill="#4a5568" stroke="#4a5568" stroke-width="1.2" points="610.02,-302.54 615.82,-307.97 614.68,-300.11 610.02,-302.54"/>
<text text-anchor="middle" x="482" y="-196.8" font-family="Helvetica,sans-Serif" font-size="9.00">sdata:hasInput</text>
</g>
<!-- uri::https://example.org/simulation/CrashSim_v3&#45;&gt;uri::https://example.org/simulation/SimulationResult_v3 -->
<g id="edge25" class="edge">
<title>uri::https://example.org/simulation/CrashSim_v3&#45;&gt;uri::https://example.org/simulation/SimulationResult_v3</title>
<path fill="none" stroke="#4a5568" stroke-width="1.2" d="M302.38,-117.93C266.49,-115.05 216.53,-114.7 175,-128 145.33,-137.5 116.43,-158.48 96.83,-175.01"/>
<polygon fill="#4a5568" stroke="#4a5568" stroke-width="1.2" points="95.03,-173.1 91.06,-179.98 98.45,-177.08 95.03,-173.1"/>
<text text-anchor="middle" x="220.5" y="-130.8" font-family="Helvetica,sans-Serif" font-size="9.00">sdata:producesData</text>
</g>
<!-- uri::https://example.org/simulation/LSDYNA_R14 -->
<g id="node17" class="node">
<title>uri::https://example.org/simulation/LSDYNA_R14</title>
<path fill="#e3f2fd" stroke="#1976d2" stroke-width="1.2" d="M662,-113C662,-113 589,-113 589,-113 583,-113 577,-107 577,-101 577,-101 577,-89 577,-89 577,-83 583,-77 589,-77 589,-77 662,-77 662,-77 668,-77 674,-83 674,-89 674,-89 674,-101 674,-101 674,-107 668,-113 662,-113"/>
<text text-anchor="middle" x="625.5" y="-92.5" font-family="Helvetica,sans-Serif" font-size="10.00" fill="#0d47a1">ex:LSDYNA_R14</text>
</g>
<!-- uri::https://example.org/simulation/CrashSim_v3&#45;&gt;uri::https://example.org/simulation/LSDYNA_R14 -->
<g id="edge26" class="edge">
<title>uri::https://example.org/simulation/CrashSim_v3&#45;&gt;uri::https://example.org/simulation/LSDYNA_R14</title>
<path fill="none" stroke="#4a5568" stroke-width="1.2" d="M369.37,-105.88C385.12,-90.85 409.83,-70.61 436,-62 482.94,-46.55 538.97,-60.2 577.68,-74.34"/>
<polygon fill="#4a5568" stroke="#4a5568" stroke-width="1.2" points="576.76,-76.8 584.7,-76.98 578.6,-71.88 576.76,-76.8"/>
<text text-anchor="middle" x="482" y="-64.8" font-family="Helvetica,sans-Serif" font-size="9.00">sdata:performedBy</text>
</g>
<!-- uri::https://example.org/simulation/CrashSim_v3&#45;&gt;uri::https://example.org/simulation/LSDYNA_R14 -->
<g id="edge27" class="edge">
<title>uri::https://example.org/simulation/CrashSim_v3&#45;&gt;uri::https://example.org/simulation/LSDYNA_R14</title>
<path fill="none" stroke="#4a5568" stroke-width="1.2" d="M399.75,-112.45C411.54,-109.96 424.18,-107.6 436,-106 480.43,-99.98 531.19,-97.25 568.83,-96.02"/>
<polygon fill="#4a5568" stroke="#4a5568" stroke-width="1.2" points="569.25,-98.63 576.66,-95.78 569.08,-93.38 569.25,-98.63"/>
<text text-anchor="middle" x="482" y="-108.8" font-family="Helvetica,sans-Serif" font-size="9.00">sdata:usesSoftware</text>
</g>
<!-- uri::https://w3id.org/sdata/core/CrashSimulation -->
<g id="node21" class="node">
<title>uri::https://w3id.org/sdata/core/CrashSimulation</title>
<path fill="#f3e8ff" stroke="#7e57c2" stroke-width="1.2" d="M678,-36C678,-36 573,-36 573,-36 567,-36 561,-30 561,-24 561,-24 561,-12 561,-12 561,-6 567,0 573,0 573,0 678,0 678,0 684,0 690,-6 690,-12 690,-12 690,-24 690,-24 690,-30 684,-36 678,-36"/>
<text text-anchor="middle" x="625.5" y="-15.5" font-family="Helvetica,sans-Serif" font-size="10.00" fill="#4527a0">sdata:CrashSimulation</text>
</g>
<!-- uri::https://example.org/simulation/CrashSim_v3&#45;&gt;uri::https://w3id.org/sdata/core/CrashSimulation -->
<g id="edge28" class="edge">
<title>uri::https://example.org/simulation/CrashSim_v3&#45;&gt;uri::https://w3id.org/sdata/core/CrashSimulation</title>
<path fill="none" stroke="#4a5568" stroke-width="1.2" d="M364.09,-105.8C378.57,-85.68 404.82,-54.11 436,-39 472.1,-21.51 516.54,-15.91 553.19,-14.85"/>
<polygon fill="#4a5568" stroke="#4a5568" stroke-width="1.2" points="553.45,-17.47 560.89,-14.68 553.34,-12.22 553.45,-17.47"/>
<text text-anchor="middle" x="482" y="-41.8" font-family="Helvetica,sans-Serif" font-size="9.00">rdf:type</text>
</g>
<!-- lit::SW&#45;LSDYNA&#45;R14:::: -->
<g id="node18" class="node">
<title>lit::SW&#45;LSDYNA&#45;R14::::</title>
<polygon fill="#fff9db" stroke="#b08900" stroke-width="1.2" points="945,-178 851,-178 851,-142 951,-142 951,-172 945,-178"/>
<polyline fill="none" stroke="#b08900" stroke-width="1.2" points="945,-178 945,-172 "/>
<polyline fill="none" stroke="#b08900" stroke-width="1.2" points="951,-172 945,-172 "/>
<text text-anchor="middle" x="901" y="-157.5" font-family="Helvetica,sans-Serif" font-size="10.00" fill="#5c4500">SW&#45;LSDYNA&#45;R14</text>
</g>
<!-- uri::https://example.org/simulation/LSDYNA_R14&#45;&gt;lit::SW&#45;LSDYNA&#45;R14:::: -->
<g id="edge20" class="edge">
<title>uri::https://example.org/simulation/LSDYNA_R14&#45;&gt;lit::SW&#45;LSDYNA&#45;R14::::</title>
<path fill="none" stroke="#4a5568" stroke-width="1.2" d="M674.14,-106.32C721.16,-117.5 793.08,-134.59 843.08,-146.47"/>
<polygon fill="#4a5568" stroke="#4a5568" stroke-width="1.2" points="842.7,-149.08 850.6,-148.26 843.91,-143.97 842.7,-149.08"/>
<text text-anchor="middle" x="765.5" y="-140.8" font-family="Helvetica,sans-Serif" font-size="9.00">sdata:hasIdentifier</text>
</g>
<!-- uri::https://w3id.org/sdata/core/Software -->
<g id="node19" class="node">
<title>uri::https://w3id.org/sdata/core/Software</title>
<path fill="#f3e8ff" stroke="#7e57c2" stroke-width="1.2" d="M934.5,-113C934.5,-113 867.5,-113 867.5,-113 861.5,-113 855.5,-107 855.5,-101 855.5,-101 855.5,-89 855.5,-89 855.5,-83 861.5,-77 867.5,-77 867.5,-77 934.5,-77 934.5,-77 940.5,-77 946.5,-83 946.5,-89 946.5,-89 946.5,-101 946.5,-101 946.5,-107 940.5,-113 934.5,-113"/>
<text text-anchor="middle" x="901" y="-92.5" font-family="Helvetica,sans-Serif" font-size="10.00" fill="#4527a0">sdata:Software</text>
</g>
<!-- uri::https://example.org/simulation/LSDYNA_R14&#45;&gt;uri::https://w3id.org/sdata/core/Software -->
<g id="edge21" class="edge">
<title>uri::https://example.org/simulation/LSDYNA_R14&#45;&gt;uri::https://w3id.org/sdata/core/Software</title>
<path fill="none" stroke="#4a5568" stroke-width="1.2" d="M674.14,-95C722.62,-95 797.55,-95 847.66,-95"/>
<polygon fill="#4a5568" stroke="#4a5568" stroke-width="1.2" points="847.67,-97.63 855.17,-95 847.67,-92.38 847.67,-97.63"/>
<text text-anchor="middle" x="765.5" y="-97.8" font-family="Helvetica,sans-Serif" font-size="9.00">rdf:type</text>
</g>
<!-- uri::https://w3id.org/sdata/core/SoftwareAgent -->
<g id="node20" class="node">
<title>uri::https://w3id.org/sdata/core/SoftwareAgent</title>
<path fill="#f3e8ff" stroke="#7e57c2" stroke-width="1.2" d="M949,-48C949,-48 853,-48 853,-48 847,-48 841,-42 841,-36 841,-36 841,-24 841,-24 841,-18 847,-12 853,-12 853,-12 949,-12 949,-12 955,-12 961,-18 961,-24 961,-24 961,-36 961,-36 961,-42 955,-48 949,-48"/>
<text text-anchor="middle" x="901" y="-27.5" font-family="Helvetica,sans-Serif" font-size="10.00" fill="#4527a0">sdata:SoftwareAgent</text>
</g>
<!-- uri::https://example.org/simulation/LSDYNA_R14&#45;&gt;uri::https://w3id.org/sdata/core/SoftwareAgent -->
<g id="edge22" class="edge">
<title>uri::https://example.org/simulation/LSDYNA_R14&#45;&gt;uri::https://w3id.org/sdata/core/SoftwareAgent</title>
<path fill="none" stroke="#4a5568" stroke-width="1.2" d="M674.14,-83.68C718.1,-73.23 783.83,-57.61 833.06,-45.91"/>
<polygon fill="#4a5568" stroke="#4a5568" stroke-width="1.2" points="833.82,-48.43 840.51,-44.14 832.6,-43.32 833.82,-48.43"/>
<text text-anchor="middle" x="765.5" y="-73.8" font-family="Helvetica,sans-Serif" font-size="9.00">rdf:type</text>
</g>
<!-- uri::https://example.org/simulation/FEModel_v3 -->
<g id="node27" class="node">
<title>uri::https://example.org/simulation/FEModel_v3</title>
<path fill="#e3f2fd" stroke="#1976d2" stroke-width="1.2" d="M105.5,-383C105.5,-383 36.5,-383 36.5,-383 30.5,-383 24.5,-377 24.5,-371 24.5,-371 24.5,-359 24.5,-359 24.5,-353 30.5,-347 36.5,-347 36.5,-347 105.5,-347 105.5,-347 111.5,-347 117.5,-353 117.5,-359 117.5,-359 117.5,-371 117.5,-371 117.5,-377 111.5,-383 105.5,-383"/>
<text text-anchor="middle" x="71" y="-362.5" font-family="Helvetica,sans-Serif" font-size="10.00" fill="#0d47a1">ex:FEModel_v3</text>
</g>
<!-- uri::https://example.org/simulation/FEModel_v3&#45;&gt;uri::https://example.org/simulation/Specimen_42 -->
<g id="edge34" class="edge">
<title>uri::https://example.org/simulation/FEModel_v3&#45;&gt;uri::https://example.org/simulation/Specimen_42</title>
<path fill="none" stroke="#4a5568" stroke-width="1.2" d="M117.68,-361.78C218.17,-354.68 458.16,-337.74 567.94,-329.99"/>
<polygon fill="#4a5568" stroke="#4a5568" stroke-width="1.2" points="568.32,-332.6 575.62,-329.45 567.95,-327.36 568.32,-332.6"/>
<text text-anchor="middle" x="351" y="-350.8" font-family="Helvetica,sans-Serif" font-size="9.00">sdata:describes</text>
</g>
<!-- uri::https://example.org/simulation/FEModel_v3&#45;&gt;uri::https://w3id.org/sdata/core/Data -->
<g id="edge36" class="edge">
<title>uri::https://example.org/simulation/FEModel_v3&#45;&gt;uri::https://w3id.org/sdata/core/Data</title>
<path fill="none" stroke="#4a5568" stroke-width="1.2" d="M117.59,-373.86C170.19,-384.07 256.01,-400.74 307.33,-410.71"/>
<polygon fill="#4a5568" stroke="#4a5568" stroke-width="1.2" points="307.09,-413.34 314.96,-412.19 308.1,-408.19 307.09,-413.34"/>
<text text-anchor="middle" x="220.5" y="-403.8" font-family="Helvetica,sans-Serif" font-size="9.00">rdf:type</text>
</g>
<!-- uri::https://example.org/simulation/FEModel_v3&#45;&gt;lit::3.0.0:::: -->
<g id="edge35" class="edge">
<title>uri::https://example.org/simulation/FEModel_v3&#45;&gt;lit::3.0.0::::</title>
<path fill="none" stroke="#4a5568" stroke-width="1.2" d="M117.59,-350.4C173.42,-332.53 266.65,-302.68 316.37,-286.77"/>
<polygon fill="#4a5568" stroke="#4a5568" stroke-width="1.2" points="317.33,-289.22 323.67,-284.43 315.73,-284.22 317.33,-289.22"/>
<text text-anchor="middle" x="220.5" y="-333.8" font-family="Helvetica,sans-Serif" font-size="9.00">sdata:hasVersion</text>
</g>
</g>
</svg>
