<?xml version="1.0" encoding="UTF-8" standalone="no"?>
<!DOCTYPE svg PUBLIC "-//W3C//DTD SVG 1.1//EN"
 "http://www.w3.org/Graphics/SVG/1.1/DTD/svg11.dtd">
<!-- Generated by graphviz version 2.43.0 (0)
 -->
<!-- Pages: 1 -->
<svg width="1310pt" height="861pt"
 viewBox="0.00 0.00 1310.40 861.40" xmlns="http://www.w3.org/2000/svg" xmlns:xlink="http://www.w3.org/1999/xlink">
<g id="graph0" class="graph" transform="scale(1 1) rotate(0) translate(25.2 836.2)">
<polygon fill="#fafbfc" stroke="transparent" points="-25.2,25.2 -25.2,-836.2 1285.2,-836.2 1285.2,25.2 -25.2,25.2"/>
<text text-anchor="middle" x="630" y="-792.6" font-family="Helvetica,sans-Serif" font-size="18.00">TTL Graph: tensiontest&#45;crashsimulation.ttl</text>
<!-- uri::https://example.org/simulation/SimulationResult_v3 -->
<g id="node1" class="node">
<title>uri::https://example.org/simulation/SimulationResult_v3</title>
<path fill="#e3f2fd" stroke="#1976d2" stroke-width="1.2" d="M122,-516C122,-516 12,-516 12,-516 6,-516 0,-510 0,-504 0,-504 0,-492 0,-492 0,-486 6,-480 12,-480 12,-480 122,-480 122,-480 128,-480 134,-486 134,-492 134,-492 134,-504 134,-504 134,-510 128,-516 122,-516"/>
<text text-anchor="middle" x="67" y="-495.5" font-family="Helvetica,sans-Serif" font-size="10.00" fill="#0d47a1">ex:SimulationResult_v3</text>
</g>
<!-- uri::https://example.org/simulation/CrashSim_v3 -->
<g id="node2" class="node">
<title>uri::https://example.org/simulation/CrashSim_v3</title>
<path fill="#e3f2fd" stroke="#1976d2" stroke-width="1.2" d="M393.5,-609C393.5,-609 320.5,-609 320.5,-609 314.5,-609 308.5,-603 308.5,-597 308.5,-597 308.5,-585 308.5,-585 308.5,-579 314.5,-573 320.5,-573 320.5,-573 393.5,-573 393.5,-573 399.5,-573 405.5,-579 405.5,-585 405.5,-585 405.5,-597 405.5,-597 405.5,-603 399.5,-609 393.5,-609"/>
<text text-anchor="middle" x="357" y="-588.5" font-family="Helvetica,sans-Serif" font-size="10.00" fill="#0d47a1">ex:CrashSim_v3</text>
</g>
<!-- uri::https://example.org/simulation/SimulationResult_v3&#45;&gt;uri::https://example.org/simulation/CrashSim_v3 -->
<g id="edge1" class="edge">
<title>uri::https://example.org/simulation/SimulationResult_v3&#45;&gt;uri::https://example.org/simulation/CrashSim_v3</title>
<path fill="none" stroke="#4a5568" stroke-width="1.2" d="M91.91,-516.01C111.19,-529.63 139.53,-547.69 167,-558 210.27,-574.23 262.16,-582.56 300.61,-586.79"/>
<polygon fill="#4a5568" stroke="#4a5568" stroke-width="1.2" points="300.38,-589.4 308.11,-587.58 300.93,-584.18 300.38,-589.4"/>
<text text-anchor="middle" x="212.5" y="-582.8" font-family="Helvetica,sans-Serif" font-size="9.00">sdata:producedBy</text>
</g>
<!-- uri::https://example.org/simulation/Specimen_42 -->
<g id="node3" class="node">
<title>uri::https://example.org/simulation/Specimen_42</title>
<path fill="#e3f2fd" stroke="#1976d2" stroke-width="1.2" d="M980,-442C980,-442 905,-442 905,-442 899,-442 893,-436 893,-430 893,-430 893,-418 893,-418 893,-412 899,-406 905,-406 905,-406 980,-406 980,-406 986,-406 992,-412 992,-418 992,-418 992,-430 992,-430 992,-436 986,-442 980,-442"/>
<text text-anchor="middle" x="942.5" y="-421.5" font-family="Helvetica,sans-Serif" font-size="10.00" fill="#0d47a1">ex:Specimen_42</text>
</g>
<!-- uri::https://example.org/simulation/SimulationResult_v3&#45;&gt;uri::https://example.org/simulation/Specimen_42 -->
<g id="edge2" class="edge">
<title>uri::https://example.org/simulation/SimulationResult_v3&#45;&gt;uri::https://example.org/simulation/Specimen_42</title>
<path fill="none" stroke="#4a5568" stroke-width="1.2" d="M134.26,-489.59C145.19,-488.31 156.41,-487.07 167,-486 435.51,-458.99 757.35,-436.33 885.18,-427.72"/>
<polygon fill="#4a5568" stroke="#4a5568" stroke-width="1.2" points="885.65,-430.32 892.95,-427.2 885.3,-425.08 885.65,-430.32"/>
<text text-anchor="middle" x="501.5" y="-461.8" font-family="Helvetica,sans-Serif" font-size="9.00">sdata:describes</text>
</g>
<!-- lit::3.0.0:::: -->
<g id="node4" class="node">
<title>lit::3.0.0::::</title>
<polygon fill="#fff9db" stroke="#b08900" stroke-width="1.2" points="963.5,-555 915.5,-555 915.5,-519 969.5,-519 969.5,-549 963.5,-555"/>
<polyline fill="none" stroke="#b08900" stroke-width="1.2" points="963.5,-555 963.5,-549 "/>
<polyline fill="none" stroke="#b08900" stroke-width="1.2" points="969.5,-549 963.5,-549 "/>
<text text-anchor="middle" x="942.5" y="-534.5" font-family="Helvetica,sans-Serif" font-size="10.00" fill="#5c4500">3.0.0</text>
</g>
<!-- uri::https://example.org/simulation/SimulationResult_v3&#45;&gt;lit::3.0.0:::: -->
<g id="edge3" class="edge">
<title>uri::https://example.org/simulation/SimulationResult_v3&#45;&gt;lit::3.0.0::::</title>
<path fill="none" stroke="#4a5568" stroke-width="1.2" d="M134.09,-495.86C267.83,-492.36 579.97,-488.39 840,-517 862.85,-519.51 888.23,-524.51 907.89,-528.89"/>
<polygon fill="#4a5568" stroke="#4a5568" stroke-width="1.2" points="907.51,-531.49 915.4,-530.59 908.67,-526.37 907.51,-531.49"/>
<text text-anchor="middle" x="501.5" y="-499.8" font-family="Helvetica,sans-Serif" font-size="9.00">sdata:hasVersion</text>
</g>
<!-- uri::https://w3id.org/sdata/core/SimulationResult -->
<g id="node5" class="node">
<title>uri::https://w3id.org/sdata/core/SimulationResult</title>
<path fill="#f3e8ff" stroke="#7e57c2" stroke-width="1.2" d="M411,-395C411,-395 303,-395 303,-395 297,-395 291,-389 291,-383 291,-383 291,-371 291,-371 291,-365 297,-359 303,-359 303,-359 411,-359 411,-359 417,-359 423,-365 423,-371 423,-371 423,-383 423,-383 423,-389 417,-395 411,-395"/>
<text text-anchor="middle" x="357" y="-374.5" font-family="Helvetica,sans-Serif" font-size="10.00" fill="#4527a0">sdata:SimulationResult</text>
</g>
<!-- uri::https://example.org/simulation/SimulationResult_v3&#45;&gt;uri::https://w3id.org/sdata/core/SimulationResult -->
<g id="edge4" class="edge">
<title>uri::https://example.org/simulation/SimulationResult_v3&#45;&gt;uri::https://w3id.org/sdata/core/SimulationResult</title>
<path fill="none" stroke="#4a5568" stroke-width="1.2" d="M81.91,-479.94C99.34,-458.74 131.27,-424.28 167,-407 202.88,-389.65 246.64,-381.97 283.01,-378.71"/>
<polygon fill="#4a5568" stroke="#4a5568" stroke-width="1.2" points="283.4,-381.32 290.66,-378.08 282.96,-376.08 283.4,-381.32"/>
<text text-anchor="middle" x="212.5" y="-409.8" font-family="Helvetica,sans-Serif" font-size="9.00">rdf:type</text>
</g>
<!-- uri::https://example.org/simulation/CrashSim_v3&#45;&gt;uri::https://example.org/simulation/SimulationResult_v3 -->
<g id="edge5" class="edge">
<title>uri::https://example.org/simulation/CrashSim_v3&#45;&gt;uri::https://example.org/simulation/SimulationResult_v3</title>
<path fill="none" stroke="#4a5568" stroke-width="1.2" d="M319.83,-572.99C301.59,-564.37 278.94,-554.34 258,-547 220.33,-533.79 177.35,-522.41 141.8,-513.95"/>
<polygon fill="#4a5568" stroke="#4a5568" stroke-width="1.2" points="142.23,-511.36 134.33,-512.19 141.03,-516.47 142.23,-511.36"/>
<text text-anchor="middle" x="212.5" y="-549.8" font-family="Helvetica,sans-Serif" font-size="9.00">sdata:producesData</text>
</g>
<!-- uri::https://example.org/simulation/LSDYNA_R14 -->
<g id="node6" class="node">
<title>uri::https://example.org/simulation/LSDYNA_R14</title>
<path fill="#e3f2fd" stroke="#1976d2" stroke-width="1.2" d="M687.5,-718C687.5,-718 614.5,-718 614.5,-718 608.5,-718 602.5,-712 602.5,-706 602.5,-706 602.5,-694 602.5,-694 602.5,-688 608.5,-682 614.5,-682 614.5,-682 687.5,-682 687.5,-682 693.5,-682 699.5,-688 699.5,-694 699.5,-694 699.5,-706 699.5,-706 699.5,-712 693.5,-718 687.5,-718"/>
<text text-anchor="middle" x="651" y="-697.5" font-family="Helvetica,sans-Serif" font-size="10.00" fill="#0d47a1">ex:LSDYNA_R14</text>
</g>
<!-- uri::https://example.org/simulation/CrashSim_v3&#45;&gt;uri::https://example.org/simulation/LSDYNA_R14 -->
<g id="edge6" class="edge">
<title>uri::https://example.org/simulation/CrashSim_v3&#45;&gt;uri::https://example.org/simulation/LSDYNA_R14</title>
<path fill="none" stroke="#4a5568" stroke-width="1.2" d="M404.29,-609.16C420.61,-615.5 439.09,-622.63 456,-629 502.92,-646.68 556.45,-666.22 595.37,-680.32"/>
<polygon fill="#4a5568" stroke="#4a5568" stroke-width="1.2" points="594.52,-682.81 602.47,-682.89 596.31,-677.87 594.52,-682.81"/>
<text text-anchor="middle" x="501.5" y="-664.8" font-family="Helvetica,sans-Serif" font-size="9.00">sdata:performedBy</text>
</g>
<!-- uri::https://example.org/simulation/FEModel_v3 -->
<g id="node7" class="node">
<title>uri::https://example.org/simulation/FEModel_v3</title>
<path fill="#e3f2fd" stroke="#1976d2" stroke-width="1.2" d="M685.5,-643C685.5,-643 616.5,-643 616.5,-643 610.5,-643 604.5,-637 604.5,-631 604.5,-631 604.5,-619 604.5,-619 604.5,-613 610.5,-607 616.5,-607 616.5,-607 685.5,-607 685.5,-607 691.5,-607 697.5,-613 697.5,-619 697.5,-619 697.5,-631 697.5,-631 697.5,-637 691.5,-643 685.5,-643"/>
<text text-anchor="middle" x="651" y="-622.5" font-family="Helvetica,sans-Serif" font-size="10.00" fill="#0d47a1">ex:FEModel_v3</text>
</g>
<!-- uri::https://example.org/simulation/CrashSim_v3&#45;&gt;uri::https://example.org/simulation/FEModel_v3 -->
<g id="edge7" class="edge">
<title>uri::https://example.org/simulation/CrashSim_v3&#45;&gt;uri::https://example.org/simulation/FEModel_v3</title>
<path fill="none" stroke="#4a5568" stroke-width="1.2" d="M405.56,-596.54C458.04,-602.65 542.28,-612.46 596.88,-618.81"/>
<polygon fill="#4a5568" stroke="#4a5568" stroke-width="1.2" points="596.63,-621.43 604.38,-619.69 597.23,-616.21 596.63,-621.43"/>
<text text-anchor="middle" x="501.5" y="-614.8" font-family="Helvetica,sans-Serif" font-size="9.00">sdata:hasInput</text>
</g>
<!-- uri::https://w3id.org/sdata/core/CrashSimulation -->
<g id="node8" class="node">
<title>uri::https://w3id.org/sdata/core/CrashSimulation</title>
<path fill="#f3e8ff" stroke="#7e57c2" stroke-width="1.2" d="M703.5,-578C703.5,-578 598.5,-578 598.5,-578 592.5,-578 586.5,-572 586.5,-566 586.5,-566 586.5,-554 586.5,-554 586.5,-548 592.5,-542 598.5,-542 598.5,-542 703.5,-542 703.5,-542 709.5,-542 715.5,-548 715.5,-554 715.5,-554 715.5,-566 715.5,-566 715.5,-572 709.5,-578 703.5,-578"/>
<text text-anchor="middle" x="651" y="-557.5" font-family="Helvetica,sans-Serif" font-size="10.00" fill="#4527a0">sdata:CrashSimulation</text>
</g>
<!-- uri::https://example.org/simulation/CrashSim_v3&#45;&gt;uri::https://w3id.org/sdata/core/CrashSimulation -->
<g id="edge8" class="edge">
<title>uri::https://example.org/simulation/CrashSim_v3&#45;&gt;uri::https://w3id.org/sdata/core/CrashSimulation</title>
<path fill="none" stroke="#4a5568" stroke-width="1.2" d="M405.51,-577.94C421.44,-574.07 439.38,-570.27 456,-568 496.38,-562.48 541.89,-560.39 578.67,-559.72"/>
<polygon fill="#4a5568" stroke="#4a5568" stroke-width="1.2" points="578.93,-562.34 586.39,-559.6 578.85,-557.09 578.93,-562.34"/>
<text text-anchor="middle" x="501.5" y="-570.8" font-family="Helvetica,sans-Serif" font-size="9.00">rdf:type</text>
</g>
<!-- uri::https://w3id.org/sdata/core/Specimen -->
<g id="node21" class="node">
<title>uri::https://w3id.org/sdata/core/Specimen</title>
<path fill="#f3e8ff" stroke="#7e57c2" stroke-width="1.2" d="M1248,-474C1248,-474 1175,-474 1175,-474 1169,-474 1163,-468 1163,-462 1163,-462 1163,-450 1163,-450 1163,-444 1169,-438 1175,-438 1175,-438 1248,-438 1248,-438 1254,-438 1260,-444 1260,-450 1260,-450 1260,-462 1260,-462 1260,-468 1254,-474 1248,-474"/>
<text text-anchor="middle" x="1211.5" y="-453.5" font-family="Helvetica,sans-Serif" font-size="10.00" fill="#4527a0">sdata:Specimen</text>
</g>
<!-- uri::https://example.org/simulation/Specimen_42&#45;&gt;uri::https://w3id.org/sdata/core/Specimen -->
<g id="edge25" class="edge">
<title>uri::https://example.org/simulation/Specimen_42&#45;&gt;uri::https://w3id.org/sdata/core/Specimen</title>
<path fill="none" stroke="#4a5568" stroke-width="1.2" d="M992.16,-429.83C1038.14,-435.34 1107.03,-443.6 1155.09,-449.36"/>
<polygon fill="#4a5568" stroke="#4a5568" stroke-width="1.2" points="1154.86,-451.98 1162.62,-450.26 1155.49,-446.76 1154.86,-451.98"/>
<text text-anchor="middle" x="1087.5" y="-447.8" font-family="Helvetica,sans-Serif" font-size="9.00">rdf:type</text>
</g>
<!-- lit::SPEC&#45;42:::: -->
<g id="node22" class="node">
<title>lit::SPEC&#45;42::::</title>
<polygon fill="#fff9db" stroke="#b08900" stroke-width="1.2" points="1235,-409 1182,-409 1182,-373 1241,-373 1241,-403 1235,-409"/>
<polyline fill="none" stroke="#b08900" stroke-width="1.2" points="1235,-409 1235,-403 "/>
<polyline fill="none" stroke="#b08900" stroke-width="1.2" points="1241,-403 1235,-403 "/>
<text text-anchor="middle" x="1211.5" y="-388.5" font-family="Helvetica,sans-Serif" font-size="10.00" fill="#5c4500">SPEC&#45;42</text>
</g>
<!-- uri::https://example.org/simulation/Specimen_42&#45;&gt;lit::SPEC&#45;42:::: -->
<g id="edge26" class="edge">
<title>uri::https://example.org/simulation/Specimen_42&#45;&gt;lit::SPEC&#45;42::::</title>
<path fill="none" stroke="#4a5568" stroke-width="1.2" d="M992.16,-417.99C1044.74,-411.49 1127.29,-401.28 1174.38,-395.46"/>
<polygon fill="#4a5568" stroke="#4a5568" stroke-width="1.2" points="1174.79,-398.06 1181.91,-394.53 1174.14,-392.85 1174.79,-398.06"/>
<text text-anchor="middle" x="1087.5" y="-413.8" font-family="Helvetica,sans-Serif" font-size="9.00">sdata:hasIdentifier</text>
</g>
<!-- uri::https://w3id.org/sdata/core/SoftwareAgent -->
<g id="node14" class="node">
<title>uri::https://w3id.org/sdata/core/SoftwareAgent</title>
<path fill="#f3e8ff" stroke="#7e57c2" stroke-width="1.2" d="M990.5,-783C990.5,-783 894.5,-783 894.5,-783 888.5,-783 882.5,-777 882.5,-771 882.5,-771 882.5,-759 882.5,-759 882.5,-753 888.5,-747 894.5,-747 894.5,-747 990.5,-747 990.5,-747 996.5,-747 1002.5,-753 1002.5,-759 1002.5,-759 1002.5,-771 1002.5,-771 1002.5,-777 996.5,-783 990.5,-783"/>
<text text-anchor="middle" x="942.5" y="-762.5" font-family="Helvetica,sans-Serif" font-size="10.00" fill="#4527a0">sdata:SoftwareAgent</text>
</g>
<!-- uri::https://example.org/simulation/LSDYNA_R14&#45;&gt;uri::https://w3id.org/sdata/core/SoftwareAgent -->
<g id="edge14" class="edge">
<title>uri::https://example.org/simulation/LSDYNA_R14&#45;&gt;uri::https://w3id.org/sdata/core/SoftwareAgent</title>
<path fill="none" stroke="#4a5568" stroke-width="1.2" d="M699.81,-710.73C747.58,-721.46 821.44,-738.04 874.94,-750.06"/>
<polygon fill="#4a5568" stroke="#4a5568" stroke-width="1.2" points="874.46,-752.64 882.35,-751.72 875.61,-747.52 874.46,-752.64"/>
<text text-anchor="middle" x="797.5" y="-744.8" font-family="Helvetica,sans-Serif" font-size="9.00">rdf:type</text>
</g>
<!-- lit::SW&#45;LSDYNA&#45;R14:::: -->
<g id="node15" class="node">
<title>lit::SW&#45;LSDYNA&#45;R14::::</title>
<polygon fill="#fff9db" stroke="#b08900" stroke-width="1.2" points="986.5,-718 892.5,-718 892.5,-682 992.5,-682 992.5,-712 986.5,-718"/>
<polyline fill="none" stroke="#b08900" stroke-width="1.2" points="986.5,-718 986.5,-712 "/>
<polyline fill="none" stroke="#b08900" stroke-width="1.2" points="992.5,-712 986.5,-712 "/>
<text text-anchor="middle" x="942.5" y="-697.5" font-family="Helvetica,sans-Serif" font-size="10.00" fill="#5c4500">SW&#45;LSDYNA&#45;R14</text>
</g>
<!-- uri::https://example.org/simulation/LSDYNA_R14&#45;&gt;lit::SW&#45;LSDYNA&#45;R14:::: -->
<g id="edge15" class="edge">
<title>uri::https://example.org/simulation/LSDYNA_R14&#45;&gt;lit::SW&#45;LSDYNA&#45;R14::::</title>
<path fill="none" stroke="#4a5568" stroke-width="1.2" d="M699.81,-700C750.47,-700 830.46,-700 884.41,-700"/>
<polygon fill="#4a5568" stroke="#4a5568" stroke-width="1.2" points="884.67,-702.63 892.17,-700 884.67,-697.38 884.67,-702.63"/>
<text text-anchor="middle" x="797.5" y="-702.8" font-family="Helvetica,sans-Serif" font-size="9.00">sdata:hasIdentifier</text>
</g>
<!-- uri::https://example.org/simulation/FEModel_v3&#45;&gt;uri::https://example.org/simulation/Specimen_42 -->
<g id="edge23" class="edge">
<title>uri::https://example.org/simulation/FEModel_v3&#45;&gt;uri::https://example.org/simulation/Specimen_42</title>
<path fill="none" stroke="#4a5568" stroke-width="1.2" d="M697.57,-608.1C706.13,-603.86 714.68,-598.83 722,-593 740.85,-577.99 737.46,-566.51 755,-550 800.45,-507.21 861.81,-468.76 901.52,-445.89"/>
<polygon fill="#4a5568" stroke="#4a5568" stroke-width="1.2" points="902.97,-448.08 908.18,-442.08 900.37,-443.52 902.97,-448.08"/>
<text text-anchor="middle" x="797.5" y="-552.8" font-family="Helvetica,sans-Serif" font-size="9.00">sdata:describes</text>
</g>
<!-- uri::https://example.org/simulation/FEModel_v3&#45;&gt;lit::3.0.0:::: -->
<g id="edge24" class="edge">
<title>uri::https://example.org/simulation/FEModel_v3&#45;&gt;lit::3.0.0::::</title>
<path fill="none" stroke="#4a5568" stroke-width="1.2" d="M697.55,-611.15C755.98,-593.39 855.97,-563 907.93,-547.21"/>
<polygon fill="#4a5568" stroke="#4a5568" stroke-width="1.2" points="908.82,-549.68 915.23,-544.98 907.29,-544.65 908.82,-549.68"/>
<text text-anchor="middle" x="797.5" y="-593.8" font-family="Helvetica,sans-Serif" font-size="9.00">sdata:hasVersion</text>
</g>
<!-- uri::https://w3id.org/sdata/core/Model -->
<g id="node20" class="node">
<title>uri::https://w3id.org/sdata/core/Model</title>
<path fill="#f3e8ff" stroke="#7e57c2" stroke-width="1.2" d="M970,-653C970,-653 915,-653 915,-653 909,-653 903,-647 903,-641 903,-641 903,-629 903,-629 903,-623 909,-617 915,-617 915,-617 970,-617 970,-617 976,-617 982,-623 982,-629 982,-629 982,-641 982,-641 982,-647 976,-653 970,-653"/>
<text text-anchor="middle" x="942.5" y="-632.5" font-family="Helvetica,sans-Serif" font-size="10.00" fill="#4527a0">sdata:Model</text>
</g>
<!-- uri::https://example.org/simulation/FEModel_v3&#45;&gt;uri::https://w3id.org/sdata/core/Model -->
<g id="edge22" class="edge">
<title>uri::https://example.org/simulation/FEModel_v3&#45;&gt;uri::https://w3id.org/sdata/core/Model</title>
<path fill="none" stroke="#4a5568" stroke-width="1.2" d="M697.55,-626.57C751.43,-628.43 840.64,-631.52 894.95,-633.39"/>
<polygon fill="#4a5568" stroke="#4a5568" stroke-width="1.2" points="895.11,-636.02 902.7,-633.66 895.29,-630.78 895.11,-636.02"/>
<text text-anchor="middle" x="797.5" y="-633.8" font-family="Helvetica,sans-Serif" font-size="9.00">rdf:type</text>
</g>
<!-- uri::https://example.org/simulation/TensileTest_42 -->
<g id="node9" class="node">
<title>uri::https://example.org/simulation/TensileTest_42</title>
<path fill="#e3f2fd" stroke="#1976d2" stroke-width="1.2" d="M397,-241C397,-241 317,-241 317,-241 311,-241 305,-235 305,-229 305,-229 305,-217 305,-217 305,-211 311,-205 317,-205 317,-205 397,-205 397,-205 403,-205 409,-211 409,-217 409,-217 409,-229 409,-229 409,-235 403,-241 397,-241"/>
<text text-anchor="middle" x="357" y="-220.5" font-family="Helvetica,sans-Serif" font-size="10.00" fill="#0d47a1">ex:TensileTest_42</text>
</g>
<!-- uri::https://example.org/simulation/TensileTest_42&#45;&gt;uri::https://example.org/simulation/Specimen_42 -->
<g id="edge11" class="edge">
<title>uri::https://example.org/simulation/TensileTest_42&#45;&gt;uri::https://example.org/simulation/Specimen_42</title>
<path fill="none" stroke="#4a5568" stroke-width="1.2" d="M381.57,-241.02C400.82,-255.15 429.15,-274.59 456,-288 601.66,-360.77 791.98,-399.59 885.15,-415.38"/>
<polygon fill="#4a5568" stroke="#4a5568" stroke-width="1.2" points="884.95,-418.01 892.78,-416.66 885.81,-412.83 884.95,-418.01"/>
<text text-anchor="middle" x="651" y="-382.8" font-family="Helvetica,sans-Serif" font-size="9.00">sdata:hasInput</text>
</g>
<!-- lit::DIN EN ISO 6892&#45;1:::: -->
<g id="node10" class="node">
<title>lit::DIN EN ISO 6892&#45;1::::</title>
<polygon fill="#fff9db" stroke="#b08900" stroke-width="1.2" points="699.5,-60 596.5,-60 596.5,-24 705.5,-24 705.5,-54 699.5,-60"/>
<polyline fill="none" stroke="#b08900" stroke-width="1.2" points="699.5,-60 699.5,-54 "/>
<polyline fill="none" stroke="#b08900" stroke-width="1.2" points="705.5,-54 699.5,-54 "/>
<text text-anchor="middle" x="651" y="-39.5" font-family="Helvetica,sans-Serif" font-size="10.00" fill="#5c4500">DIN EN ISO 6892&#45;1</text>
</g>
<!-- uri::https://example.org/simulation/TensileTest_42&#45;&gt;lit::DIN EN ISO 6892&#45;1:::: -->
<g id="edge9" class="edge">
<title>uri::https://example.org/simulation/TensileTest_42&#45;&gt;lit::DIN EN ISO 6892&#45;1::::</title>
<path fill="none" stroke="#4a5568" stroke-width="1.2" d="M373.08,-204.93C391.11,-184.22 423,-150.27 456,-128 497.4,-100.07 549.35,-77.6 589.08,-62.65"/>
<polygon fill="#4a5568" stroke="#4a5568" stroke-width="1.2" points="590.23,-65.02 596.35,-59.94 588.4,-60.1 590.23,-65.02"/>
<text text-anchor="middle" x="501.5" y="-130.8" font-family="Helvetica,sans-Serif" font-size="9.00">sdata:hasStandard</text>
</g>
<!-- uri::https://example.org/simulation/MeasurementData_42 -->
<g id="node11" class="node">
<title>uri::https://example.org/simulation/MeasurementData_42</title>
<path fill="#e3f2fd" stroke="#1976d2" stroke-width="1.2" d="M710,-252C710,-252 592,-252 592,-252 586,-252 580,-246 580,-240 580,-240 580,-228 580,-228 580,-222 586,-216 592,-216 592,-216 710,-216 710,-216 716,-216 722,-222 722,-228 722,-228 722,-240 722,-240 722,-246 716,-252 710,-252"/>
<text text-anchor="middle" x="651" y="-231.5" font-family="Helvetica,sans-Serif" font-size="10.00" fill="#0d47a1">ex:MeasurementData_42</text>
</g>
<!-- uri::https://example.org/simulation/TensileTest_42&#45;&gt;uri::https://example.org/simulation/MeasurementData_42 -->
<g id="edge10" class="edge">
<title>uri::https://example.org/simulation/TensileTest_42&#45;&gt;uri::https://example.org/simulation/MeasurementData_42</title>
<path fill="none" stroke="#4a5568" stroke-width="1.2" d="M409.01,-209.31C424.03,-205.89 440.58,-202.71 456,-201 496.2,-196.54 507.04,-194.76 547,-201 563.57,-203.59 581.12,-208.39 596.94,-213.54"/>
<polygon fill="#4a5568" stroke="#4a5568" stroke-width="1.2" points="596.14,-216.04 604.08,-215.93 597.8,-211.06 596.14,-216.04"/>
<text text-anchor="middle" x="501.5" y="-203.8" font-family="Helvetica,sans-Serif" font-size="9.00">sdata:producesData</text>
</g>
<!-- uri::https://example.org/simulation/ZwickZ100 -->
<g id="node12" class="node">
<title>uri::https://example.org/simulation/ZwickZ100</title>
<path fill="#e3f2fd" stroke="#1976d2" stroke-width="1.2" d="M683,-125C683,-125 619,-125 619,-125 613,-125 607,-119 607,-113 607,-113 607,-101 607,-101 607,-95 613,-89 619,-89 619,-89 683,-89 683,-89 689,-89 695,-95 695,-101 695,-101 695,-113 695,-113 695,-119 689,-125 683,-125"/>
<text text-anchor="middle" x="651" y="-104.5" font-family="Helvetica,sans-Serif" font-size="10.00" fill="#0d47a1">ex:ZwickZ100</text>
</g>
<!-- uri::https://example.org/simulation/TensileTest_42&#45;&gt;uri::https://example.org/simulation/ZwickZ100 -->
<g id="edge12" class="edge">
<title>uri::https://example.org/simulation/TensileTest_42&#45;&gt;uri::https://example.org/simulation/ZwickZ100</title>
<path fill="none" stroke="#4a5568" stroke-width="1.2" d="M397.85,-204.94C415.56,-197.06 436.73,-187.85 456,-180 504.48,-160.26 560.49,-139.39 599.83,-125.04"/>
<polygon fill="#4a5568" stroke="#4a5568" stroke-width="1.2" points="600.83,-127.47 606.98,-122.44 599.03,-122.54 600.83,-127.47"/>
<text text-anchor="middle" x="501.5" y="-182.8" font-family="Helvetica,sans-Serif" font-size="9.00">sdata:performedBy</text>
</g>
<!-- uri::https://w3id.org/sdata/core/MechanicalTest -->
<g id="node13" class="node">
<title>uri::https://w3id.org/sdata/core/MechanicalTest</title>
<path fill="#f3e8ff" stroke="#7e57c2" stroke-width="1.2" d="M701,-317C701,-317 601,-317 601,-317 595,-317 589,-311 589,-305 589,-305 589,-293 589,-293 589,-287 595,-281 601,-281 601,-281 701,-281 701,-281 707,-281 713,-287 713,-293 713,-293 713,-305 713,-305 713,-311 707,-317 701,-317"/>
<text text-anchor="middle" x="651" y="-296.5" font-family="Helvetica,sans-Serif" font-size="10.00" fill="#4527a0">sdata:MechanicalTest</text>
</g>
<!-- uri::https://example.org/simulation/TensileTest_42&#45;&gt;uri::https://w3id.org/sdata/core/MechanicalTest -->
<g id="edge13" class="edge">
<title>uri::https://example.org/simulation/TensileTest_42&#45;&gt;uri::https://w3id.org/sdata/core/MechanicalTest</title>
<path fill="none" stroke="#4a5568" stroke-width="1.2" d="M409.2,-236.33C457.08,-248.79 528.92,-267.49 581.68,-281.22"/>
<polygon fill="#4a5568" stroke="#4a5568" stroke-width="1.2" points="581.07,-283.77 588.99,-283.12 582.39,-278.69 581.07,-283.77"/>
<text text-anchor="middle" x="501.5" y="-273.8" font-family="Helvetica,sans-Serif" font-size="9.00">rdf:type</text>
</g>
<!-- uri::https://example.org/simulation/MeasurementData_42&#45;&gt;uri::https://example.org/simulation/Specimen_42 -->
<g id="edge18" class="edge">
<title>uri::https://example.org/simulation/MeasurementData_42&#45;&gt;uri::https://example.org/simulation/Specimen_42</title>
<path fill="none" stroke="#4a5568" stroke-width="1.2" d="M701.79,-252.11C709.04,-256.02 716.04,-260.63 722,-266 743.46,-285.34 732.98,-303.29 755,-322 785.88,-348.24 804.12,-336.15 840,-355 847.25,-358.81 882.37,-382.91 909.29,-401.57"/>
<polygon fill="#4a5568" stroke="#4a5568" stroke-width="1.2" points="907.93,-403.82 915.59,-405.94 910.92,-399.5 907.93,-403.82"/>
<text text-anchor="middle" x="797.5" y="-357.8" font-family="Helvetica,sans-Serif" font-size="9.00">sdata:describes</text>
</g>
<!-- uri::https://example.org/simulation/MeasurementData_42&#45;&gt;uri::https://example.org/simulation/TensileTest_42 -->
<g id="edge16" class="edge">
<title>uri::https://example.org/simulation/MeasurementData_42&#45;&gt;uri::https://example.org/simulation/TensileTest_42</title>
<path fill="none" stroke="#4a5568" stroke-width="1.2" d="M579.92,-231.36C530.11,-229.48 463.96,-226.99 416.88,-225.22"/>
<polygon fill="#4a5568" stroke="#4a5568" stroke-width="1.2" points="416.79,-222.59 409.2,-224.93 416.59,-227.83 416.79,-222.59"/>
<text text-anchor="middle" x="501.5" y="-232.8" font-family="Helvetica,sans-Serif" font-size="9.00">sdata:producedBy</text>
</g>
<!-- uri::https://w3id.org/sdata/core/MeasurementData -->
<g id="node16" class="node">
<title>uri::https://w3id.org/sdata/core/MeasurementData</title>
<path fill="#f3e8ff" stroke="#7e57c2" stroke-width="1.2" d="M1000,-361C1000,-361 885,-361 885,-361 879,-361 873,-355 873,-349 873,-349 873,-337 873,-337 873,-331 879,-325 885,-325 885,-325 1000,-325 1000,-325 1006,-325 1012,-331 1012,-337 1012,-337 1012,-349 1012,-349 1012,-355 1006,-361 1000,-361"/>
<text text-anchor="middle" x="942.5" y="-340.5" font-family="Helvetica,sans-Serif" font-size="10.00" fill="#4527a0">sdata:MeasurementData</text>
</g>
<!-- uri::https://example.org/simulation/MeasurementData_42&#45;&gt;uri::https://w3id.org/sdata/core/MeasurementData -->
<g id="edge17" class="edge">
<title>uri::https://example.org/simulation/MeasurementData_42&#45;&gt;uri::https://w3id.org/sdata/core/MeasurementData</title>
<path fill="none" stroke="#4a5568" stroke-width="1.2" d="M692.84,-252.2C711.64,-260.39 734.33,-269.99 755,-278 796.07,-293.91 842.87,-310.21 879.32,-322.52"/>
<polygon fill="#4a5568" stroke="#4a5568" stroke-width="1.2" points="878.52,-325.02 886.46,-324.92 880.19,-320.04 878.52,-325.02"/>
<text text-anchor="middle" x="797.5" y="-310.8" font-family="Helvetica,sans-Serif" font-size="9.00">rdf:type</text>
</g>
<!-- lit::18.5::http://www.w3.org/2001/XMLSchema#decimal:: -->
<g id="node17" class="node">
<title>lit::18.5::http://www.w3.org/2001/XMLSchema#decimal::</title>
<polygon fill="#fff9db" stroke="#b08900" stroke-width="1.2" points="963.5,-296 915.5,-296 915.5,-260 969.5,-260 969.5,-290 963.5,-296"/>
<polyline fill="none" stroke="#b08900" stroke-width="1.2" points="963.5,-296 963.5,-290 "/>
<polyline fill="none" stroke="#b08900" stroke-width="1.2" points="969.5,-290 963.5,-290 "/>
<text text-anchor="middle" x="942.5" y="-275.5" font-family="Helvetica,sans-Serif" font-size="10.00" fill="#5c4500">18.5</text>
</g>
<!-- uri::https://example.org/simulation/MeasurementData_42&#45;&gt;lit::18.5::http://www.w3.org/2001/XMLSchema#decimal:: -->
<g id="edge19" class="edge">
<title>uri::https://example.org/simulation/MeasurementData_42&#45;&gt;lit::18.5::http://www.w3.org/2001/XMLSchema#decimal::</title>
<path fill="none" stroke="#4a5568" stroke-width="1.2" d="M722.08,-244.65C780.93,-253.6 862.45,-265.98 907.73,-272.87"/>
<polygon fill="#4a5568" stroke="#4a5568" stroke-width="1.2" points="907.41,-275.47 915.22,-274.01 908.2,-270.28 907.41,-275.47"/>
<text text-anchor="middle" x="797.5" y="-265.8" font-family="Helvetica,sans-Serif" font-size="9.00">sdata:hasValue</text>
</g>
<!-- lit::1.0.0:::: -->
<g id="node18" class="node">
<title>lit::1.0.0::::</title>
<polygon fill="#fff9db" stroke="#b08900" stroke-width="1.2" points="963.5,-231 915.5,-231 915.5,-195 969.5,-195 969.5,-225 963.5,-231"/>
<polyline fill="none" stroke="#b08900" stroke-width="1.2" points="963.5,-231 963.5,-225 "/>
<polyline fill="none" stroke="#b08900" stroke-width="1.2" points="969.5,-225 963.5,-225 "/>
<text text-anchor="middle" x="942.5" y="-210.5" font-family="Helvetica,sans-Serif" font-size="10.00" fill="#5c4500">1.0.0</text>
</g>
<!-- uri::https://example.org/simulation/MeasurementData_42&#45;&gt;lit::1.0.0:::: -->
<g id="edge20" class="edge">
<title>uri::https://example.org/simulation/MeasurementData_42&#45;&gt;lit::1.0.0::::</title>
<path fill="none" stroke="#4a5568" stroke-width="1.2" d="M722.01,-224.37C733.03,-223.09 744.31,-221.9 755,-221 808.21,-216.51 870.19,-214.48 907.6,-213.61"/>
<polygon fill="#4a5568" stroke="#4a5568" stroke-width="1.2" points="907.76,-216.23 915.2,-213.44 907.65,-210.99 907.76,-216.23"/>
<text text-anchor="middle" x="797.5" y="-223.8" font-family="Helvetica,sans-Serif" font-size="9.00">sdata:hasVersion</text>
</g>
<!-- lit::percent:::: -->
<g id="node19" class="node">
<title>lit::percent::::</title>
<polygon fill="#fff9db" stroke="#b08900" stroke-width="1.2" points="964,-166 915,-166 915,-130 970,-130 970,-160 964,-166"/>
<polyline fill="none" stroke="#b08900" stroke-width="1.2" points="964,-166 964,-160 "/>
<polyline fill="none" stroke="#b08900" stroke-width="1.2" points="970,-160 964,-160 "/>
<text text-anchor="middle" x="942.5" y="-145.5" font-family="Helvetica,sans-Serif" font-size="10.00" fill="#5c4500">percent</text>
</g>
<!-- uri::https://example.org/simulation/MeasurementData_42&#45;&gt;lit::percent:::: -->
<g id="edge21" class="edge">
<title>uri::https://example.org/simulation/MeasurementData_42&#45;&gt;lit::percent::::</title>
<path fill="none" stroke="#4a5568" stroke-width="1.2" d="M703.14,-215.94C719.63,-210.3 738.03,-204.2 755,-199 807.74,-182.85 869.61,-166.42 907.16,-156.72"/>
<polygon fill="#4a5568" stroke="#4a5568" stroke-width="1.2" points="908.18,-159.17 914.79,-154.76 906.88,-154.09 908.18,-159.17"/>
<text text-anchor="middle" x="797.5" y="-201.8" font-family="Helvetica,sans-Serif" font-size="9.00">sdata:hasUnit</text>
</g>
<!-- lit::MCH&#45;ZWICK&#45;Z100:::: -->
<g id="node23" class="node">
<title>lit::MCH&#45;ZWICK&#45;Z100::::</title>
<polygon fill="#fff9db" stroke="#b08900" stroke-width="1.2" points="989.5,-36 889.5,-36 889.5,0 995.5,0 995.5,-30 989.5,-36"/>
<polyline fill="none" stroke="#b08900" stroke-width="1.2" points="989.5,-36 989.5,-30 "/>
<polyline fill="none" stroke="#b08900" stroke-width="1.2" points="995.5,-30 989.5,-30 "/>
<text text-anchor="middle" x="942.5" y="-15.5" font-family="Helvetica,sans-Serif" font-size="10.00" fill="#5c4500">MCH&#45;ZWICK&#45;Z100</text>
</g>
<!-- uri::https://example.org/simulation/ZwickZ100&#45;&gt;lit::MCH&#45;ZWICK&#45;Z100:::: -->
<g id="edge27" class="edge">
<title>uri::https://example.org/simulation/ZwickZ100&#45;&gt;lit::MCH&#45;ZWICK&#45;Z100::::</title>
<path fill="none" stroke="#4a5568" stroke-width="1.2" d="M695.08,-93.57C713.53,-87.83 735.32,-81.07 755,-75 797.29,-61.97 845.01,-47.39 881.6,-36.23"/>
<polygon fill="#4a5568" stroke="#4a5568" stroke-width="1.2" points="882.82,-38.6 889.23,-33.91 881.29,-33.58 882.82,-38.6"/>
<text text-anchor="middle" x="797.5" y="-77.8" font-family="Helvetica,sans-Serif" font-size="9.00">sdata:hasIdentifier</text>
</g>
<!-- uri::https://w3id.org/sdata/core/MachineAgent -->
<g id="node24" class="node">
<title>uri::https://w3id.org/sdata/core/MachineAgent</title>
<path fill="#f3e8ff" stroke="#7e57c2" stroke-width="1.2" d="M989.5,-101C989.5,-101 895.5,-101 895.5,-101 889.5,-101 883.5,-95 883.5,-89 883.5,-89 883.5,-77 883.5,-77 883.5,-71 889.5,-65 895.5,-65 895.5,-65 989.5,-65 989.5,-65 995.5,-65 1001.5,-71 1001.5,-77 1001.5,-77 1001.5,-89 1001.5,-89 1001.5,-95 995.5,-101 989.5,-101"/>
<text text-anchor="middle" x="942.5" y="-80.5" font-family="Helvetica,sans-Serif" font-size="10.00" fill="#4527a0">sdata:MachineAgent</text>
</g>
<!-- uri::https://example.org/simulation/ZwickZ100&#45;&gt;uri::https://w3id.org/sdata/core/MachineAgent -->
<g id="edge28" class="edge">
<title>uri::https://example.org/simulation/ZwickZ100&#45;&gt;uri::https://w3id.org/sdata/core/MachineAgent</title>
<path fill="none" stroke="#4a5568" stroke-width="1.2" d="M695.03,-103.43C742.79,-99.47 820.43,-93.04 875.81,-88.45"/>
<polygon fill="#4a5568" stroke="#4a5568" stroke-width="1.2" points="876.21,-91.05 883.47,-87.81 875.78,-85.81 876.21,-91.05"/>
<text text-anchor="middle" x="797.5" y="-100.8" font-family="Helvetica,sans-Serif" font-size="9.00">rdf:type</text>
</g>
</g>
</svg>
